<svg width="1427" height="980" viewBox="0 0 1427 980" fill="none" xmlns="http://www.w3.org/2000/svg">
<path opacity="0.1" d="M855.4 576.661C882.497 575.116 916.118 556.737 942.259 548.607C973.198 539.011 1004.26 529.778 1035.44 520.909C1144.01 490.019 1253.73 463.698 1364.62 441.946C1374.97 439.911 1385.34 437.925 1395.72 435.987C1379.55 401.045 1354.49 370.956 1323.06 348.724C1323.86 341.074 1324.27 333.389 1324.28 325.697C1324.28 204.138 1227.14 105.594 1107.26 105.594C1070.35 105.555 1034.06 115.081 1001.93 133.244C917.086 77.4303 806.342 43.6504 685.176 43.6504C513.003 43.6504 361.858 111.86 276.213 214.573L678.727 282.574L925.596 324.262C644.162 332.661 361.858 341.011 81.2339 321.295C44.1901 357.138 20.7439 404.734 14.9024 455.948C9.06091 507.161 21.1867 558.814 49.2074 602.079C49.2074 606.481 49.3913 610.846 49.7223 615.174C56.8707 617.222 63.7738 619.208 69.9657 620.508C169.372 641.507 269.416 659.082 370.098 673.231C295.905 718.978 205.551 725.452 119.967 744.825C161.41 779.034 217.69 800.001 279.707 800.001H1203.13C1303.12 800.001 1384.17 730.393 1384.17 644.515C1399.17 619.772 1409.17 592.323 1413.6 563.726C1228.57 581.59 1041.24 566.08 855.4 576.661Z" fill="#1877F2"/>
<path opacity="0.1" d="M1414.86 527.15C1414.96 491.756 1406.54 456.858 1390.33 425.399C1374.11 393.94 1350.56 366.843 1321.67 346.394C1322.47 338.748 1322.88 331.066 1322.9 323.379C1322.9 201.821 1225.7 103.313 1105.87 103.313C1068.96 103.274 1032.67 112.795 1000.54 130.95C915.689 75.1124 804.932 41.3203 683.766 41.3203C486.678 41.3203 317.031 130.766 241.796 259.032C237.615 258.787 233.409 258.652 229.166 258.652C109.325 258.652 12.1415 357.196 12.1415 478.754C12.0575 521.691 24.463 563.726 47.8464 599.736C47.8464 709.107 151.074 797.769 278.359 797.769H1201.81C1301.78 797.769 1382.83 728.149 1382.83 642.271C1403.86 607.559 1414.94 567.734 1414.86 527.15Z" fill="#1877F2"/>
<path d="M1157.71 392.3C1155.96 390.954 1153.91 390.054 1151.73 389.676C1149.44 389.149 1147.1 388.818 1144.77 388.45L1114.58 384.097C1111.53 383.532 1108.42 383.367 1105.33 383.607C1103.78 383.734 1102.28 384.168 1100.89 384.884C1099.51 385.599 1098.29 386.583 1097.29 387.776C1096.39 388.886 1095.9 390.27 1095.89 391.699C1096.06 393.137 1096.53 394.524 1097.27 395.77C1097.56 396.352 1097.81 396.955 1098.01 397.573C1098.3 398.959 1098.66 400.33 1099.09 401.68C1099.23 401.972 1099.4 402.245 1099.61 402.489C1099.61 402.559 1099.61 402.628 1099.61 402.698C1099.28 404.39 1100.34 406.155 1099.87 407.786C1099.45 409.184 1098.09 410.03 1097.23 411.195C1096.66 412.021 1096.34 412.998 1096.32 414.003C1096.3 415.008 1096.57 415.997 1097.11 416.847C1098.03 418.27 1099.69 419.238 1100.17 420.869C1100.8 423.015 1099.11 425.087 1097.6 426.742C1094.82 429.789 1092.26 433.022 1089.92 436.416C1089.27 437.251 1088.84 438.246 1088.7 439.298C1088.56 441.431 1090.61 443.307 1090.25 445.428C1089.97 447.096 1088.34 448.114 1086.93 449.107C1081.72 452.54 1077.54 458.058 1077.12 464.299C1075.78 454.369 1071.67 445.019 1065.25 437.324C1063.5 435.215 1061.57 433.094 1060.85 430.421C1060.58 429.354 1060.53 428.214 1060.16 427.184C1058.94 423.934 1055.04 422.537 1053.33 419.545C1052.11 417.436 1052.11 414.726 1050.59 412.875C1049.07 411.023 1046.68 410.606 1045.36 408.816C1044.71 407.604 1044.15 406.341 1043.7 405.04C1043.15 403.979 1042.37 403.05 1041.43 402.318C1041.25 402.173 1041.06 402.038 1040.86 401.913C1041.07 401.731 1041.23 401.508 1041.34 401.259C1041.46 401.009 1041.51 400.739 1041.51 400.466C1041.51 399.032 1040.09 398.088 1038.85 397.376C1037.26 396.469 1035.7 395.488 1034.18 394.47C1035.84 393.698 1037.28 392.522 1038.36 391.05C1039.72 388.853 1040.29 386.255 1039.96 383.693C1039.87 381.625 1039.1 379.644 1037.76 378.065C1036.99 377.243 1036.02 376.655 1035.21 375.882C1033.12 373.835 1032.4 370.806 1031.53 368.011C1030.38 364.332 1028.58 360.47 1025.22 358.52C1023.6 357.576 1021.71 357.135 1020.13 356.142C1018.55 355.149 1017.22 353.273 1017.78 351.47C1018.14 350.244 1019.28 349.398 1020.06 348.356C1020.98 347.008 1021.33 345.351 1021.04 343.744C1020.75 342.138 1019.84 340.711 1018.5 339.773C1017.59 339.197 1016.48 338.694 1016.29 337.639C1015.58 337.455 1014.94 337.074 1014.44 336.541C1013.93 336.007 1013.59 335.342 1013.45 334.623C1013.17 333.181 1013.17 331.7 1013.45 330.258C1013.77 327.977 1014.08 325.705 1014.39 323.441C1014.93 323.665 1015.51 323.781 1016.1 323.781C1016.68 323.781 1017.26 323.665 1017.8 323.441C1018.86 325.163 1020.09 326.773 1021.48 328.247C1025.21 332.656 1028.12 337.703 1030.06 343.145C1030.76 345.107 1031.47 347.301 1033.29 348.343C1033.91 348.699 1034.62 348.883 1035.24 349.263C1035.99 349.79 1036.64 350.456 1037.15 351.225C1038.62 353.174 1040.09 355.112 1041.55 357.061L1041.62 357.356C1041.66 357.528 1041.73 357.694 1041.82 357.846C1042.09 358.152 1042.47 358.344 1042.88 358.385C1047.39 359.428 1052.45 360.384 1056.36 357.92C1059.89 355.713 1061.44 351.348 1064.43 348.429C1066.55 346.357 1069.56 344.751 1070.16 341.833C1069.44 341.612 1068.74 341.354 1068.05 341.06C1068.66 340.447 1069.27 339.736 1070.11 338.927C1071.32 337.741 1072.41 336.439 1073.37 335.04C1074.4 333.314 1075.23 331.47 1075.82 329.547C1078.18 322.811 1080.55 316.072 1082.93 309.328C1084.06 306.14 1085.19 302.928 1086.61 299.826C1088.08 296.466 1089.82 293.241 1091.43 289.943C1095.58 281.365 1098.77 272.361 1100.97 263.091C1101.36 261.826 1101.49 260.495 1101.35 259.179C1101.01 257.058 1099.4 255.391 1097.87 253.882C1096.33 252.214 1094.57 250.758 1092.64 249.554C1091.68 248.953 1090.6 248.55 1089.48 248.369C1088.35 248.188 1087.2 248.232 1086.1 248.5C1082.96 249.419 1080.98 252.632 1080.26 255.857C1079.54 259.081 1079.81 262.404 1079.5 265.666C1079.06 270.386 1077.44 274.947 1077.05 279.68C1076.84 282.414 1077.05 285.186 1076.72 287.92C1076.11 291.498 1074.87 294.938 1073.04 298.072C1069.06 305.547 1063.68 312.184 1057.18 317.617C1056.44 318.242 1055.66 318.843 1054.93 319.517C1054.93 318.99 1055.01 318.45 1055.09 317.923C1054.55 318.062 1054.03 318.247 1053.53 318.475C1053.59 317.856 1053.53 317.23 1053.35 316.636C1052.37 313.705 1048 312.957 1047.22 309.978C1047.09 309.241 1047.02 308.495 1047.01 307.746C1046.75 305.135 1044.97 302.928 1044.36 300.39C1043.8 298.048 1044.22 295.485 1043.13 293.315C1042.2 291.958 1041.11 290.722 1039.87 289.636C1038.4 287.954 1037.34 285.951 1036.77 283.788C1036.61 283.187 1036.46 282.562 1036.29 281.961C1036.48 280.6 1036.33 279.215 1035.85 277.927C1034.73 275.156 1031.85 273.378 1030.81 270.57C1030 268.388 1030.36 265.666 1028.82 263.974C1028.01 263.165 1027.01 262.564 1025.92 262.22C1020.31 260.035 1014.42 258.644 1008.42 258.088C1005.06 257.782 1001.36 257.61 998.956 255.243C996.148 252.497 996.013 247.556 992.727 245.434C989.833 243.558 985.738 244.944 983.494 247.58C983.157 247.968 982.845 248.378 982.562 248.806C982.153 247.163 982.065 245.456 982.305 243.779C982.305 243.362 982.391 242.933 982.427 242.553C987.964 240.744 992.675 237.023 995.719 232.057C995.719 232.057 995.719 232.057 995.719 232.131L995.866 232.511C996.221 233.406 996.785 234.264 997.619 234.362C998.174 234.356 998.71 234.161 999.139 233.811C999.879 233.297 1000.56 232.705 1001.17 232.045C1001.49 231.702 1001.78 231.346 1002.06 230.978C1002.62 230.213 1003.11 229.391 1003.5 228.526C1004.11 227.225 1004.53 225.841 1004.73 224.419C1004.95 222.996 1004.98 221.537 1005.22 220.115C1005.45 219.014 1005.75 217.929 1006.12 216.866C1006.24 216.51 1006.36 216.154 1006.47 215.799C1006.58 215.443 1006.74 214.965 1006.86 214.573C1007.63 212.051 1008.04 209.435 1008.09 206.799C1008.09 206.358 1008.09 205.916 1008.09 205.475C1008.05 203.755 1007.66 202.061 1006.95 200.492C1006.24 198.924 1005.23 197.512 1003.97 196.34C1001.86 194.611 999.066 193.888 997.521 191.546C996.516 189.977 996.295 187.953 995.706 186.114C995.07 183.913 993.83 181.934 992.127 180.402C990.423 178.87 988.325 177.846 986.069 177.446C983.352 177.148 980.625 177.898 978.442 179.542L978.271 179.677C977.055 180.606 976.024 181.753 975.23 183.061C973.61 182.615 972.127 181.772 970.914 180.609C969.688 179.469 968.744 178.034 967.505 176.931C966.348 175.871 964.927 175.141 963.392 174.817C961.856 174.494 960.262 174.589 958.775 175.091C957.244 175.705 955.88 176.672 954.795 177.915C953.71 179.158 952.935 180.64 952.534 182.24C951.86 184.766 951.983 187.671 950.572 189.78C949.481 191.423 947.691 192.233 946.44 193.729C945.663 194.676 945.133 195.8 944.895 197.002C944.747 197.674 944.677 198.362 944.687 199.05C944.687 199.356 944.687 199.663 944.761 199.957C944.761 199.957 944.761 200.055 944.761 200.104C944.804 200.44 944.874 200.772 944.969 201.098C945.318 202.341 945.942 203.489 946.796 204.457C947.605 205.384 948.616 206.114 949.751 206.591C950.215 206.771 950.69 206.923 951.173 207.044L952.632 207.375L953.147 207.498C951.387 210.804 950.409 214.47 950.29 218.214C950.171 221.958 950.914 225.679 952.461 229.09C952.461 229.433 952.375 229.777 952.338 230.12C952.138 234.948 952.352 239.784 952.976 244.576C953.147 246.477 953.245 248.573 952.081 250.081C951.55 250.675 950.954 251.205 950.303 251.663C950.965 250.805 951.639 249.959 952.326 249.113C950.597 247.372 947.863 247.151 945.41 247.323C940.664 247.677 936.057 249.084 931.923 251.442C929.176 253.024 926.356 255.121 923.218 254.753C921.366 254.545 919.539 253.527 917.737 254.017C916.724 254.432 915.778 254.994 914.929 255.685C914.258 256.166 913.449 256.416 912.624 256.396C910.699 254.03 907.719 252.423 905.414 250.498C902.791 248.163 900.389 245.589 898.241 242.811C894.269 238.016 890.308 233.21 886.409 228.367C883.123 224.296 879.751 219.894 879.175 214.683C879.116 214.166 879.087 213.646 879.089 213.126C879.169 210.65 879.481 208.187 880.021 205.769C880.166 205.185 880.166 204.575 880.021 203.991C879.653 202.765 878.243 202.311 877.029 202.042C877.189 201.098 877.299 200.129 877.36 199.209C878.047 188.665 877.299 177.948 879.531 167.624C880.377 163.652 881.762 159.63 884.619 156.748C889.094 152.224 896.586 151.133 900.019 145.775C902.888 141.312 901.748 134.997 898.143 131.061C894.538 127.125 888.984 125.519 883.699 125.715C882.216 125.664 880.752 126.057 879.494 126.843C878.317 127.888 877.438 129.224 876.943 130.718L871.683 143.506C870.158 146.836 868.872 150.269 867.833 153.781C866.362 159.152 866.031 164.816 864.866 170.236C864.866 174.405 862.181 179.604 860.709 183.441C859.066 187.757 857.288 192.024 855.805 196.426C855.437 197.53 854.15 200.803 853.353 203.783C853.051 203.958 852.772 204.168 852.519 204.408C851.879 205.229 851.297 206.093 850.778 206.995C849.662 208.467 847.847 209.251 846.621 210.674C845.395 212.096 845.138 214.708 846.842 215.419C847.188 215.535 847.546 215.613 847.909 215.652C848.132 215.671 848.353 215.707 848.571 215.762C850.41 216.277 851.133 218.594 850.864 220.507C850.594 222.42 849.637 224.186 849.478 226.098C849.147 229.483 851.133 232.634 853.046 235.478C855.026 238.562 857.214 241.507 859.594 244.294C861.322 246.231 863.272 247.973 865.013 249.836C871.646 256.654 876.919 264.623 882.878 272.029C885.022 274.824 887.459 277.381 890.149 279.656C891.905 281.03 893.744 282.295 895.654 283.444L905.905 289.943C907.067 290.795 908.382 291.415 909.779 291.77C910.235 291.831 910.697 291.831 911.152 291.77C911.214 292.076 911.263 292.371 911.336 292.677C912.133 295.89 913.887 298.808 914.083 302.082C914.279 305.355 913.985 308.703 914.218 312.013C914.438 315.066 915.113 318.144 915.284 321.148C915.628 326.935 914.205 332.649 912.832 338.314C910.76 346.602 909.509 355.063 905.475 362.579C904.347 364.651 903.023 366.76 903.023 369.126C903.023 369.408 903.023 369.703 903.097 369.985L901.258 371.027C900.718 371.333 900.179 371.64 899.688 371.959C897.358 373.479 894.869 375.159 893.913 377.783C893.141 379.904 893.496 382.332 892.564 384.392C892.52 384.484 892.471 384.574 892.417 384.661C891.436 386.574 889.487 387.997 889.045 390.093C888.714 391.699 889.352 393.404 889.045 394.998C889.045 394.998 889.045 394.998 889.045 395.059C888.766 395.86 888.545 396.679 888.383 397.511C888.37 397.783 888.395 398.056 888.457 398.321C888.69 399.25 889.204 400.084 889.928 400.711C890.37 401.135 890.85 401.517 891.363 401.852C891.886 402.195 892.425 402.514 892.981 402.808L893.3 402.98C893.766 403.225 894.232 403.458 894.71 403.679L895.029 403.814C895.581 404.059 896.145 404.28 896.709 404.476L897.101 404.598C897.542 404.745 897.996 404.88 898.45 404.991L898.756 405.089L899.038 405.15L900.264 405.408L900.718 405.493C901.258 405.583 901.809 405.657 902.373 405.714H902.864C903.281 405.714 903.685 405.775 904.09 405.788H904.666C905.095 405.788 905.512 405.788 905.892 405.788H906.334C906.91 405.788 907.486 405.702 908.063 405.628H908.246C908.761 405.555 909.276 405.469 909.791 405.358L910.184 405.273C910.662 405.162 911.14 405.052 911.618 404.905L911.876 404.831C912.452 404.66 913.028 404.476 913.592 404.255C915.544 403.453 917.437 402.515 919.257 401.447C920.483 400.773 921.709 400.086 922.935 399.461C923.845 399.003 924.778 398.593 925.731 398.235C928.05 397.244 930.573 396.824 933.088 397.009C934.329 397.178 935.558 397.428 936.766 397.757C936.766 397.891 936.766 398.026 936.766 398.161C937.764 404.047 938.748 409.932 939.721 415.817C941.326 414.662 943.024 413.641 944.797 412.764C944.466 413.653 944.247 414.58 944.147 415.523C944.074 416.253 944.074 416.988 944.147 417.718C944.258 418.883 944.503 420.17 943.804 421.09C943.375 421.654 942.578 421.973 942.345 422.61C942.175 423.262 942.133 423.941 942.223 424.609C942.172 425.371 941.85 426.09 941.314 426.634C940.779 427.179 940.066 427.513 939.304 427.576C939.655 428.563 939.664 429.639 939.328 430.632C938.992 431.624 938.331 432.474 937.453 433.045C936.94 433.291 936.462 433.605 936.031 433.976C935.611 434.518 935.329 435.153 935.209 435.828C933.589 441.9 930.256 447.378 925.608 451.608C923.865 452.978 922.274 454.532 920.863 456.243C919.991 457.568 919.272 458.987 918.718 460.473C915.448 468.467 912.129 476.466 908.761 484.468C906.898 488.944 905.083 493.493 904.495 498.311C903.023 511.529 891.252 522.736 893.459 535.855C893.905 539.133 895.227 542.229 897.285 544.818C899.737 547.773 903.416 549.465 907.094 550.839C916.547 554.517 926.516 556.528 936.447 558.551L952.044 561.751C955.104 562.455 958.21 562.947 961.338 563.223C965.102 563.48 968.964 563.125 972.631 564.081C974.899 564.669 977.069 565.761 979.411 565.883C981.422 565.994 983.899 565.565 985.088 567.208C986.277 568.851 985.358 571.021 986.486 572.48C988.3 574.797 992.727 572.48 994.701 574.662C995.24 575.501 995.653 576.414 995.927 577.372C996.227 577.965 996.644 578.491 997.153 578.917C997.273 579.609 997.322 580.312 997.3 581.014C997.044 583.861 996.452 586.668 995.535 589.376C994.063 594.354 992.596 599.336 991.133 604.323C990.574 606.083 990.164 607.888 989.907 609.718C989.815 610.606 989.815 611.502 989.907 612.39C990.164 615.1 991.721 617.896 994.309 618.779C996.316 619.309 998.45 619.046 1000.27 618.043C1002.02 617.127 1003.67 616.017 1005.17 614.732C1007.89 612.678 1010.27 610.222 1012.25 607.449C1018.38 598.278 1016.39 585.869 1020.69 575.729C1023.55 568.961 1029.12 563.468 1030.97 556.332C1031.4 554.974 1031.45 553.523 1031.12 552.138C1030.34 549.686 1027.73 548.288 1025.29 547.406H1025.18C1023.18 546.692 1021.13 546.106 1019.05 545.652C1018.54 545.542 1018.01 545.456 1017.48 545.37C1016.32 544.421 1015.39 543.212 1014.77 541.839C1014.68 541.109 1014.48 540.396 1014.2 539.718C1014 539.426 1013.74 539.184 1013.43 539.013C1013.13 538.843 1012.78 538.748 1012.43 538.737C1011.2 538.614 1009.56 539.056 1008.23 538.958C1005.49 538.761 1003.68 536.076 1001.22 534.838C998.772 533.599 996.111 533.906 993.499 534.09C992.565 534.218 991.615 534.159 990.704 533.918C989.615 533.417 988.619 532.732 987.761 531.895C986.252 530.721 984.49 529.913 982.616 529.537C980.741 529.16 978.804 529.225 976.959 529.725C975.785 530.199 974.543 530.48 973.28 530.559C970.889 530.424 969.197 528.29 967.432 526.672C962.601 522.245 955.722 521.081 949.861 518.175C948.964 517.841 948.216 517.197 947.752 516.36C947.078 514.692 948.598 513.025 949.972 511.885L960.05 503.51C971.086 494.339 984.88 487.436 990.005 473.985C990.539 472.182 991.368 470.479 992.457 468.946C992.854 468.478 993.311 468.065 993.818 467.719C996.048 466.275 998.749 465.748 1001.36 466.248C1004.54 466.96 1007.55 468.275 1010.24 470.123C1014.63 472.779 1018.9 475.64 1023.05 478.706C1027.16 481.645 1031.07 484.857 1034.76 488.318C1041.2 494.449 1046.55 501.72 1052.55 508.329C1058.55 514.938 1065.4 521.105 1073.72 524.269C1082.05 527.432 1092.12 527.297 1099.27 521.988C1107.52 515.857 1110.17 504.896 1112.25 494.841C1116.85 490.403 1118.23 483.647 1120.48 477.676C1121.89 473.887 1123.69 470.319 1125.21 466.542C1127.02 462.104 1128.45 457.518 1129.87 452.945C1131.48 448.352 1132.58 443.594 1133.13 438.758C1133.72 431.119 1131.67 422.99 1133.82 415.817C1136.65 415.192 1139.22 413.598 1142.01 412.666C1146.15 411.305 1150.59 411.526 1154.98 411.55H1155.26C1156.78 411.711 1158.3 411.352 1159.58 410.533C1161.05 409.307 1161.28 407.21 1161.36 405.309C1161.53 400.613 1161.23 395.341 1157.71 392.3ZM980.061 183.147C979.047 183.398 977.998 183.473 976.959 183.368L980.061 183.147Z" fill="url(#paint0_linear_425_1220)"/>
<path d="M984.892 260.712C983.407 261.973 981.667 262.897 979.791 263.421L971.098 266.536C966.377 268.228 961.448 269.932 956.47 269.319C953.687 268.976 941.757 267.222 939.954 265.052C937.208 261.693 946.833 256.751 950.119 253.919C950.864 253.383 951.554 252.776 952.179 252.104C953.405 250.608 953.246 248.512 953.074 246.623C952.45 241.84 952.237 237.012 952.436 232.192C952.532 231.043 952.696 229.901 952.927 228.771C954.153 223.131 959.401 225.191 963.545 226.687C968.534 228.307 973.358 230.397 977.952 232.928C979.352 233.649 980.568 234.681 981.508 235.944C983.323 238.69 982.599 242.295 982.305 245.753C982.047 248.438 982.06 251.013 983.739 252.962C984.585 253.708 985.36 254.529 986.057 255.415C986.449 256.307 986.548 257.301 986.339 258.253C986.129 259.205 985.623 260.066 984.892 260.712Z" fill="#BE6F72"/>
<path d="M864.804 172.345C866.031 166.914 866.3 161.31 867.772 155.927C868.81 152.428 870.097 149.006 871.622 145.689L877.029 133.072C877.524 131.583 878.403 130.25 879.579 129.21C880.84 128.429 882.303 128.037 883.785 128.082C889.069 127.886 894.624 129.529 898.229 133.416C901.834 137.303 902.974 143.593 900.105 148.043C896.671 153.402 889.18 154.481 884.704 158.993C881.848 161.874 880.462 165.884 879.616 169.844C877.384 180.144 878.132 190.823 877.446 201.343C877.225 204.617 876.587 208.357 873.767 210.049C872.063 210.884 870.167 211.252 868.274 211.116L860.231 211.25C858.882 211.25 853.99 212.096 853.095 211.079C851.525 209.301 855.106 200.448 855.756 198.474C857.202 194.097 858.98 189.83 860.66 185.526C862.119 181.688 864.804 176.502 864.804 172.345Z" fill="#BE6F72"/>
<path d="M1030.88 557.547C1029.03 564.634 1023.47 570.152 1020.61 576.908C1016.31 587.023 1018.24 599.395 1012.16 608.542C1010.19 611.32 1007.8 613.78 1005.09 615.837C1003.58 617.118 1001.94 618.224 1000.18 619.136C998.364 620.138 996.23 620.402 994.223 619.871C991.636 618.988 990.078 616.193 989.821 613.495C989.729 612.611 989.729 611.719 989.821 610.835C990.078 609.009 990.489 607.209 991.047 605.452C992.518 600.49 993.986 595.52 995.449 590.542C996.365 587.843 996.957 585.044 997.215 582.205C997.374 579.115 995.412 575.093 996.246 572.212C996.626 570.912 998.048 569.759 998.698 568.668C999.621 567.098 1000.33 565.411 1000.81 563.653C1001.81 560.232 1002.5 556.579 1004.61 553.697C1005.98 551.988 1007.59 550.482 1009.39 549.222C1010.72 548.06 1012.27 547.187 1013.95 546.659C1015.58 546.372 1017.26 546.452 1018.86 546.892C1020.94 547.336 1022.98 547.918 1024.99 548.633H1025.1C1027.55 549.516 1030.15 550.877 1030.92 553.354C1031.3 554.728 1031.28 556.18 1030.88 557.547Z" fill="#3F3D56"/>
<path d="M1161.34 406.805C1161.27 408.706 1161.04 410.827 1159.57 412.016C1158.28 412.836 1156.76 413.195 1155.25 413.034H1154.92C1150.54 413.034 1146.09 412.789 1141.95 414.15C1138.8 415.192 1135.9 417.105 1132.62 417.485C1128.09 418 1123.84 415.523 1119.83 413.365C1116.05 411.331 1112.18 409.49 1108.22 407.848C1105.62 406.781 1100.31 406.094 1099.06 403.25C1098.63 401.904 1098.27 400.537 1097.98 399.154C1097.77 398.536 1097.52 397.934 1097.23 397.352C1096.49 396.11 1096.03 394.727 1095.86 393.293C1095.86 391.864 1096.35 390.48 1097.25 389.37C1098.25 388.186 1099.48 387.211 1100.86 386.502C1102.24 385.793 1103.74 385.363 1105.29 385.238C1108.38 384.998 1111.48 385.163 1114.53 385.728L1144.72 390.069C1147.05 390.4 1149.39 390.731 1151.68 391.295C1153.86 391.673 1155.91 392.573 1157.67 393.919C1161.23 396.911 1161.53 402.171 1161.34 406.805Z" fill="#3F3D56"/>
<path d="M1134.81 414.654C1131.13 422.415 1133.78 431.599 1133.12 440.182C1132.56 445.005 1131.47 449.751 1129.86 454.332C1128.43 458.893 1127.01 463.466 1125.2 467.893C1123.68 471.571 1121.87 475.249 1120.46 479.001C1118.22 484.985 1116.79 491.716 1112.24 496.167C1110.15 506.197 1107.5 517.158 1099.25 523.24C1092.08 528.537 1082.09 528.721 1073.71 525.521C1065.34 522.32 1058.53 516.19 1052.54 509.581C1046.54 502.972 1041.18 495.775 1034.75 489.62C1031.06 486.157 1027.14 482.949 1023.01 480.019C1018.86 477.003 1014.59 474.166 1010.2 471.51C1007.51 469.671 1004.5 468.36 1001.32 467.647C998.712 467.147 996.011 467.674 993.781 469.119C993.274 469.465 992.817 469.877 992.42 470.345C991.329 471.872 990.5 473.571 989.968 475.372C984.818 488.786 971 495.677 959.964 504.824L949.886 513.174C948.512 514.314 946.992 515.981 947.666 517.637C948.13 518.474 948.878 519.118 949.775 519.451C955.636 522.345 962.515 523.51 967.346 527.924C969.111 529.542 970.803 531.676 973.194 531.798C974.457 531.724 975.699 531.447 976.873 530.977C978.718 530.478 980.653 530.413 982.527 530.787C984.401 531.162 986.163 531.965 987.675 533.135C988.533 533.972 989.528 534.656 990.618 535.158C991.529 535.399 992.479 535.457 993.413 535.33C996.025 535.146 998.796 534.913 1001.14 536.078C1003.48 537.242 1005.4 539.989 1008.14 540.185C1009.48 540.283 1011.07 539.842 1012.34 539.964C1012.7 539.976 1013.04 540.07 1013.35 540.241C1013.65 540.412 1013.92 540.653 1014.11 540.945C1014.4 541.619 1014.59 542.329 1014.69 543.054C1015.19 544.783 1016.88 545.838 1017.98 547.26C1019.68 549.442 1019.92 552.41 1019.75 555.168C1019.2 563.795 1015.35 571.879 1009.01 577.754C1007.21 579.594 1004.91 580.872 1002.4 581.432C1001.14 581.695 999.833 581.556 998.658 581.035C997.483 580.513 996.502 579.636 995.853 578.526C995.58 577.572 995.166 576.663 994.627 575.829C992.653 573.658 988.227 575.964 986.412 573.646C985.284 572.199 986.093 569.882 985.014 568.386C983.935 566.89 981.336 567.16 979.337 567.074C976.995 566.952 974.825 565.848 972.557 565.272C968.878 564.315 965.028 564.671 961.264 564.413C958.136 564.138 955.03 563.646 951.97 562.942L936.374 559.754C926.442 557.731 916.474 555.683 907.02 552.066C903.403 550.693 899.761 549.001 897.211 546.058C895.155 543.472 893.834 540.381 893.386 537.108C891.166 524.025 902.937 512.842 904.421 499.662C904.948 494.855 906.873 490.318 908.688 485.855C912.014 477.877 915.333 469.895 918.644 461.909C919.179 460.422 919.878 458.999 920.728 457.667C922.139 455.96 923.73 454.41 925.473 453.044C930.12 448.828 933.453 443.362 935.074 437.301C935.194 436.626 935.476 435.991 935.895 435.449C936.33 435.085 936.808 434.776 937.318 434.53C938.194 433.959 938.852 433.111 939.188 432.122C939.524 431.132 939.517 430.059 939.169 429.073C939.93 429.01 940.644 428.676 941.179 428.132C941.715 427.587 942.037 426.868 942.087 426.106C941.998 425.442 942.04 424.767 942.21 424.12C942.504 423.482 943.24 423.163 943.669 422.599C944.368 421.68 944.123 420.392 944.012 419.24C943.939 418.51 943.939 417.775 944.012 417.045C944.281 414.449 945.442 412.026 947.298 410.191C950.229 407.309 954.398 408.057 958.444 407.371C962.48 406.5 966.422 405.239 970.215 403.607C980.854 399.414 992.056 396.824 1003.46 395.919C1014.91 395.018 1026.42 396.85 1037.03 401.265C1038.57 401.89 1040.03 402.714 1041.35 403.717C1042.3 404.445 1043.07 405.369 1043.62 406.427C1044.08 407.725 1044.63 408.984 1045.29 410.191C1046.6 411.981 1049.08 412.557 1050.51 414.249C1051.95 415.941 1052.07 418.798 1053.26 420.895C1054.96 423.887 1058.91 425.272 1060.09 428.522C1060.46 429.551 1060.51 430.679 1060.78 431.746C1061.44 434.419 1063.43 436.528 1065.18 438.637C1071.61 446.325 1075.72 455.679 1077.05 465.612C1077.44 459.395 1081.62 453.89 1086.86 450.457C1088.27 449.537 1089.9 448.52 1090.18 446.852C1090.53 444.743 1088.49 442.867 1088.62 440.721C1088.77 439.674 1089.19 438.684 1089.85 437.852C1092.18 434.465 1094.75 431.241 1097.52 428.203C1099.03 426.547 1100.72 424.524 1100.1 422.342C1099.62 420.711 1097.95 419.755 1097.03 418.332C1096.5 417.484 1096.22 416.497 1096.24 415.494C1096.27 414.491 1096.58 413.516 1097.16 412.692C1098.01 411.527 1099.38 410.681 1099.79 409.296C1100.27 407.665 1099.2 405.899 1099.53 404.22C1099.98 402.874 1100.87 401.721 1102.06 400.946C1103.69 399.465 1105.54 398.248 1107.54 397.341C1110.78 396.115 1114.38 396.569 1117.82 397.047C1123.55 397.844 1129.99 399.07 1133.23 403.876C1135.3 406.88 1136.36 411.442 1134.81 414.654Z" fill="#65617D"/>
<path opacity="0.1" d="M1161.34 406.805C1161.27 408.706 1161.04 410.827 1159.57 412.016C1158.28 412.836 1156.76 413.195 1155.25 413.034H1154.92C1155.42 410.484 1158.52 409.025 1159.06 406.438C1159.16 405.643 1159.08 404.838 1158.85 404.072C1158.62 403.306 1158.23 402.596 1157.71 401.987C1155.09 398.443 1150.87 396.481 1146.68 395.047C1134.83 390.985 1122.14 390.035 1109.82 392.288C1106.47 392.834 1103.21 393.836 1100.14 395.267C1099.12 395.906 1098.13 396.602 1097.19 397.352C1096.46 396.11 1095.99 394.727 1095.82 393.293C1095.82 391.864 1096.32 390.48 1097.22 389.37C1098.22 388.186 1099.44 387.211 1100.82 386.502C1102.2 385.793 1103.7 385.363 1105.25 385.238C1108.34 384.998 1111.45 385.163 1114.49 385.728L1144.68 390.069C1147.01 390.4 1149.35 390.731 1151.65 391.295C1153.82 391.673 1155.88 392.573 1157.63 393.919C1161.23 396.911 1161.53 402.171 1161.34 406.805Z" fill="black"/>
<path opacity="0.1" d="M1030.88 557.547C1029.03 564.634 1023.47 570.152 1020.61 576.908C1016.31 587.023 1018.24 599.395 1012.16 608.542C1010.19 611.32 1007.8 613.78 1005.09 615.837C1003.58 617.118 1001.94 618.224 1000.18 619.136C998.364 620.138 996.23 620.402 994.223 619.871C991.636 618.988 990.078 616.193 989.821 613.495C989.729 612.611 989.729 611.719 989.821 610.835L989.895 611.031C990.961 613.606 992.702 616.303 995.449 616.757C996.48 616.831 997.515 616.692 998.49 616.348C999.464 616.004 1000.36 615.463 1001.11 614.758C1005.16 611.509 1007.51 606.666 1009.76 601.994C1011.51 598.626 1012.9 595.078 1013.9 591.413C1014.39 589.328 1014.63 587.195 1015.13 585.111C1017.46 574.983 1025.39 566.719 1027.14 556.456C1027.29 555.75 1027.32 555.026 1027.24 554.31C1027.01 553.376 1026.66 552.477 1026.19 551.637C1025.76 550.688 1025.45 549.692 1025.26 548.67C1027.71 549.553 1030.31 550.914 1031.08 553.391C1031.4 554.768 1031.33 556.206 1030.88 557.547Z" fill="black"/>
<path opacity="0.1" d="M1012.37 539.962C1011.23 542.928 1009.32 545.537 1006.84 547.515C1003.35 550.174 999.261 551.942 994.933 552.664C992.918 553.178 990.804 553.153 988.802 552.591C986.08 551.647 984.119 549.096 981.335 548.361C979.349 547.821 977.215 548.299 975.205 548.005C971.587 547.502 968.78 544.743 965.861 542.536C956.923 535.817 945.189 533.647 936.25 526.928C935.852 526.684 935.523 526.342 935.294 525.935C935.123 525.494 935.06 525.019 935.11 524.549C935.143 520.474 936.059 516.454 937.795 512.766C939.217 510.193 940.911 507.78 942.847 505.569C950.854 495.76 958.897 485.877 968.485 477.601C972.507 474.131 976.897 470.894 981.973 469.324C984.793 468.454 990.36 467.632 993.793 469.104C993.286 469.449 992.828 469.862 992.432 470.33C991.34 471.857 990.511 473.556 989.979 475.357C984.817 488.783 970.999 495.674 959.964 504.821L949.885 513.171C948.512 514.311 946.991 515.978 947.666 517.634C948.129 518.471 948.878 519.115 949.775 519.448C955.636 522.342 962.514 523.507 967.345 527.921C969.111 529.54 970.803 531.673 973.194 531.796C974.456 531.722 975.698 531.444 976.872 530.974C978.717 530.475 980.652 530.41 982.527 530.785C984.401 531.159 986.163 531.962 987.674 533.132C988.533 533.969 989.528 534.654 990.617 535.155C991.528 535.396 992.479 535.455 993.413 535.327C996.024 535.143 998.795 534.91 1001.14 536.075C1003.48 537.24 1005.4 539.986 1008.14 540.182C1009.5 540.28 1011.09 539.814 1012.37 539.962Z" fill="black"/>
<path d="M899.602 373.553C897.272 375.049 894.795 376.741 893.839 379.34C893.054 381.462 893.422 383.889 892.478 385.949C891.534 388.009 889.413 389.444 888.947 391.651C888.616 393.257 889.266 394.949 888.947 396.555C888.669 397.391 888.444 398.242 888.272 399.106C888.15 400.933 889.719 402.416 891.252 403.434C894.515 405.556 898.23 406.884 902.1 407.31C905.969 407.736 909.884 407.248 913.531 405.886C916.804 404.66 919.759 402.661 922.898 401.092C925.959 399.329 929.461 398.478 932.989 398.64C935.012 398.86 936.95 399.596 938.973 399.866C939.972 400.063 941.004 400.015 941.98 399.724C942.957 399.434 943.848 398.91 944.576 398.198C945.201 397.336 945.62 396.342 945.802 395.292C947.507 388.561 946.734 381.425 945.116 374.657C943.497 367.888 941.045 361.378 939.316 354.646C938.09 349.656 937.146 344.543 935.098 339.822C933.051 335.102 929.605 330.712 924.786 328.91C924.406 328.723 923.975 328.667 923.56 328.75C923.251 328.88 922.978 329.082 922.763 329.339C918.952 333.378 916.079 338.21 914.352 343.488C912.427 349.362 911.9 355.59 910.134 361.488C909.374 363.94 908.393 367.226 906.456 369.102C904.519 370.978 901.797 372.143 899.602 373.553Z" fill="#3F3D56"/>
<path opacity="0.1" d="M945.84 395.255C945.634 396.308 945.194 397.302 944.553 398.161C943.826 398.875 942.935 399.4 941.958 399.688C940.98 399.977 939.947 400.021 938.949 399.817C936.938 399.571 935.001 398.824 932.978 398.591C929.449 398.427 925.947 399.278 922.887 401.043C919.748 402.612 916.756 404.562 913.507 405.825C908.754 407.627 903.561 407.922 898.634 406.671C896.017 406.013 893.53 404.919 891.277 403.434C889.732 402.428 888.175 400.981 888.298 399.106C888.469 398.246 888.695 397.399 888.972 396.567C889.291 394.961 888.653 393.269 888.972 391.663C889.438 389.456 891.572 387.985 892.503 385.949C893.435 383.914 893.08 381.474 893.852 379.353C894.809 376.741 897.298 375.061 899.627 373.553C901.957 372.045 904.728 370.892 906.592 369.065C906.832 368.781 907.05 368.477 907.242 368.158C908.586 366.085 909.572 363.801 910.16 361.402C911.962 355.492 912.453 349.276 914.365 343.39C916.1 338.116 918.976 333.289 922.789 329.253C922.993 328.99 923.264 328.786 923.574 328.664C923.987 328.58 924.417 328.632 924.8 328.812C929.606 330.626 933.052 335.016 935.111 339.736C937.171 344.457 938.042 349.545 939.329 354.548C941.046 361.279 943.51 367.815 945.129 374.571C946.747 381.327 947.544 388.512 945.84 395.255Z" fill="black"/>
<path opacity="0.1" d="M982.305 245.716C976.54 247.548 970.3 247.184 964.787 244.695C959.273 242.205 954.875 237.765 952.437 232.229C952.532 231.08 952.696 229.938 952.927 228.808C954.153 223.168 959.401 225.228 963.545 226.724C968.534 228.344 973.358 230.434 977.952 232.965C979.352 233.686 980.568 234.718 981.508 235.981C983.323 238.691 982.599 242.296 982.305 245.716Z" fill="black"/>
<path d="M974.898 245.643C988.442 245.643 999.421 234.664 999.421 221.12C999.421 207.577 988.442 196.598 974.898 196.598C961.355 196.598 950.376 207.577 950.376 221.12C950.376 234.664 961.355 245.643 974.898 245.643Z" fill="#BE6F72"/>
<path opacity="0.1" d="M1041.44 404.379C1041.44 406.414 1038.68 407.064 1036.63 406.953C1029.28 406.524 1022.08 404.501 1014.8 405.114C1005.59 405.948 997.128 411.036 987.896 411.502C984.34 411.686 980.723 411.159 977.216 411.809C972.679 412.655 968.633 415.414 964.011 415.806C960.001 416.149 956.041 414.641 952.031 414.801C949.228 414.968 946.495 415.746 944.025 417.081C944.293 414.485 945.455 412.062 947.311 410.227C950.241 407.346 954.41 408.094 958.456 407.407C962.492 406.536 966.434 405.275 970.227 403.643C980.866 399.451 992.068 396.86 1003.47 395.955C1014.92 395.044 1026.42 396.864 1037.03 401.264C1038.57 401.889 1040.03 402.714 1041.35 403.716C1041.42 403.93 1041.45 404.155 1041.44 404.379Z" fill="black"/>
<path d="M963.557 265.899L953.625 262.22L949.432 260.675C947.723 259.959 945.925 259.481 944.086 259.253C939.28 258.885 934.755 262.085 932.193 266.168C929.63 270.251 928.661 275.119 927.84 279.864C926.712 286.355 925.756 292.869 924.971 299.409C924.126 305.314 923.695 311.271 923.683 317.237C923.965 332.416 927.178 347.387 930.709 362.162C932.439 368.713 933.745 375.368 934.62 382.087C934.915 384.858 935.05 387.641 935.344 390.424C935.663 393.551 936.178 396.641 936.693 399.743L939.648 417.362C943.326 414.751 947.507 412.458 952.032 412.323C956.041 412.176 960.014 413.672 964.011 413.329C968.609 412.948 972.68 410.19 977.216 409.344C980.723 408.694 984.34 409.209 987.908 409.037C997.129 408.571 1005.6 403.47 1014.8 402.649C1022.09 401.987 1029.34 404.047 1036.65 404.476C1038.68 404.598 1041.44 403.949 1041.44 401.901C1041.44 400.479 1040.02 399.535 1038.78 398.823C1032.94 395.309 1027.39 391.344 1022.17 386.967C1017.34 383.141 1012.43 379.218 1009.11 374.043C1001.1 361.598 1003.85 344.763 997.018 331.631C991.464 320.964 997.018 306.986 997.018 294.958C997.018 288.962 997.018 282.893 995.608 277.069C994.727 273.811 993.629 270.616 992.322 267.505L987.552 255.428C987.453 255.075 987.258 254.756 986.988 254.508C986.668 254.287 986.287 254.171 985.897 254.177C983.033 254.005 980.208 254.91 977.976 256.715C975.733 258.542 974.298 261.166 972.091 263.066C969.676 265.163 966.561 267.002 963.557 265.899Z" fill="#E3E8F4"/>
<path d="M979.582 258.934C980.367 255.574 981.213 252.08 983.457 249.456C985.701 246.832 989.796 245.446 992.69 247.322C995.976 249.456 996.11 254.385 998.918 257.131C1001.37 259.486 1005.05 259.669 1008.38 259.976C1014.38 260.522 1020.27 261.909 1025.88 264.096C1026.98 264.435 1027.97 265.032 1028.79 265.837C1030.32 267.578 1030.01 270.251 1030.77 272.421C1031.82 275.217 1034.7 276.995 1035.81 279.778C1037.04 282.868 1035.81 286.326 1034.78 289.501C1032.93 295.203 1031.77 301.125 1029.96 306.851C1028.16 312.577 1025.6 318.217 1021.38 322.533C1019.52 324.446 1016.75 326.211 1014.29 325.071L1013.35 331.876C1013.07 333.314 1013.07 334.791 1013.35 336.229C1013.49 336.948 1013.83 337.613 1014.34 338.147C1014.84 338.68 1015.48 339.061 1016.19 339.245C1016.38 340.3 1017.49 340.802 1018.4 341.379C1019.07 341.837 1019.64 342.423 1020.08 343.104C1020.53 343.785 1020.83 344.546 1020.97 345.345C1021.12 346.143 1021.1 346.962 1020.93 347.755C1020.75 348.547 1020.42 349.298 1019.96 349.962C1019.19 351.004 1018.05 351.825 1017.68 353.064C1017.13 354.854 1018.44 356.742 1020.03 357.723C1021.63 358.704 1023.5 359.158 1025.12 360.102C1028.48 362.039 1030.28 365.852 1031.44 369.555C1032.29 372.351 1033 375.379 1035.11 377.415C1035.92 378.187 1036.89 378.776 1037.66 379.585C1039 381.165 1039.77 383.145 1039.86 385.213C1040.19 387.776 1039.63 390.376 1038.26 392.57C1035.81 396.076 1031.24 397.119 1027.23 398.7C1020.72 401.373 1015.36 406.155 1009.62 410.226C1007.29 412.108 1004.53 413.403 1001.59 414.002C997.619 414.53 993.707 412.776 989.71 412.617C987.319 412.639 984.939 412.952 982.623 413.549L975.266 415.143C975.659 409.441 972.52 403.727 970.766 398.296C967.456 388.07 966.843 377.133 967.627 366.416C968.412 355.7 970.595 345.131 972.753 334.61C974.261 327.254 974.114 319.566 976.431 312.418C978.601 305.539 981.703 298.93 982.844 291.77C984.707 280.183 976.958 270.361 979.582 258.934Z" fill="#3F3D56"/>
<path d="M1035.36 281.604C1036.04 282.85 1036.51 284.195 1036.77 285.589C1037.34 287.749 1038.4 289.747 1039.87 291.426C1041.1 292.514 1042.2 293.749 1043.13 295.104C1044.26 297.237 1043.83 299.837 1044.36 302.166C1044.97 304.704 1046.75 306.912 1047.01 309.523C1047.01 310.272 1047.08 311.018 1047.22 311.755C1048.01 314.722 1052.38 315.433 1053.35 318.4C1054 320.325 1052.88 322.422 1053.09 324.445C1053.24 325.071 1053.28 325.719 1053.2 326.358C1052.92 327.081 1052.44 327.704 1051.8 328.148C1047.74 332.025 1044.93 337.024 1043.73 342.506C1042.55 347.958 1041.93 353.517 1041.88 359.096L1037.09 352.757C1036.58 351.987 1035.93 351.322 1035.18 350.795C1034.56 350.427 1033.85 350.243 1033.23 349.875C1031.41 348.845 1030.7 346.663 1030 344.701C1028.06 339.27 1025.15 334.236 1021.42 329.84C1019.47 327.547 1017.2 325.242 1016.77 322.263C1016.64 320.894 1016.72 319.514 1016.99 318.167C1018.22 310.136 1019.53 301.909 1023.44 294.785C1025.27 291.45 1027.63 288.434 1029.39 285.05C1030.57 282.806 1032.22 276.969 1035.36 281.604Z" fill="#3F3D56"/>
<path d="M914.402 289.318C914.425 290.35 914.161 291.368 913.642 292.26C913.173 292.804 912.562 293.206 911.878 293.422C911.194 293.639 910.463 293.661 909.767 293.487C908.371 293.136 907.056 292.52 905.893 291.672C902.476 289.514 899.059 287.352 895.642 285.186C893.734 284.036 891.896 282.775 890.137 281.409C887.447 279.139 885.01 276.586 882.866 273.795C876.907 266.438 871.635 258.456 865.001 251.725C863.199 249.885 861.323 248.12 859.582 246.195C857.202 243.412 855.014 240.471 853.034 237.391C851.121 234.559 849.135 231.42 849.466 228.036C849.662 226.123 850.582 224.357 850.852 222.457C851.121 220.556 850.398 218.239 848.559 217.724C848.341 217.669 848.12 217.633 847.897 217.614C847.534 217.575 847.176 217.497 846.83 217.381C845.126 216.67 845.383 214.033 846.609 212.648C847.835 211.262 849.65 210.49 850.766 208.969C851.285 208.067 851.867 207.203 852.507 206.382C853.328 205.678 854.309 205.186 855.364 204.948C862.436 202.864 869.918 202.581 877.128 204.126C878.354 204.396 879.752 204.886 880.119 206.076C880.266 206.655 880.266 207.262 880.119 207.841C879.579 210.259 879.267 212.722 879.187 215.198C879.186 215.714 879.214 216.23 879.273 216.743C879.85 221.942 883.221 226.344 886.508 230.402C890.407 235.233 894.367 240.027 898.34 244.809C900.488 247.58 902.889 250.146 905.513 252.473C907.965 254.508 911.14 256.151 913.053 258.763C914.61 260.872 914.108 263.753 914.279 266.291C914.85 273.955 914.891 281.649 914.402 289.318Z" fill="#3F3D56"/>
<path d="M1070.12 340.472C1071.33 339.295 1072.42 338.001 1073.38 336.61C1074.41 334.886 1075.24 333.046 1075.83 331.129L1082.95 310.959C1084.07 307.772 1085.2 304.571 1086.62 301.469C1088.1 298.122 1089.84 294.897 1091.44 291.66C1095.57 283.142 1098.77 274.2 1100.97 264.992C1101.36 263.727 1101.49 262.397 1101.35 261.081C1101.01 258.959 1099.4 257.304 1097.87 255.796C1096.33 254.131 1094.57 252.68 1092.64 251.48C1091.68 250.879 1090.6 250.476 1089.48 250.295C1088.35 250.114 1087.2 250.158 1086.1 250.425C1082.96 251.345 1080.98 254.557 1080.26 257.782C1079.54 261.007 1079.81 264.305 1079.5 267.591C1079.06 272.3 1077.44 276.849 1077.05 281.569C1076.84 284.303 1077.05 287.062 1076.72 289.784C1076.11 293.359 1074.87 296.794 1073.04 299.924C1069.05 307.38 1063.67 313.999 1057.18 319.42C1055.41 320.732 1053.81 322.269 1052.43 323.993C1051.27 325.718 1050.49 327.664 1050.13 329.707C1049.32 332.818 1049.67 336.12 1051.13 338.989C1053.13 342.397 1056.96 343.893 1060.63 344.653C1065.58 345.683 1066.72 343.991 1070.12 340.472Z" fill="#BE6F72"/>
<path d="M975.046 185.586C976.101 183.603 977.718 181.974 979.694 180.904C981.669 179.833 983.916 179.368 986.154 179.566C988.409 179.965 990.506 180.988 992.21 182.518C993.913 184.048 995.154 186.024 995.792 188.223C996.368 190.05 996.601 192.073 997.606 193.642C999.127 196.009 1001.95 196.695 1004.06 198.412C1005.32 199.582 1006.33 200.991 1007.04 202.558C1007.74 204.124 1008.13 205.816 1008.18 207.534C1008.29 211.044 1007.74 214.544 1006.54 217.846C1006.04 219.255 1005.63 220.697 1005.32 222.162C1005.07 223.584 1005.05 225.031 1004.83 226.453C1004.56 228.298 1003.92 230.069 1002.95 231.663C1001.99 233.257 1000.71 234.642 999.2 235.735C998.771 236.086 998.235 236.28 997.68 236.287C996.724 236.177 996.135 235.061 995.78 234.055C993.83 228.427 994.296 221.549 990.703 217.061C989.069 215.251 987.094 213.78 984.892 212.733C983.993 212.154 982.982 211.773 981.924 211.617C980.369 211.701 978.875 212.247 977.633 213.187C975.045 214.923 972.173 216.192 969.148 216.939C967.638 217.296 966.068 217.312 964.551 216.986C963.034 216.659 961.61 215.998 960.381 215.05C958.689 213.653 957.451 211.556 955.575 210.465C953.699 209.373 951.737 209.435 949.886 208.687C948.706 208.185 947.656 207.42 946.816 206.451C945.977 205.482 945.369 204.334 945.04 203.095C944.712 201.856 944.67 200.558 944.919 199.3C945.168 198.042 945.701 196.858 946.477 195.837C947.703 194.366 949.518 193.532 950.609 191.901C952.019 189.792 951.896 186.898 952.571 184.373C952.97 182.775 953.744 181.295 954.83 180.056C955.915 178.817 957.28 177.855 958.812 177.249C960.297 176.744 961.891 176.648 963.426 176.969C964.962 177.29 966.383 178.018 967.542 179.076C968.768 180.179 969.749 181.602 970.95 182.754C972.137 183.89 973.589 184.709 975.174 185.138C976.76 185.566 978.427 185.59 980.024 185.206" fill="#3F3D56"/>
<path opacity="0.1" d="M995.203 366.062C994.49 366.698 993.984 367.534 993.752 368.461C993.52 369.389 993.573 370.364 993.904 371.261C994.173 371.837 1006.83 369.397 1008.16 369.213C1011.5 368.735 1017.35 368.968 1019.59 365.915C1023.59 360.508 1011.2 361.71 1008.94 361.906C1004.62 362.274 998.489 362.862 995.203 366.062Z" fill="black"/>
<path d="M880.094 207.89C879.553 210.308 879.241 212.771 879.162 215.247C875.484 215.995 871.658 214.769 868.127 213.543L857.987 210.085C857.37 209.691 856.626 209.546 855.907 209.681C855.187 209.815 854.545 210.218 854.112 210.809C852.481 212.501 850.238 215.713 847.982 217.614C847.619 217.575 847.261 217.497 846.915 217.381C845.211 216.67 845.468 214.033 846.694 212.648C847.92 211.262 849.735 210.49 850.851 208.969C851.37 208.067 851.952 207.203 852.592 206.382C853.413 205.678 854.394 205.186 855.449 204.948C862.521 202.864 870.003 202.581 877.213 204.126C878.439 204.396 879.836 204.886 880.204 206.076C880.324 206.68 880.286 207.305 880.094 207.89Z" fill="#3F3D56"/>
<path opacity="0.1" d="M880.094 207.89C879.553 210.308 879.241 212.771 879.162 215.247C875.484 215.995 871.658 214.769 868.127 213.543L857.987 210.085C857.37 209.691 856.626 209.546 855.907 209.681C855.187 209.815 854.545 210.218 854.112 210.809C852.481 212.501 850.238 215.713 847.982 217.614C847.619 217.575 847.261 217.497 846.915 217.381C845.211 216.67 845.468 214.033 846.694 212.648C847.92 211.262 849.735 210.49 850.851 208.969C851.37 208.067 851.952 207.203 852.592 206.382C853.413 205.678 854.394 205.186 855.449 204.948C862.521 202.864 870.003 202.581 877.213 204.126C878.439 204.396 879.836 204.886 880.204 206.076C880.324 206.68 880.286 207.305 880.094 207.89Z" fill="black"/>
<path opacity="0.1" d="M972.851 440.67C974.617 441.259 976.529 442.117 977.13 443.882L962.932 440.278L955.575 438.402C954.275 438.071 949.616 437.69 948.758 436.673C947.531 435.177 951.884 436.207 952.669 436.317C955.048 436.673 957.426 437.041 959.793 437.47C964.256 438.267 968.547 439.579 972.851 440.67Z" fill="black"/>
<path opacity="0.1" d="M978.356 453.239C977.13 452.417 973.611 452.515 972.103 452.16C969.896 451.632 967.726 450.933 965.555 450.259C961.154 448.824 956.789 447.194 952.264 446.139C951.43 445.955 948.586 445.906 948.721 444.852C948.856 443.797 951.565 443.429 952.24 443.38C956.249 443.086 961.252 444.962 964.979 446.299C969.73 448 974.229 450.335 978.356 453.239Z" fill="black"/>
<path opacity="0.1" d="M969.357 429.465C964.857 428.238 960.774 425.443 956.139 424.903C954.931 424.949 953.743 424.586 952.767 423.873C952.223 423.338 951.844 422.657 951.676 421.912C954.778 421.752 958.383 423.064 961.203 424.303C962.755 424.968 964.248 425.764 965.666 426.681C966.696 427.307 968.241 429.109 969.357 429.465Z" fill="black"/>
<path d="M1055.14 319.678C1054.38 324.775 1055.48 329.976 1058.24 334.329C1061 338.681 1065.23 341.894 1070.17 343.379C1069.57 346.285 1066.56 347.891 1064.44 349.963C1061.45 352.869 1059.91 357.222 1056.37 359.429C1052.44 361.881 1047.37 360.925 1042.89 359.895C1042.48 359.849 1042.1 359.652 1041.83 359.343C1041.74 359.196 1041.67 359.034 1041.64 358.865C1040.15 353.433 1039.18 347.634 1040.7 342.189C1041.93 337.555 1044.87 333.607 1047.23 329.511C1049.58 325.416 1049.8 321.026 1055.14 319.678Z" fill="#3F3D56"/>
<path d="M945.509 249.37C940.763 249.716 936.154 251.119 932.021 253.478C929.275 255.047 926.455 257.156 923.316 256.776C921.464 256.568 919.637 255.55 917.835 256.04C916.82 256.45 915.873 257.012 915.027 257.708C914.598 258.05 914.088 258.274 913.547 258.36C913.005 258.446 912.451 258.39 911.937 258.198L910.711 275.168C910.245 281.618 909.792 288.202 911.337 294.492C912.134 297.704 913.887 300.623 914.083 303.884C914.279 307.146 913.985 310.493 914.218 313.791C914.439 316.844 915.113 319.848 915.285 322.901C915.628 328.664 914.206 334.378 912.832 339.981C910.76 348.245 909.51 356.693 905.476 364.173C904.348 366.245 903.023 368.354 903.023 370.708C903.023 371.002 903.023 371.284 903.097 371.566C901.871 372.241 900.731 372.878 899.688 373.54C897.359 375.049 894.87 376.728 893.913 379.34C893.141 381.461 893.496 383.889 892.565 385.937C891.633 387.984 889.499 389.443 889.033 391.65C888.702 393.257 889.34 394.949 889.033 396.555C888.756 397.386 888.53 398.234 888.359 399.093C888.236 400.932 889.793 402.416 891.338 403.421C893.591 404.906 896.078 406.001 898.695 406.658L906.015 377.599C912.689 365.259 918.241 352.345 922.605 339.013C923.853 334.655 925.456 330.406 927.399 326.31C928.787 323.993 930.016 321.584 931.077 319.1C932.193 316.01 932.303 312.663 932.843 309.402C933.483 305.595 934.447 301.85 935.724 298.207C937.048 294.271 938.581 290.348 938.851 286.216C939.256 280.306 937.11 274.065 939.39 268.596C940.358 266.549 941.618 264.654 943.13 262.968C946.294 259.094 949.175 255.035 952.338 251.16C950.695 249.407 947.961 249.223 945.509 249.37Z" fill="#3F3D56"/>
<g opacity="0.1">
<path opacity="0.1" d="M980.061 181.553L978.528 181.663L978.356 181.786C978.93 181.762 979.501 181.684 980.061 181.553Z" fill="black"/>
<path opacity="0.1" d="M1008.11 207.007C1007.86 209.445 1007.33 211.847 1006.54 214.168C1006.04 215.577 1005.63 217.019 1005.32 218.484C1005.07 219.906 1005.05 221.353 1004.83 222.775C1004.56 224.62 1003.92 226.391 1002.95 227.985C1001.99 229.579 1000.71 230.963 999.2 232.057C998.771 232.408 998.235 232.602 997.68 232.609C996.724 232.499 996.135 231.383 995.779 230.377C993.83 224.749 994.296 217.871 990.703 213.383C989.069 211.573 987.094 210.102 984.891 209.055C983.993 208.476 982.982 208.095 981.924 207.939C980.369 208.023 978.875 208.569 977.633 209.509C975.045 211.244 972.173 212.514 969.148 213.261C967.638 213.618 966.068 213.634 964.551 213.308C963.034 212.981 961.61 212.32 960.381 211.372C958.689 209.975 957.451 207.878 955.575 206.787C953.699 205.695 951.737 205.757 949.885 205.009C948.729 204.515 947.698 203.767 946.871 202.82C946.043 201.873 945.439 200.752 945.104 199.54C945.06 199.387 945.028 199.232 945.005 199.074C944.699 200.443 944.733 201.866 945.104 203.219C945.439 204.431 946.043 205.552 946.871 206.498C947.698 207.445 948.729 208.193 949.885 208.687C951.737 209.435 953.821 209.447 955.575 210.465C957.328 211.483 958.689 213.653 960.381 215.051C961.61 215.998 963.034 216.659 964.551 216.986C966.068 217.313 967.638 217.297 969.148 216.939C972.173 216.193 975.045 214.923 977.633 213.187C978.875 212.248 980.369 211.701 981.924 211.618C982.982 211.774 983.993 212.154 984.891 212.733C987.067 213.801 989.012 215.284 990.617 217.098C994.21 221.586 993.744 228.465 995.694 234.092C996.049 235.11 996.638 236.214 997.594 236.324C998.183 236.327 998.753 236.118 999.2 235.735C1000.72 234.639 1002 233.249 1002.97 231.648C1003.93 230.047 1004.57 228.269 1004.84 226.417C1005.06 224.995 1005.09 223.548 1005.33 222.125C1005.64 220.66 1006.05 219.218 1006.56 217.809C1007.75 214.507 1008.31 211.007 1008.19 207.498C1008.16 207.351 1008.14 207.179 1008.11 207.007Z" fill="black"/>
</g>
<path d="M930.537 305.393L929.703 316.587C929.58 318.108 926.674 354.303 905.242 396.604C886.85 432.886 851.059 480.141 783.487 506.699C778.215 508.783 772.742 510.728 767.069 512.535L760.742 492.672C776.626 487.673 791.926 480.981 806.379 472.71C840.821 452.822 867.599 424.437 886.273 387.911C896.181 368.464 903.242 347.693 907.24 326.237H830.362V305.393H930.537Z" fill="#1877F2"/>
<path opacity="0.1" d="M775.212 506.71C842.771 480.152 878.574 432.909 896.954 396.628C918.387 354.326 921.305 318.156 921.415 316.611L922.249 305.416H930.832L929.998 316.611C929.888 318.131 926.97 354.326 905.537 396.628C887.145 432.909 851.354 480.152 783.794 506.71C778.522 508.794 773.045 510.744 767.364 512.558L766.531 509.947C769.49 508.892 772.383 507.813 775.212 506.71Z" fill="white"/>
<path d="M639.944 492.672L633.617 512.535C627.936 510.72 622.459 508.771 617.187 506.686C549.627 480.128 513.824 432.886 495.445 396.604C474.012 354.303 471.094 318.132 470.983 316.587L470.15 305.393H570.275V326.237H493.385C497.404 347.696 504.486 368.466 514.413 387.911C533.087 424.437 559.853 452.822 594.295 472.698C608.749 480.977 624.054 487.674 639.944 492.672Z" fill="#1877F2"/>
<path opacity="0.1" d="M625.451 506.71C557.892 480.152 522.089 432.909 503.709 396.628C482.276 354.326 479.358 318.156 479.248 316.611L478.414 305.416H469.831L470.665 316.611C470.775 318.131 473.693 354.326 495.126 396.628C513.518 432.909 549.309 480.152 616.868 506.71C622.141 508.794 627.618 510.744 633.299 512.558L634.132 509.947C631.182 508.892 628.288 507.813 625.451 506.71Z" fill="white"/>
<path d="M816.005 684.683V797.083H584.671V684.683L592.027 674.874C666.993 648.267 682.185 578.881 685.213 551.427C685.664 547.634 685.922 543.82 685.986 540H714.591C714.655 543.82 714.913 547.634 715.364 551.427C718.441 578.881 733.633 648.292 808.55 674.874L816.005 684.683Z" fill="#1877F2"/>
<path opacity="0.1" d="M816.005 684.684H584.671V698.784H816.005V684.684Z" fill="black"/>
<path opacity="0.1" d="M604.289 674.874C679.254 648.267 694.446 578.881 697.475 551.427C697.925 547.634 698.183 543.82 698.247 540H685.986C685.922 543.82 685.664 547.634 685.213 551.427C682.136 578.881 666.944 648.292 592.027 674.874L584.671 684.683V797.083H596.932V684.683L604.289 674.874Z" fill="white"/>
<path opacity="0.1" d="M549.53 305.393H570.276V326.237H551.369C550.625 319.37 550.012 312.422 549.53 305.393Z" fill="black"/>
<path opacity="0.1" d="M639.944 492.671L633.617 512.534C627.936 510.72 622.459 508.77 617.187 506.686C608.514 496.094 600.85 484.715 594.295 472.697C608.749 480.976 624.054 487.673 639.944 492.671Z" fill="black"/>
<path opacity="0.1" d="M760.73 492.67C776.614 487.672 791.914 480.979 806.367 472.709C799.808 484.729 792.145 496.111 783.475 506.71C778.203 508.794 772.73 510.739 767.057 512.546L760.73 492.67Z" fill="black"/>
<path opacity="0.1" d="M851.133 305.393C850.651 312.422 850.038 319.37 849.294 326.237H830.399V305.393H851.133Z" fill="black"/>
<path opacity="0.1" d="M715.413 551.427C705.455 553.357 695.22 553.357 685.262 551.427C685.713 547.634 685.971 543.82 686.035 540H714.64C714.704 543.82 714.962 547.634 715.413 551.427Z" fill="black"/>
<path d="M551.982 270.865C552.509 425.431 618.72 550.423 700.343 550.423C781.967 550.423 848.166 425.431 848.705 270.865H551.982Z" fill="#1877F2"/>
<path opacity="0.1" d="M578.343 270.865H551.982C552.509 425.431 618.72 550.423 700.343 550.423C704.76 550.415 709.169 550.042 713.524 549.307C638.068 536.702 578.846 417.02 578.343 270.865Z" fill="white"/>
<path d="M779.012 727.707H621.663V768.169H779.012V727.707Z" fill="#3F3D56"/>
<path opacity="0.1" d="M629.02 733.225H779.012V727.707H621.663V768.169H629.02V733.225Z" fill="white"/>
<path d="M468.066 420.098C465.234 419.154 448.559 405.961 447.296 399.989C446.033 394.018 456.112 338.389 456.112 338.389C456.112 338.389 455.18 338.389 453.659 338.205V337.31L455.731 264.232C455.731 264.232 464.229 215.187 448.179 218.044C432.128 220.901 442.195 264.232 442.195 264.232C442.195 264.232 440.368 286.229 439.081 292.826C437.854 299.189 432.239 325.11 436.064 333.165C436.204 333.451 436.36 333.73 436.53 333.999C436.53 333.999 437.168 361.648 430.24 365.425C423.631 369.017 420.885 387.103 420.652 388.721L420.296 388.574C418.323 387.339 416.591 385.757 415.183 383.902C415.036 383.719 414.926 383.522 414.791 383.326C419.302 378.251 421.733 371.661 421.599 364.872C421.465 358.083 418.776 351.595 414.068 346.702C411.878 344.428 409.31 342.553 406.478 341.16C406.395 338.817 405.841 336.515 404.847 334.391C401.659 327.574 384.003 318.66 371.46 318.452C365.672 318.28 360.927 319.923 359.198 324.447C358.315 326.74 358.585 329.352 358.217 331.731C357.482 336.635 354.331 340.473 350.284 343.526C348.65 341.702 346.884 340.001 345 338.438C340.904 335.299 332.738 324.95 332.738 324.95C332.738 324.95 307.247 298.552 305.359 291.317C303.471 284.083 278.004 240.642 272.339 248.207C266.675 255.772 291.847 288.743 291.847 288.743C291.847 288.743 296.629 300.722 300.307 304.768C303.986 308.814 332.187 349.767 332.187 349.767L333.535 352.563C327.576 355.702 322.132 359.699 320.207 365.927C317.387 375.099 323.555 384.319 327.822 392.902C336.135 409.651 337.324 431.01 326.596 446.312C316.983 459.824 300.307 466.249 284.699 471.865C292.237 477.784 301.601 480.893 311.183 480.656C307.578 491.103 294.802 494.561 283.914 496.498C289.628 501.991 297.806 503.99 305.653 505.204C309.496 505.858 313.391 506.165 317.289 506.123H318.246L319.202 506.05C320.531 505.961 321.853 505.793 323.162 505.547C328.827 504.394 334.332 501.304 337.226 496.302C339.678 492.023 340.537 486.186 344.987 484.04C346.146 483.517 347.395 483.222 348.666 483.17H348.531C349.365 483.17 350.223 483.17 351.057 483.17L369.608 483.354C370.381 483.354 371.178 483.354 371.975 483.354C377.21 483.231 382.801 482.324 385.462 477.996C386.557 475.894 387.132 473.56 387.142 471.191C387.534 465.317 387.142 459.273 387.301 453.35C388.883 464.128 390.538 480.926 386.602 487.13C383.405 491.832 379.529 496.034 375.101 499.6C373.987 500.535 372.969 501.579 372.06 502.714C371.46 503.144 371.104 503.377 371.104 503.377L370.724 504.517C369.326 506.636 368.314 508.986 367.732 511.457C367.518 512.091 367.439 512.764 367.499 513.431C367.928 514.301 364.434 517.894 365.452 519.402C356.722 529.64 355.066 545.151 355.066 545.151L339.127 569.355C330.936 590.873 318.675 593.08 318.675 593.08C318.675 593.08 289.873 573.756 289.088 572.812C288.303 571.868 277.293 567.148 277.293 567.148C275.995 564.871 274.013 563.061 271.628 561.973C267.852 560.404 267.533 554.617 267.533 554.617C267.067 540.945 259.036 539.903 259.036 539.903C252.562 539.351 247.62 540.504 243.819 542.613L242.667 542.699C237.1 543.152 230.406 543.655 223.049 544.145C202.585 545.494 197.717 558.749 197.717 558.749C197.717 558.749 195.203 561.581 198.502 564.646C201.8 567.712 222.914 564.646 223.809 564.573C222.2 564.747 220.573 564.635 219.003 564.242C222.325 564.119 226.899 563.996 230.798 563.996H231.742C231.497 566.063 231.378 568.144 231.387 570.225C231.387 574.149 242.238 576.662 242.238 576.662L275.282 606.089C275.282 606.089 296.053 615.371 309.27 628.724C322.488 642.076 334.173 630.551 334.173 630.551C348.163 627.093 388.417 578.428 388.454 578.379C388.454 579.801 389.3 627.13 390.906 636.632C390.97 637.115 391.089 637.588 391.262 638.042C393.15 642.125 390.624 653.283 389.533 657.992C388.837 661.932 388.57 665.936 388.736 669.934C388.736 669.934 373.642 727.562 374.893 732.626C376.143 737.69 366.714 761.219 366.714 761.219V780.837L368.357 780.752C368.144 781.068 367.947 781.395 367.769 781.732L367.659 781.941C367.659 781.941 377.725 784.136 384.493 783.51C391.262 782.885 402.885 788.721 402.885 788.721C402.885 788.721 406.821 790.585 418.935 791.37C431.049 792.155 431.049 786.024 431.049 786.024C429.664 777.674 410.524 774.878 409.936 774.793C408.391 773.824 406.944 772.769 405.754 771.862L405.509 771.666C405.589 771.482 405.659 771.294 405.718 771.102C407.765 762.764 396.436 759.147 396.436 759.147V757.112C403.793 753.335 405.252 727.415 405.252 727.415C405.252 727.415 416.287 695.364 417.832 690.018C419.377 684.672 417.832 676.665 417.832 676.665L418.935 669.75C418.935 669.75 421.302 665.042 421.302 664.098C421.608 661.705 422.529 659.432 423.975 657.501C425.704 655.453 422.086 650.586 422.086 650.586L425.238 642.42V633.457L432.594 600.94C432.594 600.94 440.307 563.065 437.634 550.668C434.961 538.272 440.785 531.97 440.785 531.97C440.26 532.246 439.72 532.492 439.166 532.706C439.903 531.004 440.537 529.259 441.067 527.482L457.62 529.53V529.775H463.591C463.591 529.775 461.703 506.479 461.703 497.087C461.703 487.694 468.066 453.988 468.066 453.988C468.066 453.988 470.899 421.042 468.066 420.098ZM394.584 392.902C394.584 393.822 394.499 394.778 394.437 395.759L394.106 396.262L393.493 395.747L392.745 396.912L392.524 397.022C390.906 396.188 390.072 391.419 388.907 392.449L388.748 392.584C388.491 392.289 388.233 392.203 387.963 392.449L387.718 392.657C387.718 392.301 387.718 391.934 387.718 391.566C389.961 392.143 392.268 392.436 394.584 392.436C394.597 392.596 394.584 392.755 394.584 392.902ZM449.638 501.39H449.993L449.405 502.935C449.478 502.42 449.552 501.917 449.638 501.39ZM389.202 779.44L386.946 778.876L388.172 778.667L389.312 779.415L389.447 779.513L389.202 779.44ZM412.253 776.141C411.505 775.749 410.745 775.295 410.009 774.829C410.254 774.964 411.223 775.467 412.253 776.141Z" fill="url(#paint1_linear_425_1220)"/>
<path d="M457.779 478.227L442.93 516.923H446.535L432.569 528.056L457.779 531.195V478.227Z" fill="#F86D70"/>
<path opacity="0.1" d="M457.779 478.227L442.93 516.923L439.19 515.918L432.569 528.056L457.779 531.195V478.227Z" fill="black"/>
<path d="M434.495 502.983H457.779L466.325 432.664H434.495V502.983Z" fill="#F86D70"/>
<path opacity="0.1" d="M434.495 502.983H457.779L466.325 432.664H434.495V502.983Z" fill="black"/>
<path d="M389.017 449.315L394.045 448.469L405.595 446.507C405.595 446.507 440.282 438.684 447.443 438.046C451.78 437.474 456.011 436.267 459.998 434.466C461.874 433.657 463.063 433.044 463.063 433.044L450.569 410.226L431.184 395.855C431.184 395.855 418.923 393.244 413.736 386.108C412.579 384.572 411.825 382.771 411.545 380.868C411.264 378.966 411.465 377.024 412.13 375.22C415.293 365.411 393.235 384.6 393.235 384.6C393.235 384.6 393.444 389.197 393.235 395.058C393.235 396.211 393.125 397.413 393.039 398.639C393.039 399.448 392.929 400.257 392.843 401.091C392.304 406.915 391.2 412.911 389.017 416.491C383.684 425.246 389.017 449.315 389.017 449.315Z" fill="#FBBEBE"/>
<path opacity="0.1" d="M393.235 395.55H393.726C394.608 395.55 395.32 393.674 396.178 393.588C403.081 392.926 409.383 391.479 413.761 386.587C412.606 385.052 411.854 383.253 411.574 381.353C411.293 379.454 411.493 377.514 412.154 375.711C415.318 365.902 393.26 385.079 393.26 385.079C393.26 385.079 393.493 389.689 393.235 395.55Z" fill="black"/>
<path d="M366.382 367.74C366.381 371.27 367.075 374.766 368.425 378.027C369.775 381.289 371.755 384.252 374.251 386.748C376.747 389.245 379.71 391.224 382.972 392.574C386.233 393.924 389.729 394.618 393.259 394.617C394.142 394.617 395.012 394.617 395.883 394.494C401.062 393.986 405.982 391.986 410.046 388.736C414.109 385.486 417.142 381.126 418.776 376.186C420.41 371.245 420.575 365.937 419.25 360.904C417.926 355.872 415.169 351.333 411.314 347.837C407.46 344.341 402.673 342.04 397.536 341.212C392.399 340.384 387.132 341.065 382.374 343.172C377.616 345.28 373.572 348.723 370.734 353.084C367.895 357.445 366.383 362.537 366.382 367.74Z" fill="#FBBEBE"/>
<path d="M358.131 326.949C357.248 329.229 357.518 331.78 357.162 334.195C355.85 342.913 346.985 348.136 338.966 351.79C330.947 355.444 321.899 359.772 319.348 368.196C316.553 377.306 322.659 386.441 326.901 394.987C335.165 411.638 336.342 432.874 325.675 448.103C316.197 461.59 299.681 467.991 284.134 473.606C291.616 479.493 300.916 482.589 310.434 482.361C306.866 492.746 294.176 496.192 283.361 498.104C289.038 503.573 297.168 505.559 304.953 506.761C310.63 507.644 316.455 508.22 322.119 507.08C327.784 505.939 333.154 502.862 336.073 497.884C338.525 493.629 339.359 487.829 343.785 485.684C345.783 484.897 347.936 484.582 350.075 484.764L368.467 484.96C374.193 484.96 380.974 484.519 383.929 479.626C385.018 477.537 385.59 475.215 385.596 472.858C386.393 460.793 384.076 448.041 389.041 437.031C390.537 433.708 380.937 428.448 381.942 424.929C385.4 412.827 386.27 403.3 386.234 390.708C386.234 380.96 392.573 372.561 397.808 364.334C403.044 356.106 407.421 345.721 403.289 336.893C398.63 327.047 363.636 312.738 358.131 326.949Z" fill="#3F3D56"/>
<path d="M382.617 775.908L387.301 779.011L388.024 779.489L388.159 779.575L393.713 783.253L406.686 785.435L418.089 784.651C418.089 784.651 421.375 777.784 416.213 777.944C414.559 777.859 412.948 777.393 411.504 776.583L410.793 776.227C410.045 775.835 409.297 775.393 408.562 774.928C407.029 773.959 405.582 772.904 404.417 772.009C402.701 770.685 401.56 769.68 401.56 769.68L382.617 775.908Z" fill="#FBBEBE"/>
<path opacity="0.1" d="M387.362 779.008L388.085 779.486L388.22 779.572L393.774 783.25L406.747 785.433L418.15 784.648C418.15 784.648 421.436 777.782 416.274 777.941C414.621 777.856 413.009 777.391 411.566 776.58C412.473 777.291 413.233 778.064 413.307 778.714C413.515 780.467 404.871 783.618 404.871 783.618L392.683 780.393C392.683 780.393 390.611 779.805 387.779 779.069L387.509 778.996L387.362 779.008Z" fill="black"/>
<path d="M366.518 782.001C366.518 782.001 376.511 784.184 383.23 783.558C389.949 782.933 401.524 788.72 401.524 788.72C401.524 788.72 405.435 790.56 417.463 791.344C429.492 792.129 429.492 786.023 429.492 786.023C428.118 777.722 409.113 774.988 408.525 774.865C408.758 774.988 409.751 775.491 410.756 776.165C412.105 777.048 413.564 778.2 413.675 779.132C413.883 780.873 405.239 784.037 405.239 784.037L393.051 780.824C393.051 780.824 390.979 780.223 388.147 779.488H387.877C383.677 778.344 379.41 777.463 375.1 776.852C369.853 776.288 367.167 780.751 366.616 781.756C366.576 781.835 366.543 781.917 366.518 782.001Z" fill="#3F3D56"/>
<path d="M209.009 561.505L214.318 565.576C214.318 565.576 215.863 565.502 218.168 565.429H218.904C222.202 565.306 226.751 565.183 230.613 565.183C233.11 565.071 235.612 565.211 238.081 565.6C240.729 566.532 245.437 550.445 245.437 550.445L240.116 549.219L238.35 548.802L237.124 548.508L232.796 547.49L219.676 548.986L210.456 554.921L209.009 561.505Z" fill="#FBBEBE"/>
<path opacity="0.1" d="M209.009 561.505L214.318 565.576C214.318 565.576 215.863 565.502 218.168 565.429C217.11 565.021 216.238 564.24 215.716 563.234C212.283 553.707 229.314 549.636 229.314 549.636L237.247 549.293L238.792 549.219H240.018L238.252 548.802L237.026 548.508L232.698 547.49L219.578 548.986L210.358 554.921L209.009 561.505Z" fill="black"/>
<path d="M198.538 565.808C201.75 568.775 222.791 565.808 223.674 565.734C222.077 565.914 220.461 565.802 218.904 565.403C218.133 565.265 217.403 564.957 216.767 564.501C216.13 564.045 215.604 563.452 215.226 562.767C211.792 553.228 228.823 549.169 228.823 549.169L236.756 548.826L238.289 548.752L257.576 547.918L258.508 542.609C258.508 542.609 252.242 543.198 242.409 543.983C236.879 544.436 230.148 544.939 222.877 545.417C202.56 546.766 197.729 559.947 197.729 559.947C197.729 559.947 195.264 562.767 198.538 565.808Z" fill="#3F3D56"/>
<path d="M434.507 335.665C434.638 335.956 434.793 336.235 434.973 336.499L439.657 343.365L451.845 344.591L451.979 339.76L454.027 267.075C454.027 267.075 462.463 218.325 446.523 221.132C430.583 223.94 440.589 267.075 440.589 267.075C440.589 267.075 438.774 288.95 437.499 295.522C436.26 301.873 430.706 327.695 434.507 335.665Z" fill="#FBBEBE"/>
<path d="M407.151 516.201L410.621 522.136L418.382 535.415C418.382 535.415 432.458 540.577 436.063 536.641C438.037 534.495 440.171 527.004 441.667 520.701C442.893 515.601 443.714 511.297 443.714 511.297L407.151 516.201Z" fill="#FBBEBE"/>
<path opacity="0.1" d="M407.151 516.201L410.621 522.135C410.839 521.948 411.036 521.738 411.21 521.51C415.133 516.507 432.409 520.443 441.667 520.762C442.893 515.661 443.714 511.357 443.714 511.357L407.151 516.201Z" fill="black"/>
<path opacity="0.1" d="M230.614 565.158C233.11 565.045 235.612 565.185 238.081 565.575C240.729 566.507 245.438 550.42 245.438 550.42L238.351 548.752L257.638 547.918L258.57 542.609C258.57 542.609 252.304 543.198 242.47 543.983C240.439 545.153 238.625 546.667 237.112 548.458L236.818 548.826C232.71 553.865 231.19 560.364 230.614 565.158Z" fill="black"/>
<path opacity="0.1" d="M382.617 775.907L388.024 779.487C396.092 778.028 403.461 775.735 404.331 772.13C404.335 772.073 404.335 772.016 404.331 771.959C402.615 770.634 401.475 769.629 401.475 769.629L382.617 775.907Z" fill="black"/>
<path opacity="0.1" d="M366.628 781.791C373.753 781.437 380.851 780.675 387.889 779.511C383.686 778.358 379.415 777.469 375.1 776.85C369.865 776.286 367.18 780.749 366.628 781.791Z" fill="black"/>
<path d="M231.202 571.351C231.202 575.263 241.979 577.764 241.979 577.764L274.803 606.983C274.803 606.983 295.426 616.203 308.546 629.482C321.666 642.761 333.24 631.358 333.24 631.358C347.144 627.925 387.19 579.481 387.19 579.481C387.19 579.481 388.122 634.804 389.998 638.862C391.874 642.921 389.372 654.017 388.281 658.713C387.593 662.63 387.329 666.609 387.496 670.582C387.496 670.582 372.501 727.928 373.751 732.931C375.002 737.933 365.622 761.377 365.622 761.377V780.909C365.622 780.909 402.345 779.499 404.368 771.223C406.391 762.946 395.16 759.342 395.16 759.342V757.306C402.516 753.554 403.902 727.781 403.902 727.781C403.902 727.781 414.851 695.902 416.409 690.593C417.966 685.283 416.409 677.301 416.409 677.301L417.5 670.435C417.5 670.435 419.842 665.739 419.842 664.807C420.148 662.428 421.064 660.168 422.502 658.247C424.219 656.212 420.626 651.369 420.626 651.369L423.753 643.239V634.338L431.11 601.993C431.11 601.993 438.773 564.326 436.112 551.979C433.452 539.632 439.239 533.391 439.239 533.391C426.696 539.963 420.369 525.335 418.297 519.045C417.77 517.426 417.512 516.347 417.512 516.347C417.512 516.347 400.285 509.996 384.247 511.516C380.99 511.78 377.78 512.46 374.696 513.539C356.88 519.952 354.072 546.51 354.072 546.51L338.292 570.579C330.163 591.987 317.975 594.17 317.975 594.17C317.975 594.17 289.382 574.956 288.548 574.012C287.714 573.068 276.826 568.384 276.826 568.384C275.539 566.118 273.569 564.316 271.198 563.234C267.446 561.665 267.14 555.878 267.14 555.878C266.674 542.28 258.704 541.164 258.704 541.164C231.042 538.859 231.202 567.452 231.202 571.351Z" fill="#3F3D56"/>
<path d="M390.28 494.951H407.151V442.608H390.28V494.951Z" fill="#F86D70"/>
<path opacity="0.1" d="M390.28 494.951H407.151V442.608H390.28V494.951Z" fill="black"/>
<path opacity="0.1" d="M434.494 335.555C434.492 335.591 434.492 335.628 434.494 335.665C434.625 335.956 434.781 336.235 434.96 336.499L439.644 343.365L451.832 344.591L451.967 339.76C448.166 339.466 439.509 338.424 434.494 335.555Z" fill="black"/>
<path d="M434.973 336.498C434.973 336.498 435.598 363.988 428.72 367.74C421.841 371.492 419.168 391.036 419.168 391.036C419.168 391.036 440.012 404.744 444.659 410.777C449.306 416.81 459.974 431.18 457.779 434.613C455.584 438.046 463.1 453.679 463.1 453.679C463.1 453.679 449.343 481.807 452.47 492.437C455.597 503.068 455.903 531.183 455.903 531.183H461.85C461.85 531.183 459.974 508.058 459.974 498.678C459.974 489.298 466.215 455.862 466.215 455.862C466.215 455.862 469.035 423.051 466.215 422.119C463.395 421.187 446.842 408.055 445.591 402.108C444.341 396.162 454.346 340.802 454.346 340.802C454.346 340.802 441.533 340.25 434.973 336.498Z" fill="#F86D70"/>
<path opacity="0.1" d="M389.961 437.751C390.532 441.577 391.925 445.233 394.044 448.468L405.595 446.506C405.595 446.506 440.282 438.683 447.442 438.046C451.78 437.473 456.01 436.267 459.998 434.465C457.25 424.727 451.885 415.927 444.487 409.023L440.086 404.94C433.599 398.918 426.082 394.113 417.893 390.754C418.408 391.183 454.799 422.253 446.829 428.347C438.859 434.441 417.402 419.605 417.402 419.605L393.002 398.638L392.119 397.878L390.709 400.072C391.427 400.368 392.127 400.703 392.806 401.078C401.122 405.642 407.293 413.312 409.972 422.413C414.987 439.272 389.961 437.751 389.961 437.751Z" fill="black"/>
<path d="M382.458 515.881C382.458 515.881 405.582 528.694 411.198 521.509C412.424 519.927 415.011 519.24 418.236 519.057C417.709 517.438 417.451 516.359 417.451 516.359C417.451 516.359 400.224 510.008 384.186 511.528C383.132 514.177 382.458 515.881 382.458 515.881Z" fill="#444053"/>
<path d="M393.1 397.905L418.383 419.656C418.383 419.656 439.755 434.541 447.81 428.398C455.866 422.255 418.861 390.793 418.861 390.793C427.033 394.162 434.543 398.952 441.042 404.943L445.444 409.026C457.018 419.754 459.63 419.754 460.022 435.522C460.121 439.409 458.796 444.988 457.779 445.993C454.027 449.672 451.403 476.389 451.979 479.516C452.555 482.642 444.99 509.629 447.442 517.133C449.895 524.637 416.789 513.381 411.186 520.579C405.582 527.776 382.458 514.951 382.458 514.951C382.458 514.951 395.271 482.127 398.397 479.945C401.524 477.762 405.276 460.879 398.397 453.068C391.519 445.258 390.906 437.754 390.906 437.754C390.906 437.754 415.919 439.299 410.904 422.439C409.493 417.553 407.045 413.028 403.728 409.172C400.41 405.317 396.3 402.223 391.678 400.099L393.1 397.905Z" fill="#E8E8F0"/>
<path opacity="0.1" d="M426.843 453.227C426.843 453.227 417.144 471.508 404.601 476.253C404.196 476.4 403.804 476.535 403.375 476.658C390.28 480.643 427.824 458.891 426.843 453.227Z" fill="black"/>
<path d="M291.209 291.488C291.209 291.488 295.892 303.369 299.644 307.427C303.396 311.486 331.205 352.12 331.205 352.12L333.559 357.024L335.582 361.205L353.398 359.33L354.624 352.144L353.937 351.311C352.147 349.165 347.267 343.402 343.994 340.889C339.935 337.774 331.806 327.462 331.806 327.462C331.806 327.462 306.498 301.199 304.623 294.014C302.747 286.828 277.427 243.742 271.811 251.197C266.196 258.652 291.209 291.488 291.209 291.488Z" fill="#FBBEBE"/>
<g opacity="0.1">
<path opacity="0.1" d="M342.902 484.763C340.764 484.578 338.611 484.888 336.612 485.67C332.198 487.816 331.364 493.616 328.912 497.87C326.043 502.848 320.575 505.926 314.947 507.066C313.828 507.283 312.698 507.439 311.562 507.532C315.147 507.881 318.763 507.724 322.303 507.066C327.931 505.926 333.4 502.848 336.269 497.87C338.721 493.616 339.555 487.816 343.969 485.67C345.128 485.149 346.377 484.857 347.647 484.812L342.902 484.763Z" fill="black"/>
<path opacity="0.1" d="M386.454 390.707C386.454 380.96 392.793 372.561 398.016 364.333C403.24 356.106 407.629 345.721 403.497 336.892C399.966 329.352 378.68 319.236 366.395 321.235C378.423 322.792 393.247 330.713 396.14 336.892C400.273 345.721 395.883 356.106 390.66 364.333C385.436 372.561 379.073 380.96 379.097 390.707C379.097 403.287 378.251 412.778 374.794 424.928C373.8 428.423 383.376 433.708 381.905 437.018C376.927 448.053 379.257 460.781 378.46 472.846C378.443 475.203 377.867 477.523 376.78 479.614C374.328 483.648 369.3 484.69 364.408 484.911H368.687C374.401 484.911 381.182 484.469 384.137 479.577C385.224 477.486 385.8 475.166 385.816 472.809C386.613 460.744 384.284 448.004 389.262 436.981C390.758 433.671 381.157 428.398 382.15 424.892C385.608 412.827 386.479 403.287 386.454 390.707Z" fill="black"/>
</g>
<path opacity="0.1" d="M333.56 356.999L335.583 361.18L353.398 359.304L354.624 352.119L353.938 351.285C352.037 352.217 337.802 359.071 333.56 356.999Z" fill="black"/>
<path opacity="0.1" d="M399.341 403.997C399.341 403.997 394.964 397.13 392.463 398.994C389.961 400.858 388.993 393.366 387.558 394.617C386.124 395.867 381.943 399.35 380.201 394.482C378.84 390.607 364.029 366.097 358.021 356.239C356.476 353.689 355.507 352.119 355.507 352.119C355.507 352.119 338.636 360.555 334.577 357.747V363.682L338.01 364L356.402 398.332C356.402 398.332 362.19 407.54 361.797 410.753C361.405 413.965 369.215 428.029 370.466 428.961C371.717 429.893 385.18 445.526 385.18 445.526C385.18 445.526 392.058 479.281 386.111 488.661C380.165 498.041 369.865 504.907 369.865 504.907C369.865 504.907 366.763 513.968 367.217 514.912C367.67 515.856 363.612 519.915 365.488 521.166C367.364 522.416 369.865 531.159 369.865 531.159C369.865 531.159 378.62 517.095 383.353 514.912C388.085 512.73 394.143 483.965 394.143 483.965C394.143 483.965 395.871 467.02 396.006 456.083C396.141 445.146 395.589 403.997 399.341 403.997Z" fill="black"/>
<path d="M398.397 403.997C398.397 403.997 394.032 397.13 391.53 398.994C389.029 400.858 388.048 393.366 386.626 394.617C385.204 395.867 381.022 399.35 379.269 394.482C377.896 390.607 363.084 366.097 357.088 356.239L354.575 352.119C354.575 352.119 337.703 360.555 333.633 357.747V363.682L337.078 364L355.47 398.332C355.47 398.332 361.27 407.54 360.865 410.753C360.46 413.965 368.222 428.029 369.534 428.961C370.846 429.893 384.247 445.526 384.247 445.526C384.247 445.526 391.126 479.281 385.191 488.661C382.056 493.372 378.243 497.595 373.874 501.192C370.205 504.219 367.622 508.36 366.517 512.987C366.305 513.618 366.229 514.287 366.297 514.949C366.75 515.881 362.692 519.952 364.568 521.202C366.444 522.453 368.97 531.232 368.97 531.232C368.97 531.232 377.724 517.168 382.457 514.986C387.19 512.803 393.259 484.038 393.259 484.038C393.259 484.038 394.976 467.093 395.123 456.156C395.27 445.219 394.718 403.997 398.397 403.997Z" fill="#F86D70"/>
<path opacity="0.1" d="M355.58 546.205C355.58 546.205 368.712 548.657 373.972 552.446C379.232 556.235 353.974 546.512 353.974 546.512L355.58 546.205Z" fill="black"/>
<path opacity="0.1" d="M387.154 579.48C387.154 579.48 400.849 590.896 398.397 601.208C395.945 611.519 389.618 637.464 389.618 637.464L387.154 579.48Z" fill="black"/>
<path opacity="0.1" d="M267.372 557.535C267.372 557.535 248.073 559.644 249.324 562.145C250.574 564.647 267.372 559.84 267.372 559.84V557.535Z" fill="black"/>
<path opacity="0.1" d="M415.563 652.459C415.563 652.459 416.789 654.017 409.629 652.459C402.468 650.902 407.753 646.096 407.753 646.096L415.563 652.459Z" fill="black"/>
<path opacity="0.1" d="M413.111 674.028C413.111 674.028 403.302 675.585 398.041 674.028C392.781 672.471 413.111 674.028 413.111 674.028Z" fill="black"/>
<path opacity="0.1" d="M392.929 758.41C392.929 758.41 391.212 756.534 382.617 759.967C374.022 763.4 370.589 763.56 368.087 762.419C365.586 761.279 392.929 758.41 392.929 758.41Z" fill="black"/>
<path opacity="0.1" d="M402.468 554.871L390.28 571.828C390.28 571.828 396.84 556.98 402.468 554.871Z" fill="black"/>
<path opacity="0.1" d="M378.779 398.994C378.779 398.994 378.252 404.622 370.392 406.817C362.533 409.012 361.037 410.79 361.037 410.79" fill="black"/>
<path opacity="0.1" d="M358.351 358.203C358.351 358.203 347.978 365.56 337.152 364.003L358.351 358.203Z" fill="black"/>
<path opacity="0.1" d="M366.248 515.723C366.248 515.723 369.277 517.624 376.548 509.311L366.248 515.723Z" fill="black"/>
<path opacity="0.1" d="M441.765 427.576C442.06 426.056 441.005 424.646 440.012 423.456L437.977 421.004C437.579 420.502 437.131 420.042 436.64 419.631C435.414 418.687 433.845 418.405 432.569 417.559" fill="black"/>
<path opacity="0.1" d="M1100.1 0.134424C1100.1 0.134424 996.871 -6.09431 1009.01 66.2473C1009.01 66.2473 1006.56 79.0359 1018.18 84.8354C1018.18 84.8354 1018.36 79.4773 1028.77 81.3042C1032.48 81.9185 1036.25 82.0996 1039.99 81.8437C1045.06 81.4941 1049.87 79.5056 1053.7 76.179C1053.7 76.179 1082.72 64.1874 1094 16.7607C1094 16.7607 1102.35 6.41221 1102.02 3.75151L1084.6 11.1941C1084.6 11.1941 1090.56 23.7619 1085.83 34.2086C1085.83 34.2086 1085.26 11.6478 1081.92 12.1382C1081.24 12.2486 1072.87 16.491 1072.87 16.491C1072.87 16.491 1083.1 38.3774 1075.38 54.2926C1075.38 54.2926 1078.31 27.3177 1069.67 18.0727L1057.4 25.2333C1057.4 25.2333 1069.37 47.8431 1061.25 66.2964C1061.25 66.2964 1063.34 37.9973 1054.82 26.9744L1043.71 35.6431C1043.71 35.6431 1054.95 57.9342 1048.1 73.2363C1048.1 73.2363 1047.2 40.2902 1041.31 37.8011C1041.31 37.8011 1031.58 46.384 1030.1 49.8908C1030.1 49.8908 1037.8 66.0757 1033.02 74.6095C1033.02 74.6095 1030.09 52.6618 1027.68 52.5392C1027.68 52.5392 1018 67.0811 1016.99 77.0618C1016.99 77.0618 1017.41 62.2379 1025.34 51.1659C1025.34 51.1659 1015.97 52.7722 1010.51 58.8415C1010.51 58.8415 1012.01 48.5665 1027.73 47.6715C1027.73 47.6715 1035.74 36.6363 1037.87 35.9619C1037.87 35.9619 1022.25 34.6622 1012.77 38.8556C1012.77 38.8556 1021.11 29.1569 1040.74 33.571L1051.72 24.608C1051.72 24.608 1031.14 21.8001 1022.41 24.9022C1022.41 24.9022 1032.45 16.3193 1054.67 22.5726L1066.61 15.4365C1066.61 15.4365 1049.07 11.66 1038.62 12.9843C1038.62 12.9843 1049.66 7.03754 1070.12 13.487L1078.7 9.64919C1078.7 9.64919 1065.85 7.12337 1062.09 6.71874C1058.32 6.31412 1058.13 5.28417 1058.13 5.28417C1066.27 3.92667 1074.63 4.85627 1082.27 7.9694C1082.27 7.9694 1100.42 1.27472 1100.1 0.134424Z" fill="#1877F2"/>
<path opacity="0.1" d="M972.777 18.5396C972.777 18.5396 926.184 15.7195 931.64 48.4081C931.64 48.4081 930.549 54.1954 935.772 56.8193C935.772 56.8193 935.858 54.3671 940.566 55.2131C942.239 55.4946 943.939 55.5769 945.63 55.4583C947.919 55.3028 950.093 54.4028 951.822 52.8957C951.822 52.8957 964.942 47.4885 970.042 26.0558C970.042 26.0558 973.807 21.3719 973.66 20.1703L965.788 23.5299C965.788 23.5299 968.485 29.2192 966.364 33.9398C966.364 33.9398 966.107 23.7384 964.599 23.9836C964.292 23.9836 960.503 25.9454 960.503 25.9454C960.503 25.9454 965.138 35.8403 961.644 43.0376C961.644 43.0376 962.968 30.8499 959.056 26.6688L953.514 29.9058C953.514 29.9058 958.934 40.1195 955.255 48.4571C955.255 48.4571 956.199 35.6686 952.349 30.6905L947.335 34.6509C947.335 34.6509 952.411 44.7297 949.321 51.6328C949.321 51.6328 948.916 36.7476 946.243 35.6318C946.243 35.6318 941.854 39.5064 941.179 41.1004C941.179 41.1004 944.662 48.4571 942.504 52.2581C942.504 52.2581 941.179 42.3388 940.051 42.302C940.051 42.302 935.686 48.874 935.22 53.3371C935.439 49.1719 936.741 45.1357 938.997 41.6276C936.471 42.1061 934.14 43.3121 932.29 45.0976C932.29 45.0976 932.977 40.4628 940.076 40.0459C940.076 40.0459 943.754 35.0678 944.662 34.7613C944.662 34.7613 937.599 34.1727 933.32 36.0732C933.32 36.0732 937.084 31.6837 945.961 33.621L950.866 29.5747C950.866 29.5747 941.572 28.3486 937.624 29.7096C937.624 29.7096 942.16 25.8351 952.202 28.6552L957.597 25.4304C957.597 25.4304 949.677 23.7138 944.944 24.3392C944.944 24.3392 949.934 21.6417 959.179 24.5599L963.041 22.831C963.041 22.831 957.229 21.6785 955.525 21.5068C953.821 21.3352 953.735 20.857 953.735 20.857C957.416 20.2447 961.194 20.6692 964.648 22.0831C964.648 22.0831 972.924 19.0546 972.777 18.5396Z" fill="#1877F2"/>
<path d="M1135.53 797.916C1162.76 797.916 1184.84 794.183 1184.84 789.578C1184.84 784.973 1162.76 781.24 1135.53 781.24C1108.31 781.24 1086.23 784.973 1086.23 789.578C1086.23 794.183 1108.31 797.916 1135.53 797.916Z" fill="#1877F2"/>
<path d="M1155.92 775.944C1158.18 774.11 1159.81 771.633 1160.62 768.844C1161.23 766.036 1160.03 762.714 1157.33 761.622C1154.32 760.47 1151.09 762.567 1148.65 764.675C1146.21 766.784 1143.41 769.2 1140.22 768.746C1141.86 767.254 1143.09 765.362 1143.79 763.254C1144.48 761.147 1144.62 758.895 1144.19 756.718C1144.05 755.816 1143.67 754.968 1143.09 754.266C1141.41 752.475 1138.38 753.236 1136.37 754.646C1129.99 759.133 1128.21 767.802 1128.18 775.588C1127.54 772.78 1128.08 769.85 1128.07 767.005C1128.05 764.16 1127.26 760.874 1124.82 759.366C1123.31 758.557 1121.62 758.159 1119.91 758.214C1117.06 758.103 1113.86 758.398 1111.91 760.494C1109.45 763.094 1110.1 767.459 1112.21 770.303C1114.32 773.148 1117.55 774.975 1120.51 776.949C1122.89 778.364 1124.91 780.296 1126.44 782.601C1126.62 782.924 1126.77 783.265 1126.88 783.619H1144.85C1148.87 781.572 1152.6 778.99 1155.92 775.944Z" fill="#1877F2"/>
<path d="M66.7734 939.412C66.7734 947.791 63.7441 954.365 57.6855 959.135C51.627 963.904 43.2695 966.289 32.6133 966.289C21.957 966.289 13.2344 964.635 6.44531 961.326V946.76C10.7422 948.779 15.2969 950.369 20.1094 951.529C24.9648 952.689 29.4766 953.27 33.6445 953.27C39.7461 953.27 44.2363 952.109 47.1152 949.789C50.0371 947.469 51.498 944.354 51.498 940.443C51.498 936.92 50.166 933.934 47.502 931.484C44.8379 929.035 39.3379 926.135 31.002 922.783C22.4082 919.303 16.3496 915.328 12.8262 910.859C9.30273 906.391 7.54102 901.02 7.54102 894.746C7.54102 886.883 10.334 880.695 15.9199 876.184C21.5059 871.672 29.0039 869.416 38.4141 869.416C47.4375 869.416 56.418 871.393 65.3555 875.346L60.457 887.914C52.0781 884.391 44.6016 882.629 38.0273 882.629C33.043 882.629 29.2617 883.725 26.6836 885.916C24.1055 888.064 22.8164 890.922 22.8164 894.488C22.8164 896.938 23.332 899.043 24.3633 900.805C25.3945 902.523 27.0918 904.156 29.4551 905.703C31.8184 907.25 36.0723 909.291 42.2168 911.826C49.1348 914.705 54.2051 917.391 57.4277 919.883C60.6504 922.375 63.0137 925.189 64.5176 928.326C66.0215 931.463 66.7734 935.158 66.7734 939.412ZM133.676 965L131.549 955.654H130.775C128.67 958.963 125.662 961.562 121.752 963.453C117.885 965.344 113.459 966.289 108.475 966.289C99.8379 966.289 93.3926 964.141 89.1387 959.844C84.8848 955.547 82.7578 949.037 82.7578 940.314V893.715H98.0332V937.672C98.0332 943.129 99.1504 947.232 101.385 949.982C103.619 952.689 107.121 954.043 111.891 954.043C118.25 954.043 122.912 952.152 125.877 948.371C128.885 944.547 130.389 938.166 130.389 929.229V893.715H145.6V965H133.676ZM203.607 892.426C212.502 892.426 219.42 895.648 224.361 902.094C229.346 908.539 231.838 917.584 231.838 929.229C231.838 940.916 229.324 950.025 224.297 956.557C219.27 963.045 212.287 966.289 203.35 966.289C194.326 966.289 187.322 963.045 182.338 956.557H181.307L178.535 965H167.191V864.711H182.338V888.559C182.338 890.32 182.252 892.941 182.08 896.422C181.908 899.902 181.779 902.115 181.693 903.061H182.338C187.15 895.971 194.24 892.426 203.607 892.426ZM199.676 904.801C193.574 904.801 189.17 906.605 186.463 910.215C183.799 913.781 182.424 919.775 182.338 928.197V929.229C182.338 937.908 183.713 944.203 186.463 948.113C189.213 951.98 193.703 953.914 199.934 953.914C205.305 953.914 209.365 951.787 212.115 947.533C214.908 943.279 216.305 937.135 216.305 929.1C216.305 912.9 210.762 904.801 199.676 904.801ZM309.504 965H294.293V921.043C294.293 915.586 293.262 911.525 291.199 908.861C289.137 906.154 285.914 904.801 281.531 904.801C275.688 904.801 271.391 906.713 268.641 910.537C265.934 914.318 264.58 920.635 264.58 929.486V965H249.434V893.715H261.293L263.42 903.061H264.193C266.17 899.666 269.027 897.045 272.766 895.197C276.547 893.35 280.693 892.426 285.205 892.426C296.162 892.426 303.424 896.164 306.99 903.641H308.021C310.127 900.117 313.092 897.367 316.916 895.391C320.74 893.414 325.123 892.426 330.064 892.426C338.572 892.426 344.76 894.574 348.627 898.871C352.537 903.168 354.492 909.721 354.492 918.529V965H339.346V921.043C339.346 915.586 338.293 911.525 336.188 908.861C334.125 906.154 330.902 904.801 326.52 904.801C320.633 904.801 316.314 906.648 313.564 910.344C310.857 913.996 309.504 919.625 309.504 927.23V965ZM390.779 965H375.633V893.715H390.779V965ZM374.73 874.83C374.73 872.123 375.461 870.039 376.922 868.578C378.426 867.117 380.553 866.387 383.303 866.387C385.967 866.387 388.029 867.117 389.49 868.578C390.994 870.039 391.746 872.123 391.746 874.83C391.746 877.408 390.994 879.449 389.49 880.953C388.029 882.414 385.967 883.145 383.303 883.145C380.553 883.145 378.426 882.414 376.922 880.953C375.461 879.449 374.73 877.408 374.73 874.83ZM460.389 944.697C460.389 951.658 457.854 957.008 452.783 960.746C447.713 964.441 440.451 966.289 430.998 966.289C421.502 966.289 413.875 964.85 408.117 961.971V948.887C416.496 952.754 424.295 954.688 431.514 954.688C440.838 954.688 445.5 951.873 445.5 946.244C445.5 944.439 444.984 942.936 443.953 941.732C442.922 940.529 441.225 939.283 438.861 937.994C436.498 936.705 433.211 935.244 429 933.611C420.793 930.432 415.229 927.252 412.307 924.072C409.428 920.893 407.988 916.768 407.988 911.697C407.988 905.596 410.438 900.869 415.336 897.518C420.277 894.123 426.98 892.426 435.445 892.426C443.824 892.426 451.752 894.123 459.229 897.518L454.33 908.926C446.639 905.746 440.172 904.156 434.93 904.156C426.938 904.156 422.941 906.434 422.941 910.988C422.941 913.223 423.973 915.113 426.035 916.66C428.141 918.207 432.695 920.334 439.699 923.041C445.586 925.318 449.861 927.402 452.525 929.293C455.189 931.184 457.166 933.375 458.455 935.867C459.744 938.316 460.389 941.26 460.389 944.697ZM524.713 944.697C524.713 951.658 522.178 957.008 517.107 960.746C512.037 964.441 504.775 966.289 495.322 966.289C485.826 966.289 478.199 964.85 472.441 961.971V948.887C480.82 952.754 488.619 954.688 495.838 954.688C505.162 954.688 509.824 951.873 509.824 946.244C509.824 944.439 509.309 942.936 508.277 941.732C507.246 940.529 505.549 939.283 503.186 937.994C500.822 936.705 497.535 935.244 493.324 933.611C485.117 930.432 479.553 927.252 476.631 924.072C473.752 920.893 472.312 916.768 472.312 911.697C472.312 905.596 474.762 900.869 479.66 897.518C484.602 894.123 491.305 892.426 499.77 892.426C508.148 892.426 516.076 894.123 523.553 897.518L518.654 908.926C510.963 905.746 504.496 904.156 499.254 904.156C491.262 904.156 487.266 906.434 487.266 910.988C487.266 913.223 488.297 915.113 490.359 916.66C492.465 918.207 497.02 920.334 504.023 923.041C509.91 925.318 514.186 927.402 516.85 929.293C519.514 931.184 521.49 933.375 522.779 935.867C524.068 938.316 524.713 941.26 524.713 944.697ZM556.295 965H541.148V893.715H556.295V965ZM540.246 874.83C540.246 872.123 540.977 870.039 542.438 868.578C543.941 867.117 546.068 866.387 548.818 866.387C551.482 866.387 553.545 867.117 555.006 868.578C556.51 870.039 557.262 872.123 557.262 874.83C557.262 877.408 556.51 879.449 555.006 880.953C553.545 882.414 551.482 883.145 548.818 883.145C546.068 883.145 543.941 882.414 542.438 880.953C540.977 879.449 540.246 877.408 540.246 874.83ZM641.244 929.229C641.244 940.873 638.258 949.961 632.285 956.492C626.312 963.023 617.998 966.289 607.342 966.289C600.682 966.289 594.795 964.785 589.682 961.777C584.568 958.77 580.637 954.451 577.887 948.822C575.137 943.193 573.762 936.662 573.762 929.229C573.762 917.67 576.727 908.646 582.656 902.158C588.586 895.67 596.943 892.426 607.729 892.426C618.041 892.426 626.205 895.756 632.221 902.416C638.236 909.033 641.244 917.971 641.244 929.229ZM589.359 929.229C589.359 945.686 595.439 953.914 607.6 953.914C619.631 953.914 625.646 945.686 625.646 929.229C625.646 912.943 619.588 904.801 607.471 904.801C601.111 904.801 596.492 906.906 593.613 911.117C590.777 915.328 589.359 921.365 589.359 929.229ZM721.424 965H706.213V921.172C706.213 915.672 705.096 911.568 702.861 908.861C700.67 906.154 697.168 904.801 692.355 904.801C685.953 904.801 681.27 906.691 678.305 910.473C675.34 914.254 673.857 920.592 673.857 929.486V965H658.711V893.715H670.57L672.697 903.061H673.471C675.619 899.666 678.67 897.045 682.623 895.197C686.576 893.35 690.959 892.426 695.771 892.426C712.873 892.426 721.424 901.127 721.424 918.529V965ZM832.734 939.412C832.734 947.791 829.705 954.365 823.646 959.135C817.588 963.904 809.23 966.289 798.574 966.289C787.918 966.289 779.195 964.635 772.406 961.326V946.76C776.703 948.779 781.258 950.369 786.07 951.529C790.926 952.689 795.438 953.27 799.605 953.27C805.707 953.27 810.197 952.109 813.076 949.789C815.998 947.469 817.459 944.354 817.459 940.443C817.459 936.92 816.127 933.934 813.463 931.484C810.799 929.035 805.299 926.135 796.963 922.783C788.369 919.303 782.311 915.328 778.787 910.859C775.264 906.391 773.502 901.02 773.502 894.746C773.502 886.883 776.295 880.695 781.881 876.184C787.467 871.672 794.965 869.416 804.375 869.416C813.398 869.416 822.379 871.393 831.316 875.346L826.418 887.914C818.039 884.391 810.562 882.629 803.988 882.629C799.004 882.629 795.223 883.725 792.645 885.916C790.066 888.064 788.777 890.922 788.777 894.488C788.777 896.938 789.293 899.043 790.324 900.805C791.355 902.523 793.053 904.156 795.416 905.703C797.779 907.25 802.033 909.291 808.178 911.826C815.096 914.705 820.166 917.391 823.389 919.883C826.611 922.375 828.975 925.189 830.479 928.326C831.982 931.463 832.734 935.158 832.734 939.412ZM899.637 965L897.51 955.654H896.736C894.631 958.963 891.623 961.562 887.713 963.453C883.846 965.344 879.42 966.289 874.436 966.289C865.799 966.289 859.354 964.141 855.1 959.844C850.846 955.547 848.719 949.037 848.719 940.314V893.715H863.994V937.672C863.994 943.129 865.111 947.232 867.346 949.982C869.58 952.689 873.082 954.043 877.852 954.043C884.211 954.043 888.873 952.152 891.838 948.371C894.846 944.547 896.35 938.166 896.35 929.229V893.715H911.561V965H899.637ZM961.898 966.289C951.113 966.289 942.906 963.152 937.277 956.879C931.691 950.562 928.898 941.518 928.898 929.744C928.898 917.756 931.82 908.539 937.664 902.094C943.551 895.648 952.037 892.426 963.123 892.426C970.643 892.426 977.41 893.822 983.426 896.615L978.85 908.797C972.447 906.305 967.162 905.059 962.994 905.059C950.662 905.059 944.496 913.244 944.496 929.615C944.496 937.607 946.021 943.623 949.072 947.662C952.166 951.658 956.678 953.656 962.607 953.656C969.354 953.656 975.734 951.98 981.75 948.629V961.842C979.043 963.432 976.143 964.57 973.049 965.258C969.998 965.945 966.281 966.289 961.898 966.289ZM1027.25 966.289C1016.47 966.289 1008.26 963.152 1002.63 956.879C997.047 950.562 994.254 941.518 994.254 929.744C994.254 917.756 997.176 908.539 1003.02 902.094C1008.91 895.648 1017.39 892.426 1028.48 892.426C1036 892.426 1042.77 893.822 1048.78 896.615L1044.21 908.797C1037.8 906.305 1032.52 905.059 1028.35 905.059C1016.02 905.059 1009.85 913.244 1009.85 929.615C1009.85 937.607 1011.38 943.623 1014.43 947.662C1017.52 951.658 1022.03 953.656 1027.96 953.656C1034.71 953.656 1041.09 951.98 1047.11 948.629V961.842C1044.4 963.432 1041.5 964.57 1038.4 965.258C1035.35 965.945 1031.64 966.289 1027.25 966.289ZM1094.99 966.289C1083.91 966.289 1075.23 963.066 1068.96 956.621C1062.72 950.133 1059.61 941.217 1059.61 929.873C1059.61 918.229 1062.51 909.076 1068.31 902.416C1074.11 895.756 1082.08 892.426 1092.22 892.426C1101.63 892.426 1109.07 895.283 1114.52 900.998C1119.98 906.713 1122.71 914.576 1122.71 924.588V932.773H1075.21C1075.42 939.691 1077.29 945.02 1080.81 948.758C1084.34 952.453 1089.3 954.301 1095.7 954.301C1099.91 954.301 1103.82 953.914 1107.43 953.141C1111.09 952.324 1115 950.992 1119.16 949.145V961.455C1115.47 963.217 1111.73 964.463 1107.95 965.193C1104.17 965.924 1099.85 966.289 1094.99 966.289ZM1092.22 903.898C1087.41 903.898 1083.54 905.424 1080.62 908.475C1077.74 911.525 1076.02 915.973 1075.46 921.816H1107.82C1107.73 915.93 1106.32 911.482 1103.57 908.475C1100.82 905.424 1097.04 903.898 1092.22 903.898ZM1187.81 944.697C1187.81 951.658 1185.27 957.008 1180.2 960.746C1175.13 964.441 1167.87 966.289 1158.42 966.289C1148.92 966.289 1141.29 964.85 1135.54 961.971V948.887C1143.91 952.754 1151.71 954.688 1158.93 954.688C1168.26 954.688 1172.92 951.873 1172.92 946.244C1172.92 944.439 1172.4 942.936 1171.37 941.732C1170.34 940.529 1168.64 939.283 1166.28 937.994C1163.92 936.705 1160.63 935.244 1156.42 933.611C1148.21 930.432 1142.65 927.252 1139.72 924.072C1136.85 920.893 1135.41 916.768 1135.41 911.697C1135.41 905.596 1137.86 900.869 1142.75 897.518C1147.7 894.123 1154.4 892.426 1162.86 892.426C1171.24 892.426 1179.17 894.123 1186.65 897.518L1181.75 908.926C1174.06 905.746 1167.59 904.156 1162.35 904.156C1154.36 904.156 1150.36 906.434 1150.36 910.988C1150.36 913.223 1151.39 915.113 1153.45 916.66C1155.56 918.207 1160.11 920.334 1167.12 923.041C1173 925.318 1177.28 927.402 1179.94 929.293C1182.61 931.184 1184.58 933.375 1185.87 935.867C1187.16 938.316 1187.81 941.26 1187.81 944.697ZM1252.13 944.697C1252.13 951.658 1249.6 957.008 1244.53 960.746C1239.46 964.441 1232.19 966.289 1222.74 966.289C1213.24 966.289 1205.62 964.85 1199.86 961.971V948.887C1208.24 952.754 1216.04 954.688 1223.26 954.688C1232.58 954.688 1237.24 951.873 1237.24 946.244C1237.24 944.439 1236.73 942.936 1235.7 941.732C1234.66 940.529 1232.97 939.283 1230.6 937.994C1228.24 936.705 1224.95 935.244 1220.74 933.611C1212.54 930.432 1206.97 927.252 1204.05 924.072C1201.17 920.893 1199.73 916.768 1199.73 911.697C1199.73 905.596 1202.18 900.869 1207.08 897.518C1212.02 894.123 1218.72 892.426 1227.19 892.426C1235.57 892.426 1243.49 894.123 1250.97 897.518L1246.07 908.926C1238.38 905.746 1231.91 904.156 1226.67 904.156C1218.68 904.156 1214.68 906.434 1214.68 910.988C1214.68 913.223 1215.71 915.113 1217.78 916.66C1219.88 918.207 1224.44 920.334 1231.44 923.041C1237.33 925.318 1241.6 927.402 1244.27 929.293C1246.93 931.184 1248.91 933.375 1250.2 935.867C1251.49 938.316 1252.13 941.26 1252.13 944.697ZM1304.34 905.188H1286.94V965H1271.72V905.188H1259.99V898.098L1271.72 893.457V888.816C1271.72 880.395 1273.7 874.164 1277.65 870.125C1281.61 866.043 1287.64 864.002 1295.77 864.002C1301.09 864.002 1306.34 864.883 1311.49 866.645L1307.5 878.117C1303.76 876.914 1300.19 876.312 1296.8 876.312C1293.36 876.312 1290.85 877.387 1289.26 879.535C1287.71 881.641 1286.94 884.82 1286.94 889.074V893.715H1304.34V905.188ZM1366.79 965L1364.67 955.654H1363.89C1361.79 958.963 1358.78 961.562 1354.87 963.453C1351 965.344 1346.58 966.289 1341.59 966.289C1332.96 966.289 1326.51 964.141 1322.26 959.844C1318 955.547 1315.88 949.037 1315.88 940.314V893.715H1331.15V937.672C1331.15 943.129 1332.27 947.232 1334.5 949.982C1336.74 952.689 1340.24 954.043 1345.01 954.043C1351.37 954.043 1356.03 952.152 1358.99 948.371C1362 944.547 1363.51 938.166 1363.51 929.229V893.715H1378.72V965H1366.79ZM1415.46 965H1400.31V864.711H1415.46V965Z" fill="black"/>
<defs>
<linearGradient id="paint0_linear_425_1220" x1="1003.5" y1="619.11" x2="1003.5" y2="125.838" gradientUnits="userSpaceOnUse">
<stop stop-color="#808080" stop-opacity="0.25"/>
<stop offset="0.54" stop-color="#808080" stop-opacity="0.12"/>
<stop offset="1" stop-color="#808080" stop-opacity="0.1"/>
</linearGradient>
<linearGradient id="paint1_linear_425_1220" x1="48875.1" y1="307249" x2="109436" y2="307249" gradientUnits="userSpaceOnUse">
<stop stop-color="#808080" stop-opacity="0.25"/>
<stop offset="0.54" stop-color="#808080" stop-opacity="0.12"/>
<stop offset="1" stop-color="#808080" stop-opacity="0.1"/>
</linearGradient>
</defs>
</svg>
