<svg width="1071" height="602" viewBox="0 0 1071 602" fill="none" xmlns="http://www.w3.org/2000/svg">
<g clip-path="url(#clip0_747_17962)">
<path d="M0 0H1071V552C1071 579.6 1048.6 602 1021 602H0V0Z" fill="#3F4C6E"/>
<path d="M0 0H1071V552C1071 579.6 1048.6 602 1021 602H0V0Z" fill="#3F4C6E"/>
<path opacity="0.5" d="M372.5 249.7H380.8V225H382.6V249.7C387 250 390.4 254.1 390.4 259.2V265.5C393.5 265.7 396.5 266.4 399.3 267.6C402.8 262.7 406.6 258.2 410.7 254H404.1V249.9H414.9C423.3 242.1 432.9 235.3 443.5 228.7H404.1V224.6H450.3C457.7 220.2 465.5 215.9 473.8 211.4C480.9 207.5 489.2 203.2 498.7 198.9V142C498.7 139.3 498.5 136.6 498 133.9C497.7 132.2 497.3 130.5 496.8 128.8C490.8 109.1 472.2 95.6001 451.1 95.6001H447.1V71.3001C447.1 64.5001 441.4 58.9001 434.4 58.9001H416.9V24.1001H414.1V59.0001H390V95.6001H366.5V265.5H372.5V249.7ZM409.7 66.5001H427.3V80.2001H409.7V66.5001ZM404.1 123.3H461V127.4H404.1V123.3ZM404.1 148.6H461V152.7H404.1V148.6ZM404.1 173.9H461V178H404.1V173.9ZM404.1 199.2H461V203.3H404.1V199.2Z" fill="#C4C5D7"/>
<path d="M422.5 407.9C421.6 407.3 420.8 406.7 419.9 406.2V407.7C420.8 407.8 421.6 407.9 422.5 407.9Z" fill="#C4C5D7"/>
<path d="M478.9 283.6C478.8 283.8 478.8 284.1 478.8 284.3C478.5 285.8 476.4 296.6 479.6 308.6V283.7L478.9 283.6Z" fill="#C4C5D7"/>
<path opacity="0.5" d="M347.6 407.5V398.2H359.1V406.8C361.5 406.7 364 406.6 366.5 406.5V398.2H378V406.3C380.4 406.3 382.9 406.3 385.4 406.3V398.2H396.9V406.5C404.4 406.7 412.1 407.1 419.9 407.7V406.2C405.6 396.4 397.1 388.8 391.5 382H385.3V372.8C384.2 370.7 383.3 368.7 382.5 366.7C380.3 361.1 378.8 355.4 377.9 349.9V355.2H366.4V344.7H377.3C376.8 339.1 376.8 333.7 377.2 328.4H366.5V318H378V321.6C379.6 310.7 382.6 301.1 385.4 294.1V291.2H386.6C388.1 287.7 389.3 285.1 390.1 283.5C392.9 277.7 396 272.5 399.4 267.6C396.6 266.4 393.6 265.7 390.5 265.5V259.2C390.5 254.2 387.1 250 382.7 249.7V225H380.9V249.7H372.6V265.4H366.6H336.7V408.3C340.2 408.1 343.9 407.8 347.6 407.5ZM366.5 291.2H378V301.7H366.5V291.2ZM366.5 371.5H378V382H366.5V371.5ZM359.1 355.2H347.6V344.7H359.1V355.2ZM347.6 291.2H359.1V301.7H347.6V291.2ZM347.6 318H359.1V328.5H347.6V318ZM347.6 371.5H359.1V382H347.6V371.5Z" fill="#2F2E41"/>
<path d="M540.3 152.7H537.4V183.4C538.3 183.1 539.3 182.8 540.3 182.4V152.7Z" fill="#888FA3"/>
<path opacity="0.5" d="M579.7 206.3C571.3 211.2 563.6 215.8 556.6 220C543.2 228 532.1 234.6 522.9 240.5H533.2V254.4H515.3V245.3C498.6 256.2 489.2 263.9 483.9 271.8L489.4 272.4V272.5L489.9 273H490V273.1L496.7 279.8L488.7 284.8L479.5 283.8V308.7C480.7 313.1 482.6 317.7 485.5 322.1C495.5 336.9 512.7 341.4 573.8 348.3V347H591.7V350.2C594.7 350.5 597.8 350.9 601.1 351.2V206.3H579.7ZM533.2 325.4H515.3V311.5H533.2V325.4ZM533.2 289.9H515.3V276H533.2V289.9ZM562.5 325.4H544.6V311.5H562.5V325.4ZM562.5 289.9H544.6V276H562.5V289.9ZM562.5 254.4H544.6V240.5H562.5V254.4ZM591.8 325.4H573.9V311.5H591.8V325.4ZM591.8 289.9H573.9V276H591.8V289.9ZM573.9 254.4V240.5H591.8V254.4H573.9Z" fill="#D2D2D9"/>
<path opacity="0.5" d="M244.5 400.4L248.9 423.5C260.1 420.6 272.9 417.7 287.1 415.2H252.4V412H303.2V412.5C313.8 410.9 325 409.5 336.7 408.5V265.5V211.1C336.7 209 336.5 206.9 336.1 204.9C335.8 203.6 335.4 202.2 335 200.9C329.6 185.7 313.1 175.3 294.3 175.3H290.7V156.6C290.7 151.3 285.6 147 279.4 147H263.8V120H261.3V147H240V175.3H220V416.6L244.5 400.4ZM257.3 152.8H273V163.4H257.3V152.8ZM252.3 196.7H303.1V199.9H252.3V196.7ZM252.3 216.2H303.1V219.4H252.3V216.2ZM252.3 235.8H303.1V239H252.3V235.8ZM252.3 255.4H303.1V258.6H252.3V255.4ZM252.3 274.9H303.1V278.1H252.3V274.9ZM252.3 294.5H303.1V297.7H252.3V294.5ZM252.3 314.1H303.1V317.3H252.3V314.1ZM252.3 333.6H303.1V336.8H252.3V333.6ZM252.3 353.2H303.1V356.4H252.3V353.2ZM252.3 372.8H303.1V376H252.3V372.8ZM252.3 392.4H303.1V395.6H252.3V392.4Z" fill="#D2D2D9"/>
<path opacity="0.5" d="M669.6 156.4V157.4H668.6L650.2 176.6H669.6V180.3H646.7L613.3 215.3L603.3 192.5C602.6 192.9 601.9 193.3 601.2 193.7V206.2V351C602.3 351.1 603.5 351.2 604.6 351.4C638.3 354.9 643.6 355 652.6 356.3C667.1 358.4 681.5 361.1 696.8 364.6V189.5V128.6H679.8V95.3002H662.5V63.7002H660.5V95.4002H647.8C642.7 95.4002 638.6 100.4 638.6 106.6V128.6H635.7C624.5 128.6 614.4 135.1 608 145.6L681 144.5L669.6 156.4ZM669.6 341.2H628.4V337.5H669.6V341.2ZM669.6 318.2H628.4V314.5H669.6V318.2ZM669.6 295.3H628.4V291.6H669.6V295.3ZM669.6 272.3H628.4V268.6H669.6V272.3ZM669.6 249.3H628.4V245.6H669.6V249.3ZM669.6 226.3H628.4V222.6H669.6V226.3ZM669.6 203.4H628.4V199.7H669.6V203.4ZM665.5 114.6H652.8V102.2H665.5V114.6Z" fill="#2F2E41"/>
<path opacity="0.5" d="M850.5 264H858.8V239.3H860.6V264C865 264.3 868.4 268.4 868.4 273.5V279.8C876 280.3 882.9 283.9 888.1 289.5H939V293.6H891.4C895.4 299.5 897.8 306.8 897.9 314.8H939V318.9H897.9V340.1H939V344.2H897.9V365.4H939V369.5H897.9V390.7H939V394.8H897.9V416H939V420.1H897.9V427.4C918.7 436.2 938.4 445.8 957.6 456.9V267.7C957.6 252.5 965 238.9 976.6 230.2V156.1C976.6 153.4 976.4 150.7 975.9 148C975.6 146.3 975.2 144.6 974.7 142.9C968.7 123.2 950.1 109.7 929 109.7H925V85.5998C925 78.7998 919.3 73.1998 912.3 73.1998H894.8V38.2998H892V73.1998H868.1V109.8H844.6V279.7H850.6L850.5 264ZM887.8 80.7998H905.4V94.4998H887.8V80.7998ZM882.1 137.5H939V141.6H882.1V137.5ZM882.1 162.8H939V166.9H882.1V162.8ZM882.1 188.2H939V192.3H882.1V188.2ZM882.1 213.5H939V217.6H882.1V213.5ZM882.1 238.8H939V242.9H882.1V238.8ZM882.1 264.1H939V268.2H882.1V264.1Z" fill="#D2D2D9"/>
<path d="M831.7 322.2C827.5 318.6 823.3 315 819.1 311.3C819.2 311.7 819.3 312.2 819.4 312.8C819.7 315.9 818.6 315.7 818.6 319.4C818.6 323.3 819.9 326.3 820.5 328.5C821.4 328.4 822.4 328.2 823.4 327.8C827.4 326.6 830.1 324.1 831.7 322.2Z" fill="#2F2E41"/>
<path opacity="0.5" d="M815.2 297.8C815.5 297.3 815.7 296.7 816 296.2C820.5 298.3 825.8 301.3 831.4 305.4H837.2V310.1L837.4 310.3C841.6 314 845 317.7 847.7 321.1C844.5 328.8 840.5 333.4 837.2 336.4V342.6H828.8L828.6 342.7C825.5 344.9 822.8 346.9 820.6 348.5C819.2 355 818.1 362.4 817.8 370.6C817.4 380.1 818.2 388.5 819.3 395.4H818.9C819 395.8 819.2 396.3 819.4 396.7C819.7 397.5 819.9 398.3 820.1 399.1C835.2 403.9 849.6 408.7 863.4 413.8V412.5H874.9V418.1C882.7 421.1 890.4 424.2 897.9 427.4V420.1V416V394.8V390.7V369.5V365.4V344.2V340.1V318.9V315.3C897.9 315.1 897.9 314.9 897.9 314.8C897.8 306.8 895.4 299.5 891.4 293.6C890.4 292.1 889.3 290.8 888.1 289.5C882.9 283.9 876.1 280.3 868.4 279.8V273.5C868.4 268.5 865 264.3 860.6 264V239.3H858.8V264H850.5V279.7H844.5H814.6V297.4L815.2 297.8ZM837.2 396.2H825.7V385.7H837.2V396.2ZM837.2 369.5H825.7V359H837.2V369.5ZM863.4 305.4H874.9V315.9H863.4V305.4ZM863.4 332.2H874.9V342.7H863.4V332.2ZM863.4 359H874.9V369.5H863.4V359ZM863.4 385.7H874.9V396.2H863.4V385.7ZM856.1 396.2H844.6V385.7H856.1V396.2ZM856.1 369.5H844.6V359H856.1V369.5ZM856.1 342.7H844.6V332.2H856.1V342.7ZM844.5 305.4H856V315.9H844.5V305.4Z" fill="#2F2E41"/>
<path opacity="0.5" d="M1031.2 199.7H1018.3V167H1015.4V199.8C1008.6 200.2 1003.3 205.7 1003.3 212.3V220.7C993.2 221.2 984 224.8 976.6 230.3C965 238.9 957.6 252.5 957.6 267.8V456.9C959.9 458.2 962.1 459.5 964.4 460.8H1071V220.6H1031.2V199.7ZM1011.2 446.2H993.3V432.3H1011.2V446.2ZM1011.2 410.7H993.3V396.8H1011.2V410.7ZM1011.2 375.2H993.3V361.3H1011.2V375.2ZM1011.2 339.6H993.3V325.7H1011.2V339.6ZM1011.2 304.1H993.3V290.2H1011.2V304.1ZM1011.2 268.6H993.3V254.7H1011.2V268.6ZM1040.5 446.2H1022.6V432.3H1040.5V446.2ZM1040.5 410.7H1022.6V396.8H1040.5V410.7ZM1040.5 375.2H1022.6V361.3H1040.5V375.2ZM1040.5 339.6H1022.6V325.7H1040.5V339.6ZM1040.5 304.1H1022.6V290.2H1040.5V304.1ZM1052 254.7H1069.9V268.6H1052V254.7ZM1052 290.2H1069.9V304.1H1052V290.2ZM1052 325.7H1069.9V339.6H1052V325.7ZM1052 361.2H1069.9V375.1H1052V361.2ZM1052 396.7H1069.9V410.6H1052V396.7ZM1052 432.3H1069.9V446.2H1052V432.3ZM1040.5 254.7V268.6H1022.6V254.7H1040.5Z" fill="#C4C5D7"/>
<path opacity="0.5" d="M776.6 386C776.9 384.1 777.3 382.1 777.5 380.1C777.9 376.9 778.2 373.7 778.5 370.6H730.3V367.4H778.6C778.9 361.7 778.8 356.2 778.5 351H730.3V347.8H775.8C773.9 346.5 771.8 344.9 769.5 343.3C763.9 339.3 763 338.7 761.8 337.6C760 336.1 758 334.1 756 331.4H730.3V328.2H753.8C752.6 326.3 751.5 324.1 750.4 321.6C752.9 318.5 755.9 315.2 759.6 311.8H730.3V308.6H763.3C770.1 303 776.8 299.1 782.2 296.6C782.3 296.7 782.3 296.9 782.4 297L786.2 294.2C787.1 292.8 788.7 292 790.3 292C791.5 291.2 792.4 290.8 792.7 290.7C795.1 289.7 797.1 289.7 799.4 289.7C801.3 289.7 803.5 289.7 806.1 290.7C807.2 291.1 810.4 292.3 812.8 295.5C813 295.8 813.2 296.1 813.3 296.3L814.7 297.3V279.6V225.2C814.7 223.1 814.5 221 814.1 219C813.8 217.7 813.4 216.3 813 215C807.6 199.8 791.1 189.4 772.3 189.4H768.7V170.7C768.7 165.4 763.6 161.1 757.4 161.1H741.8V134.1H739.3V161.1H718V189.4H697V364.6C720.1 369.9 745.4 376.9 776.6 386ZM735.4 167H751V177.6H735.3V167H735.4ZM730.3 210.9H781.1V214.1H730.3V210.9ZM730.3 230.5H781.1V233.7H730.3V230.5ZM730.3 250H781.1V253.2H730.3V250ZM730.3 269.6H781.1V272.8H730.3V269.6ZM730.3 289.2H781.1V292.4H730.3V289.2Z" fill="#C4C5D7"/>
<path d="M781.1 328.8C781.5 328.7 782 328.6 782.4 328.5C782.1 326.3 781.7 323.3 781.1 319.4C780.2 313.8 779.9 313.5 780.2 311.9H779C774.8 315.5 770.7 319.1 766.5 322.7C768.2 324.6 770.8 327 774.6 328.3H781.2L781.1 328.8Z" fill="#8188A2"/>
<path opacity="0.5" d="M2.9 251.4C2.9 236.2 10.3 222.6 21.9 213.9V139.8C21.9 137.1 21.7 134.4 21.2 131.7C20.9 130 20.5 128.3 20 126.6C16.6 115.7 9.4 106.7 0 100.9V444.5H2.9V251.4Z" fill="#D2D2D9"/>
<path opacity="0.5" d="M76.5004 204.2V183.3H63.6004V150.6H60.7004V183.4C53.9004 183.8 48.6004 189.3 48.6004 195.9V204.3C38.5004 204.8 29.4004 208.4 21.9004 213.9C10.3004 222.5 2.90039 236.1 2.90039 251.4V444.5H124.4V204.2H76.5004ZM56.4004 429.9H38.6004V416H56.5004L56.4004 429.9ZM56.4004 394.3H38.6004V380.4H56.5004L56.4004 394.3ZM56.4004 358.8H38.6004V344.9H56.5004L56.4004 358.8ZM56.4004 323.3H38.6004V309.4H56.5004L56.4004 323.3ZM56.4004 287.8H38.6004V273.9H56.5004L56.4004 287.8ZM56.4004 252.3H38.6004V238.4H56.5004L56.4004 252.3ZM85.7004 429.9H67.9004V416H85.8004V429.9H85.7004ZM85.7004 394.3H67.9004V380.4H85.8004V394.3H85.7004ZM85.7004 358.8H67.9004V344.9H85.8004V358.8H85.7004ZM85.7004 323.3H67.9004V309.4H85.8004V323.3H85.7004ZM85.7004 287.8H67.9004V273.9H85.8004V287.8H85.7004ZM85.7004 252.3H67.9004V238.4H85.8004V252.3H85.7004ZM115 429.9H97.2004V416H115V429.9ZM115 394.3H97.2004V380.4H115V394.3ZM115 358.8H97.2004V344.9H115V358.8ZM115 323.3H97.2004V309.4H115V323.3ZM115 287.8H97.2004V273.9H115V287.8ZM97.2004 252.3V238.4H115V252.3H97.2004Z" fill="#C4C5D7"/>
<path opacity="0.5" d="M220 416.6V175.2V126.4H203V93.2001H185.7V61.6001H183.7V93.3001H171C165.9 93.3001 161.8 98.3001 161.8 104.5V126.5H158.9C143.6 126.5 130.2 138.7 125.8 156.6C125.4 158.1 125.1 159.7 124.9 161.3C124.6 163.7 124.4 166.2 124.4 168.6V204.3V444.5V445C141.9 445.1 159.4 445.2 176.9 445.2L220 416.6ZM176 100.1H188.7V112.5H176V100.1ZM192.8 408H151.6V404.3H192.8V408ZM192.8 385.1H151.6V381.4H192.8V385.1ZM192.8 362.1H151.6V358.4H192.8V362.1ZM192.8 339.1H151.6V335.4H192.8V339.1ZM192.8 316.1H151.6V312.4H192.8V316.1ZM192.8 293.2H151.6V289.5H192.8V293.2ZM192.8 270.2H151.6V266.5H192.8V270.2ZM192.8 247.2H151.6V243.5H192.8V247.2ZM192.8 224.3H151.6V220.6H192.8V224.3ZM192.8 201.3H151.6V197.6H192.8V201.3ZM192.8 178.3H151.6V174.6H192.8V178.3ZM192.8 155.3H151.6V151.6H192.8V155.3Z" fill="#2F2E41"/>
<g opacity="0.74">
<path opacity="0.74" d="M461 123.3H404.1V127.4H461V123.3Z" fill="white"/>
<path opacity="0.74" d="M461 148.6H404.1V152.7H461V148.6Z" fill="white"/>
<path opacity="0.74" d="M461 173.9H404.1V178H461V173.9Z" fill="white"/>
<path opacity="0.74" d="M461 199.2H404.1V203.3H461V199.2Z" fill="white"/>
<path opacity="0.74" d="M404.1 228.7H443.5C445.7 227.3 448 226 450.3 224.6H404.1V228.7Z" fill="white"/>
<path opacity="0.74" d="M404.1 254H410.7C412.1 252.6 413.5 251.2 414.9 249.9H404.1V254Z" fill="white"/>
<path opacity="0.74" d="M427.299 66.5H409.699V80.2H427.299V66.5Z" fill="white"/>
<path opacity="0.74" d="M359.1 291.2H347.6V301.7H359.1V291.2Z" fill="white"/>
<path opacity="0.74" d="M378 291.2H366.5V301.7H378V291.2Z" fill="white"/>
<path opacity="0.74" d="M385.399 294.1C385.799 293.1 386.199 292.1 386.599 291.2H385.399V294.1Z" fill="white"/>
<path opacity="0.74" d="M359.1 318H347.6V328.5H359.1V318Z" fill="white"/>
<path opacity="0.74" d="M366.5 318V328.5H377.2C377.4 326.1 377.6 323.8 378 321.6V318H366.5Z" fill="white"/>
<path opacity="0.74" d="M359.1 344.7H347.6V355.2H359.1V344.7Z" fill="white"/>
<path opacity="0.74" d="M366.499 355.2H377.999V349.9C377.699 348.2 377.499 346.4 377.299 344.7H366.399V355.2H366.499Z" fill="white"/>
<path opacity="0.74" d="M359.1 371.5H347.6V382H359.1V371.5Z" fill="white"/>
<path opacity="0.74" d="M378 371.5H366.5V382H378V371.5Z" fill="white"/>
<path opacity="0.74" d="M391.5 382C388.8 378.8 386.9 375.8 385.3 372.8V382H391.5Z" fill="white"/>
<path opacity="0.74" d="M347.6 398.3V407.6C351.4 407.3 355.2 407.1 359.1 406.9V398.3H347.6Z" fill="white"/>
<path opacity="0.74" d="M366.5 398.3V406.6C370.3 406.5 374.1 406.4 378 406.4V398.3H366.5Z" fill="white"/>
<path opacity="0.74" d="M385.399 398.3V406.4C389.199 406.4 392.999 406.5 396.899 406.6V398.3H385.399Z" fill="white"/>
<path opacity="0.74" d="M591.799 240.5H573.899V254.4H591.799V240.5Z" fill="white"/>
<path opacity="0.74" d="M562.5 240.5H544.6V254.4H562.5V240.5Z" fill="white"/>
<path opacity="0.74" d="M533.2 254.4V240.5H522.9C520.2 242.2 517.7 243.8 515.3 245.4V254.5H533.2V254.4Z" fill="white"/>
<path opacity="0.74" d="M591.799 276H573.899V289.9H591.799V276Z" fill="white"/>
<path opacity="0.74" d="M562.5 276H544.6V289.9H562.5V276Z" fill="white"/>
<path opacity="0.74" d="M533.2 276H515.3V289.9H533.2V276Z" fill="white"/>
<path opacity="0.74" d="M591.799 311.5H573.899V325.4H591.799V311.5Z" fill="white"/>
<path opacity="0.74" d="M562.5 311.5H544.6V325.4H562.5V311.5Z" fill="white"/>
<path opacity="0.74" d="M533.2 311.5H515.3V325.4H533.2V311.5Z" fill="white"/>
<path opacity="0.74" d="M573.899 347V348.2C579.499 348.8 585.399 349.5 591.799 350.1V347H573.899Z" fill="white"/>
<path opacity="0.74" d="M303.1 196.7H252.3V199.9H303.1V196.7Z" fill="white"/>
<path opacity="0.74" d="M303.1 216.2H252.3V219.4H303.1V216.2Z" fill="white"/>
<path opacity="0.74" d="M303.1 235.8H252.3V239H303.1V235.8Z" fill="white"/>
<path opacity="0.74" d="M303.1 255.4H252.3V258.6H303.1V255.4Z" fill="white"/>
<path opacity="0.74" d="M303.1 274.9H252.3V278.1H303.1V274.9Z" fill="white"/>
<path opacity="0.74" d="M303.1 294.5H252.3V297.7H303.1V294.5Z" fill="white"/>
<path opacity="0.74" d="M303.1 314.1H252.3V317.3H303.1V314.1Z" fill="white"/>
<path opacity="0.74" d="M303.1 333.6H252.3V336.8H303.1V333.6Z" fill="white"/>
<path opacity="0.74" d="M303.1 353.2H252.3V356.4H303.1V353.2Z" fill="white"/>
<path opacity="0.74" d="M303.1 372.8H252.3V376H303.1V372.8Z" fill="white"/>
<path opacity="0.74" d="M303.1 392.4H252.3V395.6H303.1V392.4Z" fill="white"/>
<path opacity="0.74" d="M252.3 411.9V415.1H287C292.2 414.2 297.5 413.3 303 412.4V411.9H252.3Z" fill="white"/>
<path opacity="0.74" d="M273 152.8H257.3V163.4H273V152.8Z" fill="white"/>
<path opacity="0.74" d="M669.6 156.4L668.6 157.4H669.6V156.4Z" fill="white"/>
<path opacity="0.74" d="M669.599 176.7H650.199L646.699 180.4H669.599V176.7Z" fill="white"/>
<path opacity="0.74" d="M669.599 199.6H628.399V203.3H669.599V199.6Z" fill="white"/>
<path opacity="0.74" d="M669.599 222.6H628.399V226.3H669.599V222.6Z" fill="white"/>
<path opacity="0.74" d="M669.599 245.6H628.399V249.3H669.599V245.6Z" fill="white"/>
<path opacity="0.74" d="M669.599 268.6H628.399V272.3H669.599V268.6Z" fill="white"/>
<path opacity="0.74" d="M669.599 291.5H628.399V295.2H669.599V291.5Z" fill="white"/>
<path opacity="0.74" d="M669.599 314.5H628.399V318.2H669.599V314.5Z" fill="white"/>
<path opacity="0.74" d="M669.599 337.5H628.399V341.2H669.599V337.5Z" fill="white"/>
<path opacity="0.74" d="M665.5 102.2H652.8V114.6H665.5V102.2Z" fill="white"/>
<path opacity="0.74" d="M939 137.5H882.1V141.6H939V137.5Z" fill="white"/>
<path opacity="0.74" d="M939 162.8H882.1V166.9H939V162.8Z" fill="white"/>
<path opacity="0.74" d="M939 188.2H882.1V192.3H939V188.2Z" fill="white"/>
<path opacity="0.74" d="M939 213.5H882.1V217.6H939V213.5Z" fill="white"/>
<path opacity="0.74" d="M939 238.8H882.1V242.9H939V238.8Z" fill="white"/>
<path opacity="0.74" d="M939 264.1H882.1V268.2H939V264.1Z" fill="white"/>
<path opacity="0.74" d="M939.099 289.4H888.199C889.399 290.7 890.499 292 891.499 293.5H939.099V289.4Z" fill="white"/>
<path opacity="0.74" d="M939.1 314.7H898C898 314.9 898 315.1 898 315.2V318.8H939.1V314.7Z" fill="white"/>
<path opacity="0.74" d="M938.999 340.1H897.899V344.2H938.999V340.1Z" fill="white"/>
<path opacity="0.74" d="M938.999 365.4H897.899V369.5H938.999V365.4Z" fill="white"/>
<path opacity="0.74" d="M938.999 390.7H897.899V394.8H938.999V390.7Z" fill="white"/>
<path opacity="0.74" d="M938.999 416H897.899V420.1H938.999V416Z" fill="white"/>
<path opacity="0.74" d="M905.4 80.7998H887.8V94.4998H905.4V80.7998Z" fill="white"/>
<path opacity="0.74" d="M837.199 305.4H831.399C833.299 306.8 835.299 308.4 837.199 310.1V305.4Z" fill="white"/>
<path opacity="0.74" d="M856 305.4H844.5V315.9H856V305.4Z" fill="white"/>
<path opacity="0.74" d="M874.899 305.4H863.399V315.9H874.899V305.4Z" fill="white"/>
<path opacity="0.74" d="M828.8 342.7H837.2V336.5C836.9 336.7 836.7 337 836.4 337.2C835.1 338.2 834.2 338.8 828.8 342.7Z" fill="white"/>
<path opacity="0.74" d="M856 332.2H844.5V342.7H856V332.2Z" fill="white"/>
<path opacity="0.74" d="M874.899 332.2H863.399V342.7H874.899V332.2Z" fill="white"/>
<path opacity="0.74" d="M837.199 359H825.699V369.5H837.199V359Z" fill="white"/>
<path opacity="0.74" d="M856 359H844.5V369.5H856V359Z" fill="white"/>
<path opacity="0.74" d="M874.899 359H863.399V369.5H874.899V359Z" fill="white"/>
<path opacity="0.74" d="M837.199 385.7H825.699V396.2H837.199V385.7Z" fill="white"/>
<path opacity="0.74" d="M856 385.7H844.5V396.2H856V385.7Z" fill="white"/>
<path opacity="0.74" d="M874.899 385.7H863.399V396.2H874.899V385.7Z" fill="white"/>
<path opacity="0.74" d="M863.399 412.5V413.8C867.299 415.2 871.099 416.6 874.899 418.1V412.5H863.399Z" fill="white"/>
<path opacity="0.74" d="M1069.9 254.7H1052V268.6H1069.9V254.7Z" fill="white"/>
<path opacity="0.74" d="M1040.6 254.7H1022.7V268.6H1040.6V254.7Z" fill="white"/>
<path opacity="0.74" d="M1011.3 254.7H993.399V268.6H1011.3V254.7Z" fill="white"/>
<path opacity="0.74" d="M1069.9 290.2H1052V304.1H1069.9V290.2Z" fill="white"/>
<path opacity="0.74" d="M1040.6 290.2H1022.7V304.1H1040.6V290.2Z" fill="white"/>
<path opacity="0.74" d="M1011.3 290.2H993.399V304.1H1011.3V290.2Z" fill="white"/>
<path opacity="0.74" d="M1069.9 325.7H1052V339.6H1069.9V325.7Z" fill="white"/>
<path opacity="0.74" d="M1040.6 325.7H1022.7V339.6H1040.6V325.7Z" fill="white"/>
<path opacity="0.74" d="M1011.3 325.7H993.399V339.6H1011.3V325.7Z" fill="white"/>
<path opacity="0.74" d="M1069.9 361.2H1052V375.1H1069.9V361.2Z" fill="white"/>
<path opacity="0.74" d="M1040.6 361.2H1022.7V375.1H1040.6V361.2Z" fill="white"/>
<path opacity="0.74" d="M1011.3 361.2H993.399V375.1H1011.3V361.2Z" fill="white"/>
<path opacity="0.74" d="M1069.9 396.7H1052V410.6H1069.9V396.7Z" fill="white"/>
<path opacity="0.74" d="M1040.6 396.7H1022.7V410.6H1040.6V396.7Z" fill="white"/>
<path opacity="0.74" d="M1011.3 396.7H993.399V410.6H1011.3V396.7Z" fill="white"/>
<path opacity="0.74" d="M1069.9 432.3H1052V446.2H1069.9V432.3Z" fill="white"/>
<path opacity="0.74" d="M1040.6 432.3H1022.7V446.2H1040.6V432.3Z" fill="white"/>
<path opacity="0.74" d="M1011.3 432.3H993.399V446.2H1011.3V432.3Z" fill="white"/>
<path opacity="0.74" d="M781.1 210.9H730.3V214.1H781.1V210.9Z" fill="white"/>
<path opacity="0.74" d="M781.1 230.5H730.3V233.7H781.1V230.5Z" fill="white"/>
<path opacity="0.74" d="M781.1 250H730.3V253.2H781.1V250Z" fill="white"/>
<path opacity="0.74" d="M781.1 269.6H730.3V272.8H781.1V269.6Z" fill="white"/>
<path opacity="0.74" d="M781.1 289.2H730.3V292.4H781.1V289.2Z" fill="white"/>
<path opacity="0.74" d="M763.3 308.7H730.3V311.9H759.6C760 311.5 760.4 311.2 760.8 310.8C761.6 310.1 762.5 309.4 763.3 308.7Z" fill="white"/>
<path opacity="0.74" d="M780.3 311.9C780.4 311.4 780.5 311 780.6 310.6C780.1 311 779.6 311.5 779.1 311.9H780.3Z" fill="white"/>
<path opacity="0.74" d="M781.1 328.3H774.5L774.7 328.4C776.5 329 778.2 329.2 779.7 329.2C780.1 329 780.6 328.9 781.1 328.8V328.3Z" fill="white"/>
<path opacity="0.74" d="M730.3 328.3V331.5H756C755.3 330.5 754.6 329.5 753.9 328.3H730.3Z" fill="white"/>
<path opacity="0.74" d="M775.8 347.9H730.3V351.1H778.5C778.5 350.7 778.4 350.3 778.4 349.9C777.7 349.2 776.8 348.6 775.8 347.9Z" fill="white"/>
<path opacity="0.74" d="M730.3 367.5V370.7H778.5C778.6 369.6 778.6 368.6 778.7 367.5H730.3Z" fill="white"/>
<path opacity="0.74" d="M751.099 167H735.399V177.6H751.099V167Z" fill="white"/>
<path opacity="0.74" d="M115.099 238.4H97.1992V252.3H115.099V238.4Z" fill="white"/>
<path opacity="0.74" d="M85.7994 238.4H67.8994V252.3H85.7994V238.4Z" fill="white"/>
<path opacity="0.74" d="M56.4996 238.4H38.5996V252.3H56.4996V238.4Z" fill="white"/>
<path opacity="0.74" d="M115.099 273.9H97.1992V287.8H115.099V273.9Z" fill="white"/>
<path opacity="0.74" d="M85.7994 273.9H67.8994V287.8H85.7994V273.9Z" fill="white"/>
<path opacity="0.74" d="M56.4996 273.9H38.5996V287.8H56.4996V273.9Z" fill="white"/>
<path opacity="0.74" d="M115.099 309.4H97.1992V323.3H115.099V309.4Z" fill="white"/>
<path opacity="0.74" d="M85.7994 309.4H67.8994V323.3H85.7994V309.4Z" fill="white"/>
<path opacity="0.74" d="M56.4996 309.4H38.5996V323.3H56.4996V309.4Z" fill="white"/>
<path opacity="0.74" d="M115.099 344.9H97.1992V358.8H115.099V344.9Z" fill="white"/>
<path opacity="0.74" d="M85.7994 344.9H67.8994V358.8H85.7994V344.9Z" fill="white"/>
<path opacity="0.74" d="M56.4996 344.9H38.5996V358.8H56.4996V344.9Z" fill="white"/>
<path opacity="0.74" d="M115.099 380.4H97.1992V394.3H115.099V380.4Z" fill="white"/>
<path opacity="0.74" d="M85.7994 380.4H67.8994V394.3H85.7994V380.4Z" fill="white"/>
<path opacity="0.74" d="M56.4996 380.4H38.5996V394.3H56.4996V380.4Z" fill="white"/>
<path opacity="0.74" d="M115.099 415.9H97.1992V429.8H115.099V415.9Z" fill="white"/>
<path opacity="0.74" d="M85.7994 415.9H67.8994V429.8H85.7994V415.9Z" fill="white"/>
<path opacity="0.74" d="M56.4996 415.9H38.5996V429.8H56.4996V415.9Z" fill="white"/>
<path opacity="0.74" d="M192.8 151.6H151.6V155.3H192.8V151.6Z" fill="white"/>
<path opacity="0.74" d="M192.8 174.6H151.6V178.3H192.8V174.6Z" fill="white"/>
<path opacity="0.74" d="M192.8 197.6H151.6V201.3H192.8V197.6Z" fill="white"/>
<path opacity="0.74" d="M192.8 220.5H151.6V224.2H192.8V220.5Z" fill="white"/>
<path opacity="0.74" d="M192.8 243.5H151.6V247.2H192.8V243.5Z" fill="white"/>
<path opacity="0.74" d="M192.8 266.5H151.6V270.2H192.8V266.5Z" fill="white"/>
<path opacity="0.74" d="M192.8 289.4H151.6V293.1H192.8V289.4Z" fill="white"/>
<path opacity="0.74" d="M192.8 312.4H151.6V316.1H192.8V312.4Z" fill="white"/>
<path opacity="0.74" d="M192.8 335.4H151.6V339.1H192.8V335.4Z" fill="white"/>
<path opacity="0.74" d="M192.8 358.4H151.6V362.1H192.8V358.4Z" fill="white"/>
<path opacity="0.74" d="M192.8 381.3H151.6V385H192.8V381.3Z" fill="white"/>
<path opacity="0.74" d="M192.8 404.3H151.6V408H192.8V404.3Z" fill="white"/>
<path opacity="0.74" d="M188.7 100.1H176V112.5H188.7V100.1Z" fill="white"/>
</g>
<path d="M560.4 480.1C560 479.9 558.8 479.4 557 478.6C546.2 474 514.4 460 474.8 438.7V457.4C474.8 458.8 473.9 460 472.7 460H471.9C470.7 460 469.8 458.9 469.8 457.4V436C468.8 435.5 467.8 434.9 466.8 434.3C448 424 433.7 415.3 422.5 407.9C421.6 407.8 420.8 407.8 419.9 407.7C412.1 407.1 404.4 406.7 396.9 406.5C393 406.4 389.2 406.3 385.4 406.3C382.9 406.3 380.5 406.3 378 406.3C374.1 406.3 370.3 406.4 366.5 406.5C364 406.6 361.6 406.7 359.1 406.8C355.2 407 351.4 407.2 347.6 407.5C343.9 407.8 340.2 408 336.6 408.3C324.8 409.3 313.6 410.7 303.1 412.3C297.6 413.1 292.2 414 287.1 415C273 417.6 260.2 420.5 248.9 423.3L253.8 448.9C292.1 446.4 344 446.8 403.5 458.8C422.4 462.6 489.9 477.3 583 528.7C613 545.2 651.6 568.9 694.5 601.8H705.6C667 557.7 611.3 501.8 560.4 480.1Z" fill="#ACADBE"/>
<path d="M1022.1 500.3C1002.8 485.3 983.8 472.3 964.5 460.8C962.3 459.5 960 458.2 957.7 456.9C938.4 445.9 918.8 436.2 898 427.4C890.5 424.2 882.8 421.1 875 418.1C871.2 416.6 867.4 415.2 863.5 413.8C849.7 408.7 835.3 403.9 820.2 399.1C821.3 403.4 821.8 408.6 821.6 417.5C821.4 422.9 820.9 429.9 819.7 438.1L815.5 463.1C818.6 474.7 821.2 487.2 823.1 500.6C823.5 503.7 823.9 506.7 824.3 509.7H823.4L825.2 513.9L825.7 513.5L825.9 513.6C827 514.3 827.6 515.1 827.8 516.1L830.2 521.8L825.6 523.8L828.4 525.1C829.1 524.7 829.7 524.3 830.4 523.9C844.7 531 858.9 538.1 873.2 545.3C875.3 546.8 878.3 549 881.8 551.7C890.1 558 894.6 561.3 899.3 565.4C902.4 568.1 906.3 571.7 910.5 576.2C912.8 578.5 915.3 580.9 918.2 583.3C924.6 588.6 931.5 593 938.2 596.6C941.1 596.2 944.6 595.7 948.8 595.1C955.4 594.1 956.4 593.9 958 593.8C962.4 593.4 968.7 593.3 976.7 595.1C977 597.2 977.2 599.6 977.1 602.2H1021.3C1048.9 602.2 1071.3 579.8 1071.3 552.2V544.6C1052.1 524.9 1035.1 510.5 1022.1 500.3Z" fill="#ECEDF5"/>
<path d="M782.3 521.9V529.2H779.6C779.4 529.5 779.2 529.7 778.9 529.9V532.4L783 534.7L783.2 534.6C804.7 541.4 826.2 548.3 847.7 555.1L871.6 569.5L854.3 550.2C843 543.4 831.8 536.6 820.5 529.8C821.3 529.3 822.2 528.8 823 528.2L819.7 526.1L813.4 528.8L813.3 528.6C812.4 526.6 812.6 524.3 813.6 522.5L813.1 522.2L814.7 521.1C815.4 520.4 816.2 519.8 817.1 519.4L819 516L815.3 509.6H812.1C806.3 494.9 800.6 480.3 794.8 465.6L794.2 431.1C791.1 442.7 787.9 454.4 784.8 466L785.5 514.9C784.4 514.8 783.2 514.7 782.1 514.7V521.9H782.3Z" fill="#ECEDF5"/>
<path d="M878.9 596.6C878.5 596.5 878.1 596.4 877.7 596.3C873.3 595 869.1 593.1 862.1 588.5C858.5 586.1 854.1 582.9 849.4 578.9L835.3 566.3C826.3 563.6 815.8 559.8 804.5 554.1C793.7 548.7 784.7 542.9 777.4 537.5L778.1 537.2L773.6 534.1L772.8 534.7L767.3 530.9L769.5 529.3H764.5V529.1C764.5 525.2 767.6 522.1 771.5 522.1L774.8 519.6L776.1 520.1L775.4 514.5C774.5 514.4 773.6 514.4 772.7 514.3C770.8 495.3 768.9 476.4 766.9 457.4C767.1 454.1 767.5 449.4 768 443.7C769.2 430.3 769.8 423 771.1 414.8C771.9 409.5 773.2 402.4 775.3 394.2H775.2C775.8 391.7 776.3 389.1 776.8 386.3C745.6 377.2 720.3 370.2 697 364.9C681.7 361.4 667.3 358.7 652.8 356.6C643.8 355.3 638.4 355.2 604.8 351.7C603.7 351.6 602.5 351.5 601.4 351.3C598.2 351 595.1 350.6 592 350.3C585.7 349.6 579.7 349 574.1 348.4C513 341.5 495.8 337 485.8 322.2C482.8 317.8 480.9 313.2 479.8 308.8C476.6 296.8 478.7 286.1 479 284.5C479 284.3 479.1 284 479.1 283.8L468.4 282.6V296.7C468.4 297.7 467.6 298.4 466.7 298.4H466.1C465.1 298.4 464.4 297.6 464.4 296.7V282L455.2 281L455.3 280.5L454.6 280.4L455.9 268.7L464.4 269.6V265.6L445.6 267.7L437.6 262.7L444.3 256V255.9H444.4L444.9 255.4V255.3L464.4 253.1V251L455.2 250L455.3 249.5L454.6 249.4L455.9 237.7L464.4 238.6V236.4C464.4 235.4 465.2 234.7 466.1 234.7H466.7C467.7 234.7 468.4 235.5 468.4 236.4V239.1L489.6 241.5V241.6L490.1 242.1H490.2V242.2L496.9 248.9L488.9 253.9L478.7 252.8L479.9 263.6L479.2 263.7L479.3 264.2L468.4 265.4V270.3L484.1 272C489.4 264.1 498.8 256.4 515.5 245.5C517.9 244 520.4 242.3 523.1 240.6C532.4 234.8 543.5 228.1 556.8 220.1C563.8 215.9 571.5 211.4 579.9 206.4C586.6 202.4 593.8 198.2 601.3 193.9C602 193.5 602.7 193.1 603.4 192.7L593 169C573.7 172.7 556.2 177.4 540.5 182.6C539.5 182.9 538.6 183.2 537.6 183.6C523 188.5 510.1 193.8 498.7 199C489.3 203.3 481 207.6 473.8 211.5C465.5 216 457.7 220.4 450.3 224.7C448 226.1 445.7 227.4 443.5 228.8C432.9 235.4 423.3 242.2 414.9 250C413.5 251.3 412.1 252.7 410.7 254.1C406.6 258.3 402.8 262.8 399.3 267.7C395.9 272.6 392.8 277.8 390 283.6C389.2 285.2 388 287.8 386.5 291.3C386.1 292.2 385.7 293.2 385.3 294.2C382.6 301.2 379.5 310.7 377.9 321.7C377.6 323.9 377.3 326.3 377.1 328.6C376.7 333.8 376.7 339.3 377.2 344.9C377.4 346.6 377.6 348.3 377.9 350.1C378.8 355.7 380.2 361.3 382.5 366.9C383.3 368.9 384.2 370.9 385.3 373C386.9 375.9 388.8 378.9 391.5 382.2C397 388.9 405.6 396.6 419.9 406.4C420.7 407 421.6 407.6 422.5 408.1C433.6 415.6 448 424.2 466.8 434.5C467.8 435.1 468.8 435.6 469.8 436.2V423.7L450.4 422.7V421.8L449.3 421.7L450.3 402.6L469.8 403.6V393.6L437.6 398L424.3 390.2L435 379.1H435.1L436 378.1L436.1 378.9L436 378.1L469.8 373.5V368.6C469.8 367.2 470.7 366 471.9 366H472.7C473.9 366 474.8 367.1 474.8 368.6V372.8L490.8 370.6L493.4 389.6L492.3 389.8L492.4 390.6L474.8 393V404L505.6 405.6V406.5V405.7L506.6 406.6H506.7L518.3 416.8L505.7 425.7L474.8 424.1V439.1C514.4 460.5 546.2 474.4 557 479C558.8 479.8 560 480.3 560.4 480.5C611.3 501.8 667 557.7 705.5 602H889.1C885.4 599.9 881.8 598.2 878.5 596.8L878.9 596.6Z" fill="#ECEDF5"/>
<path d="M468.3 252.8L474.5 252.1L468.3 251.4V252.8Z" fill="#ECEDF5"/>
<path d="M778.9 532.4V532.6L773.5 533.9H773.4L777.9 537L783 534.7L778.9 532.4Z" fill="#ECEDF5"/>
<path d="M778.9 532.4V532.6L773.5 533.9H773.4L777.9 537L783 534.7L778.9 532.4Z" fill="#D9DAE7"/>
<path d="M823 528.2C824.7 527.2 826.4 526.1 828.1 525.1L825.3 523.8L819.6 526.2L823 528.2Z" fill="#ECEDF5"/>
<path d="M825.4 523.8L819.7 526.2L823 528.3C824.7 527.3 826.4 526.2 828.1 525.2L825.4 523.8Z" fill="#D9DAE7"/>
<path d="M813.6 522.6C813.9 522.1 814.2 521.6 814.6 521.2L813 522.3L813.6 522.6Z" fill="#ECEDF5"/>
<path d="M814.6 521.1L813 522.2L813.5 522.5C813.9 522 814.2 521.6 814.6 521.1Z" fill="#D9DAE7"/>
<path d="M827.2 515.1L827.6 516.1C827.4 515.2 826.8 514.3 825.7 513.6L825.5 513.5L825 513.9L825.8 515.7L827.2 515.1Z" fill="#ECEDF5"/>
<path d="M825.5 513.5L825 513.9L825.8 515.7L827.2 515.1L827.6 516.1C827.4 515.2 826.8 514.3 825.7 513.6L825.5 513.5Z" fill="#D9DAE7"/>
<path d="M775 530.2L778.9 532.4V529.9C779.2 529.7 779.4 529.4 779.6 529.2H769.3L767.1 530.8L772.6 534.6L773.4 534L771.6 532.8L775 530.2Z" fill="#ECEDF5"/>
<path d="M779.6 529.1H769.3L767.1 530.7L772.6 534.5L773.4 533.9L771.6 532.7L774.9 530.2L778.8 532.4V529.9C779.1 529.6 779.4 529.4 779.6 529.1Z" fill="#D9DAE7"/>
<path d="M778.9 532.6V532.4L775 530.2L771.6 532.7L773.4 533.9H773.5L778.9 532.6Z" fill="#ECEDF5"/>
<path d="M775 530.2L771.6 532.7L773.4 533.9H773.5L778.9 532.6V532.4L775 530.2Z" fill="#CFD0DF"/>
<path d="M832.8 534.3L823 528.2C822.2 528.7 821.3 529.2 820.5 529.8C831.8 536.6 843 543.4 854.3 550.2L871.6 569.5L847.7 555.1C826.2 548.3 804.7 541.4 783.2 534.6L783 534.7L793.8 540.8L788.9 544.5L778 537L777.3 537.3C784.6 542.6 793.6 548.5 804.4 553.9C815.7 559.6 826.3 563.4 835.2 566.1L849.3 578.7C854 582.7 858.4 585.9 862 588.3C869 593 873.2 594.8 877.6 596.1C878 596.2 878.4 596.3 878.8 596.4L910.2 575.9C906 571.4 902.1 567.8 899 565.1C894.3 561 889.8 557.6 881.5 551.4C878 548.7 875 546.5 872.9 545C858.6 537.9 844.4 530.8 830.1 523.6C829.4 524 828.8 524.4 828.1 524.8L838.7 529.9L832.8 534.3Z" fill="#ECEDF5"/>
<path d="M830.2 523.9C829.5 524.3 828.9 524.7 828.2 525.1L838.8 530.2L832.8 534.4L823 528.3C822.2 528.8 821.3 529.3 820.5 529.9C831.8 536.7 843 543.5 854.3 550.3L871.6 569.6L847.7 555.2C826.2 548.4 804.7 541.5 783.2 534.7L783 534.8L793.8 540.9L788.9 544.6L778 537.1L777.3 537.4C784.6 542.7 793.6 548.6 804.4 554C815.7 559.7 826.3 563.5 835.2 566.2L849.3 578.8C854 582.8 858.4 586 862 588.4C869 593.1 873.2 594.9 877.6 596.2C878 596.3 878.4 596.4 878.8 596.5L910.2 576C906 571.5 902.1 567.9 899 565.2C894.3 561.1 889.8 557.7 881.5 551.5C878 548.8 875 546.6 872.9 545.1C858.7 538.1 844.4 531 830.2 523.9Z" fill="#D9DAE7"/>
<path d="M793.7 540.8L783 534.7L777.9 537L788.8 544.5L793.7 540.8Z" fill="#ECEDF5"/>
<path d="M783 534.7L777.9 537L788.8 544.5L793.7 540.8L783 534.7Z" fill="#CFD0DF"/>
<path d="M832.8 534.3L838.8 530.1L828.2 525C826.5 526 824.8 527.1 823.1 528.1L832.8 534.3Z" fill="#ECEDF5"/>
<path d="M828.1 525.1C826.4 526.1 824.7 527.2 823 528.2L832.8 534.3L838.8 530.1L828.1 525.1Z" fill="#CFD0DF"/>
<path d="M935 596.8C935.8 596.7 936.8 596.5 937.9 596.4C931.2 592.8 924.3 588.4 917.9 583.1C915 580.7 912.5 578.3 910.2 576C911 576.9 911.8 577.8 912.7 578.7L895.7 593.9L881 597.1C880.4 597 879.7 596.8 878.8 596.6L878.5 596.8C881.8 598.2 885.4 600 889.1 602H940.1C938.4 599.6 936.4 597.9 935 596.8Z" fill="#ECEDF5"/>
<path d="M910.3 576.1C911.1 577 911.9 577.9 912.7 578.8L895.7 594L881 597.2C880.4 597.1 879.7 596.9 878.8 596.7L878.5 596.9C881.8 598.3 885.4 600.1 889.1 602.1H940.1C938.4 599.7 936.4 598 935 596.9C935.8 596.8 936.8 596.6 937.9 596.5C931.2 592.9 924.3 588.5 917.9 583.2C915.1 580.7 912.5 578.4 910.3 576.1Z" fill="#D9DAE7"/>
<path d="M881 597.1L895.7 593.9L912.7 578.7C911.9 577.8 911.1 576.9 910.2 576L878.8 596.5C879.7 596.8 880.5 597 881 597.1Z" fill="#ECEDF5"/>
<path d="M910.2 576.1L878.8 596.6C879.7 596.8 880.4 597 881 597.1L895.7 593.9L912.7 578.7C911.9 577.8 911 576.9 910.2 576.1Z" fill="#CFD0DF"/>
<path d="M976.4 594.9C968.3 593.1 962 593.1 957.7 593.6C956.1 593.8 955.1 593.9 948.5 594.9C944.4 595.5 940.8 596 937.9 596.4C941.9 598.5 945.8 600.4 949.5 602H976.8C976.9 599.4 976.8 597 976.4 594.9Z" fill="#ECEDF5"/>
<path d="M963.3 593.5C961.4 593.5 959.8 593.6 958.4 593.7C958.3 593.7 958.2 593.7 958.1 593.7C956.5 593.9 955.5 594 948.9 595C944.8 595.6 941.2 596.1 938.3 596.5C942.3 598.6 946.2 600.5 949.9 602.1H977.2C977.2 601.6 977.2 601.2 977.2 600.7C977.2 598.6 977 596.7 976.8 595H976.7H976.6C976.5 595 976.5 595 976.4 595C976.3 595 976.2 595 976.1 594.9C971.1 593.8 966.9 593.5 963.3 593.5Z" fill="#D9DAE7"/>
<path d="M935 596.8C936.4 597.9 938.4 599.6 940.1 602H949.5C945.8 600.4 941.8 598.5 937.9 596.4C936.8 596.6 935.9 596.7 935 596.8Z" fill="#ECEDF5"/>
<path d="M937.9 596.4C936.8 596.6 935.9 596.7 935 596.8C936.4 597.9 938.4 599.6 940.1 602H949.5C945.8 600.4 941.9 598.5 937.9 596.4Z" fill="#CFD0DF"/>
<path d="M781.1 328.8C780.6 328.9 780.2 329.1 779.7 329.2C780.7 329.2 781.6 329.2 782.5 329.1C782.5 328.9 782.4 328.7 782.4 328.5C782 328.6 781.5 328.7 781.1 328.8Z" fill="#0B0D25"/>
<path d="M248.9 423.4L244.5 400.4L220 416.6L176.9 445.2L162.2 454.9L258.8 475.3L253.8 449L248.9 423.4Z" fill="#ACADBE"/>
<path d="M603.2 192.6L613.2 215.4L646.7 180.4L650.2 176.7L668.6 157.4L669.6 156.4L680.9 144.5L607.9 145.6L582.9 146L592.9 168.8L603.2 192.6Z" fill="#ECEDF5"/>
<path d="M469.8 457.4C469.8 458.8 470.7 460 471.9 460H472.7C473.9 460 474.8 458.9 474.8 457.4V438.7V423.7L469.8 423.4V436V457.4Z" fill="#263355"/>
<path d="M474.8 392.8L469.8 393.5V403.5L474.8 403.7V392.8Z" fill="#263355"/>
<path d="M474.8 368.4C474.8 367 473.9 365.8 472.7 365.8H471.9C470.7 365.8 469.8 366.9 469.8 368.4V373.3L474.8 372.6V368.4Z" fill="#263355"/>
<path d="M489.8 371.4L492.3 389.5L493.4 389.4L490.8 370.4L474.8 372.6L469.8 373.3L436 377.9L436.1 378.8L489.8 371.4Z" fill="#C4C5D7"/>
<path d="M436 377.9L435 378.9L436.1 378.8L436 377.9Z" fill="#C4C5D7"/>
<path d="M492.4 390.4L492.3 389.6L489.8 371.5L436.1 378.9L435 379H434.9L437.5 397.9L469.7 393.5L474.7 392.8L492.4 390.4ZM463.5 378.1C464 378.3 464.5 378.6 464.8 379C465.1 379.4 465.3 379.9 465.4 380.5C465.5 380.9 465.4 381.3 465.4 381.6C465.3 381.9 465.2 382.3 465 382.6C464.8 382.9 464.6 383.2 464.3 383.4C464 383.6 463.8 383.9 463.6 384.2C463.4 384.5 463.3 384.7 463.3 385.1C463.3 385.4 463.3 385.8 463.3 386.3V386.4L462 386.6V386.5C461.9 385.8 461.9 385.2 462 384.8C462.1 384.4 462.2 384 462.5 383.7C462.7 383.4 463 383.1 463.3 382.8C463.5 382.6 463.7 382.4 463.8 382.2C463.9 382 464.1 381.8 464.1 381.5C464.2 381.2 464.2 381 464.1 380.7C464 380.3 463.9 380 463.7 379.8C463.5 379.6 463.2 379.4 462.9 379.3C462.6 379.2 462.3 379.2 461.9 379.2C461.6 379.2 461.3 379.3 461 379.5C460.7 379.7 460.5 379.9 460.4 380.2C460.2 380.5 460.2 380.9 460.2 381.3L458.8 381.5C458.7 380.9 458.8 380.3 459.1 379.8C459.3 379.3 459.7 378.9 460.1 378.6C460.6 378.3 461.1 378.1 461.7 378C462.4 377.9 462.9 377.9 463.5 378.1ZM461.9 388.9C461.9 388.6 461.9 388.4 462.1 388.1C462.3 387.9 462.5 387.7 462.8 387.7C463.1 387.7 463.3 387.7 463.6 387.9C463.8 388.1 464 388.3 464 388.6C464 388.8 464 389 463.9 389.1C463.8 389.3 463.7 389.4 463.6 389.5C463.5 389.6 463.3 389.7 463.1 389.7C462.8 389.7 462.6 389.7 462.3 389.5C462 389.4 461.9 389.1 461.9 388.9Z" fill="#5F6B8A"/>
<path d="M434.9 378.9L424.3 390.1L437.5 397.9L434.9 378.9Z" fill="#5F6B8A"/>
<path d="M451.4 403.4L505.6 406.2V405.4L474.8 403.7L469.8 403.5L450.3 402.4L449.3 421.5L450.5 421.6L451.4 403.4Z" fill="#C4C5D7"/>
<path d="M505.6 405.4V406.2L506.7 406.3L505.6 405.4Z" fill="#C4C5D7"/>
<path d="M505.7 425.4L506.7 406.3H506.6L505.5 406.2L451.3 403.3L450.3 421.5V422.4L469.7 423.4L474.7 423.7L505.7 425.4ZM479.3 418.5C479.5 418.3 479.8 418.2 480 418.3C480.3 418.3 480.5 418.4 480.7 418.7C480.9 418.9 481 419.2 480.9 419.4C480.9 419.6 480.8 419.7 480.7 419.9C480.6 420 480.5 420.2 480.3 420.2C480.1 420.3 480 420.3 479.8 420.3C479.5 420.3 479.3 420.2 479.1 419.9C478.9 419.7 478.8 419.4 478.9 419.2C478.9 418.9 479.1 418.7 479.3 418.5ZM478.2 409.7C478.5 409.3 479 409 479.5 408.8C480 408.6 480.6 408.5 481.2 408.6C481.9 408.7 482.4 408.8 482.9 409.2C483.4 409.5 483.7 409.9 483.9 410.4C484.1 410.9 484.2 411.4 484.2 412C484.2 412.4 484.1 412.8 483.9 413.1C483.7 413.4 483.5 413.7 483.3 413.9C483 414.1 482.7 414.3 482.4 414.5C482.1 414.7 481.8 414.9 481.5 415.1C481.3 415.3 481.1 415.6 481 415.9C480.9 416.2 480.8 416.6 480.7 417.1V417.2L479.4 417.1V417C479.5 416.3 479.6 415.7 479.8 415.3C480 414.9 480.2 414.6 480.5 414.3C480.8 414.1 481.1 413.8 481.5 413.7C481.7 413.6 481.9 413.4 482.1 413.3C482.3 413.1 482.5 412.9 482.6 412.7C482.7 412.5 482.8 412.2 482.8 411.9C482.8 411.5 482.8 411.2 482.6 410.9C482.5 410.6 482.2 410.4 482 410.2C481.7 410 481.4 409.9 481.1 409.9C480.8 409.9 480.5 409.9 480.2 410C479.9 410.1 479.6 410.3 479.4 410.5C479.2 410.8 479 411.1 479 411.5L477.6 411.4C477.7 410.6 477.9 410.1 478.2 409.7Z" fill="#5F6B8A"/>
<path d="M505.7 425.4L518.3 416.5L506.7 406.3L505.7 425.4Z" fill="#5F6B8A"/>
<path d="M463.5 389.5C463.6 389.4 463.7 389.2 463.8 389.1C463.9 388.9 463.9 388.8 463.9 388.6C463.9 388.3 463.7 388.1 463.5 387.9C463.3 387.7 463 387.7 462.7 387.7C462.4 387.7 462.2 387.9 462 388.1C461.8 388.3 461.8 388.6 461.8 388.9C461.8 389.2 462 389.4 462.2 389.6C462.4 389.8 462.7 389.8 463 389.8C463.2 389.7 463.4 389.6 463.5 389.5Z" fill="white"/>
<path d="M460.1 378.6C459.6 378.9 459.3 379.3 459.1 379.8C458.9 380.3 458.8 380.9 458.8 381.5L460.2 381.3C460.2 380.9 460.2 380.5 460.4 380.2C460.6 379.9 460.8 379.7 461 379.5C461.3 379.3 461.6 379.2 461.9 379.2C462.3 379.2 462.6 379.2 462.9 379.3C463.2 379.4 463.5 379.6 463.7 379.8C463.9 380 464 380.3 464.1 380.7C464.1 381 464.1 381.3 464.1 381.5C464 381.8 463.9 382 463.8 382.2C463.6 382.4 463.5 382.6 463.3 382.8C463 383.1 462.7 383.4 462.5 383.7C462.3 384 462.1 384.4 462 384.8C461.9 385.2 461.9 385.8 462 386.5V386.6L463.3 386.4V386.3C463.2 385.8 463.2 385.4 463.3 385.1C463.3 384.8 463.5 384.5 463.6 384.2C463.8 383.9 464 383.7 464.3 383.4C464.6 383.2 464.8 382.9 465 382.6C465.2 382.3 465.3 382 465.4 381.6C465.5 381.3 465.5 380.9 465.4 380.5C465.3 379.9 465.1 379.4 464.8 379C464.5 378.6 464 378.3 463.5 378.1C463 377.9 462.4 377.9 461.7 377.9C461.1 378.1 460.6 378.3 460.1 378.6Z" fill="white"/>
<path d="M479.5 410.3C479.7 410 480 409.9 480.3 409.8C480.6 409.7 480.9 409.7 481.2 409.7C481.6 409.7 481.9 409.8 482.1 410C482.4 410.2 482.6 410.4 482.7 410.7C482.8 411 482.9 411.3 482.9 411.7C482.9 412 482.8 412.3 482.7 412.5C482.6 412.7 482.4 412.9 482.2 413.1C482 413.3 481.8 413.4 481.6 413.5C481.2 413.7 480.9 413.9 480.6 414.1C480.3 414.3 480.1 414.7 479.9 415.1C479.7 415.5 479.6 416.1 479.5 416.8V416.9L480.8 417V416.9C480.9 416.4 480.9 416.1 481.1 415.7C481.2 415.4 481.4 415.1 481.6 414.9C481.8 414.7 482.1 414.5 482.5 414.3C482.8 414.1 483.2 413.9 483.4 413.7C483.7 413.5 483.9 413.2 484 412.9C484.2 412.6 484.3 412.2 484.3 411.8C484.4 411.2 484.3 410.7 484 410.2C483.8 409.7 483.4 409.3 483 409C482.5 408.7 482 408.5 481.3 408.4C480.7 408.3 480.1 408.4 479.6 408.6C479.1 408.8 478.7 409.1 478.3 409.5C478 409.9 477.7 410.5 477.7 411.1L479.1 411.2C479.1 411 479.2 410.6 479.5 410.3Z" fill="white"/>
<path d="M479.8 420.3C480 420.3 480.2 420.3 480.3 420.2C480.5 420.1 480.6 420 480.7 419.9C480.8 419.8 480.9 419.6 480.9 419.4C480.9 419.1 480.8 418.9 480.7 418.7C480.5 418.5 480.3 418.4 480 418.3C479.7 418.3 479.5 418.4 479.3 418.5C479.1 418.6 479 418.9 478.9 419.2C478.9 419.5 479 419.7 479.1 419.9C479.3 420.1 479.6 420.2 479.8 420.3Z" fill="white"/>
<path d="M468.3 265.2L464.2 265.6V269.6L468.3 270.1V265.2Z" fill="#263355"/>
<path d="M464.2 296.6C464.2 297.6 465 298.3 465.9 298.3H466.5C467.5 298.3 468.2 297.5 468.2 296.6V282.5L464.1 282L464.2 296.6Z" fill="#263355"/>
<path d="M468.3 251.4L464.2 251V253.2L468.3 252.8V251.4Z" fill="#263355"/>
<path d="M468.3 236.4C468.3 235.4 467.5 234.7 466.6 234.7H466C465 234.7 464.3 235.5 464.3 236.4V238.6L468.4 239.1L468.3 236.4Z" fill="#263355"/>
<path d="M489.4 241.9L489.5 241.4L468.3 239L464.2 238.6L455.6 237.6L454.3 249.3L455 249.4L456.3 238.2L489.4 241.9Z" fill="#C4C5D7"/>
<path d="M489.4 241.9L490 242L489.5 241.4L489.4 241.9Z" fill="#C4C5D7"/>
<path d="M474.5 252.1L478.5 251.7L478.6 252.6L488.8 253.7L490.1 242V241.9H490L489.4 241.8L456.2 238.1L455 249.3L454.9 249.8L464.1 250.8L468.2 251.3L474.5 252.1ZM473 249.5C473 249.3 473.1 249.1 473.3 249C473.5 248.9 473.6 248.8 473.8 248.8C474 248.8 474.2 248.9 474.3 249.1C474.4 249.3 474.5 249.4 474.5 249.6C474.5 249.7 474.4 249.8 474.4 250C474.3 250.1 474.2 250.2 474.1 250.2C474 250.3 473.9 250.3 473.7 250.3C473.5 250.3 473.3 250.2 473.2 250C473 249.9 472.9 249.7 473 249.5ZM472.6 242.7C472.9 242.4 473.2 242.2 473.5 242C473.9 241.9 474.3 241.8 474.7 241.9C475.2 241.9 475.6 242.1 475.9 242.3C476.2 242.5 476.5 242.8 476.6 243.2C476.8 243.5 476.8 243.9 476.8 244.4C476.8 244.7 476.7 245 476.6 245.2C476.5 245.4 476.3 245.6 476.1 245.8C475.9 246 475.7 246.1 475.4 246.2C475.1 246.3 474.9 246.5 474.8 246.6C474.6 246.7 474.5 246.9 474.4 247.1C474.3 247.3 474.2 247.6 474.2 247.9L473.2 247.8C473.3 247.3 473.4 246.9 473.5 246.6C473.6 246.3 473.8 246.1 474 245.9C474.2 245.7 474.5 245.6 474.7 245.5C474.9 245.4 475 245.3 475.2 245.2C475.3 245.1 475.5 244.9 475.5 244.8C475.6 244.6 475.7 244.4 475.7 244.2C475.7 243.9 475.7 243.7 475.6 243.5C475.5 243.3 475.3 243.1 475.2 243C475 242.9 474.8 242.8 474.5 242.8C474.3 242.8 474.1 242.8 473.8 242.9C473.6 243 473.4 243.1 473.2 243.3C473 243.5 472.9 243.7 472.9 244L471.9 243.9C472.2 243.4 472.3 243 472.6 242.7Z" fill="#5F6B8A"/>
<path d="M488.8 253.7L496.8 248.7L490.1 242L488.8 253.7Z" fill="#5F6B8A"/>
<path d="M456.3 269.3L489.4 273L489.5 272.5V272.4L484 271.8L468.3 270.1L464.2 269.6L455.6 268.7L454.3 280.4L455 280.5L456.3 269.3Z" fill="#C4C5D7"/>
<path d="M489.4 273H490L489.5 272.5L489.4 273Z" fill="#C4C5D7"/>
<path d="M488.8 284.7L490.1 273V272.9H490L489.4 272.8L456.2 269.1L455 280.3V281L464.2 282L468.3 282.5L479 283.7L479.7 283.8L488.8 284.7ZM470.8 273.3C471.1 273 471.4 272.8 471.7 272.6C472.1 272.5 472.5 272.4 472.9 272.5C473.4 272.5 473.8 272.7 474.1 272.9C474.4 273.1 474.7 273.4 474.8 273.8C475 274.1 475 274.5 475 275C475 275.3 474.9 275.6 474.8 275.8C474.7 276 474.5 276.2 474.3 276.4C474.1 276.6 473.9 276.7 473.6 276.8C473.3 276.9 473.1 277.1 473 277.2C472.8 277.3 472.7 277.5 472.6 277.7C472.5 277.9 472.4 278.2 472.4 278.5L471.4 278.4C471.5 277.9 471.6 277.5 471.7 277.2C471.8 276.9 472 276.7 472.2 276.5C472.4 276.3 472.7 276.2 472.9 276.1C473.1 276 473.2 275.9 473.4 275.8C473.5 275.7 473.7 275.5 473.7 275.4C473.8 275.2 473.9 275 473.9 274.8C473.9 274.5 473.9 274.3 473.8 274.1C473.7 273.9 473.5 273.7 473.4 273.6C473.2 273.5 473 273.4 472.7 273.4C472.5 273.4 472.3 273.4 472 273.5C471.8 273.6 471.6 273.7 471.4 273.9C471.2 274.1 471.1 274.3 471.1 274.6L470.1 274.5C470.4 274 470.5 273.6 470.8 273.3ZM471.2 280.2C471.2 280 471.3 279.8 471.5 279.7C471.7 279.6 471.8 279.5 472 279.5C472.2 279.5 472.4 279.6 472.5 279.8C472.6 280 472.7 280.1 472.7 280.3C472.7 280.4 472.6 280.5 472.6 280.7C472.5 280.8 472.4 280.9 472.3 280.9C472.2 281 472.1 281 471.9 281C471.7 281 471.5 280.9 471.4 280.7C471.2 280.5 471.2 280.4 471.2 280.2Z" fill="#5F6B8A"/>
<path d="M488.8 284.7V284.8L496.8 279.8L490.1 273.1L488.8 284.7Z" fill="#5F6B8A"/>
<path d="M444.7 255.9L477.9 252.3L479.1 263.4L479.8 263.3L478.6 252.6L478.5 251.7L474.5 252.1L468.3 252.8L464.2 253.2L444.6 255.4L444.7 255.5V255.9Z" fill="#C4C5D7"/>
<path d="M444.7 255.9V255.5L444.1 256L444.7 255.9Z" fill="#C4C5D7"/>
<path d="M479.2 264L479.1 263.5L477.9 252.3L444.7 256L444.1 256.1H444V256.2L445.3 267.9L464.1 265.8L468.2 265.3L479.2 264ZM458 257C458.1 256.6 458.3 256.3 458.6 256.1C458.9 255.8 459.3 255.7 459.7 255.5C460.2 255.4 460.6 255.4 461 255.5C461.4 255.6 461.7 255.8 462 256C462.3 256.3 462.5 256.6 462.6 257C462.7 257.3 462.7 257.6 462.7 257.8C462.7 258.1 462.6 258.3 462.5 258.5C462.4 258.7 462.2 258.9 462 259.1C461.8 259.3 461.7 259.5 461.6 259.7C461.5 259.9 461.5 260.1 461.4 260.3C461.4 260.5 461.4 260.8 461.5 261.1L460.6 261.3C460.5 260.8 460.4 260.4 460.4 260.1C460.4 259.8 460.5 259.5 460.6 259.3C460.7 259.1 460.9 258.8 461.1 258.6C461.2 258.5 461.3 258.3 461.4 258.2C461.5 258 461.5 257.9 461.6 257.7C461.6 257.5 461.6 257.3 461.6 257.1C461.5 256.8 461.4 256.6 461.2 256.5C461 256.3 460.8 256.2 460.6 256.2C460.4 256.2 460.1 256.2 459.9 256.2C459.7 256.3 459.5 256.4 459.3 256.5C459.1 256.6 459 256.8 458.9 257.1C458.8 257.3 458.8 257.6 458.9 257.9L457.9 258.2C457.9 257.8 457.9 257.3 458 257ZM460.9 262.7C461 262.5 461.1 262.4 461.3 262.4C461.5 262.3 461.7 262.4 461.9 262.5C462.1 262.6 462.2 262.7 462.2 262.9C462.2 263 462.2 263.2 462.2 263.3C462.2 263.4 462.1 263.5 462 263.6C461.9 263.7 461.8 263.8 461.7 263.8C461.5 263.9 461.3 263.8 461.1 263.7C460.9 263.6 460.8 263.5 460.8 263.3C460.8 263 460.8 262.8 460.9 262.7Z" fill="#5F6B8A"/>
<path d="M444 256.1L437.3 262.7L445.3 267.8V267.7L444 256.1Z" fill="#5F6B8A"/>
<path d="M474 250.2C474.1 250.1 474.2 250.1 474.3 250C474.4 249.9 474.4 249.8 474.4 249.6C474.4 249.4 474.4 249.2 474.2 249.1C474.1 248.9 473.9 248.9 473.7 248.8C473.5 248.8 473.3 248.8 473.2 249C473 249.1 473 249.3 472.9 249.5C472.9 249.7 472.9 249.9 473.1 250C473.2 250.2 473.4 250.2 473.6 250.3C473.7 250.3 473.9 250.3 474 250.2Z" fill="white"/>
<path d="M473.4 243.2C473.6 243 473.7 242.9 474 242.8C474.2 242.7 474.4 242.7 474.7 242.7C475 242.7 475.2 242.8 475.4 242.9C475.6 243 475.7 243.2 475.8 243.4C475.9 243.6 475.9 243.8 475.9 244.1C475.9 244.3 475.8 244.5 475.7 244.7C475.6 244.9 475.5 245 475.4 245.1C475.3 245.2 475.1 245.3 474.9 245.4C474.6 245.5 474.4 245.7 474.2 245.8C474 246 473.8 246.2 473.7 246.5C473.6 246.8 473.5 247.2 473.4 247.7L474.4 247.8C474.4 247.5 474.5 247.2 474.6 247C474.7 246.8 474.8 246.6 475 246.5C475.2 246.4 475.4 246.2 475.6 246.1C475.9 246 476.1 245.8 476.3 245.7C476.5 245.5 476.6 245.3 476.8 245.1C476.9 244.9 477 244.6 477 244.3C477 243.9 477 243.5 476.8 243.1C476.6 242.8 476.4 242.5 476.1 242.2C475.8 242 475.4 241.8 474.9 241.8C474.5 241.8 474.1 241.8 473.7 241.9C473.3 242 473 242.3 472.8 242.6C472.6 242.9 472.4 243.3 472.3 243.7L473.3 243.8C473.2 243.6 473.3 243.4 473.4 243.2Z" fill="white"/>
<path d="M472.2 280.9C472.3 280.8 472.4 280.8 472.5 280.7C472.6 280.6 472.6 280.5 472.6 280.3C472.6 280.1 472.6 279.9 472.4 279.8C472.3 279.6 472.1 279.6 471.9 279.5C471.7 279.5 471.5 279.5 471.4 279.7C471.2 279.8 471.2 280 471.1 280.2C471.1 280.4 471.1 280.6 471.3 280.7C471.4 280.9 471.6 280.9 471.8 281C472 281 472.1 281 472.2 280.9Z" fill="white"/>
<path d="M471.6 273.8C471.8 273.6 471.9 273.5 472.2 273.4C472.4 273.3 472.6 273.3 472.9 273.3C473.2 273.3 473.4 273.4 473.6 273.5C473.8 273.6 473.9 273.8 474 274C474.1 274.2 474.1 274.4 474.1 274.7C474.1 274.9 474 275.1 473.9 275.3C473.8 275.5 473.7 275.6 473.6 275.7C473.5 275.8 473.3 275.9 473.1 276C472.8 276.1 472.6 276.3 472.4 276.4C472.2 276.6 472 276.8 471.9 277.1C471.8 277.4 471.7 277.8 471.6 278.3L472.6 278.4C472.6 278.1 472.7 277.8 472.8 277.6C472.9 277.4 473 277.2 473.2 277.1C473.4 277 473.6 276.8 473.8 276.7C474.1 276.6 474.3 276.4 474.5 276.3C474.7 276.1 474.8 275.9 475 275.7C475.1 275.5 475.2 275.2 475.2 274.9C475.2 274.5 475.2 274.1 475 273.7C474.8 273.4 474.6 273.1 474.3 272.8C474 272.6 473.6 272.4 473.1 272.4C472.7 272.4 472.3 272.4 471.9 272.5C471.5 272.6 471.2 272.9 471 273.2C470.8 273.5 470.6 273.9 470.5 274.3L471.5 274.4C471.4 274.3 471.5 274 471.6 273.8Z" fill="white"/>
<path d="M459 257.9C458.9 257.6 459 257.3 459 257.1C459.1 256.9 459.2 256.7 459.4 256.5C459.6 256.4 459.8 256.3 460 256.2C460.2 256.1 460.5 256.1 460.7 256.2C460.9 256.2 461.1 256.4 461.3 256.5C461.5 256.7 461.6 256.9 461.7 257.1C461.8 257.3 461.8 257.5 461.7 257.7C461.7 257.9 461.6 258.1 461.5 258.2C461.4 258.4 461.3 258.5 461.2 258.6C461 258.8 460.8 259.1 460.7 259.3C460.6 259.5 460.5 259.8 460.5 260.1C460.5 260.4 460.5 260.8 460.7 261.3L461.6 261.1C461.5 260.8 461.5 260.5 461.5 260.3C461.5 260.1 461.6 259.9 461.7 259.7C461.8 259.5 461.9 259.3 462.1 259.1C462.3 258.9 462.4 258.7 462.6 258.5C462.7 258.3 462.8 258 462.8 257.8C462.8 257.5 462.8 257.3 462.7 257C462.6 256.6 462.4 256.3 462.1 256C461.8 255.7 461.5 255.6 461.1 255.5C460.7 255.4 460.3 255.4 459.8 255.5C459.4 255.6 459 255.8 458.7 256.1C458.4 256.4 458.2 256.7 458.1 257C458 257.4 458 257.8 458.1 258.2L459 257.9Z" fill="white"/>
<path d="M461.2 263.6C461.4 263.7 461.6 263.7 461.8 263.7C461.9 263.7 462 263.6 462.1 263.5C462.2 263.4 462.3 263.3 462.3 263.2C462.3 263.1 462.3 262.9 462.3 262.8C462.2 262.6 462.1 262.5 462 262.4C461.8 262.3 461.6 262.3 461.4 262.3C461.2 262.4 461.1 262.5 461 262.6C460.9 262.8 460.9 263 460.9 263.2C460.9 263.4 461 263.5 461.2 263.6Z" fill="white"/>
<rect x="720" y="504" width="262" height="98" fill="#ECEDF5"/>
<path d="M773.498 533.796L776.72 531.312L795.114 541.784L790.281 545.41L773.498 533.796Z" fill="#DADBE6"/>
<path d="M818.274 526.01L822.235 523.19L839.286 531.313L833.379 535.408L818.274 526.01Z" fill="#DADBE6"/>
<path d="M814.045 523.526L826.263 515L826.397 515.067C829.015 516.678 828.948 519.498 826.33 521.31L825.793 523.928L819.952 525.808L818.878 526.547L814.045 523.526Z" fill="#DADBE6"/>
<path d="M769 531.916L779.07 524.331L779.204 524.465C782.091 526.479 782.695 529.365 780.479 530.977V533.662L775.176 534.937L774.303 535.609L769 531.916Z" fill="#DADBE6"/>
<path d="M911.655 578.976C906.62 573.27 901.921 568.907 898.296 565.819C893.664 561.791 889.233 558.501 881.11 552.325C877.619 549.707 874.733 547.559 872.652 546.082C858.688 539.1 844.725 532.119 830.762 525.137C827.607 527.084 824.452 529.031 821.296 530.978C832.306 537.624 843.382 544.27 854.459 550.915L871.376 569.846L847.947 555.749C826.868 549.036 805.856 542.323 784.777 535.61L779.004 538.295C786.12 543.531 794.981 549.237 805.521 554.541C816.597 560.112 826.935 563.872 835.73 566.49L849.559 578.842C854.191 582.803 858.487 585.958 862.045 588.307C868.959 592.939 873.054 594.752 877.351 596.027C878.693 596.43 879.902 596.699 880.707 596.9L895.073 593.812L911.655 578.976Z" fill="#DADBE6"/>
<path d="M937.968 620.865L944.614 616.233C940.854 614.488 940.25 613.213 940.519 612.273C940.988 610.594 944.412 610.125 947.5 607.372C949.111 605.962 949.917 604.553 950.387 603.546C950.454 603.479 950.521 603.344 950.521 603.076C950.454 602.941 950.387 602.807 950.185 602.673C939.713 598.377 927.696 592.133 916.888 583.205C914.069 580.855 911.585 578.573 909.37 576.291L878.288 596.564C883.659 598.914 889.768 602.002 895.876 606.097C905.543 612.608 911.652 619.321 915.479 624.491C917.09 624.692 919.708 624.826 922.393 623.954C926.757 622.611 927.562 619.791 931.12 619.254C932.396 619.12 934.678 619.12 937.968 620.865Z" fill="#DADBE6"/>
<path d="M933.538 596.698C936.559 596.228 941.124 595.624 946.763 594.751C953.207 593.812 954.214 593.61 955.758 593.476C959.988 593.073 966.231 592.939 974.152 594.751C974.555 597.437 974.757 600.592 974.421 604.15C973.75 610.594 971.534 616.099 969.386 620.127L960.659 618.449C961.33 612.944 962.002 607.372 962.673 601.867C960.256 601.867 956.765 602.069 953.275 603.411C947.501 605.56 945.957 609.118 943.473 608.849C941.459 608.648 941.594 606.164 939.043 602.404C937.23 599.719 935.015 597.839 933.538 596.698Z" fill="#DADBE6"/>
<path d="M818.075 515.4L818.275 515.1L824.875 515H824.975L824.175 513.2L822.375 509H814.375L818.075 515.4Z" fill="#A0616A"/>
<path d="M782.1 521.9V514.7C779.8 514.5 777.5 514.4 775.1 514.2L775.8 519.8L780.7 521.8H782.1V521.9Z" fill="#A0616A"/>
<path d="M782.3 529.1V521.8H782.1H780.7L775.8 519.8L774.5 519.3L771.2 521.8C767.3 521.8 764.2 525 764.2 528.8V529H769.2H779.5L782.3 529.1Z" fill="#171944"/>
<path d="M824.975 515L818.275 515.1L818.175 515.3L816.275 518.7C815.375 519.1 814.575 519.7 813.875 520.4C813.475 520.8 813.075 521.3 812.875 521.8C811.875 523.6 811.675 525.8 812.575 527.9L812.675 528.1L818.975 525.4L824.675 523L829.275 521L826.875 515.3L826.475 514.3L824.975 515Z" fill="#171944"/>
<path d="M818.9 395.4L775 393.9C772.9 402.2 771.6 409.2 770.8 414.5C769.5 422.7 768.9 430 767.7 443.4C767.2 449.1 766.8 453.9 766.6 457.1C768.5 476.1 770.4 495 772.4 514C773.3 514.1 774.2 514.1 775.1 514.2C777.4 514.4 779.7 514.5 782.1 514.7C783.2 514.8 784.4 514.9 785.5 514.9L784.8 466C787.9 454.4 791.1 442.7 794.2 431.1L794.8 465.6C800.6 480.3 806.3 494.9 812.1 509.6H815.3H823.3H824.2C823.9 506.6 823.5 503.6 823 500.5C821.1 487.2 818.4 474.6 815.4 463L819.6 438C820.8 429.9 821.3 422.9 821.5 417.4C821.8 408.4 821.3 403.3 820.1 399C819.9 398.2 819.7 397.4 819.4 396.6C819.2 396.3 819.1 395.8 818.9 395.4Z" fill="#171944"/>
<path d="M786 296.6C787.3 294.5 788.9 293 790.3 292.1C788.7 292.1 787.1 292.8 786.2 294.3L782.4 297.1C783.1 298.5 783.7 299.9 784.4 301.2C785.3 298.5 785.1 298.2 786 296.6Z" fill="#A0616A"/>
<path d="M815.2 297.8L814.7 297.4L813.3 296.4C813.9 297.3 814 298.1 814.4 299.5C814.6 299 814.9 298.4 815.2 297.8Z" fill="#A0616A"/>
<path d="M818.9 395.4H819.3C818.2 388.5 817.4 380.1 817.8 370.6C818.1 362.4 819.2 355 820.6 348.5C819.3 349.4 818.2 350.3 817.2 351C817.2 350.8 817.1 350.5 817.1 350.3C815.3 354.6 812.4 357.8 811 357.6C809.2 357.3 809.5 351.7 807.6 351.4C805.2 351.1 803.1 360.5 800.1 360.3C797.8 360.2 797.5 354.6 794.6 354.1C791.4 353.6 788.5 360.2 787.1 359.6C785.3 358.8 788.9 348.1 787.1 347.3C786.1 346.9 784.4 349.7 783.7 349.4C782.3 348.7 785.9 338.8 786.9 333.8C786 335.5 784.7 337.7 783.5 340.8C781.8 345.3 781.2 349.2 780.9 351.6C780.2 351.1 779.4 350.5 778.5 349.8C778.5 350.2 778.6 350.6 778.6 351C778.9 356.2 779 361.7 778.7 367.4C778.6 368.4 778.6 369.5 778.5 370.6C778.3 373.7 778 376.8 777.5 380.1C777.2 382.1 776.9 384.1 776.6 386C776.1 388.7 775.6 391.3 775 393.9H775.1L818.9 395.4Z" fill="#0B0D25"/>
<path d="M814.4 299.6C814.6 300.5 815 301.7 815.6 303.3C817.4 308 818.6 309.2 819.2 311.4C823.4 315 827.6 318.6 831.8 322.3C830.1 324.2 827.4 326.7 823.5 328C822.5 328.3 821.5 328.5 820.6 328.7C821 330.2 821.2 331.4 820.4 332.1C819.7 332.7 819.2 332.3 818.5 333.1C816.8 334.8 818.1 338.6 818.5 340.7C819.2 344.1 818.5 347.6 817.2 350.5C817.2 350.7 817.3 351 817.3 351.2C818.2 350.5 819.4 349.7 820.7 348.7C822.9 347.1 825.6 345.1 828.7 342.9L828.9 342.8C834.3 338.9 835.2 338.3 836.5 337.3C836.8 337.1 837 336.8 837.3 336.6C840.6 333.7 844.6 329 847.8 321.3C845.1 317.9 841.7 314.2 837.5 310.5L837.3 310.3C835.4 308.6 833.4 307 831.5 305.6C825.9 301.5 820.6 298.5 816.1 296.4C815.8 296.9 815.6 297.5 815.3 298C814.9 298.4 814.6 299 814.4 299.6Z" fill="#0B0D25"/>
<path d="M780.9 351.6C781.2 349.1 781.8 345.2 783.5 340.8C784.7 337.7 786 335.5 786.9 333.8C787.2 332.3 787.3 331.2 787 331C786.4 330.7 785.4 333.1 784.1 332.9C783.3 332.8 782.9 331.5 782.6 329.2C781.7 329.3 780.8 329.3 779.8 329.3C778.3 329.3 776.6 329.1 774.8 328.5L774.6 328.4C770.8 327.1 768.2 324.7 766.5 322.8C770.7 319.2 774.8 315.6 779 312C779.5 311.6 780 311.1 780.5 310.7C781.1 308.4 782.4 307.2 784.1 302.4C784.2 302 784.4 301.7 784.5 301.3C783.8 299.9 783.2 298.5 782.5 297.2C782.4 297.1 782.4 296.9 782.3 296.8C776.9 299.4 770.2 303.2 763.4 308.8C762.6 309.5 761.7 310.2 760.9 310.9C760.5 311.3 760.1 311.6 759.7 312C756.1 315.4 753 318.7 750.5 321.8C751.6 324.3 752.7 326.5 753.9 328.4C754.6 329.6 755.3 330.6 756 331.6C758 334.3 760 336.3 761.8 337.8C763.1 338.9 764 339.5 769.5 343.5C771.8 345.2 773.9 346.7 775.8 348C776.8 348.7 777.6 349.3 778.4 349.9C779.4 350.5 780.2 351.1 780.9 351.6Z" fill="#0B0D25"/>
<path d="M786 296.6C785.1 298.2 785.3 298.5 784.4 301.3C784.3 301.6 784.2 302 784 302.4C782.3 307.2 781.1 308.4 780.4 310.7C780.3 311.1 780.2 311.5 780.1 312C779.9 313.6 780.2 313.9 781 319.5C781.6 323.4 781.9 326.4 782.3 328.6C782.3 328.8 782.4 329 782.4 329.2C782.8 331.6 783.2 332.8 783.9 332.9C785.1 333.1 786.2 330.7 786.8 331C787.2 331.2 787.1 332.2 786.7 333.8C785.6 338.8 782.1 348.8 783.5 349.4C784.3 349.8 785.9 346.9 786.9 347.3C788.7 348.1 785.1 358.9 786.9 359.6C788.3 360.2 791.2 353.6 794.4 354.1C797.2 354.5 797.6 360.1 799.9 360.3C802.9 360.5 805 351.1 807.4 351.4C809.3 351.6 809 357.3 810.8 357.6C812.2 357.8 815.2 354.7 816.9 350.3C818.1 347.3 818.8 343.8 818.2 340.5C817.8 338.3 816.5 334.6 818.2 332.9C818.9 332.2 819.5 332.6 820.1 331.9C820.9 331.2 820.7 330 820.3 328.5C819.7 326.3 818.4 323.3 818.4 319.4C818.4 315.7 819.5 315.9 819.2 312.8C819.1 312.2 819.1 311.8 818.9 311.3C818.3 309.1 817.1 307.9 815.3 303.2C814.7 301.5 814.3 300.4 814.1 299.5C813.7 298.1 813.6 297.3 813 296.4C812.9 296.1 812.7 295.9 812.5 295.6C810.2 292.5 806.9 291.2 805.8 290.8C803.2 289.8 801.1 289.8 799.1 289.8C796.8 289.8 794.8 289.8 792.4 290.8C792.1 290.9 791.2 291.3 790 292.1C788.9 293 787.2 294.5 786 296.6Z" fill="#261205"/>
</g>
<defs>
<clipPath id="clip0_747_17962">
<rect width="1071" height="602" fill="white"/>
</clipPath>
</defs>
</svg>
