<svg width="324" height="320" viewBox="0 0 324 320" fill="none" xmlns="http://www.w3.org/2000/svg">
<path fill-rule="evenodd" clip-rule="evenodd" d="M161.673 0.048268C208.379 1.41368 244.24 35.9941 273.581 72.3596C303.203 109.074 330.148 151.706 321.445 198.071C312.408 246.216 274.496 282.986 230.143 303.784C186.399 324.296 136.181 325.883 92.3852 305.481C47.8698 284.743 13.0213 245.899 2.78374 197.869C-7.28919 150.612 10.9896 103.24 41.2475 65.5676C71.3553 28.0828 113.614 -1.35667 161.673 0.048268Z" fill="#DAE8FE"/>
<path opacity="0.1" d="M234.676 92.8073V190.621C234.677 193.804 234.051 196.956 232.833 199.897C231.616 202.838 229.831 205.51 227.58 207.76C225.329 210.011 222.657 211.796 219.716 213.014C216.775 214.232 213.623 214.858 210.44 214.857H112.627C107.15 214.864 101.834 213.01 97.5496 209.599C95.7764 208.187 94.2081 206.535 92.8896 204.691C89.9626 200.583 88.3899 195.665 88.3906 190.621V92.8073C88.3906 92.1587 88.4159 91.517 88.4665 90.8822C88.563 89.6423 88.756 88.4119 89.0439 87.202C90.3063 81.8967 93.3207 77.172 97.5999 73.7914C101.879 70.4107 107.173 68.5716 112.627 68.5713H210.44C215.894 68.5716 221.188 70.4107 225.467 73.7914C229.746 77.172 232.761 81.8967 234.023 87.202C234.311 88.4119 234.504 89.6423 234.6 90.8822C234.651 91.517 234.676 92.1587 234.676 92.8073Z" fill="#1877F2"/>
<path opacity="0.1" d="M163.374 145.624H234.676V149.304H163.374V174.835H234.676V178.516H163.374V214.857H159.693V178.516H88.3906V174.835H159.693V149.304H88.3906V145.624H159.693V120.093H88.3906V116.413H159.693V90.8822H88.4665C88.563 89.6423 88.756 88.4119 89.0438 87.202H159.693V68.5713H163.374V87.202H234.023C234.311 88.4119 234.504 89.6423 234.6 90.8822H163.374V116.413H234.676V120.093H163.374V145.624Z" fill="#1877F2"/>
<path opacity="0.5" d="M161.535 251.428C226.447 251.428 279.069 243.173 279.069 232.989C279.069 222.805 226.447 214.549 161.535 214.549C96.622 214.549 44 222.805 44 232.989C44 243.173 96.622 251.428 161.535 251.428Z" fill="#1877F2"/>
<path d="M251.628 226.359C254.842 226.359 257.447 225.858 257.447 225.239C257.447 224.621 254.842 224.119 251.628 224.119C248.414 224.119 245.809 224.621 245.809 225.239C245.809 225.858 248.414 226.359 251.628 226.359Z" fill="#1877F2"/>
<path d="M251.53 225.654C251.905 225.654 252.209 225.256 252.209 224.766C252.209 224.275 251.905 223.878 251.53 223.878C251.155 223.878 250.852 224.275 250.852 224.766C250.852 225.256 251.155 225.654 251.53 225.654Z" fill="#777777"/>
<path d="M251.53 224.568C251.905 224.568 252.209 224.17 252.209 223.68C252.209 223.189 251.905 222.792 251.53 222.792C251.155 222.792 250.852 223.189 250.852 223.68C250.852 224.17 251.155 224.568 251.53 224.568Z" fill="#777777"/>
<path d="M251.53 223.485C251.905 223.485 252.209 223.087 252.209 222.597C252.209 222.106 251.905 221.709 251.53 221.709C251.155 221.709 250.852 222.106 250.852 222.597C250.852 223.087 251.155 223.485 251.53 223.485Z" fill="#777777"/>
<path d="M251.53 222.402C251.905 222.402 252.209 222.004 252.209 221.514C252.209 221.023 251.905 220.626 251.53 220.626C251.155 220.626 250.852 221.023 250.852 221.514C250.852 222.004 251.155 222.402 251.53 222.402Z" fill="#777777"/>
<path d="M251.53 221.316C251.905 221.316 252.209 220.918 252.209 220.428C252.209 219.938 251.905 219.54 251.53 219.54C251.155 219.54 250.852 219.938 250.852 220.428C250.852 220.918 251.155 221.316 251.53 221.316Z" fill="#777777"/>
<path d="M251.53 220.233C251.905 220.233 252.209 219.835 252.209 219.345C252.209 218.855 251.905 218.457 251.53 218.457C251.155 218.457 250.852 218.855 250.852 219.345C250.852 219.835 251.155 220.233 251.53 220.233Z" fill="#777777"/>
<path d="M251.53 219.149C251.905 219.149 252.209 218.751 252.209 218.261C252.209 217.771 251.905 217.373 251.53 217.373C251.155 217.373 250.852 217.771 250.852 218.261C250.852 218.751 251.155 219.149 251.53 219.149Z" fill="#777777"/>
<path d="M254.066 210.843C254.159 210.725 254.243 210.6 254.319 210.47L252.538 210.178L254.463 210.192C254.648 209.79 254.748 209.355 254.759 208.913C254.77 208.471 254.69 208.031 254.526 207.621L251.943 208.961L254.325 207.209C254.103 206.821 253.803 206.483 253.444 206.217C253.085 205.95 252.675 205.76 252.24 205.66C251.804 205.559 251.352 205.549 250.913 205.631C250.473 205.713 250.056 205.885 249.686 206.136C249.316 206.386 249.001 206.711 248.762 207.089C248.524 207.467 248.365 207.89 248.298 208.332C248.23 208.774 248.254 209.225 248.369 209.657C248.483 210.089 248.686 210.493 248.964 210.843C248.82 211.026 248.696 211.225 248.594 211.434L250.894 212.635L248.43 211.807C248.257 212.318 248.213 212.865 248.304 213.397C248.396 213.929 248.618 214.43 248.952 214.854C248.576 215.333 248.342 215.908 248.276 216.514C248.211 217.119 248.318 217.731 248.584 218.279C248.85 218.827 249.265 219.289 249.781 219.612C250.297 219.935 250.894 220.106 251.503 220.106C252.112 220.106 252.709 219.935 253.225 219.612C253.742 219.289 254.156 218.827 254.423 218.279C254.689 217.731 254.795 217.119 254.73 216.514C254.665 215.908 254.431 215.333 254.054 214.854C254.504 214.283 254.749 213.576 254.749 212.849C254.749 212.121 254.504 211.415 254.054 210.843H254.066Z" fill="#1877F2"/>
<path opacity="0.1" d="M248.27 212.849C248.268 213.577 248.511 214.283 248.96 214.855C248.584 215.334 248.349 215.909 248.284 216.514C248.219 217.12 248.326 217.732 248.592 218.279C248.858 218.827 249.273 219.289 249.789 219.612C250.305 219.936 250.902 220.107 251.511 220.107C252.12 220.107 252.717 219.936 253.233 219.612C253.749 219.289 254.164 218.827 254.43 218.279C254.696 217.732 254.803 217.12 254.738 216.514C254.673 215.909 254.438 215.334 254.062 214.855C254.501 214.303 248.27 212.486 248.27 212.849Z" fill="#555555"/>
<path d="M230.192 196.687H91.4961V228.543H230.192V196.687Z" fill="#888888"/>
<path d="M92.4152 163.68L79.3047 173.57L89.4251 182.77L95.1753 173.57L102.996 163.68H92.4152Z" fill="#888888"/>
<path d="M227.891 175.64L226.051 173.57L214.32 166.9L225.131 166.67L241.921 173.57L235.021 177.94L227.891 175.64Z" fill="#888888"/>
<path d="M91.4977 176.1L102.998 163.68V192.201L95.1778 198.641L90.3477 191.971L91.4977 176.1Z" fill="#888888"/>
<path d="M228.121 181.161L226.051 173.571L222.141 168.51L214.32 166.9V198.642H230.191L228.121 181.161Z" fill="#888888"/>
<path d="M105.538 155.17H212.929C213.877 155.17 214.787 155.547 215.458 156.217C216.129 156.888 216.505 157.798 216.505 158.747V191.511H101.961V158.747C101.961 157.798 102.338 156.888 103.009 156.217C103.679 155.547 104.589 155.17 105.538 155.17Z" fill="#888888"/>
<path d="M95.1758 198.642L102.996 188.981H214.32L226.051 198.642H95.1758Z" fill="#888888"/>
<path opacity="0.05" d="M95.1758 198.642L102.996 188.981H214.32L226.051 198.642H95.1758Z" fill="#555555"/>
<path d="M95.1753 173.57H79.3047V228.542H95.1753V173.57Z" fill="#888888"/>
<path opacity="0.05" d="M95.1753 173.57H79.3047V228.542H95.1753V173.57Z" fill="white"/>
<path d="M241.921 173.57H226.051V228.542H241.921V173.57Z" fill="#888888"/>
<path opacity="0.05" d="M241.921 173.57H226.051V228.542H241.921V173.57Z" fill="white"/>
<path d="M145.205 163.335C155.368 163.335 163.606 152.47 163.606 139.069C163.606 125.667 155.368 114.803 145.205 114.803C135.043 114.803 126.805 125.667 126.805 139.069C126.805 152.47 135.043 163.335 145.205 163.335Z" fill="#666666"/>
<path d="M153.256 128.604H132.785V157.125H153.256V128.604Z" fill="#666666"/>
<path opacity="0.1" d="M153.256 128.604H132.785V157.125H153.256V128.604Z" fill="#555555"/>
<path d="M134.268 145.33C133.627 146.11 132.8 146.715 131.863 147.091C130.927 147.466 129.91 147.599 128.908 147.478C128.816 148.908 129.787 150.164 130.705 151.266L137.888 159.885C137.916 159.953 137.963 160.012 138.022 160.056C138.082 160.099 138.153 160.126 138.226 160.132C138.3 160.138 138.374 160.124 138.44 160.091C138.506 160.058 138.562 160.007 138.601 159.944L149.572 149.536C148.478 149.996 147.183 149.267 146.582 148.241C145.982 147.216 145.922 145.983 145.867 144.791C145.787 143.013 145.711 141.235 145.637 139.46C145.619 139.064 145.579 138.627 145.287 138.36C145.06 138.189 144.789 138.086 144.505 138.064C142.773 137.767 137.375 136.223 136.375 138.045C135.914 138.875 136.121 140.495 135.914 141.433C135.604 142.825 135.165 144.212 134.268 145.33Z" fill="#FBBEBE"/>
<path opacity="0.1" d="M134.268 145.33C133.627 146.11 132.8 146.715 131.863 147.091C130.927 147.466 129.91 147.599 128.908 147.478C128.816 148.908 129.787 150.164 130.705 151.266L137.888 159.885C137.916 159.953 137.963 160.012 138.022 160.056C138.082 160.099 138.153 160.126 138.226 160.132C138.3 160.138 138.374 160.124 138.44 160.091C138.506 160.058 138.562 160.007 138.601 159.944L149.572 149.536C148.478 149.996 147.183 149.267 146.582 148.241C145.982 147.216 145.922 145.983 145.867 144.791C145.787 143.013 145.711 141.235 145.637 139.46C145.619 139.064 145.579 138.627 145.287 138.36C145.06 138.189 144.789 138.086 144.505 138.064C142.773 137.767 137.375 136.223 136.375 138.045C135.914 138.875 136.121 140.495 135.914 141.433C135.604 142.825 135.165 144.212 134.268 145.33Z" fill="#555555"/>
<path d="M142.213 143.554C148.183 143.554 153.023 138.714 153.023 132.744C153.023 126.774 148.183 121.934 142.213 121.934C136.242 121.934 131.402 126.774 131.402 132.744C131.402 138.714 136.242 143.554 142.213 143.554Z" fill="#FBBEBE"/>
<path d="M138.303 154.512L136.569 149.045C135.879 146.855 134.899 144.373 132.714 143.667C131.334 143.225 129.845 143.63 128.408 143.508C125.611 143.267 122.888 141.043 120.272 142.062C117.052 143.313 117.08 148.258 114.221 150.199C114.221 154.82 115.714 159.112 116.521 163.659C117.328 168.207 117.561 173.115 115.454 177.23C114.561 178.973 113.285 180.491 112.333 182.203C110.771 185.025 110.133 188.264 110.506 191.467C122.715 191.621 134.926 191.658 147.137 191.578C147.025 189.995 146.319 188.436 146.204 186.853C146.135 186.376 146.172 185.889 146.314 185.427C146.583 184.737 147.269 184.326 147.855 183.877C148.641 183.272 149.306 182.524 149.817 181.674C150.631 180.319 151.018 178.757 151.395 177.221L155.968 158.59C156.513 156.37 157.042 153.948 156.094 151.869C155.054 149.585 152.561 148.398 150.259 147.398C148.879 146.793 147.292 146.181 145.889 146.738C144.738 147.198 144.016 148.299 143.289 149.298C141.883 151.264 140.204 153.019 138.303 154.512Z" fill="#F86D70"/>
<path opacity="0.1" d="M114.099 151.839C113.741 153.183 113.941 154.618 113.676 155.979C113.232 158.259 111.569 160.071 110.456 162.105C108.731 165.262 108.294 168.964 109.237 172.437C109.518 173.451 110.017 174.537 111.001 174.909C111.705 175.178 112.492 175.01 113.244 175.077C114.237 175.165 115.27 175.657 116.188 175.266C117.322 174.783 117.547 173.308 117.672 172.082C117.958 169.239 118.57 166.439 119.496 163.735C120.416 161.03 121.678 158.346 121.66 155.487C121.646 153.472 119.065 155.326 117.382 154.132C115.482 152.794 114.723 149.519 114.099 151.839Z" fill="#555555"/>
<path d="M113.639 151.609C113.28 152.953 113.48 154.388 113.215 155.75C112.771 158.029 111.108 159.842 109.995 161.875C108.27 165.032 107.833 168.735 108.776 172.207C109.057 173.221 109.556 174.307 110.54 174.679C111.244 174.949 112.031 174.781 112.783 174.847C113.777 174.935 114.809 175.427 115.727 175.036C116.861 174.553 117.086 173.079 117.211 171.853C117.497 169.01 118.109 166.209 119.035 163.506C119.955 160.801 121.217 158.116 121.199 155.257C121.185 153.243 120.3 151.016 118.616 149.822C116.716 148.484 114.262 149.289 113.639 151.609Z" fill="#F86D70"/>
<path d="M129.378 138.961C130.758 138.188 132.117 137.351 133.539 136.634C135.76 135.523 138.258 134.655 140.006 132.953C140.096 132.868 140.207 132.806 140.327 132.775C140.448 132.744 140.574 132.744 140.695 132.776C140.815 132.807 140.925 132.869 141.015 132.956C141.105 133.042 141.171 133.15 141.207 133.269C141.959 135.718 142.849 138.123 143.873 140.472C144.756 142.496 145.741 144.484 146.403 146.591C146.863 148.056 147.15 149.581 147.723 150.991C148.471 152.831 149.664 154.468 150.849 156.074C151.284 156.667 151.732 157.27 152.342 157.684C153.197 158.266 154.474 158.639 154.564 159.669C153.453 160.472 151.942 160.207 150.573 160.196C149.204 160.184 147.813 160.467 146.46 160.801C144.88 161.161 143.34 161.676 141.86 162.337C140.42 163.016 139.1 163.908 137.766 164.796L125.537 173C124.637 171.972 124.672 170.47 124.478 169.109C124.314 168.129 124.077 167.162 123.77 166.217L122.551 162.112C121.971 160.161 121.401 158.213 120.748 156.283C120.21 154.673 119.611 153.047 118.558 151.718C117.288 150.107 115.462 149.063 113.877 147.768C113.316 147.308 112.762 146.784 112.553 146.089C112.483 145.862 112.463 145.623 112.495 145.388C112.527 145.153 112.609 144.928 112.737 144.728C113.072 144.242 113.553 144.314 114.087 144.228C115.389 144.021 116.68 143.76 117.96 143.444C120.5 142.814 122.983 141.972 125.382 140.928C126.746 140.339 128.077 139.683 129.378 138.961Z" fill="#BBBDC8"/>
<path opacity="0.1" d="M129.88 140.663C131.092 139.991 132.269 139.255 133.509 138.634C135.45 137.663 137.626 136.909 139.151 135.43C139.23 135.354 139.326 135.3 139.431 135.273C139.537 135.245 139.647 135.245 139.753 135.273C139.858 135.3 139.954 135.354 140.033 135.43C140.111 135.505 140.169 135.6 140.2 135.704C140.856 137.841 141.632 139.939 142.526 141.988C143.296 143.754 144.154 145.488 144.727 147.326C145.122 148.603 145.378 149.925 145.877 151.165C146.528 152.775 147.572 154.199 148.602 155.6C148.954 156.137 149.394 156.612 149.904 157.003C150.654 157.511 151.767 157.835 151.843 158.737C150.875 159.427 149.557 159.197 148.363 159.197C147.15 159.221 145.946 159.399 144.777 159.726C143.4 160.04 142.057 160.489 140.768 161.067C139.525 161.693 138.331 162.413 137.196 163.22L126.526 170.366C125.742 169.469 125.774 168.151 125.606 166.969C125.463 166.112 125.257 165.266 124.99 164.439L123.925 160.858C123.419 159.156 122.913 157.456 122.351 155.772C121.891 154.367 121.362 152.95 120.442 151.788C119.334 150.388 117.742 149.474 116.357 148.338C115.87 147.94 115.385 147.48 115.207 146.875C115.147 146.678 115.13 146.469 115.157 146.264C115.185 146.059 115.257 145.863 115.368 145.688C115.661 145.263 116.081 145.325 116.546 145.251C117.682 145.072 118.809 144.842 119.925 144.561C122.141 144.013 124.307 143.279 126.4 142.367C127.588 141.855 128.748 141.287 129.88 140.663Z" fill="#555555"/>
<path d="M125.416 150.027C125.924 150.027 126.336 149.615 126.336 149.107C126.336 148.598 125.924 148.187 125.416 148.187C124.908 148.187 124.496 148.598 124.496 149.107C124.496 149.615 124.908 150.027 125.416 150.027Z" fill="#BBBDC8"/>
<path d="M135.225 145.484C135.733 145.484 136.145 145.072 136.145 144.564C136.145 144.055 135.733 143.644 135.225 143.644C134.717 143.644 134.305 144.055 134.305 144.564C134.305 145.072 134.717 145.484 135.225 145.484Z" fill="#BBBDC8"/>
<path d="M130.057 160.046C130.565 160.046 130.977 159.634 130.977 159.126C130.977 158.618 130.565 158.206 130.057 158.206C129.549 158.206 129.137 158.618 129.137 159.126C129.137 159.634 129.549 160.046 130.057 160.046Z" fill="#BBBDC8"/>
<path d="M139.865 155.503C140.373 155.503 140.785 155.091 140.785 154.583C140.785 154.075 140.373 153.663 139.865 153.663C139.357 153.663 138.945 154.075 138.945 154.583C138.945 155.091 139.357 155.503 139.865 155.503Z" fill="#BBBDC8"/>
<path d="M115.832 164.908C116.752 164.644 117.72 164.354 118.397 163.675C118.921 163.146 119.213 162.436 119.581 161.787C120.315 160.492 121.476 159.344 122.937 159.059C124.397 158.774 126.113 159.618 126.426 161.074C126.629 162.022 126.233 162.985 125.84 163.873C125.251 165.203 124.586 166.596 123.372 167.399C122.309 168.101 120.954 168.255 119.91 168.984C118.99 169.628 118.41 170.647 117.61 171.44C116.564 172.471 115.179 173.088 113.714 173.177C113.491 173.203 113.265 173.172 113.058 173.087C112.855 172.967 112.684 172.799 112.561 172.597C111.885 171.677 111.2 170.73 110.841 169.642C109.592 165.849 113.127 165.683 115.832 164.908Z" fill="#FBBEBE"/>
<path d="M140.333 165.414C140.022 163.561 139.981 161.539 138.835 160.048C137.876 158.804 136.282 158.174 134.714 158.068C134.254 158.036 133.713 158.082 133.446 158.459C133.294 158.725 133.234 159.034 133.274 159.338C133.371 161.693 134.25 163.95 135.772 165.75C136.344 166.422 137.009 167.034 137.409 167.82C137.759 168.499 137.888 169.274 138.212 169.964C138.635 170.863 139.362 171.574 139.919 172.402C140.708 173.588 141.117 174.987 141.092 176.411C141.699 175.42 141.625 174.18 141.683 173.019C141.759 171.383 142.904 170.488 142.161 169.154C141.418 167.82 140.602 167.036 140.333 165.414Z" fill="#FBBEBE"/>
<path opacity="0.1" d="M148.827 163.567C148.245 165.085 147.946 166.709 147.261 168.183C147.08 168.644 146.77 169.044 146.368 169.333C145.632 169.793 144.659 169.508 143.928 169.05C143.196 168.593 142.548 167.962 141.75 167.659C141.391 171.153 138.488 174.228 135.02 174.789C137.09 176.691 139.27 178.805 139.737 181.574C139.824 182.083 139.854 182.623 140.126 183.062C140.563 183.764 141.485 183.994 142.313 183.982C144.418 183.966 146.347 182.855 148.105 181.682C148.698 181.291 149.298 180.873 149.694 180.284C150.09 179.695 150.26 178.948 150.409 178.235C151.426 173.403 152.442 168.569 153.457 163.732C153.733 162.419 153.687 159.838 151.649 160.098C150.267 160.301 149.255 162.456 148.827 163.567Z" fill="#555555"/>
<path d="M149.284 163.567C148.702 165.085 148.403 166.709 147.718 168.183C147.537 168.644 147.227 169.044 146.825 169.333C146.089 169.793 145.116 169.508 144.385 169.05C143.653 168.593 143.005 167.962 142.207 167.659C141.848 171.153 138.945 174.228 135.477 174.789C137.547 176.691 139.727 178.805 140.194 181.574C140.281 182.083 140.311 182.623 140.583 183.062C141.02 183.764 141.942 183.994 142.77 183.982C144.875 183.966 146.805 182.855 148.562 181.682C149.155 181.291 149.756 180.873 150.151 180.284C150.547 179.695 150.717 178.948 150.866 178.235C151.883 173.403 152.899 168.569 153.914 163.732C154.19 162.419 154.144 159.838 152.106 160.098C150.724 160.301 149.712 162.456 149.284 163.567Z" fill="#F86D70"/>
<path d="M115.731 172.538C115.648 172.959 115.232 173.214 114.855 173.416C114.126 173.81 113.332 174.217 112.511 174.106C111.69 173.996 111.002 173.389 110.464 172.745C110.196 172.438 109.964 172.102 109.774 171.742C108.943 170.102 108.854 163.123 112.285 165.401C113.702 166.344 112.904 167.954 113.081 169.341C113.159 170.163 113.487 170.942 114.022 171.572C114.126 171.691 115.678 172.809 115.731 172.538Z" fill="#F86D70"/>
<path d="M145.087 130.214C150.74 130.214 155.322 128.052 155.322 125.384C155.322 122.716 150.74 120.554 145.087 120.554C139.434 120.554 134.852 122.716 134.852 125.384C134.852 128.052 139.434 130.214 145.087 130.214Z" fill="#666666"/>
<path opacity="0.1" d="M145.549 128.604C140.011 128.604 135.505 126.534 135.323 123.935C135.029 124.361 134.869 124.866 134.863 125.384C134.863 128.052 139.445 130.214 145.099 130.214C150.752 130.214 155.334 128.052 155.334 125.384C155.334 125.328 155.334 125.276 155.334 125.223C154.012 127.182 150.134 128.604 145.549 128.604Z" fill="#555555"/>
<path d="M190.055 162.875C204.028 162.875 215.356 152.577 215.356 139.874C215.356 127.171 204.028 116.873 190.055 116.873C176.082 116.873 164.754 127.171 164.754 139.874C164.754 152.577 176.082 162.875 190.055 162.875Z" fill="#666666"/>
<path opacity="0.1" d="M190.055 156.895C177.241 156.895 166.651 148.233 164.984 136.999C164.832 138.027 164.755 139.065 164.754 140.104C164.754 152.808 176.082 163.105 190.055 163.105C204.028 163.105 215.356 152.808 215.356 140.104C215.355 139.065 215.278 138.027 215.126 136.999C213.458 148.233 202.869 156.895 190.055 156.895Z" fill="#555555"/>
<path d="M189.597 157.125C196.329 157.125 201.787 149.762 201.787 140.679C201.787 131.596 196.329 124.233 189.597 124.233C182.864 124.233 177.406 131.596 177.406 140.679C177.406 149.762 182.864 157.125 189.597 157.125Z" fill="#666666"/>
<path opacity="0.1" d="M189.597 157.125C196.329 157.125 201.787 149.762 201.787 140.679C201.787 131.596 196.329 124.233 189.597 124.233C182.864 124.233 177.406 131.596 177.406 140.679C177.406 149.762 182.864 157.125 189.597 157.125Z" fill="#555555"/>
<path d="M183.991 149.014C183.531 150.151 182.611 151.358 181.23 151.446C183.071 152.957 184.934 154.484 187.132 155.586C189.331 156.688 191.935 157.334 194.438 156.938C196.204 156.66 197.81 155.885 199.309 155.036C201.862 153.592 204.369 151.694 205.016 149.123C203.099 149.219 201.177 149.183 199.265 149.014C198.274 148.929 197.26 148.798 196.4 148.366C195.871 148.087 195.405 147.705 195.027 147.243C194.648 146.781 194.367 146.248 194.198 145.675C193.856 144.589 193.863 143.446 193.925 142.321C193.959 141.666 193.984 140.941 193.481 140.44C192.977 139.938 192.144 139.872 191.388 139.856C189.866 139.825 188.344 139.915 186.836 140.125C186.045 140.207 185.261 140.349 184.492 140.55C183.494 140.854 183.588 140.736 183.83 141.571C184.579 144.129 185.037 146.429 183.991 149.014Z" fill="#A0616A"/>
<path opacity="0.1" d="M183.991 149.014C183.531 150.151 182.611 151.358 181.23 151.446C183.071 152.957 184.934 154.484 187.132 155.586C189.331 156.688 191.935 157.334 194.438 156.938C196.204 156.66 197.81 155.885 199.309 155.036C201.862 153.592 204.369 151.694 205.016 149.123C203.099 149.219 201.177 149.183 199.265 149.014C198.274 148.929 197.26 148.798 196.4 148.366C195.871 148.087 195.405 147.705 195.027 147.243C194.648 146.781 194.367 146.248 194.198 145.675C193.856 144.589 193.863 143.446 193.925 142.321C193.959 141.666 193.984 140.941 193.481 140.44C192.977 139.938 192.144 139.872 191.388 139.856C189.866 139.825 188.344 139.915 186.836 140.125C186.045 140.207 185.261 140.349 184.492 140.55C183.494 140.854 183.588 140.736 183.83 141.571C184.579 144.129 185.037 146.429 183.991 149.014Z" fill="#555555"/>
<path d="M189.252 146.659C195.222 146.659 200.062 141.819 200.062 135.849C200.062 129.878 195.222 125.038 189.252 125.038C183.281 125.038 178.441 129.878 178.441 135.849C178.441 141.819 183.281 146.659 189.252 146.659Z" fill="#A0616A"/>
<path d="M185.524 149.967C184.818 149.121 184.091 148.256 183.15 147.681C181.609 146.736 179.7 146.676 177.895 146.646C175.937 146.612 173.81 146.63 172.262 147.828C171.572 148.369 171.043 149.109 170.539 149.836L163.981 159.267C163.726 159.635 163.457 160.051 163.521 160.495C163.595 160.814 163.754 161.108 163.981 161.344L171.194 170.351C171.606 170.864 172.032 171.404 172.17 172.048C172.308 172.692 172.138 173.368 171.917 173.994C171.045 176.476 169.387 178.824 169.538 181.439C169.647 183.146 170.539 184.715 171.632 186.04C174.139 189.06 177.747 191.024 181.522 192.096C185.296 193.168 189.259 193.402 193.186 193.428C200.587 193.476 208.366 192.669 214.48 188.494L209.675 183.967C208.725 183.07 207.729 182.104 207.4 180.839C207.17 179.988 207.281 179.091 207.384 178.219C207.577 176.625 207.771 175.02 208.286 173.502C209.719 169.272 213.401 166.261 215.858 162.533C216.166 162.073 216.465 161.544 216.43 160.985C216.403 160.513 216.141 160.092 215.885 159.697C214.763 157.956 213.599 156.224 212.785 154.319C212.177 152.902 211.766 151.396 211.014 150.05C210.262 148.705 209.068 147.495 207.564 147.212C205.627 146.848 203.738 148.061 201.772 148.143C200.332 148.205 198.83 147.665 197.485 148.178C195.888 148.787 195.184 150.586 194.29 152.047C193.63 153.135 191.661 156.111 190.117 155.379C189.278 154.979 188.507 153.539 187.905 152.833L185.524 149.967Z" fill="#F98A8D"/>
<path d="M194.135 157.279C193.77 157.074 193.347 156.997 192.934 157.063C192.73 157.102 192.545 157.208 192.407 157.363C192.269 157.519 192.187 157.716 192.173 157.923L191.508 157.884C191.431 157.876 191.354 157.88 191.278 157.896C191.182 157.916 191.098 157.974 191.045 158.057C190.992 158.14 190.973 158.24 190.994 158.336C191.015 158.432 191.073 158.516 191.155 158.569C191.238 158.622 191.338 158.641 191.434 158.62C191.108 158.749 190.817 158.954 190.586 159.218C190.412 159.479 190.349 159.798 190.409 160.105C190.469 160.413 190.649 160.684 190.908 160.86C191.18 161.017 191.5 161.068 191.807 161.006C192.114 160.943 192.388 160.77 192.578 160.52C192.539 160.657 192.55 160.804 192.609 160.934C192.668 161.064 192.771 161.169 192.9 161.231C194.146 161.905 194.781 160.989 194.951 159.929C195.145 158.765 195.393 157.9 194.135 157.279Z" fill="#FFE9B3"/>
<path opacity="0.15" d="M194.135 157.279C193.77 157.074 193.347 156.997 192.934 157.063C192.73 157.102 192.545 157.208 192.407 157.363C192.269 157.519 192.187 157.716 192.173 157.923L191.508 157.884C191.431 157.876 191.354 157.88 191.278 157.896C191.182 157.916 191.098 157.974 191.045 158.057C190.992 158.14 190.973 158.24 190.994 158.336C191.015 158.432 191.073 158.516 191.155 158.569C191.238 158.622 191.338 158.641 191.434 158.62C191.108 158.749 190.817 158.954 190.586 159.218C190.412 159.479 190.349 159.798 190.409 160.105C190.469 160.413 190.649 160.684 190.908 160.86C191.18 161.017 191.5 161.068 191.807 161.006C192.114 160.943 192.388 160.77 192.578 160.52C192.539 160.657 192.55 160.804 192.609 160.934C192.668 161.064 192.771 161.169 192.9 161.231C194.146 161.905 194.781 160.989 194.951 159.929C195.145 158.765 195.393 157.9 194.135 157.279Z" fill="#555555"/>
<path d="M197.532 156.497C197.168 156.291 196.744 156.215 196.331 156.283C196.127 156.321 195.942 156.426 195.805 156.582C195.667 156.737 195.585 156.934 195.572 157.141L194.907 157.102C194.831 157.094 194.753 157.098 194.677 157.113C194.588 157.141 194.511 157.202 194.463 157.283C194.415 157.364 194.399 157.46 194.418 157.552C194.442 157.644 194.5 157.722 194.579 157.773C194.659 157.824 194.755 157.843 194.848 157.826C194.522 157.956 194.231 158.161 193.999 158.424C193.826 158.685 193.763 159.004 193.823 159.311C193.883 159.619 194.062 159.89 194.321 160.066C194.593 160.223 194.913 160.275 195.221 160.213C195.529 160.151 195.803 159.978 195.993 159.728C195.954 159.865 195.965 160.011 196.023 160.141C196.082 160.271 196.184 160.375 196.313 160.437C197.562 161.113 198.194 160.207 198.367 159.137C198.544 157.982 198.797 157.118 197.532 156.497Z" fill="#FFE9B3"/>
<path d="M200.302 156.893C199.939 156.688 199.516 156.612 199.104 156.679C198.9 156.717 198.714 156.822 198.576 156.977C198.438 157.133 198.356 157.33 198.343 157.537L197.678 157.498C197.601 157.49 197.523 157.493 197.448 157.509C197.358 157.538 197.282 157.598 197.234 157.679C197.186 157.76 197.169 157.856 197.188 157.949C197.212 158.04 197.27 158.118 197.35 158.169C197.429 158.22 197.525 158.239 197.618 158.222C197.291 158.351 197 158.556 196.769 158.82C196.596 159.081 196.532 159.4 196.593 159.708C196.653 160.015 196.832 160.286 197.091 160.463C197.363 160.62 197.683 160.672 197.99 160.61C198.298 160.548 198.572 160.375 198.761 160.124C198.722 160.262 198.734 160.408 198.793 160.538C198.851 160.667 198.954 160.772 199.083 160.833C200.33 161.509 200.962 160.591 201.135 159.533C201.314 158.39 201.558 157.514 200.302 156.893Z" fill="#FFE9B3"/>
<path opacity="0.15" d="M200.302 156.893C199.939 156.688 199.516 156.612 199.104 156.679C198.9 156.717 198.714 156.822 198.576 156.977C198.438 157.133 198.356 157.33 198.343 157.537L197.678 157.498C197.601 157.49 197.523 157.493 197.448 157.509C197.358 157.538 197.282 157.598 197.234 157.679C197.186 157.76 197.169 157.856 197.188 157.949C197.212 158.04 197.27 158.118 197.35 158.169C197.429 158.22 197.525 158.239 197.618 158.222C197.291 158.351 197 158.556 196.769 158.82C196.596 159.081 196.532 159.4 196.593 159.708C196.653 160.015 196.832 160.286 197.091 160.463C197.363 160.62 197.683 160.672 197.99 160.61C198.298 160.548 198.572 160.375 198.761 160.124C198.722 160.262 198.734 160.408 198.793 160.538C198.851 160.667 198.954 160.772 199.083 160.833C200.33 161.509 200.962 160.591 201.135 159.533C201.314 158.39 201.558 157.514 200.302 156.893Z" fill="#555555"/>
<path d="M207.076 158.505V183.212C207.076 183.369 207.013 183.52 206.902 183.631C206.791 183.742 206.64 183.805 206.483 183.806H187.199C187.042 183.805 186.891 183.742 186.78 183.631C186.669 183.52 186.606 183.369 186.605 183.212V158.505C186.605 158.406 186.63 158.309 186.676 158.222C186.723 158.135 186.791 158.062 186.873 158.008C186.956 157.953 187.05 157.921 187.148 157.912C187.247 157.904 187.345 157.92 187.436 157.959C187.926 158.171 188.416 158.367 188.906 158.546C189.596 158.799 190.286 159.019 190.976 159.206C191.666 159.392 192.356 159.547 193.046 159.666C193.736 159.786 194.426 159.878 195.116 159.933C195.806 159.988 196.496 160.011 197.186 159.997C197.876 159.984 198.566 159.944 199.256 159.869C199.946 159.793 200.636 159.68 201.326 159.535C202.016 159.39 202.706 159.22 203.396 159.011C203.932 158.847 204.47 158.666 205.006 158.463C205.42 158.309 205.832 158.141 206.246 157.962C206.336 157.923 206.435 157.906 206.533 157.915C206.631 157.923 206.725 157.955 206.808 158.009C206.89 158.063 206.958 158.136 207.004 158.223C207.051 158.309 207.076 158.406 207.076 158.505Z" fill="#BBBDC8"/>
<path d="M190.976 159.206V183.817H188.906V158.546C189.596 158.799 190.286 159.019 190.976 159.206Z" fill="white"/>
<path d="M195.117 159.931V183.806H193.047V159.655C193.737 159.789 194.427 159.876 195.117 159.931Z" fill="white"/>
<path d="M199.254 159.866V183.806H197.184V160C197.874 159.987 198.564 159.943 199.254 159.866Z" fill="white"/>
<path d="M203.394 159.009V183.806H201.324V159.54C202.014 159.396 202.704 159.219 203.394 159.009Z" fill="white"/>
<path opacity="0.1" d="M207.078 158.505V183.212C207.077 183.369 207.015 183.52 206.903 183.631C206.792 183.742 206.642 183.805 206.484 183.806H205.008V158.461C205.422 158.307 205.834 158.139 206.248 157.959C206.338 157.92 206.437 157.904 206.535 157.912C206.633 157.921 206.728 157.953 206.81 158.008C206.893 158.062 206.96 158.135 207.007 158.222C207.054 158.309 207.078 158.406 207.078 158.505Z" fill="#555555"/>
<path d="M191.99 156.101C191.626 155.896 191.204 155.82 190.791 155.887C190.587 155.925 190.401 156.03 190.264 156.185C190.126 156.341 190.043 156.538 190.03 156.745L189.365 156.706C189.289 156.698 189.211 156.701 189.135 156.717C189.045 156.746 188.969 156.806 188.921 156.887C188.873 156.968 188.857 157.064 188.875 157.157C188.9 157.248 188.958 157.326 189.037 157.377C189.117 157.428 189.213 157.447 189.306 157.43C188.979 157.559 188.688 157.764 188.457 158.028C188.283 158.289 188.22 158.608 188.28 158.916C188.34 159.223 188.52 159.495 188.779 159.671C189.051 159.827 189.37 159.879 189.678 159.817C189.985 159.755 190.259 159.582 190.449 159.332C190.41 159.47 190.421 159.616 190.48 159.746C190.539 159.875 190.642 159.98 190.771 160.041C192.017 160.715 192.65 159.799 192.822 158.741C193.002 157.587 193.25 156.722 191.99 156.101Z" fill="#FFE9B3"/>
<path d="M195.439 152.191C195.075 151.985 194.653 151.91 194.241 151.977C194.036 152.015 193.851 152.12 193.713 152.275C193.575 152.43 193.493 152.627 193.479 152.835L192.815 152.796C192.738 152.787 192.66 152.791 192.585 152.807C192.495 152.835 192.418 152.896 192.37 152.977C192.322 153.058 192.306 153.154 192.325 153.246C192.349 153.338 192.407 153.416 192.486 153.467C192.566 153.518 192.662 153.537 192.755 153.52C192.428 153.649 192.137 153.854 191.906 154.118C191.732 154.379 191.669 154.698 191.729 155.006C191.79 155.313 191.969 155.584 192.228 155.76C192.5 155.917 192.819 155.969 193.127 155.907C193.434 155.845 193.708 155.672 193.898 155.422C193.859 155.559 193.87 155.706 193.929 155.835C193.988 155.965 194.091 156.07 194.22 156.131C195.467 156.805 196.099 155.889 196.272 154.831C196.451 153.677 196.699 152.812 195.439 152.191Z" fill="#FFE9B3"/>
<path d="M197.783 157.502C198.056 157.184 198.213 156.784 198.227 156.365C198.231 156.157 198.166 155.953 198.041 155.787C197.915 155.62 197.738 155.5 197.537 155.445L197.705 154.801C197.729 154.727 197.741 154.649 197.739 154.571C197.736 154.474 197.694 154.383 197.623 154.317C197.551 154.251 197.457 154.216 197.36 154.219C197.263 154.223 197.171 154.265 197.105 154.336C197.039 154.408 197.004 154.502 197.008 154.599C196.945 154.254 196.801 153.929 196.587 153.651C196.364 153.431 196.063 153.308 195.75 153.308C195.436 153.308 195.136 153.431 194.913 153.651C194.705 153.887 194.59 154.19 194.59 154.504C194.59 154.817 194.705 155.12 194.913 155.356C194.785 155.291 194.639 155.274 194.5 155.307C194.362 155.34 194.239 155.42 194.154 155.535C193.25 156.625 194.025 157.426 195.03 157.801C196.129 158.206 196.93 158.62 197.783 157.502Z" fill="#FFE9B3"/>
<path d="M200.775 157.502C201.048 157.184 201.205 156.784 201.219 156.365C201.223 156.157 201.158 155.953 201.033 155.787C200.908 155.62 200.73 155.5 200.529 155.445L200.697 154.801C200.722 154.727 200.733 154.649 200.732 154.571C200.728 154.474 200.686 154.383 200.615 154.317C200.544 154.251 200.449 154.216 200.352 154.219C200.255 154.223 200.164 154.265 200.098 154.336C200.032 154.408 199.997 154.502 200 154.599C199.937 154.254 199.793 153.929 199.579 153.651C199.356 153.431 199.056 153.308 198.742 153.308C198.429 153.308 198.128 153.431 197.905 153.651C197.697 153.887 197.583 154.19 197.583 154.504C197.583 154.817 197.697 155.12 197.905 155.356C197.778 155.291 197.631 155.274 197.493 155.307C197.354 155.34 197.231 155.42 197.146 155.535C196.242 156.625 197.017 157.426 198.022 157.801C199.122 158.206 199.922 158.62 200.775 157.502Z" fill="#FFE9B3"/>
<path d="M202.648 159.469C202.858 159.107 202.94 158.684 202.878 158.27C202.841 158.066 202.738 157.879 202.584 157.739C202.43 157.6 202.234 157.516 202.027 157.5L202.075 156.837C202.087 156.761 202.087 156.684 202.075 156.607C202.053 156.513 201.995 156.431 201.913 156.379C201.831 156.328 201.731 156.311 201.637 156.333C201.542 156.354 201.46 156.413 201.409 156.495C201.357 156.577 201.34 156.676 201.362 156.771C201.235 156.443 201.034 156.15 200.773 155.915C200.514 155.739 200.196 155.672 199.887 155.729C199.579 155.786 199.306 155.962 199.126 156.219C198.967 156.489 198.911 156.808 198.97 157.117C199.03 157.425 199.2 157.701 199.448 157.893C199.311 157.853 199.165 157.863 199.034 157.921C198.904 157.978 198.798 158.08 198.735 158.208C198.045 159.448 198.965 160.092 200.014 160.278C201.153 160.46 202.017 160.72 202.648 159.469Z" fill="#FFE9B3"/>
<path d="M193.445 155.788C193.655 155.426 193.736 155.004 193.675 154.59C193.638 154.385 193.535 154.198 193.381 154.059C193.227 153.919 193.031 153.835 192.823 153.819L192.872 153.157C192.883 153.081 192.883 153.003 192.872 152.927C192.85 152.832 192.792 152.75 192.71 152.699C192.627 152.647 192.528 152.63 192.434 152.652C192.339 152.674 192.257 152.732 192.205 152.814C192.154 152.896 192.137 152.995 192.159 153.09C192.032 152.763 191.831 152.469 191.57 152.234C191.311 152.058 190.992 151.991 190.684 152.048C190.376 152.105 190.102 152.281 189.923 152.538C189.763 152.808 189.708 153.128 189.767 153.436C189.827 153.745 189.997 154.021 190.245 154.212C190.108 154.172 189.962 154.182 189.831 154.24C189.701 154.298 189.595 154.399 189.532 154.528C188.842 155.767 189.762 156.411 190.811 156.598C191.949 156.779 192.814 157.039 193.445 155.788Z" fill="#FFE9B3"/>
<path d="M194.365 154.518C194.001 154.313 193.578 154.237 193.165 154.302C192.961 154.341 192.775 154.447 192.637 154.603C192.5 154.758 192.417 154.955 192.403 155.162L191.739 155.123C191.662 155.115 191.584 155.119 191.509 155.135C191.412 155.156 191.329 155.214 191.275 155.296C191.222 155.379 191.204 155.479 191.224 155.575C191.245 155.671 191.303 155.755 191.386 155.808C191.468 155.862 191.569 155.88 191.665 155.859C191.339 155.989 191.048 156.194 190.816 156.457C190.643 156.718 190.579 157.037 190.639 157.345C190.7 157.652 190.879 157.924 191.138 158.1C191.41 158.256 191.73 158.308 192.037 158.245C192.345 158.182 192.619 158.01 192.808 157.759C192.769 157.897 192.78 158.043 192.839 158.173C192.898 158.303 193.001 158.408 193.13 158.47C194.377 159.144 195.012 158.228 195.182 157.168C195.375 156.004 195.623 155.139 194.365 154.518Z" fill="#FFE9B3"/>
<path opacity="0.15" d="M194.365 154.518C194.001 154.313 193.578 154.237 193.165 154.302C192.961 154.341 192.775 154.447 192.637 154.603C192.5 154.758 192.417 154.955 192.403 155.162L191.739 155.123C191.662 155.115 191.584 155.119 191.509 155.135C191.412 155.156 191.329 155.214 191.275 155.296C191.222 155.379 191.204 155.479 191.224 155.575C191.245 155.671 191.303 155.755 191.386 155.808C191.468 155.862 191.569 155.88 191.665 155.859C191.339 155.989 191.048 156.194 190.816 156.457C190.643 156.718 190.579 157.037 190.639 157.345C190.7 157.652 190.879 157.924 191.138 158.1C191.41 158.256 191.73 158.308 192.037 158.245C192.345 158.182 192.619 158.01 192.808 157.759C192.769 157.897 192.78 158.043 192.839 158.173C192.898 158.303 193.001 158.408 193.13 158.47C194.377 159.144 195.012 158.228 195.182 157.168C195.375 156.004 195.623 155.139 194.365 154.518Z" fill="#555555"/>
<path d="M204.258 155.31C203.894 155.104 203.471 155.029 203.058 155.096C202.854 155.135 202.668 155.24 202.53 155.395C202.392 155.55 202.31 155.747 202.296 155.954L201.634 155.915C201.557 155.907 201.48 155.911 201.404 155.927C201.314 155.955 201.238 156.015 201.19 156.096C201.142 156.177 201.126 156.273 201.144 156.366C201.169 156.457 201.226 156.536 201.306 156.586C201.386 156.637 201.481 156.656 201.574 156.64C201.248 156.769 200.957 156.974 200.725 157.238C200.553 157.499 200.489 157.817 200.55 158.125C200.61 158.432 200.789 158.703 201.047 158.88C201.319 159.036 201.639 159.089 201.946 159.026C202.254 158.964 202.528 158.792 202.717 158.542C202.679 158.679 202.69 158.825 202.749 158.955C202.808 159.085 202.911 159.189 203.039 159.25C204.286 159.924 204.921 159.009 205.091 157.948C205.268 156.796 205.517 155.931 204.258 155.31Z" fill="#FFE9B3"/>
<path opacity="0.15" d="M204.258 155.31C203.894 155.104 203.471 155.029 203.058 155.096C202.854 155.135 202.668 155.24 202.53 155.395C202.392 155.55 202.31 155.747 202.296 155.954L201.634 155.915C201.557 155.907 201.48 155.911 201.404 155.927C201.314 155.955 201.238 156.015 201.19 156.096C201.142 156.177 201.126 156.273 201.144 156.366C201.169 156.457 201.226 156.536 201.306 156.586C201.386 156.637 201.481 156.656 201.574 156.64C201.248 156.769 200.957 156.974 200.725 157.238C200.553 157.499 200.489 157.817 200.55 158.125C200.61 158.432 200.789 158.703 201.047 158.88C201.319 159.036 201.639 159.089 201.946 159.026C202.254 158.964 202.528 158.792 202.717 158.542C202.679 158.679 202.69 158.825 202.749 158.955C202.808 159.085 202.911 159.189 203.039 159.25C204.286 159.924 204.921 159.009 205.091 157.948C205.268 156.796 205.517 155.931 204.258 155.31Z" fill="#555555"/>
<path d="M198.278 151.4C197.914 151.194 197.49 151.119 197.077 151.186C196.873 151.224 196.688 151.329 196.55 151.485C196.412 151.64 196.33 151.837 196.316 152.044L195.654 152.005C195.577 151.997 195.499 152.001 195.424 152.016C195.334 152.045 195.257 152.105 195.209 152.186C195.161 152.267 195.145 152.363 195.164 152.456C195.188 152.547 195.246 152.626 195.325 152.676C195.405 152.727 195.501 152.746 195.594 152.729C195.268 152.859 194.977 153.064 194.745 153.327C194.572 153.589 194.509 153.907 194.569 154.215C194.629 154.522 194.808 154.793 195.067 154.97C195.339 155.126 195.658 155.178 195.966 155.116C196.273 155.054 196.547 154.882 196.737 154.632C196.698 154.769 196.709 154.915 196.768 155.045C196.827 155.174 196.93 155.279 197.059 155.34C198.306 156.014 198.94 155.098 199.111 154.038C199.288 152.886 199.536 152.021 198.278 151.4Z" fill="#FFE9B3"/>
<path opacity="0.15" d="M198.278 151.4C197.914 151.194 197.49 151.119 197.077 151.186C196.873 151.224 196.688 151.329 196.55 151.485C196.412 151.64 196.33 151.837 196.316 152.044L195.654 152.005C195.577 151.997 195.499 152.001 195.424 152.016C195.334 152.045 195.257 152.105 195.209 152.186C195.161 152.267 195.145 152.363 195.164 152.456C195.188 152.547 195.246 152.626 195.325 152.676C195.405 152.727 195.501 152.746 195.594 152.729C195.268 152.859 194.977 153.064 194.745 153.327C194.572 153.589 194.509 153.907 194.569 154.215C194.629 154.522 194.808 154.793 195.067 154.97C195.339 155.126 195.658 155.178 195.966 155.116C196.273 155.054 196.547 154.882 196.737 154.632C196.698 154.769 196.709 154.915 196.768 155.045C196.827 155.174 196.93 155.279 197.059 155.34C198.306 156.014 198.94 155.098 199.111 154.038C199.288 152.886 199.536 152.021 198.278 151.4Z" fill="#555555"/>
<path d="M193.676 150.02C193.312 149.814 192.889 149.739 192.476 149.806C192.272 149.844 192.086 149.95 191.948 150.105C191.81 150.26 191.728 150.457 191.714 150.664L191.052 150.625C190.975 150.617 190.898 150.621 190.822 150.636C190.732 150.665 190.656 150.725 190.608 150.806C190.56 150.887 190.544 150.983 190.562 151.076C190.587 151.167 190.644 151.246 190.724 151.296C190.804 151.347 190.899 151.366 190.992 151.35C190.666 151.479 190.375 151.684 190.143 151.948C189.971 152.209 189.907 152.527 189.968 152.835C190.028 153.142 190.207 153.413 190.465 153.59C190.737 153.746 191.057 153.799 191.364 153.736C191.672 153.674 191.946 153.502 192.135 153.252C192.097 153.389 192.108 153.535 192.167 153.665C192.226 153.795 192.329 153.899 192.457 153.96C193.704 154.634 194.339 153.719 194.509 152.658C194.686 151.506 194.935 150.641 193.676 150.02Z" fill="#FFE9B3"/>
<path opacity="0.15" d="M193.676 150.02C193.312 149.814 192.889 149.739 192.476 149.806C192.272 149.844 192.086 149.95 191.948 150.105C191.81 150.26 191.728 150.457 191.714 150.664L191.052 150.625C190.975 150.617 190.898 150.621 190.822 150.636C190.732 150.665 190.656 150.725 190.608 150.806C190.56 150.887 190.544 150.983 190.562 151.076C190.587 151.167 190.644 151.246 190.724 151.296C190.804 151.347 190.899 151.366 190.992 151.35C190.666 151.479 190.375 151.684 190.143 151.948C189.971 152.209 189.907 152.527 189.968 152.835C190.028 153.142 190.207 153.413 190.465 153.59C190.737 153.746 191.057 153.799 191.364 153.736C191.672 153.674 191.946 153.502 192.135 153.252C192.097 153.389 192.108 153.535 192.167 153.665C192.226 153.795 192.329 153.899 192.457 153.96C193.704 154.634 194.339 153.719 194.509 152.658C194.686 151.506 194.935 150.641 193.676 150.02Z" fill="#555555"/>
<path d="M198.739 149.1C198.375 148.894 197.951 148.819 197.538 148.886C197.334 148.925 197.149 149.03 197.011 149.185C196.873 149.34 196.791 149.537 196.777 149.744L196.114 149.705C196.038 149.697 195.96 149.701 195.884 149.717C195.795 149.745 195.718 149.805 195.67 149.886C195.622 149.968 195.606 150.064 195.625 150.156C195.649 150.247 195.707 150.326 195.786 150.376C195.866 150.427 195.962 150.446 196.055 150.43C195.729 150.56 195.438 150.764 195.206 151.028C195.033 151.289 194.97 151.607 195.03 151.915C195.09 152.222 195.269 152.493 195.528 152.67C195.8 152.827 196.119 152.879 196.427 152.816C196.734 152.754 197.008 152.582 197.198 152.332C197.159 152.469 197.17 152.615 197.229 152.745C197.288 152.875 197.391 152.979 197.52 153.04C198.766 153.714 199.401 152.799 199.572 151.738C199.749 150.586 199.997 149.721 198.739 149.1Z" fill="#FFE9B3"/>
<path opacity="0.15" d="M198.739 149.1C198.375 148.894 197.951 148.819 197.538 148.886C197.334 148.925 197.149 149.03 197.011 149.185C196.873 149.34 196.791 149.537 196.777 149.744L196.114 149.705C196.038 149.697 195.96 149.701 195.884 149.717C195.795 149.745 195.718 149.805 195.67 149.886C195.622 149.968 195.606 150.064 195.625 150.156C195.649 150.247 195.707 150.326 195.786 150.376C195.866 150.427 195.962 150.446 196.055 150.43C195.729 150.56 195.438 150.764 195.206 151.028C195.033 151.289 194.97 151.607 195.03 151.915C195.09 152.222 195.269 152.493 195.528 152.67C195.8 152.827 196.119 152.879 196.427 152.816C196.734 152.754 197.008 152.582 197.198 152.332C197.159 152.469 197.17 152.615 197.229 152.745C197.288 152.875 197.391 152.979 197.52 153.04C198.766 153.714 199.401 152.799 199.572 151.738C199.749 150.586 199.997 149.721 198.739 149.1Z" fill="#555555"/>
<path d="M200.579 150.48C200.214 150.274 199.791 150.199 199.378 150.266C199.174 150.304 198.988 150.41 198.851 150.565C198.713 150.72 198.631 150.917 198.617 151.124L197.954 151.085C197.878 151.077 197.8 151.081 197.724 151.096C197.634 151.125 197.558 151.185 197.51 151.266C197.462 151.347 197.446 151.443 197.464 151.536C197.489 151.627 197.547 151.706 197.626 151.756C197.706 151.807 197.802 151.826 197.895 151.809C197.569 151.939 197.278 152.144 197.046 152.408C196.873 152.669 196.81 152.987 196.87 153.295C196.93 153.602 197.109 153.873 197.368 154.05C197.64 154.206 197.959 154.258 198.267 154.196C198.574 154.134 198.848 153.962 199.038 153.712C198.999 153.849 199.01 153.995 199.069 154.125C199.128 154.255 199.231 154.359 199.36 154.42C200.606 155.094 201.241 154.179 201.411 153.118C201.588 151.966 201.837 151.101 200.579 150.48Z" fill="#FFE9B3"/>
<path opacity="0.15" d="M200.579 150.48C200.214 150.274 199.791 150.199 199.378 150.266C199.174 150.304 198.988 150.41 198.851 150.565C198.713 150.72 198.631 150.917 198.617 151.124L197.954 151.085C197.878 151.077 197.8 151.081 197.724 151.096C197.634 151.125 197.558 151.185 197.51 151.266C197.462 151.347 197.446 151.443 197.464 151.536C197.489 151.627 197.547 151.706 197.626 151.756C197.706 151.807 197.802 151.826 197.895 151.809C197.569 151.939 197.278 152.144 197.046 152.408C196.873 152.669 196.81 152.987 196.87 153.295C196.93 153.602 197.109 153.873 197.368 154.05C197.64 154.206 197.959 154.258 198.267 154.196C198.574 154.134 198.848 153.962 199.038 153.712C198.999 153.849 199.01 153.995 199.069 154.125C199.128 154.255 199.231 154.359 199.36 154.42C200.606 155.094 201.241 154.179 201.411 153.118C201.588 151.966 201.837 151.101 200.579 150.48Z" fill="#555555"/>
<path d="M189.305 155.31C188.941 155.104 188.518 155.029 188.105 155.096C187.901 155.135 187.715 155.24 187.577 155.395C187.439 155.55 187.357 155.747 187.343 155.954L186.681 155.915C186.604 155.907 186.527 155.911 186.451 155.927C186.361 155.955 186.285 156.015 186.237 156.096C186.189 156.177 186.172 156.273 186.191 156.366C186.215 156.457 186.273 156.536 186.353 156.586C186.432 156.637 186.528 156.656 186.621 156.64C186.295 156.769 186.004 156.974 185.772 157.238C185.599 157.499 185.536 157.817 185.596 158.125C185.657 158.432 185.836 158.703 186.094 158.88C186.366 159.036 186.686 159.089 186.993 159.026C187.301 158.964 187.575 158.792 187.764 158.542C187.726 158.679 187.737 158.825 187.796 158.955C187.855 159.085 187.958 159.189 188.086 159.25C189.333 159.924 189.968 159.009 190.138 157.948C190.315 156.796 190.563 155.931 189.305 155.31Z" fill="#FFE9B3"/>
<path opacity="0.15" d="M189.305 155.31C188.941 155.104 188.518 155.029 188.105 155.096C187.901 155.135 187.715 155.24 187.577 155.395C187.439 155.55 187.357 155.747 187.343 155.954L186.681 155.915C186.604 155.907 186.527 155.911 186.451 155.927C186.361 155.955 186.285 156.015 186.237 156.096C186.189 156.177 186.172 156.273 186.191 156.366C186.215 156.457 186.273 156.536 186.353 156.586C186.432 156.637 186.528 156.656 186.621 156.64C186.295 156.769 186.004 156.974 185.772 157.238C185.599 157.499 185.536 157.817 185.596 158.125C185.657 158.432 185.836 158.703 186.094 158.88C186.366 159.036 186.686 159.089 186.993 159.026C187.301 158.964 187.575 158.792 187.764 158.542C187.726 158.679 187.737 158.825 187.796 158.955C187.855 159.085 187.958 159.189 188.086 159.25C189.333 159.924 189.968 159.009 190.138 157.948C190.315 156.796 190.563 155.931 189.305 155.31Z" fill="#555555"/>
<path d="M202.649 152.089C202.285 151.884 201.861 151.808 201.448 151.875C201.244 151.914 201.059 152.019 200.921 152.174C200.783 152.33 200.701 152.526 200.687 152.733L200.025 152.694C199.948 152.686 199.87 152.69 199.795 152.706C199.705 152.734 199.628 152.795 199.58 152.876C199.533 152.957 199.516 153.053 199.535 153.145C199.559 153.236 199.617 153.315 199.697 153.366C199.776 153.416 199.872 153.435 199.965 153.419C199.639 153.549 199.348 153.754 199.116 154.017C198.943 154.278 198.88 154.597 198.94 154.904C199.001 155.211 199.179 155.483 199.438 155.659C199.71 155.816 200.029 155.868 200.337 155.806C200.644 155.743 200.919 155.571 201.108 155.321C201.069 155.458 201.08 155.605 201.139 155.734C201.198 155.864 201.301 155.968 201.43 156.029C202.677 156.703 203.311 155.788 203.482 154.728C203.659 153.575 203.907 152.71 202.649 152.089Z" fill="#FFE9B3"/>
<path opacity="0.15" d="M202.649 152.089C202.285 151.884 201.861 151.808 201.448 151.875C201.244 151.914 201.059 152.019 200.921 152.174C200.783 152.33 200.701 152.526 200.687 152.733L200.025 152.694C199.948 152.686 199.87 152.69 199.795 152.706C199.705 152.734 199.628 152.795 199.58 152.876C199.533 152.957 199.516 153.053 199.535 153.145C199.559 153.236 199.617 153.315 199.697 153.366C199.776 153.416 199.872 153.435 199.965 153.419C199.639 153.549 199.348 153.754 199.116 154.017C198.943 154.278 198.88 154.597 198.94 154.904C199.001 155.211 199.179 155.483 199.438 155.659C199.71 155.816 200.029 155.868 200.337 155.806C200.644 155.743 200.919 155.571 201.108 155.321C201.069 155.458 201.08 155.605 201.139 155.734C201.198 155.864 201.301 155.968 201.43 156.029C202.677 156.703 203.311 155.788 203.482 154.728C203.659 153.575 203.907 152.71 202.649 152.089Z" fill="#555555"/>
<path d="M207.02 154.39C206.656 154.184 206.232 154.109 205.82 154.176C205.615 154.215 205.43 154.32 205.292 154.475C205.154 154.63 205.072 154.827 205.058 155.034L204.396 154.995C204.319 154.987 204.241 154.991 204.166 155.007C204.076 155.035 204 155.095 203.952 155.176C203.904 155.258 203.887 155.354 203.906 155.446C203.93 155.537 203.988 155.616 204.068 155.666C204.147 155.717 204.243 155.736 204.336 155.72C204.01 155.85 203.719 156.054 203.487 156.318C203.314 156.579 203.251 156.897 203.311 157.205C203.372 157.512 203.55 157.783 203.809 157.96C204.081 158.117 204.401 158.169 204.708 158.106C205.015 158.044 205.29 157.872 205.479 157.622C205.44 157.759 205.451 157.905 205.51 158.035C205.569 158.165 205.672 158.269 205.801 158.33C207.048 159.004 207.683 158.089 207.853 157.028C208.03 155.876 208.278 155.011 207.02 154.39Z" fill="#FFE9B3"/>
<path opacity="0.15" d="M207.02 154.39C206.656 154.184 206.232 154.109 205.82 154.176C205.615 154.215 205.43 154.32 205.292 154.475C205.154 154.63 205.072 154.827 205.058 155.034L204.396 154.995C204.319 154.987 204.241 154.991 204.166 155.007C204.076 155.035 204 155.095 203.952 155.176C203.904 155.258 203.887 155.354 203.906 155.446C203.93 155.537 203.988 155.616 204.068 155.666C204.147 155.717 204.243 155.736 204.336 155.72C204.01 155.85 203.719 156.054 203.487 156.318C203.314 156.579 203.251 156.897 203.311 157.205C203.372 157.512 203.55 157.783 203.809 157.96C204.081 158.117 204.401 158.169 204.708 158.106C205.015 158.044 205.29 157.872 205.479 157.622C205.44 157.759 205.451 157.905 205.51 158.035C205.569 158.165 205.672 158.269 205.801 158.33C207.048 159.004 207.683 158.089 207.853 157.028C208.03 155.876 208.278 155.011 207.02 154.39Z" fill="#555555"/>
<path d="M203.337 149.33C202.972 149.124 202.549 149.048 202.136 149.116C201.932 149.154 201.746 149.259 201.608 149.414C201.471 149.57 201.388 149.766 201.375 149.974L200.712 149.935C200.635 149.927 200.558 149.93 200.482 149.946C200.392 149.974 200.316 150.035 200.268 150.116C200.22 150.197 200.204 150.293 200.222 150.385C200.247 150.477 200.304 150.555 200.384 150.606C200.464 150.657 200.559 150.676 200.652 150.659C200.326 150.789 200.036 150.994 199.804 151.257C199.631 151.518 199.567 151.837 199.628 152.144C199.688 152.452 199.867 152.723 200.126 152.899C200.397 153.056 200.717 153.108 201.024 153.046C201.332 152.984 201.606 152.811 201.795 152.561C201.757 152.698 201.768 152.845 201.827 152.974C201.886 153.104 201.989 153.209 202.118 153.27C203.364 153.944 203.999 153.028 204.169 151.968C204.346 150.815 204.595 149.951 203.337 149.33Z" fill="#FFE9B3"/>
<path opacity="0.15" d="M203.337 149.33C202.972 149.124 202.549 149.048 202.136 149.116C201.932 149.154 201.746 149.259 201.608 149.414C201.471 149.57 201.388 149.766 201.375 149.974L200.712 149.935C200.635 149.927 200.558 149.93 200.482 149.946C200.392 149.974 200.316 150.035 200.268 150.116C200.22 150.197 200.204 150.293 200.222 150.385C200.247 150.477 200.304 150.555 200.384 150.606C200.464 150.657 200.559 150.676 200.652 150.659C200.326 150.789 200.036 150.994 199.804 151.257C199.631 151.518 199.567 151.837 199.628 152.144C199.688 152.452 199.867 152.723 200.126 152.899C200.397 153.056 200.717 153.108 201.024 153.046C201.332 152.984 201.606 152.811 201.795 152.561C201.757 152.698 201.768 152.845 201.827 152.974C201.886 153.104 201.989 153.209 202.118 153.27C203.364 153.944 203.999 153.028 204.169 151.968C204.346 150.815 204.595 149.951 203.337 149.33Z" fill="#555555"/>
<path d="M206.558 154.868C206.769 154.506 206.85 154.084 206.788 153.67C206.752 153.465 206.648 153.278 206.494 153.139C206.34 152.999 206.144 152.915 205.937 152.899L205.985 152.237C205.997 152.161 205.997 152.083 205.985 152.007C205.974 151.96 205.955 151.916 205.927 151.877C205.899 151.837 205.864 151.804 205.823 151.779C205.782 151.753 205.737 151.736 205.69 151.728C205.642 151.72 205.594 151.721 205.547 151.732C205.5 151.743 205.456 151.763 205.417 151.79C205.378 151.818 205.344 151.853 205.319 151.894C205.293 151.935 205.276 151.98 205.268 152.027C205.26 152.075 205.261 152.123 205.272 152.17C205.146 151.843 204.944 151.55 204.683 151.314C204.424 151.138 204.106 151.071 203.797 151.128C203.489 151.185 203.216 151.361 203.036 151.618C202.877 151.888 202.821 152.208 202.881 152.516C202.94 152.825 203.11 153.101 203.358 153.293C203.221 153.253 203.075 153.262 202.944 153.32C202.814 153.378 202.708 153.479 202.645 153.608C201.955 154.847 202.875 155.491 203.924 155.678C205.063 155.859 205.928 156.119 206.558 154.868Z" fill="#FFE9B3"/>
<path d="M206.558 151.188C206.769 150.827 206.85 150.404 206.788 149.99C206.752 149.785 206.648 149.599 206.494 149.459C206.34 149.32 206.144 149.235 205.937 149.22L205.985 148.557C205.997 148.481 205.997 148.403 205.985 148.327C205.963 148.233 205.905 148.15 205.823 148.099C205.741 148.047 205.641 148.031 205.547 148.052C205.452 148.074 205.37 148.132 205.319 148.214C205.267 148.297 205.25 148.396 205.272 148.49C205.146 148.163 204.944 147.87 204.683 147.635C204.424 147.459 204.106 147.392 203.797 147.448C203.489 147.505 203.216 147.681 203.036 147.938C202.877 148.209 202.821 148.528 202.881 148.837C202.94 149.145 203.11 149.421 203.358 149.613C203.221 149.573 203.075 149.583 202.944 149.64C202.814 149.698 202.708 149.8 202.645 149.928C201.955 151.168 202.875 151.812 203.924 151.998C205.063 152.18 205.928 152.44 206.558 151.188Z" fill="#FFE9B3"/>
<path d="M202.648 156.019C202.858 155.657 202.94 155.234 202.878 154.82C202.841 154.615 202.738 154.429 202.584 154.289C202.43 154.15 202.234 154.065 202.027 154.05L202.075 153.387C202.087 153.311 202.087 153.233 202.075 153.157C202.053 153.063 201.995 152.981 201.913 152.929C201.831 152.877 201.731 152.861 201.637 152.882C201.542 152.904 201.46 152.962 201.409 153.044C201.357 153.127 201.34 153.226 201.362 153.32C201.235 152.993 201.034 152.7 200.773 152.465C200.514 152.289 200.196 152.222 199.887 152.279C199.579 152.335 199.306 152.511 199.126 152.768C198.967 153.039 198.911 153.358 198.97 153.667C199.03 153.975 199.2 154.251 199.448 154.443C199.311 154.403 199.165 154.413 199.034 154.47C198.904 154.528 198.798 154.63 198.735 154.758C198.045 155.998 198.965 156.642 200.014 156.828C201.153 157.01 202.017 157.27 202.648 156.019Z" fill="#FFE9B3"/>
<path d="M207.019 160.158C207.229 159.796 207.311 159.374 207.249 158.96C207.213 158.755 207.109 158.568 206.955 158.429C206.801 158.289 206.605 158.205 206.398 158.189L206.446 157.527C206.458 157.451 206.458 157.373 206.446 157.297C206.424 157.202 206.366 157.12 206.284 157.069C206.202 157.017 206.102 157 206.008 157.022C205.913 157.044 205.831 157.102 205.78 157.184C205.728 157.266 205.711 157.366 205.733 157.46C205.607 157.133 205.405 156.84 205.144 156.605C204.885 156.428 204.567 156.361 204.258 156.418C203.95 156.475 203.677 156.651 203.497 156.908C203.338 157.179 203.282 157.498 203.342 157.806C203.401 158.115 203.571 158.391 203.819 158.583C203.682 158.543 203.536 158.552 203.405 158.61C203.275 158.668 203.169 158.77 203.106 158.898C202.416 160.137 203.336 160.781 204.385 160.968C205.524 161.149 206.388 161.409 207.019 160.158Z" fill="#FFE9B3"/>
<path d="M198.737 161.769C198.948 161.407 199.029 160.984 198.967 160.57C198.931 160.365 198.828 160.179 198.674 160.039C198.52 159.9 198.324 159.815 198.116 159.8L198.165 159.137C198.176 159.061 198.176 158.983 198.165 158.907C198.143 158.813 198.085 158.731 198.003 158.679C197.92 158.627 197.821 158.611 197.727 158.632C197.632 158.654 197.55 158.712 197.498 158.794C197.447 158.877 197.43 158.976 197.452 159.07C197.325 158.743 197.124 158.45 196.863 158.215C196.604 158.039 196.285 157.972 195.977 158.029C195.669 158.085 195.395 158.261 195.216 158.518C195.056 158.789 195.001 159.108 195.06 159.417C195.12 159.725 195.29 160.001 195.538 160.193C195.401 160.153 195.254 160.163 195.124 160.22C194.994 160.278 194.888 160.38 194.825 160.508C194.135 161.748 195.055 162.392 196.104 162.578C197.242 162.76 198.107 163.02 198.737 161.769Z" fill="#FFE9B3"/>
<path d="M196.898 152.338C197.108 151.976 197.19 151.553 197.128 151.139C197.091 150.935 196.988 150.748 196.834 150.608C196.68 150.469 196.484 150.385 196.277 150.369L196.325 149.707C196.337 149.63 196.337 149.553 196.325 149.477C196.303 149.382 196.245 149.3 196.163 149.248C196.081 149.197 195.981 149.18 195.887 149.202C195.792 149.223 195.71 149.282 195.659 149.364C195.607 149.446 195.59 149.545 195.612 149.64C195.485 149.312 195.284 149.019 195.023 148.784C194.764 148.608 194.446 148.541 194.137 148.598C193.829 148.655 193.556 148.831 193.376 149.088C193.217 149.358 193.161 149.678 193.22 149.986C193.28 150.294 193.45 150.57 193.698 150.762C193.561 150.722 193.415 150.732 193.284 150.79C193.154 150.847 193.048 150.949 192.985 151.077C192.295 152.317 193.215 152.961 194.264 153.147C195.403 153.329 196.267 153.589 196.898 152.338Z" fill="#FFE9B3"/>
<path d="M201.726 151.188C201.936 150.827 202.018 150.404 201.956 149.99C201.92 149.785 201.816 149.599 201.662 149.459C201.508 149.32 201.312 149.235 201.105 149.22L201.153 148.557C201.165 148.481 201.165 148.403 201.153 148.327C201.131 148.233 201.073 148.15 200.991 148.099C200.909 148.047 200.809 148.031 200.715 148.052C200.62 148.074 200.538 148.132 200.487 148.214C200.435 148.297 200.418 148.396 200.44 148.49C200.314 148.163 200.112 147.87 199.851 147.635C199.592 147.459 199.274 147.392 198.965 147.448C198.657 147.505 198.384 147.681 198.204 147.938C198.045 148.209 197.989 148.528 198.049 148.837C198.108 149.145 198.278 149.421 198.526 149.613C198.389 149.573 198.243 149.583 198.112 149.64C197.982 149.698 197.876 149.8 197.813 149.928C197.123 151.168 198.043 151.812 199.092 151.998C200.231 152.18 201.096 152.44 201.726 151.188Z" fill="#FFE9B3"/>
<path d="M192.066 155.559C192.276 155.197 192.357 154.774 192.296 154.36C192.259 154.156 192.156 153.969 192.002 153.829C191.848 153.69 191.652 153.605 191.445 153.59L191.493 152.927C191.505 152.851 191.505 152.773 191.493 152.697C191.471 152.603 191.413 152.521 191.331 152.469C191.249 152.418 191.149 152.401 191.055 152.422C190.96 152.444 190.878 152.502 190.827 152.585C190.775 152.667 190.758 152.766 190.78 152.861C190.653 152.533 190.452 152.24 190.191 152.005C189.932 151.829 189.614 151.762 189.305 151.819C188.997 151.875 188.724 152.051 188.544 152.309C188.385 152.579 188.329 152.898 188.388 153.207C188.448 153.515 188.618 153.791 188.866 153.983C188.729 153.943 188.583 153.953 188.452 154.01C188.322 154.068 188.216 154.17 188.153 154.298C187.463 155.538 188.383 156.182 189.432 156.368C190.571 156.55 191.435 156.81 192.066 155.559Z" fill="#FFE9B3"/>
<path d="M188.401 166.109C189.597 166.013 190.777 165.707 191.978 165.723C193.549 165.744 195.06 166.312 196.491 166.96C196.911 167.123 197.296 167.363 197.627 167.669C197.863 167.941 198.034 168.262 198.129 168.609C198.224 168.956 198.239 169.321 198.174 169.675C198.04 170.382 197.759 171.054 197.351 171.648C196.932 172.313 196.415 172.968 195.686 173.258C195.278 173.399 194.85 173.473 194.418 173.477C192.617 173.575 190.782 173.477 189.073 172.899C188.196 172.6 187.366 172.182 186.508 171.827C183.773 170.696 180.815 170.25 177.91 169.679C177.763 169.662 177.622 169.607 177.501 169.52C176.896 168.998 178.209 167.117 178.518 166.59C179.038 165.695 179.509 165.599 180.562 165.573C183.194 165.507 185.763 166.273 188.401 166.109Z" fill="#A0616A"/>
<path d="M208.868 172.474C208.035 172.064 207.288 171.499 206.462 171.073C205.422 170.538 204.279 170.234 203.111 170.183C202.354 170.148 201.531 170.25 200.981 170.772C200.197 171.517 200.291 172.784 200.549 173.835C200.94 175.411 201.726 177.079 203.237 177.674C203.831 177.873 204.452 177.979 205.077 177.989C207.877 178.183 210.791 178.357 213.385 177.299C213.575 177.24 213.738 177.115 213.845 176.947C213.958 176.717 213.845 176.441 213.73 176.209C213.316 175.376 212.661 173.631 211.86 173.111C211.115 172.612 209.797 172.929 208.868 172.474Z" fill="#A0616A"/>
<path opacity="0.1" d="M215.446 159.947C216.979 162.38 218.24 164.974 219.204 167.683C219.474 168.349 219.63 169.056 219.664 169.773C219.664 170.572 219.386 171.344 219.094 172.099C218.163 174.513 217.083 176.867 215.86 179.146C215.492 179.836 215.071 180.556 214.342 180.936C213.576 181.336 212.633 181.274 211.757 181.166C209.561 180.925 207.383 180.54 205.238 180.011C206.588 180.055 207.807 179.043 208.431 177.941C209.054 176.839 209.192 175.579 209.296 174.348C209.39 173.686 209.362 173.011 209.213 172.359C209.126 172.022 208.958 171.711 208.725 171.453C208.492 171.195 208.2 170.997 207.874 170.875C207.812 170.275 208.385 169.771 208.976 169.495C209.567 169.219 210.239 169.065 210.719 168.651C211.428 168.044 211.529 167.029 211.297 166.169C211.064 165.309 210.558 164.532 210.2 163.706C209.696 162.556 212.295 161.346 212.398 160.104C212.421 159.823 212.224 160.334 212.398 160.104C212.573 159.874 213.659 160.672 213.905 160.564C215.522 159.865 214.551 158.526 215.446 159.947Z" fill="#555555"/>
<path d="M215.948 159.947C217.481 162.38 218.742 164.974 219.708 167.683C219.979 168.348 220.135 169.055 220.168 169.773C220.168 170.571 219.89 171.344 219.6 172.099C218.669 174.512 217.589 176.866 216.366 179.146C215.998 179.836 215.577 180.556 214.848 180.936C214.082 181.336 213.137 181.274 212.263 181.166C210.066 180.926 207.888 180.54 205.742 180.011C207.09 180.055 208.311 179.043 208.932 177.941C209.553 176.839 209.696 175.579 209.8 174.348C209.893 173.685 209.865 173.011 209.717 172.359C209.629 172.022 209.461 171.712 209.228 171.454C208.995 171.196 208.704 170.997 208.378 170.875C208.314 170.275 208.889 169.771 209.48 169.495C210.071 169.219 210.743 169.065 211.223 168.651C211.929 168.044 212.031 167.029 211.798 166.169C211.566 165.309 211.06 164.531 210.701 163.706C210.199 162.554 209.989 161.296 210.089 160.044C210.094 159.757 210.179 159.478 210.333 159.237C210.505 159.031 210.725 158.873 210.975 158.777C212.599 158.087 215.053 158.526 215.948 159.947Z" fill="#F98A8D"/>
<path opacity="0.1" d="M166.78 157.666C165.287 159.046 163.746 160.504 163.019 162.406C162.624 163.443 162.493 164.561 162.364 165.665C162.148 167.547 161.952 169.562 162.824 171.241C163.79 173.081 165.814 174.067 167.714 174.902C168.371 175.211 169.052 175.466 169.75 175.666C170.664 175.87 171.596 175.984 172.533 176.006L182.122 176.54C180.87 175.28 180.07 173.306 180.24 171.537C180.394 169.957 181.16 168.508 181.931 167.126C182.331 166.413 182.784 165.663 183.522 165.311C180.398 164.621 177.186 164.419 174 164.713C173.786 164.731 173.54 164.738 173.4 164.568C173.33 164.461 173.298 164.334 173.308 164.207C173.308 162.779 174.375 161.592 174.817 160.235C175.523 158.059 173.119 159.253 170.957 158.505C168.795 157.758 167.222 155.421 166.78 157.666Z" fill="#555555"/>
<path d="M166.089 157.666C164.596 159.046 163.055 160.504 162.328 162.406C161.932 163.443 161.801 164.561 161.673 165.665C161.456 167.547 161.261 169.562 162.133 171.241C163.099 173.081 165.123 174.067 167.023 174.902C167.68 175.211 168.36 175.466 169.058 175.666C169.972 175.87 170.905 175.984 171.841 176.006L181.43 176.54C180.179 175.28 179.379 173.306 179.549 171.537C179.703 169.957 180.469 168.508 181.239 167.126C181.64 166.413 182.093 165.663 182.831 165.311C179.707 164.621 176.495 164.419 173.309 164.713C173.095 164.731 172.849 164.738 172.708 164.568C172.638 164.461 172.606 164.334 172.616 164.207C172.616 162.779 173.684 161.592 174.125 160.235C174.831 158.059 173.603 155.405 171.439 154.652C169.274 153.9 166.53 155.421 166.089 157.666Z" fill="#F98A8D"/>
<path d="M190.17 132.974C196.585 132.974 201.786 130.811 201.786 128.144C201.786 125.476 196.585 123.313 190.17 123.313C183.755 123.313 178.555 125.476 178.555 128.144C178.555 130.811 183.755 132.974 190.17 132.974Z" fill="#666666"/>
<path opacity="0.1" d="M189.94 130.904C184.38 130.904 179.734 129.277 178.593 127.108C178.42 127.426 178.328 127.782 178.324 128.143C178.324 130.812 183.525 132.974 189.94 132.974C196.355 132.974 201.555 130.812 201.555 128.143C201.551 127.782 201.459 127.426 201.286 127.108C200.145 129.277 195.499 130.904 189.94 130.904Z" fill="#555555"/>
<path d="M205.641 131.389C205.277 131.183 204.853 131.108 204.441 131.175C204.237 131.214 204.051 131.319 203.913 131.474C203.775 131.629 203.693 131.826 203.679 132.033L203.017 131.994C202.94 131.986 202.862 131.99 202.787 132.006C202.697 132.034 202.621 132.094 202.573 132.175C202.525 132.257 202.508 132.353 202.527 132.445C202.551 132.536 202.609 132.615 202.689 132.665C202.768 132.716 202.864 132.735 202.957 132.719C202.631 132.849 202.34 133.053 202.108 133.317C201.935 133.578 201.872 133.897 201.932 134.204C201.993 134.511 202.172 134.782 202.43 134.959C202.702 135.116 203.022 135.168 203.329 135.105C203.637 135.043 203.911 134.871 204.1 134.621C204.061 134.758 204.073 134.904 204.132 135.034C204.19 135.164 204.293 135.268 204.422 135.329C205.669 136.003 206.304 135.088 206.474 134.027C206.651 132.875 206.899 132.01 205.641 131.389Z" fill="#FFE9B3"/>
<path opacity="0.15" d="M205.641 131.389C205.277 131.183 204.853 131.108 204.441 131.175C204.237 131.214 204.051 131.319 203.913 131.474C203.775 131.629 203.693 131.826 203.679 132.033L203.017 131.994C202.94 131.986 202.862 131.99 202.787 132.006C202.697 132.034 202.621 132.094 202.573 132.175C202.525 132.257 202.508 132.353 202.527 132.445C202.551 132.536 202.609 132.615 202.689 132.665C202.768 132.716 202.864 132.735 202.957 132.719C202.631 132.849 202.34 133.053 202.108 133.317C201.935 133.578 201.872 133.897 201.932 134.204C201.993 134.511 202.172 134.782 202.43 134.959C202.702 135.116 203.022 135.168 203.329 135.105C203.637 135.043 203.911 134.871 204.1 134.621C204.061 134.758 204.073 134.904 204.132 135.034C204.19 135.164 204.293 135.268 204.422 135.329C205.669 136.003 206.304 135.088 206.474 134.027C206.651 132.875 206.899 132.01 205.641 131.389Z" fill="#555555"/>
<path d="M216.68 148.87C216.316 148.664 215.893 148.589 215.48 148.656C215.276 148.694 215.09 148.799 214.952 148.954C214.814 149.11 214.732 149.307 214.718 149.514L214.056 149.475C213.979 149.467 213.902 149.471 213.826 149.486C213.736 149.514 213.66 149.575 213.612 149.656C213.564 149.737 213.547 149.833 213.566 149.925C213.59 150.017 213.648 150.095 213.728 150.146C213.807 150.197 213.903 150.216 213.996 150.199C213.67 150.329 213.379 150.534 213.147 150.797C212.974 151.058 212.911 151.377 212.971 151.684C213.032 151.992 213.211 152.263 213.469 152.439C213.741 152.596 214.061 152.648 214.368 152.586C214.676 152.524 214.95 152.351 215.139 152.101C215.101 152.238 215.112 152.385 215.171 152.514C215.23 152.644 215.333 152.749 215.461 152.81C216.708 153.484 217.343 152.568 217.513 151.508C217.69 150.356 217.938 149.491 216.68 148.87Z" fill="#FFE9B3"/>
<path opacity="0.15" d="M216.68 148.87C216.316 148.664 215.893 148.589 215.48 148.656C215.276 148.694 215.09 148.799 214.952 148.954C214.814 149.11 214.732 149.307 214.718 149.514L214.056 149.475C213.979 149.467 213.902 149.471 213.826 149.486C213.736 149.514 213.66 149.575 213.612 149.656C213.564 149.737 213.547 149.833 213.566 149.925C213.59 150.017 213.648 150.095 213.728 150.146C213.807 150.197 213.903 150.216 213.996 150.199C213.67 150.329 213.379 150.534 213.147 150.797C212.974 151.058 212.911 151.377 212.971 151.684C213.032 151.992 213.211 152.263 213.469 152.439C213.741 152.596 214.061 152.648 214.368 152.586C214.676 152.524 214.95 152.351 215.139 152.101C215.101 152.238 215.112 152.385 215.171 152.514C215.23 152.644 215.333 152.749 215.461 152.81C216.708 153.484 217.343 152.568 217.513 151.508C217.69 150.356 217.938 149.491 216.68 148.87Z" fill="#555555"/>
<path d="M229.559 167.501C229.195 167.295 228.771 167.219 228.359 167.287C228.154 167.325 227.969 167.43 227.831 167.585C227.693 167.741 227.611 167.937 227.597 168.145L226.935 168.105C226.858 168.098 226.78 168.101 226.705 168.117C226.615 168.145 226.539 168.206 226.491 168.287C226.443 168.368 226.426 168.464 226.445 168.556C226.469 168.647 226.527 168.726 226.607 168.777C226.686 168.827 226.782 168.846 226.875 168.83C226.549 168.96 226.258 169.165 226.026 169.428C225.853 169.689 225.79 170.008 225.85 170.315C225.911 170.623 226.09 170.894 226.348 171.07C226.62 171.227 226.94 171.279 227.247 171.217C227.555 171.155 227.829 170.982 228.018 170.732C227.979 170.869 227.991 171.016 228.049 171.145C228.108 171.275 228.211 171.38 228.34 171.441C229.587 172.115 230.222 171.199 230.392 170.139C230.569 168.986 230.817 168.122 229.559 167.501Z" fill="#FFE9B3"/>
<path opacity="0.15" d="M229.559 167.501C229.195 167.295 228.771 167.219 228.359 167.287C228.154 167.325 227.969 167.43 227.831 167.585C227.693 167.741 227.611 167.937 227.597 168.145L226.935 168.105C226.858 168.098 226.78 168.101 226.705 168.117C226.615 168.145 226.539 168.206 226.491 168.287C226.443 168.368 226.426 168.464 226.445 168.556C226.469 168.647 226.527 168.726 226.607 168.777C226.686 168.827 226.782 168.846 226.875 168.83C226.549 168.96 226.258 169.165 226.026 169.428C225.853 169.689 225.79 170.008 225.85 170.315C225.911 170.623 226.09 170.894 226.348 171.07C226.62 171.227 226.94 171.279 227.247 171.217C227.555 171.155 227.829 170.982 228.018 170.732C227.979 170.869 227.991 171.016 228.049 171.145C228.108 171.275 228.211 171.38 228.34 171.441C229.587 172.115 230.222 171.199 230.392 170.139C230.569 168.986 230.817 168.122 229.559 167.501Z" fill="#555555"/>
<path d="M209.777 126.348C209.987 125.986 210.068 125.563 210.007 125.149C209.97 124.945 209.867 124.758 209.713 124.618C209.559 124.479 209.363 124.394 209.156 124.379L209.204 123.716C209.216 123.64 209.216 123.563 209.204 123.486C209.182 123.392 209.124 123.31 209.042 123.258C208.959 123.207 208.86 123.19 208.766 123.211C208.671 123.233 208.589 123.291 208.537 123.374C208.486 123.456 208.469 123.555 208.491 123.65C208.364 123.322 208.163 123.029 207.902 122.794C207.643 122.618 207.324 122.551 207.016 122.608C206.708 122.664 206.434 122.841 206.255 123.098C206.095 123.368 206.04 123.687 206.099 123.996C206.159 124.304 206.329 124.58 206.577 124.772C206.44 124.732 206.294 124.742 206.163 124.799C206.033 124.857 205.927 124.959 205.864 125.087C205.174 126.327 206.094 126.971 207.143 127.157C208.281 127.339 209.146 127.599 209.777 126.348Z" fill="#FFE9B3"/>
<path d="M208.398 118.297C208.608 117.935 208.69 117.512 208.628 117.098C208.591 116.894 208.488 116.707 208.334 116.567C208.18 116.428 207.984 116.344 207.777 116.328L207.825 115.666C207.837 115.589 207.837 115.512 207.825 115.436C207.803 115.341 207.745 115.259 207.663 115.207C207.581 115.156 207.481 115.139 207.387 115.161C207.292 115.182 207.21 115.241 207.159 115.323C207.107 115.405 207.09 115.504 207.112 115.599C206.985 115.271 206.784 114.978 206.523 114.743C206.264 114.567 205.946 114.5 205.637 114.557C205.329 114.614 205.056 114.79 204.876 115.047C204.717 115.317 204.661 115.637 204.72 115.945C204.78 116.253 204.95 116.529 205.198 116.721C205.061 116.681 204.915 116.691 204.784 116.749C204.654 116.806 204.548 116.908 204.485 117.036C203.795 118.276 204.715 118.92 205.764 119.106C206.903 119.288 207.767 119.548 208.398 118.297Z" fill="#FFE9B3"/>
<path d="M173.895 184.521C173.531 184.315 173.107 184.24 172.695 184.307C172.49 184.345 172.305 184.451 172.167 184.606C172.029 184.761 171.947 184.958 171.933 185.165L171.271 185.126C171.195 185.114 171.117 185.114 171.041 185.126C170.951 185.154 170.875 185.215 170.827 185.296C170.779 185.377 170.762 185.473 170.781 185.565C170.805 185.656 170.863 185.735 170.943 185.786C171.022 185.836 171.118 185.855 171.211 185.839C170.885 185.969 170.594 186.174 170.362 186.437C170.189 186.698 170.126 187.017 170.186 187.324C170.247 187.632 170.425 187.903 170.684 188.079C170.956 188.236 171.276 188.288 171.583 188.226C171.89 188.164 172.165 187.991 172.354 187.741C172.315 187.878 172.326 188.025 172.385 188.154C172.444 188.284 172.547 188.389 172.676 188.45C173.923 189.124 174.558 188.22 174.728 187.148C174.905 186.007 175.153 185.142 173.895 184.521Z" fill="#FFE9B3"/>
<path opacity="0.15" d="M173.895 184.521C173.531 184.315 173.107 184.24 172.695 184.307C172.49 184.345 172.305 184.451 172.167 184.606C172.029 184.761 171.947 184.958 171.933 185.165L171.271 185.126C171.195 185.114 171.117 185.114 171.041 185.126C170.951 185.154 170.875 185.215 170.827 185.296C170.779 185.377 170.762 185.473 170.781 185.565C170.805 185.656 170.863 185.735 170.943 185.786C171.022 185.836 171.118 185.855 171.211 185.839C170.885 185.969 170.594 186.174 170.362 186.437C170.189 186.698 170.126 187.017 170.186 187.324C170.247 187.632 170.425 187.903 170.684 188.079C170.956 188.236 171.276 188.288 171.583 188.226C171.89 188.164 172.165 187.991 172.354 187.741C172.315 187.878 172.326 188.025 172.385 188.154C172.444 188.284 172.547 188.389 172.676 188.45C173.923 189.124 174.558 188.22 174.728 187.148C174.905 186.007 175.153 185.142 173.895 184.521Z" fill="#555555"/>
<path d="M165.616 184.079C165.827 183.717 165.908 183.295 165.846 182.881C165.81 182.676 165.707 182.489 165.553 182.35C165.399 182.21 165.203 182.126 164.995 182.11L165.044 181.448C165.055 181.372 165.055 181.294 165.044 181.218C165.022 181.123 164.964 181.041 164.882 180.99C164.799 180.938 164.7 180.921 164.605 180.943C164.511 180.965 164.429 181.023 164.377 181.105C164.326 181.187 164.309 181.286 164.331 181.381C164.204 181.054 164.002 180.76 163.742 180.525C163.483 180.349 163.164 180.282 162.856 180.339C162.548 180.396 162.274 180.572 162.095 180.829C161.935 181.099 161.88 181.419 161.939 181.727C161.998 182.036 162.168 182.312 162.417 182.503C162.28 182.464 162.133 182.473 162.003 182.531C161.872 182.589 161.767 182.69 161.704 182.819C161.014 184.058 161.934 184.702 162.983 184.889C164.121 185.07 164.986 185.33 165.616 184.079Z" fill="#FFE9B3"/>
<path d="M176.655 171.429C176.866 171.067 176.947 170.644 176.885 170.23C176.849 170.026 176.746 169.839 176.592 169.699C176.438 169.56 176.242 169.476 176.034 169.46L176.083 168.797C176.094 168.721 176.094 168.644 176.083 168.567C176.061 168.473 176.003 168.391 175.921 168.339C175.838 168.288 175.739 168.271 175.645 168.292C175.55 168.314 175.468 168.372 175.416 168.455C175.365 168.537 175.348 168.636 175.37 168.731C175.243 168.403 175.042 168.11 174.781 167.875C174.522 167.699 174.203 167.632 173.895 167.689C173.587 167.746 173.313 167.922 173.134 168.179C172.974 168.449 172.919 168.768 172.978 169.077C173.038 169.385 173.207 169.661 173.456 169.853C173.319 169.813 173.172 169.823 173.042 169.88C172.912 169.938 172.806 170.04 172.743 170.168C172.053 171.408 172.973 172.052 174.022 172.238C175.16 172.42 176.025 172.68 176.655 171.429Z" fill="#FFE9B3"/>
<path d="M158.985 175.606C156.745 175.034 154.413 174.456 152.15 174.916C151.142 175.121 150.19 175.526 149.21 175.836C146.797 176.584 144.247 176.779 141.749 176.405C139.25 176.032 136.868 175.101 134.779 173.681C132.433 172.06 129.995 169.695 127.217 170.337C126.469 170.512 125.777 170.903 125.013 170.988C123.58 171.151 122.253 170.222 120.832 170.003C118.384 169.628 116.16 171.344 114.279 172.954L104.358 181.444C103.606 182.088 102.778 182.939 102.978 183.905C103.284 185.324 105.458 185.515 106.017 186.861C106.421 187.824 105.752 188.947 104.867 189.497C103.981 190.046 102.909 190.187 101.916 190.52C100.414 191.023 99.0686 191.906 98.0094 193.083C96.9502 194.26 96.2135 195.691 95.8709 197.236C95.6961 198.06 95.6409 198.915 95.3166 199.693C94.967 200.539 94.3345 201.234 93.8676 202.021C91.8251 205.448 93.166 209.995 91.6158 213.671C90.7946 215.621 89.1501 217.507 89.6699 219.556C90.1437 221.415 92.1839 222.365 94.0401 222.857C94.2586 224.122 93.8101 225.015 92.89 225.923C100.607 229.095 108.889 232.333 117.075 230.712C119.884 230.158 122.619 229.033 125.48 229.079C127.511 229.111 129.519 229.737 131.545 229.594C135.821 229.293 139.747 225.638 143.89 226.735C142.641 226.82 142.179 228.646 142.915 229.661C143.651 230.675 145.005 230.999 146.252 231.119C147.499 231.239 148.819 231.248 149.9 231.883C149.081 233.587 146.149 234.183 146.432 236.057C146.535 236.734 147.082 237.246 147.625 237.667C153.203 241.939 160.885 241.529 167.866 242.268C173.014 242.806 178.06 244.064 183.192 244.736C191.389 245.805 199.699 245.368 207.952 244.926C209.449 244.846 211.128 244.68 212.092 243.53C213.371 241.998 212.66 239.728 212.499 237.741C211.874 229.964 220.379 224.612 222.762 217.183C223.682 214.282 223.643 211.166 223.478 208.123C223.107 201.259 222.033 194.019 217.658 188.719C214.056 184.349 208.672 181.888 203.31 180.085C199.897 178.935 196.32 177.989 192.73 178.327C186.704 178.895 180.615 183.01 175.052 180.627C173.579 179.997 172.326 178.955 170.927 178.178C167.252 176.101 163.082 176.653 158.985 175.606Z" fill="#1877F2"/>
<g opacity="0.1">
<path opacity="0.1" d="M190.107 238.745C184.975 238.074 179.938 236.823 174.781 236.277C167.794 235.546 160.111 235.955 154.54 231.677C153.998 231.261 153.45 230.757 153.347 230.067C153.064 228.197 155.996 227.597 156.815 225.892C155.734 225.258 154.416 225.251 153.167 225.129C151.918 225.007 150.566 224.685 149.83 223.671C149.094 222.656 149.556 220.83 150.805 220.745C146.665 219.648 142.736 223.303 138.461 223.604C136.434 223.747 134.426 223.121 132.395 223.089C129.534 223.043 126.799 224.167 123.991 224.722C115.805 226.332 107.524 223.112 99.8052 219.933C100.714 219.013 101.167 218.132 100.955 216.867C99.1037 216.375 97.0635 215.425 96.5851 213.566C96.0653 211.517 97.7098 209.631 98.531 207.68C100.081 204 98.7403 199.458 100.783 196.03C101.243 195.244 101.882 194.549 102.232 193.703C102.552 192.925 102.611 192.07 102.786 191.246C102.862 190.886 102.961 190.531 103.085 190.184C102.699 190.289 102.308 190.386 101.935 190.51C100.434 191.013 99.0881 191.896 98.0289 193.073C96.9698 194.25 96.2331 195.681 95.8905 197.226C95.7157 198.05 95.6605 198.906 95.3361 199.683C94.9865 200.529 94.354 201.224 93.8871 202.011C91.8446 205.438 93.1856 209.985 91.6353 213.661C90.8142 215.611 89.1696 217.497 89.6894 219.547C90.1632 221.405 92.2034 222.355 94.0596 222.847C94.2781 224.112 93.8296 225.005 92.9096 225.913C100.629 229.085 108.909 232.324 117.095 230.702C119.903 230.148 122.638 229.023 125.5 229.069C127.531 229.101 129.538 229.727 131.565 229.584C135.841 229.283 139.767 225.628 143.909 226.725C142.66 226.81 142.198 228.637 142.934 229.651C143.67 230.665 145.025 230.989 146.272 231.109C147.518 231.229 148.839 231.238 149.92 231.873C149.101 233.577 146.168 234.173 146.451 236.047C146.555 236.724 147.102 237.237 147.645 237.657C153.223 241.929 160.905 241.519 167.886 242.258C173.033 242.796 178.08 244.054 183.211 244.726C191.409 245.795 199.719 245.358 207.972 244.917C209.469 244.836 211.148 244.67 212.112 243.52C213.112 242.32 212.894 240.668 212.675 239.051C205.14 239.442 197.575 239.721 190.107 238.745Z" fill="#555555"/>
<path opacity="0.1" d="M105.685 186.345C106.595 185.535 107.662 184.921 108.82 184.542C109.814 184.22 110.89 184.066 111.771 183.518C112.652 182.971 113.328 181.846 112.921 180.882C112.362 179.546 110.189 179.346 109.883 177.927C109.742 177.273 110.076 176.673 110.541 176.153L104.356 181.444C103.604 182.088 102.776 182.939 102.976 183.905C103.245 185.119 104.869 185.443 105.685 186.345Z" fill="#555555"/>
</g>
<path d="M126.515 181.779C126.725 181.418 126.806 180.995 126.745 180.581C126.708 180.376 126.605 180.189 126.451 180.05C126.297 179.91 126.101 179.826 125.894 179.81L125.942 179.148C125.95 179.071 125.946 178.994 125.93 178.918C125.909 178.823 125.85 178.741 125.768 178.69C125.686 178.638 125.587 178.621 125.492 178.643C125.398 178.665 125.316 178.723 125.264 178.805C125.212 178.887 125.196 178.987 125.217 179.081C125.091 178.754 124.889 178.461 124.629 178.226C124.369 178.049 124.051 177.982 123.743 178.039C123.434 178.096 123.161 178.272 122.982 178.529C122.822 178.8 122.767 179.119 122.826 179.427C122.885 179.736 123.055 180.012 123.304 180.204C123.167 180.164 123.02 180.173 122.89 180.231C122.759 180.289 122.653 180.391 122.591 180.519C121.901 181.759 122.821 182.403 123.869 182.589C125.02 182.771 125.884 183.03 126.515 181.779Z" fill="#FFE9B3"/>
<path d="M160.097 226.401C160.308 226.04 160.389 225.617 160.327 225.203C160.291 224.998 160.187 224.811 160.033 224.672C159.879 224.532 159.683 224.448 159.476 224.432L159.524 223.77C159.536 223.694 159.536 223.616 159.524 223.54C159.502 223.445 159.444 223.363 159.362 223.312C159.28 223.26 159.181 223.243 159.086 223.265C158.991 223.287 158.909 223.345 158.858 223.427C158.806 223.509 158.789 223.609 158.811 223.703C158.685 223.376 158.483 223.083 158.222 222.848C157.963 222.671 157.645 222.605 157.337 222.661C157.028 222.718 156.755 222.894 156.575 223.151C156.416 223.422 156.36 223.741 156.42 224.049C156.479 224.358 156.649 224.634 156.897 224.826C156.761 224.786 156.614 224.795 156.483 224.853C156.353 224.911 156.247 225.013 156.184 225.141C155.494 226.381 156.414 227.025 157.463 227.211C158.602 227.393 159.467 227.653 160.097 226.401Z" fill="#FFE9B3"/>
<path d="M183.097 182.47C183.308 182.108 183.389 181.685 183.327 181.271C183.291 181.067 183.187 180.88 183.033 180.74C182.879 180.601 182.683 180.517 182.476 180.501L182.524 179.838C182.536 179.762 182.536 179.685 182.524 179.608C182.502 179.514 182.444 179.432 182.362 179.38C182.28 179.329 182.181 179.312 182.086 179.333C181.991 179.355 181.909 179.413 181.858 179.496C181.806 179.578 181.789 179.677 181.811 179.772C181.685 179.444 181.483 179.151 181.222 178.916C180.963 178.74 180.645 178.673 180.337 178.73C180.028 178.787 179.755 178.963 179.575 179.22C179.416 179.49 179.36 179.809 179.42 180.118C179.479 180.426 179.649 180.702 179.897 180.894C179.761 180.854 179.614 180.864 179.483 180.921C179.353 180.979 179.247 181.081 179.184 181.209C178.494 182.449 179.414 183.093 180.463 183.279C181.602 183.461 182.467 183.721 183.097 182.47Z" fill="#FFE9B3"/>
<path d="M187.421 181.964C187.803 181.794 188.116 181.5 188.309 181.129C188.401 180.943 188.428 180.731 188.386 180.528C188.344 180.325 188.236 180.141 188.079 180.006L188.504 179.496C188.559 179.437 188.604 179.371 188.638 179.298C188.676 179.209 188.677 179.108 188.641 179.018C188.604 178.927 188.534 178.855 188.444 178.817C188.355 178.779 188.254 178.778 188.164 178.814C188.074 178.851 188.002 178.921 187.964 179.01C188.053 178.671 188.062 178.316 187.989 177.973C187.882 177.678 187.664 177.437 187.38 177.302C187.097 177.167 186.772 177.15 186.476 177.253C186.188 177.378 185.956 177.604 185.823 177.889C185.691 178.173 185.667 178.496 185.756 178.797C185.668 178.684 185.544 178.606 185.405 178.576C185.266 178.545 185.12 178.565 184.994 178.631C183.711 179.231 184.074 180.285 184.82 181.053C185.625 181.892 186.172 182.608 187.421 181.964Z" fill="#FFE9B3"/>
<path d="M137.555 183.141C137.191 182.935 136.768 182.86 136.355 182.927C136.151 182.966 135.965 183.071 135.827 183.226C135.689 183.381 135.607 183.578 135.593 183.785L134.931 183.746C134.855 183.734 134.777 183.734 134.701 183.746C134.611 183.774 134.535 183.835 134.487 183.916C134.439 183.997 134.422 184.093 134.441 184.185C134.465 184.277 134.523 184.355 134.603 184.406C134.682 184.457 134.778 184.476 134.871 184.459C134.545 184.589 134.254 184.794 134.022 185.057C133.849 185.318 133.786 185.637 133.846 185.944C133.907 186.252 134.086 186.523 134.344 186.699C134.616 186.856 134.936 186.908 135.243 186.846C135.551 186.784 135.825 186.611 136.014 186.361C135.976 186.498 135.987 186.645 136.046 186.774C136.105 186.904 136.208 187.009 136.336 187.07C137.583 187.744 138.218 186.84 138.388 185.768C138.565 184.627 138.813 183.762 137.555 183.141Z" fill="#FFE9B3"/>
<path opacity="0.15" d="M137.555 183.141C137.191 182.935 136.768 182.86 136.355 182.927C136.151 182.966 135.965 183.071 135.827 183.226C135.689 183.381 135.607 183.578 135.593 183.785L134.931 183.746C134.855 183.734 134.777 183.734 134.701 183.746C134.611 183.774 134.535 183.835 134.487 183.916C134.439 183.997 134.422 184.093 134.441 184.185C134.465 184.277 134.523 184.355 134.603 184.406C134.682 184.457 134.778 184.476 134.871 184.459C134.545 184.589 134.254 184.794 134.022 185.057C133.849 185.318 133.786 185.637 133.846 185.944C133.907 186.252 134.086 186.523 134.344 186.699C134.616 186.856 134.936 186.908 135.243 186.846C135.551 186.784 135.825 186.611 136.014 186.361C135.976 186.498 135.987 186.645 136.046 186.774C136.105 186.904 136.208 187.009 136.336 187.07C137.583 187.744 138.218 186.84 138.388 185.768C138.565 184.627 138.813 183.762 137.555 183.141Z" fill="#555555"/>
<path d="M158.037 200.252C158.107 199.84 158.038 199.416 157.839 199.049C157.735 198.869 157.573 198.729 157.381 198.651C157.188 198.573 156.974 198.562 156.774 198.619L156.59 197.979C156.572 197.898 156.541 197.821 156.498 197.749C156.445 197.668 156.362 197.611 156.267 197.591C156.172 197.571 156.072 197.589 155.991 197.642C155.909 197.696 155.852 197.779 155.832 197.874C155.812 197.969 155.831 198.068 155.884 198.15C155.653 197.885 155.363 197.678 155.038 197.547C154.733 197.471 154.411 197.518 154.142 197.678C153.872 197.838 153.676 198.097 153.595 198.4C153.539 198.709 153.597 199.028 153.759 199.297C153.92 199.566 154.175 199.766 154.474 199.861C154.332 199.87 154.197 199.93 154.095 200.029C153.992 200.128 153.928 200.26 153.913 200.401C153.683 201.802 154.768 202.094 155.824 201.901C156.974 201.692 157.871 201.632 158.037 200.252Z" fill="#FFE9B3"/>
<path opacity="0.15" d="M158.037 200.252C158.107 199.84 158.038 199.416 157.839 199.049C157.735 198.869 157.573 198.729 157.381 198.651C157.188 198.573 156.974 198.562 156.774 198.619L156.59 197.979C156.572 197.898 156.541 197.821 156.498 197.749C156.445 197.668 156.362 197.611 156.267 197.591C156.172 197.571 156.072 197.589 155.991 197.642C155.909 197.696 155.852 197.779 155.832 197.874C155.812 197.969 155.831 198.068 155.884 198.15C155.653 197.885 155.363 197.678 155.038 197.547C154.733 197.471 154.411 197.518 154.142 197.678C153.872 197.838 153.676 198.097 153.595 198.4C153.539 198.709 153.597 199.028 153.759 199.297C153.92 199.566 154.175 199.766 154.474 199.861C154.332 199.87 154.197 199.93 154.095 200.029C153.992 200.128 153.928 200.26 153.913 200.401C153.683 201.802 154.768 202.094 155.824 201.901C156.974 201.692 157.871 201.632 158.037 200.252Z" fill="#555555"/>
<path d="M185.638 179.32C185.709 178.908 185.639 178.485 185.441 178.117C185.336 177.937 185.175 177.797 184.982 177.719C184.789 177.641 184.576 177.63 184.376 177.687L184.192 177.048C184.174 176.967 184.142 176.889 184.1 176.818C184.073 176.777 184.039 176.743 184 176.715C183.96 176.688 183.915 176.669 183.868 176.659C183.821 176.649 183.773 176.649 183.725 176.658C183.678 176.666 183.633 176.685 183.592 176.711C183.552 176.737 183.517 176.771 183.49 176.811C183.463 176.85 183.444 176.895 183.434 176.942C183.424 176.989 183.423 177.038 183.432 177.085C183.441 177.133 183.459 177.178 183.486 177.218C183.255 176.953 182.965 176.747 182.639 176.615C182.335 176.54 182.013 176.587 181.743 176.746C181.473 176.906 181.277 177.166 181.197 177.469C181.14 177.777 181.198 178.096 181.36 178.365C181.522 178.634 181.776 178.835 182.076 178.929C181.933 178.939 181.799 178.998 181.696 179.097C181.594 179.196 181.529 179.328 181.514 179.47C181.284 180.871 182.37 181.163 183.426 180.969C184.576 180.76 185.473 180.7 185.638 179.32Z" fill="#FFE9B3"/>
<path opacity="0.15" d="M185.638 179.32C185.709 178.908 185.639 178.485 185.441 178.117C185.336 177.937 185.175 177.797 184.982 177.719C184.789 177.641 184.576 177.63 184.376 177.687L184.192 177.048C184.174 176.967 184.142 176.889 184.1 176.818C184.073 176.777 184.039 176.743 184 176.715C183.96 176.688 183.915 176.669 183.868 176.659C183.821 176.649 183.773 176.649 183.725 176.658C183.678 176.666 183.633 176.685 183.592 176.711C183.552 176.737 183.517 176.771 183.49 176.811C183.463 176.85 183.444 176.895 183.434 176.942C183.424 176.989 183.423 177.038 183.432 177.085C183.441 177.133 183.459 177.178 183.486 177.218C183.255 176.953 182.965 176.747 182.639 176.615C182.335 176.54 182.013 176.587 181.743 176.746C181.473 176.906 181.277 177.166 181.197 177.469C181.14 177.777 181.198 178.096 181.36 178.365C181.522 178.634 181.776 178.835 182.076 178.929C181.933 178.939 181.799 178.998 181.696 179.097C181.594 179.196 181.529 179.328 181.514 179.47C181.284 180.871 182.37 181.163 183.426 180.969C184.576 180.76 185.473 180.7 185.638 179.32Z" fill="#555555"/>
</svg>
