<svg width="1248" height="320" viewBox="0 0 1248 320" fill="none" xmlns="http://www.w3.org/2000/svg">
<mask id="mask0_44_502" style="mask-type:alpha" maskUnits="userSpaceOnUse" x="0" y="0" width="1248" height="320">
<rect width="1248" height="320" rx="24" fill="#0066F9"/>
</mask>
<g mask="url(#mask0_44_502)">
<path d="M993.843 122.928C1027.76 122.928 1055.26 95.4298 1055.26 61.5092C1055.26 27.5887 1027.76 0.0906219 993.843 0.0906219C959.922 0.0906219 932.424 27.5887 932.424 61.5092C932.424 95.4298 959.922 122.928 993.843 122.928Z" fill="#1474FF"/>
<path d="M993.843 -40C939.193 -40 894.894 4.29915 894.894 58.9491C894.894 113.599 939.193 157.898 993.843 157.898C1048.49 157.898 1092.79 113.599 1092.79 58.9491C1092.79 4.29915 1048.49 -40 993.843 -40ZM934.133 87.9525C917.88 87.9525 904.704 74.776 904.704 58.5233C904.704 42.2706 917.88 29.094 934.133 29.094C950.386 29.094 963.562 42.2706 963.562 58.5233C963.562 74.776 950.386 87.9525 934.133 87.9525ZM993.843 147.663C977.59 147.663 964.414 134.486 964.414 118.233C964.414 101.981 977.59 88.8042 993.843 88.8042C1010.1 88.8042 1023.27 101.981 1023.27 118.233C1023.27 134.486 1010.1 147.663 993.843 147.663ZM978.918 58.9491C978.918 50.7025 985.602 44.0191 993.848 44.0191C1002.09 44.0191 1008.78 50.7025 1008.78 58.9491C1008.78 67.1957 1002.09 73.8792 993.848 73.8792C985.602 73.8792 978.918 67.1957 978.918 58.9491ZM993.843 28.2423C977.59 28.2423 964.414 15.0658 964.414 -1.1869C964.414 -17.4396 977.59 -30.6161 993.843 -30.6161C1010.1 -30.6161 1023.27 -17.4396 1023.27 -1.1869C1023.27 15.0658 1010.1 28.2423 993.843 28.2423ZM1053.55 87.9525C1037.3 87.9525 1024.12 74.776 1024.12 58.5233C1024.12 42.2706 1037.3 29.094 1053.55 29.094C1069.81 29.094 1082.98 42.2706 1082.98 58.5233C1082.98 74.776 1069.81 87.9525 1053.55 87.9525Z" fill="#257EFF"/>
<path d="M1185.86 127.933C1219.78 127.933 1247.28 100.435 1247.28 66.5143C1247.28 32.5937 1219.78 5.09572 1185.86 5.09572C1151.94 5.09572 1124.44 32.5937 1124.44 66.5143C1124.44 100.435 1151.94 127.933 1185.86 127.933Z" fill="#1474FF"/>
<path d="M1185.86 -34.9899C1131.21 -34.9899 1086.91 9.30922 1086.91 63.9592C1086.91 118.609 1131.21 162.908 1185.86 162.908C1240.51 162.908 1284.81 118.609 1284.81 63.9592C1284.81 9.30922 1240.51 -34.9899 1185.86 -34.9899ZM1126.15 92.9576C1109.9 92.9576 1096.72 79.7811 1096.72 63.5283C1096.72 47.2756 1109.9 34.0991 1126.15 34.0991C1142.41 34.0991 1155.58 47.2756 1155.58 63.5283C1155.58 79.7861 1142.41 92.9576 1126.15 92.9576ZM1185.86 152.668C1169.61 152.668 1156.43 139.491 1156.43 123.238C1156.43 106.986 1169.61 93.8092 1185.86 93.8092C1202.12 93.8092 1215.29 106.986 1215.29 123.238C1215.29 139.491 1202.12 152.668 1185.86 152.668ZM1170.94 63.9592C1170.94 55.7126 1177.62 49.0292 1185.87 49.0292C1194.12 49.0292 1200.8 55.7126 1200.8 63.9592C1200.8 72.2058 1194.12 78.8892 1185.87 78.8892C1177.62 78.8842 1170.94 72.2008 1170.94 63.9592ZM1185.86 33.2474C1169.61 33.2474 1156.43 20.0709 1156.43 3.81815C1156.43 -12.4346 1169.61 -25.6111 1185.86 -25.6111C1202.12 -25.6111 1215.29 -12.4346 1215.29 3.81815C1215.29 20.0759 1202.12 33.2474 1185.86 33.2474ZM1245.57 92.9576C1229.32 92.9576 1216.14 79.7811 1216.14 63.5283C1216.14 47.2756 1229.32 34.0991 1245.57 34.0991C1261.83 34.0991 1275 47.2756 1275 63.5283C1275 79.7861 1261.83 92.9576 1245.57 92.9576Z" fill="#257EFF"/>
<path d="M1276.38 155.589H911.643V360H1276.38V155.589Z" fill="#0760DF"/>
<path d="M893.035 206.702L841 192.663V328.437L887.238 320.015C917.95 314.418 939.879 289.999 939.433 261.878C939.032 236.371 920.254 214.041 893.035 206.702Z" fill="#1474FF"/>
<path d="M1276.38 155.589H1065.62C1081.78 216.526 1098.57 275.635 1115.53 334.449H1276.38V155.589Z" fill="#1474FF"/>
<path opacity="0.25" d="M1276.38 155.589H1065.62C1081.78 216.526 1098.57 275.635 1115.53 334.449H1276.38V155.589Z" fill="#0760DF"/>
<path d="M911.643 155.589V334.449H1115.53C1098.57 275.635 1081.79 216.526 1065.62 155.589H911.643Z" fill="#1474FF"/>
<path opacity="0.25" d="M1072.47 301.883H951.222C947.915 301.883 945.209 299.178 945.209 295.871V247.774C945.209 244.467 947.915 241.762 951.222 241.762H1072.47C1075.77 241.762 1078.48 244.467 1078.48 247.774V295.871C1078.48 299.178 1075.77 301.883 1072.47 301.883Z" fill="#0760DF"/>
<path opacity="0.25" d="M939.448 198.675C943.737 198.675 947.213 195.199 947.213 190.91C947.213 186.621 943.737 183.144 939.448 183.144C935.159 183.144 931.682 186.621 931.682 190.91C931.682 195.199 935.159 198.675 939.448 198.675Z" fill="#0760DF"/>
<path opacity="0.25" d="M964.499 198.675C968.787 198.675 972.264 195.199 972.264 190.91C972.264 186.621 968.787 183.144 964.499 183.144C960.21 183.144 956.733 186.621 956.733 190.91C956.733 195.199 960.21 198.675 964.499 198.675Z" fill="#0760DF"/>
<path opacity="0.25" d="M989.549 198.675C993.838 198.675 997.314 195.199 997.314 190.91C997.314 186.621 993.838 183.144 989.549 183.144C985.26 183.144 981.783 186.621 981.783 190.91C981.783 195.199 985.26 198.675 989.549 198.675Z" fill="#0760DF"/>
<path d="M1042.58 174.447L1033.2 179.351C1030.27 180.885 1026.61 179.742 1025.08 176.811L1005.32 139.045C1003.79 136.114 1004.93 132.462 1007.86 130.929L1017.24 126.024C1020.17 124.491 1023.82 125.633 1025.36 128.564L1045.12 166.33C1046.65 169.261 1045.51 172.914 1042.58 174.447Z" fill="#1474FF"/>
</g>
</svg>
