<svg width="278" height="250" viewBox="0 0 278 250" fill="none" xmlns="http://www.w3.org/2000/svg">
<path d="M95.5267 0C61.3705 0 33.6836 27.6869 33.6836 61.8431C33.6836 95.9993 61.3705 123.686 95.5267 123.686C129.683 123.686 157.37 95.9993 157.37 61.8431C157.37 27.6869 129.683 0 95.5267 0ZM58.2079 79.9702C48.05 79.9702 39.8147 71.7349 39.8147 61.577C39.8147 51.419 48.05 43.1837 58.2079 43.1837C68.3658 43.1837 76.6012 51.419 76.6012 61.577C76.6012 71.7349 68.3658 79.9702 58.2079 79.9702ZM95.5267 117.289C85.3688 117.289 77.1335 109.054 77.1335 98.8958C77.1335 88.7378 85.3688 80.5025 95.5267 80.5025C105.685 80.5025 113.92 88.7378 113.92 98.8958C113.92 109.054 105.685 117.289 95.5267 117.289ZM86.1986 61.8431C86.1986 56.689 90.3757 52.5119 95.5299 52.5119C100.684 52.5119 104.861 56.689 104.861 61.8431C104.861 66.9972 100.684 71.1744 95.5299 71.1744C90.3757 71.1744 86.1986 66.9972 86.1986 61.8431ZM95.5267 42.6514C85.3688 42.6514 77.1335 34.4161 77.1335 24.2582C77.1335 14.1002 85.3688 5.86491 95.5267 5.86491C105.685 5.86491 113.92 14.1002 113.92 24.2582C113.92 34.4161 105.685 42.6514 95.5267 42.6514ZM132.846 79.9702C122.688 79.9702 114.452 71.7349 114.452 61.577C114.452 51.419 122.688 43.1837 132.846 43.1837C143.003 43.1837 151.239 51.419 151.239 61.577C151.239 71.7349 143.003 79.9702 132.846 79.9702Z" fill="#212121"/>
<path d="M215.539 3.13086C181.383 3.13086 153.696 30.8178 153.696 64.974C153.696 99.1302 181.383 126.817 215.539 126.817C249.696 126.817 277.383 99.1302 277.383 64.974C277.383 30.8178 249.696 3.13086 215.539 3.13086ZM178.221 83.0979C168.063 83.0979 159.827 74.8626 159.827 64.7047C159.827 54.5468 168.063 46.3114 178.221 46.3114C188.379 46.3114 196.614 54.5468 196.614 64.7047C196.614 74.8658 188.379 83.0979 178.221 83.0979ZM215.539 120.417C205.381 120.417 197.146 112.181 197.146 102.023C197.146 91.8656 205.381 83.6302 215.539 83.6302C225.697 83.6302 233.933 91.8656 233.933 102.023C233.933 112.181 225.697 120.417 215.539 120.417ZM206.211 64.974C206.211 59.8199 210.388 55.6427 215.543 55.6427C220.697 55.6427 224.874 59.8199 224.874 64.974C224.874 70.1281 220.697 74.3052 215.543 74.3052C210.388 74.3021 206.211 70.125 206.211 64.974ZM215.539 45.7791C205.381 45.7791 197.146 37.5438 197.146 27.3859C197.146 17.2279 205.381 8.99264 215.539 8.99264C225.697 8.99264 233.933 17.2279 233.933 27.3859C233.933 37.5469 225.697 45.7791 215.539 45.7791ZM252.858 83.0979C242.7 83.0979 234.465 74.8626 234.465 64.7047C234.465 54.5468 242.7 46.3114 252.858 46.3114C263.016 46.3114 271.251 54.5468 271.251 64.7047C271.251 74.8658 263.019 83.0979 252.858 83.0979Z" fill="#212121"/>
<path d="M272.11 122.243H44.1519V250H272.11V122.243Z" fill="#212121"/>
<path d="M32.5216 154.188L0 145.414V230.272L28.8987 225.009C48.0936 221.511 61.7993 206.249 61.5206 188.673C61.2701 172.732 49.534 158.775 32.5216 154.188Z" fill="#212121"/>
<path d="M272.11 122.243H140.385C150.49 160.329 160.98 197.272 171.582 234.03H272.11V122.243Z" fill="#212121"/>
<path opacity="0.25" d="M272.11 122.243H140.385C150.49 160.329 160.98 197.272 171.582 234.03H272.11V122.243Z" fill="#212121"/>
<path d="M44.1519 122.243V234.03H171.583C160.981 197.272 150.491 160.329 140.386 122.243H44.1519Z" fill="#212121"/>
<path opacity="0.25" d="M144.666 213.676H68.8882C66.8215 213.676 65.1306 211.985 65.1306 209.919V179.858C65.1306 177.791 66.8215 176.101 68.8882 176.101H144.666C146.732 176.101 148.423 177.791 148.423 179.858V209.919C148.423 211.985 146.732 213.676 144.666 213.676Z" fill="#212121"/>
<path opacity="0.25" d="M61.5298 149.172C64.2103 149.172 66.3833 146.999 66.3833 144.318C66.3833 141.638 64.2103 139.465 61.5298 139.465C58.8493 139.465 56.6763 141.638 56.6763 144.318C56.6763 146.999 58.8493 149.172 61.5298 149.172Z" fill="#212121"/>
<path opacity="0.25" d="M77.1863 149.172C79.8668 149.172 82.0398 146.999 82.0398 144.318C82.0398 141.638 79.8668 139.465 77.1863 139.465C74.5058 139.465 72.3328 141.638 72.3328 144.318C72.3328 146.999 74.5058 149.172 77.1863 149.172Z" fill="#212121"/>
<path opacity="0.25" d="M92.8433 149.172C95.5238 149.172 97.6968 146.999 97.6968 144.318C97.6968 141.638 95.5238 139.465 92.8433 139.465C90.1627 139.465 87.9897 141.638 87.9897 144.318C87.9897 146.999 90.1627 149.172 92.8433 149.172Z" fill="#212121"/>
</svg>
