<svg width="15" height="14" viewBox="0 0 15 14" fill="none" xmlns="http://www.w3.org/2000/svg">
<path d="M6.46396 1.81663C6.8308 1.07346 7.89054 1.07346 8.25738 1.81663L9.40267 4.13687C9.54821 4.43172 9.8294 4.63618 10.1548 4.68373L12.7176 5.05833C13.5375 5.17817 13.8643 6.18601 13.2707 6.76417L11.4178 8.56886C11.1819 8.7986 11.0743 9.12974 11.1299 9.45427L11.567 12.0026C11.7071 12.8196 10.8496 13.4426 10.1159 13.0567L7.82612 11.8526C7.53474 11.6993 7.1866 11.6993 6.89522 11.8526L4.60541 13.0567C3.87178 13.4426 3.01423 12.8196 3.15435 12.0026L3.59142 9.45427C3.64708 9.12974 3.53942 8.7986 3.30355 8.56886L1.45068 6.76417C0.857086 6.18601 1.18387 5.17817 2.00378 5.05833L4.56659 4.68373C4.89195 4.63618 5.17313 4.43172 5.31867 4.13687L6.46396 1.81663Z" fill="#2DB482"/>
<path d="M13.7348 3.5L7.90152 9.33333L5.25 6.68182" fill="#2DB482"/>
<path d="M13.7348 3.5L7.90152 9.33333L5.25 6.68182" stroke="white" stroke-width="1.5" stroke-linecap="round" stroke-linejoin="round"/>
</svg>
