<svg width="14" height="14" viewBox="0 0 14 14" fill="none" xmlns="http://www.w3.org/2000/svg">
<path d="M10.5437 0H2.5375C2.40625 0 2.31875 0.0875 2.31875 0.21875V0.940625H0.21875C0.0875 0.940625 0 1.05 0 1.15938C0 4.025 1.70625 6.51875 4.04687 7.10938C4.55 7.59062 5.1625 7.9625 5.84062 8.20312V9.95312H5.22812C4.725 9.95312 4.2875 10.3687 4.2875 10.8938V12.6H3.9375C3.54375 12.6 3.2375 12.9062 3.2375 13.3C3.2375 13.6937 3.54375 14 3.9375 14H9.12187C9.51562 14 9.82187 13.6937 9.82187 13.3C9.82187 12.9062 9.51562 12.6 9.12187 12.6H8.77187V10.8938C8.77187 10.3906 8.35625 9.95312 7.83125 9.95312H7.24062V8.20312C7.91875 7.9625 8.50937 7.59062 9.03438 7.10938C11.375 6.51875 13.0594 4.025 13.0813 1.15938C13.0813 1.02813 12.9937 0.940625 12.8625 0.940625H10.7406V0.21875C10.7625 0.0875 10.6531 0 10.5437 0ZM0.4375 1.37813H2.31875C2.42812 2.51562 1.90312 4.44062 3.4125 6.43125C1.70625 5.62187 0.525 3.65313 0.4375 1.37813ZM9.12187 13.0375C9.275 13.0375 9.38437 13.1469 9.38437 13.3C9.38437 13.4531 9.275 13.5625 9.12187 13.5625H3.9375C3.78437 13.5625 3.675 13.4531 3.675 13.3C3.675 13.1469 3.78437 13.0375 3.9375 13.0375C4.55 13.0375 8.55312 13.0375 9.12187 13.0375ZM7.85312 10.3906C8.11562 10.3906 8.35625 10.6094 8.35625 10.8938V12.6H4.725V10.8938C4.725 10.6312 4.94375 10.3906 5.22812 10.3906H7.85312ZM6.25625 9.95312V8.35625C6.34375 8.37813 6.40937 8.4 6.49687 8.42188C6.51875 8.42188 6.51875 8.42188 6.54062 8.42188C6.5625 8.42188 6.5625 8.42188 6.58437 8.42188C6.67187 8.4 6.7375 8.37813 6.825 8.35625V9.95312H6.25625ZM6.54062 7.98438C4.35312 7.48125 2.75625 5.49062 2.75625 3.2375C2.75625 2.5375 2.75625 1.1375 2.75625 0.4375H10.3031C10.3031 1.50937 10.3031 3.25937 10.3031 3.2375C10.325 5.49062 8.72812 7.48125 6.54062 7.98438ZM12.6438 1.37813C12.5562 3.63125 11.375 5.62187 9.66875 6.43125C11.1781 4.44062 10.6531 2.55938 10.7625 1.37813H12.6438Z" fill="#F4BB2F"/>
<path d="M8.53164 3.08435L7.28477 2.90935L6.73789 1.79373C6.69414 1.7281 6.62852 1.66248 6.54102 1.66248C6.45352 1.66248 6.38789 1.70623 6.34414 1.79373L5.79727 2.90935L4.55039 3.08435C4.46289 3.10623 4.39727 3.14998 4.37539 3.23748C4.35352 3.32498 4.37539 3.41248 4.44102 3.45623L5.33789 4.33123L5.11914 5.55623C5.09727 5.73123 5.27227 5.86248 5.44727 5.79685L6.56289 5.20623L7.67852 5.79685C7.85352 5.88435 8.07227 5.70935 7.98477 5.53435L7.78789 4.3531L8.68477 3.4781C8.75039 3.41248 8.77227 3.32498 8.75039 3.25935C8.68477 3.14998 8.61914 3.08435 8.53164 3.08435ZM7.37227 4.0906C7.32852 4.13435 7.30664 4.22185 7.30664 4.28748L7.45977 5.20623L6.65039 4.76873C6.58477 4.72498 6.51914 4.72498 6.45352 4.76873L5.64414 5.20623L5.79727 4.28748C5.81914 4.22185 5.77539 4.13435 5.73164 4.0906L5.07539 3.45623L5.99414 3.32498C6.05977 3.32498 6.12539 3.25935 6.16914 3.2156L6.58477 2.38435L7.00039 3.2156C7.02227 3.28123 7.08789 3.32498 7.17539 3.32498L8.09414 3.45623L7.37227 4.0906Z" fill="#F4BB2F"/>
</svg>
