<svg width="11" height="14" viewBox="0 0 11 14" fill="none" xmlns="http://www.w3.org/2000/svg">
<path d="M10.8889 14L5.44444 10.1111L0 14V1.55556C0 1.143 0.163888 0.747335 0.455612 0.455612C0.747335 0.163888 1.143 0 1.55556 0H9.33333C9.74589 0 10.1416 0.163888 10.4333 0.455612C10.725 0.747335 10.8889 1.143 10.8889 1.55556V14Z" fill="#D90000"/>
<path d="M4.98198 2.07494C5.1654 1.70336 5.69527 1.70336 5.87869 2.07494L6.45134 3.23506C6.52411 3.38249 6.6647 3.48471 6.82738 3.50849L8.10878 3.69579C8.51874 3.75571 8.68213 4.25963 8.38533 4.54871L7.4589 5.45106C7.34096 5.56593 7.28713 5.73149 7.31496 5.89376L7.5335 7.16794C7.60356 7.57642 7.17478 7.8879 6.80797 7.695L5.66306 7.0929C5.51737 7.01629 5.3433 7.01629 5.19761 7.09291L4.0527 7.695C3.68589 7.8879 3.25712 7.57642 3.32717 7.16794L3.54571 5.89376C3.57354 5.73149 3.51971 5.56593 3.40177 5.45106L2.47534 4.54871C2.17854 4.25963 2.34193 3.75571 2.75189 3.69579L4.0333 3.50849C4.19597 3.48471 4.33657 3.38249 4.40934 3.23506L4.98198 2.07494Z" fill="white"/>
</svg>
