<svg width="14" height="14" viewBox="0 0 14 14" fill="none" xmlns="http://www.w3.org/2000/svg">
<rect width="14" height="14" rx="4" fill="#F2D01B"/>
<path d="M6.76883 3.70836C6.95225 3.33678 7.48212 3.33678 7.66554 3.70836L8.46563 5.32926C8.5384 5.47669 8.67899 5.57892 8.84167 5.60269L10.6317 5.86433C11.0417 5.92425 11.205 6.42817 10.9082 6.71725L9.61378 7.97807C9.49584 8.09294 9.44201 8.2585 9.46984 8.42077L9.77524 10.2014C9.8453 10.6098 9.41652 10.9213 9.04971 10.7284L7.44991 9.88711C7.30422 9.81049 7.13015 9.81049 6.98446 9.88711L5.38466 10.7284C5.01785 10.9213 4.58907 10.6098 4.65913 10.2014L4.96453 8.42077C4.99236 8.2585 4.93853 8.09294 4.82059 7.97807L3.52612 6.71725C3.22932 6.42817 3.39272 5.92425 3.80267 5.86433L5.5927 5.60269C5.75538 5.57892 5.89597 5.47669 5.96874 5.32926L6.76883 3.70836Z" fill="white"/>
</svg>
