<svg width="329" height="228" viewBox="0 0 329 228" fill="none" xmlns="http://www.w3.org/2000/svg">
<path d="M62.3086 48.9462C72.6683 48.9462 81.0664 40.548 81.0664 30.1884C81.0664 19.8287 72.6683 11.4305 62.3086 11.4305C51.9489 11.4305 43.5508 19.8287 43.5508 30.1884C43.5508 40.548 51.9489 48.9462 62.3086 48.9462Z" fill="#FF6584"/>
<path d="M153.572 100.566C153.572 144.826 127.26 160.28 94.8025 160.28C62.3451 160.28 36.0332 144.826 36.0332 100.566C36.0332 56.3058 94.8025 0 94.8025 0C94.8025 0 153.572 56.3058 153.572 100.566Z" fill="#F2F2F2"/>
<path d="M92.6615 153.51L93.2635 116.468L118.312 70.6419L93.3579 110.657L93.6284 94.0016L110.892 60.8471L93.6999 89.5941L94.1865 59.6384L112.673 33.2432L94.2632 54.9279L94.5672 0L92.6562 72.7147L92.8133 69.7149L74.0183 40.946L92.512 75.4732L90.7608 108.928L90.7086 108.041L69.041 77.7655L90.643 111.178L90.424 115.361L90.3848 115.424L90.4027 115.768L85.9597 200.647H91.896L92.6082 156.805L114.157 123.475L92.6615 153.51Z" fill="#3F3D56"/>
<path d="M328.436 118.693C328.436 154.922 306.898 167.572 280.33 167.572C253.762 167.572 232.225 154.922 232.225 118.693C232.225 82.4645 280.33 36.3755 280.33 36.3755C280.33 36.3755 328.436 82.4645 328.436 118.693Z" fill="#F2F2F2"/>
<path d="M278.577 162.03L279.069 131.71L299.573 94.1994L279.147 126.953L279.368 113.32L293.499 86.1816L279.427 109.712L279.825 85.1924L294.957 63.5866L279.888 81.3368L280.137 36.3755L278.572 95.8958L278.701 93.4406L263.316 69.8916L278.454 98.1541L277.021 125.539L276.978 124.812L259.242 100.03L276.924 127.38L276.745 130.804L276.713 130.856L276.728 131.137L273.091 200.614H277.95L278.533 164.728L296.172 137.446L278.577 162.03Z" fill="#3F3D56"/>
<path d="M162.546 207.659C252.318 207.659 325.092 203.98 325.092 199.442C325.092 194.904 252.318 191.226 162.546 191.226C72.7743 191.226 0 194.904 0 199.442C0 203.98 72.7743 207.659 162.546 207.659Z" fill="#3F3D56"/>
<path d="M261.567 214.425C276.943 214.425 289.407 213.795 289.407 213.018C289.407 212.24 276.943 211.61 261.567 211.61C246.191 211.61 233.727 212.24 233.727 213.018C233.727 213.795 246.191 214.425 261.567 214.425Z" fill="#3F3D56"/>
<path d="M160.825 228C176.2 228 188.665 227.37 188.665 226.593C188.665 225.815 176.2 225.185 160.825 225.185C145.449 225.185 132.984 225.815 132.984 226.593C132.984 227.37 145.449 228 160.825 228Z" fill="#3F3D56"/>
<path d="M84.394 218.426C119.522 218.426 147.999 216.986 147.999 215.211C147.999 213.435 119.522 211.995 84.394 211.995C49.266 211.995 20.7891 213.435 20.7891 215.211C20.7891 216.986 49.266 218.426 84.394 218.426Z" fill="#3F3D56"/>
<path d="M28.455 189.123C41.2427 189.123 51.6091 178.756 51.6091 165.969C51.6091 153.181 41.2427 142.814 28.455 142.814C15.6673 142.814 5.30078 153.181 5.30078 165.969C5.30078 178.756 15.6673 189.123 28.455 189.123Z" fill="#2F2E41"/>
<path d="M24.7231 184.097L17.6895 184.015L17.541 196.617L24.5747 196.699L24.7231 184.097Z" fill="#2F2E41"/>
<path d="M38.7915 184.263L31.7578 184.18L31.6093 196.782L38.643 196.865L38.7915 184.263Z" fill="#2F2E41"/>
<path d="M29.2624 196.901C29.2767 195.687 26.664 194.672 23.4269 194.634C20.1897 194.596 17.5539 195.549 17.5396 196.763C17.5253 197.977 20.1379 198.992 23.3751 199.03C26.6122 199.068 29.2481 198.115 29.2624 196.901Z" fill="#2F2E41"/>
<path d="M43.3327 196.774C43.347 195.56 40.7344 194.545 37.4972 194.507C34.26 194.469 31.6242 195.422 31.6099 196.636C31.5956 197.85 34.2082 198.865 37.4454 198.903C40.6826 198.941 43.3184 197.988 43.3327 196.774Z" fill="#2F2E41"/>
<path d="M29.1088 168.027C33.4792 168.027 37.0222 164.484 37.0222 160.114C37.0222 155.744 33.4792 152.201 29.1088 152.201C24.7383 152.201 21.1953 155.744 21.1953 160.114C21.1953 164.484 24.7383 168.027 29.1088 168.027Z" fill="white"/>
<path d="M29.1085 162.752C30.5653 162.752 31.7463 161.571 31.7463 160.114C31.7463 158.657 30.5653 157.476 29.1085 157.476C27.6517 157.476 26.4707 158.657 26.4707 160.114C26.4707 161.571 27.6517 162.752 29.1085 162.752Z" fill="#3F3D56"/>
<path d="M6.25014 144.173C4.47933 135.778 10.5549 127.389 19.8204 125.434C29.0858 123.48 38.0325 128.7 39.8033 137.094C41.5741 145.489 35.4133 148.504 26.1479 150.459C16.8824 152.414 8.02096 152.567 6.25014 144.173Z" fill="#1877F2"/>
<path d="M63.7737 178.886C63.7737 195.028 54.178 200.664 42.34 200.664C42.0658 200.664 41.792 200.661 41.5186 200.655C40.9701 200.643 40.4268 200.617 39.8901 200.581C29.2066 199.824 20.9062 193.898 20.9062 178.886C20.9062 163.349 40.7598 143.745 42.2512 142.294L42.2538 142.292C42.3113 142.236 42.34 142.208 42.34 142.208C42.34 142.208 63.7737 162.743 63.7737 178.886Z" fill="#1877F2"/>
<path d="M41.5604 198.195L49.3997 187.241L41.5408 199.397L41.5199 200.655C40.9714 200.643 40.4281 200.617 39.8914 200.581L40.7363 184.43L40.7298 184.305L40.7442 184.282L40.8238 182.756L32.9453 170.57L40.8486 181.612L40.8669 181.936L41.5055 169.734L34.7605 157.141L41.5878 167.592L42.2525 142.294L42.2551 142.208V142.292L42.1441 162.241L48.859 154.332L42.1167 163.959L41.9391 174.884L48.2087 164.399L41.913 176.492L41.8137 182.566L50.9158 167.972L41.7798 184.685L41.5604 198.195Z" fill="#3F3D56"/>
<path d="M208.822 188.872C221.61 188.872 231.976 178.506 231.976 165.718C231.976 152.93 221.61 142.564 208.822 142.564C196.034 142.564 185.668 152.93 185.668 165.718C185.668 178.506 196.034 188.872 208.822 188.872Z" fill="#2F2E41"/>
<path d="M210.8 184.121L204.076 186.188L207.778 198.234L214.502 196.168L210.8 184.121Z" fill="#2F2E41"/>
<path d="M224.247 179.99L217.523 182.056L221.226 194.103L227.95 192.037L224.247 179.99Z" fill="#2F2E41"/>
<path d="M214.07 198.754C217.165 197.803 219.385 196.091 219.028 194.931C218.671 193.77 215.874 193.6 212.779 194.551C209.684 195.502 207.465 197.214 207.822 198.375C208.178 199.535 210.976 199.705 214.07 198.754Z" fill="#2F2E41"/>
<path d="M227.432 194.341C230.526 193.39 232.746 191.678 232.389 190.518C232.033 189.357 229.235 189.187 226.14 190.138C223.046 191.089 220.826 192.801 221.183 193.962C221.539 195.122 224.337 195.292 227.432 194.341Z" fill="#2F2E41"/>
<path d="M207.662 167.856C212.032 167.856 215.575 164.313 215.575 159.943C215.575 155.572 212.032 152.029 207.662 152.029C203.291 152.029 199.748 155.572 199.748 159.943C199.748 164.313 203.291 167.856 207.662 167.856Z" fill="white"/>
<path d="M207.661 162.58C209.118 162.58 210.299 161.399 210.299 159.943C210.299 158.486 209.118 157.305 207.661 157.305C206.204 157.305 205.023 158.486 205.023 159.943C205.023 161.399 206.204 162.58 207.661 162.58Z" fill="#3F3D56"/>
<path d="M181.027 151.733C176.78 144.279 180.008 134.436 188.235 129.749C196.463 125.061 206.576 127.304 210.823 134.759C215.069 142.213 210.122 146.964 201.894 151.651C193.666 156.339 185.274 159.188 181.027 151.733Z" fill="#1877F2"/>
<path d="M167.528 175.93C167.528 190.748 158.72 195.921 147.853 195.921C147.601 195.921 147.35 195.919 147.099 195.913C146.595 195.902 146.097 195.878 145.604 195.845C135.797 195.151 128.178 189.711 128.178 175.93C128.178 161.668 146.402 143.672 147.771 142.341L147.774 142.338C147.827 142.287 147.853 142.261 147.853 142.261C147.853 142.261 167.528 161.112 167.528 175.93Z" fill="#1877F2"/>
<path d="M147.137 193.655L154.333 183.599L147.119 194.759L147.1 195.913C146.596 195.902 146.097 195.878 145.605 195.845L146.38 181.02L146.374 180.905L146.387 180.883L146.461 179.483L139.229 168.296L146.483 178.433L146.5 178.73L147.086 167.529L140.895 155.969L147.162 165.563L147.772 142.341L147.774 142.261V142.338L147.673 160.65L153.837 153.391L147.647 162.228L147.484 172.257L153.24 162.632L147.46 173.732L147.369 179.308L155.725 165.912L147.338 181.253L147.137 193.655Z" fill="#3F3D56"/>
<path d="M244.905 182.11C244.905 198.252 235.309 203.888 223.471 203.888C223.197 203.888 222.923 203.885 222.649 203.879C222.101 203.867 221.558 203.841 221.021 203.805C210.337 203.048 202.037 197.122 202.037 182.11C202.037 166.573 221.891 146.969 223.382 145.518L223.385 145.516C223.442 145.46 223.471 145.432 223.471 145.432C223.471 145.432 244.905 165.967 244.905 182.11Z" fill="#1877F2"/>
<path d="M222.689 201.419L230.529 190.465L222.67 202.621L222.649 203.879C222.1 203.867 221.557 203.841 221.02 203.805L221.865 187.654L221.859 187.529L221.873 187.506L221.953 185.98L214.074 173.794L221.978 184.836L221.996 185.16L222.634 172.958L215.889 160.365L222.717 170.816L223.381 145.518L223.384 145.432V145.516L223.273 165.465L229.988 157.556L223.246 167.183L223.068 178.108L229.338 167.623L223.042 179.716L222.943 185.79L232.045 171.196L222.909 187.909L222.689 201.419Z" fill="#3F3D56"/>
<path d="M210.294 179.579C211.154 177.765 207.169 174.074 201.392 171.334C195.615 168.594 190.234 167.843 189.374 169.657C188.514 171.47 192.5 175.162 198.277 177.902C204.054 180.642 209.434 181.392 210.294 179.579Z" fill="#2F2E41"/>
<path d="M32.0864 177.459C32.8332 175.596 28.6274 172.157 22.6925 169.779C16.7577 167.4 11.3411 166.982 10.5943 168.845C9.84757 170.708 14.0533 174.147 19.9882 176.526C25.9231 178.904 31.3396 179.322 32.0864 177.459Z" fill="#2F2E41"/>
</svg>
