<svg width="17" height="18" viewBox="0 0 17 18" fill="none" xmlns="http://www.w3.org/2000/svg">
<path d="M1.37891 4.2H2.97891H15.7789" stroke="white" stroke-width="1.5" stroke-linecap="round" stroke-linejoin="round"/>
<path d="M5.37852 4.2V2.6C5.37852 2.17565 5.54709 1.76869 5.84715 1.46863C6.1472 1.16857 6.55417 1 6.97852 1H10.1785C10.6029 1 11.0098 1.16857 11.3099 1.46863C11.6099 1.76869 11.7785 2.17565 11.7785 2.6V4.2M14.1785 4.2V15.4C14.1785 15.8243 14.0099 16.2313 13.7099 16.5314C13.4098 16.8314 13.0029 17 12.5785 17H4.57852C4.15417 17 3.7472 16.8314 3.44714 16.5314C3.14709 16.2313 2.97852 15.8243 2.97852 15.4V4.2H14.1785Z" stroke="white" stroke-width="1.5" stroke-linecap="round" stroke-linejoin="round"/>
<path d="M6.97852 8.2V13" stroke="white" stroke-width="1.5" stroke-linecap="round" stroke-linejoin="round"/>
<path d="M10.1797 8.2V13" stroke="white" stroke-width="1.5" stroke-linecap="round" stroke-linejoin="round"/>
</svg>
