<svg width="16" height="16" viewBox="0 0 16 16" fill="none" xmlns="http://www.w3.org/2000/svg">
<path d="M11.3702 1.58492C11.5556 1.39948 11.7757 1.25238 12.018 1.15201C12.2603 1.05165 12.52 1 12.7823 1C13.0445 1 13.3042 1.05165 13.5465 1.15201C13.7888 1.25238 14.0089 1.39948 14.1944 1.58492C14.3798 1.77036 14.5269 1.99051 14.6273 2.2328C14.7276 2.47509 14.7793 2.73478 14.7793 2.99703C14.7793 3.25928 14.7276 3.51897 14.6273 3.76126C14.5269 4.00355 14.3798 4.2237 14.1944 4.40914L4.66261 13.9409L0.779297 15L1.83838 11.1167L11.3702 1.58492Z" stroke="#555555" stroke-width="1.5" stroke-linecap="round" stroke-linejoin="round"/>
</svg>
