<svg width="142" height="128" viewBox="0 0 142 128" fill="none" xmlns="http://www.w3.org/2000/svg">
<path fill-rule="evenodd" clip-rule="evenodd" d="M137.96 59.6114C139.563 87.1068 118.767 109.454 93.0688 119.363C67.1996 129.338 36.9524 126.673 19.1356 105.43C0.409794 83.1024 -1.31627 50.4997 15.1491 26.4568C30.5515 3.96601 60.2046 -0.0730135 86.5218 7.03166C112.692 14.0967 136.383 32.5499 137.96 59.6114Z" fill="#DAE8FE"/>
<path d="M50.2783 106.047C51.8889 104.686 52.8672 102.536 52.6107 100.443C52.3541 98.35 50.765 96.4259 48.7038 95.9815C46.6425 95.537 44.2928 96.7673 43.6668 98.7809C43.3222 94.8989 42.9252 90.8542 40.8612 87.5483C38.9924 84.5548 35.7555 82.4129 32.2475 82.0298C28.7395 81.6466 25.046 83.0938 22.8581 85.8627C20.6703 88.6315 20.1346 92.6568 21.6669 95.8357C22.7957 98.1775 24.8754 99.9202 27.0543 101.338C34.0952 105.881 42.5399 107.728 50.8345 106.54" fill="#F2F2F2"/>
<path d="M26.3264 83.1742C29.221 85.5319 31.8765 88.1688 34.2544 91.0467C37.9759 95.5352 40.9873 100.568 43.1838 105.969C43.3446 106.363 42.7048 106.534 42.5458 106.145C41.149 102.73 39.4208 99.46 37.3862 96.3823C34.2133 91.5745 30.3261 87.2784 25.8586 83.6421C25.5283 83.3731 25.9988 82.9075 26.3264 83.1742V83.1742Z" fill="white"/>
<path d="M51.3887 106.047C49.7781 104.686 48.7997 102.536 49.0563 100.443C49.3129 98.35 50.9019 96.4259 52.9632 95.9815C55.0244 95.537 57.3741 96.7673 58.0002 98.7809C58.3448 94.8989 58.7418 90.8542 60.8057 87.5483C62.6746 84.5548 65.9114 82.4129 69.4195 82.0298C72.9275 81.6466 76.621 83.0938 78.8088 85.8627C80.9967 88.6315 81.5324 92.6568 80.0001 95.8357C78.8713 98.1775 76.7916 99.9202 74.6127 101.338C67.5718 105.881 59.1271 107.728 50.8324 106.54" fill="#F2F2F2"/>
<path d="M75.344 83.174C72.4495 85.5317 69.794 88.1685 67.4161 91.0464C63.6946 95.535 60.6832 100.567 58.4866 105.968C58.3259 106.362 58.9657 106.534 59.1247 106.144C62.7186 97.3665 68.4559 89.6298 75.8119 83.6419C76.1422 83.3729 75.6716 82.9072 75.344 83.174V83.174Z" fill="white"/>
<path d="M56.1685 59.6925C59.1481 59.6925 61.5636 57.277 61.5636 54.2974C61.5636 51.3178 59.1481 48.9023 56.1685 48.9023C53.1889 48.9023 50.7734 51.3178 50.7734 54.2974C50.7734 57.277 53.1889 59.6925 56.1685 59.6925Z" fill="#F2F2F2"/>
<path d="M39.5373 35.6997H76.7079V37.7334H44.2824C42.3759 37.7334 40.4881 38.1089 38.7267 38.8384C36.9654 39.568 35.3649 40.6374 34.0168 41.9855C32.6687 43.3336 31.5994 44.934 30.8698 46.6954C30.1402 48.4567 29.7647 50.3446 29.7647 52.2511V75.3557H25.6974C25.5176 75.3557 25.3452 75.2843 25.2181 75.1572C25.091 75.03 25.0195 74.8576 25.0195 74.6778V50.2174C25.0195 48.3109 25.395 46.4231 26.1246 44.6617C26.8542 42.9004 27.9236 41.2999 29.2717 39.9518C30.6198 38.6037 32.2202 37.5344 33.9816 36.8048C35.7429 36.0752 37.6308 35.6997 39.5373 35.6997Z" fill="#F2F2F2"/>
<path d="M46.6875 106.16V75.2688H55.7373V106.16C55.7371 106.368 55.6545 106.567 55.5077 106.714C55.3609 106.86 55.1618 106.943 54.9542 106.943H47.4707C47.263 106.943 47.064 106.86 46.9171 106.714C46.7703 106.567 46.6877 106.368 46.6875 106.16Z" fill="#3F3D56"/>
<path d="M23.1016 74.6596V49.5403C23.1061 45.5415 24.6966 41.7078 27.5242 38.8802C30.3518 36.0526 34.1855 34.462 38.1843 34.4575H76.5303V75.5298H23.9717C23.741 75.5295 23.5199 75.4377 23.3567 75.2746C23.1936 75.1115 23.1018 74.8903 23.1016 74.6596ZM76.1822 34.8056H38.1843C34.2778 34.81 30.5325 36.3638 27.7702 39.1262C25.0079 41.8885 23.454 45.6338 23.4496 49.5403V74.6596C23.4498 74.798 23.5048 74.9307 23.6027 75.0286C23.7006 75.1265 23.8333 75.1815 23.9717 75.1817H76.1822V34.8056Z" fill="#3F3D56"/>
<path d="M56.1683 57.0821C55.3378 57.0812 54.5415 56.7508 53.9542 56.1635C53.3669 55.5763 53.0366 54.78 53.0357 53.9495V31.499C53.0355 31.3606 52.9805 31.2278 52.8826 31.13C52.7847 31.0321 52.652 30.977 52.5136 30.9769H40.3311C40.1004 30.9766 39.8792 30.8848 39.7161 30.7217C39.553 30.5586 39.4612 30.3374 39.4609 30.1067V21.9271C39.4612 21.6964 39.553 21.4752 39.7161 21.312C39.8792 21.1489 40.1004 21.0572 40.3311 21.0569H58.4307C58.6615 21.0571 58.8826 21.1489 59.0458 21.312C59.2089 21.4752 59.3007 21.6964 59.3009 21.9271V53.9495C59.3 54.78 58.9696 55.5763 58.3824 56.1635C57.7951 56.7508 56.9988 57.0812 56.1683 57.0821Z" fill="#1877F2"/>
<path d="M77.9239 34.1094C80.5493 34.1039 83.0694 35.1416 84.9298 36.9941C86.7901 38.8467 87.8384 41.3624 87.8439 43.9879V72.5835H107.336C108.119 72.5818 108.87 72.8913 109.425 73.4438C109.98 73.9964 110.293 74.7467 110.294 75.5297H68.0039V43.9879C68.0094 41.3624 69.0576 38.8467 70.918 36.9941C72.7784 35.1416 75.2985 34.1039 77.9239 34.1094Z" fill="#3F3D56"/>
<path d="M75.5453 50.3934L77.5994 58.8786L117.781 49.1516L115.727 40.6663C115.702 40.5626 115.651 40.4668 115.579 40.3878C115.508 40.3089 115.417 40.2493 115.316 40.2147C115.242 40.1885 115.163 40.1766 115.084 40.1797L91.8576 28.1536C91.7215 28.0841 91.565 28.0655 91.4164 28.1012C91.2678 28.137 91.1369 28.2246 91.0472 28.3484L79.8533 43.9582L75.6334 49.8446C75.6257 49.8549 75.6204 49.8667 75.6177 49.8793C75.615 49.8918 75.6151 49.9048 75.6179 49.9174C75.532 50.0603 75.5059 50.2313 75.5453 50.3934Z" fill="white"/>
<path d="M75.6154 49.9174C75.6174 49.9284 75.6216 49.9389 75.6276 49.9484C75.6337 49.9578 75.6416 49.9659 75.6508 49.9723C75.6617 49.9798 75.674 49.985 75.687 49.9875C75.6999 49.9901 75.7133 49.99 75.7262 49.9872C75.7472 49.9816 75.7656 49.9689 75.7782 49.9511L75.7927 49.9311L76.0124 49.6238L80.0029 44.0609L91.1934 28.4546C91.2573 28.3662 91.3507 28.3036 91.4568 28.2782C91.5629 28.2527 91.6746 28.2662 91.7716 28.3161L114.818 40.249L115.025 40.3564C115.033 40.3599 115.042 40.3629 115.051 40.3654C115.066 40.3625 115.082 40.361 115.098 40.3609C115.12 40.3536 115.138 40.3384 115.148 40.3183C115.154 40.3077 115.157 40.2961 115.159 40.2841C115.16 40.2722 115.158 40.2602 115.155 40.2487C115.151 40.2372 115.146 40.2266 115.138 40.2174C115.13 40.2081 115.121 40.2005 115.11 40.1949L115.082 40.1797L91.8552 28.1536C91.719 28.0841 91.5626 28.0655 91.414 28.1012C91.2654 28.137 91.1345 28.2246 91.0448 28.3484L79.8509 43.9582L75.6309 49.8446C75.6233 49.8549 75.6179 49.8667 75.6152 49.8793C75.6126 49.8918 75.6126 49.9048 75.6154 49.9174Z" fill="#3F3D56"/>
<path d="M87.6853 50.7828L88.5798 50.882L95.2179 51.6174L99.6185 52.1046L99.8785 52.1334L105.37 47.8444L105.58 47.6801L106.877 46.6672L111.491 43.0636L111.519 42.8105L113.16 27.9976C113.183 27.7937 113.123 27.5891 112.995 27.4289C112.867 27.2687 112.68 27.1658 112.476 27.1429L90.5731 24.7165C90.3691 24.6942 90.1646 24.7537 90.0044 24.8818C89.8442 25.01 89.7413 25.1964 89.7183 25.4003L88.5609 35.8489L87.9189 41.6418L87.3445 46.8243L87.0783 49.2311L87.0006 49.9282C86.9785 50.1323 87.0381 50.3368 87.1664 50.497C87.2948 50.6572 87.4814 50.7599 87.6853 50.7828Z" fill="#E6E6E6"/>
<path d="M93.7039 37.7987L103.192 38.8496L106.556 39.2221C106.705 39.2386 106.855 39.2256 106.999 39.184C107.142 39.1423 107.276 39.0728 107.393 38.9794C107.51 38.886 107.607 38.7705 107.679 38.6396C107.751 38.5086 107.796 38.3648 107.813 38.2162C107.829 38.0677 107.816 37.9173 107.775 37.7738C107.733 37.6302 107.664 37.4963 107.57 37.3796C107.477 37.2629 107.361 37.1658 107.23 37.0938C107.099 37.0217 106.956 36.9762 106.807 36.9597L102.622 36.4962L93.9552 35.5352C93.6551 35.5021 93.3541 35.5894 93.1185 35.7781C92.8828 35.9668 92.7317 36.2414 92.6984 36.5414C92.6651 36.8415 92.7523 37.1425 92.9408 37.3783C93.1294 37.614 93.4039 37.7653 93.7039 37.7987Z" fill="white"/>
<path d="M93.1615 41.9958C93.186 42.0002 93.2105 42.0046 93.2354 42.007L104.249 43.2271L106.088 43.4312C106.388 43.4644 106.689 43.3771 106.925 43.1883C107.161 42.9996 107.312 42.7249 107.345 42.4248C107.378 42.1246 107.291 41.8236 107.102 41.5879C106.913 41.3522 106.639 41.2011 106.338 41.1679L103.68 40.8738L94.9551 39.907L93.4869 39.7443C93.1933 39.7116 92.8984 39.7943 92.6647 39.975C92.4309 40.1557 92.2766 40.4202 92.2344 40.7126C92.1921 41.005 92.2652 41.3024 92.4382 41.5418C92.6113 41.7813 92.8706 41.9441 93.1615 41.9958V41.9958Z" fill="white"/>
<path d="M91.9176 45.7173C92.0079 45.8671 92.1314 45.9941 92.2787 46.0885C92.426 46.1828 92.5931 46.2419 92.767 46.2612L97.2812 46.7612L105.321 47.6519L105.323 47.6514L105.58 47.6801L106.877 46.6672C106.885 46.5902 106.885 46.5127 106.877 46.4357C106.85 46.1773 106.735 45.936 106.552 45.7517C106.369 45.5674 106.128 45.4511 105.87 45.4221L104.753 45.2981L100.323 44.8078L97.135 44.4542L93.0173 43.9979C92.8063 43.9745 92.5929 44.0107 92.4014 44.1022C92.2098 44.1937 92.0476 44.337 91.9333 44.5159C91.8189 44.6948 91.7568 44.902 91.754 45.1143C91.7512 45.3266 91.8079 45.5355 91.9176 45.7173L91.9176 45.7173Z" fill="white"/>
<path d="M98.2547 32.6686L100.615 32.93L101.658 33.0458L103.233 33.2201C103.533 33.2533 103.834 33.1659 104.07 32.9772C104.306 32.7884 104.457 32.5138 104.49 32.2136C104.523 31.9135 104.436 31.6125 104.247 31.3768C104.058 31.1411 103.784 30.99 103.484 30.9568L98.5062 30.4059C98.2062 30.3725 97.9052 30.4598 97.6694 30.6483C97.4337 30.8369 97.2825 31.1114 97.2492 31.4115C97.2158 31.7115 97.303 32.0125 97.4916 32.2483C97.6802 32.484 97.9547 32.6352 98.2547 32.6685V32.6686Z" fill="white"/>
<path d="M78.9552 38.9705L81.8333 50.8595L86.6369 51.7729L91.0803 52.6188L95.8478 53.526L97.3711 53.8159C97.4603 53.8327 97.552 53.8304 97.6402 53.809C97.7284 53.7877 97.8111 53.7478 97.8827 53.692L99.1048 52.7375L99.8785 52.1333L105.37 47.8442L101.878 33.4213C101.844 33.2778 101.769 33.1474 101.662 33.0456C101.568 32.9555 101.453 32.8905 101.328 32.8565C101.202 32.8225 101.07 32.8207 100.944 32.8511L79.5254 38.0361C79.326 38.0845 79.1539 38.2101 79.047 38.3853C78.9401 38.5605 78.9071 38.771 78.9552 38.9705Z" fill="#1877F2"/>
<path d="M85.5552 48.4288C85.6265 48.7221 85.8112 48.9751 86.0688 49.1323C86.3264 49.2895 86.6359 49.3381 86.9293 49.2673L99.4972 46.2249C99.7903 46.1535 100.043 45.9687 100.2 45.7112C100.358 45.4536 100.406 45.1442 100.336 44.8508C100.332 44.8362 100.328 44.8219 100.323 44.8078C100.243 44.525 100.057 44.2842 99.8026 44.1358C99.5488 43.9875 99.2473 43.9433 98.9615 44.0123L86.3937 47.0547C86.1004 47.1259 85.8474 47.3107 85.6902 47.5683C85.533 47.8259 85.4844 48.1354 85.5552 48.4288Z" fill="white"/>
<path d="M86.6367 51.7729L91.0802 52.6189L100.493 50.3403C100.786 50.2693 101.039 50.0846 101.197 49.8269C101.354 49.5692 101.402 49.2596 101.331 48.9662C101.26 48.6728 101.076 48.4196 100.818 48.2623C100.56 48.1051 100.251 48.0566 99.9571 48.1277L87.3893 51.1701C87.1267 51.2332 86.8953 51.3882 86.7371 51.6072C86.699 51.6595 86.6654 51.7149 86.6367 51.7729Z" fill="white"/>
<path d="M95.8477 53.526L97.371 53.8159C97.4602 53.8327 97.5519 53.8304 97.6401 53.8091C97.7283 53.7877 97.811 53.7478 97.8826 53.692L99.1046 52.7375L95.8477 53.526Z" fill="white"/>
<path d="M88.0866 42.0535C88.1579 42.3468 88.3426 42.5998 88.6002 42.757C88.8579 42.9142 89.1674 42.9628 89.4608 42.892L94.3286 41.7136C94.6218 41.6422 94.8747 41.4574 95.0319 41.1999C95.189 40.9423 95.2377 40.6329 95.1671 40.3395C95.1292 40.1818 95.0576 40.0342 94.9574 39.9068C94.8227 39.7345 94.6413 39.6046 94.4348 39.5327C94.2283 39.4607 94.0055 39.4497 93.7929 39.501L88.9251 40.6794C88.6317 40.7504 88.3786 40.9351 88.2213 41.1928C88.0641 41.4505 88.0156 41.7601 88.0866 42.0535V42.0535Z" fill="white"/>
<path d="M91.0802 52.6187L95.8484 53.526L97.3712 53.8161C97.4604 53.8327 97.552 53.8303 97.6402 53.809C97.7283 53.7876 97.8109 53.7479 97.8826 53.6923L99.1055 52.7376L98.6764 52.8414L97.7704 53.5482C97.7192 53.5879 97.6602 53.6163 97.5972 53.6315C97.5343 53.6468 97.4688 53.6485 97.4051 53.6366L96.2775 53.4221L91.5093 52.5148L91.0802 52.6187ZM105.323 47.6519L105.369 47.8437L105.581 47.6792L105.323 47.6519ZM91.0802 52.6187L95.8484 53.526L97.3712 53.8161C97.4604 53.8327 97.552 53.8303 97.6402 53.809C97.7283 53.7876 97.8109 53.7479 97.8826 53.6923L99.1055 52.7376L98.6764 52.8414L97.7704 53.5482C97.7192 53.5879 97.6602 53.6163 97.5972 53.6315C97.5343 53.6468 97.4688 53.6485 97.4051 53.6366L96.2775 53.4221L91.5093 52.5148L91.0802 52.6187ZM91.0802 52.6187L95.8484 53.526L97.3712 53.8161C97.4604 53.8327 97.552 53.8303 97.6402 53.809C97.7283 53.7876 97.8109 53.7479 97.8826 53.6923L99.1055 52.7376L98.6764 52.8414L97.7704 53.5482C97.7192 53.5879 97.6602 53.6163 97.5972 53.6315C97.5343 53.6468 97.4688 53.6485 97.4051 53.6366L96.2775 53.4221L91.5093 52.5148L91.0802 52.6187ZM75.5453 50.3933L80.9257 72.6194C80.9656 72.7836 81.0691 72.9253 81.2134 73.0133C81.3577 73.1014 81.531 73.1286 81.6953 73.089L120.638 63.6619C120.802 63.622 120.943 63.5185 121.031 63.3742C121.12 63.2299 121.147 63.0566 121.107 62.8923L115.727 40.6663C115.702 40.5625 115.651 40.4667 115.579 40.3878C115.508 40.3088 115.417 40.2493 115.316 40.2146C115.242 40.1884 115.163 40.1766 115.084 40.1797C114.992 40.1823 114.902 40.2061 114.821 40.249C114.783 40.2668 114.748 40.2889 114.715 40.3146L111.519 42.8102L106.877 46.436L105.322 47.6506L105.323 47.6519L105.321 47.6522L99.6191 52.1037L98.6764 52.8414L97.7704 53.5482C97.7192 53.5879 97.6602 53.6163 97.5972 53.6315C97.5343 53.6468 97.4688 53.6485 97.4051 53.6366L96.2775 53.4221L91.5093 52.5148L86.7369 51.6071L76.2842 49.6179C76.195 49.6003 76.1031 49.6023 76.0149 49.6238C75.896 49.6528 75.788 49.7154 75.7037 49.804C75.6714 49.8389 75.6426 49.8768 75.6179 49.9173C75.532 50.0603 75.5059 50.2313 75.5453 50.3933ZM91.0802 52.6187L95.8484 53.526L97.3712 53.8161C97.4604 53.8327 97.552 53.8303 97.6402 53.809C97.7283 53.7876 97.8109 53.7479 97.8826 53.6923L99.1055 52.7376L98.6764 52.8414L97.7704 53.5482C97.7192 53.5879 97.6602 53.6163 97.5972 53.6315C97.5343 53.6468 97.4688 53.6485 97.4051 53.6366L96.2775 53.4221L91.5093 52.5148L91.0802 52.6187ZM91.0802 52.6187L95.8484 53.526L97.3712 53.8161C97.4604 53.8327 97.552 53.8303 97.6402 53.809C97.7283 53.7876 97.8109 53.7479 97.8826 53.6923L99.1055 52.7376L98.6764 52.8414L97.7704 53.5482C97.7192 53.5879 97.6602 53.6163 97.5972 53.6315C97.5343 53.6468 97.4688 53.6485 97.4051 53.6366L96.2775 53.4221L91.5093 52.5148L91.0802 52.6187ZM91.0802 52.6187L95.8484 53.526L97.3712 53.8161C97.4604 53.8327 97.552 53.8303 97.6402 53.809C97.7283 53.7876 97.8109 53.7479 97.8826 53.6923L99.1055 52.7376L98.6764 52.8414L97.7704 53.5482C97.7192 53.5879 97.6602 53.6163 97.5972 53.6315C97.5343 53.6468 97.4688 53.6485 97.4051 53.6366L96.2775 53.4221L91.5093 52.5148L91.0802 52.6187Z" fill="white"/>
<path d="M91.0802 52.6189L95.8484 53.5263L97.3712 53.8163C97.4604 53.833 97.552 53.8305 97.6402 53.8092C97.7283 53.7879 97.8109 53.7481 97.8826 53.6925L99.1055 52.7378L98.6764 52.8417L97.7704 53.5484C97.7192 53.5881 97.6602 53.6165 97.5972 53.6318C97.5343 53.647 97.4688 53.6488 97.4051 53.6369L96.2775 53.4224L91.5093 52.515L91.0802 52.6189ZM105.323 47.6522L105.369 47.8439L105.581 47.6795L105.323 47.6522ZM91.0802 52.6189L95.8484 53.5263L97.3712 53.8163C97.4604 53.833 97.552 53.8305 97.6402 53.8092C97.7283 53.7879 97.8109 53.7481 97.8826 53.6925L99.1055 52.7378L98.6764 52.8417L97.7704 53.5484C97.7192 53.5881 97.6602 53.6165 97.5972 53.6318C97.5343 53.647 97.4688 53.6488 97.4051 53.6369L96.2775 53.4224L91.5093 52.515L91.0802 52.6189ZM91.0802 52.6189L95.8484 53.5263L97.3712 53.8163C97.4604 53.833 97.552 53.8305 97.6402 53.8092C97.7283 53.7879 97.8109 53.7481 97.8826 53.6925L99.1055 52.7378L98.6764 52.8417L97.7704 53.5484C97.7192 53.5881 97.6602 53.6165 97.5972 53.6318C97.5343 53.647 97.4688 53.6488 97.4051 53.6369L96.2775 53.4224L91.5093 52.515L91.0802 52.6189ZM75.7951 49.9313L75.8188 49.949C75.8227 49.9425 75.8296 49.9367 75.8349 49.9299C75.8876 49.875 75.9531 49.8341 76.0256 49.8108C76.098 49.7875 76.1751 49.7825 76.25 49.7963L86.6373 51.7723L91.0802 52.6189L95.8484 53.5263L97.3712 53.8163C97.4604 53.833 97.552 53.8305 97.6402 53.8092C97.7283 53.7879 97.8109 53.7481 97.8826 53.6925L99.1055 52.7378L98.6764 52.8417L97.7704 53.5484C97.7192 53.5881 97.6602 53.6165 97.5972 53.6318C97.5343 53.647 97.4688 53.6488 97.4051 53.6369L96.2775 53.4224L91.5093 52.515L86.7369 51.6073L76.2842 49.6182C76.195 49.6005 76.1031 49.6025 76.0149 49.624L75.7951 49.9313ZM75.5453 50.3936L80.9257 72.6196C80.9656 72.7839 81.0691 72.9255 81.2134 73.0136C81.3577 73.1016 81.531 73.1288 81.6953 73.0892L120.638 63.6621C120.802 63.6222 120.943 63.5188 121.031 63.3745C121.12 63.2302 121.147 63.0568 121.107 62.8925L115.727 40.6665C115.702 40.5628 115.651 40.467 115.579 40.388C115.508 40.309 115.417 40.2495 115.316 40.2149C115.242 40.1887 115.163 40.1768 115.084 40.1799C114.992 40.1826 114.902 40.2063 114.821 40.2493C114.783 40.2671 114.748 40.2891 114.715 40.3149L111.519 42.8105L106.877 46.4362L105.322 47.6508L105.323 47.6522L105.321 47.6525L99.6191 52.1039L98.6764 52.8417L97.7704 53.5484C97.7192 53.5881 97.6602 53.6165 97.5972 53.6318C97.5343 53.647 97.4688 53.6488 97.4051 53.6369L96.2775 53.4224L91.5093 52.5151L86.7369 51.6073L76.2842 49.6182C76.195 49.6005 76.1031 49.6025 76.0149 49.624C75.896 49.653 75.788 49.7156 75.7037 49.8043C75.6714 49.8391 75.6426 49.877 75.6179 49.9176C75.532 50.0605 75.5059 50.2315 75.5453 50.3936ZM75.7227 50.3506C75.7068 50.2851 75.7058 50.2169 75.7197 50.1509C75.7336 50.085 75.7621 50.0229 75.803 49.9694C75.8067 49.9615 75.8121 49.9546 75.8188 49.949C75.8227 49.9425 75.8296 49.9367 75.8349 49.9299C75.8876 49.8751 75.9531 49.8341 76.0256 49.8108C76.098 49.7875 76.1751 49.7825 76.25 49.7963L86.6373 51.7723L91.0802 52.6189L95.8484 53.5263L97.3712 53.8163C97.4604 53.833 97.552 53.8305 97.6402 53.8092C97.7283 53.7879 97.8109 53.7481 97.8826 53.6925L99.1055 52.7378L99.8789 52.1336L105.369 47.8439L105.581 47.6795L106.877 46.667L111.492 43.0629L114.828 40.4573C114.879 40.4178 114.937 40.3894 115 40.3743C115.017 40.37 115.035 40.3671 115.053 40.3656C115.069 40.3627 115.084 40.3612 115.1 40.361C115.154 40.3605 115.207 40.3692 115.257 40.3866C115.329 40.4117 115.394 40.4543 115.445 40.5106C115.496 40.5669 115.532 40.6352 115.551 40.7091L120.931 62.9352C120.945 62.9934 120.948 63.0539 120.938 63.1131C120.929 63.1723 120.908 63.2291 120.877 63.2803C120.846 63.3315 120.805 63.376 120.757 63.4113C120.708 63.4466 120.653 63.472 120.595 63.486L81.6527 72.9131C81.5352 72.9414 81.4113 72.9218 81.3082 72.8587C81.2052 72.7956 81.1314 72.6941 81.1032 72.5767L75.7227 50.3506ZM91.0802 52.6189L95.8484 53.5263L97.3712 53.8163C97.4604 53.833 97.552 53.8305 97.6402 53.8092C97.7283 53.7879 97.8109 53.7481 97.8826 53.6925L99.1055 52.7378L98.6764 52.8417L97.7704 53.5484C97.7192 53.5881 97.6602 53.6165 97.5972 53.6318C97.5343 53.647 97.4688 53.6488 97.4051 53.6369L96.2775 53.4224L91.5093 52.5151L91.0802 52.6189ZM91.0802 52.6189L95.8484 53.5263L97.3712 53.8163C97.4604 53.833 97.552 53.8305 97.6402 53.8092C97.7283 53.7879 97.8109 53.7481 97.8826 53.6925L99.1055 52.7378L98.6764 52.8417L97.7704 53.5484C97.7192 53.5881 97.6602 53.6165 97.5972 53.6318C97.5343 53.647 97.4688 53.6488 97.4051 53.6369L96.2775 53.4224L91.5093 52.5151L91.0802 52.6189ZM91.0802 52.6189L95.8484 53.5263L97.3712 53.8163C97.4604 53.833 97.552 53.8305 97.6402 53.8092C97.7283 53.7879 97.8109 53.7481 97.8826 53.6925L99.1055 52.7378L98.6764 52.8417L97.7704 53.5484C97.7192 53.5881 97.6602 53.6165 97.5972 53.6318C97.5343 53.647 97.4688 53.6488 97.4051 53.6369L96.2775 53.4224L91.5093 52.5151L91.0802 52.6189Z" fill="#3F3D56"/>
<path d="M110.485 59.2954C110.397 58.9312 110.457 58.5471 110.652 58.2273C110.848 57.9075 111.162 57.6782 111.526 57.5897L116.441 56.3998C116.804 56.3131 117.187 56.3741 117.506 56.5695C117.825 56.7648 118.054 57.0785 118.141 57.4419C118.229 57.8053 118.17 58.1887 117.976 58.5082C117.781 58.8277 117.469 59.0572 117.105 59.1465L112.19 60.3363C111.826 60.424 111.442 60.3637 111.122 60.1686C110.803 59.9734 110.573 59.6594 110.485 59.2954Z" fill="#1877F2"/>
<path d="M56.1675 55.1677C56.8403 55.1677 57.3857 54.6223 57.3857 53.9494C57.3857 53.2766 56.8403 52.7312 56.1675 52.7312C55.4946 52.7312 54.9492 53.2766 54.9492 53.9494C54.9492 54.6223 55.4946 55.1677 56.1675 55.1677Z" fill="white"/>
</svg>
