<svg width="133" height="96" viewBox="0 0 133 96" fill="none" xmlns="http://www.w3.org/2000/svg">
<path d="M116.652 46.7609H115.469V93.5075H116.652V46.7609Z" fill="#3F3D56"/>
<path d="M127.576 52.7182C127.652 69.0643 116.151 82.3688 116.151 82.3688C116.151 82.3688 104.529 69.1709 104.453 52.8248C104.378 36.4786 115.879 23.1742 115.879 23.1742C115.879 23.1742 127.501 36.3721 127.576 52.7182Z" fill="#3F3D56"/>
<path d="M92.9895 68.7559H92.3809V92.7988H92.9895V68.7559Z" fill="#3F3D56"/>
<path d="M98.6077 71.8198C98.6464 80.227 92.7315 87.0698 92.7315 87.0698C92.7315 87.0698 86.7538 80.2818 86.715 71.8746C86.6763 63.4674 92.5912 56.6246 92.5912 56.6246C92.5912 56.6246 98.5689 63.4126 98.6077 71.8198Z" fill="#3F3D56"/>
<path d="M104.987 96C114.095 96 121.479 94.8683 121.479 93.4722C121.479 92.0761 114.095 90.9443 104.987 90.9443C95.8795 90.9443 88.4961 92.0761 88.4961 93.4722C88.4961 94.8683 95.8795 96 104.987 96Z" fill="#3F3D56"/>
<path d="M106.348 34.5571C104.95 32.1963 102.186 32.0863 102.186 32.0863C102.186 32.0863 99.4927 31.7418 97.7648 35.3374C96.1542 38.6887 93.9315 41.9244 97.4069 42.7089L98.0347 40.7551L98.4235 42.8544C98.9183 42.89 99.4147 42.8985 99.9105 42.8798C103.632 42.7596 107.177 42.915 107.063 41.5794C106.911 39.8039 107.692 36.8287 106.348 34.5571Z" fill="#2F2E41"/>
<path d="M101.316 39.003C101.316 39.003 103.122 41.5309 102.039 43.5772C100.955 45.6236 104.567 47.7903 104.567 47.7903L107.215 42.0124C107.215 42.0124 104.085 39.966 104.928 38.04L101.316 39.003Z" fill="#FBBEBE"/>
<path d="M102.52 40.0863C104.249 40.0863 105.65 38.6851 105.65 36.9566C105.65 35.2281 104.249 33.8269 102.52 33.8269C100.792 33.8269 99.3906 35.2281 99.3906 36.9566C99.3906 38.6851 100.792 40.0863 102.52 40.0863Z" fill="#FBBEBE"/>
<path d="M91.6895 40.5745L94.3049 37.2C94.3049 37.2 95.2259 33.6628 96.5597 33.8422C97.8935 34.0215 96.0329 38.0841 96.0329 38.0841L93.4341 41.8194L91.6895 40.5745Z" fill="#FBBEBE"/>
<path d="M104.928 85.4673L105.77 89.9212L107.576 90.4027L107.094 85.1062L104.928 85.4673Z" fill="#FBBEBE"/>
<path d="M123.104 80.6523L126.354 85.1062L127.678 85.708L128.761 83.9024L125.511 79.6893L123.104 80.6523Z" fill="#FBBEBE"/>
<path d="M104.205 45.8643L102.197 43.2209C102.197 43.2209 98.3063 43.9383 97.9452 44.2994C97.5841 44.6605 98.9082 51.2811 98.9082 51.2811C98.9082 51.2811 99.149 53.0867 100.232 54.0497L101.316 54.7719L110.223 52.9663L110.558 49.0029C110.68 47.5593 110.499 46.1061 110.027 44.7365C109.555 43.3668 108.802 42.111 107.816 41.0493L106.266 41.2612L104.205 45.8643Z" fill="#575A89"/>
<path d="M98.4266 44.5402L97.8247 44.2995L95.0561 44.0587C95.0561 44.0587 94.0932 43.818 94.3339 43.3365C94.5746 42.855 94.8154 42.7346 94.3339 42.6142C93.8524 42.4939 93.732 42.3735 93.8524 42.0124C93.9728 41.6513 94.695 40.929 94.695 40.929L92.6487 39.2438C92.6487 39.2438 92.5379 39.3221 92.3589 39.4671C91.3429 40.2897 88.1281 43.2576 90.4819 46.2255C93.2505 49.7163 96.5006 51.7627 99.1489 51.0404L98.4266 44.5402Z" fill="#575A89"/>
<path d="M101.075 54.1702V55.8554C101.075 55.8554 99.9919 57.9018 100.353 59.8277C100.714 61.7537 100.834 62.7167 100.834 62.7167C100.874 64.3547 101.158 65.9777 101.677 67.5317C102.52 69.9391 99.7511 85.7081 103.242 85.9489C106.733 86.1896 108.659 86.4304 109.742 85.2266C110.826 84.0229 107.937 63.3186 107.937 63.3186C107.937 63.3186 117.807 83.9025 119.854 83.0599C121.9 82.2173 127.076 80.2913 126.474 79.2079C125.872 78.1246 110.705 54.0498 110.705 54.0498L110.224 52.9664L101.075 54.1702Z" fill="#2F2E41"/>
<path d="M106.854 89.0786C106.854 89.0786 104.928 88.9582 104.928 89.56C104.928 90.1619 103.965 92.2083 103.965 92.2083C103.965 92.2083 103.242 94.6158 105.168 94.375C107.094 94.1343 108.298 91.9675 108.298 91.9675L107.817 89.6804L106.854 89.0786Z" fill="#2F2E41"/>
<path d="M126.956 84.8654C126.956 84.8654 125.271 83.7821 125.391 84.5043C125.511 85.2266 125.632 87.1525 126.474 87.2729C127.317 87.3933 129.845 88.1155 129.965 88.3563C130.086 88.597 132.974 89.56 132.974 87.9952C132.974 86.4303 131.169 85.2266 131.169 85.2266L129.123 83.6617C129.123 83.6617 127.798 83.5413 127.558 84.3839C127.317 85.2266 126.956 84.8654 126.956 84.8654Z" fill="#2F2E41"/>
<path d="M102.526 34.0969C103.63 34.0969 104.525 33.2021 104.525 32.0983C104.525 30.9944 103.63 30.0996 102.526 30.0996C101.422 30.0996 100.527 30.9944 100.527 32.0983C100.527 33.2021 101.422 34.0969 102.526 34.0969Z" fill="#2F2E41"/>
<path d="M100.315 31.5723C100.315 31.0786 100.498 30.6025 100.828 30.2356C101.158 29.8686 101.613 29.6368 102.104 29.5848C102.034 29.5774 101.963 29.5737 101.893 29.5736C101.363 29.5736 100.855 29.7842 100.48 30.159C100.105 30.5338 99.8945 31.0422 99.8945 31.5723C99.8945 32.1023 100.105 32.6107 100.48 32.9855C100.855 33.3604 101.363 33.5709 101.893 33.5709C101.963 33.5708 102.034 33.5671 102.104 33.5597C101.613 33.5077 101.158 33.2759 100.828 32.909C100.498 32.542 100.315 32.0659 100.315 31.5723Z" fill="#2F2E41"/>
<path d="M105.73 34.3296L102.999 32.899L99.2275 33.4843L98.4473 36.9304L100.39 36.8556L100.932 35.5896V36.8348L101.828 36.8004L102.349 34.7847L102.674 36.9304L105.86 36.8654L105.73 34.3296Z" fill="#2F2E41"/>
<path d="M105.567 54.4489L101.355 54.5628C101.355 54.5628 97.7616 55.262 97.9633 53.8115C98.1649 52.3611 101.671 52.8684 101.671 52.8684L105.508 52.283L105.567 54.4489Z" fill="#FBBEBE"/>
<path d="M108.898 40.8452C109.11 40.8132 109.326 40.8577 109.508 40.9709C109.69 41.0841 109.825 41.2584 109.89 41.4625C110.714 44.0606 113.254 52.7552 110.73 53.948C107.758 55.353 105.589 55.2912 105.589 55.2912L104.428 52.4326L105.485 51.4406L106.613 44.1851L107.154 41.1094L108.898 40.8452Z" fill="#575A89"/>
<path opacity="0.4" d="M108.116 45.6837L107.635 50.4987L103.422 52.3043L108.116 51.2209V45.6837Z" fill="black"/>
<path d="M85.3955 29.7881C86.7525 30.1477 87.9265 31.0005 88.688 32.1799L89.0817 32.7896L89.1015 32.8149L96.0092 34.8361C96.1358 34.8732 96.2428 34.9584 96.3072 35.0736C96.3716 35.1887 96.3883 35.3246 96.3536 35.4518L95.8173 37.4181C95.7998 37.4822 95.7698 37.5422 95.7291 37.5946C95.6884 37.647 95.6377 37.6909 95.5799 37.7236C95.5222 37.7564 95.4585 37.7774 95.3926 37.7855C95.3268 37.7935 95.2599 37.7885 95.196 37.7706L88.2866 35.8393L88.2864 35.8395L87.5925 36.1019C86.3147 36.585 84.9131 36.6326 83.6055 36.2374L85.3955 29.7881Z" fill="#3F3D56"/>
<path d="M92.6698 35.4906C92.7352 35.267 92.4484 34.9863 92.0292 34.8636C91.61 34.7409 91.2171 34.8227 91.1517 35.0463C91.0862 35.2699 91.3731 35.5506 91.7923 35.6733C92.2115 35.796 92.6044 35.7141 92.6698 35.4906Z" fill="#575A89"/>
<path d="M92.3193 35.6967C92.4795 35.6967 92.6093 35.5669 92.6093 35.4067C92.6093 35.2465 92.4795 35.1167 92.3193 35.1167C92.1591 35.1167 92.0293 35.2465 92.0293 35.4067C92.0293 35.5669 92.1591 35.6967 92.3193 35.6967Z" fill="#3F3D56"/>
<path d="M85.9735 33.5125C86.5495 31.736 86.3653 30.0848 85.562 29.8243C84.7587 29.5638 83.6405 30.7927 83.0645 32.5692C82.4884 34.3456 82.6727 35.9968 83.476 36.2573C84.2793 36.5178 85.3975 35.2889 85.9735 33.5125Z" fill="#1877F2"/>
<path opacity="0.4" d="M85.7606 33.4497C86.3156 31.738 86.1647 30.1428 85.4343 29.7958C85.4782 29.8013 85.5216 29.8109 85.5638 29.8244C86.3671 30.0849 86.5513 31.7361 85.9753 33.5126C85.3993 35.289 84.2811 36.5179 83.4778 36.2574C83.4487 36.2479 83.4202 36.2365 83.3926 36.2232C84.1827 36.3238 85.2149 35.1326 85.7606 33.4497Z" fill="black"/>
<path d="M85.4871 29.7944L69.8099 17.6336C67.0376 15.4676 64.3773 13.1621 61.8393 10.7258C57.3704 6.46608 51.3038 3.06033 44.2405 1.24708C27.0798 -3.15832 13.4851 4.65299 7.30183 16.1227C-2.14686 33.6496 -9.38804 62.091 32.5074 46.9517C41.6699 43.6407 50.9445 43.2888 57.9768 41.5447L83.4407 36.2946L85.4871 29.7944Z" fill="#1877F2"/>
<path d="M38.4207 9.33074C38.8861 9.33074 39.2634 8.95349 39.2634 8.48812C39.2634 8.02276 38.8861 7.64551 38.4207 7.64551C37.9554 7.64551 37.5781 8.02276 37.5781 8.48812C37.5781 8.95349 37.9554 9.33074 38.4207 9.33074Z" fill="#F2F2F2"/>
<path d="M54.7901 10.4358H54.5708V10.2164H54.5279V10.4358H54.3086V10.4786H54.5279V10.6979H54.5708V10.4786H54.7901V10.4358Z" fill="#F2F2F2"/>
<path d="M76.8174 28.7326H76.5981V28.5133H76.5553V28.7326H76.3359V28.7755H76.5553V28.9948H76.5981V28.7755H76.8174V28.7326Z" fill="#F2F2F2"/>
<path d="M75.253 34.3902H75.0337V34.1709H74.9908V34.3902H74.7715V34.4331H74.9908V34.6524H75.0337V34.4331H75.253V34.3902Z" fill="#F2F2F2"/>
<path d="M7.96392 39.2053H7.7446V38.986H7.70174V39.2053H7.48242V39.2481H7.70174V39.4675H7.7446V39.2481H7.96392V39.2053Z" fill="#F2F2F2"/>
<path d="M17.5928 12.9637H17.3735V12.7444H17.3306V12.9637H17.1113V13.0066H17.3306V13.2259H17.3735V13.0066H17.5928V12.9637Z" fill="#F2F2F2"/>
<path d="M55.0303 35.3532H54.811V35.1339H54.7681V35.3532H54.5488V35.3961H54.7681V35.6154H54.811V35.3961H55.0303V35.3532Z" fill="#F2F2F2"/>
<path d="M32.0381 5.25973H31.8188V5.04041H31.776V5.25973H31.5566V5.30258H31.776V5.5219H31.8188V5.30258H32.0381V5.25973Z" fill="#F2F2F2"/>
<path d="M32.1229 22.5909L31.8496 22.6331C31.9351 23.1796 32.0025 23.7381 32.0518 24.2906L32.3275 24.2665C32.2781 23.7068 32.2095 23.1435 32.1229 22.5909Z" fill="#E6E6E6"/>
<path d="M31.3762 19.2999L31.1113 19.3806C31.2714 19.9102 31.4147 20.4531 31.5362 20.9936L31.8071 20.9322C31.6831 20.3857 31.5375 19.8368 31.3762 19.2999Z" fill="#E6E6E6"/>
<path d="M30.1813 16.1437L29.9297 16.2592C30.1608 16.7636 30.3775 17.2812 30.5737 17.7988L30.8325 17.7013C30.6339 17.1777 30.416 16.6529 30.1813 16.1437Z" fill="#E6E6E6"/>
<path d="M28.5695 13.1849L28.3359 13.333C28.6333 13.8 28.9185 14.284 29.1834 14.7691L29.4265 14.6366C29.1593 14.1455 28.8704 13.6568 28.5695 13.1849Z" fill="#E6E6E6"/>
<path d="M26.5642 10.4729L26.3535 10.6523C26.7122 11.0736 27.0613 11.5141 27.3911 11.9595L27.6126 11.7946C27.2804 11.3444 26.9277 10.899 26.5642 10.4729Z" fill="#E6E6E6"/>
<path d="M24.2076 8.05811L24.0234 8.26394C24.4375 8.63349 24.8432 9.0223 25.2296 9.41833L25.4282 9.22453C25.037 8.82368 24.6265 8.43126 24.2076 8.05811Z" fill="#E6E6E6"/>
<path d="M21.544 5.98535L21.3887 6.21406C21.8485 6.52342 22.3035 6.85325 22.7405 7.19391L22.9114 6.97602C22.4684 6.63176 22.0086 6.29833 21.544 5.98535Z" fill="#E6E6E6"/>
<path d="M19.1211 4.54565V4.85863C19.4088 5.00909 19.6941 5.16678 19.9733 5.32808L20.1118 5.08854C19.7868 4.90075 19.4565 4.71979 19.1211 4.54565Z" fill="#E6E6E6"/>
<path d="M32.1406 25.9982L32.4173 25.9932C32.4224 26.2726 32.4228 26.5534 32.4185 26.8281L32.1418 26.8238C32.146 26.5523 32.1456 26.2745 32.1406 25.9982Z" fill="#E6E6E6"/>
<path d="M15.8729 46.3046L15.5996 46.3467C15.6851 46.8932 15.7525 47.4517 15.8018 48.0042L16.0775 47.9802C16.0281 47.4204 15.9595 46.8571 15.8729 46.3046Z" fill="#E6E6E6"/>
<path d="M15.1262 43.0135L14.8613 43.0942C15.0214 43.6238 15.1647 44.1667 15.2862 44.7072L15.5571 44.6458C15.4331 44.0993 15.2875 43.5504 15.1262 43.0135Z" fill="#E6E6E6"/>
<path d="M13.9332 39.8573L13.6816 39.9729C13.9128 40.4772 14.1294 40.9948 14.3256 41.5124L14.5844 41.4149C14.3858 40.8913 14.168 40.3665 13.9332 39.8573Z" fill="#E6E6E6"/>
<path d="M12.3175 36.8987L12.084 37.0467C12.3813 37.5138 12.6666 37.9977 12.9314 38.4828L13.1746 38.3504C12.9074 37.8593 12.6184 37.3705 12.3175 36.8987Z" fill="#E6E6E6"/>
<path d="M10.3122 34.1865L10.1016 34.3659C10.4603 34.7872 10.8094 35.2278 11.1392 35.6731L11.3607 35.5082C11.0284 35.058 10.6757 34.6126 10.3122 34.1865Z" fill="#E6E6E6"/>
<path d="M7.95566 31.7719L7.77148 31.9777C8.18557 32.3472 8.59123 32.736 8.97763 33.1321L9.17625 32.9383C8.78504 32.5374 8.37456 32.145 7.95566 31.7719Z" fill="#E6E6E6"/>
<path d="M5.29395 29.6991L5.13867 29.9278C5.59849 30.2372 6.05351 30.567 6.49047 30.9077L6.6614 30.6898C6.21842 30.3455 5.7586 30.0121 5.29395 29.6991Z" fill="#E6E6E6"/>
<path d="M2.87109 28.2594V28.5724C3.15879 28.7228 3.44407 28.8805 3.72334 29.0418L3.86177 28.8023C3.53676 28.6145 3.20653 28.4335 2.87109 28.2594Z" fill="#E6E6E6"/>
<path d="M15.8926 49.7118L16.1693 49.7068C16.1744 49.9862 16.1747 50.2671 16.1704 50.5417L15.8937 50.5374C15.8979 50.2659 15.8976 49.9881 15.8926 49.7118Z" fill="#E6E6E6"/>
<path d="M71.4861 34.3876L71.2129 34.4297C71.2984 34.9762 71.3658 35.5347 71.4151 36.0873L71.6908 36.0632C71.6414 35.5034 71.5728 34.9401 71.4861 34.3876Z" fill="#E6E6E6"/>
<path d="M70.7375 31.0966L70.4727 31.1772C70.6328 31.7069 70.776 32.2497 70.8976 32.7902L71.1684 32.7288C71.0444 32.1823 70.8988 31.6334 70.7375 31.0966Z" fill="#E6E6E6"/>
<path d="M69.5465 27.9403L69.2949 28.0559C69.526 28.5602 69.7427 29.0778 69.9389 29.5954L70.1977 29.4979C69.9991 28.9743 69.7812 28.4495 69.5465 27.9403Z" fill="#E6E6E6"/>
<path d="M67.9308 24.9816L67.6973 25.1296C67.9946 25.5967 68.2799 26.0806 68.5447 26.5657L68.7879 26.4333C68.5206 25.9422 68.2317 25.4534 67.9308 24.9816Z" fill="#E6E6E6"/>
<path d="M65.9255 22.2695L65.7148 22.4489C66.0736 22.8702 66.4226 23.3108 66.7525 23.7561L66.974 23.5912C66.6417 23.141 66.289 22.6957 65.9255 22.2695Z" fill="#E6E6E6"/>
<path d="M63.5689 19.8549L63.3848 20.0607C63.7989 20.4302 64.2045 20.8191 64.5909 21.2151L64.7895 21.0213C64.3983 20.6204 63.9878 20.228 63.5689 19.8549Z" fill="#E6E6E6"/>
<path d="M60.9072 17.782L60.752 18.0107C61.2118 18.3201 61.6668 18.6499 62.1037 18.9905L62.2747 18.7727C61.8317 18.4284 61.3719 18.095 60.9072 17.782Z" fill="#E6E6E6"/>
<path d="M58.4844 16.3424V16.6554C58.7721 16.8058 59.0574 16.9635 59.3366 17.1248L59.4751 16.8853C59.15 16.6975 58.8198 16.5165 58.4844 16.3424Z" fill="#E6E6E6"/>
<path d="M71.5039 37.7948L71.7806 37.7898C71.7857 38.0692 71.7861 38.3501 71.7817 38.6247L71.5051 38.6204C71.5093 38.3489 71.5089 38.0711 71.5039 37.7948Z" fill="#E6E6E6"/>
<path d="M17.9969 24.0621H17.7928V23.8579H17.753V24.0621H17.5488V24.1018H17.753V24.3059H17.7928V24.1018H17.9969V24.0621Z" fill="#F2F2F2"/>
<path d="M15.6453 36.3832H15.4413V36.1791H15.4014V36.3832H15.1973V36.4231H15.4014V36.6271H15.4413V36.4231H15.6453V36.3832Z" fill="#F2F2F2"/>
<path d="M8.74295 47.1817H8.5388V46.9777H8.49896V47.1817H8.29492V47.2215H8.49896V47.4257H8.5388V47.2215H8.74295V47.1817Z" fill="#F2F2F2"/>
<path d="M27.9435 33.4861C25.9702 30.5528 25.1134 27.0094 25.5285 23.4986C25.9435 19.9878 27.603 16.7419 30.206 14.3497C32.809 11.9574 36.1831 10.5772 39.7164 10.4593C43.2497 10.3414 46.7083 11.4936 49.465 13.7069C52.2216 15.9203 54.0939 19.0483 54.7421 22.5236C55.3903 25.999 54.7717 29.5916 52.9983 32.6499C51.2249 35.7082 48.4143 38.0298 45.076 39.1936C41.7378 40.3574 38.093 40.2863 34.8027 38.9934C34.5893 39.7547 34.1905 40.4514 33.642 41.0208C33.0934 41.5903 32.4122 42.0149 31.6593 42.2565C30.9064 42.4981 30.1054 42.5493 29.3279 42.4054C28.5504 42.2615 27.8207 41.9271 27.2041 41.4321C26.5875 40.937 26.1033 40.2968 25.7949 39.5687C25.4864 38.8407 25.3633 38.0475 25.4366 37.2602C25.5099 36.4729 25.7772 35.716 26.2147 35.0574C26.6522 34.3987 27.2462 33.8589 27.9435 33.4861Z" fill="#3F3D56"/>
<path d="M40.1242 16.7845C43.5132 16.7845 45.8449 18.6643 45.8449 21.3665C45.8449 23.1559 44.9773 24.394 43.3054 25.3791C41.7329 26.2918 41.1997 26.9606 41.1997 28.1174C41.1997 28.2111 41.1812 28.304 41.1453 28.3906C41.1095 28.4772 41.0569 28.5559 40.9906 28.6222C40.9243 28.6885 40.8456 28.7411 40.759 28.777C40.6723 28.8129 40.5795 28.8313 40.4857 28.8313H38.7532C38.5682 28.8313 38.3903 28.7595 38.2572 28.631C38.1241 28.5024 38.0461 28.3272 38.0397 28.1423L38.0366 28.0541C37.883 26.1924 38.5337 25.0357 40.1694 24.0777C41.6967 23.1649 42.3384 22.5865 42.3384 21.4659C42.3384 20.3453 41.2539 19.5229 39.9073 19.5229C38.8839 19.5229 38.0739 20.0211 37.7024 20.8344C37.5718 21.1098 37.3651 21.3419 37.1067 21.5035C36.8484 21.665 36.5491 21.7492 36.2444 21.7461C35.0705 21.7461 34.295 20.4977 34.844 19.4601C35.7124 17.8187 37.5448 16.7845 40.1242 16.7845ZM37.7474 32.2746C37.7474 31.2353 38.615 30.4129 39.6814 30.4129C40.7569 30.4129 41.6244 31.2262 41.6244 32.2746C41.6244 33.3229 40.7568 34.1363 39.6814 34.1363C38.606 34.1363 37.7474 33.3229 37.7474 32.2746Z" fill="#1877F2"/>
</svg>
