<svg width="1099" height="798" viewBox="0 0 1099 798" fill="none" xmlns="http://www.w3.org/2000/svg">
<path d="M471 746C677.002 746 844 579.002 844 373C844 166.998 677.002 0 471 0C264.998 0 98 166.998 98 373C98 579.002 264.998 746 471 746Z" fill="#F2F2F2"/>
<path d="M148 797.68C229.738 797.68 296 787.078 296 774C296 760.922 229.738 750.32 148 750.32C66.2619 750.32 0 760.922 0 774C0 787.078 66.2619 797.68 148 797.68Z" fill="#F2F2F2"/>
<path d="M870 773.609C996.473 773.609 1099 757.205 1099 736.969C1099 716.733 996.473 700.329 870 700.329C743.527 700.329 641 716.733 641 736.969C641 757.205 743.527 773.609 870 773.609Z" fill="#F2F2F2"/>
<path d="M819.118 384.785C819.118 384.785 821.068 391.283 810.02 397.132C798.972 402.981 795.723 425.077 808.72 431.576C821.718 438.075 825.617 446.523 819.118 452.372C812.62 458.221 800.922 473.818 816.519 477.717C832.116 481.616 834.066 489.415 829.516 492.664C824.967 495.914 839.914 486.815 839.914 486.815C839.914 486.815 842.514 502.412 856.161 498.513C869.809 494.614 908.152 420.528 888.655 410.13C869.159 399.732 819.118 384.785 819.118 384.785Z" fill="#2F2E41"/>
<path d="M842.678 447.537C842.678 447.537 849.419 471.131 837.622 472.816C830.301 473.957 823.364 476.848 817.398 481.243L839.307 509.893H879.754L905.034 484.613C905.034 484.613 871.328 459.334 878.069 444.166C884.81 428.999 842.678 447.537 842.678 447.537Z" fill="#FFB9B9"/>
<path opacity="0.1" d="M842.678 447.537C842.678 447.537 849.419 471.131 837.622 472.816C830.301 473.957 823.364 476.848 817.398 481.243L839.307 509.893H879.754L905.034 484.613C905.034 484.613 871.328 459.334 878.069 444.166C884.81 428.999 842.678 447.537 842.678 447.537Z" fill="black"/>
<path d="M852.789 740.779L891.551 754.261L918.515 755.946L916.83 732.352L861.215 715.904L852.789 740.779Z" fill="#FFB9B9"/>
<path d="M902.5 735.722C902.5 735.722 902.5 759.317 905.871 759.317C909.241 759.317 954.744 754.261 968.227 759.317C981.709 764.372 1001.93 745.834 991.821 735.722C981.709 725.611 965.215 710.443 954.924 713.814C944.632 717.184 902.5 725.611 902.5 725.611V735.722Z" fill="#575A89"/>
<path d="M778.634 713.814C778.634 713.814 758.41 754.261 771.892 757.632C785.375 761.002 800.542 755.946 802.228 754.261C803.913 752.576 827.507 745.835 830.878 749.205C834.248 752.576 834.248 735.723 834.248 735.723L778.634 713.814Z" fill="#575A89"/>
<path d="M795.49 658.199C795.49 658.199 763.47 702.017 787.064 713.814C810.658 725.611 923.573 725.611 931.999 713.814C940.426 702.017 943.796 664.94 931.999 661.57C920.202 658.199 795.49 658.199 795.49 658.199Z" fill="#2F2E41"/>
<path opacity="0.2" d="M795.49 658.199C795.49 658.199 763.47 702.017 787.064 713.814C810.658 725.611 923.573 725.611 931.999 713.814C940.426 702.017 943.796 664.94 931.999 661.57C920.202 658.199 795.49 658.199 795.49 658.199Z" fill="black"/>
<path d="M856.16 459.334C877.568 459.334 894.922 441.98 894.922 420.572C894.922 399.165 877.568 381.811 856.16 381.811C834.753 381.811 817.398 399.165 817.398 420.572C817.398 441.98 834.753 459.334 856.16 459.334Z" fill="#FFB9B9"/>
<path d="M795.484 481.243L829.19 474.502C829.19 474.502 837.617 501.467 864.582 496.411C891.546 491.355 898.287 474.502 898.287 474.502C898.287 474.502 918.511 482.928 920.196 482.928C921.882 482.928 943.791 491.355 943.791 496.411C943.791 501.467 918.511 552.026 918.511 552.026L921.882 643.032L797.17 639.661L805.596 550.34L795.484 481.243Z" fill="#1877F2"/>
<path d="M776.946 525.061C776.946 525.061 766.834 614.381 773.575 621.122C780.316 627.864 807.281 646.402 807.281 646.402V626.178L793.799 600.899L807.281 541.914L776.946 525.061Z" fill="#FFB9B9"/>
<path d="M951.377 522.533C951.377 522.533 945.478 614.381 945.478 617.752C945.478 621.123 930.311 632.92 925.255 632.92C920.199 632.92 916.828 624.493 916.828 624.493L928.625 611.011L920.199 541.914L951.377 522.533Z" fill="#FFB9B9"/>
<path d="M935.363 651.458C935.363 651.458 1011.2 609.326 1012.89 651.458C1014.57 693.59 974.125 710.443 974.125 710.443C974.125 710.443 869.637 741.775 865.423 730.323C861.21 718.87 852.784 700.332 859.525 698.646C866.266 696.961 874.692 693.59 878.063 696.961C881.434 700.332 923.566 671.682 923.566 671.682L935.363 651.458Z" fill="#2F2E41"/>
<path opacity="0.2" d="M970.759 646.402C970.759 646.402 955.591 653.143 950.535 658.199C945.479 663.255 923.57 671.681 923.57 671.681" stroke="black" stroke-width="2" stroke-miterlimit="10"/>
<path d="M805.6 484.613L795.488 481.243C795.488 481.243 758.411 520.005 770.208 530.116C782.005 540.228 788.747 543.599 792.117 546.969C795.488 550.34 812.341 552.025 812.341 552.025L805.6 484.613Z" fill="#1877F2"/>
<path d="M928.625 493.04L943.793 496.411C943.793 496.411 955.59 521.69 958.961 525.061C962.331 528.431 953.905 526.746 948.849 533.487C943.793 540.228 938.737 552.025 928.625 552.025C918.514 552.025 905.031 535.172 905.031 535.172L928.625 493.04Z" fill="#1877F2"/>
<path d="M798.859 666.626C798.859 666.626 734.818 621.123 712.909 654.829C691 688.534 807.286 734.037 824.139 740.779C840.992 747.52 856.16 754.261 856.16 754.261C856.16 754.261 871.327 717.185 871.327 710.443C871.327 703.702 859.53 703.702 856.16 703.702C852.789 703.702 837.621 700.332 834.251 695.276C830.88 690.22 798.859 666.626 798.859 666.626Z" fill="#2F2E41"/>
<path opacity="0.2" d="M763.469 654.828C763.469 654.828 780.322 668.311 795.489 671.681C810.657 675.052 815.713 683.478 815.713 683.478" stroke="black" stroke-width="2" stroke-miterlimit="10"/>
<path d="M787.228 591.462L788.575 662.818C788.619 665.175 789.593 667.419 791.285 669.06C792.977 670.702 795.249 671.608 797.606 671.582L930.396 670.09C932.658 670.064 934.827 669.181 936.464 667.619C938.1 666.057 939.083 663.931 939.213 661.672L943.244 591.808C943.314 590.594 943.135 589.378 942.719 588.235C942.302 587.092 941.657 586.046 940.822 585.162C939.987 584.277 938.98 583.573 937.863 583.091C936.746 582.609 935.542 582.361 934.326 582.361H796.159C794.972 582.361 793.797 582.597 792.702 583.057C791.607 583.517 790.615 584.19 789.784 585.037C788.952 585.884 788.298 586.889 787.859 587.992C787.42 589.095 787.206 590.275 787.228 591.462Z" fill="#575A89"/>
<path d="M858.228 371.88C858.228 371.88 860.388 379.079 848.149 385.559C835.91 392.038 832.31 416.516 846.709 423.715C861.108 430.914 865.427 440.274 858.228 446.753C851.029 453.232 838.07 470.511 855.348 474.83C872.627 479.15 874.787 487.789 869.747 491.389C864.707 494.989 881.266 484.91 881.266 484.91C881.266 484.91 884.146 502.188 899.264 497.868C914.383 493.549 929.468 415.028 912.615 394.805C896.944 376 858.228 371.88 858.228 371.88Z" fill="#2F2E41"/>
<path d="M853.633 364.469C853.636 353.922 885.192 361.501 898.721 376.227C908.09 386.425 922.32 401.768 910.395 412.583C898.471 423.397 930.835 437.575 939.514 441.873C948.194 446.171 965.331 459.316 949.858 468.134C934.384 476.952 934.633 485.854 940.457 487.962C946.28 490.069 927.617 484.828 927.617 484.828C927.617 484.828 929.503 502.243 913.779 502.159C898.056 502.076 852.947 415.665 863.723 391.646C873.743 369.314 853.633 364.469 853.633 364.469Z" fill="#2F2E41"/>
<path d="M860.464 362.158C818.266 359.617 814.031 391.381 814.031 391.381C814.323 409.763 843.514 400.806 851.622 403.546C861.403 396.51 880.257 383.196 893.741 373.695C883.952 366.802 872.42 362.804 860.464 362.158Z" fill="#2F2E41"/>
<path d="M848.445 564.849C848.445 564.849 810.593 387.449 573.672 258.76" stroke="#3F3D56" stroke-width="2" stroke-miterlimit="10"/>
<path d="M583.429 254.891L583.903 256.836L574.32 259.16L577.339 268.549L575.433 269.16L571.758 257.724L583.429 254.891Z" fill="#3F3D56"/>
<path d="M68.4724 746.111C68.4724 768.58 55.116 776.425 38.6386 776.425C38.2569 776.425 37.8758 776.421 37.4953 776.412C36.7318 776.396 35.9756 776.36 35.2286 776.309C20.358 775.256 8.80469 767.008 8.80469 746.111C8.80469 724.486 36.4391 697.199 38.5149 695.18L38.5186 695.176C38.5986 695.098 38.6386 695.06 38.6386 695.06C38.6386 695.06 68.4724 723.643 68.4724 746.111Z" fill="#1877F2"/>
<path d="M37.5539 772.988L48.4655 757.741L37.5266 774.662L37.4975 776.413C36.7341 776.396 35.9779 776.36 35.2309 776.309L36.4069 753.829L36.3978 753.655L36.4178 753.622L36.5287 751.499L25.5625 734.536L36.5632 749.907L36.5887 750.358L37.4775 733.373L28.0891 715.845L37.592 730.392L38.5172 695.18L38.5209 695.06V695.176L38.3664 722.943L47.713 711.935L38.3282 725.335L38.081 740.542L46.8078 725.948L38.0447 742.78L37.9065 751.234L50.5759 730.921L37.8593 754.184L37.5539 772.988Z" fill="#3F3D56"/>
<path d="M210.77 740.291L217.151 735.549C217.151 735.549 221.376 759.146 216.662 762.681C211.948 766.217 194.271 772.109 194.271 779.18C194.271 786.251 154.204 795.678 153.025 785.072C151.847 774.466 156.56 768.574 156.56 768.574C156.56 768.574 175.416 749.718 177.773 746.183C180.13 742.647 186.022 735.577 186.022 735.577L210.77 740.291Z" fill="#2F2E41"/>
<path d="M116.5 446.854C116.5 446.854 116.677 447.891 116.983 449.788C117.266 451.473 117.655 453.854 118.126 456.788C123.076 486.992 137.512 575.907 136.534 578.841C135.355 582.377 127.106 595.34 136.534 598.875C137.441 599.217 138.419 600.325 139.468 602.069C141.493 605.825 143.161 609.763 144.453 613.83C150.074 630.14 156.085 656.243 159.561 674.32C161.081 682.263 162.118 688.65 162.425 691.997C162.531 692.771 162.543 693.554 162.46 694.331C161.282 699.044 169.531 715.543 173.066 720.257C176.602 724.97 182.494 729.684 181.315 734.398C180.137 739.112 210.777 752.075 214.312 743.826C217.848 735.577 217.848 730.863 219.026 728.506C220.205 726.149 221.383 709.651 215.491 707.294C209.598 704.937 213.134 663.691 207.242 655.441C205.274 652.695 202.268 643.397 199.122 632.214C197.885 627.83 196.635 623.163 195.41 618.485C190.437 599.311 186.029 580.02 186.029 580.02L187.208 442.14L122.392 433.891L120.731 437.556L117.419 444.827L116.5 446.854Z" fill="#2F2E41"/>
<path d="M112.963 673.118C112.963 673.118 103.535 663.691 98.8215 673.118C94.1077 682.546 89.3938 719.078 81.1446 727.327C72.8954 735.577 62.2892 776.823 74.0739 779.18C85.8585 781.537 98.8215 775.644 100 768.574C101.178 761.503 125.926 724.971 125.926 721.435C125.926 717.9 109.428 704.937 109.428 704.937L112.963 673.118Z" fill="#2F2E41"/>
<path d="M257.912 382.038C257.912 382.038 242.592 519.918 239.056 532.881C235.521 545.845 216.666 595.34 210.773 603.589C204.881 611.838 167.17 679.011 162.456 682.546C157.743 686.081 148.315 695.509 148.315 695.509C148.315 695.509 130.638 713.186 128.281 716.721C125.924 720.257 105.89 709.651 104.712 702.58C103.533 695.509 105.89 683.725 107.069 679.011C108.247 674.297 104.712 667.226 108.247 663.691C111.783 660.155 129.459 642.478 129.459 634.229C129.459 625.98 160.099 577.663 171.884 567.057C183.669 556.451 181.312 538.774 181.312 538.774V466.888L116.496 446.854C116.496 446.854 120.032 390.288 128.281 390.288C136.53 390.288 244.949 371.432 257.912 382.038Z" fill="#2F2E41"/>
<path d="M162.46 185.235C183.937 185.235 201.349 167.824 201.349 146.346C201.349 124.868 183.937 107.457 162.46 107.457C140.982 107.457 123.57 124.868 123.57 146.346C123.57 167.824 140.982 185.235 162.46 185.235Z" fill="#9F616A"/>
<path d="M175.423 176.986C175.423 176.986 180.136 194.663 186.029 199.377C191.921 204.09 170.709 224.124 170.709 224.124L130.641 226.481L123.57 204.09C123.57 204.09 136.533 178.164 132.998 161.666C129.463 145.167 175.423 176.986 175.423 176.986Z" fill="#9F616A"/>
<path d="M191.922 197.02C191.922 197.02 181.315 198.198 178.958 201.734C176.602 205.269 160.103 215.875 147.14 213.518C134.177 211.162 125.928 207.626 123.571 208.805C121.214 209.983 116.5 234.731 116.5 234.731L129.463 272.442L127.106 376.146L123.571 404.429C123.571 404.429 116.5 395.001 144.783 400.894C173.066 406.786 209.598 396.18 221.383 395.001C233.168 393.823 253.202 390.288 254.38 383.217C255.558 376.146 250.845 350.22 250.845 350.22L231.989 271.263L220.205 228.838L191.922 197.02Z" fill="#1877F2"/>
<path d="M180.773 191.701C180.773 191.701 190.742 186.414 194.277 191.127C197.813 195.841 242.594 202.912 242.594 206.447C242.594 209.983 252.022 305.438 249.665 313.687C247.308 321.937 254.379 331.364 254.379 331.364L262.628 366.718C262.628 366.718 285.019 433.89 275.591 436.247C266.163 438.604 257.914 436.247 254.379 436.247C250.843 436.247 252.022 391.466 242.594 379.681C233.167 367.897 220.203 338.435 217.847 332.543C215.49 326.651 186.028 245.337 187.207 235.909C188.385 226.481 180.773 191.701 180.773 191.701Z" fill="#D0CDE1"/>
<path d="M131.816 197.02C131.816 197.02 122.388 197.02 121.21 199.377C120.031 201.734 108.246 217.054 103.533 220.589C98.8187 224.125 82.3203 239.445 82.3203 242.98C82.3203 246.515 116.496 272.442 116.496 272.442C116.496 272.442 130.637 341.971 123.566 365.54C116.496 389.109 105.89 445.675 110.603 449.211C115.317 452.746 125.923 453.925 125.923 449.211C125.923 444.497 132.994 393.823 138.886 383.217C144.779 372.611 162.456 305.438 155.385 286.583C148.314 267.728 131.816 197.02 131.816 197.02Z" fill="#D0CDE1"/>
<path d="M287.374 313.688C287.374 313.688 288.552 350.22 275.589 369.075C262.626 387.931 254.377 409.143 254.377 409.143C254.377 409.143 233.165 403.251 229.629 396.18C226.094 389.109 203.703 395.001 203.703 392.644C203.703 390.287 230.808 378.503 233.165 376.146C235.522 373.789 243.771 373.789 248.485 369.075C253.199 364.361 254.377 353.755 254.377 353.755L259.091 323.115L287.374 313.688Z" fill="#9F616A"/>
<path d="M189.244 122.368C192.236 122.096 195.322 121.797 197.966 120.371C203.89 117.176 205.461 108.077 200.951 103.08C199.708 101.809 198.317 100.691 196.808 99.7489L187.85 93.6517C183.888 90.9551 179.833 88.2142 175.212 86.943C171.033 85.7932 166.618 85.9113 162.292 86.1803C153.893 86.7023 145.443 87.7805 137.543 90.6803C129.644 93.58 122.275 98.4312 117.491 105.354C109.906 116.328 109.802 131.128 113.979 143.798C118.157 156.467 126.092 167.499 133.911 178.308L137.967 158.513C138.329 156.75 138.796 154.817 140.262 153.774C143.907 151.18 148.365 156.505 152.838 156.471C155.712 156.449 158.125 154.085 159.214 151.425C160.304 148.765 160.375 145.82 160.627 142.957C161.161 136.892 163.281 128.454 169.023 125.11C174.375 121.994 183.229 122.914 189.244 122.368Z" fill="#2F2E41"/>
<path opacity="0.1" d="M187.057 447.805C187.057 447.805 183.076 562.932 180.719 566.467C178.362 570.003 180.719 447.443 180.719 447.443L187.057 447.805Z" fill="black"/>
<path d="M233.164 206.448H242.592C242.592 206.448 282.659 260.657 277.946 264.192C273.232 267.728 277.946 277.155 277.946 277.155L287.373 294.832C287.373 294.832 299.158 305.438 295.622 307.795C292.087 310.152 287.373 319.58 287.373 319.58C287.373 319.58 263.804 316.045 256.733 330.186L241.449 310.891L233.164 206.448Z" fill="#D0CDE1"/>
<path d="M236.499 223.884L204.148 237.243L229.043 297.529L261.393 284.17L236.499 223.884Z" fill="#2F2E41"/>
<path d="M232.707 259.242C236.28 257.766 238.078 253.909 236.723 250.627C235.367 247.344 231.371 245.879 227.798 247.355C224.225 248.83 222.427 252.687 223.783 255.97C225.138 259.253 229.134 260.718 232.707 259.242Z" fill="#1877F2"/>
<path d="M209.597 300.724C209.597 300.724 124.748 371.432 110.606 349.041C96.4648 326.65 125.926 307.795 125.926 307.795C125.926 307.795 151.853 308.974 181.314 290.118L210.776 277.155C210.776 277.155 237.672 238.756 246.837 253.378C256.002 268 231.192 293.449 209.597 300.724Z" fill="#9F616A"/>
<path d="M95.2863 238.266L82.3232 242.98V278.334L77.6094 285.405C77.6094 285.405 78.7878 299.546 82.3232 303.081C85.8586 306.617 92.9294 305.438 90.5724 313.688C89.1559 319.066 88.7562 324.661 89.394 330.186C89.394 330.186 110.606 357.291 111.785 353.755C112.963 350.22 129.462 306.617 131.819 306.617C134.176 306.617 108.249 238.266 108.249 238.266H95.2863Z" fill="#D0CDE1"/>
<path d="M250.249 416.803C250.249 416.803 262.434 405.018 256.341 404.429C250.249 403.84 229.037 392.055 225.501 397.947C221.966 403.84 250.249 416.803 250.249 416.803Z" fill="#2F2E41"/>
<path d="M482 192C491.389 192 499 187.971 499 183C499 178.03 491.389 174 482 174C472.611 174 465 178.03 465 183C465 187.971 472.611 192 482 192Z" fill="#57B894"/>
<path d="M547 213C508.667 198.522 470.333 198.522 432 213V166C469.498 154.685 509.502 154.685 547 166V213Z" stroke="#3F3D56" stroke-width="2" stroke-miterlimit="10"/>
<path d="M531 203.281C503.333 192.832 475.667 192.832 448 203.281V169.359C475.064 161.192 503.936 161.192 531 169.359V203.281Z" stroke="#3F3D56" stroke-width="2" stroke-miterlimit="10"/>
<path d="M488 188C497.389 188 505 183.971 505 179C505 174.03 497.389 170 488 170C478.611 170 471 174.03 471 179C471 183.971 478.611 188 488 188Z" stroke="#3F3D56" stroke-width="2" stroke-miterlimit="10"/>
<path d="M494.498 248.364C503.698 246.486 510.349 241.016 509.355 236.146C508.361 231.276 500.098 228.85 490.899 230.727C481.7 232.605 475.048 238.075 476.042 242.945C477.036 247.815 485.299 250.241 494.498 248.364Z" fill="#57B894"/>
<path d="M562.388 255.941C521.934 249.422 484.375 257.087 449.711 278.938L440.312 232.888C474.791 214.302 513.986 206.303 552.99 209.891L562.388 255.941Z" stroke="#3F3D56" stroke-width="2" stroke-miterlimit="10"/>
<path d="M544.763 249.618C515.566 244.912 488.458 250.445 463.44 266.215L456.656 232.979C481.54 219.565 509.829 213.791 537.98 216.381L544.763 249.618Z" stroke="#3F3D56" stroke-width="2" stroke-miterlimit="10"/>
<path d="M499.576 243.245C508.776 241.367 515.427 235.897 514.433 231.027C513.439 226.157 505.176 223.731 495.977 225.608C486.778 227.486 480.126 232.956 481.12 237.826C482.114 242.696 490.377 245.122 499.576 243.245Z" stroke="#3F3D56" stroke-width="2" stroke-miterlimit="10"/>
<path d="M506.136 296.665C506.482 291.707 499.168 287.159 489.802 286.507C480.436 285.855 472.564 289.346 472.219 294.305C471.873 299.263 479.187 303.812 488.553 304.463C497.919 305.115 505.791 301.624 506.136 296.665Z" fill="#57B894"/>
<path d="M551.934 329.925C514.698 312.821 476.457 310.16 437.211 321.942L440.474 275.055C478.667 266.37 518.574 269.147 555.196 283.038L551.934 329.925Z" stroke="#3F3D56" stroke-width="2" stroke-miterlimit="10"/>
<path d="M536.651 319.118C509.777 306.774 482.177 304.853 453.852 313.356L456.206 279.516C483.772 273.248 512.574 275.252 539.006 285.278L536.651 319.118Z" stroke="#3F3D56" stroke-width="2" stroke-miterlimit="10"/>
<path d="M512.394 293.091C512.739 288.133 505.426 283.585 496.06 282.933C486.694 282.281 478.821 285.773 478.476 290.731C478.131 295.69 485.444 300.238 494.811 300.89C504.177 301.541 512.049 298.05 512.394 293.091Z" stroke="#3F3D56" stroke-width="2" stroke-miterlimit="10"/>
<path d="M414.919 214.091C414.919 214.091 341.423 204.037 288.938 234.795" stroke="#3F3D56" stroke-width="2" stroke-miterlimit="10"/>
<path d="M290.709 224.459L292.618 225.063L289.634 234.462L299.228 236.751L298.761 238.698L287.078 235.907L290.709 224.459Z" fill="#3F3D56"/>
</svg>
