<svg width="1329" height="800" viewBox="0 0 1329 800" fill="none" xmlns="http://www.w3.org/2000/svg">
<path d="M904.052 456.674L915.444 454.704C916.537 454.513 917.622 454.28 918.713 454.082C900.683 442.89 886.996 425.898 879.9 405.898C872.805 385.898 872.723 364.079 879.669 344.026C886.614 323.974 900.174 306.88 918.12 295.553C936.066 284.227 957.331 279.341 978.421 281.699L963.49 317.228L998.865 286.34C998.947 286.361 999.028 286.388 999.106 286.421C1010.69 290.501 1021.36 296.822 1030.5 305.024C1039.64 313.227 1047.07 323.149 1052.38 334.225C1057.68 345.301 1060.76 357.313 1061.42 369.577C1062.08 381.84 1060.32 394.114 1056.24 405.697C1055.65 407.382 1054.95 408.99 1054.27 410.618C1064.26 405.6 1073.84 399.759 1081.65 392.28C1097.47 377.124 1106.13 356.21 1115.82 330.442C1135 279.381 1153.47 227.581 1171.21 175.667C1151.65 165.083 1136.5 147.87 1128.49 127.122C1120.48 106.374 1120.13 83.4502 1127.51 62.4675C1128.46 59.768 1129.56 57.1686 1130.73 54.6156C1131.02 53.9767 1131.31 53.3418 1131.62 52.712C1132.8 50.2644 1134.05 47.8663 1135.43 45.5648C1135.65 45.1875 1135.9 44.8344 1136.13 44.4612C1137.33 42.5207 1138.59 40.6376 1139.92 38.8119C1140.41 38.1265 1140.9 37.443 1141.41 36.7738C1142.92 34.808 1144.47 32.8953 1146.11 31.0692C1146.66 30.4582 1147.25 29.8873 1147.81 29.2921C1149.07 27.9613 1150.37 26.6707 1151.7 25.4203C1152.4 24.762 1153.09 24.099 1153.81 23.464C1154 23.3011 1154.17 23.1233 1154.35 22.9618C1154.36 22.9737 1154.37 22.9865 1154.38 22.9982C1170.85 8.64349 1191.83 0.514304 1213.68 0.023589C1235.52 -0.467126 1256.85 6.71164 1273.95 20.3122L1254.52 66.5463L1289.49 36.0259C1301.73 51.619 1308.67 70.715 1309.29 90.528C1309.91 110.341 1304.18 129.834 1292.95 146.164C1292.98 146.176 1293.01 146.184 1293.04 146.196C1292.66 146.757 1292.23 147.271 1291.84 147.822C1291.1 148.856 1290.34 149.872 1289.57 150.87C1288.58 152.15 1287.55 153.386 1286.49 154.606C1285.7 155.526 1284.91 156.454 1284.09 157.34C1282.87 158.635 1281.61 159.862 1280.33 161.082C1279.58 161.793 1278.87 162.541 1278.1 163.226C1276.09 165.022 1274.01 166.726 1271.86 168.338C1271.11 168.902 1270.32 169.4 1269.55 169.941C1268.04 171.003 1266.52 172.048 1264.95 173.017C1263.98 173.618 1262.98 174.167 1261.99 174.732C1260.55 175.55 1259.11 176.343 1257.63 177.083C1256.58 177.608 1255.53 178.107 1254.46 178.592C1252.95 179.283 1251.41 179.924 1249.86 180.534C1248.82 180.943 1247.78 181.358 1246.73 181.73C1244.98 182.343 1243.22 182.876 1241.44 183.386C1240.54 183.644 1239.66 183.939 1238.75 184.17C1236.09 184.85 1233.39 185.429 1230.66 185.873C1230.15 185.957 1229.63 185.988 1229.11 186.063C1226.85 186.392 1224.58 186.658 1222.28 186.82C1221.3 186.889 1220.31 186.899 1219.32 186.938C1217.47 187.01 1215.61 187.047 1213.75 187.007C1212.66 186.984 1211.58 186.928 1210.49 186.866C1208.67 186.763 1206.85 186.605 1205.04 186.392C1203.96 186.267 1202.89 186.144 1201.81 185.981C1199.86 185.685 1197.92 185.299 1195.97 184.875C1195.84 184.848 1195.72 184.831 1195.59 184.802C1188.1 206.704 1180.48 228.558 1172.72 250.366C1182.18 241.853 1193.29 235.364 1205.36 231.297C1217.42 227.231 1230.19 225.673 1242.88 226.719C1255.57 227.765 1267.91 231.393 1279.15 237.38C1290.39 243.367 1300.28 251.588 1308.23 261.536L1275.89 297.292L1319.67 279.817C1330.3 302.114 1331.65 327.72 1323.41 351.009C1320.56 359.192 1316.56 366.93 1311.53 373.991C1300.72 389.289 1285.55 400.985 1268.01 407.56C1250.47 414.136 1231.35 415.288 1213.14 410.867C1194.94 406.446 1178.48 396.657 1165.9 382.768C1153.33 368.88 1145.22 351.533 1142.62 332.978C1141.8 335.175 1141.01 337.4 1140.18 339.595C1131.64 362.327 1121 390.617 1099.65 411.07C1085.18 424.934 1067.37 433.729 1050.29 441.165C1039.16 446.007 1027.89 450.483 1016.47 454.593C1003.77 462.292 989.429 466.863 974.619 467.931C956.599 472.937 938.351 477.116 919.932 480.343L908.448 482.322C898.127 484.09 887.543 485.911 877.04 488.008C878.552 488.457 880.067 488.885 881.571 489.414C900.286 496.001 916.423 508.368 927.648 524.728C938.874 541.088 944.607 560.593 944.02 580.425L872.02 602.525L937.171 612.871C931.211 627.517 921.636 640.415 909.34 650.358C897.045 660.301 882.429 666.966 866.859 669.729C851.29 672.492 835.274 671.264 820.307 666.159C805.341 661.054 791.912 652.239 781.276 640.537C781.938 642.753 782.602 644.966 783.268 647.174C784.591 651.564 785.903 655.928 787.163 660.251C804.307 719.159 796.929 765.497 766.384 790.724L749.81 770.661C779.538 746.104 770.315 695.502 762.176 667.52C760.939 663.275 759.648 658.987 758.348 654.676C747.183 617.581 734.525 575.535 750.919 536.898C775.626 478.664 846.835 466.471 904.052 456.674Z" fill="#F2F2F2"/>
<path d="M882.951 798.28H378.487C361.945 798.28 346.079 791.708 334.382 780.01C322.684 768.313 316.113 752.448 316.113 735.905V504.785C316.113 501.428 316.796 498.107 318.122 495.024C319.448 491.941 321.388 489.16 323.823 486.851L591.139 233.458C601.827 223.327 615.993 217.68 630.719 217.68C645.445 217.68 659.611 223.327 670.299 233.458L925.17 475.055C931.537 481.09 936.608 488.359 940.073 496.418C943.538 504.478 945.325 513.159 945.325 521.931V735.905C945.325 744.096 943.712 752.207 940.577 759.775C937.443 767.342 932.848 774.218 927.056 780.01C921.264 785.802 914.388 790.397 906.82 793.532C899.253 796.666 891.142 798.28 882.951 798.28Z" fill="#3F3D56"/>
<path opacity="0.1" d="M316.113 508.58H940.082V760.616C940.082 770.605 936.114 780.185 929.05 787.249C921.987 794.312 912.407 798.28 902.418 798.28H353.777C343.787 798.28 334.207 794.312 327.144 787.249C320.081 780.185 316.113 770.605 316.113 760.616V508.58Z" fill="black"/>
<path d="M827.766 309.984H432.361C413.407 309.984 398.041 325.35 398.041 344.304V739.709C398.041 758.663 413.407 774.029 432.361 774.029H827.766C846.72 774.029 862.086 758.663 862.086 739.709V344.304C862.086 325.35 846.72 309.984 827.766 309.984Z" fill="#1877F2"/>
<path opacity="0.1" d="M862.086 519V774.028H398.041V519L630.064 631.144L862.086 519Z" fill="black"/>
<path d="M630.064 645.565L332.769 501.872C330.93 500.983 328.895 500.576 326.856 500.688C324.817 500.801 322.839 501.429 321.109 502.514C319.379 503.6 317.953 505.107 316.964 506.894C315.976 508.681 315.457 510.69 315.457 512.732V759.96C315.457 764.906 316.431 769.804 318.324 774.374C320.217 778.943 322.991 783.095 326.489 786.593C329.986 790.09 334.138 792.865 338.708 794.757C343.277 796.65 348.175 797.624 353.121 797.624H907.006C911.952 797.624 916.85 796.65 921.419 794.757C925.989 792.865 930.141 790.09 933.639 786.593C937.136 783.095 939.91 778.943 941.803 774.374C943.696 769.804 944.67 764.906 944.67 759.96V516.967C944.67 514.475 944.037 512.024 942.831 509.843C941.625 507.662 939.884 505.823 937.773 504.499C935.662 503.174 933.249 502.408 930.76 502.271C928.272 502.133 925.789 502.63 923.545 503.715L630.064 645.565Z" fill="#3F3D56"/>
<path d="M567.798 352.588H438.023V370.94H567.798V352.588Z" fill="#F2F2F2"/>
<path d="M812.929 419.441H427.536V429.928H812.929V419.441Z" fill="#F2F2F2"/>
<path d="M812.929 454.836H427.536V465.323H812.929V454.836Z" fill="#F2F2F2"/>
<path d="M812.929 490.229H427.536V500.715H812.929V490.229Z" fill="#F2F2F2"/>
<path d="M80.1578 797.625H1160.31" stroke="#3F3D56" stroke-miterlimit="10"/>
<path d="M0.255493 636.207C0.255493 713.496 48.7423 776.037 108.663 776.037L0.255493 636.207Z" fill="#46455B"/>
<path d="M108.663 776.036C108.663 697.878 162.771 634.635 229.639 634.635L108.663 776.036Z" fill="#1877F2"/>
<path d="M39.5339 643.213C39.5339 716.629 70.4531 776.036 108.663 776.036L39.5339 643.213Z" fill="#1877F2"/>
<path d="M108.663 776.036C108.663 676.169 171.204 595.357 248.492 595.357L108.663 776.036Z" fill="#46455B"/>
<path d="M85.8569 777.022C85.8569 777.022 101.231 776.549 105.864 773.249C110.498 769.95 129.513 766.01 130.663 771.302C131.812 776.593 153.767 797.619 136.41 797.759C119.053 797.899 96.0795 795.055 91.4551 792.238C86.8307 789.421 85.8569 777.022 85.8569 777.022Z" fill="#A8A8A8"/>
<path opacity="0.2" d="M136.719 795.917C119.362 796.057 96.3893 793.213 91.7648 790.396C88.2431 788.251 86.8398 780.553 86.3702 777.002C86.045 777.016 85.8569 777.022 85.8569 777.022C85.8569 777.022 86.8307 789.421 91.4551 792.238C96.0795 795.055 119.053 797.899 136.41 797.759C141.42 797.718 143.151 795.936 143.056 793.295C142.36 794.891 140.449 795.887 136.719 795.917Z" fill="black"/>
<path d="M943.698 213.348C942.91 220.367 937.557 226.021 935.573 232.8C932.587 243.003 937.75 253.952 944.812 261.898C950.51 268.242 957.411 273.393 965.114 277.05C972.817 280.708 981.17 282.8 989.688 283.206C992.19 283.426 994.711 283.151 997.107 282.397C999.247 281.536 1001.17 280.22 1002.75 278.539C1008.07 273.199 1010.93 265.8 1012.06 258.349C1013.2 250.899 1012.76 243.308 1012.31 235.784C1012.32 234.229 1012.03 232.687 1011.48 231.233C1010.76 229.849 1009.76 228.624 1008.55 227.632C1004.72 224.119 1000.5 221.055 995.98 218.5C993.935 217.583 992.131 216.203 990.712 214.469C989.857 212.983 989.304 211.343 989.084 209.643L987.695 202.566C987.448 200.527 986.751 198.567 985.656 196.829C983.202 193.52 978.509 193.069 974.393 192.908L959.311 192.316C954.62 192.132 948.439 190.787 943.859 191.708C939.582 192.569 941.003 196.509 941.78 200.098C942.906 204.43 943.55 208.874 943.698 213.348Z" fill="#A0616A"/>
<path opacity="0.1" d="M943.698 213.348C942.91 220.367 937.557 226.021 935.573 232.8C932.587 243.003 937.75 253.952 944.812 261.898C950.51 268.242 957.411 273.393 965.114 277.05C972.817 280.708 981.17 282.8 989.688 283.206C992.19 283.426 994.711 283.151 997.107 282.397C999.247 281.536 1001.17 280.22 1002.75 278.539C1008.07 273.199 1010.93 265.8 1012.06 258.349C1013.2 250.899 1012.76 243.308 1012.31 235.784C1012.32 234.229 1012.03 232.687 1011.48 231.233C1010.76 229.849 1009.76 228.624 1008.55 227.632C1004.72 224.119 1000.5 221.055 995.98 218.5C993.935 217.583 992.131 216.203 990.712 214.469C989.857 212.983 989.304 211.343 989.084 209.643L987.695 202.566C987.448 200.527 986.751 198.567 985.656 196.829C983.202 193.52 978.509 193.069 974.393 192.908L959.311 192.316C954.62 192.132 948.439 190.787 943.859 191.708C939.582 192.569 941.003 196.509 941.78 200.098C942.906 204.43 943.55 208.874 943.698 213.348Z" fill="black"/>
<path d="M1039.64 529.277C1037.5 552.705 1035.36 576.13 1033.23 599.55C1031.56 617.982 1029.85 636.489 1026.57 654.683C1025.44 660.953 1024.11 667.19 1022.53 673.374C1018.15 690.543 1011.8 707.323 1009.75 724.924C1009.68 725.431 1009.63 725.949 1009.57 726.467C1009.34 730.359 1008.61 734.204 1007.38 737.906C1006.36 740.593 1004.78 743.043 1003.67 745.697C1001.46 751.007 1001.17 756.877 1000.9 762.629C993.115 758.253 984.596 755.341 975.764 754.039C971.501 753.402 966.753 752.949 963.85 749.765C960.634 746.247 960.991 740.863 961.53 736.136C963.224 721.46 964.915 706.791 966.602 692.129C967.153 685.821 968.225 679.57 969.807 673.439C970.39 671.399 971.091 669.392 971.803 667.385C972.785 664.622 973.778 661.86 974.523 659.021C975.596 654.436 976.346 649.78 976.767 645.09C978.505 630.327 980.598 615.597 982.433 600.845L982.53 600.069C985.282 577.709 987.375 555.241 986.771 532.72C986.685 529.385 986.544 526.051 986.328 522.706C986.026 517.86 985.584 515.292 989.598 512.26C994.033 508.914 999.872 506.573 1004.94 504.382C1007.67 503.195 1037.74 492.522 1038.44 494.864C1039.85 499.859 1040.59 505.019 1040.64 510.209C1040.66 516.579 1040.33 522.945 1039.64 529.277Z" fill="#605D82"/>
<path opacity="0.1" d="M1026.57 654.683C1025.44 660.953 1024.11 667.19 1022.53 673.374C1018.15 690.543 1011.8 707.323 1009.75 724.924C1009.68 725.431 1009.63 725.949 1009.57 726.467C996.17 707.323 984.883 686.733 971.804 667.385C972.786 664.622 973.779 661.859 974.523 659.021C975.596 654.436 976.346 649.78 976.768 645.09C978.505 630.327 980.599 615.597 982.433 600.845L982.53 600.068C983.298 603.2 984.394 606.242 985.8 609.144C994.584 626.993 1015.45 636.014 1025.66 653.097C1025.98 653.626 1026.28 654.154 1026.57 654.683Z" fill="black"/>
<path d="M917.814 497.736C918.257 512.052 920.549 526.238 922.835 540.377L927.554 569.549C930.136 585.514 932.825 601.805 940.38 616.105C946.032 626.802 954.175 635.93 961.542 645.527C979.652 669.121 993.257 695.847 1010.43 720.132C1015.42 727.19 1022.55 734.824 1031.07 733.35C1036.66 732.383 1040.73 727.728 1045.12 724.139C1050.3 719.908 1056.55 716.812 1060.62 711.508C1064.7 706.204 1065.5 697.389 1059.97 693.615C1057.98 692.508 1055.85 691.639 1053.65 691.028C1045.09 687.772 1039.55 679.411 1036.02 670.957C1032.5 662.502 1030.36 653.412 1025.66 645.548C1015.45 628.466 994.581 619.445 985.795 601.59C980.874 591.589 980.405 580.063 980.029 568.923L979.07 540.527C978.965 537.422 978.883 534.193 980.145 531.354C983.506 523.795 993.654 523.091 1001.87 522.133C1011.2 521.04 1020.23 518.189 1028.49 513.733C1033.23 511.177 1037.85 507.919 1040.38 503.174C1042.69 498.845 1043.01 493.767 1043.28 488.867L1046.13 437.406C1046.37 432.978 1046.59 428.401 1045.03 424.25C1041.12 413.828 1027.95 410.423 1016.83 410.92C996.133 411.845 977.025 420.749 957.509 426.762C952.675 428.286 947.768 429.567 942.805 430.597C938.425 431.476 933.124 431.111 928.947 432.52C921.518 435.024 921.706 451.271 920.653 458.01C918.477 471.135 917.527 484.435 917.814 497.736Z" fill="#605D82"/>
<path d="M1028.26 735.507C1030.09 737.347 1030.69 740.044 1031.16 742.592C1033.8 756.727 1035.17 771.069 1035.26 785.447C1035.14 786.789 1035.4 788.137 1036.03 789.33C1036.54 790.042 1037.24 790.602 1038.05 790.95C1043.32 793.465 1049.44 789.961 1053.84 786.11C1061.99 778.972 1068.88 769.391 1069.35 758.568C1069.26 755.78 1069.36 752.99 1069.64 750.215C1070.35 746.14 1072.73 742.59 1074.83 739.023C1078.4 732.952 1081.28 726.501 1083.41 719.791C1084.21 717.269 1084.74 714.095 1082.77 712.335C1082.07 711.786 1081.27 711.372 1080.42 711.114L1056.59 702.266C1054.53 701.5 1049.39 714.699 1048.57 716.142C1046.58 719.672 1044.59 721.676 1040.59 722.49C1036.51 723.322 1031.64 722.129 1027.83 724.167C1021.38 727.615 1024.61 731.824 1028.26 735.507Z" fill="#535070"/>
<path d="M991.494 743.652C991.051 742.771 990.434 741.989 989.68 741.353C988.577 740.653 987.323 740.227 986.022 740.11C981.485 739.339 976.108 738.832 972.977 742.204C970.041 745.366 970.546 750.516 968.092 754.064C967.315 755.187 966.262 756.112 965.588 757.3C964.752 759.117 964.375 761.11 964.49 763.106C964.364 768.606 964.237 774.114 964.617 779.602C964.935 784.201 965.711 789.019 968.586 792.622C973.202 798.404 981.526 799.236 988.915 799.611L994.9 799.915C996.548 800.115 998.22 799.962 999.804 799.465C1000.78 799.012 1001.66 798.366 1002.39 797.567C1003.12 796.767 1003.68 795.83 1004.03 794.811C1007.15 787.068 1002.22 778.727 999.178 770.954C995.685 762.019 996.312 752.099 991.494 743.652Z" fill="#535070"/>
<path d="M941.964 173.797C941.891 173.012 942.006 172.221 942.301 171.49C943.177 169.94 945.466 170.362 947.192 170.797C954.136 172.548 961.452 170.963 968.601 171.372C975.75 171.781 983.802 175.355 985.24 182.37C990.429 178.691 994.902 174.095 998.438 168.809C1000.42 165.839 1002.15 162.439 1001.88 158.878C1001.49 153.742 997.183 149.901 993.193 146.644L981.299 136.934C979.738 135.5 977.935 134.353 975.974 133.548C973.227 132.61 970.232 133.057 967.33 133.059C958.672 133.064 949.441 129.124 941.741 133.082C938.524 134.736 936.103 137.569 933.769 140.332L923.154 152.898C922.355 153.698 921.771 154.688 921.457 155.775C921.155 157.309 921.943 158.823 922.218 160.362C922.719 163.169 921.51 166.165 922.44 168.861C923.983 173.336 929.417 173.97 932.739 176.535C933.977 177.492 935.918 180.732 937.393 180.693C940.055 180.621 941.895 175.865 941.964 173.797Z" fill="#3F3D56"/>
<path d="M959.977 210.839C978.75 210.839 993.969 195.62 993.969 176.846C993.969 158.073 978.75 142.854 959.977 142.854C941.203 142.854 925.984 158.073 925.984 176.846C925.984 195.62 941.203 210.839 959.977 210.839Z" fill="#A0616A"/>
<path d="M967.939 251.238C966.785 247.934 964.61 245.084 961.727 243.1C958.845 241.117 955.405 240.103 951.908 240.206C950.907 240.392 949.874 240.261 948.951 239.832C948.429 239.431 948.012 238.91 947.736 238.312C945.669 234.595 944.007 230.667 942.779 226.595C942.237 224.796 941.495 222.675 939.675 222.207C938.922 222.108 938.156 222.217 937.459 222.52C936.762 222.823 936.16 223.31 935.719 223.928C934.854 225.173 933.91 226.361 932.891 227.483C928.615 231.305 921.037 227.821 916.499 231.328C915.758 231.901 915.146 232.635 914.368 233.156C913.589 233.625 912.749 233.985 911.872 234.226C903.109 237.087 894.519 240.451 886.145 244.302C889.163 262.48 892.256 280.974 899.331 297.988C902.698 306.085 906.514 314.015 909.21 322.359C915.184 340.847 915.448 360.628 915.516 380.057C915.561 393.354 915.495 406.936 911.193 419.518C910.036 422.299 909.22 425.209 908.764 428.186C908.504 431.185 909.377 434.491 911.806 436.267C913.214 437.188 914.825 437.754 916.5 437.916C923.955 439.01 931.47 437.026 938.81 435.326C958.484 430.77 978.549 428.163 998.575 425.562L1032.13 421.205C1034.54 421.042 1036.89 420.433 1039.08 419.411C1045.22 416.048 1045.8 406.811 1041.99 400.94C1040.16 398.126 1037.58 395.816 1036.04 392.832C1034.51 389.848 1034.38 385.675 1037.02 383.608C1042.4 379.404 1040.79 371.604 1041.05 364.781C1041.77 345.705 1041.67 326.621 1040.76 307.53C1040.49 303.578 1040.43 299.615 1040.57 295.656C1041.17 288.949 1042.41 282.314 1044.27 275.843L1054.47 235.694C1051.8 231.484 1046.7 228.814 1041.87 227.601C1037.04 226.389 1032.01 226.032 1027.25 224.558C1017.5 221.537 1008.82 213.871 998.644 214.586C997.874 214.6 997.117 214.785 996.427 215.127C994.131 216.428 994.495 219.737 994.348 222.371C994.023 228.201 989.736 233.073 985.001 236.488C980.266 239.904 974.859 242.395 970.51 246.29C969.74 246.871 969.109 247.617 968.664 248.473C968.219 249.329 967.971 250.273 967.939 251.238Z" fill="#3F3D56"/>
<path d="M833.248 289.321C830.994 290.784 828.598 292.016 826.098 293C823.649 293.728 821.336 294.851 819.249 296.324C818.287 297.156 817.48 298.152 816.867 299.267C815.716 301.307 815.134 303.619 815.182 305.961C815.23 308.304 815.905 310.59 817.138 312.582C818.371 314.574 820.116 316.199 822.191 317.286C824.266 318.373 826.595 318.884 828.934 318.764C832.043 318.416 835.065 317.515 837.858 316.104L861.833 305.714C865.891 303.956 870.275 301.895 872.193 297.91C872.416 297.538 872.499 297.099 872.426 296.671C872.233 296.219 871.883 295.852 871.441 295.636C866.034 292.124 861.304 287.664 857.481 282.472C856.497 281.136 855.294 277.983 853.903 277.182C848.828 274.26 837.31 286.685 833.248 289.321Z" fill="#A0616A"/>
<path d="M1089.56 280.795L1098.4 290.892C1100.29 293.06 1102.19 295.23 1103.92 297.534C1108.17 303.388 1111.58 309.808 1114.05 316.606C1115.97 321.648 1117.56 327.019 1116.89 332.372C1116.45 335.117 1115.7 337.805 1114.68 340.39C1113.06 345.362 1111.05 350.199 1108.67 354.856C1106.67 358.395 1104.41 361.78 1101.92 364.985C1095.07 374.056 1087.58 382.621 1079.51 390.616C1076.49 393.607 1075.22 398.444 1073.9 402.488C1071.48 409.946 1065.7 415.755 1060.12 421.264C1058.33 423.158 1056.34 424.865 1054.2 426.356C1050.99 428.422 1047.25 429.49 1043.43 429.424C1041.76 429.435 1040.11 429.093 1038.58 428.419C1034.76 426.605 1032.82 422.187 1032.42 417.976C1032.06 414.155 1032.71 410.307 1034.28 406.807C1039.35 395.571 1052.38 390.702 1061.58 382.503C1066.98 377.696 1071.11 371.657 1075.18 365.684C1077.95 361.955 1080.26 357.908 1082.06 353.629C1084.12 348.143 1083.32 341.648 1085.11 336.071C1085.87 333.713 1087.22 331.585 1088.04 329.247C1088.85 326.909 1089.06 324.133 1087.63 322.11C1086.55 320.824 1085.18 319.818 1083.63 319.18C1077.75 316.195 1071.16 312.353 1070.04 305.854C1069.59 302.25 1070.53 298.61 1072.67 295.676C1074.8 292.781 1077.29 290.169 1080.09 287.903C1082.66 285.628 1086.98 283.07 1089.56 280.795Z" fill="#A0616A"/>
<path d="M827.574 303.416C826.013 300.263 824.062 297.046 820.912 295.478C819.385 294.815 817.739 294.47 816.075 294.463C814.41 294.456 812.762 294.788 811.229 295.438C808.175 296.754 805.316 298.483 802.731 300.576L795.112 306.193C793.385 307.326 791.856 308.737 790.589 310.368C789.387 312.347 788.586 314.543 788.233 316.832C786.905 322.051 786.5 327.461 787.035 332.82C788.244 341.412 793.424 348.913 799.126 355.453C802.689 359.54 807.087 363.664 812.506 363.838C814.845 363.913 817.447 362.991 818.42 360.863C818.757 360.019 818.936 359.12 818.948 358.212C819.533 348.628 816.105 339.268 812.107 330.538C810.833 328.253 810.079 325.713 809.902 323.102C809.873 322.663 809.987 322.226 810.227 321.857C810.572 321.498 811.033 321.273 811.528 321.222C817 320.139 826.424 324.39 830.263 318.314C832.751 314.375 829.342 306.988 827.574 303.416Z" fill="#A0616A"/>
<path d="M940.182 163.102C940.109 162.317 940.224 161.526 940.519 160.795C941.395 159.245 943.684 159.667 945.41 160.102C952.354 161.852 959.67 160.268 966.819 160.677C973.968 161.086 982.02 164.66 983.458 171.675C988.647 167.996 993.12 163.4 996.656 158.113C998.64 155.144 1000.37 151.743 1000.1 148.182C999.71 143.047 995.401 139.206 991.411 135.948L979.517 126.239C977.956 124.804 976.153 123.658 974.192 122.853C971.445 121.915 968.45 122.362 965.548 122.364C956.89 122.369 947.659 118.429 939.959 122.387C936.742 124.04 934.321 126.874 931.987 129.637L921.372 142.202C920.573 143.003 919.989 143.993 919.675 145.08C919.373 146.614 920.161 148.127 920.436 149.666C920.937 152.473 919.728 155.469 920.658 158.165C922.201 162.641 927.635 163.274 930.957 165.84C932.195 166.796 934.136 170.037 935.611 169.997C938.272 169.926 940.113 165.17 940.182 163.102Z" fill="#3F3D56"/>
<path d="M867.985 256.258C866.613 257.143 865.408 258.265 864.427 259.57C863.181 261.455 862.927 263.833 861.857 265.823C859.566 270.08 854.208 271.594 850.865 275.087C850.334 275.567 849.965 276.2 849.809 276.899C849.793 277.847 850.11 278.77 850.707 279.507L866.826 304.848C872.193 305.321 877.342 301.958 882.711 302.405C884.716 302.571 886.767 303.264 888.689 302.671C890.066 302.061 891.356 301.272 892.526 300.325C895.729 298.3 899.996 298.064 902.683 295.391C905.262 292.827 905.591 288.814 905.561 285.177C905.604 282.019 905.282 278.866 904.602 275.781C902.229 266.054 894.79 258.59 890.126 249.974C887.856 245.779 886.621 243.323 881.815 246.204C876.984 249.099 872.531 252.934 867.985 256.258Z" fill="#3F3D56"/>
<path d="M1063.75 243.44C1066.78 245.407 1069.51 247.799 1071.86 250.543C1074.32 253.709 1075.71 257.584 1078.07 260.823C1080.35 263.963 1083.46 266.395 1086.06 269.286C1089.99 273.67 1092.65 279.019 1095.27 284.296C1088.88 292.63 1081.91 300.504 1074.42 307.862C1073.59 308.845 1072.49 309.567 1071.25 309.943C1070.42 310.032 1069.57 309.912 1068.79 309.594C1068.01 309.275 1067.32 308.768 1066.78 308.118C1065.62 306.9 1064.79 305.399 1063.68 304.134C1061.07 301.432 1057.57 299.744 1053.83 299.368C1050.12 299.009 1046.38 298.958 1042.66 299.214C1041.85 299.305 1041.02 299.166 1040.28 298.813C1039.73 298.432 1039.28 297.919 1038.98 297.321C1034.61 289.895 1036.02 280.571 1037.56 272.096L1041.09 252.648C1041.6 248.934 1042.59 245.302 1044.03 241.84C1045.37 238.98 1048.36 234.13 1052.04 234.987C1055.75 235.85 1060.63 241.195 1063.75 243.44Z" fill="#3F3D56"/>
<path d="M417.049 371.135C446.732 371.135 470.794 347.029 470.794 317.292C470.794 287.556 446.732 263.449 417.049 263.449C387.366 263.449 363.304 287.556 363.304 317.292C363.304 347.029 387.366 371.135 417.049 371.135Z" fill="white"/>
<path d="M417.049 254.273C404.345 254.273 391.926 258.041 381.363 265.099C370.8 272.156 362.568 282.188 357.706 293.925C352.844 305.662 351.572 318.577 354.051 331.037C356.529 343.496 362.647 354.942 371.63 363.925C380.613 372.908 392.058 379.025 404.518 381.504C416.978 383.982 429.893 382.71 441.629 377.848C453.366 372.987 463.398 364.754 470.456 354.191C477.514 343.628 481.281 331.21 481.281 318.506C481.231 301.485 474.448 285.177 462.413 273.142C450.378 261.107 434.069 254.323 417.049 254.273ZM403.863 352.752L370.944 319.833L380.177 310.6L403.894 334.317L453.951 284.259L463.185 293.492L403.863 352.752L403.863 352.752Z" fill="#57B894"/>
</svg>
