<svg width="11" height="12" viewBox="0 0 11 12" fill="none" xmlns="http://www.w3.org/2000/svg">
<path d="M8.0649 1.4178C8.19736 1.28534 8.35461 1.18027 8.52767 1.10858C8.70074 1.0369 8.88623 1 9.07355 1C9.26087 1 9.44636 1.0369 9.61943 1.10858C9.79249 1.18027 9.94974 1.28534 10.0822 1.4178C10.2147 1.55026 10.3197 1.70751 10.3914 1.88057C10.4631 2.05364 10.5 2.23913 10.5 2.42645C10.5 2.61377 10.4631 2.79926 10.3914 2.97233C10.3197 3.14539 10.2147 3.30265 10.0822 3.4351L3.2738 10.2435L0.5 11L1.25649 8.2262L8.0649 1.4178Z" stroke="#AAAAAA" stroke-linecap="round" stroke-linejoin="round"/>
</svg>
