<svg width="13" height="16" viewBox="0 0 13 16" fill="none" xmlns="http://www.w3.org/2000/svg">
<path d="M7.7793 1H2.1793C1.80799 1 1.4519 1.1475 1.18935 1.41005C0.926796 1.6726 0.779297 2.0287 0.779297 2.4V13.6C0.779297 13.9713 0.926796 14.3274 1.18935 14.5899C1.4519 14.8525 1.80799 15 2.1793 15H10.5793C10.9506 15 11.3067 14.8525 11.5692 14.5899C11.8318 14.3274 11.9793 13.9713 11.9793 13.6V5.2L7.7793 1Z" stroke="#555555" stroke-width="1.5" stroke-linecap="round" stroke-linejoin="round"/>
<path d="M7.7793 1V5.2H11.9793" stroke="#555555" stroke-width="1.5" stroke-linecap="round" stroke-linejoin="round"/>
<path d="M9.17812 8.69999H3.57812" stroke="#555555" stroke-width="1.5" stroke-linecap="round" stroke-linejoin="round"/>
<path d="M9.17812 11.5H3.57812" stroke="#555555" stroke-width="1.5" stroke-linecap="round" stroke-linejoin="round"/>
<path d="M4.97812 5.89998H4.27812H3.57812" stroke="#555555" stroke-width="1.5" stroke-linecap="round" stroke-linejoin="round"/>
</svg>
