<svg width="15" height="16" viewBox="0 0 15 16" fill="none" xmlns="http://www.w3.org/2000/svg">
<path d="M1.5 3.79999H2.9H14.1" stroke="#D90000" stroke-width="1.5" stroke-linecap="round" stroke-linejoin="round"/>
<path d="M4.99844 3.8V2.4C4.99844 2.0287 5.14594 1.6726 5.40849 1.41005C5.67104 1.1475 6.02713 1 6.39844 1H9.19844C9.56974 1 9.92584 1.1475 10.1884 1.41005C10.4509 1.6726 10.5984 2.0287 10.5984 2.4V3.8M12.6984 3.8V13.6C12.6984 13.9713 12.5509 14.3274 12.2884 14.5899C12.0258 14.8525 11.6697 15 11.2984 15H4.29844C3.92713 15 3.57104 14.8525 3.30849 14.5899C3.04594 14.3274 2.89844 13.9713 2.89844 13.6V3.8H12.6984Z" stroke="#D90000" stroke-width="1.5" stroke-linecap="round" stroke-linejoin="round"/>
<path d="M6.39844 7.29999V11.5" stroke="#D90000" stroke-width="1.5" stroke-linecap="round" stroke-linejoin="round"/>
<path d="M9.19922 7.29999V11.5" stroke="#D90000" stroke-width="1.5" stroke-linecap="round" stroke-linejoin="round"/>
</svg>
