<svg width="327" height="388" viewBox="0 0 327 388" fill="none" xmlns="http://www.w3.org/2000/svg">
<path fill-rule="evenodd" clip-rule="evenodd" d="M157.63 0.187641C202.078 -2.66617 240.523 27.4496 268.528 62.0822C296.815 97.0633 319.299 141.357 306.71 184.546C294.684 225.802 249.487 242.221 210.655 260.626C172.287 278.81 130.881 303.909 92.3083 286.163C53.2869 268.21 38.969 221.493 33.1081 178.941C27.9413 141.429 41.6154 106.333 63.2598 75.2617C87.433 40.5607 115.427 2.8974 157.63 0.187641Z" fill="#DAE8FE"/>
<g clip-path="url(#clip0_407_1667)">
<path d="M283.533 94.2425H29.7363C26.283 94.2386 22.9722 92.8651 20.5303 90.4232C18.0884 87.9813 16.7148 84.6705 16.7109 81.2172V69.3759C16.7148 65.9226 18.0884 62.6118 20.5303 60.1699C22.9722 57.7281 26.283 56.3545 29.7363 56.3506H283.533C286.987 56.3545 290.297 57.728 292.739 60.1699C295.181 62.6118 296.555 65.9226 296.559 69.3759V81.2172C296.555 84.6705 295.181 87.9813 292.739 90.4232C290.297 92.8651 286.987 94.2386 283.533 94.2425ZM29.7363 57.14C26.4922 57.1437 23.3821 58.434 21.0882 60.7279C18.7943 63.0218 17.504 66.1319 17.5003 69.3759V81.2172C17.504 84.4612 18.7943 87.5713 21.0882 89.8652C23.3821 92.1591 26.4922 93.4494 29.7363 93.4531H283.533C286.777 93.4494 289.887 92.1591 292.181 89.8652C294.475 87.5713 295.766 84.4612 295.769 81.2172V69.3759C295.766 66.1319 294.475 63.0218 292.181 60.7279C289.887 58.434 286.777 57.1437 283.533 57.14H29.7363Z" fill="#3F3D56"/>
<path d="M217.618 67.7974H49.0776C44.9357 67.7974 41.5781 71.155 41.5781 75.2968V75.2968C41.5781 79.4386 44.9357 82.7963 49.0776 82.7963H217.618C221.76 82.7963 225.117 79.4386 225.117 75.2968C225.117 71.155 221.76 67.7974 217.618 67.7974Z" fill="#999999"/>
<path d="M239.721 133.572H71.1811C67.0393 133.572 63.6816 136.93 63.6816 141.072V141.072C63.6816 145.214 67.0393 148.571 71.1811 148.571H239.721C243.863 148.571 247.221 145.214 247.221 141.072C247.221 136.93 243.863 133.572 239.721 133.572Z" fill="#1877F2"/>
<path d="M239.721 181.261H71.1811C67.0393 181.261 63.6816 184.619 63.6816 188.761V188.761C63.6816 192.902 67.0393 196.26 71.1811 196.26H239.721C243.863 196.26 247.221 192.902 247.221 188.761C247.221 184.619 243.863 181.261 239.721 181.261Z" fill="#999999"/>
<path d="M239.721 228.95H71.1811C67.0393 228.95 63.6816 232.308 63.6816 236.45V236.45C63.6816 240.591 67.0393 243.949 71.1811 243.949H239.721C243.863 243.949 247.221 240.591 247.221 236.45C247.221 232.308 243.863 228.95 239.721 228.95Z" fill="#999999"/>
<path d="M271.888 83.3984C271.708 83.655 271.434 83.8297 271.125 83.8841C270.817 83.9385 270.499 83.8681 270.243 83.6884L263.799 79.2045C263.542 79.0248 263.367 78.7505 263.313 78.442C263.258 78.1335 263.329 77.816 263.509 77.5594C263.688 77.3028 263.962 77.128 264.271 77.0736C264.58 77.0192 264.897 77.0896 265.154 77.2693L271.598 81.7533C271.854 81.9329 272.029 82.2072 272.084 82.5157C272.138 82.8242 272.068 83.1417 271.888 83.3984Z" fill="#1877F2"/>
<path d="M264.571 78.3042C263.619 79.6627 262.287 80.7087 260.741 81.3098C259.195 81.9109 257.506 82.0402 255.887 81.6812C254.268 81.3223 252.791 80.4913 251.645 79.2933C250.498 78.0953 249.732 76.5841 249.444 74.9509C249.156 73.3176 249.359 71.6356 250.026 70.1176C250.694 68.5996 251.797 67.3137 253.196 66.4226C254.595 65.5315 256.226 65.0752 257.885 65.1114C259.543 65.1475 261.153 65.6746 262.511 66.6258C264.331 67.903 265.57 69.8498 265.956 72.0392C266.342 74.2285 265.844 76.4817 264.571 78.3042ZM252.55 69.8875C251.837 70.9064 251.441 72.114 251.414 73.3575C251.387 74.6011 251.729 75.8247 252.398 76.8738C253.066 77.9228 254.03 78.7501 255.169 79.251C256.307 79.752 257.569 79.9041 258.794 79.6881C260.019 79.4721 261.152 78.8977 262.051 78.0375C262.949 77.1774 263.572 76.0701 263.842 74.8558C264.111 73.6414 264.014 72.3745 263.563 71.2152C263.112 70.056 262.328 69.0564 261.309 68.343C259.942 67.3882 258.252 67.0146 256.61 67.3041C254.968 67.5937 253.508 68.5228 252.55 69.8875Z" fill="#1877F2"/>
<path d="M276.232 155.726H37.0392C36.9346 155.726 36.8342 155.684 36.7601 155.61C36.6861 155.536 36.6445 155.436 36.6445 155.331C36.6445 155.227 36.6861 155.126 36.7601 155.052C36.8342 154.978 36.9346 154.937 37.0392 154.937H276.232C276.337 154.937 276.437 154.978 276.511 155.052C276.585 155.126 276.627 155.227 276.627 155.331C276.627 155.436 276.585 155.536 276.511 155.61C276.437 155.684 276.337 155.726 276.232 155.726Z" fill="#3F3D56"/>
<path d="M276.232 203.434H37.0392C36.9346 203.434 36.8342 203.393 36.7601 203.319C36.6861 203.245 36.6445 203.144 36.6445 203.04C36.6445 202.935 36.6861 202.835 36.7601 202.761C36.8342 202.687 36.9346 202.645 37.0392 202.645H276.232C276.337 202.645 276.437 202.687 276.511 202.761C276.585 202.835 276.627 202.935 276.627 203.04C276.627 203.144 276.585 203.245 276.511 203.319C276.437 203.393 276.337 203.434 276.232 203.434Z" fill="#3F3D56"/>
<path d="M276.232 251.143H37.0392C36.9346 251.143 36.8342 251.101 36.7601 251.027C36.6861 250.953 36.6445 250.853 36.6445 250.748C36.6445 250.644 36.6861 250.543 36.7601 250.469C36.8342 250.395 36.9346 250.354 37.0392 250.354H276.232C276.337 250.354 276.437 250.395 276.511 250.469C276.585 250.543 276.627 250.644 276.627 250.748C276.627 250.853 276.585 250.953 276.511 251.027C276.437 251.101 276.337 251.143 276.232 251.143Z" fill="#3F3D56"/>
</g>
<path d="M87.3594 345.88C87.3594 347.943 86.6146 349.568 85.125 350.755C83.6458 351.943 81.5833 352.537 78.9375 352.537C76.5 352.537 74.3438 352.078 72.4688 351.162V346.662C74.0104 347.349 75.3125 347.833 76.375 348.115C77.4479 348.396 78.4271 348.537 79.3125 348.537C80.375 348.537 81.1875 348.333 81.75 347.927C82.3229 347.521 82.6094 346.917 82.6094 346.115C82.6094 345.667 82.4844 345.271 82.2344 344.927C81.9844 344.573 81.6146 344.235 81.125 343.912C80.6458 343.589 79.6615 343.073 78.1719 342.365C76.776 341.708 75.7292 341.078 75.0312 340.474C74.3333 339.87 73.776 339.167 73.3594 338.365C72.9427 337.563 72.7344 336.625 72.7344 335.552C72.7344 333.531 73.4167 331.943 74.7812 330.787C76.1562 329.63 78.0521 329.052 80.4688 329.052C81.6562 329.052 82.7865 329.193 83.8594 329.474C84.9427 329.755 86.0729 330.151 87.25 330.662L85.6875 334.427C84.4688 333.927 83.4583 333.578 82.6562 333.38C81.8646 333.182 81.0833 333.083 80.3125 333.083C79.3958 333.083 78.6927 333.297 78.2031 333.724C77.7135 334.151 77.4688 334.708 77.4688 335.396C77.4688 335.823 77.5677 336.198 77.7656 336.521C77.9635 336.833 78.276 337.141 78.7031 337.443C79.1406 337.735 80.1667 338.266 81.7812 339.037C83.9167 340.057 85.3802 341.083 86.1719 342.115C86.9635 343.136 87.3594 344.391 87.3594 345.88ZM98.3594 337.818C97.349 337.818 96.5573 338.141 95.9844 338.787C95.4115 339.422 95.0833 340.328 95 341.505H101.688C101.667 340.328 101.359 339.422 100.766 338.787C100.172 338.141 99.3698 337.818 98.3594 337.818ZM99.0312 352.537C96.2188 352.537 94.0208 351.761 92.4375 350.208C90.8542 348.656 90.0625 346.458 90.0625 343.615C90.0625 340.688 90.7917 338.427 92.25 336.833C93.7188 335.229 95.7448 334.427 98.3281 334.427C100.797 334.427 102.719 335.13 104.094 336.537C105.469 337.943 106.156 339.886 106.156 342.365V344.677H94.8906C94.9427 346.031 95.3438 347.089 96.0938 347.849C96.8438 348.61 97.8958 348.99 99.25 348.99C100.302 348.99 101.297 348.88 102.234 348.662C103.172 348.443 104.151 348.094 105.172 347.615V351.302C104.339 351.719 103.448 352.026 102.5 352.224C101.552 352.432 100.396 352.537 99.0312 352.537ZM121.125 352.224L120.203 349.849H120.078C119.276 350.86 118.448 351.563 117.594 351.958C116.75 352.344 115.646 352.537 114.281 352.537C112.604 352.537 111.281 352.057 110.312 351.099C109.354 350.141 108.875 348.776 108.875 347.005C108.875 345.151 109.521 343.787 110.812 342.912C112.115 342.026 114.073 341.537 116.688 341.443L119.719 341.349V340.583C119.719 338.813 118.812 337.927 117 337.927C115.604 337.927 113.964 338.349 112.078 339.193L110.5 335.974C112.51 334.922 114.74 334.396 117.188 334.396C119.531 334.396 121.328 334.906 122.578 335.927C123.828 336.948 124.453 338.5 124.453 340.583V352.224H121.125ZM119.719 344.13L117.875 344.193C116.49 344.235 115.458 344.485 114.781 344.943C114.104 345.401 113.766 346.099 113.766 347.037C113.766 348.38 114.536 349.052 116.078 349.052C117.182 349.052 118.062 348.735 118.719 348.099C119.385 347.464 119.719 346.62 119.719 345.568V344.13ZM139.125 334.427C139.771 334.427 140.307 334.474 140.734 334.568L140.375 339.037C139.99 338.932 139.521 338.88 138.969 338.88C137.448 338.88 136.26 339.271 135.406 340.052C134.562 340.833 134.141 341.927 134.141 343.333V352.224H129.375V334.755H132.984L133.688 337.693H133.922C134.464 336.714 135.193 335.927 136.109 335.333C137.036 334.729 138.042 334.427 139.125 334.427ZM151 352.537C145.562 352.537 142.844 349.552 142.844 343.583C142.844 340.615 143.583 338.349 145.062 336.787C146.542 335.214 148.661 334.427 151.422 334.427C153.443 334.427 155.255 334.823 156.859 335.615L155.453 339.302C154.703 339 154.005 338.755 153.359 338.568C152.714 338.37 152.068 338.271 151.422 338.271C148.943 338.271 147.703 340.031 147.703 343.552C147.703 346.969 148.943 348.677 151.422 348.677C152.339 348.677 153.188 348.557 153.969 348.318C154.75 348.068 155.531 347.682 156.312 347.162V351.24C155.542 351.729 154.76 352.068 153.969 352.255C153.188 352.443 152.198 352.537 151 352.537ZM176.5 352.224H171.734V342.021C171.734 339.5 170.797 338.24 168.922 338.24C167.589 338.24 166.625 338.693 166.031 339.599C165.438 340.505 165.141 341.974 165.141 344.005V352.224H160.375V327.912H165.141V332.865C165.141 333.25 165.104 334.156 165.031 335.583L164.922 336.99H165.172C166.234 335.281 167.922 334.427 170.234 334.427C172.286 334.427 173.844 334.979 174.906 336.083C175.969 337.188 176.5 338.771 176.5 340.833V352.224ZM181.203 330.24C181.203 328.688 182.068 327.912 183.797 327.912C185.526 327.912 186.391 328.688 186.391 330.24C186.391 330.979 186.172 331.557 185.734 331.974C185.307 332.38 184.661 332.583 183.797 332.583C182.068 332.583 181.203 331.802 181.203 330.24ZM186.172 352.224H181.406V334.755H186.172V352.224ZM207.312 352.224H202.547V342.021C202.547 340.761 202.323 339.818 201.875 339.193C201.427 338.557 200.714 338.24 199.734 338.24C198.401 338.24 197.438 338.688 196.844 339.583C196.25 340.469 195.953 341.943 195.953 344.005V352.224H191.188V334.755H194.828L195.469 336.99H195.734C196.266 336.146 196.995 335.511 197.922 335.083C198.859 334.646 199.922 334.427 201.109 334.427C203.141 334.427 204.682 334.979 205.734 336.083C206.786 337.177 207.312 338.761 207.312 340.833V352.224ZM227.422 334.755V337.177L224.688 337.88C225.188 338.662 225.438 339.537 225.438 340.505C225.438 342.38 224.781 343.844 223.469 344.896C222.167 345.938 220.354 346.458 218.031 346.458L217.172 346.412L216.469 346.333C215.979 346.708 215.734 347.125 215.734 347.583C215.734 348.271 216.609 348.615 218.359 348.615H221.328C223.245 348.615 224.703 349.026 225.703 349.849C226.714 350.672 227.219 351.88 227.219 353.474C227.219 355.516 226.365 357.099 224.656 358.224C222.958 359.349 220.516 359.912 217.328 359.912C214.891 359.912 213.026 359.485 211.734 358.63C210.453 357.787 209.812 356.599 209.812 355.068C209.812 354.016 210.141 353.136 210.797 352.427C211.453 351.719 212.417 351.214 213.688 350.912C213.198 350.703 212.771 350.365 212.406 349.896C212.042 349.417 211.859 348.912 211.859 348.38C211.859 347.714 212.052 347.162 212.438 346.724C212.823 346.276 213.38 345.839 214.109 345.412C213.193 345.016 212.464 344.38 211.922 343.505C211.391 342.63 211.125 341.599 211.125 340.412C211.125 338.505 211.745 337.031 212.984 335.99C214.224 334.948 215.995 334.427 218.297 334.427C218.786 334.427 219.365 334.474 220.031 334.568C220.708 334.651 221.141 334.714 221.328 334.755H227.422ZM213.938 354.693C213.938 355.349 214.25 355.865 214.875 356.24C215.51 356.615 216.396 356.802 217.531 356.802C219.24 356.802 220.578 356.568 221.547 356.099C222.516 355.63 223 354.99 223 354.177C223 353.521 222.714 353.068 222.141 352.818C221.568 352.568 220.682 352.443 219.484 352.443H217.016C216.141 352.443 215.406 352.646 214.812 353.052C214.229 353.469 213.938 354.016 213.938 354.693ZM215.672 340.474C215.672 341.422 215.885 342.172 216.312 342.724C216.75 343.276 217.411 343.552 218.297 343.552C219.193 343.552 219.849 343.276 220.266 342.724C220.682 342.172 220.891 341.422 220.891 340.474C220.891 338.37 220.026 337.318 218.297 337.318C216.547 337.318 215.672 338.37 215.672 340.474ZM229.641 349.99C229.641 349.115 229.875 348.453 230.344 348.005C230.812 347.557 231.495 347.333 232.391 347.333C233.255 347.333 233.922 347.563 234.391 348.021C234.87 348.479 235.109 349.136 235.109 349.99C235.109 350.813 234.87 351.464 234.391 351.943C233.911 352.412 233.245 352.646 232.391 352.646C231.516 352.646 230.839 352.417 230.359 351.958C229.88 351.49 229.641 350.833 229.641 349.99ZM238.766 349.99C238.766 349.115 239 348.453 239.469 348.005C239.938 347.557 240.62 347.333 241.516 347.333C242.38 347.333 243.047 347.563 243.516 348.021C243.995 348.479 244.234 349.136 244.234 349.99C244.234 350.813 243.995 351.464 243.516 351.943C243.036 352.412 242.37 352.646 241.516 352.646C240.641 352.646 239.964 352.417 239.484 351.958C239.005 351.49 238.766 350.833 238.766 349.99ZM247.891 349.99C247.891 349.115 248.125 348.453 248.594 348.005C249.062 347.557 249.745 347.333 250.641 347.333C251.505 347.333 252.172 347.563 252.641 348.021C253.12 348.479 253.359 349.136 253.359 349.99C253.359 350.813 253.12 351.464 252.641 351.943C252.161 352.412 251.495 352.646 250.641 352.646C249.766 352.646 249.089 352.417 248.609 351.958C248.13 351.49 247.891 350.833 247.891 349.99Z" fill="#555555"/>
<path d="M7.71094 377.142C7.71094 378.154 7.36458 378.933 6.67188 379.48C5.98372 380.022 4.99707 380.293 3.71191 380.293H2.53613V384.224H1.37402V374.23H3.96484C6.46224 374.23 7.71094 375.201 7.71094 377.142ZM2.53613 379.295H3.58203C4.61198 379.295 5.3571 379.129 5.81738 378.796C6.27767 378.464 6.50781 377.931 6.50781 377.197C6.50781 376.536 6.29134 376.044 5.8584 375.72C5.42546 375.397 4.75098 375.235 3.83496 375.235H2.53613V379.295ZM10.7734 384.224H9.63867V373.587H10.7734V384.224ZM16.3447 384.361C15.2373 384.361 14.3623 384.024 13.7197 383.349C13.0817 382.675 12.7627 381.738 12.7627 380.54C12.7627 379.332 13.0589 378.373 13.6514 377.662C14.2484 376.951 15.0482 376.595 16.0508 376.595C16.9896 376.595 17.7324 376.905 18.2793 377.525C18.8262 378.14 19.0996 378.954 19.0996 379.965V380.683H13.9385C13.9613 381.563 14.1823 382.23 14.6016 382.686C15.0254 383.142 15.6201 383.37 16.3857 383.37C17.1924 383.37 17.9899 383.201 18.7783 382.864V383.875C18.3773 384.049 17.9967 384.172 17.6367 384.245C17.2812 384.322 16.8506 384.361 16.3447 384.361ZM16.0371 377.545C15.4355 377.545 14.9548 377.741 14.5947 378.133C14.2393 378.525 14.0296 379.068 13.9658 379.76H17.8828C17.8828 379.045 17.7233 378.498 17.4043 378.12C17.0853 377.737 16.6296 377.545 16.0371 377.545ZM25.6484 384.224L25.4229 383.158H25.3682C24.9945 383.627 24.6208 383.946 24.2471 384.115C23.8779 384.279 23.4154 384.361 22.8594 384.361C22.1165 384.361 21.5332 384.169 21.1094 383.787C20.6901 383.404 20.4805 382.859 20.4805 382.153C20.4805 380.64 21.6904 379.847 24.1104 379.774L25.3818 379.733V379.268C25.3818 378.68 25.2542 378.247 24.999 377.969C24.7484 377.687 24.3451 377.545 23.7891 377.545C23.1647 377.545 22.4583 377.737 21.6699 378.12L21.3213 377.251C21.6904 377.051 22.0938 376.894 22.5312 376.78C22.9733 376.666 23.4154 376.609 23.8574 376.609C24.7507 376.609 25.4115 376.807 25.8398 377.204C26.2728 377.6 26.4893 378.236 26.4893 379.111V384.224H25.6484ZM23.085 383.424C23.7913 383.424 24.3451 383.231 24.7461 382.843C25.1517 382.456 25.3545 381.914 25.3545 381.216V380.54L24.2197 380.587C23.3174 380.619 22.6657 380.761 22.2646 381.011C21.8682 381.257 21.6699 381.642 21.6699 382.167C21.6699 382.577 21.793 382.889 22.0391 383.103C22.2897 383.317 22.6383 383.424 23.085 383.424ZM33.667 382.18C33.667 382.877 33.4072 383.415 32.8877 383.793C32.3682 384.172 31.639 384.361 30.7002 384.361C29.7067 384.361 28.932 384.204 28.376 383.889V382.836C28.736 383.019 29.1211 383.162 29.5312 383.267C29.946 383.372 30.3447 383.424 30.7275 383.424C31.32 383.424 31.7757 383.331 32.0947 383.144C32.4137 382.953 32.5732 382.663 32.5732 382.276C32.5732 381.984 32.4456 381.736 32.1904 381.531C31.9398 381.321 31.4476 381.075 30.7139 380.792C30.0166 380.533 29.5199 380.307 29.2236 380.116C28.932 379.92 28.7132 379.699 28.5674 379.453C28.4261 379.207 28.3555 378.913 28.3555 378.571C28.3555 377.96 28.6038 377.479 29.1006 377.128C29.5973 376.773 30.2786 376.595 31.1445 376.595C31.9512 376.595 32.7396 376.759 33.5098 377.087L33.1064 378.01C32.3545 377.7 31.6732 377.545 31.0625 377.545C30.5247 377.545 30.1191 377.63 29.8457 377.798C29.5723 377.967 29.4355 378.199 29.4355 378.496C29.4355 378.696 29.4857 378.867 29.5859 379.008C29.6908 379.15 29.8571 379.284 30.085 379.412C30.3128 379.539 30.7503 379.724 31.3975 379.965C32.2861 380.289 32.8854 380.615 33.1953 380.943C33.5098 381.271 33.667 381.683 33.667 382.18ZM38.6846 384.361C37.5771 384.361 36.7021 384.024 36.0596 383.349C35.4215 382.675 35.1025 381.738 35.1025 380.54C35.1025 379.332 35.3988 378.373 35.9912 377.662C36.5882 376.951 37.388 376.595 38.3906 376.595C39.3294 376.595 40.0723 376.905 40.6191 377.525C41.166 378.14 41.4395 378.954 41.4395 379.965V380.683H36.2783C36.3011 381.563 36.5221 382.23 36.9414 382.686C37.3652 383.142 37.96 383.37 38.7256 383.37C39.5322 383.37 40.3298 383.201 41.1182 382.864V383.875C40.7171 384.049 40.3366 384.172 39.9766 384.245C39.6211 384.322 39.1904 384.361 38.6846 384.361ZM38.377 377.545C37.7754 377.545 37.2946 377.741 36.9346 378.133C36.5791 378.525 36.3695 379.068 36.3057 379.76H40.2227C40.2227 379.045 40.0632 378.498 39.7441 378.12C39.4251 377.737 38.9694 377.545 38.377 377.545ZM50.5039 376.609C51.4883 376.609 52.2516 376.946 52.7939 377.621C53.3408 378.291 53.6143 379.241 53.6143 380.471C53.6143 381.702 53.3385 382.659 52.7871 383.342C52.2402 384.021 51.4792 384.361 50.5039 384.361C50.0163 384.361 49.5697 384.272 49.1641 384.094C48.763 383.912 48.4258 383.634 48.1523 383.26H48.0703L47.8311 384.224H47.0176V373.587H48.1523V376.171C48.1523 376.75 48.1341 377.27 48.0977 377.73H48.1523C48.681 376.983 49.4648 376.609 50.5039 376.609ZM50.3398 377.559C49.5651 377.559 49.0068 377.782 48.665 378.229C48.3232 378.671 48.1523 379.418 48.1523 380.471C48.1523 381.524 48.3278 382.278 48.6787 382.734C49.0296 383.185 49.5924 383.411 50.3672 383.411C51.0645 383.411 51.584 383.158 51.9258 382.652C52.2676 382.141 52.4385 381.41 52.4385 380.458C52.4385 379.482 52.2676 378.755 51.9258 378.277C51.584 377.798 51.0553 377.559 50.3398 377.559ZM58.7686 384.361C57.6611 384.361 56.7861 384.024 56.1436 383.349C55.5055 382.675 55.1865 381.738 55.1865 380.54C55.1865 379.332 55.4827 378.373 56.0752 377.662C56.6722 376.951 57.472 376.595 58.4746 376.595C59.4134 376.595 60.1562 376.905 60.7031 377.525C61.25 378.14 61.5234 378.954 61.5234 379.965V380.683H56.3623C56.3851 381.563 56.6061 382.23 57.0254 382.686C57.4492 383.142 58.0439 383.37 58.8096 383.37C59.6162 383.37 60.4137 383.201 61.2021 382.864V383.875C60.8011 384.049 60.4206 384.172 60.0605 384.245C59.7051 384.322 59.2744 384.361 58.7686 384.361ZM58.4609 377.545C57.8594 377.545 57.3786 377.741 57.0186 378.133C56.6631 378.525 56.4535 379.068 56.3896 379.76H60.3066C60.3066 379.045 60.1471 378.498 59.8281 378.12C59.5091 377.737 59.0534 377.545 58.4609 377.545ZM70.5879 384.361C70.1003 384.361 69.6536 384.272 69.248 384.094C68.847 383.912 68.5098 383.634 68.2363 383.26H68.1543C68.209 383.698 68.2363 384.112 68.2363 384.504V387.587H67.1016V376.732H68.0244L68.1816 377.757H68.2363C68.528 377.347 68.8675 377.051 69.2549 376.869C69.6423 376.686 70.0866 376.595 70.5879 376.595C71.5814 376.595 72.347 376.935 72.8848 377.614C73.4271 378.293 73.6982 379.245 73.6982 380.471C73.6982 381.702 73.4225 382.659 72.8711 383.342C72.3242 384.021 71.5632 384.361 70.5879 384.361ZM70.4238 377.559C69.6582 377.559 69.1045 377.771 68.7627 378.195C68.4209 378.619 68.2454 379.293 68.2363 380.218V380.471C68.2363 381.524 68.4118 382.278 68.7627 382.734C69.1136 383.185 69.6764 383.411 70.4512 383.411C71.0983 383.411 71.6042 383.149 71.9688 382.625C72.3379 382.1 72.5225 381.378 72.5225 380.458C72.5225 379.523 72.3379 378.808 71.9688 378.311C71.6042 377.81 71.0892 377.559 70.4238 377.559ZM80.2949 384.224L80.0693 383.158H80.0146C79.641 383.627 79.2673 383.946 78.8936 384.115C78.5244 384.279 78.0618 384.361 77.5059 384.361C76.763 384.361 76.1797 384.169 75.7559 383.787C75.3366 383.404 75.127 382.859 75.127 382.153C75.127 380.64 76.3369 379.847 78.7568 379.774L80.0283 379.733V379.268C80.0283 378.68 79.9007 378.247 79.6455 377.969C79.3949 377.687 78.9915 377.545 78.4355 377.545C77.8112 377.545 77.1048 377.737 76.3164 378.12L75.9678 377.251C76.3369 377.051 76.7402 376.894 77.1777 376.78C77.6198 376.666 78.0618 376.609 78.5039 376.609C79.3971 376.609 80.0579 376.807 80.4863 377.204C80.9193 377.6 81.1357 378.236 81.1357 379.111V384.224H80.2949ZM77.7314 383.424C78.4378 383.424 78.9915 383.231 79.3926 382.843C79.7982 382.456 80.001 381.914 80.001 381.216V380.54L78.8662 380.587C77.9639 380.619 77.3122 380.761 76.9111 381.011C76.5146 381.257 76.3164 381.642 76.3164 382.167C76.3164 382.577 76.4395 382.889 76.6855 383.103C76.9362 383.317 77.2848 383.424 77.7314 383.424ZM85.9004 383.424C86.1009 383.424 86.2946 383.411 86.4814 383.383C86.6683 383.351 86.8164 383.319 86.9258 383.288V384.156C86.8027 384.215 86.6204 384.263 86.3789 384.299C86.1419 384.34 85.9277 384.361 85.7363 384.361C84.2871 384.361 83.5625 383.597 83.5625 382.071V377.614H82.4893V377.067L83.5625 376.595L84.041 374.996H84.6973V376.732H86.8711V377.614H84.6973V382.023C84.6973 382.474 84.8044 382.82 85.0186 383.062C85.2327 383.304 85.5267 383.424 85.9004 383.424ZM89.5645 384.224H88.4297V376.732H89.5645V384.224ZM88.334 374.702C88.334 374.442 88.3978 374.253 88.5254 374.134C88.653 374.011 88.8125 373.95 89.0039 373.95C89.1862 373.95 89.3434 374.011 89.4756 374.134C89.6077 374.257 89.6738 374.446 89.6738 374.702C89.6738 374.957 89.6077 375.148 89.4756 375.276C89.3434 375.399 89.1862 375.46 89.0039 375.46C88.8125 375.46 88.653 375.399 88.5254 375.276C88.3978 375.148 88.334 374.957 88.334 374.702ZM95.1357 384.361C94.0283 384.361 93.1533 384.024 92.5107 383.349C91.8727 382.675 91.5537 381.738 91.5537 380.54C91.5537 379.332 91.8499 378.373 92.4424 377.662C93.0394 376.951 93.8392 376.595 94.8418 376.595C95.7806 376.595 96.5234 376.905 97.0703 377.525C97.6172 378.14 97.8906 378.954 97.8906 379.965V380.683H92.7295C92.7523 381.563 92.9733 382.23 93.3926 382.686C93.8164 383.142 94.4111 383.37 95.1768 383.37C95.9834 383.37 96.7809 383.201 97.5693 382.864V383.875C97.1683 384.049 96.7878 384.172 96.4277 384.245C96.0723 384.322 95.6416 384.361 95.1357 384.361ZM94.8281 377.545C94.2266 377.545 93.7458 377.741 93.3857 378.133C93.0303 378.525 92.8206 379.068 92.7568 379.76H96.6738C96.6738 379.045 96.5143 378.498 96.1953 378.12C95.8763 377.737 95.4206 377.545 94.8281 377.545ZM104.959 384.224V379.377C104.959 378.767 104.82 378.311 104.542 378.01C104.264 377.709 103.829 377.559 103.236 377.559C102.452 377.559 101.878 377.771 101.514 378.195C101.149 378.619 100.967 379.318 100.967 380.293V384.224H99.832V376.732H100.755L100.939 377.757H100.994C101.227 377.388 101.552 377.103 101.972 376.903C102.391 376.698 102.858 376.595 103.373 376.595C104.275 376.595 104.954 376.814 105.41 377.251C105.866 377.684 106.094 378.379 106.094 379.336V384.224H104.959ZM110.852 383.424C111.052 383.424 111.246 383.411 111.433 383.383C111.619 383.351 111.768 383.319 111.877 383.288V384.156C111.754 384.215 111.572 384.263 111.33 384.299C111.093 384.34 110.879 384.361 110.688 384.361C109.238 384.361 108.514 383.597 108.514 382.071V377.614H107.44V377.067L108.514 376.595L108.992 374.996H109.648V376.732H111.822V377.614H109.648V382.023C109.648 382.474 109.756 382.82 109.97 383.062C110.184 383.304 110.478 383.424 110.852 383.424ZM123.136 384.224L121.762 379.829C121.675 379.56 121.513 378.949 121.276 377.997H121.222C121.039 378.794 120.88 379.409 120.743 379.842L119.328 384.224H118.016L115.972 376.732H117.161C117.644 378.614 118.011 380.047 118.262 381.032C118.517 382.016 118.663 382.679 118.699 383.021H118.754C118.804 382.761 118.884 382.426 118.993 382.016C119.107 381.601 119.205 381.273 119.287 381.032L120.661 376.732H121.892L123.231 381.032C123.487 381.816 123.66 382.474 123.751 383.007H123.806C123.824 382.843 123.872 382.59 123.949 382.249C124.031 381.907 124.507 380.068 125.378 376.732H126.554L124.482 384.224H123.136ZM133.041 384.224V379.377C133.041 378.767 132.902 378.311 132.624 378.01C132.346 377.709 131.911 377.559 131.318 377.559C130.53 377.559 129.953 377.773 129.589 378.202C129.229 378.63 129.049 379.332 129.049 380.307V384.224H127.914V373.587H129.049V376.807C129.049 377.194 129.031 377.516 128.994 377.771H129.062C129.286 377.411 129.603 377.128 130.013 376.923C130.427 376.714 130.899 376.609 131.428 376.609C132.344 376.609 133.03 376.828 133.485 377.265C133.946 377.698 134.176 378.389 134.176 379.336V384.224H133.041ZM137.648 384.224H136.514V376.732H137.648V384.224ZM136.418 374.702C136.418 374.442 136.482 374.253 136.609 374.134C136.737 374.011 136.896 373.95 137.088 373.95C137.27 373.95 137.427 374.011 137.56 374.134C137.692 374.257 137.758 374.446 137.758 374.702C137.758 374.957 137.692 375.148 137.56 375.276C137.427 375.399 137.27 375.46 137.088 375.46C136.896 375.46 136.737 375.399 136.609 375.276C136.482 375.148 136.418 374.957 136.418 374.702ZM141.189 384.224H140.055V373.587H141.189V384.224ZM146.761 384.361C145.653 384.361 144.778 384.024 144.136 383.349C143.498 382.675 143.179 381.738 143.179 380.54C143.179 379.332 143.475 378.373 144.067 377.662C144.664 376.951 145.464 376.595 146.467 376.595C147.406 376.595 148.148 376.905 148.695 377.525C149.242 378.14 149.516 378.954 149.516 379.965V380.683H144.354C144.377 381.563 144.598 382.23 145.018 382.686C145.441 383.142 146.036 383.37 146.802 383.37C147.608 383.37 148.406 383.201 149.194 382.864V383.875C148.793 384.049 148.413 384.172 148.053 384.245C147.697 384.322 147.267 384.361 146.761 384.361ZM146.453 377.545C145.852 377.545 145.371 377.741 145.011 378.133C144.655 378.525 144.446 379.068 144.382 379.76H148.299C148.299 379.045 148.139 378.498 147.82 378.12C147.501 377.737 147.046 377.545 146.453 377.545ZM161.212 384.224L159.838 379.829C159.751 379.56 159.59 378.949 159.353 377.997H159.298C159.116 378.794 158.956 379.409 158.819 379.842L157.404 384.224H156.092L154.048 376.732H155.237C155.72 378.614 156.087 380.047 156.338 381.032C156.593 382.016 156.739 382.679 156.775 383.021H156.83C156.88 382.761 156.96 382.426 157.069 382.016C157.183 381.601 157.281 381.273 157.363 381.032L158.737 376.732H159.968L161.308 381.032C161.563 381.816 161.736 382.474 161.827 383.007H161.882C161.9 382.843 161.948 382.59 162.025 382.249C162.107 381.907 162.584 380.068 163.454 376.732H164.63L162.559 384.224H161.212ZM169.155 384.361C168.048 384.361 167.173 384.024 166.53 383.349C165.892 382.675 165.573 381.738 165.573 380.54C165.573 379.332 165.869 378.373 166.462 377.662C167.059 376.951 167.859 376.595 168.861 376.595C169.8 376.595 170.543 376.905 171.09 377.525C171.637 378.14 171.91 378.954 171.91 379.965V380.683H166.749C166.772 381.563 166.993 382.23 167.412 382.686C167.836 383.142 168.431 383.37 169.196 383.37C170.003 383.37 170.8 383.201 171.589 382.864V383.875C171.188 384.049 170.807 384.172 170.447 384.245C170.092 384.322 169.661 384.361 169.155 384.361ZM168.848 377.545C168.246 377.545 167.765 377.741 167.405 378.133C167.05 378.525 166.84 379.068 166.776 379.76H170.693C170.693 379.045 170.534 378.498 170.215 378.12C169.896 377.737 169.44 377.545 168.848 377.545ZM182.321 382.18C182.321 382.877 182.062 383.415 181.542 383.793C181.022 384.172 180.293 384.361 179.354 384.361C178.361 384.361 177.586 384.204 177.03 383.889V382.836C177.39 383.019 177.775 383.162 178.186 383.267C178.6 383.372 178.999 383.424 179.382 383.424C179.974 383.424 180.43 383.331 180.749 383.144C181.068 382.953 181.228 382.663 181.228 382.276C181.228 381.984 181.1 381.736 180.845 381.531C180.594 381.321 180.102 381.075 179.368 380.792C178.671 380.533 178.174 380.307 177.878 380.116C177.586 379.92 177.368 379.699 177.222 379.453C177.08 379.207 177.01 378.913 177.01 378.571C177.01 377.96 177.258 377.479 177.755 377.128C178.252 376.773 178.933 376.595 179.799 376.595C180.605 376.595 181.394 376.759 182.164 377.087L181.761 378.01C181.009 377.7 180.327 377.545 179.717 377.545C179.179 377.545 178.773 377.63 178.5 377.798C178.227 377.967 178.09 378.199 178.09 378.496C178.09 378.696 178.14 378.867 178.24 379.008C178.345 379.15 178.511 379.284 178.739 379.412C178.967 379.539 179.405 379.724 180.052 379.965C180.94 380.289 181.54 380.615 181.85 380.943C182.164 381.271 182.321 381.683 182.321 382.18ZM187.339 384.361C186.231 384.361 185.356 384.024 184.714 383.349C184.076 382.675 183.757 381.738 183.757 380.54C183.757 379.332 184.053 378.373 184.646 377.662C185.243 376.951 186.042 376.595 187.045 376.595C187.984 376.595 188.727 376.905 189.273 377.525C189.82 378.14 190.094 378.954 190.094 379.965V380.683H184.933C184.955 381.563 185.176 382.23 185.596 382.686C186.02 383.142 186.614 383.37 187.38 383.37C188.187 383.37 188.984 383.201 189.772 382.864V383.875C189.371 384.049 188.991 384.172 188.631 384.245C188.275 384.322 187.845 384.361 187.339 384.361ZM187.031 377.545C186.43 377.545 185.949 377.741 185.589 378.133C185.233 378.525 185.024 379.068 184.96 379.76H188.877C188.877 379.045 188.717 378.498 188.398 378.12C188.079 377.737 187.624 377.545 187.031 377.545ZM196.643 384.224L196.417 383.158H196.362C195.989 383.627 195.615 383.946 195.241 384.115C194.872 384.279 194.41 384.361 193.854 384.361C193.111 384.361 192.527 384.169 192.104 383.787C191.684 383.404 191.475 382.859 191.475 382.153C191.475 380.64 192.685 379.847 195.104 379.774L196.376 379.733V379.268C196.376 378.68 196.248 378.247 195.993 377.969C195.743 377.687 195.339 377.545 194.783 377.545C194.159 377.545 193.452 377.737 192.664 378.12L192.315 377.251C192.685 377.051 193.088 376.894 193.525 376.78C193.967 376.666 194.41 376.609 194.852 376.609C195.745 376.609 196.406 376.807 196.834 377.204C197.267 377.6 197.483 378.236 197.483 379.111V384.224H196.643ZM194.079 383.424C194.785 383.424 195.339 383.231 195.74 382.843C196.146 382.456 196.349 381.914 196.349 381.216V380.54L195.214 380.587C194.312 380.619 193.66 380.761 193.259 381.011C192.862 381.257 192.664 381.642 192.664 382.167C192.664 382.577 192.787 382.889 193.033 383.103C193.284 383.317 193.632 383.424 194.079 383.424ZM203.246 376.595C203.579 376.595 203.877 376.623 204.142 376.677L203.984 377.73C203.674 377.662 203.401 377.627 203.164 377.627C202.558 377.627 202.038 377.874 201.605 378.366C201.177 378.858 200.963 379.471 200.963 380.205V384.224H199.828V376.732H200.765L200.895 378.12H200.949C201.227 377.632 201.562 377.256 201.954 376.992C202.346 376.727 202.777 376.595 203.246 376.595ZM208.537 384.361C207.452 384.361 206.612 384.028 206.015 383.363C205.422 382.693 205.126 381.747 205.126 380.526C205.126 379.273 205.427 378.304 206.028 377.621C206.634 376.937 207.496 376.595 208.612 376.595C208.972 376.595 209.332 376.634 209.692 376.711C210.052 376.789 210.335 376.88 210.54 376.985L210.191 377.949C209.941 377.848 209.667 377.766 209.371 377.703C209.075 377.634 208.813 377.6 208.585 377.6C207.063 377.6 206.302 378.571 206.302 380.512C206.302 381.433 206.486 382.139 206.855 382.631C207.229 383.124 207.781 383.37 208.51 383.37C209.134 383.37 209.774 383.235 210.431 382.966V383.971C209.929 384.231 209.298 384.361 208.537 384.361ZM217.342 384.224V379.377C217.342 378.767 217.203 378.311 216.925 378.01C216.647 377.709 216.212 377.559 215.619 377.559C214.831 377.559 214.254 377.773 213.89 378.202C213.53 378.63 213.35 379.332 213.35 380.307V384.224H212.215V373.587H213.35V376.807C213.35 377.194 213.331 377.516 213.295 377.771H213.363C213.587 377.411 213.903 377.128 214.313 376.923C214.728 376.714 215.2 376.609 215.729 376.609C216.645 376.609 217.33 376.828 217.786 377.265C218.246 377.698 218.477 378.389 218.477 379.336V384.224H217.342ZM227.828 377.614H225.921V384.224H224.786V377.614H223.446V377.101L224.786 376.691V376.274C224.786 374.433 225.59 373.512 227.199 373.512C227.596 373.512 228.061 373.592 228.594 373.751L228.3 374.661C227.862 374.519 227.489 374.449 227.179 374.449C226.75 374.449 226.434 374.592 226.229 374.879C226.023 375.162 225.921 375.618 225.921 376.247V376.732H227.828V377.614ZM232.36 384.361C231.253 384.361 230.378 384.024 229.735 383.349C229.097 382.675 228.778 381.738 228.778 380.54C228.778 379.332 229.075 378.373 229.667 377.662C230.264 376.951 231.064 376.595 232.066 376.595C233.005 376.595 233.748 376.905 234.295 377.525C234.842 378.14 235.115 378.954 235.115 379.965V380.683H229.954C229.977 381.563 230.198 382.23 230.617 382.686C231.041 383.142 231.636 383.37 232.401 383.37C233.208 383.37 234.006 383.201 234.794 382.864V383.875C234.393 384.049 234.012 384.172 233.652 384.245C233.297 384.322 232.866 384.361 232.36 384.361ZM232.053 377.545C231.451 377.545 230.97 377.741 230.61 378.133C230.255 378.525 230.045 379.068 229.981 379.76H233.898C233.898 379.045 233.739 378.498 233.42 378.12C233.101 377.737 232.645 377.545 232.053 377.545ZM241.89 382.18C241.89 382.877 241.63 383.415 241.11 383.793C240.591 384.172 239.862 384.361 238.923 384.361C237.929 384.361 237.155 384.204 236.599 383.889V382.836C236.959 383.019 237.344 383.162 237.754 383.267C238.169 383.372 238.567 383.424 238.95 383.424C239.543 383.424 239.998 383.331 240.317 383.144C240.636 382.953 240.796 382.663 240.796 382.276C240.796 381.984 240.668 381.736 240.413 381.531C240.162 381.321 239.67 381.075 238.937 380.792C238.239 380.533 237.743 380.307 237.446 380.116C237.155 379.92 236.936 379.699 236.79 379.453C236.649 379.207 236.578 378.913 236.578 378.571C236.578 377.96 236.826 377.479 237.323 377.128C237.82 376.773 238.501 376.595 239.367 376.595C240.174 376.595 240.962 376.759 241.732 377.087L241.329 378.01C240.577 377.7 239.896 377.545 239.285 377.545C238.747 377.545 238.342 377.63 238.068 377.798C237.795 377.967 237.658 378.199 237.658 378.496C237.658 378.696 237.708 378.867 237.809 379.008C237.913 379.15 238.08 379.284 238.308 379.412C238.535 379.539 238.973 379.724 239.62 379.965C240.509 380.289 241.108 380.615 241.418 380.943C241.732 381.271 241.89 381.683 241.89 382.18ZM246.162 383.424C246.363 383.424 246.556 383.411 246.743 383.383C246.93 383.351 247.078 383.319 247.188 383.288V384.156C247.064 384.215 246.882 384.263 246.641 384.299C246.404 384.34 246.189 384.361 245.998 384.361C244.549 384.361 243.824 383.597 243.824 382.071V377.614H242.751V377.067L243.824 376.595L244.303 374.996H244.959V376.732H247.133V377.614H244.959V382.023C244.959 382.474 245.066 382.82 245.28 383.062C245.494 383.304 245.788 383.424 246.162 383.424ZM249.826 384.224H248.691V376.732H249.826V384.224ZM248.596 374.702C248.596 374.442 248.66 374.253 248.787 374.134C248.915 374.011 249.074 373.95 249.266 373.95C249.448 373.95 249.605 374.011 249.737 374.134C249.869 374.257 249.936 374.446 249.936 374.702C249.936 374.957 249.869 375.148 249.737 375.276C249.605 375.399 249.448 375.46 249.266 375.46C249.074 375.46 248.915 375.399 248.787 375.276C248.66 375.148 248.596 374.957 248.596 374.702ZM253.873 384.224L251.029 376.732H252.246L253.859 381.175C254.224 382.214 254.438 382.889 254.502 383.199H254.557C254.607 382.957 254.764 382.458 255.028 381.702C255.297 380.941 255.896 379.284 256.826 376.732H258.043L255.199 384.224H253.873ZM263.854 384.224L263.628 383.158H263.573C263.2 383.627 262.826 383.946 262.452 384.115C262.083 384.279 261.62 384.361 261.064 384.361C260.322 384.361 259.738 384.169 259.314 383.787C258.895 383.404 258.686 382.859 258.686 382.153C258.686 380.64 259.896 379.847 262.315 379.774L263.587 379.733V379.268C263.587 378.68 263.459 378.247 263.204 377.969C262.953 377.687 262.55 377.545 261.994 377.545C261.37 377.545 260.663 377.737 259.875 378.12L259.526 377.251C259.896 377.051 260.299 376.894 260.736 376.78C261.178 376.666 261.62 376.609 262.062 376.609C262.956 376.609 263.617 376.807 264.045 377.204C264.478 377.6 264.694 378.236 264.694 379.111V384.224H263.854ZM261.29 383.424C261.996 383.424 262.55 383.231 262.951 382.843C263.357 382.456 263.56 381.914 263.56 381.216V380.54L262.425 380.587C261.522 380.619 260.871 380.761 260.47 381.011C260.073 381.257 259.875 381.642 259.875 382.167C259.875 382.577 259.998 382.889 260.244 383.103C260.495 383.317 260.843 383.424 261.29 383.424ZM268.174 384.224H267.039V373.587H268.174V384.224ZM275.413 382.18C275.413 382.877 275.153 383.415 274.634 383.793C274.114 384.172 273.385 384.361 272.446 384.361C271.453 384.361 270.678 384.204 270.122 383.889V382.836C270.482 383.019 270.867 383.162 271.277 383.267C271.692 383.372 272.091 383.424 272.474 383.424C273.066 383.424 273.522 383.331 273.841 383.144C274.16 382.953 274.319 382.663 274.319 382.276C274.319 381.984 274.192 381.736 273.937 381.531C273.686 381.321 273.194 381.075 272.46 380.792C271.763 380.533 271.266 380.307 270.97 380.116C270.678 379.92 270.459 379.699 270.313 379.453C270.172 379.207 270.102 378.913 270.102 378.571C270.102 377.96 270.35 377.479 270.847 377.128C271.343 376.773 272.025 376.595 272.891 376.595C273.697 376.595 274.486 376.759 275.256 377.087L274.853 378.01C274.101 377.7 273.419 377.545 272.809 377.545C272.271 377.545 271.865 377.63 271.592 377.798C271.318 377.967 271.182 378.199 271.182 378.496C271.182 378.696 271.232 378.867 271.332 379.008C271.437 379.15 271.603 379.284 271.831 379.412C272.059 379.539 272.496 379.724 273.144 379.965C274.032 380.289 274.632 380.615 274.941 380.943C275.256 381.271 275.413 381.683 275.413 382.18ZM284.279 377.614H282.372V384.224H281.237V377.614H279.897V377.101L281.237 376.691V376.274C281.237 374.433 282.042 373.512 283.65 373.512C284.047 373.512 284.512 373.592 285.045 373.751L284.751 374.661C284.313 374.519 283.94 374.449 283.63 374.449C283.201 374.449 282.885 374.592 282.68 374.879C282.475 375.162 282.372 375.618 282.372 376.247V376.732H284.279V377.614ZM292.113 380.471C292.113 381.693 291.806 382.647 291.19 383.335C290.575 384.019 289.725 384.361 288.641 384.361C287.971 384.361 287.376 384.204 286.856 383.889C286.337 383.575 285.936 383.124 285.653 382.536C285.371 381.948 285.229 381.26 285.229 380.471C285.229 379.25 285.535 378.3 286.146 377.621C286.756 376.937 287.604 376.595 288.688 376.595C289.737 376.595 290.568 376.944 291.184 377.641C291.803 378.338 292.113 379.282 292.113 380.471ZM286.405 380.471C286.405 381.428 286.597 382.157 286.979 382.659C287.362 383.16 287.925 383.411 288.668 383.411C289.411 383.411 289.974 383.162 290.356 382.666C290.744 382.164 290.938 381.433 290.938 380.471C290.938 379.519 290.744 378.796 290.356 378.304C289.974 377.807 289.406 377.559 288.654 377.559C287.911 377.559 287.351 377.803 286.973 378.291C286.594 378.778 286.405 379.505 286.405 380.471ZM297.527 376.595C297.86 376.595 298.159 376.623 298.423 376.677L298.266 377.73C297.956 377.662 297.682 377.627 297.445 377.627C296.839 377.627 296.32 377.874 295.887 378.366C295.458 378.858 295.244 379.471 295.244 380.205V384.224H294.109V376.732H295.046L295.176 378.12H295.23C295.508 377.632 295.843 377.256 296.235 376.992C296.627 376.727 297.058 376.595 297.527 376.595ZM302.271 376.732H303.488L305.129 381.004C305.489 381.98 305.712 382.684 305.799 383.117H305.854C305.913 382.884 306.036 382.488 306.223 381.927C306.414 381.362 307.034 379.63 308.082 376.732H309.299L306.079 385.263C305.76 386.106 305.386 386.703 304.958 387.054C304.534 387.41 304.012 387.587 303.393 387.587C303.046 387.587 302.704 387.549 302.367 387.471V386.562C302.618 386.617 302.898 386.644 303.208 386.644C303.987 386.644 304.543 386.207 304.876 385.332L305.293 384.265L302.271 376.732ZM316.982 380.471C316.982 381.693 316.675 382.647 316.06 383.335C315.444 384.019 314.594 384.361 313.51 384.361C312.84 384.361 312.245 384.204 311.726 383.889C311.206 383.575 310.805 383.124 310.522 382.536C310.24 381.948 310.099 381.26 310.099 380.471C310.099 379.25 310.404 378.3 311.015 377.621C311.625 376.937 312.473 376.595 313.558 376.595C314.606 376.595 315.438 376.944 316.053 377.641C316.673 378.338 316.982 379.282 316.982 380.471ZM311.274 380.471C311.274 381.428 311.466 382.157 311.849 382.659C312.231 383.16 312.794 383.411 313.537 383.411C314.28 383.411 314.843 383.162 315.226 382.666C315.613 382.164 315.807 381.433 315.807 380.471C315.807 379.519 315.613 378.796 315.226 378.304C314.843 377.807 314.275 377.559 313.523 377.559C312.781 377.559 312.22 377.803 311.842 378.291C311.464 378.778 311.274 379.505 311.274 380.471ZM320.045 376.732V381.592C320.045 382.203 320.184 382.659 320.462 382.959C320.74 383.26 321.175 383.411 321.768 383.411C322.551 383.411 323.123 383.196 323.483 382.768C323.848 382.34 324.03 381.64 324.03 380.669V376.732H325.165V384.224H324.229L324.064 383.219H324.003C323.771 383.588 323.447 383.871 323.032 384.067C322.622 384.263 322.153 384.361 321.624 384.361C320.713 384.361 320.029 384.144 319.573 383.711C319.122 383.278 318.896 382.586 318.896 381.633V376.732H320.045Z" fill="#888888"/>
<defs>
<clipPath id="clip0_407_1667">
<rect width="279.848" height="194.792" fill="white" transform="translate(16.7109 56.3506)"/>
</clipPath>
</defs>
</svg>
