<svg width="10" height="10" viewBox="0 0 10 10" fill="none" xmlns="http://www.w3.org/2000/svg">
<path d="M4.80927 0.908316C4.99269 0.536732 5.52256 0.536731 5.70598 0.908315L6.76601 3.05582C6.83878 3.20324 6.97937 3.30547 7.14205 3.32925L9.51336 3.67585C9.92331 3.73577 10.0867 4.23969 9.78991 4.52877L8.07483 6.19926C7.95689 6.31413 7.90306 6.47969 7.93089 6.64196L8.33555 9.00131C8.40561 9.40979 7.97683 9.72128 7.61002 9.52837L5.49035 8.41366C5.34466 8.33704 5.17059 8.33704 5.0249 8.41366L2.90523 9.52837C2.53841 9.72128 2.10964 9.4098 2.1797 9.00132L2.58436 6.64196C2.61219 6.47969 2.55835 6.31413 2.44042 6.19926L0.725339 4.52877C0.428542 4.23969 0.591934 3.73577 1.00189 3.67585L3.3732 3.32925C3.53588 3.30547 3.67647 3.20324 3.74924 3.05582L4.80927 0.908316Z" fill="#1877F2"/>
</svg>
