<svg width="11" height="10" viewBox="0 0 11 10" fill="none" xmlns="http://www.w3.org/2000/svg">
<path d="M4.87177 0.908316C5.05519 0.536732 5.58506 0.536731 5.76848 0.908315L6.82851 3.05582C6.90128 3.20324 7.04187 3.30547 7.20455 3.32925L9.57586 3.67585C9.98581 3.73577 10.1492 4.23969 9.85241 4.52877L8.13733 6.19926C8.01939 6.31413 7.96556 6.47969 7.99339 6.64196L8.39805 9.00131C8.46811 9.40979 8.03933 9.72128 7.67252 9.52837L5.55285 8.41366C5.40716 8.33704 5.23309 8.33704 5.0874 8.41366L2.96773 9.52837C2.60091 9.72128 2.17214 9.4098 2.2422 9.00132L2.64686 6.64196C2.67469 6.47969 2.62085 6.31413 2.50292 6.19926L0.787839 4.52877C0.491042 4.23969 0.654434 3.73577 1.06439 3.67585L3.4357 3.32925C3.59838 3.30547 3.73897 3.20324 3.81174 3.05582L4.87177 0.908316Z" fill="#C4C4C4"/>
</svg>
