<svg width="138" height="112" viewBox="0 0 138 112" fill="none" xmlns="http://www.w3.org/2000/svg">
<path d="M4.44475 65.2419C43.0745 44.4018 103.529 4.71666 159.005 -67.1825C204.638 -126.323 230.248 -185.679 244.639 -227.362C260.168 -219.463 275.694 -211.565 291.223 -203.667C276.927 -159.68 249.907 -93.5901 198.715 -28.4993C138.268 48.352 72.0091 88.3493 31.8156 108.203C22.6897 93.8838 13.5658 79.5616 4.44475 65.2419Z" fill="#0B4870" fill-opacity="0.5"/>
<path d="M8.9657 70.8675C9.39348 70.5457 9.78676 69.7871 9.64303 68.8828L5.9935 69.4629C5.75733 67.9771 6.65691 67.4063 7.79469 66.6863C8.41335 66.2941 9.33083 65.726 10.5188 64.9923C13.5119 63.1387 18.0361 60.34 23.8792 56.5957L25.8029 60.2865C19.9372 64.0458 15.3998 66.8552 12.3974 68.7132C10.689 69.7664 9.2152 70.6795 8.9657 70.8675ZM30.0402 57.5505L28.1008 53.8707C33.7152 50.2254 39.3473 46.4719 44.8387 42.7121L46.8482 46.3465C41.3318 50.1216 35.6747 53.8906 30.0402 57.5505ZM51.0103 43.4826L48.9826 39.8597C54.5346 36.0104 60.0632 32.0764 65.4113 28.1682L67.5082 31.7402C62.138 35.6662 56.5873 39.618 51.0103 43.4826ZM71.5925 28.7319L69.4754 25.1745C74.9492 21.1151 80.3599 16.9888 85.5534 12.9084L87.7481 16.4049C82.5304 20.5063 77.0932 24.654 71.5925 28.7319ZM91.7385 13.246L89.5237 9.76407C94.8986 5.4751 100.168 1.13166 105.183 -3.14575L107.488 0.261895C102.442 4.56419 97.1444 8.93214 91.7385 13.246ZM111.366 -3.07028L109.037 -6.45697C114.276 -11.0039 119.368 -15.596 124.176 -20.1059L126.608 -16.8124C121.767 -12.2717 116.638 -7.64807 111.366 -3.07028ZM130.347 -20.3593L127.887 -23.6255C132.946 -28.4747 137.809 -33.364 142.344 -38.1499L144.929 -35.0092C140.356 -30.1802 135.449 -25.2525 130.347 -20.3593ZM148.471 -38.8044L145.85 -41.9079C150.662 -47.1316 155.211 -52.379 159.369 -57.5014L162.144 -54.5763C157.936 -49.3918 153.337 -44.085 148.471 -38.8044ZM165.417 -58.6825L162.599 -61.5521C162.966 -62.0212 163.33 -62.49 163.692 -62.9611C167.551 -67.9648 171.38 -73.1176 175.07 -78.2742L177.987 -75.5372C174.27 -70.3422 170.413 -65.1506 166.525 -60.1108C166.157 -59.633 165.788 -59.1579 165.417 -58.6825ZM181.035 -79.8413L178.095 -82.549C182.081 -88.2433 186.021 -94.1099 189.803 -99.9886L192.83 -97.4116C189.019 -91.4885 185.049 -85.5772 181.035 -79.8413ZM195.68 -101.887L192.634 -104.432C196.359 -110.347 200.032 -116.44 203.553 -122.539L206.68 -120.127C203.134 -113.983 199.433 -107.846 195.68 -101.887ZM209.328 -124.767L206.181 -127.145C209.641 -133.278 213.043 -139.578 216.285 -145.875L219.507 -143.635C216.24 -137.293 212.813 -130.946 209.328 -124.767ZM221.946 -148.427L218.707 -150.631C221.892 -156.959 225.01 -163.454 227.976 -169.936L231.283 -167.871C228.297 -161.343 225.156 -154.802 221.946 -148.427ZM233.509 -172.804L230.186 -174.832C233.09 -181.344 235.921 -188.015 238.598 -194.666L241.983 -192.784C239.286 -186.086 236.436 -179.362 233.509 -172.804ZM243.99 -197.842L240.591 -199.686C243.209 -206.367 245.744 -213.203 248.126 -220.003L251.581 -218.307C249.18 -211.455 246.627 -204.571 243.99 -197.842Z" fill="#F7F7F7"/>
<path d="M31.4468 105.177L29.7421 101.358C35.479 98.2635 41.3234 94.9668 47.1128 91.5591L48.9252 95.3189C43.1016 98.7464 37.2205 102.063 31.4468 105.177ZM53.2468 92.7521L51.4093 89.0076C57.0909 85.597 62.8022 82.0277 68.3901 78.4037L70.3295 82.0835C64.7082 85.7327 58.9627 89.3218 53.2468 92.7521ZM74.5473 79.3192L72.5829 75.6548C78.1581 71.9673 83.7307 68.1376 89.1485 64.2754L91.214 67.8695C85.7628 71.757 80.154 75.6096 74.5473 79.3192ZM95.3237 64.9113L93.2336 61.3354C98.6766 57.3807 104.098 53.2898 109.344 49.1782L111.534 52.6783C106.255 56.8152 100.8 60.9314 95.3237 64.9113ZM115.527 49.5218L113.31 46.0402C118.603 41.8157 123.855 37.4579 128.916 33.0933L131.236 36.4871C126.14 40.8829 120.856 45.2688 115.527 49.5218ZM135.095 33.1294L132.748 29.7569C137.863 25.2583 142.922 20.6287 147.785 15.9932L150.239 19.2688C145.341 23.9356 140.247 28.5992 135.095 33.1294ZM153.947 15.6984L151.467 12.4496C156.382 7.66894 161.224 2.75448 165.859 -2.15574L168.448 0.981436C163.779 5.92844 158.901 10.8801 153.947 15.6984ZM171.984 -2.80979L169.364 -5.91654C174.049 -10.9886 178.641 -16.1973 183.017 -21.3914L185.747 -18.4137C181.337 -13.174 176.706 -7.92498 171.984 -2.80979ZM189.091 -22.4282L186.33 -25.3727C189.154 -28.8083 191.947 -32.3132 194.627 -35.7887C196.137 -37.746 197.657 -39.7534 199.144 -41.7556L202.021 -38.9608C200.519 -36.9391 198.985 -34.9124 197.46 -32.9385C194.758 -29.4281 191.94 -25.8935 189.091 -22.4282ZM205.144 -43.2142L202.241 -45.9706C206.244 -51.4964 210.248 -57.3047 214.141 -63.2266L217.145 -60.6175C213.22 -54.6449 209.184 -48.7887 205.144 -43.2142ZM220.035 -65.0649L217.007 -67.6388C220.729 -73.4395 224.446 -79.496 228.054 -85.6436L231.168 -83.206C227.532 -77.0141 223.788 -70.9104 220.035 -65.0649ZM233.846 -87.8252L230.713 -90.2283C234.172 -96.2553 237.621 -102.526 240.962 -108.862L244.165 -106.587C240.803 -100.208 237.329 -93.8958 233.846 -87.8252ZM246.651 -111.347L243.43 -113.591C246.648 -119.822 249.844 -126.269 252.933 -132.759L256.214 -130.639C253.106 -124.109 249.887 -117.618 246.651 -111.347ZM258.511 -135.523L255.217 -137.615C258.208 -144.033 261.167 -150.639 264.005 -157.246L267.353 -155.271C264.496 -148.624 261.521 -141.978 258.511 -135.523ZM269.476 -160.261L266.116 -162.206C268.892 -168.798 271.614 -175.54 274.21 -182.249L277.616 -180.42C275.007 -173.675 272.266 -166.892 269.476 -160.261ZM279.564 -185.508L276.147 -187.307C278.676 -193.984 281.116 -200.725 283.4 -207.341L286.86 -205.663C284.562 -199.008 282.108 -192.228 279.564 -185.508Z" fill="#F7F7F7"/>
<path d="M56.5419 46.7928L15.3218 74.3333L28.1482 98.0336L69.3683 70.4931L56.5419 46.7928Z" fill="#F7F7F7"/>
<path d="M102.565 13.3822L63.0732 43.9082L77.1625 66.7003L116.655 36.1743L102.565 13.3822Z" fill="#F7F7F7"/>
<path d="M144.287 -24.4805L107.128 9.53052L122.685 31.085L159.844 -2.92607L144.287 -24.4805Z" fill="#F7F7F7"/>
</svg>
