<svg width="259" height="300" viewBox="0 0 259 300" fill="none" xmlns="http://www.w3.org/2000/svg">
<path opacity="0.35" d="M356.284 179.33L125.209 300L61.6719 201.41L296.729 78.6681L356.284 179.33Z" fill="#2A94F4" fill-opacity="0.5"/>
<path d="M126.93 167.332L87.9005 187.713L69.2749 156.86L107.232 134.705L126.93 167.332Z" fill="#2A94F4" fill-opacity="0.5"/>
<path d="M96.4443 116.843L55.3659 133.839L36.7231 102.951L76.5506 83.8953L96.4443 116.843Z" fill="#2A94F4" fill-opacity="0.5"/>
<path d="M205.202 126.454L166.172 146.835L145.395 112.419L183.352 90.2645L205.202 126.454Z" fill="#2A94F4" fill-opacity="0.5"/>
<path d="M296.729 78.668L244.456 105.958L244.451 105.964L221.521 67.9839L238.351 58.1547L220.133 65.6887L196.498 26.5325L251.984 0L296.729 78.668Z" fill="#2A94F4" fill-opacity="0.5"/>
<path d="M178.83 82.7706L137.752 99.7609L116.607 64.7418L156.446 45.6917L178.83 82.7706Z" fill="#2A94F4" fill-opacity="0.5"/>
<path d="M55.366 133.839L14.0581 150.915L13.8343 150.542L0 120.509L36.7232 102.951L55.366 133.839Z" fill="#0E538C" fill-opacity="0.5"/>
<path d="M87.9006 187.713L61.6722 201.41L42.8975 172.261L69.2751 156.86L87.9006 187.713Z" fill="#0E538C" fill-opacity="0.5"/>
<path d="M137.752 99.761L96.4444 116.843L76.5508 83.8954L116.608 64.7419L137.752 99.761Z" fill="#0E538C" fill-opacity="0.5"/>
<path d="M166.173 146.835L126.931 167.332L107.232 134.705L145.395 112.419L166.173 146.835Z" fill="#0E538C" fill-opacity="0.5"/>
<path d="M244.45 105.964L205.202 126.454L183.352 90.2645L221.521 67.9838L244.45 105.964Z" fill="#0E538C" fill-opacity="0.5"/>
<path d="M220.133 65.6887L178.831 82.7707L156.447 45.6917L196.498 26.5325L220.133 65.6887Z" fill="#0E538C" fill-opacity="0.5"/>
</svg>
