<svg width="246" height="316" viewBox="0 0 246 316" fill="none" xmlns="http://www.w3.org/2000/svg">
<path fill-rule="evenodd" clip-rule="evenodd" d="M8.47985 16C21.4215 8.81867 35.4636 3.37974 50.2894 0H121.711C136.536 3.37974 150.578 8.81867 163.52 16H8.47985ZM121.711 312C110.228 314.618 98.2755 316 86 316C73.7245 316 61.7719 314.618 50.2894 312H121.711ZM146.905 304H25.0948C14.6455 299.695 4.75207 294.316 -4.44792 288H176.448C167.248 294.316 157.354 299.695 146.905 304ZM187.122 280H-15.1216C-21.1459 275.081 -26.805 269.732 -32.0522 264H204.052C198.805 269.732 193.146 275.081 187.122 280ZM210.907 256H-38.9074C-42.9861 250.912 -46.7603 245.569 -50.2025 240H222.202C218.76 245.569 214.986 250.912 210.907 256ZM226.833 232H-54.8328C-57.6279 226.831 -60.1468 221.491 -62.3697 216H234.37C232.147 221.491 229.628 226.831 226.833 232ZM237.36 208H-65.3603C-67.1521 202.783 -68.6818 197.445 -69.9337 192H241.934C240.682 197.445 239.152 202.783 237.36 208ZM243.558 184H-71.5583C-72.4848 178.751 -73.1554 173.413 -73.5568 168H245.557C245.155 173.413 244.485 178.751 243.558 184ZM245.951 160H-73.951C-73.9836 158.671 -74 157.337 -74 156C-74 151.963 -73.8505 147.962 -73.5568 144H245.557C245.85 147.962 246 151.963 246 156C246 157.337 245.984 158.671 245.951 160ZM-69.9337 120C-71.1385 125.24 -72.086 130.578 -72.7621 136H244.762C244.086 130.578 243.139 125.24 241.934 120H-69.9337ZM-50.2025 72C-53.3834 77.1468 -56.2808 82.4874 -58.8728 88H230.873C228.281 82.4874 225.383 77.1468 222.203 72H-50.2025ZM234.37 96H-62.3697C-64.4758 101.203 -66.3161 106.542 -67.8739 112H239.874C238.316 106.542 236.476 101.203 234.37 96ZM176.448 24H-4.44794C-11.4545 28.8102 -18.0589 34.1638 -24.2003 40H196.2C190.059 34.1638 183.455 28.8102 176.448 24ZM204.052 48H-32.0522C-36.6718 53.0468 -40.972 58.3908 -44.921 64H216.921C212.972 58.3908 208.672 53.0468 204.052 48Z" fill="#DAE8FE"/>
</svg>
