<svg width="41" height="15" viewBox="0 0 41 15" fill="none" xmlns="http://www.w3.org/2000/svg">
<path d="M0.757812 11V1.00586H2.87695V9.25H6.93066V11H0.757812ZM15.4551 7.16504C15.4551 7.80306 15.3685 8.36816 15.1953 8.86035C15.0267 9.35254 14.7783 9.76953 14.4502 10.1113C14.1266 10.4486 13.7347 10.7038 13.2744 10.877C12.8187 11.0501 12.3037 11.1367 11.7295 11.1367C11.1917 11.1367 10.6973 11.0501 10.2461 10.877C9.79948 10.7038 9.40983 10.4486 9.07715 10.1113C8.74902 9.76953 8.49382 9.35254 8.31152 8.86035C8.13379 8.36816 8.04492 7.80306 8.04492 7.16504C8.04492 6.31738 8.19531 5.59961 8.49609 5.01172C8.79688 4.42383 9.22526 3.97721 9.78125 3.67188C10.3372 3.36654 11.0003 3.21387 11.7705 3.21387C12.486 3.21387 13.1195 3.36654 13.6709 3.67188C14.2269 3.97721 14.6621 4.42383 14.9766 5.01172C15.2956 5.59961 15.4551 6.31738 15.4551 7.16504ZM10.1709 7.16504C10.1709 7.66634 10.2256 8.08789 10.335 8.42969C10.4443 8.77148 10.6152 9.02897 10.8477 9.20215C11.0801 9.37533 11.3831 9.46191 11.7568 9.46191C12.126 9.46191 12.4245 9.37533 12.6523 9.20215C12.8848 9.02897 13.0534 8.77148 13.1582 8.42969C13.2676 8.08789 13.3223 7.66634 13.3223 7.16504C13.3223 6.65918 13.2676 6.23991 13.1582 5.90723C13.0534 5.56999 12.8848 5.31706 12.6523 5.14844C12.4199 4.97982 12.1169 4.89551 11.7432 4.89551C11.1917 4.89551 10.7907 5.08464 10.54 5.46289C10.2939 5.84115 10.1709 6.40853 10.1709 7.16504ZM19.4131 14.3633C18.3467 14.3633 17.5309 14.1764 16.9658 13.8027C16.4053 13.4336 16.125 12.9141 16.125 12.2441C16.125 11.7839 16.2686 11.3988 16.5557 11.0889C16.8428 10.779 17.2643 10.5579 17.8203 10.4258C17.6061 10.3346 17.4193 10.1865 17.2598 9.98145C17.1003 9.77181 17.0205 9.55078 17.0205 9.31836C17.0205 9.02669 17.1048 8.78516 17.2734 8.59375C17.4421 8.39779 17.6859 8.20638 18.0049 8.01953C17.6038 7.84635 17.2848 7.56836 17.0479 7.18555C16.8154 6.80273 16.6992 6.35156 16.6992 5.83203C16.6992 5.27604 16.82 4.80436 17.0615 4.41699C17.3076 4.02507 17.6631 3.72656 18.1279 3.52148C18.5973 3.31641 19.167 3.21387 19.8369 3.21387C19.9782 3.21387 20.1423 3.22298 20.3291 3.24121C20.516 3.25944 20.6868 3.27995 20.8418 3.30273C21.0013 3.32552 21.1084 3.34375 21.1631 3.35742H23.8291V4.41699L22.6328 4.72461C22.7422 4.89323 22.8242 5.07324 22.8789 5.26465C22.9336 5.45605 22.9609 5.65885 22.9609 5.87305C22.9609 6.69336 22.6738 7.33366 22.0996 7.79395C21.5299 8.24967 20.737 8.47754 19.7207 8.47754C19.4792 8.46387 19.2513 8.44564 19.0371 8.42285C18.9323 8.50488 18.8525 8.59147 18.7979 8.68262C18.7432 8.77376 18.7158 8.86947 18.7158 8.96973C18.7158 9.06999 18.7568 9.1543 18.8389 9.22266C18.9255 9.28646 19.0531 9.33659 19.2217 9.37305C19.3949 9.40495 19.609 9.4209 19.8643 9.4209H21.1631C22.0016 9.4209 22.6396 9.60091 23.0771 9.96094C23.5192 10.321 23.7402 10.8496 23.7402 11.5469C23.7402 12.4401 23.3665 13.1328 22.6191 13.625C21.8763 14.1172 20.8076 14.3633 19.4131 14.3633ZM19.502 13.0029C19.9987 13.0029 20.4248 12.9551 20.7803 12.8594C21.1403 12.7682 21.416 12.6361 21.6074 12.4629C21.7988 12.2943 21.8945 12.0915 21.8945 11.8545C21.8945 11.6631 21.8376 11.5104 21.7236 11.3965C21.6143 11.2871 21.4456 11.2096 21.2178 11.1641C20.9945 11.1185 20.7074 11.0957 20.3564 11.0957H19.2764C19.0212 11.0957 18.791 11.1367 18.5859 11.2188C18.3854 11.3008 18.2259 11.4147 18.1074 11.5605C17.9889 11.7109 17.9297 11.8841 17.9297 12.0801C17.9297 12.3672 18.0664 12.5928 18.3398 12.7568C18.6178 12.9209 19.0052 13.0029 19.502 13.0029ZM19.8369 7.20605C20.2288 7.20605 20.516 7.08529 20.6982 6.84375C20.8805 6.60221 20.9717 6.27409 20.9717 5.85938C20.9717 5.39909 20.876 5.05501 20.6846 4.82715C20.4977 4.59473 20.2152 4.47852 19.8369 4.47852C19.4541 4.47852 19.167 4.59473 18.9756 4.82715C18.7842 5.05501 18.6885 5.39909 18.6885 5.85938C18.6885 6.27409 18.7819 6.60221 18.9688 6.84375C19.1602 7.08529 19.4495 7.20605 19.8369 7.20605ZM30.8154 3.35742V11H28.7305V3.35742H30.8154ZM29.7764 0.363281C30.0863 0.363281 30.3529 0.436198 30.5762 0.582031C30.7995 0.723307 30.9111 0.989909 30.9111 1.38184C30.9111 1.76921 30.7995 2.03809 30.5762 2.18848C30.3529 2.33431 30.0863 2.40723 29.7764 2.40723C29.4619 2.40723 29.193 2.33431 28.9697 2.18848C28.751 2.03809 28.6416 1.76921 28.6416 1.38184C28.6416 0.989909 28.751 0.723307 28.9697 0.582031C29.193 0.436198 29.4619 0.363281 29.7764 0.363281ZM37.3506 3.21387C38.1663 3.21387 38.8226 3.43717 39.3193 3.88379C39.8161 4.32585 40.0645 5.03678 40.0645 6.0166V11H37.9795V6.53613C37.9795 5.98926 37.8792 5.57682 37.6787 5.29883C37.4827 5.02083 37.1729 4.88184 36.749 4.88184C36.111 4.88184 35.6758 5.09831 35.4434 5.53125C35.2109 5.96419 35.0947 6.58854 35.0947 7.4043V11H33.0098V3.35742H34.6025L34.8828 4.33496H34.999C35.1631 4.07064 35.3659 3.85645 35.6074 3.69238C35.8535 3.52832 36.1247 3.40755 36.4209 3.33008C36.7217 3.2526 37.0316 3.21387 37.3506 3.21387Z" fill="#666666"/>
</svg>
