<svg width="600" height="375" viewBox="0 0 600 375" fill="none" xmlns="http://www.w3.org/2000/svg">
<path opacity="0.1" d="M583.928 347.719C583.365 348.156 582.786 348.578 582.202 348.993C580.047 350.528 577.798 351.907 575.469 353.121C563.234 359.605 548.162 362.769 533.475 364.919C500.54 369.751 466.912 370.687 433.424 371.607C342.953 374.106 252.242 376.594 162.001 370.842C126.349 368.571 89.8988 364.747 57.5845 353.11C52.9567 351.444 48.4159 349.608 43.962 347.602C34.9603 343.529 26.3132 338.581 19.1212 332.685C12.3413 327.144 6.886 320.771 3.61075 313.534C-3.22136 298.451 0.39288 281.511 8.18984 266.732C11.4489 260.735 15.1091 254.994 19.1421 249.554C25.1502 241.231 31.7789 233.169 37.8391 224.857C59.389 195.255 73.4496 157.868 53.5582 127.546C47.8213 118.835 39.5758 111.188 34.9185 102.094C28.9678 90.4575 29.432 77.5407 31.3251 64.9675C31.5651 63.3827 31.8467 61.8089 32.1022 60.2352C35.3514 41.633 41.4012 21.5845 60.1296 9.96992C79.5828 -2.09907 107.198 -1.48953 131.35 2.82716C168.901 9.54323 203.541 23.5683 238.521 36.2357C273.5 48.9032 310.138 60.4735 348.607 61.7258C382.569 62.8341 422.19 54.5941 444.731 33.2102C466.635 12.4413 507.784 10.8621 537.46 23.4076C557.8 32.0188 573.002 47.529 579.412 64.9675C580.707 68.459 581.643 72.0895 582.202 75.7952C582.722 79.1694 582.897 82.5936 582.724 86.0078C582.635 87.6702 582.463 89.3603 582.202 90.995C577.248 125.423 541.569 152.576 519.884 183.33C509.286 198.352 501.802 216.395 509.088 232.592C520.202 257.273 558.853 266.045 582.202 284.42C586.564 287.727 590.432 291.713 593.676 296.245C604.967 312.603 600.79 334.68 583.928 347.719Z" fill="#1877F2"/>
<path opacity="0.1" d="M280.426 365.65C358.092 365.65 421.053 363.378 421.053 360.574C421.053 357.771 358.092 355.499 280.426 355.499C202.76 355.499 139.799 357.771 139.799 360.574C139.799 363.378 202.76 365.65 280.426 365.65Z" fill="#1877F2"/>
<path d="M392.155 357.194C392.155 357.194 422.404 316.482 420.062 276.014C419.076 259.024 423.014 242.112 431.812 227.888C435.998 221.149 440.757 214.833 446.029 209.019" stroke="#535461" stroke-width="2" stroke-miterlimit="10"/>
<path d="M444.689 183.502C442.551 189.165 445.988 209.69 445.988 209.69C445.988 209.69 461.837 197.394 463.975 191.736C464.484 190.39 464.739 188.95 464.724 187.5C464.709 186.049 464.426 184.616 463.89 183.281C463.353 181.947 462.575 180.738 461.599 179.723C460.624 178.709 459.469 177.908 458.202 177.368C456.935 176.827 455.58 176.557 454.215 176.572C452.85 176.588 451.5 176.889 450.245 177.459C448.989 178.028 447.851 178.855 446.896 179.892C445.941 180.929 445.188 182.156 444.679 183.502H444.689Z" fill="#1877F2"/>
<path d="M416.896 208.044C417.997 214.029 431.384 229.273 431.384 229.273C431.384 229.273 438.399 209.801 437.299 203.816C436.743 200.971 435.154 198.473 432.876 196.864C430.599 195.255 427.816 194.664 425.131 195.221C422.447 195.777 420.077 197.435 418.535 199.836C416.994 202.236 416.405 205.185 416.896 208.044Z" fill="#1877F2"/>
<path d="M397.344 261.906C401.136 266.483 419.932 272.434 419.932 272.434C419.932 272.434 416.735 251.865 412.943 247.288C412.041 246.199 410.947 245.311 409.722 244.672C408.497 244.033 407.166 243.657 405.804 243.565C404.442 243.473 403.076 243.666 401.785 244.135C400.494 244.604 399.302 245.338 398.278 246.296C397.253 247.254 396.417 248.417 395.815 249.718C395.214 251.02 394.86 252.435 394.773 253.882C394.687 255.328 394.869 256.779 395.31 258.151C395.751 259.523 396.442 260.79 397.344 261.878V261.906Z" fill="#1877F2"/>
<path d="M391.18 306.198C394.189 311.39 411.77 320.66 411.77 320.66C411.77 320.66 411.89 299.808 408.88 294.616C408.17 293.37 407.234 292.285 406.128 291.425C405.021 290.564 403.765 289.945 402.432 289.603C401.099 289.261 399.715 289.202 398.36 289.43C397.006 289.659 395.707 290.17 394.54 290.934C393.372 291.698 392.358 292.7 391.556 293.882C390.755 295.064 390.181 296.404 389.869 297.822C389.557 299.241 389.512 300.712 389.736 302.149C389.961 303.587 390.452 304.962 391.18 306.198Z" fill="#1877F2"/>
<path d="M451.245 239.015C445.93 241.325 426.592 237.812 426.592 237.812C426.592 237.812 438.066 220.889 443.364 218.578C445.905 217.52 448.736 217.566 451.245 218.707C453.754 219.847 455.741 221.99 456.775 224.674C457.81 227.357 457.81 230.365 456.775 233.048C455.741 235.731 453.754 237.874 451.245 239.015Z" fill="#1877F2"/>
<path d="M443.422 290.715C437.685 291.236 420.234 281.733 420.234 281.733C420.234 281.733 435.938 269.231 441.654 268.711C443.026 268.561 444.413 268.704 445.733 269.13C447.053 269.557 448.28 270.258 449.342 271.193C450.405 272.128 451.281 273.279 451.921 274.577C452.56 275.876 452.95 277.297 453.067 278.758C453.185 280.218 453.027 281.689 452.604 283.084C452.181 284.479 451.501 285.771 450.603 286.884C449.705 287.997 448.608 288.909 447.375 289.567C446.142 290.224 444.798 290.615 443.422 290.715Z" fill="#1877F2"/>
<path d="M429.298 339.861C423.744 341.396 405.021 335.168 405.021 335.168C405.021 335.168 418.508 320.029 424.062 318.488C426.701 317.842 429.473 318.316 431.788 319.808C434.103 321.3 435.778 323.693 436.458 326.478C437.137 329.263 436.767 332.22 435.426 334.719C434.085 337.219 431.879 339.064 429.278 339.861H429.298Z" fill="#1877F2"/>
<path opacity="0.25" d="M444.689 183.502C442.551 189.165 445.988 209.69 445.988 209.69C445.988 209.69 461.837 197.394 463.975 191.736C464.484 190.39 464.739 188.95 464.724 187.5C464.709 186.049 464.426 184.616 463.89 183.281C463.353 181.947 462.575 180.738 461.599 179.723C460.624 178.709 459.469 177.908 458.202 177.368C456.935 176.827 455.58 176.557 454.215 176.572C452.85 176.588 451.5 176.889 450.245 177.459C448.989 178.028 447.851 178.855 446.896 179.892C445.941 180.929 445.188 182.156 444.679 183.502H444.689Z" fill="#555555"/>
<path opacity="0.25" d="M416.896 208.044C417.997 214.029 431.384 229.273 431.384 229.273C431.384 229.273 438.399 209.801 437.299 203.816C436.743 200.971 435.154 198.473 432.876 196.864C430.599 195.255 427.816 194.664 425.131 195.221C422.447 195.777 420.077 197.435 418.535 199.836C416.994 202.236 416.405 205.185 416.896 208.044Z" fill="#555555"/>
<path opacity="0.25" d="M397.344 261.906C401.136 266.483 419.932 272.434 419.932 272.434C419.932 272.434 416.735 251.865 412.943 247.288C412.041 246.199 410.947 245.311 409.722 244.672C408.497 244.033 407.166 243.657 405.804 243.565C404.442 243.473 403.076 243.666 401.785 244.135C400.494 244.604 399.302 245.338 398.278 246.296C397.253 247.254 396.417 248.417 395.815 249.718C395.214 251.02 394.86 252.435 394.773 253.882C394.687 255.328 394.869 256.779 395.31 258.151C395.751 259.523 396.442 260.79 397.344 261.878V261.906Z" fill="#555555"/>
<path opacity="0.25" d="M391.18 306.198C394.189 311.39 411.77 320.66 411.77 320.66C411.77 320.66 411.89 299.808 408.88 294.616C408.17 293.37 407.234 292.285 406.128 291.425C405.021 290.564 403.765 289.945 402.432 289.603C401.099 289.261 399.715 289.202 398.36 289.43C397.006 289.659 395.707 290.17 394.54 290.934C393.372 291.698 392.358 292.7 391.556 293.882C390.755 295.064 390.181 296.404 389.869 297.822C389.557 299.241 389.512 300.712 389.736 302.149C389.961 303.587 390.452 304.962 391.18 306.198Z" fill="#555555"/>
<path opacity="0.25" d="M451.245 239.015C445.93 241.325 426.592 237.812 426.592 237.812C426.592 237.812 438.066 220.889 443.364 218.578C445.905 217.52 448.736 217.566 451.245 218.707C453.754 219.847 455.741 221.99 456.775 224.674C457.81 227.357 457.81 230.365 456.775 233.048C455.741 235.731 453.754 237.874 451.245 239.015Z" fill="#555555"/>
<path opacity="0.25" d="M443.422 290.715C437.685 291.236 420.234 281.733 420.234 281.733C420.234 281.733 435.938 269.231 441.654 268.711C443.026 268.561 444.413 268.704 445.733 269.13C447.053 269.557 448.28 270.258 449.342 271.193C450.405 272.128 451.281 273.279 451.921 274.577C452.56 275.876 452.95 277.297 453.067 278.758C453.185 280.218 453.027 281.689 452.604 283.084C452.181 284.479 451.501 285.771 450.603 286.884C449.705 287.997 448.608 288.909 447.375 289.567C446.142 290.224 444.798 290.615 443.422 290.715Z" fill="#555555"/>
<path opacity="0.25" d="M429.298 339.861C423.744 341.396 405.021 335.168 405.021 335.168C405.021 335.168 418.508 320.029 424.062 318.488C426.701 317.842 429.473 318.316 431.788 319.808C434.103 321.3 435.778 323.693 436.458 326.478C437.137 329.263 436.767 332.22 435.426 334.719C434.085 337.219 431.879 339.064 429.278 339.861H429.298Z" fill="#555555"/>
<path d="M392.416 355.493C392.416 355.493 435.599 331.305 448.888 293.297C454.468 277.338 464.534 263.574 477.984 254.359C484.383 250 491.145 246.274 498.183 243.226" stroke="#535461" stroke-width="2" stroke-miterlimit="10"/>
<path d="M506.684 219.315C502.574 223.566 497.886 243.813 497.886 243.813C497.886 243.813 517.063 239.38 521.178 235.147C523.11 233.095 524.205 230.316 524.224 227.413C524.243 224.51 523.186 221.716 521.281 219.635C519.376 217.554 516.776 216.354 514.044 216.294C511.312 216.234 508.668 217.319 506.684 219.315Z" fill="#1877F2"/>
<path d="M471.919 229.794C470.641 235.74 477.066 255.439 477.066 255.439C477.066 255.439 490.902 240.66 492.191 234.715C492.526 233.289 492.59 231.808 492.379 230.356C492.169 228.904 491.688 227.511 490.964 226.259C490.241 225.007 489.29 223.922 488.166 223.065C487.043 222.209 485.77 221.599 484.423 221.272C483.075 220.944 481.679 220.906 480.317 221.159C478.955 221.412 477.654 221.951 476.491 222.744C475.327 223.538 474.325 224.57 473.541 225.781C472.758 226.991 472.21 228.356 471.929 229.794H471.919Z" fill="#1877F2"/>
<path d="M433.512 270.617C435.234 276.435 450.139 290.011 450.139 290.011C450.139 290.011 455.062 269.83 453.341 264.012C452.954 262.599 452.306 261.282 451.433 260.14C450.561 258.997 449.482 258.051 448.261 257.357C447.039 256.664 445.7 256.236 444.321 256.1C442.942 255.965 441.552 256.123 440.231 256.566C438.91 257.009 437.686 257.728 436.631 258.681C435.576 259.633 434.71 260.801 434.085 262.114C433.46 263.427 433.089 264.859 432.992 266.327C432.896 267.795 433.076 269.268 433.523 270.661L433.512 270.617Z" fill="#1877F2"/>
<path d="M410.972 308.458C411.743 314.498 424.276 330.54 424.276 330.54C424.276 330.54 432.339 311.534 431.577 305.488C431.394 304.051 430.946 302.666 430.258 301.413C429.571 300.16 428.658 299.063 427.572 298.184C426.486 297.306 425.247 296.664 423.928 296.294C422.608 295.924 421.232 295.834 419.879 296.029C418.527 296.224 417.223 296.7 416.044 297.431C414.865 298.161 413.832 299.131 413.005 300.285C412.179 301.439 411.574 302.755 411.226 304.157C410.878 305.56 410.793 307.021 410.977 308.458H410.972Z" fill="#1877F2"/>
<path d="M491.481 272.883C485.744 272.711 469.399 261.169 469.399 261.169C469.399 261.169 486.334 250.64 492.071 250.807C494.799 250.93 497.373 252.189 499.235 254.313C501.096 256.436 502.097 259.253 502.019 262.154C501.942 265.054 500.793 267.806 498.821 269.814C496.849 271.822 494.212 272.924 491.481 272.883Z" fill="#1877F2"/>
<path d="M464.611 316.781C459.188 314.792 446.843 298.589 446.843 298.589C446.843 298.589 465.962 293.918 471.391 295.907C473.939 296.91 476.016 298.932 477.178 301.541C478.34 304.15 478.494 307.138 477.608 309.867C476.722 312.595 474.865 314.847 472.436 316.139C470.007 317.431 467.199 317.662 464.611 316.781Z" fill="#1877F2"/>
<path d="M432.991 355.632C427.327 354.645 412.578 340.892 412.578 340.892C412.578 340.892 430.686 332.851 436.35 333.838C439.031 334.356 441.413 335.972 442.983 338.338C444.554 340.704 445.187 343.631 444.747 346.488C444.306 349.345 442.828 351.904 440.629 353.614C438.43 355.324 435.687 356.049 432.991 355.632Z" fill="#1877F2"/>
<path d="M396.202 358.873H391.576L357.738 173.278L353.399 358.873H348.486L342.989 173.588L310.018 358.873H304.813L327.223 168.114L327.954 161.913L371.914 156.687L373.28 168.114L396.202 358.873Z" fill="#464353"/>
<path d="M302.821 119.483H274.84V137.919H302.821V119.483Z" fill="#464353"/>
<path d="M437.189 111.42L454.108 104.161H457.816C458.357 104.161 458.876 104.389 459.258 104.796C459.641 105.202 459.855 105.753 459.855 106.328V156.953C459.855 157.528 459.641 158.079 459.258 158.485C458.876 158.892 458.357 159.12 457.816 159.12H454.108L437.189 151.634V111.42Z" fill="#464353"/>
<path d="M437.19 113.725H402.596V149.328H437.19V113.725Z" fill="#464353"/>
<path d="M364.816 46.853H342.546V51.153H364.816V46.853Z" fill="#514E7F"/>
<path d="M379.821 52.4219H317.137V101.047H379.821V52.4219Z" fill="#054198"/>
<path opacity="0.1" d="M379.821 95.2895H317.137V101.052H379.821V95.2895Z" fill="#555555"/>
<path opacity="0.1" d="M403.462 113.725H402.059V149.328H403.462V113.725Z" fill="#555555"/>
<path opacity="0.1" d="M302.821 119.483H293.277V137.919H302.821V119.483Z" fill="#555555"/>
<path opacity="0.1" d="M373.28 168.114H327.224L327.954 161.913L371.914 156.687L373.28 168.114Z" fill="#555555"/>
<path d="M397.01 96.2094H299.723C296.641 96.2094 294.143 98.864 294.143 102.139V161.259C294.143 164.534 296.641 167.188 299.723 167.188H397.01C400.092 167.188 402.591 164.534 402.591 161.259V102.139C402.591 98.864 400.092 96.2094 397.01 96.2094Z" fill="#054198"/>
<path d="M436.861 111.42H437.189V151.634H436.861C436.143 151.634 435.454 151.331 434.947 150.791C434.439 150.252 434.154 149.52 434.154 148.758V114.296C434.154 113.533 434.439 112.802 434.947 112.263C435.454 111.723 436.143 111.42 436.861 111.42Z" fill="#054198"/>
<path d="M454.108 104.178H457.618C458.211 104.178 458.78 104.428 459.2 104.874C459.62 105.32 459.855 105.925 459.855 106.555V156.77C459.855 157.401 459.62 158.006 459.2 158.451C458.78 158.897 458.211 159.148 457.618 159.148H454.108V104.178Z" fill="#054198"/>
<path opacity="0.1" d="M279.831 119.483H274.84V137.919H279.831V119.483Z" fill="#555555"/>
<path d="M275.206 113.725H272.958C270.884 113.725 269.203 115.512 269.203 117.715V141.077C269.203 143.281 270.884 145.067 272.958 145.067H275.206C277.279 145.067 278.961 143.281 278.961 141.077V117.715C278.961 115.512 277.279 113.725 275.206 113.725Z" fill="#054198"/>
<path d="M317.137 85.6088C334.388 85.6088 348.372 70.7505 348.372 52.4219C348.372 34.0933 334.388 19.235 317.137 19.235C299.887 19.235 285.902 34.0933 285.902 52.4219C285.902 70.7505 299.887 85.6088 317.137 85.6088Z" fill="#464353"/>
<path d="M317.137 77.3135C330.076 77.3135 340.565 66.1692 340.565 52.4219C340.565 38.6747 330.076 27.5304 317.137 27.5304C304.199 27.5304 293.71 38.6747 293.71 52.4219C293.71 66.1692 304.199 77.3135 317.137 77.3135Z" fill="#1877F2"/>
<path d="M375.048 77.3136C387.627 77.3136 397.824 66.4793 397.824 53.1146C397.824 39.7499 387.627 28.9157 375.048 28.9157C362.47 28.9157 352.273 39.7499 352.273 53.1146C352.273 66.4793 362.47 77.3136 375.048 77.3136Z" fill="#464353"/>
<path d="M375.049 71.2624C384.482 71.2624 392.129 63.1373 392.129 53.1146C392.129 43.0918 384.482 34.9668 375.049 34.9668C365.615 34.9668 357.968 43.0918 357.968 53.1146C357.968 63.1373 365.615 71.2624 375.049 71.2624Z" fill="#1877F2"/>
<path d="M373.281 109.957C374.937 109.957 376.279 108.531 376.279 106.771C376.279 105.011 374.937 103.585 373.281 103.585C371.624 103.585 370.282 105.011 370.282 106.771C370.282 108.531 371.624 109.957 373.281 109.957Z" fill="#1877F2"/>
<path opacity="0.5" d="M382.819 109.957C384.475 109.957 385.818 108.531 385.818 106.771C385.818 105.011 384.475 103.585 382.819 103.585C381.163 103.585 379.82 105.011 379.82 106.771C379.82 108.531 381.163 109.957 382.819 109.957Z" fill="#1877F2"/>
<path d="M345.076 117.765L344.862 117.316C346.184 117.783 347.454 118.404 348.648 119.167C348.127 114.352 330.744 100.831 327.615 100.831C324.485 100.831 321.007 95.09 321.007 95.09C321.007 95.09 311.969 93.6105 310.576 92.0423C309.184 90.4741 299.796 91.3885 297.538 91.9426C295.279 92.4967 291.801 90.4631 291.801 90.4631C291.801 90.4631 289.887 87.1383 287.456 87.1383C285.026 87.1383 282.424 83.4367 282.424 83.4367C282.424 83.4367 280.155 81.2201 278.069 80.8433C275.983 80.4665 273.375 78.0727 272.155 76.2163C270.934 74.36 264.853 73.4457 261.38 73.9998C257.906 74.5539 248.513 73.2462 248.513 73.2462C252.336 71.3954 253.259 66.9512 253.259 66.9512C249.838 66.7628 240.847 58.739 240.847 58.739C240.847 58.739 241.217 61.3324 241.645 64.9508L241.066 64.1584L240.988 64.2249C240.804 61.6435 240.778 59.0521 240.909 56.4671C240.909 56.2676 240.941 56.0681 240.951 55.8631C243.178 53.7905 244.829 51.1107 245.726 48.1134C246.623 45.116 246.732 41.9152 246.041 38.8568C245.947 38.4356 245.838 38.0256 245.713 37.6211C246.378 37.9152 247.081 38.102 247.799 38.1752H248.169C248.601 38.1782 249.028 38.084 249.422 37.8987C249.817 37.7133 250.17 37.4412 250.459 37.1002C250.556 36.9689 250.642 36.8279 250.714 36.6791C250.732 36.6507 250.748 36.6211 250.761 36.5904C250.823 36.4544 250.875 36.3136 250.918 36.1693C250.932 36.1182 250.944 36.0664 250.954 36.0141C250.98 35.9008 251.001 35.7861 251.017 35.6705C251.017 35.5763 251.017 35.4766 251.017 35.3768C251.017 35.2771 251.017 35.2328 251.017 35.1607C250.995 34.3088 250.818 33.4694 250.495 32.6893C249.948 31.2596 249.16 29.8466 249.217 28.3006C249.217 28.1731 249.243 28.0512 249.259 27.9293C249.405 26.7158 250.005 25.5909 250.365 24.4217V24.3718C250.417 24.2 250.459 24.0282 250.495 23.8565C250.512 23.8057 250.526 23.7539 250.537 23.7013C250.576 23.4983 250.602 23.2929 250.615 23.0862C250.615 23.0862 250.615 23.0585 250.615 23.0419C250.751 20.7256 248.993 18.703 247.001 17.7665C245.217 16.9243 243.178 16.6971 241.546 15.55C239.684 14.2478 238.662 11.9925 237.285 10.1251C235.282 7.40983 232.148 5.3817 228.94 5.7696C226.964 6.00787 225.169 7.1106 223.203 7.53728C220.215 8.19669 217.054 7.23805 214.082 7.97504C213.36 8.10246 212.703 8.49461 212.225 9.0833C212.025 9.38041 211.896 9.72459 211.849 10.0863C211.808 10.421 211.808 10.7601 211.849 11.0948V11.1225C211.883 11.4419 211.937 11.7585 212.011 12.0701L212.058 12.264C212.058 12.3305 212.084 12.3915 212.1 12.458C212.115 12.5245 212.168 12.7184 212.199 12.8459C212.256 13.062 212.303 13.2781 212.355 13.4997V13.5773C212.402 13.8045 212.449 14.0317 212.486 14.2644C212.57 14.7442 212.626 15.2291 212.653 15.7163C212.775 17.0873 212.497 18.4652 211.855 19.6617C210.551 21.8782 207.781 22.859 206.577 25.1697C206.292 25.7273 206.115 26.3395 206.055 26.9707C206.033 27.1804 206.025 27.3914 206.029 27.6024V27.6855C206.029 27.8684 206.029 28.0512 206.076 28.2396C206.074 28.2839 206.074 28.3283 206.076 28.3726C206.103 28.537 206.138 28.6998 206.18 28.8603C206.18 28.9157 206.206 28.9655 206.222 29.0154C206.28 29.205 206.349 29.3901 206.431 29.5695C206.989 30.8053 208.042 31.8249 208.261 33.1659C208.261 33.2046 208.261 33.2434 208.287 33.2878C208.407 34.2963 208.016 35.2826 207.813 36.2745C207.786 36.3952 207.765 36.5173 207.75 36.6403C207.75 36.679 207.75 36.7178 207.75 36.7566C207.75 36.7954 207.75 36.9229 207.75 37.0115C207.75 37.1002 207.75 37.1057 207.75 37.1556C207.75 37.2055 207.75 37.3052 207.75 37.3773C207.747 37.4289 207.747 37.4807 207.75 37.5324C207.75 37.6044 207.75 37.6765 207.75 37.743C207.75 37.8095 207.75 37.8427 207.75 37.8926C207.75 37.9425 207.781 38.0311 207.802 38.0976L207.839 38.2362C207.863 38.3023 207.891 38.367 207.922 38.4301L207.98 38.552C208.018 38.6192 208.06 38.684 208.105 38.746C208.124 38.7768 208.145 38.8064 208.167 38.8346C208.238 38.9236 208.319 39.0036 208.407 39.0729C209.127 39.627 210.248 39.483 210.838 40.1812C210.904 40.2657 210.96 40.3588 211.005 40.4582L211.036 40.5247C211.079 40.6223 211.112 40.7245 211.135 40.8295C211.218 41.246 211.218 41.6764 211.135 42.0929C210.926 43.2012 210.483 44.2097 210.248 45.2958C210.201 45.5174 210.17 45.7446 210.144 45.9718C210.144 46.0771 210.144 46.1769 210.118 46.2766V46.3431C210.118 46.4373 210.118 46.537 210.118 46.6312C210.118 46.7254 210.118 46.6811 210.118 46.7088C210.118 46.8474 210.118 46.9914 210.149 47.13C210.18 47.2685 210.149 47.263 210.18 47.3239L210.212 47.4846C210.212 47.5567 210.248 47.6287 210.269 47.7007L210.316 47.8393C210.342 47.9168 210.379 47.9944 210.41 48.072C210.425 48.1082 210.443 48.1434 210.462 48.1773C210.515 48.2907 210.578 48.3983 210.65 48.4987C211.281 49.4075 212.319 49.7122 213.414 49.7178C214.035 49.714 214.654 49.6397 215.26 49.4961C215.396 49.8341 215.537 50.1722 215.688 50.4991C216.444 52.1166 217.435 53.5976 218.624 54.8878C218.624 55.0596 218.593 55.2258 218.572 55.4031C218.452 56.6666 218.306 58.0242 218.139 59.3929C216.788 58.7335 215.745 58.4786 215.333 58.9551C213.586 60.9943 215.333 68.0318 215.333 68.0318C215.333 68.0318 206.806 68.0318 204.72 70.0655C202.634 72.0991 198.811 70.0655 198.811 70.0655C198.811 70.0655 190.988 70.9964 191.51 72.6644C192.031 74.3323 187.337 72.6644 187.337 72.6644C187.337 72.6644 184.031 73.0356 184.208 75.435C184.385 77.8344 179.165 78.9482 179.858 80.6161C180.552 82.2841 176.729 83.3868 176.729 83.3868C176.729 83.3868 172.906 83.2039 174.299 85.6033C174.299 85.6033 172.213 90.79 170.476 91.1446C168.739 91.4993 166.476 95.7716 166.476 95.7716C166.476 95.7716 159.779 97.0683 160.082 99.2904C160.384 101.512 149.787 117.41 149.787 117.41C149.787 117.41 146.308 125.03 148.744 130.588C151.179 136.146 152.916 139.847 153.437 141.881C153.959 143.915 160.28 152.869 160.228 154.537C160.228 155.058 161.792 157.862 163.926 161.42L163.3 162.107L161.928 163.608C161.928 163.608 157.578 175.09 162.794 175.644C167.201 176.11 170.366 176.448 171.973 175.982C172.233 175.918 172.481 175.803 172.703 175.644L172.766 175.594C174.664 178.57 176.009 180.648 176.009 180.648C176.009 180.648 176.197 180.354 176.531 179.85L177.053 180.642C177.053 180.642 177.47 180.011 178.179 178.98C177.95 184.017 177.918 188.982 177.918 188.982C177.918 188.982 180.182 188.611 179.139 199.721C178.096 210.831 185.397 219.903 185.397 219.903V236.388C185.397 236.388 185.397 236.804 185.47 237.496C185.663 239.862 186.299 245.443 188.177 249.133C190.612 253.943 188.177 266.538 188.177 266.538C188.177 266.538 188.015 276.812 188.599 289.623C188.599 289.973 188.636 290.333 188.652 290.687C178.106 300.052 166.794 312.465 166.794 312.465C167.348 312.629 167.875 312.882 168.359 313.213L167.727 314.072L164.854 317.834L162.632 320.749L166.152 332.269L169.996 330.674C169.996 330.674 172.082 334.514 171.644 337.118C171.578 337.589 171.398 338.034 171.123 338.409C170.99 338.598 170.897 338.816 170.851 339.046C169.845 343.219 174.043 361.212 180.703 361.993C180.703 361.993 182.962 362.785 183.686 360.624C184.036 359.583 184.031 357.854 183.248 355.044C183.248 355.044 179.728 350.534 182.007 345.674C183.342 342.831 185.548 339.024 187.144 336.337L187.801 335.228C189.236 337.151 190.117 338.387 190.117 338.387L195.238 332.535C195.348 332.785 195.458 333.029 195.572 333.261C195.956 334.076 196.398 334.858 196.897 335.6L200.37 350.234L201.773 349.902C201.742 350.257 201.721 350.633 201.7 351.01C201.586 353.637 201.7 357.045 202.842 359.477C203.698 361.339 205.142 362.636 207.5 362.575C215.584 362.364 217.931 357.715 217.931 357.715V346.078L220.71 345.419C220.71 345.419 220.507 319.851 219.792 305.594C219.792 305.278 219.761 304.973 219.745 304.674C219.745 304.629 219.745 304.585 219.745 304.546L237.598 284.149L238.969 283.567C250.443 278.751 250.62 266.344 250.62 266.344C250.62 266.344 250.62 259.495 252.008 253.755C253.395 248.014 252.185 218.196 249.577 210.793C246.97 203.389 246.099 195.044 246.099 195.044C246.099 195.044 248.706 191.165 246.099 187.935C245.362 186.968 244.748 185.902 244.273 184.765L247.668 184.172L249.624 183.829L250.667 183.64C250.146 188.539 250.057 192.301 251.293 193.199C255.121 195.97 267.982 186.716 267.982 186.716C263.288 186.716 260.681 149.495 261.635 148.569C262.59 147.644 264.013 128.992 262.767 125.667C261.52 122.342 267.143 107.497 267.143 107.497L268.008 106.134C268.008 106.134 288.526 115.648 290.784 117.471C293.042 119.295 300.171 113.038 301.387 115.46C302.602 117.881 310.253 121.489 310.253 121.489C310.253 121.489 321.554 120.275 322.77 123.24C323.985 126.205 331.291 133.148 331.291 133.148C331.295 131.52 331.388 129.894 331.568 128.277C331.719 128.659 331.865 129.047 332.022 129.441C335.485 138.146 341.248 149.168 346.588 143.239C352.638 136.5 348.033 124.043 345.076 117.765ZM190.446 157.108V157.214L190.404 157.169L190.446 157.108ZM186.398 114.396L184.187 139.171L179.843 143.953L179.321 144.541L174.831 139.349C174.831 139.349 172.567 138.24 174.831 136.201C177.094 134.162 171.008 129.551 171.008 129.551C171.008 129.551 170.831 126.227 173.094 125.296C175.358 124.365 178.309 118.258 178.309 118.258L186.482 113.825L186.398 114.396ZM215.479 241.203C215.638 241.047 215.813 240.912 216.001 240.799C216.976 240.212 217.602 240.854 217.925 241.985C218.351 243.879 218.222 245.867 217.555 247.681C216.34 250.646 219.297 262.499 219.297 262.499C219.297 262.499 215.469 264.344 214.775 267.868C214.672 268.301 214.495 268.711 214.254 269.076C214.207 268.766 214.165 268.467 214.123 268.179C213.784 265.962 213.602 264.532 213.602 264.532C212.978 261.681 212.86 258.73 213.252 255.833C213.805 252.269 214.921 245.033 215.338 242.29C215.443 241.625 215.5 241.226 215.505 241.181L215.479 241.203Z" fill="url(#paint0_linear_99_73)"/>
<path d="M239.72 60.7893L240.847 59.9914L244.023 67.112L242.803 68.6358H239.11C239.11 68.6358 239.24 64.7569 239.329 64.6184C239.418 64.4799 239.72 60.7893 239.72 60.7893Z" fill="#464353"/>
<path d="M217.915 343.036V358.275C217.915 358.275 215.568 362.913 207.484 363.123C206.503 363.185 205.527 362.921 204.693 362.368C203.859 361.815 203.207 361.001 202.827 360.037C201.701 357.61 201.57 354.207 201.685 351.586C201.742 350.275 201.873 348.969 202.076 347.674L217.915 343.036Z" fill="#3F3D56"/>
<path opacity="0.1" d="M217.915 343.036V347.752L201.685 351.586C201.742 350.275 201.873 348.969 202.076 347.674L217.915 343.036Z" fill="#555555"/>
<path d="M220.695 345.99L200.355 350.794L196.881 336.198C196.384 335.458 195.941 334.678 195.557 333.865C195.333 333.4 195.113 332.907 194.905 332.391C191.119 323.187 189.434 306.585 188.714 292.461C188.678 291.746 188.641 291.037 188.61 290.338C188.026 277.56 188.187 267.309 188.187 267.309C188.187 267.309 190.623 254.746 188.187 249.948C186.31 246.246 185.674 240.683 185.481 238.311C185.429 237.607 185.408 237.203 185.408 237.203L185.783 236.155L187.317 231.844H204.183L213.988 240.66L215.479 242.001L215.313 243.11C214.89 245.847 213.774 253.084 213.226 256.619C212.834 259.51 212.952 262.453 213.576 265.297C213.576 265.297 213.779 266.705 214.097 268.938C214.176 269.492 214.264 270.079 214.363 270.717C215.61 278.907 217.946 293.863 218.942 297.437C219.219 298.418 219.464 300.878 219.647 304.208C219.688 304.873 219.725 305.566 219.761 306.292C220.491 320.489 220.695 345.99 220.695 345.99Z" fill="#054198"/>
<path opacity="0.1" d="M217.915 358.12V358.275C217.915 358.275 215.568 362.913 207.484 363.123C206.503 363.185 205.527 362.921 204.693 362.368C203.859 361.815 203.207 361.001 202.827 360.037C206.452 360.984 212.334 361.594 217.915 358.12Z" fill="#555555"/>
<path d="M346.562 144.286C341.201 150.198 335.464 139.205 331.996 130.521C330.05 125.634 328.83 121.472 328.83 121.472L343.099 115.055C343.099 115.055 343.975 116.535 345.076 118.879C348.033 125.141 352.638 137.564 346.562 144.286Z" fill="#D8A5AC"/>
<path d="M240.925 57.7249C240.696 63.2105 241.083 68.7055 242.078 74.0939C242.078 74.0939 213.049 77.4187 215.657 72.6199C217.185 69.805 218.176 62.3741 218.729 56.6942C219.13 52.6712 219.307 49.5293 219.307 49.5293C219.307 49.5293 247.121 37.7097 242.949 47.684C241.702 50.6597 241.123 54.184 240.925 57.7249Z" fill="#D8A5AC"/>
<path d="M243.377 137.082L239.476 186.583L257.38 183.446L254.251 142.623L255.294 131.724L243.377 137.082Z" fill="#464353"/>
<path opacity="0.1" d="M257.38 183.524L249.604 184.887L239.47 186.66L240.185 177.628L243.377 137.16L247.439 135.331L250.318 134.04L255.294 131.801L254.251 142.701L257.38 183.524Z" fill="#555555"/>
<path d="M181.991 346.211C179.712 351.06 183.233 355.56 183.233 355.56C184.015 358.369 184.02 360.087 183.671 361.101C182.946 363.256 180.688 362.464 180.688 362.464C173.584 361.633 169.282 341.274 171.107 338.941C172.932 336.608 169.996 331.25 169.996 331.25L166.152 332.84L162.632 321.348L164.854 318.438L167.727 314.681L169.673 312.132L189.1 333.671C189.1 333.671 188.271 334.996 187.129 336.896C185.533 339.562 183.327 343.385 181.991 346.211Z" fill="#3F3D56"/>
<path opacity="0.1" d="M219.777 306.264L195.557 333.865C191.311 325.055 189.486 307.378 188.714 292.455C193.225 288.465 197.58 285.03 200.876 283.373C200.876 283.373 212.027 274.8 214.379 270.689C215.625 278.879 217.962 293.835 218.958 297.409C219.287 298.584 219.558 301.881 219.777 306.264Z" fill="#555555"/>
<path opacity="0.1" d="M213.988 240.655L185.783 236.15L187.317 231.839H204.183L213.988 240.655Z" fill="#555555"/>
<path opacity="0.1" d="M219.683 304.181L194.926 332.391C191.118 323.187 189.434 306.585 188.714 292.461C188.678 291.746 188.641 291.037 188.61 290.338C193.163 286.304 197.57 282.835 200.876 281.162C200.876 281.162 211.281 273.166 214.113 268.916C214.191 269.47 214.28 270.057 214.379 270.694C215.625 278.884 217.962 293.84 218.958 297.415C219.234 298.39 219.464 300.85 219.683 304.181Z" fill="#555555"/>
<path opacity="0.1" d="M189.1 333.682C189.1 333.682 188.271 335.007 187.129 336.907C182.982 331.338 173.152 318.516 167.728 314.692L169.673 312.143L189.1 333.682Z" fill="#555555"/>
<path d="M251.987 254.552C250.6 260.282 250.6 267.115 250.6 267.115C250.6 267.115 250.422 279.488 238.948 284.293L237.577 284.847L190.117 338.947C190.117 338.947 172.557 314.565 166.82 313.085C166.82 313.085 189.94 287.778 200.892 282.237C200.892 282.237 214.108 272.08 214.801 268.572C215.495 265.064 219.323 263.214 219.323 263.214C219.323 263.214 216.366 251.394 217.581 248.435C218.248 246.626 218.378 244.644 217.951 242.755C217.628 241.647 217.002 240.987 216.027 241.569C215.839 241.682 215.664 241.818 215.505 241.974L185.434 237.169V220.75C185.434 220.75 178.132 211.701 179.175 200.619C180.218 189.536 177.955 189.907 177.955 189.907C177.955 189.907 178.064 171.189 179.551 169.626C181.037 168.064 195.317 160.904 195.317 160.904L240.085 169.355L241.932 178.454C241.932 178.454 243.496 185.691 246.104 188.904C248.712 192.118 246.104 195.992 246.104 195.992C246.104 195.992 246.975 204.304 249.583 211.701C252.19 219.099 253.379 248.828 251.987 254.552Z" fill="#054198"/>
<path opacity="0.1" d="M242.949 47.684C241.702 50.6597 241.123 54.2062 240.925 57.7249C237.802 60.5992 233.762 62.094 229.634 61.9023C225.506 61.7106 221.604 59.847 218.729 56.6942C219.13 52.6712 219.308 49.5293 219.308 49.5293C219.308 49.5293 247.121 37.7097 242.949 47.684Z" fill="#555555"/>
<path d="M246.505 44.2097C246.503 48.5897 244.926 52.8033 242.097 55.9889C239.267 59.1746 235.4 61.0915 231.284 61.3479C227.169 61.6043 223.117 60.1808 219.957 57.3683C216.796 54.5559 214.766 50.567 214.282 46.2173C213.798 41.8676 214.896 37.4856 217.351 33.9674C219.807 30.4491 223.434 28.0603 227.492 27.2894C231.55 26.5185 235.732 27.4237 239.183 29.82C242.634 32.2163 245.093 35.9226 246.057 40.1812C246.356 41.5005 246.506 42.8527 246.505 44.2097Z" fill="#D8A5AC"/>
<path opacity="0.1" d="M233.389 74.094C233.389 74.094 221.769 68.3698 221.044 67.6273C220.319 66.8848 196.214 132.649 196.214 132.649L189.434 165.343C189.434 165.343 225.592 181.778 233.415 179.562C241.238 177.345 241.932 179.562 241.932 179.562C241.932 179.562 249.932 131.907 252.54 127.662C255.148 123.417 250.104 80.1895 250.104 80.1895L241.066 67.6218L233.389 74.094Z" fill="#555555"/>
<path opacity="0.1" d="M233.389 71.8774C233.389 71.8774 221.769 66.1533 221.044 65.4107C220.319 64.6682 196.214 130.433 196.214 130.433L189.434 163.126C189.434 163.126 225.592 179.562 233.415 177.345C241.238 175.129 241.932 177.345 241.932 177.345C241.932 177.345 249.932 129.69 252.54 125.445C255.148 121.201 250.104 77.9729 250.104 77.9729L241.066 65.4052L233.389 71.8774Z" fill="#555555"/>
<path d="M252.508 126.554C251.987 127.435 251.199 130.172 250.318 133.962C249.702 136.6 249.035 139.742 248.352 143.122C245.275 158.377 241.906 178.459 241.906 178.459C241.906 178.459 241.692 177.783 240.184 177.55C238.964 177.362 236.888 177.467 233.405 178.459C225.581 180.676 189.418 164.235 189.418 164.235L190.461 159.247L196.198 131.541C196.198 131.541 220.366 65.782 221.06 66.5245C221.482 66.9734 225.999 69.2952 229.441 71.0185C231.637 72.1268 233.405 72.9857 233.405 72.9857L240.706 66.857L241.108 66.519L250.104 79.0811C250.104 79.0811 255.116 122.303 252.508 126.554Z" fill="#1877F2"/>
<path opacity="0.1" d="M224.867 79.4525C225.91 83.7138 223.48 90.718 223.48 90.718C223.48 90.718 215.135 112.518 212.7 122.592C210.264 132.666 196.334 152.969 196.334 152.969C196.334 152.969 194.289 155.147 191.426 158.178C191.108 158.516 190.774 158.865 190.44 159.231L196.177 131.524C196.177 131.524 220.345 65.7655 221.039 66.508C221.461 66.9569 225.978 69.2787 229.42 71.002C227.266 73.0856 224.173 76.632 224.867 79.4525Z" fill="#555555"/>
<path d="M223.824 79.4525C224.867 83.7137 222.437 90.7179 222.437 90.7179C222.437 90.7179 214.092 112.517 211.657 122.592C209.221 132.666 195.291 152.969 195.291 152.969C195.291 152.969 193.246 155.147 190.383 158.178C190.044 158.538 189.69 158.909 189.34 159.286C183.749 165.199 175.89 173.489 173.433 175.91C173.073 176.27 172.828 176.503 172.724 176.581C172.502 176.74 172.255 176.854 171.994 176.919C170.388 177.384 167.222 177.046 162.815 176.581C157.6 176.026 161.949 164.578 161.949 164.578L163.321 163.076L164.572 161.702L178.779 146.17L179.822 145.001L184.167 140.241L186.378 115.526L186.43 114.933C186.43 114.933 185.783 113.365 184.787 110.971C182.133 104.494 176.917 91.9924 175.008 87.9528C174.789 87.4818 174.617 87.1327 174.487 86.9166C174.487 86.8889 174.461 86.8612 174.445 86.839C173.053 84.4396 176.875 84.6225 176.875 84.6225C176.875 84.6225 180.704 83.5142 180.005 81.8518C179.306 80.1894 184.526 79.0812 184.354 76.6818C184.182 74.2824 187.483 73.9111 187.483 73.9111C187.483 73.9111 192.177 75.5735 191.656 73.9111C191.134 72.2487 198.957 71.3233 198.957 71.3233C198.957 71.3233 202.78 73.357 204.866 71.3233C206.952 69.2897 215.511 69.2952 215.511 69.2952C215.511 69.2952 213.764 62.2744 215.511 60.2407C217.258 58.207 230.359 69.2952 230.359 69.2952C230.359 69.2952 222.781 75.1967 223.824 79.4525Z" fill="#464353"/>
<path opacity="0.1" d="M180.365 174.021C180.365 174.021 194.795 195.632 204.877 188.616C214.958 181.601 191.317 163.309 191.317 163.309L180.365 174.021Z" fill="#555555"/>
<path d="M180.365 172.912C180.365 172.912 194.795 194.523 204.877 187.508C214.958 180.493 191.317 162.201 191.317 162.201L180.365 172.912Z" fill="#D8A5AC"/>
<path opacity="0.1" d="M249.603 184.81C250.704 174.608 253.895 159.281 251.293 154.631C250.005 152.326 249.05 147.932 248.351 143.122C247.976 140.534 247.679 137.825 247.439 135.254C246.803 128.432 246.599 122.592 246.599 122.592C246.599 122.592 240.341 92.9345 241.556 86.839C242.317 83.0266 241.441 73.4734 240.68 66.8571L241.081 66.519L250.078 79.0812C250.078 79.0812 255.116 122.303 252.508 126.554C251.987 127.435 251.199 130.172 250.318 133.962L255.293 131.746L254.25 142.646L257.379 183.468L249.603 184.81Z" fill="#555555"/>
<path d="M240.847 59.9914C240.847 59.9914 249.838 67.9986 253.259 68.1815C253.259 68.1815 252.336 72.6145 248.514 74.4653C248.514 74.4653 257.901 75.7841 261.38 75.2134C264.858 74.6426 270.94 75.5736 272.155 77.4299C273.37 79.2863 276.009 81.669 278.095 82.0348C280.181 82.4005 282.45 84.6225 282.45 84.6225L267.143 108.633C267.143 108.633 261.578 123.412 262.793 126.737C264.008 130.061 262.616 148.719 261.661 149.639C260.707 150.559 263.315 187.691 268.008 187.691C268.008 187.691 255.147 196.928 251.319 194.158C247.491 191.387 256.191 161.464 252.362 154.626C248.534 147.788 247.669 122.586 247.669 122.586C247.669 122.586 241.41 92.9345 242.631 86.8391C243.851 80.7436 240.847 59.9914 240.847 59.9914Z" fill="#464353"/>
<path opacity="0.1" d="M345.076 118.879C340.429 117.338 333.31 117.294 331.996 130.516C330.05 125.628 328.83 121.467 328.83 121.467L343.099 115.05C343.099 115.05 343.975 116.535 345.076 118.879Z" fill="#555555"/>
<path d="M273.922 83.5142L282.45 84.6225C282.45 84.6225 285.057 88.3185 287.482 88.3185C289.908 88.3185 291.827 91.6433 291.827 91.6433C291.827 91.6433 295.305 93.6715 297.564 93.1173C299.822 92.5632 309.21 91.6489 310.602 93.2171C311.995 94.7853 321.033 96.2592 321.033 96.2592C321.033 96.2592 324.511 101.983 327.641 101.983C330.77 101.983 348.153 115.471 348.674 120.27C348.674 120.27 331.463 108.633 331.291 134.217C331.291 134.217 323.99 127.291 322.769 124.337C321.549 121.384 310.253 122.586 310.253 122.586C310.253 122.586 302.607 118.979 301.386 116.579C300.166 114.18 293.042 120.403 290.784 118.58C288.525 116.757 268.008 107.27 268.008 107.27L261.661 94.5969L273.922 83.5142Z" fill="#464353"/>
<path d="M234.604 105.957C235.419 105.957 236.08 105.255 236.08 104.388C236.08 103.522 235.419 102.82 234.604 102.82C233.789 102.82 233.128 103.522 233.128 104.388C233.128 105.255 233.789 105.957 234.604 105.957Z" fill="#3F3D56"/>
<path d="M233.128 138.7C233.943 138.7 234.604 137.998 234.604 137.132C234.604 136.266 233.943 135.564 233.128 135.564C232.313 135.564 231.652 136.266 231.652 137.132C231.652 137.998 232.313 138.7 233.128 138.7Z" fill="#3F3D56"/>
<path d="M234.604 121.467C235.419 121.467 236.08 120.765 236.08 119.899C236.08 119.032 235.419 118.33 234.604 118.33C233.789 118.33 233.128 119.032 233.128 119.899C233.128 120.765 233.789 121.467 234.604 121.467Z" fill="#3F3D56"/>
<path d="M230.343 155.934C231.158 155.934 231.819 155.232 231.819 154.365C231.819 153.499 231.158 152.797 230.343 152.797C229.528 152.797 228.867 153.499 228.867 154.365C228.867 155.232 229.528 155.934 230.343 155.934Z" fill="#3F3D56"/>
<path opacity="0.1" d="M183.697 361.129C182.972 363.284 180.714 362.492 180.714 362.492C173.61 361.66 169.308 341.302 171.133 338.969C172.958 336.636 169.996 331.25 169.996 331.25L166.152 332.84L162.632 321.347L164.854 318.438C167.065 322.511 170.231 328.368 170.977 329.864C172.393 332.967 173.065 336.394 172.932 339.839C172.812 343.441 176.745 360.663 183.697 361.129Z" fill="#555555"/>
<path opacity="0.1" d="M246.057 40.159C245.702 40.0315 245.347 39.8819 245.014 39.7323C243.819 39.2169 242.562 38.624 241.837 37.5158C241.175 36.4851 240.961 35.0333 239.929 34.4459C238.74 33.7698 237.321 34.6841 236.033 35C234.499 35.3824 232.904 34.928 231.412 34.3461C229.19 33.4761 226.087 31.8747 223.808 33.5315C222.035 34.8171 222.723 37.5435 222.269 39.4885C221.565 42.5085 218.546 44.4756 217.977 47.5289C217.722 48.8755 217.889 50.5212 216.861 51.358C216.561 51.5851 216.22 51.7436 215.86 51.8234C214.853 49.6569 214.287 47.289 214.2 44.8745C214.113 42.4599 214.507 40.053 215.355 37.811C216.203 35.569 217.487 33.5423 219.122 31.8634C220.758 30.1844 222.708 28.8909 224.846 28.0674C226.984 27.2439 229.262 26.9089 231.53 27.0844C233.798 27.2598 236.006 27.9416 238.009 29.0854C240.012 30.2292 241.766 31.8091 243.155 33.722C244.545 35.635 245.539 37.8378 246.072 40.1867L246.057 40.159Z" fill="#555555"/>
<path d="M231.402 33.2212C232.878 33.8031 234.484 34.2575 236.023 33.8696C237.332 33.5426 238.724 32.6283 239.913 33.3154C240.956 33.9084 241.165 35.3547 241.822 36.3853C242.547 37.4936 243.804 38.1142 245.003 38.6019C245.898 39.045 246.854 39.3295 247.835 39.4441C248.326 39.4952 248.822 39.4252 249.283 39.2397C249.744 39.0543 250.159 38.7582 250.495 38.3747C251.423 37.1833 251.142 35.399 250.589 33.9749C250.036 32.5507 249.254 31.1322 249.311 29.5917C249.379 27.7631 250.626 26.1727 250.73 24.3496C250.865 22.0389 249.108 20.0218 247.116 19.0854C245.332 18.2486 243.293 18.0159 241.66 16.8688C239.798 15.5722 238.776 13.3224 237.399 11.4605C235.397 8.7508 232.262 6.72822 229.055 7.11611C227.078 7.35439 225.284 8.45157 223.318 8.87826C220.33 9.53767 217.169 8.57902 214.196 9.31602C213.478 9.43608 212.822 9.81814 212.34 10.3966C211.609 11.4383 211.985 12.8957 212.308 14.148C212.887 16.4034 213.132 18.9579 211.98 20.9417C210.676 23.1859 207.907 24.1335 206.702 26.4387C206.353 27.1149 206.161 27.8693 206.14 28.6399C206.119 29.4105 206.271 30.1753 206.582 30.8717C207.156 32.1462 208.266 33.1825 208.439 34.5844C208.558 35.5929 208.167 36.5737 207.964 37.5601C207.761 38.5464 207.818 39.7766 208.585 40.3308C209.351 40.8849 210.426 40.7464 211.015 41.439C211.193 41.7141 211.311 42.0284 211.358 42.3585C211.406 42.6886 211.383 43.0259 211.291 43.3452C211.083 44.4535 210.639 45.4565 210.405 46.5426C210.254 47.0753 210.212 47.6359 210.281 48.1872C210.351 48.7385 210.53 49.2678 210.806 49.7399C211.818 51.1917 213.862 51.1031 215.5 50.7152C215.973 50.6353 216.423 50.4461 216.82 50.161C217.863 49.3243 217.68 47.6785 217.936 46.332C218.504 43.2843 221.524 41.306 222.228 38.2916C222.682 36.3466 221.993 33.6147 223.766 32.3291C226.072 30.7498 229.18 32.3513 231.402 33.2212Z" fill="#464353"/>
<path opacity="0.1" d="M228.867 233.684C228.867 233.684 245.238 244.766 245.76 249.017L228.867 233.684Z" fill="#555555"/>
<path opacity="0.1" d="M228.028 242.55C228.028 242.55 246.803 252.153 245.76 255.478L228.028 242.55Z" fill="#555555"/>
<path opacity="0.1" d="M226.781 251.045C226.781 251.045 237.389 256.957 238.083 260.465L226.781 251.045Z" fill="#555555"/>
<path opacity="0.1" d="M231.303 264.344C231.303 264.344 238.255 270.811 239.647 269.148C241.04 267.486 231.303 264.344 231.303 264.344Z" fill="#555555"/>
<path opacity="0.1" d="M221.566 268.411C221.566 268.411 226.984 277.643 224.377 278.197C221.769 278.751 221.566 268.411 221.566 268.411Z" fill="#555555"/>
<path opacity="0.1" d="M197.778 104.388C197.778 104.388 188.563 110.295 191.343 111.775C194.122 113.254 197.778 104.388 197.778 104.388Z" fill="#555555"/>
<path opacity="0.1" d="M197.778 82.5889C197.778 82.5889 188.391 100.875 192.735 99.5841C197.079 98.2929 197.778 82.5889 197.778 82.5889Z" fill="#555555"/>
<path opacity="0.1" d="M297.538 100.875C297.538 100.875 291.801 108.046 292.844 111.958L297.538 100.875Z" fill="#555555"/>
<path opacity="0.1" d="M312.516 104.388C312.516 104.388 303.906 112.512 305.168 113.437L312.516 104.388Z" fill="#555555"/>
<path opacity="0.1" d="M317.878 114.368C317.878 114.368 317.007 119.71 318.399 119.91L317.878 114.368Z" fill="#555555"/>
<path opacity="0.05" d="M223.912 227.073C221.696 230.121 221.696 235.524 220.695 237.74C220.147 238.959 218.927 241.065 217.936 242.772C217.612 241.663 216.986 241.004 216.011 241.586C215.37 236.504 214.238 227.732 213.873 225.965C213.351 223.471 219.088 216.822 219.088 216.822C219.088 216.822 224.695 218.068 226.129 221.116C227.563 224.164 226.129 224.031 223.912 227.073Z" fill="#555555"/>
<path opacity="0.1" d="M194.968 162.943C188.709 163.863 177.063 181.595 177.063 181.595C177.063 181.595 175.535 179.235 173.412 175.938C170.742 171.754 167.154 166.052 164.546 161.73L179.827 144.984L182.607 148.165C182.607 148.165 188 153.889 188 154.997C188 155.429 189.043 156.743 190.368 158.178C192.396 160.411 194.968 162.943 194.968 162.943Z" fill="#555555"/>
<path opacity="0.1" d="M175.008 87.9527C174.789 87.4817 174.617 87.1326 174.487 86.9165L181.225 87.393L184.798 110.955C182.133 104.494 176.917 91.9923 175.008 87.9527Z" fill="#555555"/>
<path opacity="0.1" d="M189.33 159.303C183.739 165.215 175.879 173.505 173.423 175.927C173.063 176.287 172.818 176.52 172.714 176.597C172.492 176.756 172.244 176.871 171.983 176.935C169.527 173.101 166.022 167.576 163.31 163.082L164.562 161.708L178.779 146.17L180.537 148.181C180.537 148.181 185.929 153.905 185.929 155.014C185.929 155.546 187.614 157.474 189.33 159.303Z" fill="#555555"/>
<path d="M182.278 87.3931L174.455 86.839C174.455 86.839 172.369 92.009 170.632 92.3803C168.895 92.7515 166.632 96.9962 166.632 96.9962C166.632 96.9962 159.935 98.2929 160.228 100.509C160.52 102.726 149.932 118.58 149.932 118.58C149.932 118.58 146.454 126.182 148.889 131.724C151.325 137.265 153.062 140.961 153.583 142.989C154.105 145.017 160.28 153.889 160.228 155.551C160.175 157.214 176.009 181.595 176.009 181.595C176.009 181.595 187.655 163.863 193.914 162.938C193.914 162.938 186.961 156.105 186.961 154.997C186.961 153.889 181.61 148.165 181.61 148.165L174.831 140.407C174.831 140.407 172.567 139.299 174.831 137.265C177.094 135.231 171.008 130.615 171.008 130.615C171.008 130.615 170.83 127.291 173.094 126.365C175.357 125.44 178.309 119.35 178.309 119.35L186.482 114.917L182.278 87.3931Z" fill="#464353"/>
<path opacity="0.1" d="M152.405 124.149C152.405 124.149 161.792 122.121 161.965 123.412C162.137 124.703 152.405 124.149 152.405 124.149Z" fill="#555555"/>
<path opacity="0.1" d="M160.228 134.217C160.228 134.217 168.186 135.325 167.837 137.132C167.488 138.938 160.228 134.217 160.228 134.217Z" fill="#555555"/>
<path opacity="0.1" d="M166.804 102.815C166.804 102.815 174.455 114.324 175.498 111.941L166.804 102.815Z" fill="#555555"/>
<g opacity="0.1">
<path opacity="0.1" d="M212.778 17.0573C212.825 15.7146 212.666 14.3728 212.308 13.0841C212.158 12.5391 212.043 11.9837 211.964 11.4218C211.897 12.3607 212.015 13.3041 212.308 14.1924C212.556 15.1279 212.713 16.0878 212.778 17.0573Z" fill="#555555"/>
<path opacity="0.1" d="M249.353 29.2481C249.556 27.5857 250.631 26.0729 250.73 24.3717C250.746 24.0887 250.735 23.8048 250.699 23.5239C250.495 25.2417 249.374 26.7656 249.311 28.5111C249.304 28.7576 249.318 29.0042 249.353 29.2481Z" fill="#555555"/>
<path opacity="0.1" d="M250.495 37.283C250.159 37.6666 249.744 37.9626 249.283 38.1481C248.822 38.3336 248.326 38.4035 247.835 38.3525C246.854 38.2379 245.898 37.9534 245.003 37.5102C243.804 36.9949 242.547 36.402 241.822 35.2937C241.16 34.263 240.946 32.8167 239.913 32.2238C238.724 31.5478 237.306 32.4621 236.017 32.7779C234.484 33.1658 232.888 32.7115 231.402 32.1296C229.18 31.2596 226.072 29.6582 223.793 31.3095C222.019 32.5951 222.708 35.327 222.254 37.272C221.55 40.2864 218.53 42.2591 217.962 45.3124C217.706 46.6589 217.873 48.3047 216.846 49.1414C216.448 49.4274 215.996 49.6167 215.521 49.6956C213.863 50.0835 211.818 50.1721 210.827 48.7203C210.541 48.3054 210.361 47.8184 210.306 47.3073C210.171 48.1876 210.358 49.0894 210.827 49.8286C211.839 51.2804 213.883 51.1917 215.521 50.8038C215.996 50.7249 216.448 50.5357 216.846 50.2497C217.889 49.413 217.706 47.7672 217.962 46.4207C218.53 43.3729 221.55 41.3947 222.254 38.3802C222.708 36.4352 222.019 33.7034 223.793 32.4178C226.072 30.7554 229.18 32.3679 231.402 33.2379C232.878 33.8197 234.484 34.2741 236.017 33.8862C237.332 33.5593 238.724 32.645 239.913 33.3321C240.956 33.925 241.16 35.3713 241.822 36.402C242.547 37.5102 243.804 38.1309 245.003 38.6185C245.898 39.0616 246.854 39.3462 247.835 39.4608C248.326 39.5118 248.822 39.4419 249.283 39.2564C249.744 39.0709 250.159 38.7749 250.495 38.3913C250.748 38.0311 250.929 37.6194 251.026 37.1818C251.123 36.7443 251.134 36.2902 251.058 35.8478C251.003 36.3736 250.808 36.8716 250.495 37.283Z" fill="#555555"/>
<path opacity="0.1" d="M208.439 33.4983C208.267 32.0964 207.156 31.0601 206.582 29.7856C206.366 29.3057 206.229 28.7905 206.175 28.2618C206.075 29.1623 206.216 30.0746 206.582 30.8939C207.14 32.1296 208.194 33.1492 208.413 34.4847C208.466 34.1589 208.474 33.8267 208.439 33.4983Z" fill="#555555"/>
<path opacity="0.1" d="M211.338 42.1538C211.412 41.8558 211.424 41.544 211.373 41.2404C211.322 40.9369 211.208 40.649 211.041 40.3972C210.451 39.6824 209.33 39.8431 208.61 39.289C208.419 39.1286 208.261 38.9294 208.143 38.7029C208.026 38.4764 207.952 38.2273 207.927 37.9702C207.812 38.8734 207.927 39.8708 208.61 40.3972C209.293 40.9237 210.451 40.8128 211.041 41.5055C211.187 41.693 211.289 41.9154 211.338 42.1538Z" fill="#555555"/>
</g>
<path d="M87.5361 329.15C87.5361 329.15 65.9654 327.764 68.5053 343.829C68.5053 343.829 67.9837 346.666 70.4245 347.957C70.4245 347.957 70.461 346.766 72.6358 347.17C73.4093 347.307 74.1954 347.346 74.9775 347.286C76.036 347.21 77.0425 346.77 77.846 346.034C77.846 346.034 83.9114 343.369 86.2688 332.84C86.2688 332.84 88.0107 330.541 87.9429 329.953L84.2921 331.616C84.2921 331.616 85.5386 334.386 84.5581 336.725C84.5581 336.725 84.4382 331.738 83.7393 331.832C83.5985 331.859 81.8461 332.801 81.8461 332.801C81.8461 332.801 83.9897 337.661 82.3677 341.197C82.3677 341.197 82.9831 335.206 81.1734 333.151L78.6126 334.741C78.6126 334.741 81.116 339.761 79.4158 343.862C79.4158 343.862 79.8539 337.578 78.0754 335.129L75.7494 337.052C75.7494 337.052 78.1015 342 76.6673 345.402C76.6673 345.402 76.4795 338.082 75.2487 337.534C75.2487 337.534 73.2147 339.434 72.907 340.216C72.907 340.216 74.5134 343.812 73.5172 345.707C73.5172 345.707 72.907 340.831 72.4011 340.809C72.4011 340.809 70.3776 344.039 70.169 346.25C70.169 346.25 70.2576 342.959 71.9109 340.498C70.7442 340.736 69.6678 341.329 68.813 342.205C68.813 342.205 69.1259 339.922 72.4116 339.723C72.4116 339.723 74.0857 337.273 74.5342 337.124C74.5342 337.124 71.2642 336.836 69.2876 337.766C69.2876 337.766 71.0295 335.616 75.1288 336.592L77.4235 334.602C77.4235 334.602 73.1261 333.982 71.3007 334.669C71.3007 334.669 73.3868 332.763 78.0441 334.154L80.5371 332.569C80.5371 332.569 76.8863 331.726 74.6855 332.015C74.6855 332.015 76.9906 330.696 81.2672 332.125L83.0561 331.272C83.0561 331.272 80.3702 330.718 79.5827 330.624C78.7952 330.53 78.7534 330.302 78.7534 330.302C80.4543 330.003 82.1998 330.211 83.7967 330.901C83.7967 330.901 87.6039 329.399 87.5361 329.15Z" fill="#1877F2"/>
<path opacity="0.1" d="M72.6778 352.102C81.1115 352.102 87.9483 350.874 87.9483 349.359C87.9483 347.844 81.1115 346.616 72.6778 346.616C64.2441 346.616 57.4072 347.844 57.4072 349.359C57.4072 350.874 64.2441 352.102 72.6778 352.102Z" fill="#1877F2"/>
<defs>
<linearGradient id="paint0_linear_99_73" x1="248.79" y1="362.636" x2="248.79" y2="5.7031" gradientUnits="userSpaceOnUse">
<stop stop-color="#808080" stop-opacity="0.25"/>
<stop offset="0.54" stop-color="#808080" stop-opacity="0.12"/>
<stop offset="1" stop-color="#808080" stop-opacity="0.1"/>
</linearGradient>
</defs>
</svg>
