<svg width="157" height="316" viewBox="0 0 157 316" fill="none" xmlns="http://www.w3.org/2000/svg">
<path fill-rule="evenodd" clip-rule="evenodd" d="M-80.5201 16C-67.5785 8.81867 -53.5364 3.37974 -38.7106 0H32.7106C47.5364 3.37974 61.5785 8.81867 74.5202 16H-80.5201ZM32.7106 312C21.2281 314.618 9.27547 316 -3 316C-15.2755 316 -27.2281 314.618 -38.7106 312H32.7106ZM57.9052 304H-63.9052C-74.3545 299.695 -84.2479 294.316 -93.4479 288H87.4479C78.2479 294.316 68.3545 299.695 57.9052 304ZM98.1216 280H-104.122C-110.146 275.081 -115.805 269.732 -121.052 264H115.052C109.805 269.732 104.146 275.081 98.1216 280ZM121.907 256H-127.907C-131.986 250.912 -135.76 245.569 -139.203 240H133.202C129.76 245.569 125.986 250.912 121.907 256ZM137.833 232H-143.833C-146.628 226.831 -149.147 221.491 -151.37 216H145.37C143.147 221.491 140.628 226.831 137.833 232ZM148.36 208H-154.36C-156.152 202.783 -157.682 197.445 -158.934 192H152.934C151.682 197.445 150.152 202.783 148.36 208ZM154.558 184H-160.558C-161.485 178.751 -162.155 173.413 -162.557 168H156.557C156.155 173.413 155.485 178.751 154.558 184ZM156.951 160H-162.951C-162.984 158.671 -163 157.337 -163 156C-163 151.963 -162.851 147.962 -162.557 144H156.557C156.85 147.962 157 151.963 157 156C157 157.337 156.984 158.671 156.951 160ZM-158.934 120C-160.139 125.24 -161.086 130.578 -161.762 136H155.762C155.086 130.578 154.139 125.24 152.934 120H-158.934ZM-139.203 72C-142.383 77.1468 -145.281 82.4874 -147.873 88H141.873C139.281 82.4874 136.383 77.1468 133.203 72H-139.203ZM145.37 96H-151.37C-153.476 101.203 -155.316 106.542 -156.874 112H150.874C149.316 106.542 147.476 101.203 145.37 96ZM87.4479 24H-93.4479C-100.455 28.8102 -107.059 34.1638 -113.2 40H107.2C101.059 34.1638 94.4545 28.8102 87.4479 24ZM115.052 48H-121.052C-125.672 53.0468 -129.972 58.3908 -133.921 64H127.921C123.972 58.3908 119.672 53.0468 115.052 48Z" fill="#DAE8FE"/>
</svg>
