<svg width="196" height="40" viewBox="0 0 196 40" fill="none" xmlns="http://www.w3.org/2000/svg">
<rect y="1" width="38" height="38" rx="4" fill="#1877F2"/>
<path d="M6.03223 25V14.9785H12.9023V16.6738H8.05566V19.0459H12.2393V20.7412H8.05566V25H6.03223ZM14.5908 25V14.9785H21.4609V16.6738H16.6143V19.0459H20.7979V20.7412H16.6143V25H14.5908ZM29.5479 21.3154L31.5098 21.9375C31.209 23.0312 30.7077 23.8447 30.0059 24.3779C29.3086 24.9066 28.4222 25.1709 27.3467 25.1709C26.016 25.1709 24.9222 24.7174 24.0654 23.8105C23.2087 22.8991 22.7803 21.6549 22.7803 20.0781C22.7803 18.4102 23.2109 17.1159 24.0723 16.1953C24.9336 15.2702 26.0661 14.8076 27.4697 14.8076C28.6956 14.8076 29.6914 15.1699 30.457 15.8945C30.9128 16.3229 31.2546 16.9382 31.4824 17.7402L29.4795 18.2188C29.361 17.6992 29.1126 17.2891 28.7344 16.9883C28.3607 16.6875 27.9049 16.5371 27.3672 16.5371C26.6243 16.5371 26.0205 16.8037 25.5557 17.3369C25.0954 17.8701 24.8652 18.7337 24.8652 19.9277C24.8652 21.1947 25.0931 22.097 25.5488 22.6348C26.0046 23.1725 26.597 23.4414 27.3262 23.4414C27.8639 23.4414 28.3265 23.2705 28.7139 22.9287C29.1012 22.5869 29.3792 22.0492 29.5479 21.3154Z" fill="#EEEEEE"/>
<path d="M51.7695 20V2.82031H63.5469V5.72656H55.2383V9.79297H62.4102V12.6992H55.2383V20H51.7695ZM66.3945 20V2.82031H69.6875V20H66.3945ZM73.0742 5.86719V2.82031H76.3672V5.86719H73.0742ZM73.0742 20V7.55469H76.3672V20H73.0742ZM79.5078 7.55469H82.543V9.25391C83.6289 7.93359 84.9219 7.27344 86.4219 7.27344C87.2188 7.27344 87.9102 7.4375 88.4961 7.76562C89.082 8.09375 89.5625 8.58984 89.9375 9.25391C90.4844 8.58984 91.0742 8.09375 91.707 7.76562C92.3398 7.4375 93.0156 7.27344 93.7344 7.27344C94.6484 7.27344 95.4219 7.46094 96.0547 7.83594C96.6875 8.20312 97.1602 8.74609 97.4727 9.46484C97.6992 9.99609 97.8125 10.8555 97.8125 12.043V20H94.5195V12.8867C94.5195 11.6523 94.4062 10.8555 94.1797 10.4961C93.875 10.0273 93.4062 9.79297 92.7734 9.79297C92.3125 9.79297 91.8789 9.93359 91.4727 10.2148C91.0664 10.4961 90.7734 10.9102 90.5938 11.457C90.4141 11.9961 90.3242 12.8516 90.3242 14.0234V20H87.0312V13.1797C87.0312 11.9688 86.9727 11.1875 86.8555 10.8359C86.7383 10.4844 86.5547 10.2227 86.3047 10.0508C86.0625 9.87891 85.7305 9.79297 85.3086 9.79297C84.8008 9.79297 84.3438 9.92969 83.9375 10.2031C83.5312 10.4766 83.2383 10.8711 83.0586 11.3867C82.8867 11.9023 82.8008 12.7578 82.8008 13.9531V20H79.5078V7.55469ZM107.832 20V2.82031H119.609V5.72656H111.301V9.79297H118.473V12.6992H111.301V20H107.832ZM129.664 16.0391L132.945 16.5898C132.523 17.793 131.855 18.7109 130.941 19.3438C130.035 19.9688 128.898 20.2812 127.531 20.2812C125.367 20.2812 123.766 19.5742 122.727 18.1602C121.906 17.0273 121.496 15.5977 121.496 13.8711C121.496 11.8086 122.035 10.1953 123.113 9.03125C124.191 7.85938 125.555 7.27344 127.203 7.27344C129.055 7.27344 130.516 7.88672 131.586 9.11328C132.656 10.332 133.168 12.2031 133.121 14.7266H124.871C124.895 15.7031 125.16 16.4648 125.668 17.0117C126.176 17.5508 126.809 17.8203 127.566 17.8203C128.082 17.8203 128.516 17.6797 128.867 17.3984C129.219 17.1172 129.484 16.6641 129.664 16.0391ZM129.852 12.7109C129.828 11.7578 129.582 11.0352 129.113 10.543C128.645 10.043 128.074 9.79297 127.402 9.79297C126.684 9.79297 126.09 10.0547 125.621 10.5781C125.152 11.1016 124.922 11.8125 124.93 12.7109H129.852ZM134.656 16.4492L137.961 15.9453C138.102 16.5859 138.387 17.0742 138.816 17.4102C139.246 17.7383 139.848 17.9023 140.621 17.9023C141.473 17.9023 142.113 17.7461 142.543 17.4336C142.832 17.2148 142.977 16.9219 142.977 16.5547C142.977 16.3047 142.898 16.0977 142.742 15.9336C142.578 15.7773 142.211 15.6328 141.641 15.5C138.984 14.9141 137.301 14.3789 136.59 13.8945C135.605 13.2227 135.113 12.2891 135.113 11.0938C135.113 10.0156 135.539 9.10938 136.391 8.375C137.242 7.64062 138.562 7.27344 140.352 7.27344C142.055 7.27344 143.32 7.55078 144.148 8.10547C144.977 8.66016 145.547 9.48047 145.859 10.5664L142.754 11.1406C142.621 10.6562 142.367 10.2852 141.992 10.0273C141.625 9.76953 141.098 9.64062 140.41 9.64062C139.543 9.64062 138.922 9.76172 138.547 10.0039C138.297 10.1758 138.172 10.3984 138.172 10.6719C138.172 10.9062 138.281 11.1055 138.5 11.2695C138.797 11.4883 139.82 11.7969 141.57 12.1953C143.328 12.5938 144.555 13.082 145.25 13.6602C145.938 14.2461 146.281 15.0625 146.281 16.1094C146.281 17.25 145.805 18.2305 144.852 19.0508C143.898 19.8711 142.488 20.2812 140.621 20.2812C138.926 20.2812 137.582 19.9375 136.59 19.25C135.605 18.5625 134.961 17.6289 134.656 16.4492ZM154.883 7.55469V10.1797H152.633V15.1953C152.633 16.2109 152.652 16.8047 152.691 16.9766C152.738 17.1406 152.836 17.2773 152.984 17.3867C153.141 17.4961 153.328 17.5508 153.547 17.5508C153.852 17.5508 154.293 17.4453 154.871 17.2344L155.152 19.7891C154.387 20.1172 153.52 20.2812 152.551 20.2812C151.957 20.2812 151.422 20.1836 150.945 19.9883C150.469 19.7852 150.117 19.5273 149.891 19.2148C149.672 18.8945 149.52 18.4648 149.434 17.9258C149.363 17.543 149.328 16.7695 149.328 15.6055V10.1797H147.816V7.55469H149.328V5.08203L152.633 3.16016V7.55469H154.883ZM157.168 5.86719V2.82031H160.461V5.86719H157.168ZM157.168 20V7.55469H160.461V20H157.168ZM167.27 20L162.254 7.55469H165.711L168.055 13.9062L168.734 16.0273C168.914 15.4883 169.027 15.1328 169.074 14.9609C169.184 14.6094 169.301 14.2578 169.426 13.9062L171.793 7.55469H175.18L170.234 20H167.27ZM179.668 11.3516L176.68 10.8125C177.016 9.60938 177.594 8.71875 178.414 8.14062C179.234 7.5625 180.453 7.27344 182.07 7.27344C183.539 7.27344 184.633 7.44922 185.352 7.80078C186.07 8.14453 186.574 8.58594 186.863 9.125C187.16 9.65625 187.309 10.6367 187.309 12.0664L187.273 15.9102C187.273 17.0039 187.324 17.8125 187.426 18.3359C187.535 18.8516 187.734 19.4062 188.023 20H184.766C184.68 19.7812 184.574 19.457 184.449 19.0273C184.395 18.832 184.355 18.7031 184.332 18.6406C183.77 19.1875 183.168 19.5977 182.527 19.8711C181.887 20.1445 181.203 20.2812 180.477 20.2812C179.195 20.2812 178.184 19.9336 177.441 19.2383C176.707 18.543 176.34 17.6641 176.34 16.6016C176.34 15.8984 176.508 15.2734 176.844 14.7266C177.18 14.1719 177.648 13.75 178.25 13.4609C178.859 13.1641 179.734 12.9062 180.875 12.6875C182.414 12.3984 183.48 12.1289 184.074 11.8789V11.5508C184.074 10.918 183.918 10.4688 183.605 10.2031C183.293 9.92969 182.703 9.79297 181.836 9.79297C181.25 9.79297 180.793 9.91016 180.465 10.1445C180.137 10.3711 179.871 10.7734 179.668 11.3516ZM184.074 14.0234C183.652 14.1641 182.984 14.332 182.07 14.5273C181.156 14.7227 180.559 14.9141 180.277 15.1016C179.848 15.4062 179.633 15.793 179.633 16.2617C179.633 16.7227 179.805 17.1211 180.148 17.457C180.492 17.793 180.93 17.9609 181.461 17.9609C182.055 17.9609 182.621 17.7656 183.16 17.375C183.559 17.0781 183.82 16.7148 183.945 16.2852C184.031 16.0039 184.074 15.4688 184.074 14.6797V14.0234ZM190.566 20V2.82031H193.859V20H190.566Z" fill="#444444"/>
<path d="M57.6426 33.7373L58.874 34.0483C58.6159 35.0597 58.1504 35.832 57.4775 36.3652C56.8089 36.8942 55.9901 37.1587 55.021 37.1587C54.0181 37.1587 53.2013 36.9556 52.5708 36.5493C51.9445 36.1388 51.4663 35.5464 51.1362 34.772C50.8104 33.9976 50.6475 33.166 50.6475 32.2773C50.6475 31.3083 50.8315 30.464 51.1997 29.7446C51.5721 29.021 52.099 28.473 52.7803 28.1006C53.4658 27.724 54.2191 27.5356 55.04 27.5356C55.971 27.5356 56.7539 27.7726 57.3887 28.2466C58.0234 28.7205 58.4657 29.387 58.7153 30.2461L57.5029 30.5317C57.2871 29.8547 56.974 29.3617 56.5635 29.0527C56.153 28.7438 55.6367 28.5894 55.0146 28.5894C54.2995 28.5894 53.7007 28.7607 53.2183 29.1035C52.7401 29.4463 52.4036 29.9076 52.209 30.4873C52.0143 31.0628 51.917 31.6574 51.917 32.271C51.917 33.0623 52.0312 33.7542 52.2598 34.3467C52.4925 34.9349 52.8522 35.375 53.3389 35.667C53.8255 35.959 54.3524 36.105 54.9194 36.105C55.6092 36.105 56.1932 35.9061 56.6714 35.5083C57.1496 35.1105 57.4733 34.5202 57.6426 33.7373ZM62.8262 33.6294C62.8262 32.381 63.1732 31.4564 63.8672 30.8555C64.4469 30.3561 65.1536 30.1064 65.9873 30.1064C66.9141 30.1064 67.6715 30.4111 68.2598 31.0205C68.848 31.6257 69.1421 32.4635 69.1421 33.5342C69.1421 34.4017 69.0109 35.0851 68.7485 35.5845C68.4904 36.0796 68.1117 36.4647 67.6123 36.7397C67.1172 37.0148 66.5755 37.1523 65.9873 37.1523C65.0436 37.1523 64.2798 36.8498 63.6958 36.2446C63.116 35.6395 62.8262 34.7677 62.8262 33.6294ZM64.0005 33.6294C64.0005 34.4927 64.1888 35.1401 64.5654 35.5718C64.9421 35.9992 65.416 36.2129 65.9873 36.2129C66.5544 36.2129 67.0262 35.9971 67.4028 35.5654C67.7795 35.1338 67.9678 34.4757 67.9678 33.5913C67.9678 32.7576 67.7773 32.1271 67.3965 31.6997C67.0199 31.2681 66.5501 31.0522 65.9873 31.0522C65.416 31.0522 64.9421 31.266 64.5654 31.6934C64.1888 32.1208 64.0005 32.7661 64.0005 33.6294ZM73.4878 37V30.2588H74.5098V31.2046C74.7214 30.8745 75.0028 30.61 75.354 30.4111C75.7052 30.208 76.1051 30.1064 76.5537 30.1064C77.0531 30.1064 77.4614 30.2101 77.7788 30.4175C78.1004 30.6248 78.3268 30.9147 78.458 31.2871C78.9912 30.5 79.6852 30.1064 80.54 30.1064C81.2087 30.1064 81.7228 30.2926 82.0825 30.665C82.4422 31.0332 82.6221 31.6024 82.6221 32.3726V37H81.4858V32.7534C81.4858 32.2964 81.4478 31.9684 81.3716 31.7695C81.2996 31.5664 81.1663 31.4035 80.9717 31.2808C80.777 31.158 80.5485 31.0967 80.2861 31.0967C79.8122 31.0967 79.4186 31.2554 79.1055 31.5728C78.7923 31.8859 78.6357 32.3895 78.6357 33.0835V37H77.4932V32.6201C77.4932 32.1123 77.4001 31.7314 77.2139 31.4775C77.0277 31.2236 76.723 31.0967 76.2998 31.0967C75.9782 31.0967 75.6799 31.1813 75.4048 31.3506C75.134 31.5199 74.9372 31.7674 74.8145 32.0933C74.6917 32.4191 74.6304 32.8888 74.6304 33.5024V37H73.4878ZM87.3169 39.5835V30.2588H88.3579V31.1348C88.6034 30.792 88.8805 30.536 89.1895 30.3667C89.4984 30.1932 89.8729 30.1064 90.313 30.1064C90.8885 30.1064 91.3963 30.2546 91.8364 30.5508C92.2765 30.847 92.6087 31.266 92.833 31.8076C93.0573 32.3451 93.1694 32.9354 93.1694 33.5786C93.1694 34.2684 93.0446 34.8905 92.7949 35.4448C92.5495 35.995 92.1898 36.4181 91.7158 36.7144C91.2461 37.0063 90.751 37.1523 90.2305 37.1523C89.8496 37.1523 89.5068 37.0719 89.2021 36.9111C88.9017 36.7503 88.6541 36.5472 88.4595 36.3018V39.5835H87.3169ZM88.3516 33.6675C88.3516 34.535 88.5272 35.1761 88.8784 35.5908C89.2297 36.0055 89.6549 36.2129 90.1543 36.2129C90.6621 36.2129 91.0959 35.9992 91.4556 35.5718C91.8195 35.1401 92.0015 34.4736 92.0015 33.5723C92.0015 32.7132 91.8237 32.07 91.4683 31.6426C91.117 31.2152 90.696 31.0015 90.2051 31.0015C89.7184 31.0015 89.2868 31.23 88.9102 31.687C88.5378 32.1398 88.3516 32.8 88.3516 33.6675ZM101.952 36.1685C101.529 36.5282 101.121 36.7821 100.727 36.9302C100.338 37.0783 99.9188 37.1523 99.4702 37.1523C98.7297 37.1523 98.1605 36.9725 97.7627 36.6128C97.3649 36.2489 97.166 35.7855 97.166 35.2227C97.166 34.8926 97.2401 34.5921 97.3882 34.3213C97.5405 34.0462 97.7373 33.8262 97.9785 33.6611C98.224 33.4961 98.499 33.3713 98.8037 33.2866C99.028 33.2274 99.3665 33.1702 99.8193 33.1152C100.742 33.0052 101.421 32.874 101.857 32.7217C101.861 32.5651 101.863 32.4657 101.863 32.4233C101.863 31.9578 101.755 31.6299 101.54 31.4395C101.248 31.1813 100.814 31.0522 100.238 31.0522C99.7008 31.0522 99.3031 31.1475 99.0449 31.3379C98.791 31.5241 98.6027 31.8563 98.48 32.3345L97.3628 32.1821C97.4644 31.7039 97.6315 31.3188 97.8643 31.0269C98.097 30.7306 98.4334 30.5042 98.8735 30.3477C99.3136 30.1868 99.8236 30.1064 100.403 30.1064C100.979 30.1064 101.446 30.1742 101.806 30.3096C102.166 30.445 102.43 30.6164 102.6 30.8237C102.769 31.0269 102.887 31.285 102.955 31.5981C102.993 31.7928 103.012 32.144 103.012 32.6519V34.1753C103.012 35.2375 103.035 35.9103 103.082 36.1938C103.133 36.4731 103.23 36.7419 103.374 37H102.181C102.062 36.763 101.986 36.4858 101.952 36.1685ZM101.857 33.6167C101.442 33.786 100.82 33.9299 99.9907 34.0483C99.521 34.116 99.1888 34.1922 98.9941 34.2769C98.7995 34.3615 98.6493 34.4863 98.5435 34.6514C98.4377 34.8122 98.3848 34.992 98.3848 35.1909C98.3848 35.4956 98.499 35.7495 98.7275 35.9526C98.9603 36.1558 99.2988 36.2573 99.7432 36.2573C100.183 36.2573 100.575 36.1621 100.917 35.9717C101.26 35.777 101.512 35.5125 101.673 35.1782C101.796 34.9201 101.857 34.5392 101.857 34.0356V33.6167ZM107.79 37V30.2588H108.818V31.2173C109.313 30.4767 110.028 30.1064 110.963 30.1064C111.37 30.1064 111.742 30.1805 112.081 30.3286C112.423 30.4725 112.679 30.6629 112.849 30.8999C113.018 31.1369 113.136 31.4183 113.204 31.7441C113.246 31.9557 113.268 32.326 113.268 32.855V37H112.125V32.8994C112.125 32.4339 112.081 32.0869 111.992 31.8584C111.903 31.6257 111.744 31.4416 111.516 31.3062C111.291 31.1665 111.027 31.0967 110.722 31.0967C110.236 31.0967 109.814 31.2511 109.459 31.5601C109.108 31.869 108.932 32.4551 108.932 33.3184V37H107.79ZM117.975 39.5962L117.848 38.5234C118.098 38.5911 118.316 38.625 118.502 38.625C118.756 38.625 118.959 38.5827 119.111 38.498C119.264 38.4134 119.389 38.2949 119.486 38.1426C119.558 38.0283 119.674 37.7448 119.835 37.292C119.856 37.2285 119.89 37.1354 119.937 37.0127L117.378 30.2588H118.61L120.013 34.1626C120.195 34.6577 120.358 35.1782 120.501 35.7241C120.633 35.1994 120.789 34.6873 120.971 34.188L122.412 30.2588H123.555L120.99 37.1143C120.715 37.8548 120.501 38.3647 120.349 38.644C120.146 39.0207 119.913 39.2957 119.651 39.4692C119.389 39.647 119.075 39.7358 118.711 39.7358C118.491 39.7358 118.246 39.6893 117.975 39.5962Z" fill="#888888"/>
</svg>
