<svg width="17" height="18" viewBox="0 0 17 18" fill="none" xmlns="http://www.w3.org/2000/svg">
<path d="M13.0021 5.80085C13.0021 4.52759 12.4963 3.30647 11.596 2.40614C10.6957 1.5058 9.47454 1 8.20128 1C6.92801 1 5.7069 1.5058 4.80656 2.40614C3.90623 3.30647 3.40043 4.52759 3.40043 5.80085C3.40043 11.4018 1 13.0021 1 13.0021H15.4026C15.4026 13.0021 13.0021 11.4018 13.0021 5.80085Z" stroke="#777777" stroke-width="1.5" stroke-linecap="round" stroke-linejoin="round"/>
<path d="M9.5849 16.2026C9.44422 16.4451 9.24231 16.6464 8.99937 16.7864C8.75644 16.9263 8.481 16.9999 8.20065 16.9999C7.9203 16.9999 7.64486 16.9263 7.40193 16.7864C7.15899 16.6464 6.95708 16.4451 6.81641 16.2026" stroke="#777777" stroke-width="1.5" stroke-linecap="round" stroke-linejoin="round"/>
</svg>
