<svg width="244" height="300" viewBox="0 0 244 300" fill="none" xmlns="http://www.w3.org/2000/svg">
<path opacity="0.35" d="M356.284 179.33L125.209 300L61.6719 201.41L296.729 78.668L356.284 179.33Z" fill="#2A94F4" fill-opacity="0.5"/>
<path d="M126.929 167.331L87.899 187.713L69.2734 156.859L107.23 134.705L126.929 167.331Z" fill="#2A94F4" fill-opacity="0.5"/>
<path d="M96.4438 116.843L55.3654 133.839L36.7227 102.951L76.5501 83.8955L96.4438 116.843Z" fill="#2A94F4" fill-opacity="0.5"/>
<path d="M205.202 126.454L166.172 146.836L145.395 112.419L183.351 90.2646L205.202 126.454Z" fill="#2A94F4" fill-opacity="0.5"/>
<path d="M296.728 78.668L244.454 105.958L244.449 105.964L221.52 67.9839L238.349 58.1547L220.131 65.6887L196.496 26.5325L251.983 0L296.728 78.668Z" fill="#2A94F4" fill-opacity="0.5"/>
<path d="M178.832 82.7704L137.754 99.7606L116.609 64.7416L156.448 45.6914L178.832 82.7704Z" fill="#2A94F4" fill-opacity="0.5"/>
<path d="M55.366 133.839L14.0581 150.915L13.8343 150.542L0 120.509L36.7232 102.951L55.366 133.839Z" fill="#0E538C" fill-opacity="0.5"/>
<path d="M87.9016 187.713L61.6732 201.409L42.8984 172.26L69.276 156.859L87.9016 187.713Z" fill="#0E538C" fill-opacity="0.5"/>
<path d="M137.752 99.7612L96.4444 116.843L76.5508 83.8956L116.608 64.7422L137.752 99.7612Z" fill="#0E538C" fill-opacity="0.5"/>
<path d="M166.171 146.835L126.929 167.332L107.23 134.705L145.394 112.419L166.171 146.835Z" fill="#0E538C" fill-opacity="0.5"/>
<path d="M244.45 105.963L205.202 126.454L183.352 90.264L221.521 67.9834L244.45 105.963Z" fill="#0E538C" fill-opacity="0.5"/>
<path d="M220.131 65.6884L178.829 82.7704L156.445 45.6914L196.497 26.5322L220.131 65.6884Z" fill="#0E538C" fill-opacity="0.5"/>
</svg>
