<svg width="566" height="630" viewBox="0 0 566 630" fill="none" xmlns="http://www.w3.org/2000/svg">
<path fill-rule="evenodd" clip-rule="evenodd" d="M282.927 0.0844689C364.663 2.47394 427.42 62.9897 478.767 126.629C530.606 190.879 577.758 265.486 562.529 346.623C546.715 430.879 480.367 495.226 402.751 531.622C326.197 567.519 238.317 570.295 161.674 534.591C83.7721 498.301 22.7873 430.323 4.87154 346.271C-12.7561 263.57 19.2318 180.669 72.1832 114.743C124.872 49.1449 198.825 -2.37417 282.927 0.0844689Z" fill="#DAE8FE"/>
<path opacity="0.1" d="M410.684 162.413V333.587C410.685 339.157 409.589 344.673 407.458 349.82C405.327 354.966 402.203 359.642 398.265 363.581C394.326 367.52 389.65 370.644 384.503 372.775C379.357 374.906 373.841 376.002 368.271 376H197.097C187.513 376.013 178.209 372.768 170.712 366.799C167.609 364.327 164.864 361.436 162.557 358.209C157.435 351.021 154.682 342.413 154.684 333.587V162.413C154.684 161.278 154.728 160.155 154.816 159.044C154.985 156.874 155.323 154.721 155.827 152.604C158.036 143.319 163.311 135.051 170.8 129.135C178.288 123.219 187.553 120.001 197.097 120H368.271C377.814 120.001 387.079 123.219 394.567 129.135C402.056 135.051 407.331 143.319 409.54 152.604C410.044 154.721 410.382 156.874 410.551 159.044C410.639 160.155 410.684 161.278 410.684 162.413Z" fill="#1877F2"/>
<path opacity="0.1" d="M285.904 254.843H410.684V261.283H285.904V305.962H410.684V312.403H285.904V376H279.463V312.403H154.684V305.962H279.463V261.283H154.684V254.843H279.463V210.164H154.684V203.723H279.463V159.044H154.816C154.985 156.874 155.323 154.721 155.827 152.604H279.463V120H285.904V152.604H409.54C410.044 154.721 410.382 156.874 410.551 159.044H285.904V203.723H410.684V210.164H285.904V254.843Z" fill="#1877F2"/>
<path opacity="0.5" d="M282.686 440C396.283 440 488.371 425.553 488.371 407.731C488.371 389.909 396.283 375.461 282.686 375.461C169.089 375.461 77 389.909 77 407.731C77 425.553 169.089 440 282.686 440Z" fill="#1877F2"/>
<path d="M440.352 396.129C445.976 396.129 450.535 395.252 450.535 394.169C450.535 393.087 445.976 392.209 440.352 392.209C434.727 392.209 430.168 393.087 430.168 394.169C430.168 395.252 434.727 396.129 440.352 396.129Z" fill="#1877F2"/>
<path d="M440.18 394.895C440.835 394.895 441.367 394.199 441.367 393.341C441.367 392.483 440.835 391.787 440.18 391.787C439.524 391.787 438.992 392.483 438.992 393.341C438.992 394.199 439.524 394.895 440.18 394.895Z" fill="#777777"/>
<path d="M440.18 392.994C440.835 392.994 441.367 392.299 441.367 391.44C441.367 390.582 440.835 389.887 440.18 389.887C439.524 389.887 438.992 390.582 438.992 391.44C438.992 392.299 439.524 392.994 440.18 392.994Z" fill="#777777"/>
<path d="M440.18 391.099C440.835 391.099 441.367 390.403 441.367 389.545C441.367 388.687 440.835 387.991 440.18 387.991C439.524 387.991 438.992 388.687 438.992 389.545C438.992 390.403 439.524 391.099 440.18 391.099Z" fill="#777777"/>
<path d="M440.18 389.202C440.835 389.202 441.367 388.507 441.367 387.648C441.367 386.79 440.835 386.095 440.18 386.095C439.524 386.095 438.992 386.79 438.992 387.648C438.992 388.507 439.524 389.202 440.18 389.202Z" fill="#777777"/>
<path d="M440.18 387.303C440.835 387.303 441.367 386.607 441.367 385.749C441.367 384.891 440.835 384.195 440.18 384.195C439.524 384.195 438.992 384.891 438.992 385.749C438.992 386.607 439.524 387.303 440.18 387.303Z" fill="#777777"/>
<path d="M440.18 385.407C440.835 385.407 441.367 384.712 441.367 383.854C441.367 382.995 440.835 382.3 440.18 382.3C439.524 382.3 438.992 382.995 438.992 383.854C438.992 384.712 439.524 385.407 440.18 385.407Z" fill="#777777"/>
<path d="M440.18 383.511C440.835 383.511 441.367 382.815 441.367 381.957C441.367 381.099 440.835 380.403 440.18 380.403C439.524 380.403 438.992 381.099 438.992 381.957C438.992 382.815 439.524 383.511 440.18 383.511Z" fill="#777777"/>
<path d="M444.617 368.976C444.78 368.769 444.928 368.551 445.059 368.324L441.944 367.812L445.313 367.837C445.636 367.133 445.812 366.371 445.83 365.598C445.849 364.824 445.71 364.055 445.422 363.336L440.901 365.683L445.071 362.616C444.682 361.937 444.157 361.346 443.529 360.88C442.901 360.413 442.184 360.081 441.421 359.905C440.659 359.729 439.869 359.712 439.1 359.855C438.331 359.998 437.599 360.299 436.952 360.738C436.304 361.177 435.754 361.745 435.336 362.406C434.918 363.067 434.641 363.808 434.523 364.581C434.404 365.354 434.447 366.144 434.647 366.9C434.848 367.656 435.202 368.363 435.689 368.976C435.437 369.297 435.22 369.643 435.041 370.01L439.066 372.111L434.755 370.662C434.451 371.557 434.375 372.513 434.535 373.445C434.694 374.376 435.084 375.253 435.669 375.996C435.01 376.833 434.6 377.84 434.486 378.899C434.372 379.959 434.558 381.029 435.024 381.988C435.489 382.947 436.216 383.755 437.119 384.321C438.022 384.887 439.067 385.186 440.133 385.186C441.198 385.186 442.243 384.887 443.146 384.321C444.05 383.755 444.776 382.947 445.241 381.988C445.707 381.029 445.894 379.959 445.78 378.899C445.665 377.84 445.256 376.833 444.597 375.996C445.384 374.995 445.812 373.759 445.812 372.486C445.812 371.212 445.384 369.976 444.597 368.976H444.617Z" fill="#1877F2"/>
<path opacity="0.1" d="M434.473 372.486C434.469 373.758 434.894 374.995 435.68 375.996C435.021 376.833 434.611 377.84 434.497 378.899C434.383 379.959 434.57 381.03 435.036 381.988C435.501 382.947 436.227 383.756 437.131 384.321C438.034 384.887 439.078 385.187 440.144 385.187C441.21 385.187 442.255 384.887 443.158 384.321C444.061 383.756 444.787 382.947 445.253 381.988C445.719 381.03 445.905 379.959 445.791 378.899C445.677 377.84 445.267 376.833 444.608 375.996C445.377 375.03 434.473 371.85 434.473 372.486Z" fill="#555555"/>
<path d="M402.838 344.201H160.121V399.95H402.838V344.201Z" fill="#888888"/>
<path d="M161.729 286.44L138.785 303.749L156.496 319.849L166.559 303.749L180.244 286.44H161.729Z" fill="#888888"/>
<path d="M398.811 307.371L395.591 303.748L375.062 292.075L393.981 291.673L423.364 303.748L411.289 311.396L398.811 307.371Z" fill="#888888"/>
<path d="M160.118 308.176L180.244 286.44V336.352L166.558 347.623L158.105 335.95L160.118 308.176Z" fill="#888888"/>
<path d="M399.213 317.031L395.591 303.748L388.748 294.893L375.062 292.075V347.622H402.836L399.213 317.031Z" fill="#888888"/>
<path d="M184.693 271.547H372.627C374.287 271.547 375.879 272.206 377.053 273.38C378.227 274.554 378.886 276.146 378.886 277.806V335.144H178.434V277.806C178.434 276.146 179.093 274.554 180.267 273.38C181.441 272.206 183.033 271.547 184.693 271.547Z" fill="#888888"/>
<path d="M166.559 347.622L180.244 330.717H375.062L395.59 347.622H166.559Z" fill="#888888"/>
<path opacity="0.05" d="M166.559 347.622L180.244 330.717H375.062L395.59 347.622H166.559Z" fill="#555555"/>
<path d="M166.559 303.748H138.785V399.949H166.559V303.748Z" fill="#888888"/>
<path opacity="0.05" d="M166.559 303.748H138.785V399.949H166.559V303.748Z" fill="white"/>
<path d="M423.363 303.748H395.59V399.949H423.363V303.748Z" fill="#888888"/>
<path opacity="0.05" d="M423.363 303.748H395.59V399.949H423.363V303.748Z" fill="white"/>
<path d="M254.108 285.836C271.892 285.836 286.309 266.824 286.309 243.371C286.309 219.918 271.892 200.905 254.108 200.905C236.323 200.905 221.906 219.918 221.906 243.371C221.906 266.824 236.323 285.836 254.108 285.836Z" fill="#666666"/>
<path d="M268.195 225.057H232.371V274.969H268.195V225.057Z" fill="#666666"/>
<path opacity="0.1" d="M268.195 225.057H232.371V274.969H268.195V225.057Z" fill="#555555"/>
<path d="M234.971 254.327C233.85 255.692 232.403 256.753 230.764 257.41C229.125 258.067 227.346 258.3 225.593 258.087C225.432 260.591 227.13 262.788 228.736 264.716L241.307 279.799C241.356 279.918 241.438 280.022 241.542 280.098C241.647 280.174 241.77 280.22 241.899 280.231C242.028 280.242 242.157 280.217 242.273 280.159C242.388 280.101 242.486 280.013 242.555 279.903L261.755 261.689C259.839 262.494 257.573 261.218 256.522 259.423C255.471 257.628 255.367 255.471 255.27 253.386C255.131 250.273 254.996 247.163 254.868 244.055C254.835 243.363 254.767 242.598 254.256 242.131C253.858 241.832 253.383 241.652 252.887 241.612C249.856 241.093 240.409 238.392 238.658 241.58C237.853 243.033 238.216 245.867 237.853 247.509C237.31 249.944 236.541 252.371 234.971 254.327Z" fill="#FBBEBE"/>
<path opacity="0.1" d="M234.971 254.327C233.85 255.692 232.403 256.753 230.764 257.41C229.125 258.067 227.346 258.3 225.593 258.087C225.432 260.591 227.13 262.788 228.736 264.716L241.307 279.799C241.356 279.918 241.438 280.022 241.542 280.098C241.647 280.174 241.77 280.22 241.899 280.231C242.028 280.242 242.157 280.217 242.273 280.159C242.388 280.101 242.486 280.013 242.555 279.903L261.755 261.689C259.839 262.494 257.573 261.218 256.522 259.423C255.471 257.628 255.367 255.471 255.27 253.386C255.131 250.273 254.996 247.163 254.868 244.055C254.835 243.363 254.767 242.598 254.256 242.131C253.858 241.832 253.383 241.652 252.887 241.612C249.856 241.093 240.409 238.392 238.658 241.58C237.853 243.033 238.216 245.867 237.853 247.509C237.31 249.944 236.541 252.371 234.971 254.327Z" fill="#555555"/>
<path d="M248.875 251.22C259.324 251.22 267.794 242.75 267.794 232.302C267.794 221.854 259.324 213.384 248.875 213.384C238.427 213.384 229.957 221.854 229.957 232.302C229.957 242.75 238.427 251.22 248.875 251.22Z" fill="#FBBEBE"/>
<path d="M242.033 270.396L238.998 260.828C237.79 256.996 236.076 252.653 232.252 251.417C229.837 250.644 227.232 251.353 224.717 251.139C219.822 250.717 215.056 246.824 210.48 248.607C204.844 250.797 204.893 259.451 199.889 262.848C199.889 270.935 202.502 278.446 203.915 286.404C205.327 294.361 205.734 302.951 202.047 310.152C200.485 313.203 198.251 315.86 196.585 318.854C193.853 323.793 192.735 329.462 193.389 335.068C214.754 335.336 236.123 335.401 257.493 335.261C257.296 332.492 256.061 329.763 255.859 326.993C255.739 326.157 255.805 325.305 256.053 324.498C256.523 323.29 257.723 322.57 258.749 321.785C260.125 320.725 261.289 319.417 262.183 317.929C263.608 315.558 264.284 312.825 264.944 310.136L272.946 277.532C273.9 273.648 274.826 269.409 273.167 265.771C271.348 261.774 266.985 259.697 262.956 257.946C260.541 256.887 257.763 255.816 255.308 256.791C253.295 257.596 252.031 259.524 250.759 261.271C248.299 264.711 245.36 267.784 242.033 270.396Z" fill="#F86D70"/>
<path opacity="0.1" d="M199.674 265.719C199.046 268.069 199.396 270.581 198.933 272.964C198.157 276.953 195.246 280.125 193.298 283.683C190.279 289.208 189.515 295.687 191.165 301.764C191.656 303.539 192.529 305.439 194.252 306.091C195.484 306.562 196.861 306.268 198.177 306.385C199.916 306.538 201.723 307.399 203.329 306.715C205.313 305.869 205.708 303.289 205.925 301.144C206.426 296.169 207.497 291.267 209.117 286.537C210.727 281.803 212.937 277.106 212.905 272.102C212.881 268.576 208.364 271.821 205.418 269.732C202.093 267.389 200.765 261.657 199.674 265.719Z" fill="#555555"/>
<path d="M198.869 265.316C198.242 267.667 198.592 270.179 198.129 272.562C197.352 276.551 194.442 279.722 192.494 283.281C189.474 288.806 188.71 295.285 190.36 301.362C190.851 303.137 191.725 305.037 193.448 305.689C194.679 306.16 196.056 305.866 197.372 305.983C199.111 306.135 200.918 306.997 202.524 306.313C204.509 305.467 204.903 302.887 205.12 300.742C205.621 295.766 206.692 290.865 208.312 286.134C209.923 281.401 212.132 276.704 212.1 271.7C212.076 268.174 210.526 264.278 207.58 262.189C204.255 259.846 199.96 261.255 198.869 265.316Z" fill="#F86D70"/>
<path d="M226.414 243.182C228.829 241.829 231.208 240.364 233.695 239.108C237.584 237.164 241.955 235.647 245.014 232.668C245.172 232.518 245.365 232.41 245.576 232.356C245.787 232.301 246.008 232.302 246.219 232.357C246.429 232.413 246.622 232.521 246.779 232.672C246.936 232.823 247.052 233.011 247.115 233.219C248.431 237.506 249.989 241.715 251.78 245.826C253.326 249.368 255.049 252.846 256.208 256.533C257.013 259.097 257.516 261.766 258.519 264.233C259.827 267.453 261.916 270.319 263.989 273.129C264.749 274.167 265.534 275.222 266.601 275.946C268.098 276.965 270.332 277.617 270.489 279.42C268.545 280.825 265.901 280.362 263.506 280.342C261.111 280.322 258.675 280.817 256.309 281.401C253.544 282.031 250.847 282.932 248.258 284.089C245.739 285.277 243.428 286.839 241.094 288.392L219.692 302.75C218.118 300.951 218.178 298.322 217.84 295.939C217.552 294.225 217.137 292.534 216.601 290.88L214.467 283.695C213.453 280.282 212.455 276.872 211.311 273.495C210.37 270.678 209.323 267.832 207.48 265.505C205.258 262.688 202.062 260.86 199.288 258.594C198.306 257.789 197.336 256.871 196.97 255.656C196.848 255.259 196.814 254.84 196.87 254.429C196.925 254.018 197.069 253.623 197.292 253.273C197.88 252.423 198.721 252.548 199.655 252.399C201.933 252.037 204.192 251.58 206.433 251.027C210.878 249.924 215.223 248.451 219.422 246.623C221.808 245.593 224.138 244.446 226.414 243.182Z" fill="#BBBDC8"/>
<path opacity="0.1" d="M227.29 246.16C229.412 244.985 231.473 243.697 233.642 242.61C237.039 240.912 240.847 239.591 243.516 237.003C243.653 236.871 243.822 236.776 244.006 236.728C244.19 236.679 244.384 236.679 244.568 236.727C244.752 236.776 244.921 236.87 245.058 237.002C245.196 237.135 245.296 237.3 245.351 237.482C246.499 241.222 247.857 244.893 249.421 248.479C250.769 251.57 252.271 254.605 253.273 257.821C253.965 260.055 254.412 262.37 255.285 264.539C256.424 267.357 258.252 269.848 260.055 272.3C260.671 273.241 261.441 274.071 262.333 274.755C263.646 275.645 265.594 276.212 265.727 277.79C264.032 278.998 261.726 278.595 259.637 278.595C257.514 278.638 255.406 278.949 253.361 279.521C250.951 280.07 248.601 280.856 246.346 281.868C244.169 282.963 242.08 284.223 240.094 285.635L221.422 298.141C220.049 296.571 220.106 294.265 219.812 292.196C219.561 290.696 219.201 289.216 218.733 287.768L216.869 281.501C215.984 278.523 215.098 275.548 214.116 272.602C213.311 270.142 212.385 267.663 210.775 265.63C208.835 263.179 206.05 261.581 203.627 259.592C202.773 258.896 201.924 258.091 201.614 257.032C201.508 256.686 201.478 256.321 201.527 255.963C201.575 255.604 201.701 255.261 201.896 254.955C202.407 254.211 203.143 254.319 203.957 254.191C205.945 253.877 207.916 253.474 209.87 252.983C213.748 252.024 217.538 250.739 221.2 249.143C223.28 248.247 225.31 247.253 227.29 246.16Z" fill="#555555"/>
<path d="M219.477 262.547C220.366 262.547 221.087 261.826 221.087 260.937C221.087 260.048 220.366 259.327 219.477 259.327C218.588 259.327 217.867 260.048 217.867 260.937C217.867 261.826 218.588 262.547 219.477 262.547Z" fill="#BBBDC8"/>
<path d="M236.645 254.597C237.534 254.597 238.255 253.876 238.255 252.987C238.255 252.098 237.534 251.377 236.645 251.377C235.756 251.377 235.035 252.098 235.035 252.987C235.035 253.876 235.756 254.597 236.645 254.597Z" fill="#BBBDC8"/>
<path d="M227.598 280.08C228.488 280.08 229.208 279.36 229.208 278.47C229.208 277.581 228.488 276.86 227.598 276.86C226.709 276.86 225.988 277.581 225.988 278.47C225.988 279.36 226.709 280.08 227.598 280.08Z" fill="#BBBDC8"/>
<path d="M244.762 272.131C245.652 272.131 246.372 271.41 246.372 270.521C246.372 269.632 245.652 268.911 244.762 268.911C243.873 268.911 243.152 269.632 243.152 270.521C243.152 271.41 243.873 272.131 244.762 272.131Z" fill="#BBBDC8"/>
<path d="M202.703 288.589C204.313 288.126 206.008 287.619 207.191 286.432C208.109 285.506 208.62 284.262 209.264 283.127C210.548 280.861 212.581 278.852 215.137 278.353C217.693 277.854 220.695 279.331 221.243 281.879C221.597 283.538 220.905 285.224 220.216 286.778C219.186 289.104 218.023 291.544 215.897 292.949C214.038 294.176 211.667 294.446 209.84 295.722C208.23 296.849 207.215 298.632 205.814 300.021C203.983 301.824 201.561 302.904 198.996 303.06C198.606 303.106 198.211 303.052 197.849 302.903C197.493 302.692 197.195 302.398 196.979 302.045C195.796 300.435 194.596 298.777 193.968 296.873C191.783 290.236 197.969 289.946 202.703 288.589Z" fill="#FBBEBE"/>
<path d="M245.585 289.476C245.042 286.231 244.969 282.693 242.965 280.085C241.286 277.907 238.497 276.804 235.752 276.619C234.947 276.563 234.001 276.643 233.534 277.303C233.268 277.769 233.162 278.309 233.232 278.841C233.402 282.964 234.94 286.912 237.603 290.063C238.606 291.239 239.769 292.309 240.469 293.686C241.081 294.873 241.306 296.23 241.874 297.437C242.615 299.011 243.887 300.255 244.861 301.704C246.242 303.78 246.958 306.227 246.913 308.72C247.976 306.985 247.847 304.815 247.948 302.783C248.081 299.921 250.085 298.355 248.785 296.02C247.485 293.686 246.056 292.313 245.585 289.476Z" fill="#FBBEBE"/>
<path opacity="0.1" d="M260.444 286.243C259.426 288.9 258.903 291.742 257.703 294.322C257.387 295.129 256.845 295.828 256.141 296.335C254.853 297.14 253.151 296.64 251.871 295.839C250.591 295.038 249.456 293.936 248.059 293.404C247.431 299.518 242.351 304.9 236.281 305.882C239.904 309.211 243.72 312.91 244.537 317.756C244.69 318.646 244.742 319.592 245.217 320.361C245.982 321.588 247.596 321.991 249.045 321.971C252.728 321.943 256.105 319.998 259.18 317.946C260.219 317.261 261.269 316.529 261.962 315.498C262.654 314.468 262.952 313.16 263.214 311.912C264.993 303.456 266.77 294.997 268.547 286.533C269.03 284.235 268.949 279.719 265.383 280.174C262.964 280.528 261.193 284.299 260.444 286.243Z" fill="#555555"/>
<path d="M261.249 286.243C260.231 288.9 259.707 291.742 258.508 294.322C258.192 295.129 257.649 295.828 256.946 296.335C255.658 297.14 253.955 296.64 252.675 295.839C251.395 295.038 250.26 293.936 248.864 293.404C248.236 299.518 243.156 304.9 237.086 305.882C240.709 309.211 244.524 312.91 245.342 317.756C245.494 318.646 245.547 319.592 246.022 320.361C246.787 321.588 248.401 321.991 249.85 321.971C253.533 321.943 256.91 319.998 259.985 317.946C261.024 317.261 262.074 316.529 262.766 315.498C263.459 314.468 263.757 313.16 264.018 311.912C265.797 303.456 267.575 294.997 269.352 286.533C269.835 284.235 269.754 279.719 266.188 280.174C263.769 280.528 261.998 284.299 261.249 286.243Z" fill="#F86D70"/>
<path d="M202.528 301.941C202.383 302.677 201.655 303.124 200.995 303.478C199.719 304.167 198.33 304.879 196.893 304.686C195.456 304.493 194.253 303.43 193.311 302.303C192.841 301.767 192.436 301.178 192.103 300.548C190.65 297.678 190.493 285.466 196.499 289.451C198.978 291.101 197.581 293.919 197.891 296.346C198.027 297.785 198.602 299.148 199.538 300.25C199.719 300.459 202.436 302.416 202.528 301.941Z" fill="#F86D70"/>
<path d="M253.904 227.874C263.797 227.874 271.816 224.09 271.816 219.422C271.816 214.753 263.797 210.969 253.904 210.969C244.012 210.969 235.992 214.753 235.992 219.422C235.992 224.09 244.012 227.874 253.904 227.874Z" fill="#666666"/>
<path opacity="0.1" d="M254.709 225.057C245.016 225.057 237.131 221.434 236.813 216.886C236.299 217.632 236.018 218.515 236.008 219.422C236.008 224.091 244.026 227.874 253.92 227.874C263.814 227.874 271.832 224.091 271.832 219.422C271.832 219.325 271.832 219.232 271.832 219.14C269.517 222.569 262.731 225.057 254.709 225.057Z" fill="#555555"/>
<path d="M332.597 285.031C357.05 285.031 376.874 267.01 376.874 244.78C376.874 222.55 357.05 204.528 332.597 204.528C308.144 204.528 288.32 222.55 288.32 244.78C288.32 267.01 308.144 285.031 332.597 285.031Z" fill="#666666"/>
<path opacity="0.1" d="M332.597 274.566C310.173 274.566 291.641 259.407 288.723 239.748C288.456 241.547 288.322 243.363 288.32 245.182C288.32 267.413 308.144 285.434 332.597 285.434C357.05 285.434 376.874 267.413 376.874 245.182C376.872 243.363 376.738 241.547 376.471 239.748C373.553 259.407 355.021 274.566 332.597 274.566Z" fill="#555555"/>
<path d="M331.794 274.969C343.576 274.969 353.128 262.084 353.128 246.189C353.128 230.294 343.576 217.409 331.794 217.409C320.012 217.409 310.461 230.294 310.461 246.189C310.461 262.084 320.012 274.969 331.794 274.969Z" fill="#666666"/>
<path opacity="0.1" d="M331.794 274.969C343.576 274.969 353.128 262.084 353.128 246.189C353.128 230.294 343.576 217.409 331.794 217.409C320.012 217.409 310.461 230.294 310.461 246.189C310.461 262.084 320.012 274.969 331.794 274.969Z" fill="#555555"/>
<path d="M321.983 260.776C321.178 262.764 319.567 264.877 317.152 265.03C320.372 267.675 323.633 270.348 327.481 272.276C331.329 274.204 335.885 275.335 340.265 274.643C343.356 274.155 346.166 272.799 348.79 271.314C353.258 268.786 357.645 265.465 358.776 260.965C355.422 261.134 352.06 261.07 348.714 260.776C346.979 260.627 345.204 260.397 343.698 259.641C342.774 259.153 341.957 258.485 341.295 257.676C340.634 256.867 340.141 255.934 339.846 254.931C339.246 253.031 339.259 251.031 339.367 249.063C339.428 247.915 339.472 246.648 338.59 245.77C337.709 244.893 336.252 244.776 334.927 244.748C332.264 244.694 329.6 244.851 326.962 245.219C325.577 245.362 324.206 245.611 322.86 245.963C321.113 246.495 321.278 246.289 321.701 247.75C323.013 252.226 323.814 256.252 321.983 260.776Z" fill="#A0616A"/>
<path opacity="0.1" d="M321.983 260.776C321.178 262.764 319.567 264.877 317.152 265.03C320.372 267.675 323.633 270.348 327.481 272.276C331.329 274.204 335.885 275.335 340.265 274.643C343.356 274.155 346.166 272.799 348.79 271.314C353.258 268.786 357.645 265.465 358.776 260.965C355.422 261.134 352.06 261.07 348.714 260.776C346.979 260.627 345.204 260.397 343.698 259.641C342.774 259.153 341.957 258.485 341.295 257.676C340.634 256.867 340.141 255.934 339.846 254.931C339.246 253.031 339.259 251.031 339.367 249.063C339.428 247.915 339.472 246.648 338.59 245.77C337.709 244.893 336.252 244.776 334.927 244.748C332.264 244.694 329.6 244.851 326.962 245.219C325.577 245.362 324.206 245.611 322.86 245.963C321.113 246.495 321.278 246.289 321.701 247.75C323.013 252.226 323.814 256.252 321.983 260.776Z" fill="#555555"/>
<path d="M331.188 256.654C341.636 256.654 350.106 248.184 350.106 237.736C350.106 227.287 341.636 218.817 331.188 218.817C320.74 218.817 312.27 227.287 312.27 237.736C312.27 248.184 320.74 256.654 331.188 256.654Z" fill="#A0616A"/>
<path d="M324.666 262.442C323.43 260.961 322.158 259.447 320.512 258.441C317.815 256.787 314.474 256.682 311.315 256.63C307.889 256.569 304.166 256.602 301.457 258.699C300.249 259.645 299.324 260.941 298.442 262.213L286.966 278.716C286.52 279.36 286.049 280.088 286.161 280.865C286.29 281.424 286.568 281.938 286.966 282.351L299.589 298.113C300.31 299.011 301.055 299.957 301.296 301.084C301.538 302.211 301.24 303.394 300.853 304.489C299.328 308.832 296.426 312.942 296.691 317.518C296.88 320.505 298.442 323.25 300.354 325.569C304.742 330.854 311.057 334.291 317.662 336.167C324.268 338.043 331.203 338.453 338.074 338.497C351.027 338.582 364.64 337.169 375.339 329.863L366.93 321.942C365.268 320.372 363.525 318.682 362.949 316.468C362.547 314.978 362.74 313.409 362.921 311.883C363.259 309.094 363.597 306.284 364.499 303.628C367.007 296.225 373.451 290.956 377.75 284.432C378.289 283.627 378.813 282.701 378.752 281.723C378.704 280.897 378.245 280.161 377.798 279.469C375.834 276.421 373.797 273.391 372.372 270.058C371.31 267.578 370.589 264.942 369.273 262.587C367.957 260.232 365.868 258.115 363.235 257.62C359.846 256.984 356.541 259.105 353.1 259.25C350.58 259.359 347.952 258.413 345.597 259.311C342.803 260.377 341.572 263.525 340.006 266.081C338.851 267.985 335.405 273.193 332.704 271.913C331.235 271.213 329.887 268.693 328.832 267.457L324.666 262.442Z" fill="#F98A8D"/>
<path d="M339.739 275.239C339.101 274.879 338.361 274.746 337.638 274.86C337.28 274.929 336.956 275.114 336.715 275.386C336.474 275.658 336.33 276.003 336.305 276.366L335.142 276.297C335.008 276.283 334.872 276.29 334.74 276.317C334.571 276.354 334.425 276.455 334.331 276.6C334.238 276.744 334.206 276.92 334.242 277.088C334.279 277.256 334.38 277.403 334.525 277.496C334.669 277.59 334.845 277.622 335.013 277.585C334.442 277.812 333.933 278.17 333.528 278.632C333.224 279.088 333.113 279.647 333.219 280.185C333.324 280.723 333.638 281.198 334.091 281.506C334.568 281.78 335.127 281.87 335.665 281.76C336.203 281.651 336.683 281.348 337.014 280.91C336.946 281.151 336.965 281.407 337.068 281.635C337.171 281.863 337.352 282.046 337.577 282.154C339.759 283.333 340.87 281.731 341.168 279.876C341.506 277.839 341.941 276.325 339.739 275.239Z" fill="#FFE9B3"/>
<path opacity="0.15" d="M339.739 275.239C339.101 274.879 338.361 274.746 337.638 274.86C337.28 274.929 336.956 275.114 336.715 275.386C336.474 275.658 336.33 276.003 336.305 276.366L335.142 276.297C335.008 276.283 334.872 276.29 334.74 276.317C334.571 276.354 334.425 276.455 334.331 276.6C334.238 276.744 334.206 276.92 334.242 277.088C334.279 277.256 334.38 277.403 334.525 277.496C334.669 277.59 334.845 277.622 335.013 277.585C334.442 277.812 333.933 278.17 333.528 278.632C333.224 279.088 333.113 279.647 333.219 280.185C333.324 280.723 333.638 281.198 334.091 281.506C334.568 281.78 335.127 281.87 335.665 281.76C336.203 281.651 336.683 281.348 337.014 280.91C336.946 281.151 336.965 281.407 337.068 281.635C337.171 281.863 337.352 282.046 337.577 282.154C339.759 283.333 340.87 281.731 341.168 279.876C341.506 277.839 341.941 276.325 339.739 275.239Z" fill="#555555"/>
<path d="M345.678 273.869C345.04 273.509 344.299 273.377 343.577 273.495C343.22 273.562 342.896 273.746 342.655 274.018C342.415 274.29 342.272 274.634 342.248 274.996L341.085 274.928C340.951 274.914 340.815 274.921 340.683 274.948C340.525 274.998 340.392 275.103 340.308 275.245C340.224 275.387 340.195 275.555 340.228 275.717C340.271 275.876 340.372 276.014 340.511 276.103C340.65 276.191 340.818 276.225 340.98 276.196C340.41 276.423 339.901 276.782 339.495 277.242C339.193 277.699 339.082 278.257 339.187 278.795C339.293 279.333 339.606 279.808 340.059 280.116C340.535 280.391 341.095 280.482 341.634 280.373C342.172 280.264 342.653 279.963 342.985 279.525C342.917 279.764 342.936 280.02 343.038 280.247C343.141 280.474 343.32 280.657 343.544 280.764C345.73 281.948 346.837 280.362 347.139 278.49C347.449 276.47 347.892 274.956 345.678 273.869Z" fill="#FFE9B3"/>
<path d="M350.527 274.562C349.891 274.203 349.151 274.071 348.43 274.188C348.072 274.254 347.747 274.438 347.506 274.71C347.265 274.982 347.121 275.326 347.098 275.689L345.934 275.621C345.8 275.607 345.664 275.613 345.532 275.641C345.374 275.69 345.241 275.796 345.157 275.938C345.073 276.08 345.045 276.248 345.077 276.41C345.12 276.569 345.221 276.707 345.36 276.796C345.499 276.884 345.667 276.918 345.83 276.889C345.258 277.114 344.749 277.473 344.344 277.935C344.041 278.392 343.929 278.95 344.035 279.488C344.141 280.026 344.454 280.501 344.908 280.809C345.383 281.084 345.943 281.176 346.481 281.067C347.019 280.958 347.499 280.656 347.83 280.218C347.762 280.457 347.782 280.714 347.885 280.941C347.988 281.168 348.168 281.351 348.394 281.457C350.575 282.641 351.682 281.035 351.984 279.183C352.298 277.183 352.725 275.649 350.527 274.562Z" fill="#FFE9B3"/>
<path opacity="0.15" d="M350.527 274.562C349.891 274.203 349.151 274.071 348.43 274.188C348.072 274.254 347.747 274.438 347.506 274.71C347.265 274.982 347.121 275.326 347.098 275.689L345.934 275.621C345.8 275.607 345.664 275.613 345.532 275.641C345.374 275.69 345.241 275.796 345.157 275.938C345.073 276.08 345.045 276.248 345.077 276.41C345.12 276.569 345.221 276.707 345.36 276.796C345.499 276.884 345.667 276.918 345.83 276.889C345.258 277.114 344.749 277.473 344.344 277.935C344.041 278.392 343.929 278.95 344.035 279.488C344.141 280.026 344.454 280.501 344.908 280.809C345.383 281.084 345.943 281.176 346.481 281.067C347.019 280.958 347.499 280.656 347.83 280.218C347.762 280.457 347.782 280.714 347.885 280.941C347.988 281.168 348.168 281.351 348.394 281.457C350.575 282.641 351.682 281.035 351.984 279.183C352.298 277.183 352.725 275.649 350.527 274.562Z" fill="#555555"/>
<path d="M362.382 277.384V320.622C362.381 320.897 362.272 321.161 362.077 321.355C361.883 321.55 361.619 321.66 361.344 321.661H327.597C327.322 321.66 327.058 321.55 326.864 321.355C326.669 321.161 326.56 320.897 326.559 320.622V277.384C326.558 277.212 326.601 277.042 326.683 276.89C326.765 276.738 326.883 276.609 327.027 276.514C327.171 276.419 327.337 276.362 327.509 276.348C327.681 276.333 327.854 276.361 328.012 276.43C328.87 276.8 329.728 277.143 330.584 277.457C331.791 277.899 332.999 278.284 334.206 278.612C335.414 278.938 336.621 279.207 337.829 279.417C339.037 279.626 340.244 279.787 341.452 279.884C342.659 279.98 343.867 280.021 345.074 279.996C346.282 279.972 347.489 279.904 348.697 279.771C349.905 279.638 351.112 279.441 352.32 279.187C353.527 278.934 354.735 278.636 355.942 278.27C356.88 277.984 357.822 277.666 358.76 277.312C359.484 277.042 360.205 276.748 360.929 276.434C361.087 276.365 361.26 276.337 361.431 276.351C361.603 276.366 361.768 276.423 361.912 276.517C362.056 276.611 362.175 276.74 362.257 276.891C362.339 277.043 362.382 277.212 362.382 277.384Z" fill="#BBBDC8"/>
<path d="M334.209 278.611V321.68H330.586V277.456C331.793 277.899 333.001 278.284 334.209 278.611Z" fill="white"/>
<path d="M341.455 279.88V321.661H337.832V279.396C339.04 279.63 340.247 279.783 341.455 279.88Z" fill="white"/>
<path d="M348.697 279.767V321.66H345.074V280C346.282 279.979 347.489 279.901 348.697 279.767Z" fill="white"/>
<path d="M355.943 278.266V321.661H352.32V279.195C353.528 278.943 354.735 278.633 355.943 278.266Z" fill="white"/>
<path opacity="0.1" d="M362.384 277.384V320.622C362.383 320.897 362.274 321.161 362.079 321.355C361.885 321.55 361.621 321.66 361.346 321.661H358.762V277.308C359.486 277.038 360.207 276.744 360.931 276.43C361.089 276.361 361.262 276.333 361.434 276.348C361.606 276.362 361.772 276.419 361.916 276.514C362.06 276.609 362.178 276.738 362.26 276.89C362.342 277.042 362.385 277.212 362.384 277.384Z" fill="#555555"/>
<path d="M335.984 273.177C335.348 272.818 334.608 272.686 333.887 272.803C333.53 272.87 333.204 273.053 332.963 273.325C332.722 273.597 332.578 273.942 332.555 274.304L331.391 274.236C331.257 274.222 331.121 274.229 330.989 274.256C330.832 274.306 330.698 274.411 330.614 274.553C330.53 274.695 330.502 274.863 330.534 275.025C330.577 275.185 330.678 275.322 330.817 275.411C330.957 275.5 331.124 275.533 331.287 275.504C330.715 275.729 330.206 276.088 329.801 276.551C329.498 277.007 329.386 277.565 329.492 278.103C329.598 278.642 329.911 279.116 330.365 279.424C330.841 279.699 331.4 279.79 331.938 279.681C332.476 279.572 332.956 279.27 333.287 278.833C333.219 279.073 333.239 279.329 333.342 279.556C333.445 279.783 333.625 279.966 333.851 280.073C336.032 281.252 337.139 279.65 337.441 277.798C337.755 275.778 338.19 274.264 335.984 273.177Z" fill="#FFE9B3"/>
<path d="M342.019 266.335C341.383 265.976 340.643 265.844 339.922 265.96C339.565 266.027 339.24 266.21 338.998 266.482C338.757 266.754 338.613 267.099 338.59 267.462L337.426 267.393C337.292 267.379 337.156 267.386 337.024 267.413C336.867 267.463 336.733 267.569 336.649 267.711C336.565 267.853 336.537 268.021 336.569 268.182C336.612 268.342 336.713 268.479 336.852 268.568C336.992 268.657 337.159 268.69 337.322 268.661C336.75 268.886 336.241 269.245 335.837 269.708C335.533 270.164 335.422 270.722 335.527 271.261C335.633 271.799 335.946 272.274 336.4 272.582C336.876 272.856 337.435 272.947 337.973 272.838C338.511 272.729 338.991 272.428 339.322 271.99C339.255 272.23 339.274 272.486 339.377 272.713C339.48 272.94 339.661 273.123 339.886 273.23C342.067 274.409 343.174 272.807 343.476 270.956C343.79 268.935 344.225 267.421 342.019 266.335Z" fill="#FFE9B3"/>
<path d="M346.122 275.629C346.599 275.074 346.873 274.372 346.898 273.64C346.906 273.276 346.791 272.919 346.572 272.627C346.353 272.336 346.043 272.125 345.691 272.03L345.985 270.903C346.027 270.773 346.048 270.637 346.045 270.501C346.039 270.331 345.965 270.171 345.841 270.055C345.716 269.94 345.551 269.878 345.381 269.885C345.211 269.891 345.051 269.965 344.935 270.089C344.82 270.214 344.759 270.379 344.765 270.549C344.655 269.945 344.403 269.377 344.029 268.891C343.638 268.505 343.112 268.289 342.563 268.289C342.015 268.289 341.488 268.505 341.098 268.891C340.735 269.302 340.534 269.833 340.534 270.382C340.534 270.931 340.735 271.461 341.098 271.873C340.875 271.76 340.62 271.73 340.377 271.788C340.134 271.845 339.919 271.987 339.77 272.187C338.188 274.095 339.544 275.496 341.303 276.152C343.227 276.86 344.628 277.585 346.122 275.629Z" fill="#FFE9B3"/>
<path d="M351.356 275.629C351.833 275.074 352.108 274.372 352.133 273.64C352.14 273.276 352.025 272.919 351.806 272.627C351.587 272.336 351.277 272.125 350.925 272.03L351.219 270.903C351.262 270.773 351.282 270.637 351.279 270.501C351.273 270.331 351.199 270.171 351.075 270.055C350.95 269.94 350.785 269.878 350.615 269.885C350.446 269.891 350.285 269.965 350.17 270.089C350.054 270.214 349.993 270.379 349.999 270.549C349.889 269.945 349.637 269.377 349.263 268.891C348.873 268.505 348.346 268.289 347.798 268.289C347.249 268.289 346.723 268.505 346.333 268.891C345.969 269.302 345.769 269.833 345.769 270.382C345.769 270.931 345.969 271.461 346.333 271.873C346.11 271.76 345.854 271.73 345.611 271.788C345.368 271.845 345.153 271.987 345.004 272.187C343.422 274.095 344.779 275.496 346.538 276.152C348.462 276.86 349.863 277.585 351.356 275.629Z" fill="#FFE9B3"/>
<path d="M354.632 279.07C355.001 278.437 355.143 277.697 355.035 276.973C354.972 276.614 354.791 276.287 354.521 276.043C354.252 275.799 353.908 275.652 353.546 275.624L353.63 274.465C353.651 274.332 353.651 274.196 353.63 274.062C353.592 273.897 353.49 273.753 353.346 273.663C353.203 273.573 353.029 273.544 352.863 273.581C352.698 273.619 352.554 273.721 352.464 273.865C352.374 274.009 352.344 274.183 352.382 274.348C352.161 273.775 351.808 273.262 351.352 272.851C350.898 272.542 350.341 272.425 349.802 272.525C349.262 272.624 348.784 272.932 348.47 273.382C348.19 273.855 348.094 274.414 348.197 274.954C348.301 275.494 348.598 275.977 349.033 276.312C348.794 276.243 348.537 276.26 348.309 276.36C348.081 276.461 347.895 276.64 347.786 276.864C346.578 279.034 348.188 280.161 350.024 280.487C352.016 280.805 353.529 281.259 354.632 279.07Z" fill="#FFE9B3"/>
<path d="M338.531 272.63C338.9 271.997 339.042 271.258 338.933 270.533C338.87 270.175 338.689 269.848 338.42 269.604C338.15 269.36 337.807 269.212 337.444 269.185L337.529 268.025C337.549 267.892 337.549 267.756 337.529 267.623C337.491 267.458 337.389 267.314 337.245 267.224C337.101 267.133 336.927 267.104 336.762 267.142C336.596 267.18 336.453 267.282 336.362 267.426C336.272 267.57 336.243 267.743 336.281 267.909C336.059 267.336 335.706 266.823 335.25 266.411C334.797 266.103 334.24 265.986 333.7 266.085C333.161 266.185 332.682 266.493 332.368 266.943C332.089 267.416 331.992 267.975 332.096 268.514C332.2 269.054 332.497 269.537 332.932 269.873C332.692 269.803 332.436 269.82 332.207 269.921C331.979 270.022 331.794 270.2 331.684 270.424C330.476 272.594 332.087 273.721 333.922 274.047C335.914 274.365 337.428 274.82 338.531 272.63Z" fill="#FFE9B3"/>
<path d="M340.141 270.409C339.503 270.049 338.763 269.916 338.04 270.03C337.683 270.099 337.358 270.284 337.117 270.556C336.876 270.828 336.732 271.173 336.708 271.536L335.544 271.467C335.41 271.453 335.274 271.46 335.142 271.487C334.974 271.524 334.827 271.625 334.734 271.77C334.64 271.914 334.608 272.09 334.645 272.258C334.681 272.426 334.783 272.573 334.927 272.666C335.072 272.76 335.247 272.792 335.416 272.755C334.845 272.982 334.336 273.34 333.93 273.802C333.627 274.258 333.515 274.816 333.621 275.355C333.726 275.893 334.04 276.368 334.494 276.676C334.97 276.949 335.529 277.04 336.068 276.93C336.606 276.821 337.085 276.518 337.416 276.08C337.348 276.32 337.367 276.577 337.471 276.805C337.574 277.033 337.754 277.216 337.98 277.324C340.161 278.503 341.272 276.901 341.57 275.046C341.908 273.009 342.343 271.495 340.141 270.409Z" fill="#FFE9B3"/>
<path opacity="0.15" d="M340.141 270.409C339.503 270.049 338.763 269.916 338.04 270.03C337.683 270.099 337.358 270.284 337.117 270.556C336.876 270.828 336.732 271.173 336.708 271.536L335.544 271.467C335.41 271.453 335.274 271.46 335.142 271.487C334.974 271.524 334.827 271.625 334.734 271.77C334.64 271.914 334.608 272.09 334.645 272.258C334.681 272.426 334.783 272.573 334.927 272.666C335.072 272.76 335.247 272.792 335.416 272.755C334.845 272.982 334.336 273.34 333.93 273.802C333.627 274.258 333.515 274.816 333.621 275.355C333.726 275.893 334.04 276.368 334.494 276.676C334.97 276.949 335.529 277.04 336.068 276.93C336.606 276.821 337.085 276.518 337.416 276.08C337.348 276.32 337.367 276.577 337.471 276.805C337.574 277.033 337.754 277.216 337.98 277.324C340.161 278.503 341.272 276.901 341.57 275.046C341.908 273.009 342.343 271.495 340.141 270.409Z" fill="#555555"/>
<path d="M357.451 271.793C356.814 271.433 356.073 271.301 355.35 271.419C354.993 271.486 354.668 271.67 354.427 271.942C354.186 272.213 354.042 272.558 354.018 272.92L352.859 272.852C352.724 272.838 352.588 272.845 352.456 272.872C352.299 272.921 352.165 273.027 352.081 273.169C351.997 273.311 351.969 273.479 352.001 273.641C352.044 273.8 352.145 273.938 352.284 274.027C352.424 274.115 352.591 274.149 352.754 274.12C352.183 274.347 351.675 274.706 351.269 275.166C350.966 275.623 350.855 276.181 350.961 276.719C351.066 277.257 351.379 277.731 351.832 278.04C352.308 278.314 352.867 278.405 353.405 278.297C353.943 278.188 354.423 277.886 354.754 277.449C354.687 277.688 354.706 277.945 354.809 278.172C354.912 278.399 355.093 278.582 355.318 278.688C357.5 279.868 358.611 278.266 358.908 276.41C359.218 274.393 359.653 272.88 357.451 271.793Z" fill="#FFE9B3"/>
<path opacity="0.15" d="M357.451 271.793C356.814 271.433 356.073 271.301 355.35 271.419C354.993 271.486 354.668 271.67 354.427 271.942C354.186 272.213 354.042 272.558 354.018 272.92L352.859 272.852C352.724 272.838 352.588 272.845 352.456 272.872C352.299 272.921 352.165 273.027 352.081 273.169C351.997 273.311 351.969 273.479 352.001 273.641C352.044 273.8 352.145 273.938 352.284 274.027C352.424 274.115 352.591 274.149 352.754 274.12C352.183 274.347 351.675 274.706 351.269 275.166C350.966 275.623 350.855 276.181 350.961 276.719C351.066 277.257 351.379 277.731 351.832 278.04C352.308 278.314 352.867 278.405 353.405 278.297C353.943 278.188 354.423 277.886 354.754 277.449C354.687 277.688 354.706 277.945 354.809 278.172C354.912 278.399 355.093 278.582 355.318 278.688C357.5 279.868 358.611 278.266 358.908 276.41C359.218 274.393 359.653 272.88 357.451 271.793Z" fill="#555555"/>
<path d="M346.986 264.95C346.349 264.59 345.608 264.458 344.885 264.576C344.528 264.643 344.203 264.827 343.962 265.099C343.721 265.371 343.577 265.715 343.553 266.077L342.394 266.009C342.259 265.995 342.124 266.002 341.991 266.029C341.834 266.079 341.7 266.184 341.616 266.326C341.532 266.468 341.504 266.636 341.536 266.798C341.579 266.957 341.68 267.095 341.82 267.184C341.959 267.273 342.126 267.306 342.289 267.277C341.719 267.504 341.21 267.863 340.804 268.323C340.501 268.78 340.391 269.338 340.496 269.876C340.601 270.414 340.914 270.889 341.367 271.197C341.843 271.472 342.402 271.563 342.94 271.454C343.478 271.345 343.958 271.043 344.29 270.606C344.222 270.846 344.241 271.102 344.344 271.329C344.448 271.556 344.628 271.739 344.853 271.846C347.035 273.025 348.146 271.423 348.444 269.567C348.753 267.551 349.188 266.037 346.986 264.95Z" fill="#FFE9B3"/>
<path opacity="0.15" d="M346.986 264.95C346.349 264.59 345.608 264.458 344.885 264.576C344.528 264.643 344.203 264.827 343.962 265.099C343.721 265.371 343.577 265.715 343.553 266.077L342.394 266.009C342.259 265.995 342.124 266.002 341.991 266.029C341.834 266.079 341.7 266.184 341.616 266.326C341.532 266.468 341.504 266.636 341.536 266.798C341.579 266.957 341.68 267.095 341.82 267.184C341.959 267.273 342.126 267.306 342.289 267.277C341.719 267.504 341.21 267.863 340.804 268.323C340.501 268.78 340.391 269.338 340.496 269.876C340.601 270.414 340.914 270.889 341.367 271.197C341.843 271.472 342.402 271.563 342.94 271.454C343.478 271.345 343.958 271.043 344.29 270.606C344.222 270.846 344.241 271.102 344.344 271.329C344.448 271.556 344.628 271.739 344.853 271.846C347.035 273.025 348.146 271.423 348.444 269.567C348.753 267.551 349.188 266.037 346.986 264.95Z" fill="#555555"/>
<path d="M338.936 262.534C338.298 262.174 337.557 262.042 336.835 262.16C336.477 262.227 336.153 262.411 335.911 262.683C335.67 262.955 335.526 263.299 335.502 263.661L334.343 263.593C334.209 263.579 334.073 263.586 333.94 263.613C333.783 263.663 333.65 263.768 333.566 263.91C333.482 264.052 333.453 264.22 333.486 264.382C333.528 264.541 333.629 264.679 333.769 264.768C333.908 264.857 334.076 264.89 334.238 264.861C333.668 265.088 333.159 265.447 332.753 265.907C332.45 266.364 332.34 266.922 332.445 267.46C332.551 267.998 332.864 268.473 333.317 268.781C333.792 269.056 334.351 269.147 334.889 269.038C335.427 268.929 335.907 268.627 336.239 268.19C336.171 268.43 336.19 268.686 336.294 268.913C336.397 269.14 336.577 269.323 336.802 269.429C338.984 270.609 340.095 269.007 340.393 267.151C340.703 265.135 341.137 263.621 338.936 262.534Z" fill="#FFE9B3"/>
<path opacity="0.15" d="M338.936 262.534C338.298 262.174 337.557 262.042 336.835 262.16C336.477 262.227 336.153 262.411 335.911 262.683C335.67 262.955 335.526 263.299 335.502 263.661L334.343 263.593C334.209 263.579 334.073 263.586 333.94 263.613C333.783 263.663 333.65 263.768 333.566 263.91C333.482 264.052 333.453 264.22 333.486 264.382C333.528 264.541 333.629 264.679 333.769 264.768C333.908 264.857 334.076 264.89 334.238 264.861C333.668 265.088 333.159 265.447 332.753 265.907C332.45 266.364 332.34 266.922 332.445 267.46C332.551 267.998 332.864 268.473 333.317 268.781C333.792 269.056 334.351 269.147 334.889 269.038C335.427 268.929 335.907 268.627 336.239 268.19C336.171 268.43 336.19 268.686 336.294 268.913C336.397 269.14 336.577 269.323 336.802 269.429C338.984 270.609 340.095 269.007 340.393 267.151C340.703 265.135 341.137 263.621 338.936 262.534Z" fill="#555555"/>
<path d="M347.791 260.925C347.154 260.565 346.413 260.433 345.69 260.551C345.333 260.618 345.008 260.802 344.767 261.073C344.526 261.345 344.382 261.689 344.358 262.052L343.198 261.984C343.064 261.97 342.928 261.976 342.796 262.004C342.639 262.053 342.505 262.159 342.421 262.301C342.337 262.443 342.309 262.611 342.341 262.773C342.384 262.932 342.485 263.07 342.624 263.158C342.764 263.247 342.931 263.28 343.094 263.252C342.523 263.479 342.014 263.837 341.608 264.298C341.306 264.755 341.195 265.313 341.301 265.851C341.406 266.389 341.719 266.863 342.172 267.172C342.648 267.446 343.207 267.537 343.745 267.428C344.283 267.319 344.763 267.018 345.094 266.58C345.026 266.82 345.046 267.076 345.149 267.303C345.252 267.53 345.432 267.713 345.658 267.82C347.839 268.999 348.95 267.397 349.248 265.542C349.558 263.525 349.993 262.012 347.791 260.925Z" fill="#FFE9B3"/>
<path opacity="0.15" d="M347.791 260.925C347.154 260.565 346.413 260.433 345.69 260.551C345.333 260.618 345.008 260.802 344.767 261.073C344.526 261.345 344.382 261.689 344.358 262.052L343.198 261.984C343.064 261.97 342.928 261.976 342.796 262.004C342.639 262.053 342.505 262.159 342.421 262.301C342.337 262.443 342.309 262.611 342.341 262.773C342.384 262.932 342.485 263.07 342.624 263.158C342.764 263.247 342.931 263.28 343.094 263.252C342.523 263.479 342.014 263.837 341.608 264.298C341.306 264.755 341.195 265.313 341.301 265.851C341.406 266.389 341.719 266.863 342.172 267.172C342.648 267.446 343.207 267.537 343.745 267.428C344.283 267.319 344.763 267.018 345.094 266.58C345.026 266.82 345.046 267.076 345.149 267.303C345.252 267.53 345.432 267.713 345.658 267.82C347.839 268.999 348.95 267.397 349.248 265.542C349.558 263.525 349.993 262.012 347.791 260.925Z" fill="#555555"/>
<path d="M351.014 263.34C350.376 262.98 349.635 262.848 348.913 262.966C348.556 263.033 348.231 263.217 347.99 263.488C347.748 263.76 347.604 264.105 347.58 264.467L346.421 264.399C346.287 264.385 346.151 264.392 346.019 264.419C345.861 264.468 345.728 264.574 345.644 264.716C345.56 264.858 345.531 265.026 345.564 265.188C345.606 265.347 345.708 265.485 345.847 265.574C345.986 265.662 346.154 265.695 346.316 265.667C345.746 265.894 345.237 266.252 344.831 266.713C344.528 267.17 344.418 267.728 344.523 268.266C344.629 268.804 344.942 269.278 345.395 269.587C345.87 269.861 346.43 269.952 346.968 269.843C347.506 269.734 347.985 269.433 348.317 268.995C348.249 269.235 348.269 269.491 348.372 269.718C348.475 269.945 348.655 270.128 348.88 270.235C351.062 271.415 352.173 269.813 352.471 267.957C352.781 265.94 353.216 264.427 351.014 263.34Z" fill="#FFE9B3"/>
<path opacity="0.15" d="M351.014 263.34C350.376 262.98 349.635 262.848 348.913 262.966C348.556 263.033 348.231 263.217 347.99 263.488C347.748 263.76 347.604 264.105 347.58 264.467L346.421 264.399C346.287 264.385 346.151 264.392 346.019 264.419C345.861 264.468 345.728 264.574 345.644 264.716C345.56 264.858 345.531 265.026 345.564 265.188C345.606 265.347 345.708 265.485 345.847 265.574C345.986 265.662 346.154 265.695 346.316 265.667C345.746 265.894 345.237 266.252 344.831 266.713C344.528 267.17 344.418 267.728 344.523 268.266C344.629 268.804 344.942 269.278 345.395 269.587C345.87 269.861 346.43 269.952 346.968 269.843C347.506 269.734 347.985 269.433 348.317 268.995C348.249 269.235 348.269 269.491 348.372 269.718C348.475 269.945 348.655 270.128 348.88 270.235C351.062 271.415 352.173 269.813 352.471 267.957C352.781 265.94 353.216 264.427 351.014 263.34Z" fill="#555555"/>
<path d="M331.287 271.793C330.65 271.433 329.909 271.301 329.186 271.419C328.829 271.486 328.504 271.67 328.263 271.942C328.022 272.213 327.878 272.558 327.854 272.92L326.695 272.852C326.56 272.838 326.424 272.845 326.292 272.872C326.135 272.921 326.001 273.027 325.917 273.169C325.833 273.311 325.805 273.479 325.837 273.641C325.88 273.8 325.981 273.938 326.12 274.027C326.26 274.115 326.427 274.149 326.59 274.12C326.019 274.347 325.511 274.706 325.105 275.166C324.802 275.623 324.691 276.181 324.797 276.719C324.902 277.257 325.215 277.731 325.668 278.04C326.144 278.314 326.703 278.405 327.241 278.297C327.779 278.188 328.259 277.886 328.59 277.449C328.523 277.688 328.542 277.945 328.645 278.172C328.748 278.399 328.929 278.582 329.154 278.688C331.336 279.868 332.446 278.266 332.744 276.41C333.054 274.393 333.489 272.88 331.287 271.793Z" fill="#FFE9B3"/>
<path opacity="0.15" d="M331.287 271.793C330.65 271.433 329.909 271.301 329.186 271.419C328.829 271.486 328.504 271.67 328.263 271.942C328.022 272.213 327.878 272.558 327.854 272.92L326.695 272.852C326.56 272.838 326.424 272.845 326.292 272.872C326.135 272.921 326.001 273.027 325.917 273.169C325.833 273.311 325.805 273.479 325.837 273.641C325.88 273.8 325.981 273.938 326.12 274.027C326.26 274.115 326.427 274.149 326.59 274.12C326.019 274.347 325.511 274.706 325.105 275.166C324.802 275.623 324.691 276.181 324.797 276.719C324.902 277.257 325.215 277.731 325.668 278.04C326.144 278.314 326.703 278.405 327.241 278.297C327.779 278.188 328.259 277.886 328.59 277.449C328.523 277.688 328.542 277.945 328.645 278.172C328.748 278.399 328.929 278.582 329.154 278.688C331.336 279.868 332.446 278.266 332.744 276.41C333.054 274.393 333.489 272.88 331.287 271.793Z" fill="#555555"/>
<path d="M354.635 266.157C353.997 265.797 353.256 265.665 352.534 265.783C352.177 265.85 351.852 266.034 351.611 266.306C351.369 266.578 351.226 266.922 351.201 267.284L350.042 267.216C349.908 267.202 349.772 267.209 349.64 267.236C349.482 267.286 349.349 267.391 349.265 267.533C349.181 267.675 349.152 267.843 349.185 268.005C349.228 268.165 349.329 268.302 349.468 268.391C349.607 268.48 349.775 268.513 349.938 268.484C349.367 268.711 348.858 269.07 348.452 269.531C348.15 269.987 348.039 270.545 348.144 271.083C348.25 271.621 348.563 272.096 349.016 272.404C349.491 272.679 350.051 272.77 350.589 272.661C351.127 272.552 351.606 272.25 351.938 271.813C351.87 272.053 351.89 272.309 351.993 272.536C352.096 272.763 352.276 272.946 352.502 273.053C354.683 274.232 355.794 272.63 356.092 270.774C356.402 268.758 356.837 267.244 354.635 266.157Z" fill="#FFE9B3"/>
<path opacity="0.15" d="M354.635 266.157C353.997 265.797 353.256 265.665 352.534 265.783C352.177 265.85 351.852 266.034 351.611 266.306C351.369 266.578 351.226 266.922 351.201 267.284L350.042 267.216C349.908 267.202 349.772 267.209 349.64 267.236C349.482 267.286 349.349 267.391 349.265 267.533C349.181 267.675 349.152 267.843 349.185 268.005C349.228 268.165 349.329 268.302 349.468 268.391C349.607 268.48 349.775 268.513 349.938 268.484C349.367 268.711 348.858 269.07 348.452 269.531C348.15 269.987 348.039 270.545 348.144 271.083C348.25 271.621 348.563 272.096 349.016 272.404C349.491 272.679 350.051 272.77 350.589 272.661C351.127 272.552 351.606 272.25 351.938 271.813C351.87 272.053 351.89 272.309 351.993 272.536C352.096 272.763 352.276 272.946 352.502 273.053C354.683 274.232 355.794 272.63 356.092 270.774C356.402 268.758 356.837 267.244 354.635 266.157Z" fill="#555555"/>
<path d="M362.283 270.183C361.646 269.823 360.905 269.691 360.182 269.808C359.825 269.876 359.5 270.059 359.259 270.331C359.018 270.603 358.874 270.947 358.85 271.31L357.691 271.241C357.556 271.228 357.42 271.234 357.288 271.262C357.131 271.311 356.997 271.417 356.913 271.559C356.829 271.701 356.801 271.869 356.833 272.03C356.876 272.19 356.977 272.328 357.116 272.416C357.256 272.505 357.423 272.538 357.586 272.509C357.016 272.737 356.507 273.095 356.101 273.556C355.798 274.013 355.687 274.571 355.793 275.108C355.898 275.646 356.211 276.121 356.664 276.43C357.14 276.704 357.699 276.795 358.237 276.686C358.775 276.577 359.255 276.276 359.586 275.838C359.519 276.078 359.538 276.334 359.641 276.561C359.744 276.788 359.925 276.971 360.15 277.078C362.332 278.257 363.443 276.655 363.74 274.8C364.05 272.783 364.485 271.27 362.283 270.183Z" fill="#FFE9B3"/>
<path opacity="0.15" d="M362.283 270.183C361.646 269.823 360.905 269.691 360.182 269.808C359.825 269.876 359.5 270.059 359.259 270.331C359.018 270.603 358.874 270.947 358.85 271.31L357.691 271.241C357.556 271.228 357.42 271.234 357.288 271.262C357.131 271.311 356.997 271.417 356.913 271.559C356.829 271.701 356.801 271.869 356.833 272.03C356.876 272.19 356.977 272.328 357.116 272.416C357.256 272.505 357.423 272.538 357.586 272.509C357.016 272.737 356.507 273.095 356.101 273.556C355.798 274.013 355.687 274.571 355.793 275.108C355.898 275.646 356.211 276.121 356.664 276.43C357.14 276.704 357.699 276.795 358.237 276.686C358.775 276.577 359.255 276.276 359.586 275.838C359.519 276.078 359.538 276.334 359.641 276.561C359.744 276.788 359.925 276.971 360.15 277.078C362.332 278.257 363.443 276.655 363.74 274.8C364.05 272.783 364.485 271.27 362.283 270.183Z" fill="#555555"/>
<path d="M355.842 261.327C355.204 260.967 354.463 260.835 353.741 260.953C353.384 261.02 353.059 261.204 352.818 261.476C352.577 261.748 352.433 262.092 352.408 262.454L351.249 262.386C351.115 262.372 350.979 262.379 350.847 262.406C350.689 262.456 350.556 262.561 350.472 262.703C350.388 262.845 350.359 263.013 350.392 263.175C350.435 263.334 350.536 263.472 350.675 263.561C350.814 263.649 350.982 263.683 351.145 263.654C350.574 263.881 350.065 264.24 349.659 264.7C349.357 265.157 349.246 265.715 349.351 266.253C349.457 266.791 349.77 267.266 350.223 267.574C350.698 267.849 351.258 267.94 351.796 267.831C352.334 267.722 352.814 267.42 353.145 266.983C353.077 267.223 353.097 267.479 353.2 267.706C353.303 267.933 353.483 268.116 353.709 268.222C355.89 269.402 357.001 267.8 357.299 265.944C357.609 263.928 358.044 262.414 355.842 261.327Z" fill="#FFE9B3"/>
<path opacity="0.15" d="M355.842 261.327C355.204 260.967 354.463 260.835 353.741 260.953C353.384 261.02 353.059 261.204 352.818 261.476C352.577 261.748 352.433 262.092 352.408 262.454L351.249 262.386C351.115 262.372 350.979 262.379 350.847 262.406C350.689 262.456 350.556 262.561 350.472 262.703C350.388 262.845 350.359 263.013 350.392 263.175C350.435 263.334 350.536 263.472 350.675 263.561C350.814 263.649 350.982 263.683 351.145 263.654C350.574 263.881 350.065 264.24 349.659 264.7C349.357 265.157 349.246 265.715 349.351 266.253C349.457 266.791 349.77 267.266 350.223 267.574C350.698 267.849 351.258 267.94 351.796 267.831C352.334 267.722 352.814 267.42 353.145 266.983C353.077 267.223 353.097 267.479 353.2 267.706C353.303 267.933 353.483 268.116 353.709 268.222C355.89 269.402 357.001 267.8 357.299 265.944C357.609 263.928 358.044 262.414 355.842 261.327Z" fill="#555555"/>
<path d="M361.476 271.02C361.845 270.387 361.987 269.647 361.879 268.923C361.815 268.565 361.635 268.238 361.365 267.994C361.095 267.749 360.752 267.602 360.389 267.574L360.474 266.415C360.494 266.282 360.494 266.146 360.474 266.013C360.455 265.931 360.42 265.853 360.372 265.785C360.323 265.716 360.261 265.658 360.19 265.613C360.119 265.569 360.04 265.538 359.957 265.524C359.874 265.51 359.789 265.513 359.707 265.532C359.625 265.55 359.548 265.585 359.479 265.634C359.411 265.682 359.352 265.744 359.308 265.815C359.263 265.887 359.233 265.966 359.219 266.049C359.205 266.132 359.207 266.216 359.226 266.298C359.005 265.725 358.652 265.212 358.196 264.801C357.742 264.493 357.185 264.376 356.646 264.475C356.106 264.574 355.628 264.882 355.314 265.332C355.034 265.806 354.937 266.365 355.041 266.904C355.145 267.444 355.442 267.927 355.877 268.263C355.638 268.193 355.381 268.21 355.153 268.311C354.924 268.412 354.739 268.59 354.629 268.814C353.422 270.984 355.032 272.111 356.867 272.437C358.86 272.755 360.373 273.21 361.476 271.02Z" fill="#FFE9B3"/>
<path d="M361.476 264.579C361.845 263.947 361.987 263.207 361.879 262.482C361.815 262.124 361.635 261.797 361.365 261.553C361.095 261.309 360.752 261.161 360.389 261.134L360.474 259.975C360.494 259.841 360.494 259.706 360.474 259.572C360.436 259.407 360.334 259.263 360.19 259.173C360.046 259.083 359.873 259.053 359.707 259.091C359.542 259.129 359.398 259.231 359.308 259.375C359.218 259.519 359.188 259.693 359.226 259.858C359.005 259.285 358.652 258.772 358.196 258.361C357.742 258.052 357.185 257.935 356.646 258.035C356.106 258.134 355.628 258.442 355.314 258.892C355.034 259.365 354.937 259.924 355.041 260.464C355.145 261.003 355.442 261.486 355.877 261.822C355.638 261.752 355.381 261.769 355.153 261.87C354.924 261.971 354.739 262.149 354.629 262.374C353.422 264.543 355.032 265.67 356.867 265.996C358.86 266.314 360.373 266.769 361.476 264.579Z" fill="#FFE9B3"/>
<path d="M354.632 273.033C355.001 272.4 355.143 271.66 355.035 270.936C354.972 270.577 354.791 270.25 354.521 270.006C354.252 269.762 353.908 269.615 353.546 269.587L353.63 268.428C353.651 268.294 353.651 268.159 353.63 268.025C353.592 267.86 353.49 267.716 353.346 267.626C353.203 267.536 353.029 267.506 352.863 267.544C352.698 267.582 352.554 267.684 352.464 267.828C352.374 267.972 352.344 268.146 352.382 268.311C352.161 267.738 351.808 267.225 351.352 266.814C350.898 266.505 350.341 266.388 349.802 266.488C349.262 266.587 348.784 266.895 348.47 267.345C348.19 267.818 348.094 268.377 348.197 268.917C348.301 269.456 348.598 269.94 349.033 270.275C348.794 270.205 348.537 270.222 348.309 270.323C348.081 270.424 347.895 270.603 347.786 270.827C346.578 272.996 348.188 274.123 350.024 274.449C352.016 274.767 353.529 275.222 354.632 273.033Z" fill="#FFE9B3"/>
<path d="M362.281 280.278C362.65 279.645 362.792 278.905 362.683 278.181C362.62 277.822 362.439 277.495 362.17 277.251C361.9 277.007 361.557 276.86 361.194 276.832L361.279 275.673C361.299 275.54 361.299 275.404 361.279 275.27C361.241 275.105 361.139 274.961 360.995 274.871C360.851 274.781 360.677 274.752 360.512 274.789C360.346 274.827 360.203 274.929 360.112 275.073C360.022 275.217 359.993 275.391 360.031 275.556C359.809 274.983 359.456 274.47 359 274.059C358.547 273.75 357.99 273.633 357.45 273.733C356.911 273.832 356.432 274.14 356.118 274.59C355.839 275.063 355.742 275.622 355.846 276.162C355.95 276.702 356.247 277.185 356.682 277.521C356.442 277.451 356.186 277.468 355.957 277.568C355.729 277.669 355.544 277.848 355.434 278.072C354.226 280.242 355.837 281.369 357.672 281.695C359.664 282.013 361.178 282.467 362.281 280.278Z" fill="#FFE9B3"/>
<path d="M347.789 283.095C348.157 282.462 348.299 281.722 348.191 280.998C348.128 280.64 347.947 280.313 347.677 280.069C347.408 279.825 347.065 279.677 346.702 279.65L346.786 278.49C346.807 278.357 346.807 278.221 346.786 278.088C346.748 277.922 346.646 277.779 346.503 277.689C346.359 277.598 346.185 277.569 346.02 277.607C345.854 277.645 345.71 277.747 345.62 277.891C345.53 278.034 345.501 278.208 345.539 278.374C345.317 277.801 344.964 277.288 344.508 276.876C344.054 276.568 343.497 276.451 342.958 276.55C342.419 276.65 341.94 276.958 341.626 277.408C341.347 277.881 341.25 278.44 341.354 278.979C341.457 279.519 341.755 280.002 342.19 280.338C341.95 280.268 341.693 280.285 341.465 280.386C341.237 280.487 341.051 280.665 340.942 280.889C339.734 283.059 341.344 284.186 343.18 284.512C345.172 284.83 346.686 285.285 347.789 283.095Z" fill="#FFE9B3"/>
<path d="M344.57 266.592C344.939 265.959 345.081 265.22 344.972 264.495C344.909 264.137 344.728 263.81 344.459 263.566C344.189 263.322 343.846 263.174 343.483 263.147L343.568 261.987C343.588 261.854 343.588 261.718 343.568 261.585C343.53 261.419 343.428 261.276 343.284 261.186C343.14 261.095 342.966 261.066 342.801 261.104C342.635 261.142 342.492 261.244 342.402 261.388C342.311 261.531 342.282 261.705 342.32 261.871C342.099 261.298 341.746 260.785 341.289 260.373C340.836 260.065 340.279 259.948 339.739 260.047C339.2 260.147 338.721 260.455 338.407 260.905C338.128 261.378 338.031 261.937 338.135 262.476C338.239 263.016 338.536 263.499 338.971 263.835C338.731 263.765 338.475 263.782 338.246 263.883C338.018 263.984 337.833 264.162 337.723 264.386C336.516 266.556 338.126 267.683 339.961 268.009C341.954 268.327 343.467 268.782 344.57 266.592Z" fill="#FFE9B3"/>
<path d="M353.023 264.579C353.392 263.947 353.534 263.207 353.426 262.482C353.362 262.124 353.181 261.797 352.912 261.553C352.642 261.309 352.299 261.161 351.936 261.134L352.021 259.975C352.041 259.841 352.041 259.706 352.021 259.572C351.983 259.407 351.881 259.263 351.737 259.173C351.593 259.083 351.419 259.053 351.254 259.091C351.088 259.129 350.945 259.231 350.855 259.375C350.764 259.519 350.735 259.693 350.773 259.858C350.552 259.285 350.199 258.772 349.743 258.361C349.289 258.052 348.732 257.935 348.192 258.035C347.653 258.134 347.174 258.442 346.86 258.892C346.581 259.365 346.484 259.924 346.588 260.464C346.692 261.003 346.989 261.486 347.424 261.822C347.184 261.752 346.928 261.769 346.699 261.87C346.471 261.971 346.286 262.149 346.176 262.374C344.969 264.543 346.579 265.67 348.414 265.996C350.407 266.314 351.92 266.769 353.023 264.579Z" fill="#FFE9B3"/>
<path d="M336.117 272.227C336.486 271.594 336.628 270.854 336.519 270.13C336.456 269.772 336.275 269.445 336.006 269.201C335.736 268.956 335.393 268.809 335.03 268.781L335.114 267.622C335.135 267.489 335.135 267.353 335.114 267.22C335.077 267.054 334.975 266.911 334.831 266.82C334.687 266.73 334.513 266.701 334.348 266.739C334.182 266.777 334.039 266.879 333.948 267.022C333.858 267.166 333.829 267.34 333.867 267.505C333.645 266.932 333.292 266.419 332.836 266.008C332.383 265.7 331.826 265.583 331.286 265.682C330.747 265.781 330.268 266.09 329.954 266.539C329.675 267.013 329.578 267.572 329.682 268.111C329.785 268.651 330.083 269.134 330.518 269.47C330.278 269.4 330.022 269.417 329.793 269.518C329.565 269.619 329.38 269.797 329.27 270.021C328.062 272.191 329.672 273.318 331.508 273.644C333.5 273.962 335.014 274.417 336.117 272.227Z" fill="#FFE9B3"/>
<path d="M329.702 290.691C331.795 290.522 333.86 289.987 335.961 290.015C338.71 290.051 341.355 291.045 343.859 292.18C344.594 292.464 345.269 292.885 345.847 293.42C346.26 293.896 346.56 294.458 346.726 295.066C346.892 295.674 346.919 296.311 346.805 296.93C346.569 298.169 346.079 299.345 345.364 300.384C344.631 301.547 343.726 302.694 342.45 303.201C341.736 303.448 340.987 303.577 340.232 303.584C337.08 303.757 333.868 303.584 330.877 302.573C329.344 302.05 327.891 301.318 326.389 300.698C321.603 298.717 316.427 297.936 311.343 296.938C311.085 296.907 310.838 296.812 310.627 296.66C309.568 295.747 311.867 292.454 312.406 291.532C313.316 289.967 314.141 289.798 315.984 289.753C320.589 289.637 325.085 290.977 329.702 290.691Z" fill="#A0616A"/>
<path d="M365.516 301.828C364.059 301.112 362.751 300.122 361.306 299.377C359.486 298.441 357.485 297.91 355.441 297.819C354.117 297.759 352.676 297.936 351.714 298.85C350.341 300.154 350.506 302.372 350.957 304.211C351.641 306.968 353.018 309.887 355.662 310.929C356.701 311.277 357.787 311.463 358.882 311.481C363.781 311.819 368.881 312.125 373.421 310.273C373.754 310.169 374.039 309.951 374.226 309.657C374.424 309.255 374.226 308.772 374.025 308.365C373.301 306.908 372.153 303.853 370.753 302.943C369.449 302.07 367.142 302.625 365.516 301.828Z" fill="#A0616A"/>
<path opacity="0.1" d="M377.028 279.908C379.711 284.165 381.917 288.704 383.605 293.444C384.077 294.61 384.349 295.847 384.41 297.103C384.41 298.5 383.923 299.852 383.412 301.173C381.783 305.397 379.893 309.516 377.752 313.506C377.108 314.713 376.372 315.973 375.096 316.637C373.755 317.338 372.105 317.229 370.571 317.04C366.728 316.619 362.918 315.944 359.164 315.019C361.527 315.096 363.66 313.325 364.751 311.397C365.842 309.469 366.083 307.263 366.264 305.109C366.43 303.95 366.381 302.769 366.12 301.628C365.967 301.038 365.674 300.494 365.266 300.043C364.858 299.591 364.347 299.244 363.777 299.031C363.668 297.981 364.67 297.099 365.705 296.616C366.739 296.133 367.915 295.863 368.756 295.139C369.996 294.076 370.173 292.301 369.766 290.796C369.36 289.29 368.474 287.93 367.846 286.485C366.965 284.472 371.513 282.355 371.694 280.181C371.735 279.69 371.388 280.584 371.694 280.181C372 279.779 373.9 281.176 374.331 280.987C377.161 279.763 375.462 277.42 377.028 279.908Z" fill="#555555"/>
<path d="M377.906 279.908C380.589 284.165 382.796 288.705 384.488 293.444C384.962 294.609 385.234 295.847 385.293 297.103C385.293 298.5 384.806 299.852 384.298 301.172C382.668 305.396 380.778 309.515 378.639 313.506C377.995 314.713 377.258 315.973 375.982 316.637C374.642 317.338 372.988 317.229 371.458 317.04C367.614 316.62 363.802 315.945 360.047 315.019C362.406 315.096 364.543 313.324 365.63 311.396C366.717 309.468 366.966 307.263 367.147 305.109C367.311 303.949 367.262 302.769 367.002 301.627C366.848 301.039 366.555 300.496 366.147 300.044C365.74 299.592 365.23 299.245 364.66 299.031C364.547 297.981 365.553 297.099 366.588 296.616C367.622 296.133 368.798 295.863 369.639 295.139C370.875 294.076 371.052 292.301 370.645 290.796C370.239 289.29 369.353 287.93 368.725 286.485C367.847 284.469 367.479 282.268 367.654 280.077C367.663 279.575 367.811 279.086 368.081 278.664C368.381 278.305 368.768 278.028 369.204 277.859C372.046 276.651 376.341 277.42 377.906 279.908Z" fill="#F98A8D"/>
<path opacity="0.1" d="M291.863 275.915C289.251 278.33 286.554 280.882 285.282 284.21C284.59 286.026 284.36 287.982 284.135 289.914C283.757 293.207 283.414 296.733 284.94 299.671C286.631 302.891 290.173 304.618 293.497 306.079C294.647 306.619 295.839 307.066 297.06 307.416C298.66 307.773 300.291 307.973 301.93 308.011L318.711 308.945C316.521 306.739 315.121 303.286 315.418 300.19C315.688 297.425 317.029 294.889 318.377 292.47C319.077 291.222 319.87 289.91 321.162 289.294C315.695 288.086 310.074 287.733 304.498 288.248C304.124 288.28 303.693 288.292 303.448 287.994C303.325 287.807 303.269 287.585 303.287 287.362C303.287 284.863 305.154 282.786 305.927 280.411C307.163 276.603 302.957 278.692 299.173 277.384C295.389 276.076 292.636 271.986 291.863 275.915Z" fill="#555555"/>
<path d="M290.656 275.915C288.044 278.33 285.347 280.882 284.075 284.211C283.383 286.026 283.153 287.982 282.928 289.914C282.55 293.207 282.207 296.733 283.733 299.671C285.424 302.891 288.966 304.618 292.29 306.079C293.44 306.619 294.631 307.066 295.853 307.416C297.453 307.773 299.084 307.973 300.723 308.012L317.504 308.945C315.314 306.74 313.914 303.286 314.211 300.191C314.481 297.425 315.822 294.889 317.17 292.47C317.87 291.223 318.663 289.91 319.955 289.295C314.488 288.086 308.867 287.733 303.291 288.248C302.917 288.28 302.486 288.292 302.241 287.994C302.118 287.807 302.062 287.585 302.08 287.362C302.08 284.863 303.947 282.786 304.72 280.411C305.956 276.603 303.806 271.958 300.019 270.642C296.231 269.326 291.429 271.986 290.656 275.915Z" fill="#F98A8D"/>
<path d="M332.8 232.704C344.026 232.704 353.127 228.92 353.127 224.252C353.127 219.583 344.026 215.799 332.8 215.799C321.573 215.799 312.473 219.583 312.473 224.252C312.473 228.92 321.573 232.704 332.8 232.704Z" fill="#666666"/>
<path opacity="0.1" d="M332.397 229.082C322.669 229.082 314.538 226.236 312.541 222.44C312.238 222.997 312.077 223.619 312.07 224.252C312.07 228.921 321.171 232.705 332.397 232.705C343.624 232.705 352.724 228.921 352.724 224.252C352.718 223.619 352.556 222.997 352.253 222.44C350.257 226.236 342.126 229.082 332.397 229.082Z" fill="#555555"/>
<path d="M359.869 229.931C359.232 229.571 358.491 229.439 357.768 229.557C357.411 229.624 357.086 229.807 356.845 230.079C356.604 230.351 356.46 230.695 356.436 231.058L355.277 230.989C355.142 230.976 355.006 230.982 354.874 231.01C354.717 231.059 354.583 231.165 354.499 231.307C354.415 231.449 354.387 231.617 354.419 231.778C354.462 231.938 354.563 232.076 354.702 232.164C354.842 232.253 355.009 232.286 355.172 232.257C354.601 232.485 354.093 232.843 353.687 233.304C353.384 233.761 353.273 234.319 353.379 234.857C353.484 235.394 353.797 235.869 354.25 236.178C354.726 236.452 355.285 236.543 355.823 236.434C356.361 236.325 356.841 236.024 357.172 235.586C357.105 235.826 357.124 236.082 357.227 236.309C357.33 236.536 357.511 236.719 357.736 236.826C359.918 238.005 361.028 236.403 361.326 234.548C361.636 232.531 362.071 231.018 359.869 229.931Z" fill="#FFE9B3"/>
<path opacity="0.15" d="M359.869 229.931C359.232 229.571 358.491 229.439 357.768 229.557C357.411 229.624 357.086 229.807 356.845 230.079C356.604 230.351 356.46 230.695 356.436 231.058L355.277 230.989C355.142 230.976 355.006 230.982 354.874 231.01C354.717 231.059 354.583 231.165 354.499 231.307C354.415 231.449 354.387 231.617 354.419 231.778C354.462 231.938 354.563 232.076 354.702 232.164C354.842 232.253 355.009 232.286 355.172 232.257C354.601 232.485 354.093 232.843 353.687 233.304C353.384 233.761 353.273 234.319 353.379 234.857C353.484 235.394 353.797 235.869 354.25 236.178C354.726 236.452 355.285 236.543 355.823 236.434C356.361 236.325 356.841 236.024 357.172 235.586C357.105 235.826 357.124 236.082 357.227 236.309C357.33 236.536 357.511 236.719 357.736 236.826C359.918 238.005 361.028 236.403 361.326 234.548C361.636 232.531 362.071 231.018 359.869 229.931Z" fill="#555555"/>
<path d="M379.19 260.523C378.552 260.163 377.811 260.031 377.088 260.148C376.731 260.215 376.407 260.399 376.165 260.671C375.924 260.943 375.78 261.287 375.756 261.65L374.597 261.581C374.462 261.567 374.327 261.574 374.194 261.601C374.037 261.651 373.904 261.757 373.82 261.899C373.736 262.041 373.707 262.209 373.739 262.37C373.782 262.53 373.883 262.667 374.023 262.756C374.162 262.845 374.33 262.878 374.492 262.849C373.922 263.077 373.413 263.435 373.007 263.896C372.704 264.353 372.594 264.91 372.699 265.448C372.805 265.986 373.118 266.461 373.57 266.77C374.046 267.044 374.605 267.135 375.143 267.026C375.681 266.917 376.161 266.616 376.493 266.178C376.425 266.418 376.444 266.674 376.548 266.901C376.651 267.128 376.831 267.311 377.056 267.418C379.238 268.597 380.349 266.995 380.647 265.14C380.957 263.123 381.391 261.609 379.19 260.523Z" fill="#FFE9B3"/>
<path opacity="0.15" d="M379.19 260.523C378.552 260.163 377.811 260.031 377.088 260.148C376.731 260.215 376.407 260.399 376.165 260.671C375.924 260.943 375.78 261.287 375.756 261.65L374.597 261.581C374.462 261.567 374.327 261.574 374.194 261.601C374.037 261.651 373.904 261.757 373.82 261.899C373.736 262.041 373.707 262.209 373.739 262.37C373.782 262.53 373.883 262.667 374.023 262.756C374.162 262.845 374.33 262.878 374.492 262.849C373.922 263.077 373.413 263.435 373.007 263.896C372.704 264.353 372.594 264.91 372.699 265.448C372.805 265.986 373.118 266.461 373.57 266.77C374.046 267.044 374.605 267.135 375.143 267.026C375.681 266.917 376.161 266.616 376.493 266.178C376.425 266.418 376.444 266.674 376.548 266.901C376.651 267.128 376.831 267.311 377.056 267.418C379.238 268.597 380.349 266.995 380.647 265.14C380.957 263.123 381.391 261.609 379.19 260.523Z" fill="#555555"/>
<path d="M401.729 293.126C401.091 292.766 400.35 292.634 399.627 292.752C399.27 292.819 398.946 293.003 398.704 293.275C398.463 293.546 398.319 293.891 398.295 294.253L397.136 294.185C397.002 294.171 396.866 294.178 396.733 294.205C396.576 294.254 396.443 294.36 396.359 294.502C396.275 294.644 396.246 294.812 396.279 294.974C396.321 295.133 396.422 295.271 396.562 295.36C396.701 295.448 396.869 295.482 397.031 295.453C396.461 295.68 395.952 296.039 395.546 296.499C395.243 296.956 395.133 297.514 395.238 298.052C395.344 298.59 395.657 299.064 396.109 299.373C396.585 299.647 397.144 299.739 397.682 299.63C398.22 299.521 398.7 299.219 399.032 298.782C398.964 299.021 398.983 299.278 399.087 299.505C399.19 299.732 399.37 299.915 399.595 300.021C401.777 301.201 402.888 299.599 403.186 297.743C403.496 295.726 403.93 294.213 401.729 293.126Z" fill="#FFE9B3"/>
<path opacity="0.15" d="M401.729 293.126C401.091 292.766 400.35 292.634 399.627 292.752C399.27 292.819 398.946 293.003 398.704 293.275C398.463 293.546 398.319 293.891 398.295 294.253L397.136 294.185C397.002 294.171 396.866 294.178 396.733 294.205C396.576 294.254 396.443 294.36 396.359 294.502C396.275 294.644 396.246 294.812 396.279 294.974C396.321 295.133 396.422 295.271 396.562 295.36C396.701 295.448 396.869 295.482 397.031 295.453C396.461 295.68 395.952 296.039 395.546 296.499C395.243 296.956 395.133 297.514 395.238 298.052C395.344 298.59 395.657 299.064 396.109 299.373C396.585 299.647 397.144 299.739 397.682 299.63C398.22 299.521 398.7 299.219 399.032 298.782C398.964 299.021 398.983 299.278 399.087 299.505C399.19 299.732 399.37 299.915 399.595 300.021C401.777 301.201 402.888 299.599 403.186 297.743C403.496 295.726 403.93 294.213 401.729 293.126Z" fill="#555555"/>
<path d="M367.109 221.108C367.478 220.475 367.62 219.735 367.511 219.011C367.448 218.653 367.267 218.326 366.998 218.081C366.728 217.837 366.385 217.69 366.022 217.662L366.107 216.503C366.127 216.37 366.127 216.234 366.107 216.101C366.069 215.935 365.967 215.791 365.823 215.701C365.679 215.611 365.505 215.582 365.34 215.62C365.174 215.657 365.031 215.759 364.941 215.903C364.85 216.047 364.821 216.221 364.859 216.386C364.638 215.813 364.285 215.3 363.828 214.889C363.375 214.581 362.818 214.463 362.278 214.563C361.739 214.662 361.26 214.97 360.946 215.42C360.667 215.893 360.57 216.452 360.674 216.992C360.778 217.532 361.075 218.015 361.51 218.351C361.27 218.281 361.014 218.298 360.785 218.399C360.557 218.499 360.372 218.678 360.262 218.902C359.055 221.072 360.665 222.199 362.5 222.525C364.493 222.843 366.006 223.298 367.109 221.108Z" fill="#FFE9B3"/>
<path d="M364.695 207.02C365.064 206.387 365.206 205.647 365.097 204.923C365.034 204.565 364.853 204.238 364.584 203.994C364.314 203.749 363.971 203.602 363.608 203.574L363.693 202.415C363.713 202.282 363.713 202.146 363.693 202.013C363.655 201.847 363.553 201.704 363.409 201.613C363.265 201.523 363.091 201.494 362.926 201.532C362.76 201.57 362.617 201.672 362.527 201.815C362.436 201.959 362.407 202.133 362.445 202.298C362.224 201.725 361.871 201.212 361.414 200.801C360.961 200.493 360.404 200.376 359.864 200.475C359.325 200.574 358.846 200.882 358.532 201.332C358.253 201.806 358.156 202.365 358.26 202.904C358.364 203.444 358.661 203.927 359.096 204.263C358.856 204.193 358.6 204.21 358.371 204.311C358.143 204.412 357.958 204.59 357.848 204.814C356.641 206.984 358.251 208.111 360.086 208.437C362.079 208.755 363.592 209.21 364.695 207.02Z" fill="#FFE9B3"/>
<path d="M304.318 322.912C303.681 322.552 302.94 322.42 302.217 322.538C301.86 322.605 301.535 322.789 301.294 323.061C301.053 323.333 300.909 323.677 300.885 324.039L299.726 323.971C299.592 323.95 299.457 323.95 299.323 323.971C299.166 324.02 299.032 324.126 298.948 324.268C298.864 324.41 298.836 324.578 298.868 324.74C298.911 324.899 299.012 325.037 299.152 325.126C299.291 325.214 299.458 325.248 299.621 325.219C299.051 325.446 298.542 325.805 298.136 326.265C297.833 326.722 297.723 327.28 297.828 327.818C297.933 328.356 298.246 328.83 298.699 329.139C299.175 329.413 299.734 329.505 300.272 329.396C300.81 329.287 301.29 328.985 301.622 328.548C301.554 328.787 301.573 329.044 301.676 329.271C301.78 329.498 301.96 329.681 302.185 329.787C304.367 330.967 305.478 329.385 305.776 327.509C306.085 325.513 306.52 323.999 304.318 322.912Z" fill="#FFE9B3"/>
<path opacity="0.15" d="M304.318 322.912C303.681 322.552 302.94 322.42 302.217 322.538C301.86 322.605 301.535 322.789 301.294 323.061C301.053 323.333 300.909 323.677 300.885 324.039L299.726 323.971C299.592 323.95 299.457 323.95 299.323 323.971C299.166 324.02 299.032 324.126 298.948 324.268C298.864 324.41 298.836 324.578 298.868 324.74C298.911 324.899 299.012 325.037 299.152 325.126C299.291 325.214 299.458 325.248 299.621 325.219C299.051 325.446 298.542 325.805 298.136 326.265C297.833 326.722 297.723 327.28 297.828 327.818C297.933 328.356 298.246 328.83 298.699 329.139C299.175 329.413 299.734 329.505 300.272 329.396C300.81 329.287 301.29 328.985 301.622 328.548C301.554 328.787 301.573 329.044 301.676 329.271C301.78 329.498 301.96 329.681 302.185 329.787C304.367 330.967 305.478 329.385 305.776 327.509C306.085 325.513 306.52 323.999 304.318 322.912Z" fill="#555555"/>
<path d="M289.828 322.139C290.196 321.506 290.338 320.766 290.23 320.042C290.167 319.684 289.986 319.357 289.717 319.113C289.447 318.869 289.104 318.721 288.741 318.694L288.825 317.534C288.846 317.401 288.846 317.265 288.825 317.132C288.788 316.966 288.685 316.823 288.542 316.732C288.398 316.642 288.224 316.613 288.059 316.651C287.893 316.689 287.75 316.791 287.659 316.935C287.569 317.078 287.54 317.252 287.578 317.418C287.356 316.845 287.003 316.332 286.547 315.92C286.094 315.612 285.537 315.495 284.997 315.594C284.458 315.694 283.979 316.002 283.665 316.452C283.386 316.925 283.289 317.484 283.393 318.023C283.496 318.563 283.794 319.046 284.229 319.382C283.989 319.312 283.732 319.329 283.504 319.43C283.276 319.531 283.09 319.709 282.981 319.933C281.773 322.103 283.383 323.23 285.219 323.556C287.211 323.874 288.725 324.329 289.828 322.139Z" fill="#FFE9B3"/>
<path d="M309.148 300.001C309.517 299.368 309.659 298.629 309.551 297.904C309.487 297.546 309.306 297.219 309.037 296.975C308.767 296.731 308.424 296.583 308.061 296.556L308.146 295.397C308.166 295.263 308.166 295.127 308.146 294.994C308.108 294.829 308.006 294.685 307.862 294.595C307.718 294.505 307.544 294.475 307.379 294.513C307.213 294.551 307.07 294.653 306.98 294.797C306.889 294.941 306.86 295.114 306.898 295.28C306.677 294.707 306.324 294.194 305.868 293.782C305.414 293.474 304.857 293.357 304.317 293.456C303.778 293.556 303.299 293.864 302.985 294.314C302.706 294.787 302.609 295.346 302.713 295.886C302.817 296.425 303.114 296.908 303.549 297.244C303.309 297.174 303.053 297.191 302.824 297.292C302.596 297.393 302.411 297.571 302.301 297.796C301.094 299.965 302.704 301.092 304.539 301.418C306.532 301.736 308.045 302.191 309.148 300.001Z" fill="#FFE9B3"/>
<path d="M278.223 307.311C274.302 306.308 270.221 305.298 266.26 306.103C264.497 306.461 262.83 307.17 261.116 307.713C256.893 309.022 252.43 309.362 248.058 308.709C243.686 308.056 239.518 306.427 235.862 303.942C231.756 301.104 227.489 296.966 222.627 298.089C221.319 298.395 220.107 299.079 218.771 299.228C216.263 299.514 213.941 297.888 211.453 297.505C207.17 296.849 203.278 299.852 199.986 302.67L182.625 317.526C181.309 318.653 179.86 320.143 180.21 321.833C180.745 324.317 184.549 324.651 185.527 327.006C186.236 328.692 185.064 330.656 183.515 331.618C181.965 332.581 180.089 332.826 178.35 333.41C175.723 334.29 173.368 335.835 171.515 337.894C169.661 339.954 168.372 342.458 167.772 345.163C167.466 346.604 167.37 348.102 166.802 349.462C166.19 350.943 165.083 352.159 164.266 353.535C160.692 359.533 163.039 367.491 160.326 373.923C158.889 377.336 156.011 380.637 156.92 384.223C157.75 387.476 161.32 389.138 164.568 389.999C164.951 392.213 164.166 393.775 162.556 395.365C176.06 400.916 190.555 406.583 204.88 403.745C209.795 402.775 214.581 400.807 219.588 400.887C223.142 400.944 226.656 402.039 230.202 401.789C237.685 401.262 244.556 394.866 251.805 396.786C249.62 396.935 248.811 400.131 250.099 401.906C251.387 403.681 253.758 404.248 255.939 404.458C258.121 404.667 260.431 404.683 262.323 405.794C260.89 408.777 255.758 409.819 256.253 413.1C256.434 414.283 257.392 415.181 258.342 415.917C268.103 423.392 281.547 422.676 293.764 423.968C302.772 424.91 311.603 427.111 320.583 428.287C334.929 430.158 349.472 429.394 363.914 428.621C366.534 428.48 369.473 428.19 371.159 426.177C373.397 423.497 372.154 419.524 371.872 416.046C370.777 402.437 385.662 393.071 389.832 380.069C391.442 374.994 391.374 369.539 391.084 364.214C390.436 352.203 388.556 339.532 380.9 330.258C374.597 322.61 365.174 318.303 355.791 315.148C349.818 313.135 343.559 311.481 337.276 312.072C326.73 313.067 316.075 320.268 306.338 316.097C303.762 314.995 301.568 313.171 299.121 311.811C292.689 308.176 285.391 309.142 278.223 307.311Z" fill="#1877F2"/>
<g opacity="0.1">
<path opacity="0.1" d="M332.682 417.805C323.702 416.63 314.887 414.44 305.862 413.486C293.634 412.206 280.19 412.923 270.441 405.436C269.491 404.708 268.533 403.826 268.352 402.619C267.857 399.346 272.989 398.295 274.422 395.313C272.53 394.202 270.224 394.19 268.038 393.976C265.852 393.763 263.485 393.2 262.197 391.425C260.909 389.649 261.718 386.453 263.904 386.305C256.659 384.385 249.784 390.781 242.301 391.308C238.755 391.557 235.241 390.463 231.687 390.406C226.679 390.326 221.894 392.294 216.979 393.264C202.653 396.082 188.163 390.446 174.654 384.884C176.244 383.274 177.037 381.732 176.667 379.518C173.427 378.657 169.856 376.994 169.019 373.742C168.109 370.156 170.987 366.855 172.424 363.442C175.137 357.001 172.791 349.052 176.365 343.054C177.17 341.678 178.289 340.462 178.901 338.981C179.46 337.62 179.565 336.123 179.871 334.682C180.003 334.051 180.178 333.43 180.394 332.822C179.718 333.007 179.034 333.176 178.382 333.394C175.754 334.274 173.399 335.819 171.546 337.879C169.692 339.938 168.403 342.442 167.803 345.147C167.498 346.588 167.401 348.086 166.833 349.446C166.222 350.927 165.115 352.143 164.298 353.52C160.723 359.517 163.07 367.475 160.357 373.907C158.92 377.32 156.042 380.621 156.952 384.207C157.781 387.46 161.351 389.122 164.599 389.984C164.982 392.197 164.197 393.759 162.587 395.349C176.095 400.9 190.586 406.567 204.911 403.729C209.826 402.759 214.612 400.791 219.619 400.872C223.174 400.928 226.687 402.023 230.234 401.773C237.716 401.246 244.587 394.85 251.837 396.77C249.651 396.919 248.842 400.115 250.13 401.89C251.418 403.665 253.789 404.233 255.97 404.442C258.152 404.651 260.463 404.667 262.354 405.778C260.921 408.761 255.789 409.803 256.284 413.084C256.466 414.267 257.424 415.165 258.373 415.902C268.134 423.376 281.579 422.66 293.795 423.952C302.803 424.894 311.634 427.095 320.615 428.271C334.96 430.143 349.503 429.378 363.945 428.605C366.566 428.464 369.504 428.174 371.191 426.162C372.942 424.061 372.559 421.17 372.177 418.341C358.99 419.025 345.752 419.512 332.682 417.805Z" fill="#555555"/>
<path opacity="0.1" d="M184.947 326.104C186.54 324.687 188.407 323.612 190.433 322.948C192.172 322.385 194.056 322.115 195.598 321.157C197.139 320.199 198.323 318.231 197.61 316.544C196.632 314.206 192.828 313.855 192.293 311.372C192.047 310.229 192.631 309.178 193.444 308.269L182.62 317.526C181.304 318.653 179.855 320.143 180.205 321.833C180.676 323.959 183.518 324.526 184.947 326.104Z" fill="#555555"/>
</g>
<path d="M221.399 318.115C221.767 317.482 221.909 316.742 221.801 316.018C221.738 315.659 221.557 315.332 221.287 315.088C221.018 314.844 220.675 314.697 220.312 314.669L220.396 313.51C220.41 313.375 220.403 313.24 220.376 313.107C220.338 312.942 220.236 312.798 220.092 312.708C219.949 312.618 219.775 312.588 219.609 312.626C219.444 312.664 219.3 312.766 219.21 312.91C219.12 313.054 219.091 313.228 219.128 313.393C218.907 312.82 218.554 312.307 218.098 311.896C217.644 311.587 217.087 311.47 216.548 311.57C216.008 311.669 215.53 311.977 215.216 312.427C214.937 312.9 214.84 313.459 214.943 313.999C215.047 314.538 215.345 315.022 215.779 315.357C215.54 315.287 215.283 315.304 215.055 315.405C214.827 315.506 214.641 315.685 214.532 315.909C213.324 318.078 214.934 319.205 216.77 319.532C218.782 319.85 220.296 320.304 221.399 318.115Z" fill="#FFE9B3"/>
<path d="M280.168 396.203C280.536 395.57 280.678 394.83 280.57 394.105C280.507 393.747 280.326 393.42 280.056 393.176C279.787 392.932 279.443 392.785 279.081 392.757L279.165 391.598C279.186 391.464 279.186 391.329 279.165 391.195C279.127 391.03 279.025 390.886 278.881 390.796C278.738 390.706 278.564 390.676 278.398 390.714C278.233 390.752 278.089 390.854 277.999 390.998C277.909 391.142 277.88 391.316 277.917 391.481C277.696 390.908 277.343 390.395 276.887 389.984C276.433 389.675 275.876 389.558 275.337 389.658C274.797 389.757 274.319 390.065 274.005 390.515C273.726 390.988 273.629 391.547 273.732 392.087C273.836 392.626 274.134 393.11 274.569 393.445C274.329 393.375 274.072 393.392 273.844 393.493C273.616 393.594 273.43 393.772 273.321 393.997C272.113 396.166 273.723 397.293 275.559 397.619C277.551 397.937 279.065 398.392 280.168 396.203Z" fill="#FFE9B3"/>
<path d="M320.418 319.322C320.786 318.689 320.928 317.949 320.82 317.225C320.757 316.866 320.576 316.539 320.306 316.295C320.037 316.051 319.693 315.904 319.331 315.876L319.415 314.717C319.436 314.584 319.436 314.448 319.415 314.314C319.377 314.149 319.275 314.005 319.131 313.915C318.988 313.825 318.814 313.795 318.648 313.833C318.483 313.871 318.339 313.973 318.249 314.117C318.159 314.261 318.13 314.435 318.167 314.6C317.946 314.027 317.593 313.514 317.137 313.103C316.683 312.794 316.126 312.677 315.587 312.777C315.047 312.876 314.569 313.184 314.255 313.634C313.976 314.107 313.879 314.666 313.982 315.206C314.086 315.746 314.384 316.229 314.819 316.564C314.579 316.495 314.322 316.511 314.094 316.612C313.866 316.713 313.68 316.892 313.571 317.116C312.363 319.285 313.973 320.413 315.809 320.739C317.801 321.057 319.315 321.511 320.418 319.322Z" fill="#FFE9B3"/>
<path d="M327.988 318.436C328.656 318.14 329.204 317.625 329.541 316.975C329.702 316.65 329.75 316.28 329.677 315.924C329.604 315.568 329.415 315.247 329.139 315.011L329.883 314.117C329.979 314.015 330.058 313.898 330.117 313.771C330.184 313.615 330.185 313.438 330.122 313.281C330.059 313.123 329.935 312.997 329.779 312.93C329.622 312.863 329.446 312.861 329.288 312.925C329.13 312.988 329.004 313.112 328.938 313.268C329.095 312.675 329.11 312.053 328.982 311.453C328.795 310.936 328.412 310.514 327.916 310.278C327.421 310.042 326.852 310.012 326.333 310.193C325.83 310.412 325.424 310.807 325.192 311.305C324.96 311.802 324.918 312.367 325.073 312.894C324.921 312.697 324.703 312.56 324.46 312.507C324.216 312.454 323.962 312.488 323.741 312.604C321.495 313.654 322.131 315.498 323.435 316.842C324.844 318.312 325.802 319.563 327.988 318.436Z" fill="#FFE9B3"/>
<path d="M240.725 320.497C240.087 320.137 239.346 320.005 238.624 320.123C238.266 320.19 237.942 320.374 237.701 320.646C237.459 320.917 237.315 321.262 237.291 321.624L236.132 321.556C235.999 321.535 235.863 321.535 235.729 321.556C235.572 321.605 235.439 321.711 235.355 321.853C235.271 321.995 235.242 322.163 235.275 322.325C235.317 322.484 235.418 322.622 235.558 322.711C235.697 322.799 235.865 322.833 236.027 322.804C235.457 323.031 234.948 323.39 234.542 323.85C234.239 324.307 234.129 324.865 234.234 325.403C234.34 325.941 234.653 326.415 235.106 326.724C235.581 326.998 236.14 327.089 236.679 326.981C237.217 326.872 237.696 326.57 238.028 326.133C237.96 326.372 237.98 326.629 238.083 326.856C238.186 327.082 238.366 327.266 238.591 327.372C240.773 328.552 241.884 326.97 242.182 325.094C242.492 323.098 242.926 321.584 240.725 320.497Z" fill="#FFE9B3"/>
<path opacity="0.15" d="M240.725 320.497C240.087 320.137 239.346 320.005 238.624 320.123C238.266 320.19 237.942 320.374 237.701 320.646C237.459 320.917 237.315 321.262 237.291 321.624L236.132 321.556C235.999 321.535 235.863 321.535 235.729 321.556C235.572 321.605 235.439 321.711 235.355 321.853C235.271 321.995 235.242 322.163 235.275 322.325C235.317 322.484 235.418 322.622 235.558 322.711C235.697 322.799 235.865 322.833 236.027 322.804C235.457 323.031 234.948 323.39 234.542 323.85C234.239 324.307 234.129 324.865 234.234 325.403C234.34 325.941 234.653 326.415 235.106 326.724C235.581 326.998 236.14 327.089 236.679 326.981C237.217 326.872 237.696 326.57 238.028 326.133C237.96 326.372 237.98 326.629 238.083 326.856C238.186 327.082 238.366 327.266 238.591 327.372C240.773 328.552 241.884 326.97 242.182 325.094C242.492 323.098 242.926 321.584 240.725 320.497Z" fill="#555555"/>
<path d="M276.563 350.44C276.687 349.719 276.565 348.978 276.217 348.335C276.035 348.02 275.753 347.774 275.415 347.638C275.077 347.502 274.704 347.482 274.354 347.582L274.032 346.463C274 346.321 273.946 346.185 273.871 346.06C273.778 345.918 273.632 345.818 273.466 345.783C273.299 345.748 273.126 345.78 272.983 345.873C272.841 345.966 272.741 346.112 272.706 346.278C272.671 346.445 272.703 346.618 272.796 346.761C272.392 346.297 271.885 345.936 271.315 345.706C270.782 345.574 270.219 345.656 269.747 345.936C269.275 346.215 268.931 346.669 268.791 347.2C268.692 347.74 268.793 348.298 269.076 348.768C269.36 349.239 269.805 349.59 270.329 349.756C270.08 349.772 269.845 349.876 269.665 350.049C269.485 350.222 269.372 350.453 269.346 350.702C268.944 353.153 270.844 353.664 272.691 353.326C274.704 352.96 276.274 352.855 276.563 350.44Z" fill="#FFE9B3"/>
<path opacity="0.15" d="M276.563 350.44C276.687 349.719 276.565 348.978 276.217 348.335C276.035 348.02 275.753 347.774 275.415 347.638C275.077 347.502 274.704 347.482 274.354 347.582L274.032 346.463C274 346.321 273.946 346.185 273.871 346.06C273.778 345.918 273.632 345.818 273.466 345.783C273.299 345.748 273.126 345.78 272.983 345.873C272.841 345.966 272.741 346.112 272.706 346.278C272.671 346.445 272.703 346.618 272.796 346.761C272.392 346.297 271.885 345.936 271.315 345.706C270.782 345.574 270.219 345.656 269.747 345.936C269.275 346.215 268.931 346.669 268.791 347.2C268.692 347.74 268.793 348.298 269.076 348.768C269.36 349.239 269.805 349.59 270.329 349.756C270.08 349.772 269.845 349.876 269.665 350.049C269.485 350.222 269.372 350.453 269.346 350.702C268.944 353.153 270.844 353.664 272.691 353.326C274.704 352.96 276.274 352.855 276.563 350.44Z" fill="#555555"/>
<path d="M324.864 313.811C324.988 313.09 324.866 312.349 324.518 311.706C324.336 311.391 324.053 311.145 323.716 311.009C323.378 310.873 323.005 310.853 322.654 310.953L322.332 309.834C322.301 309.692 322.246 309.556 322.171 309.432C322.125 309.361 322.066 309.3 321.997 309.253C321.927 309.205 321.849 309.172 321.766 309.154C321.684 309.137 321.599 309.136 321.516 309.151C321.433 309.167 321.354 309.198 321.284 309.244C321.213 309.29 321.153 309.35 321.105 309.419C321.057 309.489 321.024 309.567 321.006 309.649C320.989 309.732 320.988 309.817 321.004 309.9C321.019 309.982 321.051 310.061 321.097 310.132C320.693 309.668 320.186 309.307 319.615 309.077C319.083 308.945 318.52 309.027 318.048 309.307C317.575 309.586 317.232 310.04 317.092 310.571C316.993 311.111 317.094 311.669 317.377 312.139C317.66 312.61 318.106 312.961 318.629 313.127C318.38 313.143 318.145 313.247 317.966 313.42C317.786 313.594 317.673 313.824 317.647 314.073C317.245 316.524 319.145 317.035 320.992 316.697C323.005 316.331 324.574 316.226 324.864 313.811Z" fill="#FFE9B3"/>
<path opacity="0.15" d="M324.864 313.811C324.988 313.09 324.866 312.349 324.518 311.706C324.336 311.391 324.053 311.145 323.716 311.009C323.378 310.873 323.005 310.853 322.654 310.953L322.332 309.834C322.301 309.692 322.246 309.556 322.171 309.432C322.125 309.361 322.066 309.3 321.997 309.253C321.927 309.205 321.849 309.172 321.766 309.154C321.684 309.137 321.599 309.136 321.516 309.151C321.433 309.167 321.354 309.198 321.284 309.244C321.213 309.29 321.153 309.35 321.105 309.419C321.057 309.489 321.024 309.567 321.006 309.649C320.989 309.732 320.988 309.817 321.004 309.9C321.019 309.982 321.051 310.061 321.097 310.132C320.693 309.668 320.186 309.307 319.615 309.077C319.083 308.945 318.52 309.027 318.048 309.307C317.575 309.586 317.232 310.04 317.092 310.571C316.993 311.111 317.094 311.669 317.377 312.139C317.66 312.61 318.106 312.961 318.629 313.127C318.38 313.143 318.145 313.247 317.966 313.42C317.786 313.594 317.673 313.824 317.647 314.073C317.245 316.524 319.145 317.035 320.992 316.697C323.005 316.331 324.574 316.226 324.864 313.811Z" fill="#555555"/>
<path d="M180.809 619V590.445H186.863V614H198.445V619H180.809ZM208.503 608.043C208.503 610.204 208.855 611.839 209.558 612.945C210.274 614.052 211.433 614.605 213.034 614.605C214.623 614.605 215.762 614.059 216.452 612.965C217.155 611.858 217.507 610.217 217.507 608.043C217.507 605.882 217.155 604.26 216.452 603.18C215.749 602.099 214.597 601.559 212.995 601.559C211.407 601.559 210.261 602.099 209.558 603.18C208.855 604.247 208.503 605.868 208.503 608.043ZM223.601 608.043C223.601 611.598 222.663 614.378 220.788 616.383C218.913 618.388 216.303 619.391 212.956 619.391C210.86 619.391 209.011 618.935 207.409 618.023C205.808 617.099 204.577 615.777 203.718 614.059C202.859 612.34 202.429 610.335 202.429 608.043C202.429 604.475 203.36 601.702 205.222 599.723C207.084 597.743 209.701 596.754 213.073 596.754C215.17 596.754 217.019 597.21 218.62 598.121C220.222 599.033 221.452 600.341 222.312 602.047C223.171 603.753 223.601 605.751 223.601 608.043ZM243.19 619L242.037 616.031H241.881C240.879 617.294 239.843 618.173 238.776 618.668C237.721 619.15 236.341 619.391 234.635 619.391C232.539 619.391 230.885 618.792 229.674 617.594C228.476 616.396 227.877 614.69 227.877 612.477C227.877 610.159 228.685 608.453 230.299 607.359C231.927 606.253 234.375 605.641 237.643 605.523L241.432 605.406V604.449C241.432 602.236 240.299 601.129 238.034 601.129C236.289 601.129 234.238 601.656 231.881 602.711L229.909 598.688C232.422 597.372 235.208 596.715 238.268 596.715C241.198 596.715 243.444 597.353 245.006 598.629C246.569 599.905 247.35 601.845 247.35 604.449V619H243.19ZM241.432 608.883L239.127 608.961C237.396 609.013 236.107 609.326 235.26 609.898C234.414 610.471 233.991 611.344 233.991 612.516C233.991 614.195 234.954 615.035 236.881 615.035C238.261 615.035 239.362 614.638 240.182 613.844C241.015 613.049 241.432 611.995 241.432 610.68V608.883ZM261.216 619.391C258.651 619.391 256.633 618.395 255.162 616.402C253.703 614.41 252.974 611.65 252.974 608.121C252.974 604.54 253.716 601.754 255.201 599.762C256.698 597.757 258.755 596.754 261.373 596.754C264.12 596.754 266.216 597.822 267.662 599.957H267.857C267.558 598.329 267.408 596.878 267.408 595.602V588.609H273.384V619H268.814L267.662 616.168H267.408C266.054 618.316 263.99 619.391 261.216 619.391ZM263.306 614.645C264.83 614.645 265.943 614.202 266.646 613.316C267.362 612.431 267.753 610.927 267.818 608.805V608.16C267.818 605.816 267.453 604.137 266.724 603.121C266.008 602.105 264.836 601.598 263.209 601.598C261.88 601.598 260.845 602.164 260.103 603.297C259.374 604.417 259.009 606.051 259.009 608.199C259.009 610.348 259.38 611.962 260.123 613.043C260.865 614.111 261.926 614.645 263.306 614.645ZM280.161 591.52C280.161 589.579 281.242 588.609 283.403 588.609C285.565 588.609 286.645 589.579 286.645 591.52C286.645 592.444 286.372 593.167 285.825 593.688C285.291 594.195 284.484 594.449 283.403 594.449C281.242 594.449 280.161 593.473 280.161 591.52ZM286.372 619H280.415V597.164H286.372V619ZM313.598 619H307.641V606.246C307.641 604.671 307.361 603.492 306.801 602.711C306.241 601.917 305.349 601.52 304.125 601.52C302.458 601.52 301.254 602.079 300.512 603.199C299.77 604.306 299.398 606.148 299.398 608.727V619H293.441V597.164H297.992L298.793 599.957H299.125C299.789 598.902 300.701 598.108 301.859 597.574C303.031 597.027 304.359 596.754 305.844 596.754C308.383 596.754 310.31 597.444 311.625 598.824C312.94 600.191 313.598 602.171 313.598 604.762V619ZM339.534 597.164V600.191L336.116 601.07C336.741 602.047 337.054 603.141 337.054 604.352C337.054 606.695 336.234 608.525 334.593 609.84C332.965 611.142 330.7 611.793 327.796 611.793L326.722 611.734L325.843 611.637C325.231 612.105 324.925 612.626 324.925 613.199C324.925 614.059 326.019 614.488 328.206 614.488H331.917C334.313 614.488 336.136 615.003 337.386 616.031C338.649 617.06 339.28 618.57 339.28 620.562C339.28 623.115 338.213 625.094 336.077 626.5C333.955 627.906 330.902 628.609 326.917 628.609C323.87 628.609 321.54 628.076 319.925 627.008C318.323 625.953 317.523 624.469 317.523 622.555C317.523 621.24 317.933 620.139 318.753 619.254C319.573 618.368 320.778 617.737 322.366 617.359C321.754 617.099 321.221 616.676 320.765 616.09C320.309 615.491 320.081 614.859 320.081 614.195C320.081 613.362 320.322 612.672 320.804 612.125C321.286 611.565 321.982 611.018 322.894 610.484C321.748 609.99 320.836 609.195 320.159 608.102C319.495 607.008 319.163 605.719 319.163 604.234C319.163 601.852 319.938 600.009 321.488 598.707C323.037 597.405 325.251 596.754 328.128 596.754C328.74 596.754 329.463 596.812 330.296 596.93C331.142 597.034 331.683 597.112 331.917 597.164H339.534ZM322.679 622.086C322.679 622.906 323.07 623.551 323.851 624.02C324.645 624.488 325.752 624.723 327.171 624.723C329.307 624.723 330.98 624.43 332.191 623.844C333.402 623.258 334.007 622.457 334.007 621.441C334.007 620.621 333.649 620.055 332.933 619.742C332.217 619.43 331.11 619.273 329.613 619.273H326.527C325.433 619.273 324.515 619.527 323.773 620.035C323.043 620.556 322.679 621.24 322.679 622.086ZM324.847 604.312C324.847 605.497 325.114 606.435 325.648 607.125C326.195 607.815 327.021 608.16 328.128 608.16C329.248 608.16 330.068 607.815 330.589 607.125C331.11 606.435 331.37 605.497 331.37 604.312C331.37 601.682 330.29 600.367 328.128 600.367C325.941 600.367 324.847 601.682 324.847 604.312ZM354.298 616.207C354.298 615.113 354.591 614.286 355.177 613.727C355.763 613.167 356.616 612.887 357.736 612.887C358.817 612.887 359.65 613.173 360.236 613.746C360.835 614.319 361.134 615.139 361.134 616.207C361.134 617.236 360.835 618.049 360.236 618.648C359.637 619.234 358.804 619.527 357.736 619.527C356.642 619.527 355.796 619.241 355.197 618.668C354.598 618.082 354.298 617.262 354.298 616.207ZM366.505 616.207C366.505 615.113 366.798 614.286 367.384 613.727C367.97 613.167 368.822 612.887 369.942 612.887C371.023 612.887 371.856 613.173 372.442 613.746C373.041 614.319 373.341 615.139 373.341 616.207C373.341 617.236 373.041 618.049 372.442 618.648C371.843 619.234 371.01 619.527 369.942 619.527C368.848 619.527 368.002 619.241 367.403 618.668C366.804 618.082 366.505 617.262 366.505 616.207ZM378.711 616.207C378.711 615.113 379.004 614.286 379.59 613.727C380.176 613.167 381.029 612.887 382.148 612.887C383.229 612.887 384.062 613.173 384.648 613.746C385.247 614.319 385.547 615.139 385.547 616.207C385.547 617.236 385.247 618.049 384.648 618.648C384.049 619.234 383.216 619.527 382.148 619.527C381.055 619.527 380.208 619.241 379.609 618.668C379.01 618.082 378.711 617.262 378.711 616.207Z" fill="#999999"/>
</svg>
