<svg width="792" height="782" viewBox="0 0 792 782" fill="none" xmlns="http://www.w3.org/2000/svg">
<path fill-rule="evenodd" clip-rule="evenodd" d="M783.923 163.672C918.724 214.582 984.095 357.026 1027.83 494.323C1071.86 632.55 1096.72 784.184 1021 907.93C941.761 1037.44 795.561 1108.6 644.258 1121.22C492.289 1133.9 336.236 1087.77 235.297 973.465C137.486 862.701 119.416 705.613 149.497 560.939C177.263 427.396 269.763 324.078 385.368 251.688C506.686 175.72 650.014 113.1 783.923 163.672Z" fill="#DAE8FE"/>
<g filter="url(#filter0_f_363_1166)">
<circle cx="386" cy="380" r="100" fill="#96B7E8"/>
</g>
<path d="M196.517 140.618C196.517 140.618 175.145 149.073 172.002 169.61C168.859 190.147 217.425 250.304 217.425 250.304L367.198 169.597L319.844 86.4951L196.517 140.618Z" fill="#C7DCF9"/>
<path d="M229.634 160.03C229.634 160.03 213.874 176.21 209.04 194.113C204.206 212.016 203.584 243.987 204.389 255.962C227.899 277.718 320.826 259.488 320.826 259.488L410.378 154.146C410.378 154.146 395.197 125.324 387.49 117.423C379.783 109.521 354.802 99.6958 325.981 111.294C309.065 135.3 229.634 160.03 229.634 160.03Z" fill="#E1ECFF"/>
<g style="mix-blend-mode:multiply">
<path d="M222.598 168.397C222.598 168.397 257.366 179.554 296.503 164.436C335.641 149.318 342.731 106.736 342.731 106.736L325.96 111.3L229.632 160.03L222.598 168.397Z" fill="#E1ECFF"/>
</g>
<path d="M364.137 299.016C364.137 299.016 408.095 299.299 420.448 302.454C432.8 305.61 465.494 379.604 479.021 386.688C492.549 393.772 504.04 382.005 518.944 373.267C533.849 364.529 547.508 353.956 547.936 349.543C548.363 345.131 542.033 327.498 536.558 323.94C531.083 320.382 515.185 320.131 506.705 325.562C494.246 291.617 476.532 242.114 460.289 235.3C444.046 228.486 394.819 225.242 394.819 225.242L364.137 299.016Z" fill="#E1ECFF"/>
<g style="mix-blend-mode:multiply" opacity="0.51">
<path d="M410.381 266.617C410.381 266.617 446.174 270.533 456.062 283.854C465.95 297.174 485.544 378.679 507.476 380.609C507.828 407.011 462.405 416.547 462.405 416.547L353.523 295.565L410.381 266.617Z" fill="#E1ECFF"/>
</g>
<path d="M246.035 292.34C246.035 292.34 273.065 349.034 297.581 364.498C322.097 379.962 366.514 378.711 378.766 388.838C391.018 398.965 388.428 447.613 400.673 460.499C412.918 473.386 430.149 481.281 446.254 479.829C462.359 478.377 475.245 470.651 475.408 463.403C475.572 456.156 474.924 449.869 467.356 446.003C459.788 442.138 449.126 438.919 448.667 434.412C448.209 429.905 439.647 361.286 436.095 342.635C432.544 323.984 404.96 298.041 369.412 284.973C335.75 256.786 284.047 268.861 284.047 268.861L246.035 292.34Z" fill="#E1ECFF"/>
<g style="mix-blend-mode:multiply">
<path d="M253.899 307.508C253.899 307.508 284.921 309.092 312.781 296.853C307.457 268.503 291.031 260.13 291.031 260.13L246.035 292.34L253.899 307.508Z" fill="#E1ECFF"/>
</g>
<path d="M296.825 11.44C272.53 -1.56588 221.612 -5.95357 190.182 33.0265C158.751 72.0066 174.416 112.432 187.623 131.253C201.453 151.004 248.988 181.19 299.723 152.839C350.458 124.489 355.776 43.0088 296.825 11.44Z" fill="#E1ECFF"/>
<path d="M292.644 35.2759C314.225 40.4305 328.243 70.7106 320.995 99.702C313.747 128.694 288.778 148.187 260.755 148.344C232.732 148.501 204.865 129.366 205.016 93.5857C205.167 59.2007 245.782 24.0866 292.644 35.2759Z" fill="#1C3177"/>
<g style="mix-blend-mode:multiply">
<path d="M230.469 261.739C258.586 248.689 237.553 218.893 265.583 212.116C302.539 217.371 312.76 215.486 312.76 215.486C312.76 215.486 242.06 277.58 230.469 261.739Z" fill="#E1ECFF"/>
</g>
<path d="M253.895 182.044L300.688 302.454L366.887 300.876L427.447 262.544L445.488 207.779L401.681 76.3496L380.415 137.878L325.33 181.686L253.895 182.044Z" fill="#FF97C9"/>
<path d="M230.471 261.739C245.985 260.482 253.886 250.38 258.588 245.898C260.983 243.61 260.506 241.605 259.299 235.004C258.092 228.404 262.278 221.634 267.999 218.736C271.142 227.191 275.001 228.794 277.981 228.398C280.961 228.002 284.022 210.199 293.765 210.357C303.509 210.514 311.322 223.406 312.624 229.843C313.925 236.28 307.632 254.642 299.737 267.529C291.842 280.415 280.703 296.369 255.628 301.36C230.552 306.351 216.296 293.547 208.08 277.36C205.307 271.897 204.308 264.348 204.396 255.937C204.396 255.937 210.009 263.348 230.471 261.739Z" fill="#E1ECFF"/>
<path d="M416.769 121.616C416.769 121.616 419.755 131.328 417.744 135.112C415.732 138.896 412.991 142.027 410.98 146.873C408.968 151.72 411.948 169.987 420.805 173.124C429.662 176.261 436.992 168.051 439.33 163.299C441.669 158.547 440.374 146.069 436.91 137.369C433.446 128.669 426.934 120.937 416.769 121.616Z" fill="#E1ECFF"/>
<path d="M426.955 0.947758L428.942 4.97085C429.061 5.21464 429.237 5.42567 429.456 5.58561C429.675 5.74556 429.93 5.84958 430.199 5.88863L434.643 6.51724C434.954 6.56173 435.246 6.69245 435.486 6.89454C435.726 7.09664 435.905 7.36201 436.002 7.66054C436.098 7.95906 436.11 8.27877 436.034 8.58336C435.958 8.88796 435.799 9.16523 435.573 9.3837L432.361 12.5267C432.166 12.716 432.02 12.9501 431.935 13.2086C431.851 13.4671 431.831 13.7423 431.877 14.0103L432.631 18.4105C432.685 18.7191 432.651 19.0365 432.533 19.3267C432.416 19.617 432.219 19.8685 431.966 20.0529C431.713 20.2374 431.413 20.3473 431.101 20.3703C430.789 20.3933 430.476 20.3285 430.199 20.1832L426.22 18.0962C425.98 17.9691 425.712 17.9026 425.44 17.9026C425.168 17.9026 424.901 17.9691 424.661 18.0962L420.682 20.1832C420.404 20.3303 420.091 20.3965 419.777 20.3743C419.464 20.3522 419.163 20.2425 418.909 20.0578C418.655 19.8731 418.458 19.6208 418.34 19.3296C418.222 19.0384 418.188 18.72 418.243 18.4105L419.003 14.0103C419.049 13.7423 419.029 13.4671 418.945 13.2086C418.861 12.9501 418.714 12.716 418.519 12.5267L415.307 9.3837C415.082 9.16523 414.922 8.88796 414.846 8.58336C414.771 8.27877 414.782 7.95906 414.879 7.66054C414.976 7.36201 415.154 7.09664 415.395 6.89454C415.635 6.69245 415.927 6.56173 416.237 6.51724L420.682 5.88863C420.95 5.84958 421.205 5.74556 421.424 5.58561C421.643 5.42567 421.82 5.21464 421.939 4.97085L423.925 0.947758C424.063 0.663605 424.279 0.424045 424.547 0.256456C424.815 0.0888678 425.124 0 425.44 0C425.756 0 426.066 0.0888678 426.334 0.256456C426.602 0.424045 426.817 0.663605 426.955 0.947758Z" fill="#FEC272"/>
<path d="M214.283 426.698L215.948 430.074C216.048 430.279 216.196 430.456 216.38 430.59C216.564 430.723 216.779 430.81 217.004 430.841L220.732 431.381C220.992 431.419 221.236 431.529 221.437 431.699C221.637 431.868 221.787 432.09 221.868 432.34C221.949 432.59 221.958 432.857 221.895 433.112C221.832 433.367 221.699 433.599 221.512 433.783L218.815 436.41C218.649 436.57 218.526 436.769 218.456 436.988C218.385 437.208 218.371 437.441 218.412 437.667L219.041 441.376C219.084 441.635 219.055 441.901 218.955 442.144C218.856 442.386 218.691 442.597 218.479 442.752C218.267 442.906 218.017 442.999 217.755 443.019C217.493 443.039 217.231 442.986 216.998 442.866L213.666 441.112C213.465 441.007 213.24 440.952 213.013 440.952C212.785 440.952 212.561 441.007 212.359 441.112L209.04 442.853C208.807 442.976 208.544 443.031 208.282 443.012C208.019 442.993 207.767 442.9 207.554 442.745C207.341 442.59 207.176 442.378 207.078 442.134C206.979 441.89 206.951 441.623 206.997 441.364L207.626 437.655C207.664 437.428 207.648 437.195 207.576 436.976C207.505 436.757 207.382 436.558 207.217 436.398L204.526 433.77C204.339 433.587 204.206 433.354 204.143 433.099C204.08 432.845 204.089 432.577 204.17 432.327C204.251 432.078 204.401 431.855 204.601 431.686C204.802 431.517 205.046 431.407 205.306 431.369L209.027 430.828C209.253 430.797 209.468 430.71 209.654 430.576C209.839 430.443 209.988 430.266 210.09 430.061L211.755 426.686C211.873 426.45 212.054 426.252 212.278 426.114C212.502 425.976 212.76 425.904 213.023 425.905C213.286 425.907 213.543 425.982 213.766 426.122C213.989 426.262 214.168 426.462 214.283 426.698Z" fill="#FEC272"/>
<g style="mix-blend-mode:soft-light" opacity="0.48">
<path d="M273.808 71.4202C289.279 68.0104 300.842 60.8102 299.636 55.3382C298.43 49.8662 284.911 48.1945 269.441 51.6043C253.971 55.0141 242.407 62.2143 243.614 67.6863C244.82 73.1583 258.338 74.83 273.808 71.4202Z" fill="white"/>
</g>
<g style="mix-blend-mode:multiply">
<path d="M309.037 247.897C309.037 247.897 291.241 231.993 288.016 231.993C284.791 231.993 276.204 244.565 278.14 247.897C280.077 251.229 290.021 262.141 300.94 265.498C304.479 258.747 309.037 247.897 309.037 247.897Z" fill="#E1ECFF"/>
</g>
<g style="mix-blend-mode:multiply" opacity="0.5">
<path d="M325.332 181.686L366.889 300.876L427.45 262.544L380.417 137.878L325.332 181.686Z" fill="#FF97C9"/>
</g>
<g style="mix-blend-mode:multiply">
<path d="M439.654 365.402C433.426 370.563 426.426 374.714 418.91 377.704C411.863 380.42 409.481 385.977 411.612 396.173C413.743 406.369 414.937 422.266 419.338 426.453C423.738 430.639 438.875 428.414 446.72 418.683C444.262 399.511 439.654 365.402 439.654 365.402Z" fill="#E1ECFF"/>
</g>
<g style="mix-blend-mode:multiply">
<path d="M480.677 261.449C480.677 261.449 471.876 265.284 472.712 271.4C473.548 277.516 482.537 307.08 486.083 309.745C489.628 312.411 500.12 307.683 500.12 307.683C489.345 277.158 480.677 261.449 480.677 261.449Z" fill="#E1ECFF"/>
</g>
<path d="M109.292 332.194C102.296 317.686 125.095 302.159 144.494 303.278C163.893 304.397 172.046 322.306 178.917 328.988C193.268 342.931 192.815 356.571 182.877 362.436C172.939 368.301 118.551 351.385 109.292 332.194Z" fill="#1877F2"/>
<path d="M636.497 181.58C628.388 164.765 654.814 146.769 677.297 148.066C699.781 149.363 709.23 170.12 717.194 177.865C733.827 194.024 733.302 209.834 721.784 216.632C710.265 223.429 647.229 203.824 636.497 181.58Z" fill="#1877F2"/>
<path d="M500.639 107.434C494.981 102.48 500.802 79.1966 514.166 73.7466C527.531 68.2965 544.126 74.2558 547.671 83.5969C551.217 92.938 512.237 117.58 500.639 107.434Z" fill="#1877F2"/>
<path d="M566.131 119.893C563.233 124.023 561.303 135.784 567.42 137.877C573.536 139.971 578.162 127.87 576.013 121.571C573.863 115.273 568.067 117.133 566.131 119.893Z" fill="#1877F2"/>
<path opacity="0.44" d="M570.528 24.4514C565.964 26.6012 558.439 35.8418 562.714 40.7009C566.989 45.5601 577.002 37.3504 578.266 30.8192C579.529 24.2879 573.576 23.0182 570.528 24.4514Z" fill="#1877F2"/>
<path opacity="0.44" d="M141.387 393.238C137.439 390.095 125.829 387.423 123.352 393.401C120.875 399.379 132.668 404.716 139.067 402.994C145.467 401.271 144.015 395.337 141.387 393.238Z" fill="#1877F2"/>
<g style="mix-blend-mode:multiply" opacity="0.64">
<path d="M175.476 325.009C168.455 326.329 169.586 332.609 171.836 338.298C174.087 343.987 182.007 345.608 187.596 340.41C183.969 331.779 175.476 325.009 175.476 325.009Z" fill="#1877F2"/>
</g>
<g style="mix-blend-mode:multiply" opacity="0.64">
<path d="M135.115 315.535C130.086 316.095 125.987 323.374 129.532 329.277C133.078 335.179 139.835 339.479 143.701 337.87C147.567 336.26 148.215 327.56 145.424 321.978C142.633 316.396 139.949 314.995 135.115 315.535Z" fill="#1877F2"/>
</g>
<g style="mix-blend-mode:multiply" opacity="0.64">
<path d="M531.979 78.7631C529.22 79.6431 526.422 82.629 526.667 85.8538C526.913 89.0786 529.729 91.8947 532.784 91.5113C535.839 91.1278 538.441 86.1932 537.813 82.6479C537.184 79.1025 534.085 78.0968 531.979 78.7631Z" fill="#1877F2"/>
</g>
<g style="mix-blend-mode:multiply" opacity="0.64">
<path d="M502.755 85.0498C502.755 85.0498 506.527 88.8215 505.898 93.1023C505.269 97.3831 498.77 96.9871 498.77 96.9871C498.77 96.9871 499.738 89.6889 502.755 85.0498Z" fill="#1877F2"/>
</g>
<path d="M579.822 588.849C572.411 582.36 580.036 551.862 597.541 544.723C615.047 537.584 636.784 545.39 641.428 557.625C646.072 569.861 595.014 602.138 579.822 588.849Z" fill="#1877F2"/>
<path fill-rule="evenodd" clip-rule="evenodd" d="M226.016 635.17C242.801 639.846 247.266 659.498 259.824 671.576C277.594 688.667 315.985 693.859 312.397 718.252C308.858 742.303 272.5 740.272 248.874 746.001C233.52 749.725 218.39 750.745 203.845 744.576C188.18 737.933 175.357 727.149 168.116 711.752C157.641 689.473 141.057 662.261 155.904 642.624C170.817 622.9 202.197 628.534 226.016 635.17Z" fill="#1877F2"/>
<defs>
<filter id="filter0_f_363_1166" x="86" y="80" width="600" height="600" filterUnits="userSpaceOnUse" color-interpolation-filters="sRGB">
<feFlood flood-opacity="0" result="BackgroundImageFix"/>
<feBlend mode="normal" in="SourceGraphic" in2="BackgroundImageFix" result="shape"/>
<feGaussianBlur stdDeviation="100" result="effect1_foregroundBlur_363_1166"/>
</filter>
</defs>
</svg>
