<svg width="160" height="316" viewBox="0 0 160 316" fill="none" xmlns="http://www.w3.org/2000/svg">
<path fill-rule="evenodd" clip-rule="evenodd" d="M-77.5201 16C-64.5785 8.81867 -50.5364 3.37974 -35.7106 0H35.7106C50.5364 3.37974 64.5785 8.81867 77.5202 16H-77.5201ZM35.7106 312C24.2281 314.618 12.2755 316 0 316C-12.2755 316 -24.2281 314.618 -35.7106 312H35.7106ZM60.9052 304H-60.9052C-71.3545 299.695 -81.2479 294.316 -90.4479 288H90.4479C81.2479 294.316 71.3545 299.695 60.9052 304ZM101.122 280H-101.122C-107.146 275.081 -112.805 269.732 -118.052 264H118.052C112.805 269.732 107.146 275.081 101.122 280ZM124.907 256H-124.907C-128.986 250.912 -132.76 245.569 -136.203 240H136.202C132.76 245.569 128.986 250.912 124.907 256ZM140.833 232H-140.833C-143.628 226.831 -146.147 221.491 -148.37 216H148.37C146.147 221.491 143.628 226.831 140.833 232ZM151.36 208H-151.36C-153.152 202.783 -154.682 197.445 -155.934 192H155.934C154.682 197.445 153.152 202.783 151.36 208ZM157.558 184H-157.558C-158.485 178.751 -159.155 173.413 -159.557 168H159.557C159.155 173.413 158.485 178.751 157.558 184ZM159.951 160H-159.951C-159.984 158.671 -160 157.337 -160 156C-160 151.963 -159.851 147.962 -159.557 144H159.557C159.85 147.962 160 151.963 160 156C160 157.337 159.984 158.671 159.951 160ZM-155.934 120C-157.139 125.24 -158.086 130.578 -158.762 136H158.762C158.086 130.578 157.139 125.24 155.934 120H-155.934ZM-136.203 72C-139.383 77.1468 -142.281 82.4874 -144.873 88H144.873C142.281 82.4874 139.383 77.1468 136.203 72H-136.203ZM148.37 96H-148.37C-150.476 101.203 -152.316 106.542 -153.874 112H153.874C152.316 106.542 150.476 101.203 148.37 96ZM90.4479 24H-90.4479C-97.4545 28.8102 -104.059 34.1638 -110.2 40H110.2C104.059 34.1638 97.4545 28.8102 90.4479 24ZM118.052 48H-118.052C-122.672 53.0468 -126.972 58.3908 -130.921 64H130.921C126.972 58.3908 122.672 53.0468 118.052 48Z" fill="#DAE8FE"/>
</svg>
