<svg width="403" height="341" viewBox="0 0 403 341" fill="none" xmlns="http://www.w3.org/2000/svg">
<path d="M217.448 111.485C222.619 111.485 226.811 106.13 226.811 99.5235C226.811 92.9174 222.619 87.562 217.448 87.562C212.278 87.562 208.086 92.9174 208.086 99.5235C208.086 106.13 212.278 111.485 217.448 111.485Z" fill="#E6E6E6"/>
<path d="M240.391 114.894L230.607 102.394C231.357 100.904 231.865 99.2366 232.101 97.4907C232.337 95.7449 232.297 93.9562 231.982 92.2306C231.668 90.505 231.085 88.8777 230.269 87.445C229.453 86.0124 228.421 84.8035 227.232 83.8901C224.995 82.1823 222.337 81.6105 219.785 82.2877C217.233 82.965 214.973 84.8419 213.453 87.5469C212.055 90.0525 211.383 93.1024 211.553 96.1723C211.724 99.2421 212.726 102.14 214.388 104.368C216.05 106.596 218.268 108.015 220.659 108.38C223.051 108.746 225.468 108.035 227.494 106.371L237.278 118.871C237.691 119.398 238.251 119.693 238.834 119.693C239.418 119.693 239.977 119.397 240.39 118.87C240.802 118.343 241.034 117.628 241.034 116.882C241.035 116.137 240.803 115.422 240.391 114.894V114.894ZM227.129 101.928C225.917 103.477 224.322 104.441 222.615 104.655C220.909 104.87 219.197 104.322 217.772 103.105C216.346 101.888 215.295 100.078 214.797 97.9816C214.3 95.8855 214.386 93.6338 215.042 91.6101C215.698 89.5864 216.883 87.916 218.395 86.8834C219.908 85.8509 221.653 85.5201 223.335 85.9474C225.016 86.3747 226.53 87.5337 227.617 89.2269C228.705 90.9201 229.299 93.0428 229.299 95.2332C229.301 96.4767 229.11 97.7083 228.737 98.8572C228.365 100.006 227.818 101.05 227.129 101.928V101.928Z" fill="#3F3D56"/>
<path d="M311.315 133.333C336.337 168.685 263.804 219.633 205.196 219.633C146.587 219.633 106.039 180.158 99.0756 133.333C82.1911 19.7991 242.935 -52.3624 205.196 47.0328C150.185 191.913 291.611 105.492 311.315 133.333Z" fill="#E6E6E6"/>
<path d="M300.089 141.7C325.11 177.052 252.577 228 193.969 228C135.361 228 94.8127 188.525 87.849 141.7C70.9646 28.1661 231.709 -43.9954 193.969 55.3997C138.959 200.28 280.384 113.859 300.089 141.7Z" fill="#3F3D56"/>
<path d="M121.591 58.8143C104.034 57.8266 90.4206 52.988 90.5994 47.7987C90.7066 44.6875 95.6755 42.1857 104.232 40.935C104.263 40.9303 104.294 40.9333 104.323 40.944C104.353 40.9547 104.381 40.9727 104.405 40.9971C104.429 41.0215 104.449 41.0518 104.464 41.0863C104.479 41.1207 104.489 41.1586 104.493 41.1977C104.496 41.2369 104.493 41.2765 104.485 41.3144C104.476 41.3523 104.462 41.3876 104.443 41.4184C104.424 41.4491 104.4 41.4747 104.373 41.4937C104.346 41.5126 104.316 41.5246 104.285 41.5288C96.225 42.707 91.16 45.1196 91.0667 47.825C90.905 52.5177 104.893 57.2768 121.612 58.2172C138.331 59.1577 152.592 55.9878 152.754 51.295C152.847 48.5783 147.936 45.598 139.937 43.5174C139.907 43.5096 139.878 43.4944 139.853 43.4724C139.827 43.4505 139.805 43.4224 139.788 43.3896C139.771 43.3569 139.759 43.3201 139.753 43.2815C139.748 43.243 139.748 43.2033 139.754 43.1647C139.76 43.1262 139.772 43.0896 139.789 43.057C139.806 43.0245 139.829 42.9965 139.854 42.9749C139.88 42.9532 139.909 42.9383 139.939 42.9309C139.969 42.9235 140 42.9237 140.03 42.9317C148.521 45.1401 153.329 48.198 153.221 51.3213C153.042 56.5107 139.149 59.802 121.591 58.8143Z" fill="#1877F2"/>
<path d="M106 59.6833C107.469 63.2481 109.645 66.2575 112.31 68.4106C114.975 70.5636 118.036 71.7848 121.186 71.9518C124.336 72.1189 127.466 71.226 130.262 69.3625C133.057 67.4991 135.421 64.7303 137.116 61.3333C126.728 61.5122 116.34 60.9614 106 59.6833V59.6833Z" fill="#1877F2"/>
<path d="M139.054 55.0477C139.938 51.6603 140.193 48.0565 139.798 44.5215C139.403 40.9866 138.37 37.6176 136.78 34.6811C135.19 31.7445 133.087 29.3212 130.637 27.6027C128.187 25.8842 125.457 24.9179 122.665 24.7801C119.872 24.6423 117.092 25.3369 114.546 26.8088C112 28.2808 109.756 30.4897 107.994 33.2608C106.231 36.032 104.998 39.2892 104.391 42.7747C103.784 46.2602 103.82 49.8783 104.497 53.3427C115.91 55.818 127.526 56.3911 139.054 55.0477V55.0477Z" fill="#1877F2"/>
<path d="M126.089 39.6231C127.252 39.6231 128.194 38.419 128.194 36.9337C128.194 35.4484 127.252 34.2444 126.089 34.2444C124.927 34.2444 123.984 35.4484 123.984 36.9337C123.984 38.419 124.927 39.6231 126.089 39.6231Z" fill="white"/>
<path d="M115.258 50.0789C117.196 50.0789 118.767 48.0722 118.767 45.5967C118.767 43.1213 117.196 41.1145 115.258 41.1145C113.321 41.1145 111.75 43.1213 111.75 45.5967C111.75 48.0722 113.321 50.0789 115.258 50.0789Z" fill="white"/>
<path d="M168.206 45.6883C169.498 45.6883 170.545 44.3505 170.545 42.7002C170.545 41.05 169.498 39.7122 168.206 39.7122C166.914 39.7122 165.867 41.05 165.867 42.7002C165.867 44.3505 166.914 45.6883 168.206 45.6883Z" fill="#1877F2"/>
<path d="M115.345 137.125C116.12 137.125 116.748 136.323 116.748 135.332C116.748 134.342 116.12 133.54 115.345 133.54C114.57 133.54 113.941 134.342 113.941 135.332C113.941 136.323 114.57 137.125 115.345 137.125Z" fill="#E6E6E6"/>
<path d="M213.579 198.681C214.354 198.681 214.982 197.879 214.982 196.888C214.982 195.898 214.354 195.095 213.579 195.095C212.804 195.095 212.176 195.898 212.176 196.888C212.176 197.879 212.804 198.681 213.579 198.681Z" fill="#E6E6E6"/>
<path d="M122.131 102.463C122.519 102.463 122.833 102.062 122.833 101.567C122.833 101.072 122.519 100.67 122.131 100.67C121.744 100.67 121.43 101.072 121.43 101.567C121.43 102.062 121.744 102.463 122.131 102.463Z" fill="#E6E6E6"/>
<path d="M180.135 169.398C180.523 169.398 180.837 168.996 180.837 168.501C180.837 168.006 180.523 167.605 180.135 167.605C179.748 167.605 179.434 168.006 179.434 168.501C179.434 168.996 179.748 169.398 180.135 169.398Z" fill="#E6E6E6"/>
<path d="M285.62 160.732C286.007 160.732 286.321 160.331 286.321 159.835C286.321 159.34 286.007 158.939 285.62 158.939C285.232 158.939 284.918 159.34 284.918 159.835C284.918 160.331 285.232 160.732 285.62 160.732Z" fill="#E6E6E6"/>
<path d="M252.639 187.326C253.027 187.326 253.341 186.925 253.341 186.43C253.341 185.935 253.027 185.533 252.639 185.533C252.252 185.533 251.938 185.935 251.938 186.43C251.938 186.925 252.252 187.326 252.639 187.326Z" fill="#E6E6E6"/>
<path d="M218.26 155.054C218.648 155.054 218.962 154.653 218.962 154.158C218.962 153.663 218.648 153.261 218.26 153.261C217.873 153.261 217.559 153.663 217.559 154.158C217.559 154.653 217.873 155.054 218.26 155.054Z" fill="#E6E6E6"/>
<path d="M173.819 66.6052C174.206 66.6052 174.521 66.2038 174.521 65.7087C174.521 65.2136 174.206 64.8123 173.819 64.8123C173.431 64.8123 173.117 65.2136 173.117 65.7087C173.117 66.2038 173.431 66.6052 173.819 66.6052Z" fill="#E6E6E6"/>
<path d="M179.432 22.3806C179.82 22.3806 180.134 21.9792 180.134 21.4841C180.134 20.989 179.82 20.5876 179.432 20.5876C179.045 20.5876 178.73 20.989 178.73 21.4841C178.73 21.9792 179.045 22.3806 179.432 22.3806Z" fill="#E6E6E6"/>
<path d="M176.159 208.542C176.546 208.542 176.86 208.141 176.86 207.646C176.86 207.151 176.546 206.749 176.159 206.749C175.771 206.749 175.457 207.151 175.457 207.646C175.457 208.141 175.771 208.542 176.159 208.542Z" fill="#E6E6E6"/>
<path d="M141.542 189.717C141.929 189.717 142.243 189.316 142.243 188.821C142.243 188.326 141.929 187.924 141.542 187.924C141.154 187.924 140.84 188.326 140.84 188.821C140.84 189.316 141.154 189.717 141.542 189.717Z" fill="#E6E6E6"/>
<path d="M251.237 157.445C251.624 157.445 251.939 157.044 251.939 156.549C251.939 156.054 251.624 155.652 251.237 155.652C250.849 155.652 250.535 156.054 250.535 156.549C250.535 157.044 250.849 157.445 251.237 157.445Z" fill="#E6E6E6"/>
<path d="M121.304 69.8626C122.467 69.8626 123.409 68.6585 123.409 67.1732C123.409 65.6879 122.467 64.4839 121.304 64.4839C120.142 64.4839 119.199 65.6879 119.199 67.1732C119.199 68.6585 120.142 69.8626 121.304 69.8626Z" fill="white"/>
<path d="M168.909 108.439C168.909 116.472 159.189 135.188 156.349 140.486C156.263 140.647 156.148 140.778 156.013 140.868C155.879 140.959 155.73 141.006 155.578 141.006C155.426 141.006 155.276 140.959 155.142 140.868C155.008 140.778 154.893 140.647 154.807 140.486C151.966 135.188 142.246 116.472 142.246 108.439C142.246 106.203 142.591 103.988 143.261 101.921C143.931 99.8549 144.913 97.9773 146.151 96.3957C147.389 94.8141 148.858 93.5595 150.476 92.7035C152.093 91.8475 153.827 91.407 155.578 91.407C157.328 91.407 159.062 91.8475 160.68 92.7035C162.297 93.5595 163.767 94.8141 165.005 96.3957C166.243 97.9773 167.225 99.8549 167.895 101.921C168.565 103.988 168.909 106.203 168.909 108.439V108.439Z" fill="white"/>
<path d="M155.576 115.91C159.322 115.91 162.359 112.03 162.359 107.244C162.359 102.458 159.322 98.5786 155.576 98.5786C151.83 98.5786 148.793 102.458 148.793 107.244C148.793 112.03 151.83 115.91 155.576 115.91Z" fill="#1877F2"/>
<path d="M155.46 150.274C159.788 150.274 163.296 149.404 163.296 148.331C163.296 147.259 159.788 146.389 155.46 146.389C151.133 146.389 147.625 147.259 147.625 148.331C147.625 149.404 151.133 150.274 155.46 150.274Z" fill="white"/>
<path d="M277.657 94.9993C277.598 95.1463 277.547 95.299 277.507 95.456L266.331 99.4234L264.317 96.9054L260.945 100.292L264.172 105.192C264.432 105.588 264.786 105.865 265.181 105.982C265.575 106.099 265.989 106.049 266.359 105.84L278.432 99.0318C278.841 99.395 279.328 99.5903 279.826 99.5917C280.325 99.5931 280.812 99.4006 281.223 99.0397C281.633 98.6788 281.949 98.1666 282.126 97.5714C282.303 96.9761 282.335 96.3259 282.216 95.7073C282.097 95.0887 281.834 94.531 281.461 94.1083C281.088 93.6857 280.623 93.4181 280.128 93.3413C279.633 93.2644 279.131 93.3819 278.69 93.6781C278.249 93.9742 277.888 94.4351 277.657 94.9993H277.657Z" fill="#FFB8B8"/>
<path d="M265.932 99.6559L261.737 103.827C261.618 103.946 261.48 104.03 261.333 104.075C261.186 104.119 261.033 104.123 260.884 104.085C260.736 104.047 260.596 103.968 260.473 103.855C260.351 103.742 260.249 103.596 260.174 103.428L257.567 97.5329C257.095 96.7493 256.886 95.7585 256.985 94.7779C257.084 93.7972 257.483 92.9068 258.095 92.3017C258.707 91.6967 259.482 91.4265 260.25 91.5504C261.018 91.6744 261.716 92.1822 262.191 92.9627L266.013 97.6224C266.122 97.7558 266.208 97.9178 266.263 98.0973C266.319 98.2769 266.344 98.4697 266.337 98.6627C266.329 98.8557 266.289 99.0443 266.219 99.2157C266.149 99.3871 266.051 99.5372 265.932 99.6559V99.6559Z" fill="#1877F2"/>
<path d="M278.726 93.026L282.98 95.4711C283.159 95.5735 283.298 95.7621 283.367 95.9955C283.436 96.2288 283.43 96.4878 283.35 96.7153L282.846 98.1456C282.906 98.1799 282.952 98.2428 282.975 98.3205C282.998 98.3982 282.996 98.4844 282.969 98.5603L282.768 99.1324C282.741 99.2081 282.692 99.2671 282.631 99.2966C282.57 99.3261 282.503 99.3236 282.443 99.2898L282.242 99.8619C282.301 99.8962 282.347 99.9591 282.37 100.037C282.393 100.114 282.392 100.201 282.365 100.277L282.164 100.849C282.137 100.924 282.087 100.983 282.027 101.013C281.966 101.042 281.898 101.04 281.839 101.006L279.119 108.729C279.039 108.957 278.891 109.134 278.709 109.223C278.526 109.311 278.323 109.304 278.145 109.201L273.891 106.756C273.713 106.654 273.574 106.465 273.505 106.232C273.436 105.998 273.442 105.74 273.522 105.512L277.753 93.498C277.833 93.2704 277.98 93.0928 278.163 93.0043C278.346 92.9158 278.548 92.9236 278.726 93.026V93.026Z" fill="#3F3D56"/>
<path d="M274.665 105.996L278.078 107.959C278.249 108.057 278.443 108.064 278.618 107.979C278.794 107.895 278.936 107.725 279.013 107.507L280.589 103.028L281.137 101.476L282.563 97.4231C282.64 97.2051 282.645 96.9574 282.579 96.7341C282.513 96.5107 282.38 96.33 282.21 96.2312L281.137 95.6133L278.795 94.2677C278.624 94.1702 278.43 94.1633 278.255 94.2485C278.08 94.3338 277.938 94.5043 277.862 94.7225L276.482 98.6402L274.911 103.1L274.312 104.804C274.235 105.022 274.23 105.269 274.296 105.493C274.362 105.716 274.495 105.897 274.665 105.996V105.996Z" fill="#F2F2F2"/>
<path d="M267.532 161.492L270.399 161.492L271.763 147.362L267.531 147.362L267.532 161.492Z" fill="#FFB8B8"/>
<path d="M266.801 160.296L272.448 160.296H272.448C272.921 160.296 273.389 160.415 273.825 160.646C274.262 160.877 274.658 161.216 274.993 161.642C275.327 162.069 275.592 162.576 275.773 163.134C275.954 163.692 276.047 164.29 276.047 164.894V165.043L266.801 165.043L266.801 160.296Z" fill="#2F2E41"/>
<path d="M275.016 160.596L277.884 160.596L279.248 146.466L275.016 146.466L275.016 160.596Z" fill="#FFB8B8"/>
<path d="M274.285 159.4L279.932 159.4H279.932C280.405 159.4 280.873 159.519 281.31 159.75C281.746 159.981 282.143 160.319 282.477 160.746C282.811 161.173 283.076 161.68 283.257 162.238C283.438 162.796 283.531 163.394 283.531 163.997V164.147L274.285 164.147L274.285 159.4Z" fill="#2F2E41"/>
<path d="M254.67 128.334C255.281 130.648 256.44 132.662 257.986 134.097C259.532 135.533 261.389 136.318 263.301 136.346L263.446 136.349C264.926 136.402 266.664 135.793 268.369 134.917C271.737 133.187 274.972 130.417 275.83 129.655L274.375 147.521L273.786 154.765C273.771 154.952 273.787 155.141 273.833 155.32C273.879 155.499 273.953 155.664 274.052 155.804C274.151 155.944 274.271 156.056 274.406 156.133C274.541 156.209 274.686 156.249 274.834 156.25H278.466C278.699 156.25 278.925 156.151 279.11 155.97C279.294 155.788 279.426 155.534 279.486 155.246L285.483 126.066C285.662 125.193 285.677 124.278 285.525 123.396C285.373 122.514 285.058 121.691 284.608 120.995C284.157 120.299 283.584 119.75 282.934 119.394C282.284 119.037 281.578 118.884 280.873 118.946L268.416 120.036L269.286 115.59L258.167 114.646L258.134 114.676C257.867 114.924 257.608 115.184 257.36 115.456C256.74 116.125 256.19 116.895 255.725 117.744C254.892 119.269 254.361 121.029 254.177 122.874C253.994 124.718 254.163 126.592 254.67 128.334Z" fill="#2F2E41"/>
<path d="M254.67 128.334C255.281 130.648 256.44 132.662 257.986 134.097C259.532 135.532 261.389 136.318 263.301 136.346C265.128 135.164 266.892 133.827 268.579 132.344L268.369 134.917L266.535 157.454C266.52 157.641 266.536 157.831 266.582 158.01C266.628 158.189 266.703 158.353 266.801 158.493C266.9 158.633 267.021 158.745 267.155 158.822C267.29 158.899 267.436 158.939 267.583 158.939H271.215C271.448 158.939 271.675 158.841 271.859 158.659C272.044 158.477 272.176 158.223 272.235 157.935L274.375 147.521L278.232 128.756C278.412 127.882 278.426 126.967 278.274 126.085C278.122 125.203 277.808 124.38 277.357 123.684C276.907 122.988 276.333 122.439 275.683 122.083C275.034 121.727 274.327 121.573 273.622 121.635L261.165 122.726L262.035 118.279L255.725 117.744C254.892 119.269 254.361 121.029 254.177 122.874C253.994 124.718 254.163 126.592 254.67 128.334V128.334Z" fill="#2F2E41"/>
<path d="M257.346 116.486L257.263 116.473L255.323 104.286C255.306 104.18 253.72 93.6683 258.582 88.1728L258.667 87.4206C258.689 87.2281 258.743 87.044 258.826 86.8808C258.908 86.7176 259.018 86.5793 259.146 86.4754C259.275 86.3715 259.42 86.3044 259.571 86.2789C259.722 86.2534 259.875 86.2701 260.02 86.3277L264.601 88.1429C264.86 88.2449 265.079 88.4712 265.21 88.7743C265.342 89.0774 265.377 89.4339 265.307 89.769L264.862 91.9329C265.479 92.8593 272.747 104.039 270.216 112.651L269.082 118.314L257.346 116.486Z" fill="#1877F2"/>
<path d="M276.364 106.975C276.255 107.063 276.151 107.162 276.053 107.27L264.851 103.428L264.118 99.9519L259.867 100.678L260.696 106.994C260.763 107.504 260.957 107.972 261.25 108.329C261.544 108.686 261.919 108.912 262.321 108.972L275.427 110.95C275.635 111.529 275.976 112.013 276.405 112.338C276.834 112.663 277.33 112.814 277.827 112.77C278.324 112.726 278.8 112.489 279.189 112.092C279.579 111.695 279.865 111.155 280.008 110.545C280.152 109.935 280.147 109.284 279.994 108.678C279.841 108.072 279.547 107.539 279.152 107.152C278.756 106.764 278.277 106.539 277.78 106.508C277.282 106.476 276.788 106.639 276.364 106.975H276.364Z" fill="#FFB8B8"/>
<path d="M264.42 103.373L259.148 104.241C258.998 104.265 258.845 104.248 258.701 104.191C258.557 104.134 258.424 104.037 258.311 103.908C258.198 103.779 258.109 103.621 258.048 103.444C257.988 103.266 257.958 103.075 257.961 102.882L258.062 96.112C257.967 95.1308 258.181 94.1416 258.656 93.3615C259.132 92.5814 259.83 92.0741 260.598 91.9506C261.366 91.8272 262.14 92.0978 262.752 92.7031C263.364 93.3084 263.763 94.199 263.862 95.1796L265.299 101.674C265.34 101.86 265.349 102.055 265.326 102.246C265.302 102.437 265.247 102.619 265.164 102.781C265.08 102.942 264.971 103.078 264.842 103.18C264.714 103.283 264.57 103.348 264.42 103.373V103.373Z" fill="#1877F2"/>
<path d="M262.936 84.6738C266.109 84.6738 268.681 81.3879 268.681 77.3346C268.681 73.2812 266.109 69.9954 262.936 69.9954C259.763 69.9954 257.191 73.2812 257.191 77.3346C257.191 81.3879 259.763 84.6738 262.936 84.6738Z" fill="#FFB8B8"/>
<path d="M262.633 77.9472L261.914 76.2739C260.552 83.3654 262.958 89.2345 262.958 89.2345L253.618 83.6762L253.707 81.7041L252.783 83.0439L251.455 82.109L251.28 80.8299L250.277 81.1471L253.936 72.6646C257.487 64.5926 262.65 67.6744 262.65 67.6744C270.863 67.1756 269.86 77.5279 269.86 77.5279L262.633 77.9472Z" fill="#2F2E41"/>
<path d="M197.237 132.64C198.562 131.555 196.951 125.326 193.64 118.727C190.328 112.127 186.57 107.657 185.246 108.742C183.921 109.826 185.532 116.056 188.843 122.655C192.155 129.254 195.913 133.725 197.237 132.64Z" fill="#3F3D56"/>
<path d="M35.4341 304H26.0073L10.7905 277.538H10.5752C10.639 278.639 10.6948 279.747 10.7427 280.864C10.7905 281.981 10.8384 283.097 10.8862 284.214C10.9341 285.314 10.9819 286.423 11.0298 287.539V304H4.40234V269.021H13.7573L28.9502 295.219H29.1177C29.0858 294.135 29.0459 293.058 28.998 291.99C28.9502 290.921 28.9023 289.852 28.8545 288.783C28.8226 287.715 28.7907 286.646 28.7588 285.577V269.021H35.4341V304ZM67.9971 290.578C67.9971 292.811 67.694 294.789 67.0879 296.511C66.4977 298.234 65.6284 299.694 64.48 300.89C63.3475 302.07 61.9757 302.963 60.3647 303.57C58.7697 304.176 56.9673 304.479 54.9575 304.479C53.0754 304.479 51.3447 304.176 49.7656 303.57C48.2025 302.963 46.8387 302.07 45.6743 300.89C44.5259 299.694 43.6326 298.234 42.9946 296.511C42.3726 294.789 42.0615 292.811 42.0615 290.578C42.0615 287.611 42.5879 285.099 43.6406 283.041C44.6934 280.984 46.1927 279.42 48.1387 278.352C50.0846 277.283 52.4054 276.749 55.1011 276.749C57.6053 276.749 59.8224 277.283 61.7524 278.352C63.6984 279.42 65.2217 280.984 66.3223 283.041C67.4388 285.099 67.9971 287.611 67.9971 290.578ZM49.5024 290.578C49.5024 292.332 49.6938 293.808 50.0767 295.004C50.4595 296.2 51.0576 297.102 51.8711 297.708C52.6846 298.314 53.7453 298.617 55.0532 298.617C56.3452 298.617 57.39 298.314 58.1875 297.708C59.001 297.102 59.5911 296.2 59.958 295.004C60.3408 293.808 60.5322 292.332 60.5322 290.578C60.5322 288.807 60.3408 287.34 59.958 286.176C59.5911 284.995 59.001 284.11 58.1875 283.52C57.374 282.93 56.3133 282.635 55.0054 282.635C53.0754 282.635 51.6717 283.296 50.7944 284.62C49.9331 285.944 49.5024 287.93 49.5024 290.578ZM97.5215 269.021C100.696 269.021 103.312 269.404 105.369 270.169C107.443 270.935 108.982 272.091 109.987 273.638C110.992 275.186 111.494 277.14 111.494 279.5C111.494 281.095 111.191 282.491 110.585 283.687C109.979 284.884 109.181 285.896 108.192 286.726C107.203 287.555 106.135 288.233 104.986 288.76L115.274 304H107.044L98.6938 290.578H94.7461V304H87.3291V269.021H97.5215ZM96.9951 275.098H94.7461V284.549H97.1387C99.5951 284.549 101.35 284.142 102.402 283.328C103.471 282.499 104.005 281.287 104.005 279.692C104.005 278.033 103.431 276.852 102.283 276.151C101.15 275.449 99.3877 275.098 96.9951 275.098ZM130.132 276.749C132.605 276.749 134.734 277.227 136.521 278.184C138.307 279.125 139.687 280.497 140.66 282.3C141.633 284.102 142.119 286.303 142.119 288.903V292.444H124.869C124.948 294.502 125.562 296.121 126.711 297.301C127.875 298.465 129.486 299.048 131.544 299.048C133.251 299.048 134.814 298.872 136.233 298.521C137.653 298.17 139.112 297.644 140.612 296.942V302.589C139.288 303.243 137.9 303.721 136.449 304.024C135.013 304.327 133.267 304.479 131.209 304.479C128.529 304.479 126.153 303.984 124.079 302.995C122.021 302.006 120.403 300.499 119.222 298.473C118.058 296.448 117.476 293.896 117.476 290.817C117.476 287.691 118.002 285.091 119.055 283.017C120.123 280.928 121.607 279.365 123.505 278.328C125.403 277.275 127.612 276.749 130.132 276.749ZM130.18 281.941C128.761 281.941 127.58 282.395 126.639 283.304C125.714 284.214 125.18 285.641 125.036 287.587H135.276C135.26 286.503 135.061 285.538 134.678 284.692C134.311 283.847 133.753 283.177 133.003 282.682C132.27 282.188 131.329 281.941 130.18 281.941ZM166.715 296.057C166.715 297.875 166.284 299.414 165.423 300.675C164.577 301.919 163.309 302.868 161.619 303.522C159.928 304.16 157.822 304.479 155.302 304.479C153.436 304.479 151.833 304.359 150.493 304.12C149.169 303.881 147.829 303.482 146.474 302.924V296.894C147.925 297.548 149.48 298.091 151.139 298.521C152.814 298.936 154.281 299.143 155.542 299.143C156.961 299.143 157.974 298.936 158.58 298.521C159.202 298.091 159.513 297.532 159.513 296.846C159.513 296.4 159.386 296.001 159.13 295.65C158.891 295.283 158.365 294.877 157.551 294.43C156.738 293.967 155.462 293.369 153.723 292.635C152.048 291.934 150.669 291.224 149.584 290.506C148.515 289.788 147.718 288.943 147.191 287.97C146.681 286.981 146.426 285.729 146.426 284.214C146.426 281.741 147.383 279.883 149.297 278.639C151.227 277.379 153.803 276.749 157.025 276.749C158.684 276.749 160.263 276.916 161.762 277.251C163.278 277.586 164.833 278.121 166.428 278.854L164.227 284.118C162.903 283.544 161.651 283.073 160.47 282.706C159.306 282.339 158.118 282.156 156.905 282.156C155.837 282.156 155.031 282.3 154.489 282.587C153.946 282.874 153.675 283.312 153.675 283.903C153.675 284.333 153.811 284.716 154.082 285.051C154.369 285.386 154.911 285.761 155.709 286.176C156.522 286.574 157.711 287.093 159.274 287.731C160.789 288.353 162.105 289.007 163.222 289.693C164.338 290.363 165.2 291.2 165.806 292.205C166.412 293.194 166.715 294.478 166.715 296.057ZM196.957 277.251V304H191.358L190.377 300.579H189.995C189.42 301.488 188.703 302.23 187.841 302.804C186.98 303.378 186.031 303.801 184.994 304.072C183.957 304.343 182.881 304.479 181.764 304.479C179.85 304.479 178.183 304.144 176.764 303.474C175.344 302.788 174.236 301.727 173.438 300.292C172.656 298.856 172.266 296.99 172.266 294.693V277.251H179.563V292.875C179.563 294.789 179.906 296.232 180.592 297.205C181.278 298.178 182.37 298.665 183.87 298.665C185.353 298.665 186.517 298.33 187.363 297.66C188.208 296.974 188.798 295.977 189.133 294.669C189.484 293.345 189.66 291.734 189.66 289.836V277.251H196.957ZM211.911 304H204.613V266.772H211.911V304ZM230.86 298.665C231.657 298.665 232.431 298.585 233.181 298.426C233.946 298.266 234.704 298.067 235.454 297.827V303.259C234.672 303.609 233.699 303.897 232.535 304.12C231.386 304.359 230.126 304.479 228.754 304.479C227.159 304.479 225.724 304.224 224.448 303.713C223.188 303.187 222.191 302.286 221.457 301.01C220.739 299.718 220.38 297.923 220.38 295.626V282.73H216.887V279.644L220.907 277.203L223.012 271.557H227.678V277.251H235.167V282.73H227.678V295.626C227.678 296.647 227.965 297.413 228.539 297.923C229.129 298.418 229.903 298.665 230.86 298.665ZM261.485 304H254.188V269.021H274.237V275.098H261.485V284.118H273.352V290.171H261.485V304ZM304.814 290.578C304.814 292.811 304.511 294.789 303.905 296.511C303.315 298.234 302.446 299.694 301.297 300.89C300.165 302.07 298.793 302.963 297.182 303.57C295.587 304.176 293.785 304.479 291.775 304.479C289.893 304.479 288.162 304.176 286.583 303.57C285.02 302.963 283.656 302.07 282.492 300.89C281.343 299.694 280.45 298.234 279.812 296.511C279.19 294.789 278.879 292.811 278.879 290.578C278.879 287.611 279.405 285.099 280.458 283.041C281.511 280.984 283.01 279.42 284.956 278.352C286.902 277.283 289.223 276.749 291.918 276.749C294.423 276.749 296.64 277.283 298.57 278.352C300.516 279.42 302.039 280.984 303.14 283.041C304.256 285.099 304.814 287.611 304.814 290.578ZM286.32 290.578C286.32 292.332 286.511 293.808 286.894 295.004C287.277 296.2 287.875 297.102 288.688 297.708C289.502 298.314 290.563 298.617 291.871 298.617C293.163 298.617 294.207 298.314 295.005 297.708C295.818 297.102 296.409 296.2 296.775 295.004C297.158 293.808 297.35 292.332 297.35 290.578C297.35 288.807 297.158 287.34 296.775 286.176C296.409 284.995 295.818 284.11 295.005 283.52C294.191 282.93 293.131 282.635 291.823 282.635C289.893 282.635 288.489 283.296 287.612 284.62C286.75 285.944 286.32 287.93 286.32 290.578ZM335.392 277.251V304H329.793L328.812 300.579H328.429C327.855 301.488 327.137 302.23 326.276 302.804C325.415 303.378 324.465 303.801 323.429 304.072C322.392 304.343 321.315 304.479 320.199 304.479C318.285 304.479 316.618 304.144 315.198 303.474C313.779 302.788 312.67 301.727 311.873 300.292C311.091 298.856 310.7 296.99 310.7 294.693V277.251H317.998V292.875C317.998 294.789 318.34 296.232 319.026 297.205C319.712 298.178 320.805 298.665 322.304 298.665C323.788 298.665 324.952 298.33 325.797 297.66C326.643 296.974 327.233 295.977 327.568 294.669C327.919 293.345 328.094 291.734 328.094 289.836V277.251H335.392ZM358.241 276.749C361.096 276.749 363.393 277.53 365.131 279.094C366.87 280.641 367.739 283.129 367.739 286.558V304H360.442V288.377C360.442 286.463 360.091 285.019 359.389 284.046C358.703 283.073 357.619 282.587 356.135 282.587C353.902 282.587 352.379 283.344 351.565 284.86C350.752 286.375 350.345 288.56 350.345 291.415V304H343.048V277.251H348.623L349.604 280.673H350.01C350.584 279.747 351.294 278.998 352.14 278.424C353.001 277.849 353.95 277.427 354.987 277.156C356.04 276.884 357.124 276.749 358.241 276.749ZM383.722 304.479C380.739 304.479 378.306 303.314 376.424 300.986C374.558 298.641 373.625 295.204 373.625 290.674C373.625 286.096 374.574 282.635 376.472 280.29C378.37 277.929 380.851 276.749 383.913 276.749C385.189 276.749 386.314 276.924 387.287 277.275C388.26 277.626 389.097 278.097 389.799 278.687C390.517 279.277 391.123 279.939 391.617 280.673H391.856C391.761 280.162 391.641 279.413 391.498 278.424C391.37 277.419 391.306 276.39 391.306 275.337V266.772H398.627V304H393.029L391.617 300.531H391.306C390.844 301.265 390.261 301.935 389.56 302.541C388.874 303.131 388.052 303.601 387.095 303.952C386.138 304.303 385.014 304.479 383.722 304.479ZM386.282 298.665C388.276 298.665 389.679 298.075 390.493 296.894C391.322 295.698 391.761 293.904 391.809 291.511V290.721C391.809 288.122 391.41 286.136 390.612 284.764C389.815 283.376 388.331 282.682 386.162 282.682C384.551 282.682 383.291 283.376 382.382 284.764C381.473 286.152 381.018 288.153 381.018 290.769C381.018 293.385 381.473 295.355 382.382 296.679C383.307 298.003 384.607 298.665 386.282 298.665Z" fill="#AAAAAA"/>
<path d="M94.2783 337H92.6309V328.401H89.7051V327.006H97.1973V328.401H94.2783V337ZM102.399 329.289C102.527 329.289 102.666 329.296 102.816 329.31C102.967 329.323 103.097 329.342 103.206 329.365L103.056 330.868C102.96 330.841 102.841 330.821 102.7 330.807C102.563 330.793 102.44 330.786 102.331 330.786C102.044 330.786 101.771 330.834 101.511 330.93C101.251 331.021 101.021 331.162 100.82 331.354C100.62 331.541 100.463 331.775 100.349 332.058C100.235 332.34 100.178 332.669 100.178 333.042V337H98.5645V329.433H99.8223L100.041 330.766H100.116C100.267 330.497 100.453 330.251 100.677 330.028C100.9 329.804 101.155 329.627 101.442 329.494C101.734 329.358 102.053 329.289 102.399 329.289ZM103.466 329.433H105.216L106.768 333.753C106.836 333.949 106.897 334.143 106.952 334.334C107.011 334.521 107.062 334.706 107.103 334.888C107.148 335.07 107.185 335.253 107.212 335.435H107.253C107.299 335.198 107.362 334.934 107.444 334.642C107.531 334.346 107.627 334.049 107.731 333.753L109.222 329.433H110.951L107.704 338.039C107.517 338.531 107.287 338.951 107.014 339.297C106.745 339.648 106.426 339.912 106.057 340.09C105.688 340.272 105.266 340.364 104.792 340.364C104.564 340.364 104.366 340.35 104.197 340.323C104.029 340.3 103.885 340.275 103.767 340.247V338.962C103.862 338.985 103.983 339.005 104.129 339.024C104.275 339.042 104.425 339.051 104.58 339.051C104.867 339.051 105.116 338.994 105.325 338.88C105.535 338.766 105.713 338.604 105.858 338.395C106.004 338.19 106.125 337.955 106.221 337.691L106.487 336.98L103.466 329.433ZM121.67 334.28C121.67 334.872 121.524 335.382 121.232 335.811C120.945 336.239 120.531 336.567 119.988 336.795C119.451 337.023 118.808 337.137 118.061 337.137C117.696 337.137 117.347 337.116 117.015 337.075C116.682 337.034 116.368 336.975 116.071 336.898C115.78 336.816 115.513 336.718 115.271 336.604V335.059C115.677 335.237 116.131 335.398 116.632 335.544C117.133 335.685 117.644 335.756 118.163 335.756C118.587 335.756 118.938 335.701 119.216 335.592C119.498 335.478 119.708 335.319 119.845 335.114C119.981 334.904 120.05 334.66 120.05 334.382C120.05 334.086 119.97 333.835 119.811 333.63C119.651 333.425 119.41 333.238 119.086 333.07C118.767 332.896 118.366 332.712 117.883 332.516C117.555 332.384 117.24 332.233 116.939 332.065C116.643 331.896 116.379 331.698 116.146 331.47C115.914 331.242 115.729 330.973 115.593 330.663C115.461 330.349 115.395 329.98 115.395 329.556C115.395 328.991 115.529 328.508 115.798 328.107C116.071 327.706 116.454 327.398 116.946 327.184C117.443 326.97 118.022 326.863 118.683 326.863C119.207 326.863 119.699 326.917 120.159 327.027C120.624 327.136 121.08 327.291 121.526 327.491L121.007 328.811C120.597 328.642 120.198 328.508 119.811 328.407C119.428 328.307 119.036 328.257 118.635 328.257C118.288 328.257 117.994 328.309 117.753 328.414C117.511 328.519 117.327 328.667 117.199 328.859C117.076 329.045 117.015 329.269 117.015 329.529C117.015 329.82 117.085 330.066 117.227 330.267C117.372 330.463 117.596 330.643 117.896 330.807C118.202 330.971 118.594 331.153 119.072 331.354C119.624 331.582 120.091 331.821 120.474 332.072C120.861 332.322 121.157 332.623 121.362 332.974C121.567 333.32 121.67 333.755 121.67 334.28ZM126.448 329.289C127.123 329.289 127.701 329.428 128.185 329.706C128.668 329.984 129.039 330.378 129.299 330.889C129.559 331.399 129.688 332.01 129.688 332.721V333.582H124.637C124.655 334.316 124.851 334.881 125.225 335.278C125.603 335.674 126.132 335.872 126.811 335.872C127.294 335.872 127.727 335.827 128.109 335.736C128.497 335.64 128.896 335.501 129.306 335.319V336.624C128.927 336.802 128.542 336.932 128.15 337.014C127.758 337.096 127.289 337.137 126.742 337.137C125.999 337.137 125.345 336.993 124.78 336.706C124.22 336.415 123.78 335.982 123.461 335.407C123.146 334.833 122.989 334.12 122.989 333.268C122.989 332.42 123.133 331.7 123.42 331.108C123.707 330.515 124.11 330.064 124.63 329.754C125.149 329.444 125.756 329.289 126.448 329.289ZM126.448 330.499C125.942 330.499 125.532 330.663 125.218 330.991C124.908 331.32 124.726 331.8 124.671 332.434H128.116C128.112 332.056 128.048 331.721 127.925 331.429C127.806 331.137 127.624 330.909 127.378 330.745C127.136 330.581 126.826 330.499 126.448 330.499ZM134.467 329.289C135.424 329.289 136.146 329.501 136.634 329.925C137.126 330.349 137.372 331.01 137.372 331.907V337H136.23L135.923 335.927H135.868C135.654 336.2 135.433 336.426 135.205 336.604C134.977 336.781 134.713 336.914 134.412 337C134.116 337.091 133.754 337.137 133.325 337.137C132.874 337.137 132.471 337.055 132.115 336.891C131.76 336.722 131.479 336.467 131.274 336.125C131.069 335.783 130.967 335.351 130.967 334.826C130.967 334.047 131.256 333.462 131.835 333.07C132.418 332.678 133.298 332.461 134.474 332.42L135.786 332.372V331.976C135.786 331.452 135.663 331.078 135.417 330.855C135.175 330.631 134.834 330.52 134.392 330.52C134.013 330.52 133.646 330.574 133.291 330.684C132.936 330.793 132.589 330.928 132.252 331.087L131.732 329.952C132.102 329.756 132.521 329.597 132.99 329.474C133.464 329.351 133.956 329.289 134.467 329.289ZM135.779 333.384L134.802 333.418C134 333.446 133.437 333.582 133.113 333.828C132.79 334.074 132.628 334.412 132.628 334.84C132.628 335.214 132.74 335.487 132.963 335.66C133.186 335.829 133.48 335.913 133.845 335.913C134.401 335.913 134.861 335.756 135.226 335.442C135.595 335.123 135.779 334.656 135.779 334.04V333.384ZM143.456 329.289C143.584 329.289 143.723 329.296 143.873 329.31C144.023 329.323 144.153 329.342 144.263 329.365L144.112 330.868C144.017 330.841 143.898 330.821 143.757 330.807C143.62 330.793 143.497 330.786 143.388 330.786C143.101 330.786 142.827 330.834 142.567 330.93C142.308 331.021 142.077 331.162 141.877 331.354C141.676 331.541 141.519 331.775 141.405 332.058C141.291 332.34 141.234 332.669 141.234 333.042V337H139.621V329.433H140.879L141.098 330.766H141.173C141.323 330.497 141.51 330.251 141.733 330.028C141.957 329.804 142.212 329.627 142.499 329.494C142.791 329.358 143.11 329.289 143.456 329.289ZM148.713 337.137C147.997 337.137 147.378 336.998 146.854 336.72C146.329 336.442 145.926 336.016 145.644 335.442C145.361 334.867 145.22 334.138 145.22 333.254C145.22 332.334 145.375 331.582 145.685 330.998C145.994 330.415 146.423 329.984 146.97 329.706C147.521 329.428 148.152 329.289 148.863 329.289C149.314 329.289 149.722 329.335 150.087 329.426C150.456 329.513 150.768 329.62 151.023 329.747L150.545 331.032C150.267 330.919 149.982 330.823 149.69 330.745C149.399 330.668 149.118 330.629 148.85 330.629C148.408 330.629 148.038 330.727 147.742 330.923C147.451 331.119 147.232 331.411 147.086 331.798C146.945 332.185 146.874 332.666 146.874 333.24C146.874 333.796 146.947 334.266 147.093 334.649C147.239 335.027 147.455 335.314 147.742 335.51C148.029 335.701 148.382 335.797 148.802 335.797C149.216 335.797 149.588 335.747 149.916 335.647C150.244 335.546 150.554 335.417 150.846 335.257V336.652C150.559 336.816 150.251 336.936 149.923 337.014C149.595 337.096 149.191 337.137 148.713 337.137ZM154.229 326.364V329.036C154.229 329.314 154.22 329.586 154.202 329.85C154.188 330.114 154.173 330.319 154.154 330.465H154.243C154.403 330.201 154.599 329.984 154.831 329.816C155.063 329.642 155.323 329.513 155.61 329.426C155.902 329.339 156.212 329.296 156.54 329.296C157.119 329.296 157.611 329.394 158.017 329.59C158.422 329.781 158.732 330.08 158.946 330.486C159.165 330.891 159.274 331.418 159.274 332.065V337H157.668V332.365C157.668 331.778 157.547 331.338 157.306 331.046C157.064 330.75 156.69 330.602 156.185 330.602C155.697 330.602 155.31 330.704 155.022 330.909C154.74 331.11 154.537 331.408 154.414 331.805C154.291 332.197 154.229 332.675 154.229 333.24V337H152.623V326.364H154.229ZM163.13 329.433V337H161.523V329.433H163.13ZM162.337 326.534C162.583 326.534 162.795 326.601 162.973 326.733C163.155 326.865 163.246 327.093 163.246 327.416C163.246 327.735 163.155 327.963 162.973 328.1C162.795 328.232 162.583 328.298 162.337 328.298C162.082 328.298 161.865 328.232 161.688 328.1C161.514 327.963 161.428 327.735 161.428 327.416C161.428 327.093 161.514 326.865 161.688 326.733C161.865 326.601 162.082 326.534 162.337 326.534ZM169.378 329.289C170.23 329.289 170.893 329.51 171.367 329.952C171.846 330.39 172.085 331.094 172.085 332.065V337H170.479V332.365C170.479 331.778 170.358 331.338 170.116 331.046C169.875 330.75 169.501 330.602 168.995 330.602C168.261 330.602 167.751 330.827 167.464 331.279C167.181 331.73 167.04 332.384 167.04 333.24V337H165.434V329.433H166.685L166.91 330.458H166.999C167.163 330.194 167.366 329.977 167.607 329.809C167.854 329.636 168.127 329.506 168.428 329.419C168.733 329.333 169.05 329.289 169.378 329.289ZM176.494 340.364C175.469 340.364 174.683 340.179 174.136 339.81C173.589 339.441 173.315 338.923 173.315 338.258C173.315 337.793 173.461 337.399 173.753 337.075C174.045 336.756 174.462 336.535 175.004 336.412C174.799 336.321 174.621 336.18 174.471 335.989C174.325 335.793 174.252 335.576 174.252 335.339C174.252 335.057 174.332 334.815 174.491 334.615C174.651 334.414 174.89 334.22 175.209 334.033C174.812 333.865 174.493 333.591 174.252 333.213C174.015 332.83 173.896 332.381 173.896 331.866C173.896 331.32 174.013 330.855 174.245 330.472C174.478 330.085 174.817 329.791 175.264 329.59C175.71 329.385 176.25 329.282 176.884 329.282C177.021 329.282 177.169 329.292 177.328 329.31C177.492 329.323 177.643 329.342 177.779 329.365C177.921 329.383 178.028 329.403 178.101 329.426H180.719V330.322L179.434 330.561C179.557 330.734 179.655 330.932 179.728 331.156C179.8 331.374 179.837 331.614 179.837 331.873C179.837 332.657 179.566 333.275 179.023 333.726C178.486 334.172 177.743 334.396 176.795 334.396C176.567 334.387 176.346 334.368 176.132 334.341C175.968 334.441 175.842 334.553 175.756 334.676C175.669 334.795 175.626 334.929 175.626 335.079C175.626 335.202 175.669 335.303 175.756 335.38C175.842 335.453 175.97 335.508 176.139 335.544C176.312 335.581 176.521 335.599 176.768 335.599H178.073C178.903 335.599 179.536 335.774 179.974 336.125C180.411 336.476 180.63 336.991 180.63 337.67C180.63 338.531 180.274 339.195 179.563 339.659C178.853 340.129 177.829 340.364 176.494 340.364ZM176.556 339.236C177.116 339.236 177.588 339.181 177.971 339.072C178.354 338.962 178.643 338.805 178.839 338.6C179.035 338.399 179.133 338.16 179.133 337.882C179.133 337.636 179.071 337.447 178.948 337.315C178.825 337.183 178.641 337.091 178.395 337.041C178.148 336.991 177.843 336.966 177.479 336.966H176.289C175.993 336.966 175.731 337.012 175.503 337.103C175.275 337.198 175.097 337.335 174.97 337.513C174.847 337.691 174.785 337.905 174.785 338.156C174.785 338.502 174.938 338.768 175.243 338.955C175.553 339.142 175.991 339.236 176.556 339.236ZM176.87 333.343C177.34 333.343 177.688 333.215 177.916 332.96C178.144 332.7 178.258 332.336 178.258 331.866C178.258 331.356 178.139 330.973 177.902 330.718C177.67 330.463 177.324 330.335 176.863 330.335C176.412 330.335 176.068 330.465 175.831 330.725C175.599 330.985 175.482 331.37 175.482 331.88C175.482 332.34 175.599 332.7 175.831 332.96C176.068 333.215 176.414 333.343 176.87 333.343ZM187.527 337H185.9V327.006H191.547V328.387H187.527V331.504H191.287V332.878H187.527V337ZM199.9 333.199C199.9 333.828 199.818 334.387 199.654 334.874C199.49 335.362 199.251 335.774 198.937 336.112C198.622 336.444 198.244 336.699 197.802 336.877C197.36 337.05 196.861 337.137 196.305 337.137C195.785 337.137 195.309 337.05 194.876 336.877C194.443 336.699 194.067 336.444 193.748 336.112C193.434 335.774 193.19 335.362 193.017 334.874C192.843 334.387 192.757 333.828 192.757 333.199C192.757 332.365 192.9 331.659 193.188 331.08C193.479 330.497 193.894 330.053 194.432 329.747C194.969 329.442 195.61 329.289 196.353 329.289C197.05 329.289 197.665 329.442 198.198 329.747C198.731 330.053 199.148 330.497 199.449 331.08C199.75 331.664 199.9 332.37 199.9 333.199ZM194.411 333.199C194.411 333.751 194.477 334.223 194.609 334.615C194.746 335.006 194.956 335.307 195.238 335.517C195.521 335.722 195.885 335.824 196.332 335.824C196.779 335.824 197.143 335.722 197.426 335.517C197.708 335.307 197.916 335.006 198.048 334.615C198.18 334.223 198.246 333.751 198.246 333.199C198.246 332.648 198.18 332.181 198.048 331.798C197.916 331.411 197.708 331.117 197.426 330.916C197.143 330.711 196.776 330.609 196.325 330.609C195.66 330.609 195.174 330.832 194.869 331.279C194.564 331.725 194.411 332.365 194.411 333.199ZM205.581 329.289C205.709 329.289 205.848 329.296 205.998 329.31C206.148 329.323 206.278 329.342 206.388 329.365L206.237 330.868C206.142 330.841 206.023 330.821 205.882 330.807C205.745 330.793 205.622 330.786 205.513 330.786C205.226 330.786 204.952 330.834 204.692 330.93C204.433 331.021 204.202 331.162 204.002 331.354C203.801 331.541 203.644 331.775 203.53 332.058C203.416 332.34 203.359 332.669 203.359 333.042V337H201.746V329.433H203.004L203.223 330.766H203.298C203.448 330.497 203.635 330.251 203.858 330.028C204.082 329.804 204.337 329.627 204.624 329.494C204.916 329.358 205.235 329.289 205.581 329.289ZM217.359 334.28C217.359 334.872 217.214 335.382 216.922 335.811C216.635 336.239 216.22 336.567 215.678 336.795C215.14 337.023 214.497 337.137 213.75 337.137C213.385 337.137 213.037 337.116 212.704 337.075C212.371 337.034 212.057 336.975 211.761 336.898C211.469 336.816 211.202 336.718 210.961 336.604V335.059C211.367 335.237 211.82 335.398 212.321 335.544C212.823 335.685 213.333 335.756 213.853 335.756C214.276 335.756 214.627 335.701 214.905 335.592C215.188 335.478 215.397 335.319 215.534 335.114C215.671 334.904 215.739 334.66 215.739 334.382C215.739 334.086 215.66 333.835 215.5 333.63C215.34 333.425 215.099 333.238 214.775 333.07C214.456 332.896 214.055 332.712 213.572 332.516C213.244 332.384 212.93 332.233 212.629 332.065C212.333 331.896 212.068 331.698 211.836 331.47C211.604 331.242 211.419 330.973 211.282 330.663C211.15 330.349 211.084 329.98 211.084 329.556C211.084 328.991 211.218 328.508 211.487 328.107C211.761 327.706 212.144 327.398 212.636 327.184C213.132 326.97 213.711 326.863 214.372 326.863C214.896 326.863 215.388 326.917 215.849 327.027C216.313 327.136 216.769 327.291 217.216 327.491L216.696 328.811C216.286 328.642 215.887 328.508 215.5 328.407C215.117 328.307 214.725 328.257 214.324 328.257C213.978 328.257 213.684 328.309 213.442 328.414C213.201 328.519 213.016 328.667 212.889 328.859C212.766 329.045 212.704 329.269 212.704 329.529C212.704 329.82 212.775 330.066 212.916 330.267C213.062 330.463 213.285 330.643 213.586 330.807C213.891 330.971 214.283 331.153 214.762 331.354C215.313 331.582 215.78 331.821 216.163 332.072C216.55 332.322 216.847 332.623 217.052 332.974C217.257 333.32 217.359 333.755 217.359 334.28ZM225.822 333.199C225.822 333.828 225.74 334.387 225.576 334.874C225.412 335.362 225.173 335.774 224.858 336.112C224.544 336.444 224.166 336.699 223.724 336.877C223.282 337.05 222.783 337.137 222.227 337.137C221.707 337.137 221.231 337.05 220.798 336.877C220.365 336.699 219.989 336.444 219.67 336.112C219.355 335.774 219.112 335.362 218.938 334.874C218.765 334.387 218.679 333.828 218.679 333.199C218.679 332.365 218.822 331.659 219.109 331.08C219.401 330.497 219.816 330.053 220.354 329.747C220.891 329.442 221.532 329.289 222.274 329.289C222.972 329.289 223.587 329.442 224.12 329.747C224.653 330.053 225.07 330.497 225.371 331.08C225.672 331.664 225.822 332.37 225.822 333.199ZM220.333 333.199C220.333 333.751 220.399 334.223 220.531 334.615C220.668 335.006 220.878 335.307 221.16 335.517C221.443 335.722 221.807 335.824 222.254 335.824C222.701 335.824 223.065 335.722 223.348 335.517C223.63 335.307 223.838 335.006 223.97 334.615C224.102 334.223 224.168 333.751 224.168 333.199C224.168 332.648 224.102 332.181 223.97 331.798C223.838 331.411 223.63 331.117 223.348 330.916C223.065 330.711 222.698 330.609 222.247 330.609C221.582 330.609 221.096 330.832 220.791 331.279C220.486 331.725 220.333 332.365 220.333 333.199ZM236.22 329.289C237.067 329.289 237.705 329.508 238.134 329.946C238.567 330.383 238.783 331.085 238.783 332.051V337H237.177V332.338C237.177 331.764 237.065 331.331 236.842 331.039C236.618 330.748 236.279 330.602 235.823 330.602C235.185 330.602 234.725 330.807 234.442 331.217C234.164 331.623 234.025 332.213 234.025 332.988V337H232.419V332.338C232.419 331.955 232.369 331.636 232.269 331.381C232.173 331.121 232.025 330.928 231.824 330.8C231.624 330.668 231.371 330.602 231.065 330.602C230.623 330.602 230.27 330.702 230.006 330.903C229.746 331.103 229.559 331.399 229.445 331.791C229.331 332.179 229.274 332.655 229.274 333.22V337H227.668V329.433H228.919L229.145 330.451H229.233C229.388 330.187 229.58 329.971 229.808 329.802C230.04 329.629 230.298 329.501 230.58 329.419C230.863 329.333 231.157 329.289 231.462 329.289C232.027 329.289 232.503 329.39 232.891 329.59C233.278 329.786 233.567 330.087 233.759 330.492H233.882C234.119 330.082 234.449 329.779 234.873 329.583C235.297 329.387 235.746 329.289 236.22 329.289ZM244.04 329.289C244.715 329.289 245.293 329.428 245.776 329.706C246.259 329.984 246.631 330.378 246.891 330.889C247.15 331.399 247.28 332.01 247.28 332.721V333.582H242.229C242.247 334.316 242.443 334.881 242.816 335.278C243.195 335.674 243.723 335.872 244.402 335.872C244.885 335.872 245.318 335.827 245.701 335.736C246.089 335.64 246.487 335.501 246.897 335.319V336.624C246.519 336.802 246.134 336.932 245.742 337.014C245.35 337.096 244.881 337.137 244.334 337.137C243.591 337.137 242.937 336.993 242.372 336.706C241.812 336.415 241.372 335.982 241.053 335.407C240.738 334.833 240.581 334.12 240.581 333.268C240.581 332.42 240.725 331.7 241.012 331.108C241.299 330.515 241.702 330.064 242.222 329.754C242.741 329.444 243.347 329.289 244.04 329.289ZM244.04 330.499C243.534 330.499 243.124 330.663 242.81 330.991C242.5 331.32 242.317 331.8 242.263 332.434H245.708C245.703 332.056 245.64 331.721 245.517 331.429C245.398 331.137 245.216 330.909 244.97 330.745C244.728 330.581 244.418 330.499 244.04 330.499ZM251.908 335.838C252.118 335.838 252.325 335.82 252.53 335.783C252.735 335.742 252.922 335.695 253.091 335.64V336.857C252.913 336.934 252.683 337 252.4 337.055C252.118 337.11 251.824 337.137 251.519 337.137C251.09 337.137 250.705 337.066 250.363 336.925C250.021 336.779 249.75 336.531 249.55 336.18C249.349 335.829 249.249 335.344 249.249 334.724V330.656H248.217V329.939L249.324 329.371L249.851 327.751H250.862V329.433H253.029V330.656H250.862V334.703C250.862 335.086 250.958 335.371 251.149 335.558C251.341 335.745 251.594 335.838 251.908 335.838ZM256.235 326.364V329.036C256.235 329.314 256.226 329.586 256.208 329.85C256.194 330.114 256.178 330.319 256.16 330.465H256.249C256.409 330.201 256.604 329.984 256.837 329.816C257.069 329.642 257.329 329.513 257.616 329.426C257.908 329.339 258.218 329.296 258.546 329.296C259.125 329.296 259.617 329.394 260.022 329.59C260.428 329.781 260.738 330.08 260.952 330.486C261.171 330.891 261.28 331.418 261.28 332.065V337H259.674V332.365C259.674 331.778 259.553 331.338 259.312 331.046C259.07 330.75 258.696 330.602 258.19 330.602C257.703 330.602 257.315 330.704 257.028 330.909C256.746 331.11 256.543 331.408 256.42 331.805C256.297 332.197 256.235 332.675 256.235 333.24V337H254.629V326.364H256.235ZM265.136 329.433V337H263.529V329.433H265.136ZM264.343 326.534C264.589 326.534 264.801 326.601 264.979 326.733C265.161 326.865 265.252 327.093 265.252 327.416C265.252 327.735 265.161 327.963 264.979 328.1C264.801 328.232 264.589 328.298 264.343 328.298C264.088 328.298 263.871 328.232 263.693 328.1C263.52 327.963 263.434 327.735 263.434 327.416C263.434 327.093 263.52 326.865 263.693 326.733C263.871 326.601 264.088 326.534 264.343 326.534ZM271.384 329.289C272.236 329.289 272.899 329.51 273.373 329.952C273.852 330.39 274.091 331.094 274.091 332.065V337H272.484V332.365C272.484 331.778 272.364 331.338 272.122 331.046C271.881 330.75 271.507 330.602 271.001 330.602C270.267 330.602 269.757 330.827 269.47 331.279C269.187 331.73 269.046 332.384 269.046 333.24V337H267.439V329.433H268.69L268.916 330.458H269.005C269.169 330.194 269.372 329.977 269.613 329.809C269.859 329.636 270.133 329.506 270.434 329.419C270.739 329.333 271.056 329.289 271.384 329.289ZM278.5 340.364C277.475 340.364 276.688 340.179 276.142 339.81C275.595 339.441 275.321 338.923 275.321 338.258C275.321 337.793 275.467 337.399 275.759 337.075C276.05 336.756 276.467 336.535 277.01 336.412C276.805 336.321 276.627 336.18 276.477 335.989C276.331 335.793 276.258 335.576 276.258 335.339C276.258 335.057 276.338 334.815 276.497 334.615C276.657 334.414 276.896 334.22 277.215 334.033C276.818 333.865 276.499 333.591 276.258 333.213C276.021 332.83 275.902 332.381 275.902 331.866C275.902 331.32 276.019 330.855 276.251 330.472C276.483 330.085 276.823 329.791 277.27 329.59C277.716 329.385 278.256 329.282 278.89 329.282C279.026 329.282 279.174 329.292 279.334 329.31C279.498 329.323 279.648 329.342 279.785 329.365C279.926 329.383 280.034 329.403 280.106 329.426H282.725V330.322L281.439 330.561C281.562 330.734 281.66 330.932 281.733 331.156C281.806 331.374 281.843 331.614 281.843 331.873C281.843 332.657 281.572 333.275 281.029 333.726C280.492 334.172 279.749 334.396 278.801 334.396C278.573 334.387 278.352 334.368 278.138 334.341C277.974 334.441 277.848 334.553 277.762 334.676C277.675 334.795 277.632 334.929 277.632 335.079C277.632 335.202 277.675 335.303 277.762 335.38C277.848 335.453 277.976 335.508 278.145 335.544C278.318 335.581 278.527 335.599 278.773 335.599H280.079C280.909 335.599 281.542 335.774 281.979 336.125C282.417 336.476 282.636 336.991 282.636 337.67C282.636 338.531 282.28 339.195 281.569 339.659C280.858 340.129 279.835 340.364 278.5 340.364ZM278.562 339.236C279.122 339.236 279.594 339.181 279.977 339.072C280.359 338.962 280.649 338.805 280.845 338.6C281.041 338.399 281.139 338.16 281.139 337.882C281.139 337.636 281.077 337.447 280.954 337.315C280.831 337.183 280.646 337.091 280.4 337.041C280.154 336.991 279.849 336.966 279.484 336.966H278.295C277.999 336.966 277.737 337.012 277.509 337.103C277.281 337.198 277.103 337.335 276.976 337.513C276.853 337.691 276.791 337.905 276.791 338.156C276.791 338.502 276.944 338.768 277.249 338.955C277.559 339.142 277.996 339.236 278.562 339.236ZM278.876 333.343C279.345 333.343 279.694 333.215 279.922 332.96C280.15 332.7 280.264 332.336 280.264 331.866C280.264 331.356 280.145 330.973 279.908 330.718C279.676 330.463 279.329 330.335 278.869 330.335C278.418 330.335 278.074 330.465 277.837 330.725C277.604 330.985 277.488 331.37 277.488 331.88C277.488 332.34 277.604 332.7 277.837 332.96C278.074 333.215 278.42 333.343 278.876 333.343ZM293.566 337H287.906V327.006H293.566V328.387H289.547V331.101H293.313V332.475H289.547V335.613H293.566V337ZM297.176 337H295.562V326.364H297.176V337ZM304.559 334.84C304.559 335.337 304.438 335.756 304.196 336.098C303.955 336.44 303.602 336.699 303.137 336.877C302.676 337.05 302.111 337.137 301.441 337.137C300.913 337.137 300.457 337.098 300.074 337.021C299.696 336.948 299.338 336.834 299.001 336.679V335.291C299.361 335.46 299.764 335.606 300.211 335.729C300.662 335.852 301.088 335.913 301.489 335.913C302.018 335.913 302.398 335.831 302.631 335.667C302.863 335.499 302.979 335.275 302.979 334.997C302.979 334.833 302.932 334.687 302.836 334.56C302.745 334.428 302.572 334.293 302.316 334.156C302.066 334.015 301.697 333.847 301.209 333.651C300.73 333.459 300.327 333.268 299.999 333.076C299.671 332.885 299.423 332.655 299.254 332.386C299.085 332.113 299.001 331.764 299.001 331.34C299.001 330.67 299.265 330.162 299.794 329.816C300.327 329.465 301.031 329.289 301.906 329.289C302.371 329.289 302.809 329.337 303.219 329.433C303.633 329.524 304.039 329.658 304.436 329.836L303.93 331.046C303.588 330.896 303.244 330.773 302.897 330.677C302.556 330.577 302.207 330.527 301.852 330.527C301.437 330.527 301.12 330.59 300.901 330.718C300.687 330.846 300.58 331.028 300.58 331.265C300.58 331.443 300.632 331.593 300.737 331.716C300.842 331.839 301.022 331.962 301.277 332.085C301.537 332.208 301.897 332.361 302.357 332.543C302.809 332.716 303.198 332.899 303.526 333.09C303.859 333.277 304.114 333.507 304.292 333.781C304.47 334.054 304.559 334.407 304.559 334.84ZM309.31 329.289C309.984 329.289 310.563 329.428 311.046 329.706C311.529 329.984 311.9 330.378 312.16 330.889C312.42 331.399 312.55 332.01 312.55 332.721V333.582H307.498C307.516 334.316 307.712 334.881 308.086 335.278C308.464 335.674 308.993 335.872 309.672 335.872C310.155 335.872 310.588 335.827 310.971 335.736C311.358 335.64 311.757 335.501 312.167 335.319V336.624C311.789 336.802 311.404 336.932 311.012 337.014C310.62 337.096 310.15 337.137 309.604 337.137C308.861 337.137 308.207 336.993 307.642 336.706C307.081 336.415 306.641 335.982 306.322 335.407C306.008 334.833 305.851 334.12 305.851 333.268C305.851 332.42 305.994 331.7 306.281 331.108C306.568 330.515 306.972 330.064 307.491 329.754C308.011 329.444 308.617 329.289 309.31 329.289ZM309.31 330.499C308.804 330.499 308.394 330.663 308.079 330.991C307.769 331.32 307.587 331.8 307.532 332.434H310.978C310.973 332.056 310.909 331.721 310.786 331.429C310.668 331.137 310.485 330.909 310.239 330.745C309.998 330.581 309.688 330.499 309.31 330.499Z" fill="#666666"/>
</svg>
