<svg width="294" height="324" viewBox="0 0 294 324" fill="none" xmlns="http://www.w3.org/2000/svg">
<path d="M167.169 111.485C173.775 111.485 179.13 106.13 179.13 99.5235C179.13 92.9174 173.775 87.562 167.169 87.562C160.562 87.562 155.207 92.9174 155.207 99.5235C155.207 106.13 160.562 111.485 167.169 111.485Z" fill="#E6E6E6"/>
<path d="M196.481 114.894L183.981 102.394C184.939 100.904 185.588 99.2366 185.89 97.4907C186.192 95.7449 186.141 93.9562 185.739 92.2306C185.337 90.505 184.593 88.8777 183.55 87.445C182.508 86.0124 181.188 84.8035 179.67 83.8901C176.812 82.1823 173.416 81.6105 170.155 82.2877C166.895 82.965 164.008 84.8419 162.066 87.5469C160.279 90.0525 159.421 93.1024 159.639 96.1723C159.857 99.2421 161.137 102.14 163.261 104.368C165.384 106.596 168.217 108.015 171.273 108.38C174.328 108.746 177.416 108.035 180.005 106.371L192.505 118.871C193.032 119.398 193.747 119.693 194.493 119.693C195.238 119.693 195.953 119.397 196.48 118.87C197.007 118.343 197.303 117.628 197.304 116.882C197.304 116.137 197.008 115.422 196.481 114.894ZM179.538 101.928C177.989 103.477 175.951 104.441 173.771 104.655C171.592 104.87 169.405 104.322 167.583 103.105C165.762 101.888 164.419 100.078 163.783 97.9816C163.147 95.8855 163.258 93.6338 164.096 91.6101C164.934 89.5864 166.448 87.916 168.38 86.8834C170.312 85.8509 172.542 85.5201 174.69 85.9474C176.839 86.3747 178.772 87.5337 180.162 89.2269C181.551 90.9201 182.311 93.0428 182.311 95.2332C182.313 96.4767 182.068 97.7083 181.593 98.8572C181.117 100.006 180.418 101.05 179.538 101.928Z" fill="#3F3D56"/>
<path d="M287.094 133.333C319.061 168.685 226.393 219.633 151.516 219.633C76.638 219.633 24.8343 180.158 15.9375 133.333C-5.63396 19.7991 199.732 -52.3624 151.516 47.0328C81.2351 191.913 261.919 105.492 287.094 133.333Z" fill="#E6E6E6"/>
<path d="M272.75 141.7C304.717 177.052 212.05 228 137.172 228C62.2942 228 10.4905 188.525 1.59378 141.7C-19.9777 28.1661 185.388 -43.9954 137.172 55.3997C66.8914 200.28 247.575 113.859 272.75 141.7Z" fill="#3F3D56"/>
<path d="M44.7027 58.8143C22.2714 57.8266 4.87921 52.988 5.10769 47.7987C5.24468 44.6875 11.5929 42.1857 22.5247 40.935C22.5638 40.9303 22.6034 40.9333 22.6414 40.944C22.6793 40.9547 22.7148 40.9727 22.7457 40.9971C22.7767 41.0215 22.8025 41.0518 22.8216 41.0863C22.8408 41.1207 22.853 41.1586 22.8575 41.1977C22.8619 41.2369 22.8586 41.2765 22.8477 41.3144C22.8368 41.3523 22.8185 41.3876 22.7939 41.4184C22.7693 41.4491 22.7388 41.4747 22.7043 41.4937C22.6697 41.5126 22.6317 41.5246 22.5926 41.5288C12.2949 42.707 5.82387 45.1196 5.70474 47.825C5.49811 52.5177 23.369 57.2768 44.7289 58.2172C66.0889 59.1577 84.3089 55.9878 84.5155 51.295C84.6351 48.5783 78.3609 45.598 68.1411 43.5174C68.1026 43.5096 68.0659 43.4944 68.0333 43.4724C68.0007 43.4505 67.9727 43.4224 67.9509 43.3896C67.9292 43.3569 67.9141 43.3201 67.9066 43.2815C67.8991 43.243 67.8992 43.2033 67.9071 43.1647C67.9149 43.1262 67.9303 43.0896 67.9523 43.057C67.9743 43.0245 68.0026 42.9965 68.0354 42.9749C68.0682 42.9532 68.105 42.9383 68.1436 42.9309C68.1822 42.9235 68.2219 42.9237 68.2604 42.9317C79.1077 45.1401 85.2501 48.198 85.1126 51.3213C84.8841 56.5107 67.1339 59.802 44.7027 58.8143Z" fill="#1877F2"/>
<path d="M24.7812 59.6833C26.6578 63.2481 29.4375 66.2575 32.8424 68.4106C36.2472 70.5636 40.1578 71.7848 44.1828 71.9518C48.2078 72.1189 52.2061 71.226 55.7777 69.3625C59.3493 67.4991 62.3689 64.7303 64.5343 61.3333C51.2631 61.5122 37.992 60.9614 24.7812 59.6833Z" fill="#1877F2"/>
<path d="M67.0143 55.0477C68.1437 51.6603 68.4691 48.0565 67.9648 44.5215C67.4605 40.9866 66.1404 37.6176 64.109 34.6811C62.0775 31.7445 59.3904 29.3212 56.2604 27.6027C53.1304 25.8842 49.6434 24.9179 46.0754 24.7801C42.5073 24.6423 38.9562 25.3369 35.703 26.8088C32.4498 28.2808 29.5838 30.4897 27.3319 33.2608C25.0801 36.032 23.5041 39.2892 22.7287 42.7747C21.9533 46.2602 21.9998 49.8783 22.8646 53.3427C37.4455 55.818 52.2859 56.3911 67.0143 55.0477Z" fill="#1877F2"/>
<path d="M50.4511 39.6231C51.9363 39.6231 53.1404 38.419 53.1404 36.9337C53.1404 35.4484 51.9363 34.2444 50.4511 34.2444C48.9658 34.2444 47.7617 35.4484 47.7617 36.9337C47.7617 38.419 48.9658 39.6231 50.4511 39.6231Z" fill="white"/>
<path d="M36.6111 50.0789C39.0866 50.0789 41.0934 48.0722 41.0934 45.5967C41.0934 43.1213 39.0866 41.1145 36.6111 41.1145C34.1357 41.1145 32.1289 43.1213 32.1289 45.5967C32.1289 48.0722 34.1357 50.0789 36.6111 50.0789Z" fill="white"/>
<path d="M104.258 45.6883C105.908 45.6883 107.246 44.3505 107.246 42.7002C107.246 41.05 105.908 39.7122 104.258 39.7122C102.607 39.7122 101.27 41.05 101.27 42.7002C101.27 44.3505 102.607 45.6883 104.258 45.6883Z" fill="#1877F2"/>
<path d="M36.7226 137.125C37.7128 137.125 38.5155 136.323 38.5155 135.332C38.5155 134.342 37.7128 133.54 36.7226 133.54C35.7324 133.54 34.9297 134.342 34.9297 135.332C34.9297 136.323 35.7324 137.125 36.7226 137.125Z" fill="#E6E6E6"/>
<path d="M162.227 198.681C163.217 198.681 164.019 197.879 164.019 196.888C164.019 195.898 163.217 195.095 162.227 195.095C161.236 195.095 160.434 195.898 160.434 196.888C160.434 197.879 161.236 198.681 162.227 198.681Z" fill="#E6E6E6"/>
<path d="M45.3926 102.463C45.8877 102.463 46.289 102.062 46.289 101.567C46.289 101.072 45.8877 100.67 45.3926 100.67C44.8975 100.67 44.4961 101.072 44.4961 101.567C44.4961 102.062 44.8975 102.463 45.3926 102.463Z" fill="#E6E6E6"/>
<path d="M119.498 169.398C119.993 169.398 120.394 168.996 120.394 168.501C120.394 168.006 119.993 167.605 119.498 167.605C119.003 167.605 118.602 168.006 118.602 168.501C118.602 168.996 119.003 169.398 119.498 169.398Z" fill="#E6E6E6"/>
<path d="M254.264 160.732C254.759 160.732 255.16 160.331 255.16 159.835C255.16 159.34 254.759 158.939 254.264 158.939C253.769 158.939 253.367 159.34 253.367 159.835C253.367 160.331 253.769 160.732 254.264 160.732Z" fill="#E6E6E6"/>
<path d="M212.131 187.326C212.626 187.326 213.027 186.925 213.027 186.43C213.027 185.935 212.626 185.533 212.131 185.533C211.636 185.533 211.234 185.935 211.234 186.43C211.234 186.925 211.636 187.326 212.131 187.326Z" fill="#E6E6E6"/>
<path d="M168.205 155.054C168.7 155.054 169.102 154.653 169.102 154.158C169.102 153.663 168.7 153.261 168.205 153.261C167.71 153.261 167.309 153.663 167.309 154.158C167.309 154.653 167.71 155.054 168.205 155.054Z" fill="#E6E6E6"/>
<path d="M111.428 66.6052C111.923 66.6052 112.324 66.2038 112.324 65.7087C112.324 65.2136 111.923 64.8123 111.428 64.8123C110.933 64.8123 110.531 65.2136 110.531 65.7087C110.531 66.2038 110.933 66.6052 111.428 66.6052Z" fill="#E6E6E6"/>
<path d="M118.6 22.3806C119.095 22.3806 119.496 21.9792 119.496 21.4841C119.496 20.989 119.095 20.5876 118.6 20.5876C118.104 20.5876 117.703 20.989 117.703 21.4841C117.703 21.9792 118.104 22.3806 118.6 22.3806Z" fill="#E6E6E6"/>
<path d="M114.42 208.542C114.915 208.542 115.316 208.141 115.316 207.646C115.316 207.151 114.915 206.749 114.42 206.749C113.925 206.749 113.523 207.151 113.523 207.646C113.523 208.141 113.925 208.542 114.42 208.542Z" fill="#E6E6E6"/>
<path d="M70.1933 189.717C70.6884 189.717 71.0898 189.316 71.0898 188.821C71.0898 188.326 70.6884 187.924 70.1933 187.924C69.6982 187.924 69.2969 188.326 69.2969 188.821C69.2969 189.316 69.6982 189.717 70.1933 189.717Z" fill="#E6E6E6"/>
<path d="M210.338 157.445C210.833 157.445 211.234 157.044 211.234 156.549C211.234 156.054 210.833 155.652 210.338 155.652C209.843 155.652 209.441 156.054 209.441 156.549C209.441 157.044 209.843 157.445 210.338 157.445Z" fill="#E6E6E6"/>
<path d="M44.3378 69.8626C45.823 69.8626 47.0271 68.6585 47.0271 67.1732C47.0271 65.6879 45.823 64.4839 44.3378 64.4839C42.8525 64.4839 41.6484 65.6879 41.6484 67.1732C41.6484 68.6585 42.8525 69.8626 44.3378 69.8626Z" fill="white"/>
<path d="M105.155 108.439C105.155 116.472 92.7362 135.188 89.107 140.486C88.9975 140.647 88.8506 140.778 88.679 140.868C88.5074 140.959 88.3163 141.006 88.1223 141.006C87.9283 141.006 87.7372 140.959 87.5656 140.868C87.394 140.778 87.2471 140.647 87.1376 140.486C83.5084 135.188 71.0898 116.472 71.0898 108.439C71.0898 106.203 71.5304 103.988 72.3864 101.921C73.2423 99.8549 74.4969 97.9773 76.0785 96.3957C77.6601 94.8141 79.5378 93.5595 81.6043 92.7035C83.6707 91.8475 85.8856 91.407 88.1223 91.407C90.359 91.407 92.5739 91.8475 94.6403 92.7035C96.7068 93.5595 98.5844 94.8141 100.166 96.3957C101.748 97.9773 103.002 99.8549 103.858 101.921C104.714 103.988 105.155 106.203 105.155 108.439Z" fill="white"/>
<path d="M88.1227 115.91C92.9086 115.91 96.7883 112.03 96.7883 107.244C96.7883 102.458 92.9086 98.5786 88.1227 98.5786C83.3368 98.5786 79.457 102.458 79.457 107.244C79.457 112.03 83.3368 115.91 88.1227 115.91Z" fill="#1877F2"/>
<path d="M87.9712 150.274C93.4998 150.274 97.9815 149.404 97.9815 148.331C97.9815 147.259 93.4998 146.389 87.9712 146.389C82.4427 146.389 77.9609 147.259 77.9609 148.331C77.9609 149.404 82.4427 150.274 87.9712 150.274Z" fill="white"/>
<path d="M244.089 94.9993C244.013 95.1463 243.949 95.299 243.897 95.456L229.619 99.4234L227.046 96.9054L222.738 100.292L226.86 105.192C227.193 105.588 227.646 105.865 228.15 105.982C228.653 106.099 229.182 106.049 229.655 105.84L245.079 99.0318C245.602 99.395 246.223 99.5903 246.86 99.5917C247.497 99.5931 248.12 99.4006 248.644 99.0397C249.169 98.6788 249.572 98.1666 249.799 97.5714C250.025 96.9761 250.065 96.3259 249.913 95.7073C249.762 95.0887 249.425 94.531 248.949 94.1083C248.472 93.6857 247.878 93.4181 247.246 93.3413C246.613 93.2644 245.973 93.3819 245.409 93.6781C244.845 93.9742 244.384 94.4351 244.089 94.9993H244.089Z" fill="#FFB8B8"/>
<path d="M229.114 99.6559L223.755 103.827C223.602 103.946 223.426 104.03 223.238 104.075C223.05 104.119 222.854 104.123 222.665 104.085C222.475 104.047 222.296 103.968 222.14 103.855C221.983 103.742 221.853 103.596 221.758 103.428L218.427 97.5329C217.824 96.7493 217.557 95.7585 217.683 94.7779C217.809 93.7972 218.32 92.9068 219.102 92.3017C219.884 91.6967 220.874 91.4265 221.855 91.5504C222.836 91.6744 223.727 92.1822 224.335 92.9627L229.217 97.6224C229.356 97.7558 229.466 97.9178 229.537 98.0973C229.609 98.2769 229.641 98.4697 229.631 98.6627C229.621 98.8557 229.57 99.0443 229.481 99.2157C229.391 99.3871 229.266 99.5372 229.114 99.6559V99.6559Z" fill="#1877F2"/>
<path d="M245.459 93.026L250.894 95.4711C251.121 95.5735 251.299 95.7621 251.387 95.9955C251.476 96.2288 251.468 96.4878 251.366 96.7153L250.722 98.1456C250.798 98.1799 250.857 98.2428 250.886 98.3205C250.916 98.3982 250.913 98.4844 250.88 98.5603L250.622 99.1324C250.588 99.2081 250.525 99.2671 250.447 99.2966C250.37 99.3261 250.283 99.3236 250.207 99.2898L249.95 99.8619C250.026 99.8962 250.085 99.9591 250.114 100.037C250.144 100.114 250.141 100.201 250.107 100.277L249.85 100.849C249.816 100.924 249.753 100.983 249.675 101.013C249.597 101.042 249.511 101.04 249.435 101.006L245.961 108.729C245.858 108.957 245.67 109.134 245.436 109.223C245.203 109.311 244.944 109.304 244.716 109.201L239.281 106.756C239.054 106.654 238.876 106.465 238.788 106.232C238.699 105.998 238.707 105.74 238.809 105.512L244.215 93.498C244.317 93.2704 244.506 93.0928 244.739 93.0043C244.972 92.9158 245.231 92.9236 245.459 93.026Z" fill="#3F3D56"/>
<path d="M240.269 105.996L244.629 107.959C244.847 108.057 245.095 108.064 245.319 107.979C245.543 107.895 245.725 107.725 245.824 107.507L247.838 103.028L248.537 101.476L250.359 97.4231C250.457 97.2051 250.464 96.9574 250.379 96.7341C250.295 96.5107 250.125 96.33 249.908 96.2312L248.537 95.6133L245.545 94.2677C245.326 94.1702 245.078 94.1633 244.855 94.2485C244.631 94.3338 244.451 94.5043 244.353 94.7225L242.59 98.6402L240.583 103.1L239.817 104.804C239.72 105.022 239.712 105.269 239.797 105.493C239.882 105.716 240.051 105.897 240.269 105.996Z" fill="#F2F2F2"/>
<path d="M231.157 161.492L234.82 161.492L236.563 147.362L231.156 147.362L231.157 161.492Z" fill="#FFB8B8"/>
<path d="M230.223 160.296L237.437 160.296H237.437C238.041 160.296 238.639 160.415 239.197 160.646C239.755 160.877 240.262 161.216 240.689 161.642C241.116 162.069 241.454 162.576 241.685 163.134C241.916 163.692 242.035 164.29 242.035 164.894V165.043L230.223 165.043L230.223 160.296Z" fill="#2F2E41"/>
<path d="M240.719 160.596L244.383 160.596L246.126 146.466L240.719 146.466L240.719 160.596Z" fill="#FFB8B8"/>
<path d="M239.785 159.4L247 159.4H247C247.604 159.4 248.202 159.519 248.759 159.75C249.317 159.981 249.824 160.319 250.251 160.746C250.678 161.173 251.017 161.68 251.248 162.238C251.479 162.796 251.598 163.394 251.598 163.997V164.147L239.785 164.147L239.785 159.4Z" fill="#2F2E41"/>
<path d="M214.725 128.334C215.506 130.648 216.986 132.662 218.962 134.097C220.937 135.533 223.31 136.318 225.752 136.346L225.937 136.349C227.828 136.402 230.048 135.793 232.227 134.917C236.53 133.187 240.662 130.417 241.759 129.655L239.9 147.521L239.147 154.765C239.128 154.952 239.149 155.141 239.207 155.32C239.266 155.499 239.361 155.664 239.488 155.804C239.614 155.944 239.768 156.056 239.94 156.133C240.112 156.209 240.298 156.249 240.486 156.25H245.127C245.424 156.25 245.714 156.151 245.949 155.97C246.185 155.788 246.354 155.534 246.429 155.246L254.091 126.066C254.321 125.193 254.339 124.278 254.145 123.396C253.951 122.514 253.549 121.691 252.974 120.995C252.398 120.299 251.665 119.75 250.835 119.394C250.005 119.037 249.102 118.884 248.201 118.946L232.287 120.036L233.398 115.59L219.193 114.646L219.151 114.676C218.81 114.924 218.478 115.184 218.162 115.456C217.37 116.125 216.668 116.895 216.073 117.744C215.009 119.269 214.331 121.029 214.096 122.874C213.861 124.718 214.077 126.592 214.725 128.334Z" fill="#2F2E41"/>
<path d="M214.725 128.334C215.506 130.648 216.986 132.662 218.962 134.097C220.937 135.532 223.31 136.318 225.752 136.346C228.086 135.164 230.34 133.827 232.496 132.344L232.227 134.917L229.884 157.454C229.865 157.641 229.886 157.831 229.944 158.01C230.003 158.189 230.098 158.353 230.224 158.493C230.35 158.633 230.504 158.745 230.676 158.822C230.848 158.899 231.035 158.939 231.223 158.939H235.863C236.161 158.939 236.45 158.841 236.686 158.659C236.922 158.477 237.091 158.223 237.166 157.935L239.9 147.521L244.828 128.756C245.058 127.882 245.076 126.967 244.882 126.085C244.687 125.203 244.286 124.38 243.71 123.684C243.135 122.988 242.402 122.439 241.572 122.083C240.742 121.727 239.839 121.573 238.938 121.635L223.023 122.726L224.135 118.279L216.073 117.744C215.009 119.269 214.331 121.029 214.096 122.874C213.861 124.718 214.077 126.592 214.725 128.334Z" fill="#2F2E41"/>
<path d="M218.141 116.486L218.034 116.473L215.555 104.286C215.534 104.18 213.507 93.6683 219.72 88.1728L219.828 87.4206C219.855 87.2281 219.924 87.044 220.03 86.8808C220.136 86.7176 220.276 86.5793 220.44 86.4754C220.605 86.3715 220.79 86.3044 220.982 86.2789C221.175 86.2534 221.371 86.2701 221.557 86.3277L227.409 88.1429C227.74 88.2449 228.019 88.4712 228.188 88.7743C228.356 89.0774 228.4 89.4339 228.311 89.769L227.742 91.9329C228.531 92.8593 237.817 104.039 234.582 112.651L233.134 118.314L218.141 116.486Z" fill="#1877F2"/>
<path d="M242.44 106.975C242.3 107.063 242.167 107.162 242.043 107.27L227.73 103.428L226.794 99.9519L221.363 100.678L222.422 106.994C222.507 107.504 222.756 107.972 223.13 108.329C223.505 108.686 223.985 108.912 224.499 108.972L241.242 110.95C241.508 111.529 241.944 112.013 242.492 112.338C243.04 112.663 243.673 112.814 244.309 112.77C244.944 112.726 245.551 112.489 246.049 112.092C246.547 111.695 246.912 111.155 247.096 110.545C247.279 109.935 247.273 109.284 247.078 108.678C246.882 108.072 246.507 107.539 246.001 107.152C245.496 106.764 244.884 106.539 244.248 106.508C243.612 106.476 242.981 106.639 242.44 106.975H242.44Z" fill="#FFB8B8"/>
<path d="M227.178 103.373L220.442 104.241C220.251 104.265 220.056 104.248 219.871 104.191C219.687 104.134 219.517 104.037 219.373 103.908C219.229 103.779 219.115 103.621 219.038 103.444C218.96 103.266 218.922 103.075 218.926 102.882L219.054 96.112C218.934 95.1308 219.207 94.1416 219.814 93.3615C220.422 92.5814 221.314 92.0741 222.295 91.9506C223.276 91.8272 224.265 92.0978 225.047 92.7031C225.829 93.3084 226.339 94.199 226.465 95.1796L228.3 101.674C228.353 101.86 228.364 102.055 228.335 102.246C228.305 102.437 228.235 102.619 228.128 102.781C228.022 102.942 227.882 103.078 227.718 103.18C227.554 103.283 227.37 103.348 227.178 103.373Z" fill="#1877F2"/>
<path d="M225.285 84.6738C229.338 84.6738 232.624 81.3879 232.624 77.3346C232.624 73.2812 229.338 69.9954 225.285 69.9954C221.231 69.9954 217.945 73.2812 217.945 77.3346C217.945 81.3879 221.231 84.6738 225.285 84.6738Z" fill="#FFB8B8"/>
<path d="M224.895 77.9472L223.976 76.2739C222.236 83.3654 225.31 89.2345 225.31 89.2345L213.378 83.6762L213.491 81.7041L212.311 83.0439L210.614 82.109L210.39 80.8299L209.109 81.1471L213.784 72.6646C218.321 64.5926 224.916 67.6744 224.916 67.6744C235.409 67.1756 234.128 77.5279 234.128 77.5279L224.895 77.9472Z" fill="#2F2E41"/>
<path d="M141.349 132.64C143.041 131.555 140.983 125.326 136.753 118.727C132.522 112.127 127.721 107.657 126.029 108.742C124.337 109.826 126.394 116.056 130.625 122.655C134.856 129.254 139.657 133.725 141.349 132.64Z" fill="#3F3D56"/>
<path d="M23.4336 288H17.2773L7.33984 270.719H7.19922C7.39714 273.771 7.49609 275.948 7.49609 277.25V288H3.16797V265.156H9.27734L19.1992 282.266H19.3086C19.1523 279.297 19.0742 277.198 19.0742 275.969V265.156H23.4336V288ZM32.6211 279.235C32.6211 280.964 32.9023 282.271 33.4648 283.156C34.0378 284.042 34.9648 284.485 36.2461 284.485C37.5169 284.485 38.4284 284.047 38.9805 283.172C39.543 282.287 39.8242 280.974 39.8242 279.235C39.8242 277.505 39.543 276.209 38.9805 275.344C38.418 274.479 37.4961 274.047 36.2148 274.047C34.944 274.047 34.0273 274.479 33.4648 275.344C32.9023 276.198 32.6211 277.495 32.6211 279.235ZM44.6992 279.235C44.6992 282.078 43.9492 284.302 42.4492 285.906C40.9492 287.511 38.8607 288.313 36.1836 288.313C34.5065 288.313 33.0273 287.948 31.7461 287.219C30.4648 286.479 29.4805 285.422 28.793 284.047C28.1055 282.672 27.7617 281.068 27.7617 279.235C27.7617 276.38 28.5065 274.162 29.9961 272.578C31.4857 270.995 33.5794 270.203 36.2773 270.203C37.9544 270.203 39.4336 270.568 40.7148 271.297C41.9961 272.026 42.9805 273.073 43.668 274.438C44.3555 275.802 44.6992 277.401 44.6992 279.235ZM62.168 275.297H63.7305C65.2617 275.297 66.3919 275.042 67.1211 274.531C67.8503 274.021 68.2148 273.219 68.2148 272.125C68.2148 271.042 67.8398 270.271 67.0898 269.813C66.3503 269.354 65.1992 269.125 63.6367 269.125H62.168V275.297ZM62.168 279.235V288H57.3242V265.156H63.9805C67.0846 265.156 69.3815 265.724 70.8711 266.86C72.3607 267.985 73.1055 269.698 73.1055 272C73.1055 273.344 72.7357 274.542 71.9961 275.594C71.2565 276.636 70.2096 277.453 68.8555 278.047C72.293 283.183 74.5326 286.5 75.5742 288H70.1992L64.7461 279.235H62.168ZM85.3086 273.594C84.2982 273.594 83.5065 273.917 82.9336 274.563C82.3607 275.198 82.0326 276.104 81.9492 277.281H88.6367C88.6159 276.104 88.3086 275.198 87.7148 274.563C87.1211 273.917 86.319 273.594 85.3086 273.594ZM85.9805 288.313C83.168 288.313 80.9701 287.537 79.3867 285.985C77.8034 284.433 77.0117 282.235 77.0117 279.391C77.0117 276.464 77.7409 274.203 79.1992 272.61C80.668 271.005 82.694 270.203 85.2773 270.203C87.7461 270.203 89.668 270.906 91.043 272.313C92.418 273.719 93.1055 275.662 93.1055 278.141V280.453H81.8398C81.8919 281.808 82.293 282.865 83.043 283.625C83.793 284.386 84.8451 284.766 86.1992 284.766C87.2513 284.766 88.2461 284.656 89.1836 284.438C90.1211 284.219 91.1003 283.87 92.1211 283.391V287.078C91.2878 287.495 90.3971 287.802 89.4492 288C88.5013 288.209 87.3451 288.313 85.9805 288.313ZM101.137 288L94.4805 270.531H99.4648L102.84 280.485C103.215 281.745 103.449 282.938 103.543 284.063H103.637C103.689 283.063 103.923 281.87 104.34 280.485L107.699 270.531H112.684L106.027 288H101.137ZM114.996 266.016C114.996 264.464 115.861 263.688 117.59 263.688C119.319 263.688 120.184 264.464 120.184 266.016C120.184 266.755 119.965 267.334 119.527 267.75C119.1 268.156 118.454 268.36 117.59 268.36C115.861 268.36 114.996 267.578 114.996 266.016ZM119.965 288H115.199V270.531H119.965V288ZM132.215 273.594C131.204 273.594 130.413 273.917 129.84 274.563C129.267 275.198 128.939 276.104 128.855 277.281H135.543C135.522 276.104 135.215 275.198 134.621 274.563C134.027 273.917 133.225 273.594 132.215 273.594ZM132.887 288.313C130.074 288.313 127.876 287.537 126.293 285.985C124.71 284.433 123.918 282.235 123.918 279.391C123.918 276.464 124.647 274.203 126.105 272.61C127.574 271.005 129.6 270.203 132.184 270.203C134.652 270.203 136.574 270.906 137.949 272.313C139.324 273.719 140.012 275.662 140.012 278.141V280.453H128.746C128.798 281.808 129.199 282.865 129.949 283.625C130.699 284.386 131.751 284.766 133.105 284.766C134.158 284.766 135.152 284.656 136.09 284.438C137.027 284.219 138.007 283.87 139.027 283.391V287.078C138.194 287.495 137.303 287.802 136.355 288C135.408 288.209 134.251 288.313 132.887 288.313ZM158.246 288L156.902 281.891L155.09 274.172H154.98L151.793 288H146.668L141.699 270.531H146.449L148.465 278.266C148.788 279.651 149.116 281.563 149.449 284H149.543C149.585 283.209 149.767 281.953 150.09 280.235L150.34 278.906L152.496 270.531H157.746L159.793 278.906C159.835 279.136 159.897 279.474 159.98 279.922C160.074 280.37 160.163 280.849 160.246 281.36C160.329 281.86 160.402 282.354 160.465 282.844C160.538 283.323 160.579 283.709 160.59 284H160.684C160.777 283.25 160.944 282.224 161.184 280.922C161.423 279.61 161.595 278.724 161.699 278.266L163.793 270.531H168.465L163.434 288H158.246ZM183.48 282.813C183.48 284.604 182.855 285.969 181.605 286.906C180.366 287.844 178.507 288.313 176.027 288.313C174.757 288.313 173.673 288.224 172.777 288.047C171.882 287.88 171.043 287.63 170.262 287.297V283.36C171.147 283.776 172.142 284.125 173.246 284.406C174.361 284.688 175.34 284.828 176.184 284.828C177.913 284.828 178.777 284.328 178.777 283.328C178.777 282.953 178.663 282.651 178.434 282.422C178.204 282.183 177.809 281.917 177.246 281.625C176.684 281.323 175.934 280.974 174.996 280.578C173.652 280.016 172.663 279.495 172.027 279.016C171.402 278.537 170.944 277.99 170.652 277.375C170.371 276.75 170.23 275.985 170.23 275.078C170.23 273.526 170.829 272.328 172.027 271.485C173.236 270.63 174.944 270.203 177.152 270.203C179.257 270.203 181.303 270.662 183.293 271.578L181.855 275.016C180.98 274.641 180.163 274.334 179.402 274.094C178.642 273.854 177.866 273.735 177.074 273.735C175.668 273.735 174.965 274.115 174.965 274.875C174.965 275.302 175.189 275.672 175.637 275.985C176.095 276.297 177.09 276.761 178.621 277.375C179.986 277.927 180.986 278.443 181.621 278.922C182.257 279.401 182.725 279.953 183.027 280.578C183.329 281.203 183.48 281.948 183.48 282.813ZM200.652 288H195.887V265.156H208.98V269.125H200.652V275.016H208.402V278.969H200.652V288ZM216.871 279.235C216.871 280.964 217.152 282.271 217.715 283.156C218.288 284.042 219.215 284.485 220.496 284.485C221.767 284.485 222.678 284.047 223.23 283.172C223.793 282.287 224.074 280.974 224.074 279.235C224.074 277.505 223.793 276.209 223.23 275.344C222.668 274.479 221.746 274.047 220.465 274.047C219.194 274.047 218.277 274.479 217.715 275.344C217.152 276.198 216.871 277.495 216.871 279.235ZM228.949 279.235C228.949 282.078 228.199 284.302 226.699 285.906C225.199 287.511 223.111 288.313 220.434 288.313C218.757 288.313 217.277 287.948 215.996 287.219C214.715 286.479 213.73 285.422 213.043 284.047C212.355 282.672 212.012 281.068 212.012 279.235C212.012 276.38 212.757 274.162 214.246 272.578C215.736 270.995 217.829 270.203 220.527 270.203C222.204 270.203 223.684 270.568 224.965 271.297C226.246 272.026 227.23 273.073 227.918 274.438C228.605 275.802 228.949 277.401 228.949 279.235ZM245.262 288L244.621 285.766H244.371C243.861 286.578 243.137 287.209 242.199 287.656C241.262 288.094 240.194 288.313 238.996 288.313C236.944 288.313 235.397 287.766 234.355 286.672C233.314 285.568 232.793 283.985 232.793 281.922V270.531H237.559V280.735C237.559 281.995 237.783 282.943 238.23 283.578C238.678 284.203 239.392 284.516 240.371 284.516C241.704 284.516 242.668 284.073 243.262 283.188C243.855 282.292 244.152 280.813 244.152 278.75V270.531H248.918V288H245.262ZM270.043 288H265.277V277.797C265.277 276.537 265.053 275.594 264.605 274.969C264.158 274.334 263.444 274.016 262.465 274.016C261.132 274.016 260.168 274.464 259.574 275.36C258.98 276.245 258.684 277.719 258.684 279.781V288H253.918V270.531H257.559L258.199 272.766H258.465C258.996 271.922 259.725 271.287 260.652 270.86C261.59 270.422 262.652 270.203 263.84 270.203C265.871 270.203 267.413 270.755 268.465 271.86C269.517 272.953 270.043 274.537 270.043 276.61V288ZM280.48 288.313C278.428 288.313 276.814 287.516 275.637 285.922C274.47 284.328 273.887 282.12 273.887 279.297C273.887 276.433 274.48 274.203 275.668 272.61C276.866 271.005 278.512 270.203 280.605 270.203C282.803 270.203 284.48 271.058 285.637 272.766H285.793C285.553 271.464 285.434 270.302 285.434 269.281V263.688H290.215V288H286.559L285.637 285.735H285.434C284.35 287.453 282.699 288.313 280.48 288.313ZM282.152 284.516C283.371 284.516 284.262 284.162 284.824 283.453C285.397 282.745 285.71 281.542 285.762 279.844V279.328C285.762 277.453 285.47 276.11 284.887 275.297C284.314 274.485 283.376 274.078 282.074 274.078C281.012 274.078 280.184 274.531 279.59 275.438C279.007 276.334 278.715 277.641 278.715 279.36C278.715 281.078 279.012 282.37 279.605 283.235C280.199 284.089 281.048 284.516 282.152 284.516Z" fill="#555555"/>
<path d="M31.2432 320H30.0811V311.038H26.916V310.006H34.4082V311.038H31.2432V320ZM40.875 320V315.154C40.875 314.543 40.736 314.087 40.458 313.786C40.18 313.486 39.7448 313.335 39.1523 313.335C38.3639 313.335 37.7874 313.549 37.4229 313.978C37.0628 314.406 36.8828 315.108 36.8828 316.083V320H35.748V309.364H36.8828V312.583C36.8828 312.971 36.8646 313.292 36.8281 313.547H36.8965C37.1198 313.187 37.4365 312.905 37.8467 312.699C38.2614 312.49 38.7331 312.385 39.2617 312.385C40.1777 312.385 40.8636 312.604 41.3193 313.041C41.7796 313.474 42.0098 314.165 42.0098 315.113V320H40.875ZM47.5127 320.137C46.4053 320.137 45.5303 319.8 44.8877 319.125C44.2497 318.451 43.9307 317.514 43.9307 316.316C43.9307 315.108 44.2269 314.149 44.8193 313.438C45.4163 312.727 46.2161 312.371 47.2188 312.371C48.1576 312.371 48.9004 312.681 49.4473 313.301C49.9941 313.916 50.2676 314.73 50.2676 315.741V316.459H45.1064C45.1292 317.339 45.3503 318.006 45.7695 318.462C46.1934 318.918 46.7881 319.146 47.5537 319.146C48.3604 319.146 49.1579 318.977 49.9463 318.64V319.652C49.5452 319.825 49.1647 319.948 48.8047 320.021C48.4492 320.098 48.0186 320.137 47.5127 320.137ZM47.2051 313.322C46.6035 313.322 46.1227 313.517 45.7627 313.909C45.4072 314.301 45.1976 314.844 45.1338 315.536H49.0508C49.0508 314.821 48.8913 314.274 48.5723 313.896C48.2533 313.513 47.7975 313.322 47.2051 313.322ZM55.627 312.371C55.9596 312.371 56.2581 312.399 56.5225 312.453L56.3652 313.506C56.0553 313.438 55.7819 313.404 55.5449 313.404C54.9388 313.404 54.4193 313.65 53.9863 314.142C53.5579 314.634 53.3438 315.247 53.3438 315.981V320H52.209V312.508H53.1455L53.2754 313.896H53.3301C53.6081 313.408 53.943 313.032 54.335 312.768C54.7269 312.503 55.1576 312.371 55.627 312.371ZM61.0889 320.137C59.9814 320.137 59.1064 319.8 58.4639 319.125C57.8258 318.451 57.5068 317.514 57.5068 316.316C57.5068 315.108 57.8031 314.149 58.3955 313.438C58.9925 312.727 59.7923 312.371 60.7949 312.371C61.7337 312.371 62.4766 312.681 63.0234 313.301C63.5703 313.916 63.8438 314.73 63.8438 315.741V316.459H58.6826C58.7054 317.339 58.9264 318.006 59.3457 318.462C59.7695 318.918 60.3643 319.146 61.1299 319.146C61.9365 319.146 62.734 318.977 63.5225 318.64V319.652C63.1214 319.825 62.7409 319.948 62.3809 320.021C62.0254 320.098 61.5947 320.137 61.0889 320.137ZM60.7812 313.322C60.1797 313.322 59.6989 313.517 59.3389 313.909C58.9834 314.301 58.7738 314.844 58.71 315.536H62.627C62.627 314.821 62.4674 314.274 62.1484 313.896C61.8294 313.513 61.3737 313.322 60.7812 313.322ZM74.0293 320L73.8037 318.934H73.749C73.3753 319.403 73.0016 319.722 72.6279 319.891C72.2588 320.055 71.7962 320.137 71.2402 320.137C70.4974 320.137 69.9141 319.946 69.4902 319.563C69.071 319.18 68.8613 318.635 68.8613 317.929C68.8613 316.416 70.0713 315.623 72.4912 315.55L73.7627 315.509V315.044C73.7627 314.456 73.6351 314.023 73.3799 313.745C73.1292 313.463 72.7259 313.322 72.1699 313.322C71.5456 313.322 70.8392 313.513 70.0508 313.896L69.7021 313.028C70.0713 312.827 70.4746 312.67 70.9121 312.556C71.3542 312.442 71.7962 312.385 72.2383 312.385C73.1315 312.385 73.7923 312.583 74.2207 312.98C74.6536 313.376 74.8701 314.012 74.8701 314.887V320H74.0293ZM71.4658 319.2C72.1722 319.2 72.7259 319.007 73.127 318.619C73.5326 318.232 73.7354 317.69 73.7354 316.992V316.316L72.6006 316.364C71.6982 316.395 71.0465 316.537 70.6455 316.787C70.249 317.033 70.0508 317.419 70.0508 317.943C70.0508 318.353 70.1738 318.665 70.4199 318.879C70.6706 319.093 71.0192 319.2 71.4658 319.2ZM80.6328 312.371C80.9655 312.371 81.264 312.399 81.5283 312.453L81.3711 313.506C81.0612 313.438 80.7878 313.404 80.5508 313.404C79.9447 313.404 79.4251 313.65 78.9922 314.142C78.5638 314.634 78.3496 315.247 78.3496 315.981V320H77.2148V312.508H78.1514L78.2812 313.896H78.3359C78.6139 313.408 78.9489 313.032 79.3408 312.768C79.7327 312.503 80.1634 312.371 80.6328 312.371ZM86.0947 320.137C84.9873 320.137 84.1123 319.8 83.4697 319.125C82.8317 318.451 82.5127 317.514 82.5127 316.316C82.5127 315.108 82.8089 314.149 83.4014 313.438C83.9984 312.727 84.7982 312.371 85.8008 312.371C86.7396 312.371 87.4824 312.681 88.0293 313.301C88.5762 313.916 88.8496 314.73 88.8496 315.741V316.459H83.6885C83.7113 317.339 83.9323 318.006 84.3516 318.462C84.7754 318.918 85.3701 319.146 86.1357 319.146C86.9424 319.146 87.7399 318.977 88.5283 318.64V319.652C88.1273 319.825 87.7467 319.948 87.3867 320.021C87.0312 320.098 86.6006 320.137 86.0947 320.137ZM85.7871 313.322C85.1855 313.322 84.7048 313.517 84.3447 313.909C83.9893 314.301 83.7796 314.844 83.7158 315.536H87.6328C87.6328 314.821 87.4733 314.274 87.1543 313.896C86.8353 313.513 86.3796 313.322 85.7871 313.322ZM99.5547 320V315.154C99.5547 314.543 99.4157 314.087 99.1377 313.786C98.8597 313.486 98.4245 313.335 97.832 313.335C97.0482 313.335 96.474 313.547 96.1094 313.971C95.7448 314.395 95.5625 315.094 95.5625 316.07V320H94.4277V312.508H95.3506L95.5352 313.533H95.5898C95.8223 313.164 96.1481 312.879 96.5674 312.679C96.9867 312.474 97.4538 312.371 97.9688 312.371C98.8711 312.371 99.5501 312.59 100.006 313.028C100.462 313.461 100.689 314.156 100.689 315.113V320H99.5547ZM109.494 316.247C109.494 317.469 109.187 318.423 108.571 319.112C107.956 319.795 107.106 320.137 106.021 320.137C105.352 320.137 104.757 319.98 104.237 319.665C103.718 319.351 103.317 318.9 103.034 318.312C102.752 317.724 102.61 317.036 102.61 316.247C102.61 315.026 102.916 314.076 103.526 313.397C104.137 312.713 104.985 312.371 106.069 312.371C107.118 312.371 107.949 312.72 108.564 313.417C109.184 314.115 109.494 315.058 109.494 316.247ZM103.786 316.247C103.786 317.204 103.978 317.934 104.36 318.435C104.743 318.936 105.306 319.187 106.049 319.187C106.792 319.187 107.354 318.938 107.737 318.442C108.125 317.94 108.318 317.209 108.318 316.247C108.318 315.295 108.125 314.573 107.737 314.08C107.354 313.584 106.787 313.335 106.035 313.335C105.292 313.335 104.732 313.579 104.354 314.067C103.975 314.554 103.786 315.281 103.786 316.247ZM114.908 312.371C115.241 312.371 115.539 312.399 115.804 312.453L115.646 313.506C115.337 313.438 115.063 313.404 114.826 313.404C114.22 313.404 113.701 313.65 113.268 314.142C112.839 314.634 112.625 315.247 112.625 315.981V320H111.49V312.508H112.427L112.557 313.896H112.611C112.889 313.408 113.224 313.032 113.616 312.768C114.008 312.503 114.439 312.371 114.908 312.371ZM124.26 312.371C124.592 312.371 124.891 312.399 125.155 312.453L124.998 313.506C124.688 313.438 124.415 313.404 124.178 313.404C123.572 313.404 123.052 313.65 122.619 314.142C122.191 314.634 121.977 315.247 121.977 315.981V320H120.842V312.508H121.778L121.908 313.896H121.963C122.241 313.408 122.576 313.032 122.968 312.768C123.36 312.503 123.79 312.371 124.26 312.371ZM129.722 320.137C128.614 320.137 127.739 319.8 127.097 319.125C126.459 318.451 126.14 317.514 126.14 316.316C126.14 315.108 126.436 314.149 127.028 313.438C127.625 312.727 128.425 312.371 129.428 312.371C130.367 312.371 131.109 312.681 131.656 313.301C132.203 313.916 132.477 314.73 132.477 315.741V316.459H127.315C127.338 317.339 127.559 318.006 127.979 318.462C128.402 318.918 128.997 319.146 129.763 319.146C130.569 319.146 131.367 318.977 132.155 318.64V319.652C131.754 319.825 131.374 319.948 131.014 320.021C130.658 320.098 130.228 320.137 129.722 320.137ZM129.414 313.322C128.812 313.322 128.332 313.517 127.972 313.909C127.616 314.301 127.407 314.844 127.343 315.536H131.26C131.26 314.821 131.1 314.274 130.781 313.896C130.462 313.513 130.007 313.322 129.414 313.322ZM136.059 320L133.215 312.508H134.432L136.045 316.951C136.41 317.99 136.624 318.665 136.688 318.975H136.742C136.792 318.733 136.95 318.234 137.214 317.478C137.483 316.717 138.082 315.06 139.012 312.508H140.229L137.385 320H136.059ZM142.566 320H141.432V312.508H142.566V320ZM141.336 310.478C141.336 310.218 141.4 310.029 141.527 309.91C141.655 309.787 141.814 309.726 142.006 309.726C142.188 309.726 142.345 309.787 142.478 309.91C142.61 310.033 142.676 310.223 142.676 310.478C142.676 310.733 142.61 310.924 142.478 311.052C142.345 311.175 142.188 311.237 142.006 311.237C141.814 311.237 141.655 311.175 141.527 311.052C141.4 310.924 141.336 310.733 141.336 310.478ZM148.138 320.137C147.03 320.137 146.155 319.8 145.513 319.125C144.875 318.451 144.556 317.514 144.556 316.316C144.556 315.108 144.852 314.149 145.444 313.438C146.041 312.727 146.841 312.371 147.844 312.371C148.783 312.371 149.525 312.681 150.072 313.301C150.619 313.916 150.893 314.73 150.893 315.741V316.459H145.731C145.754 317.339 145.975 318.006 146.395 318.462C146.818 318.918 147.413 319.146 148.179 319.146C148.985 319.146 149.783 318.977 150.571 318.64V319.652C150.17 319.825 149.79 319.948 149.43 320.021C149.074 320.098 148.644 320.137 148.138 320.137ZM147.83 313.322C147.229 313.322 146.748 313.517 146.388 313.909C146.032 314.301 145.823 314.844 145.759 315.536H149.676C149.676 314.821 149.516 314.274 149.197 313.896C148.878 313.513 148.423 313.322 147.83 313.322ZM158.952 320L157.578 315.605C157.492 315.336 157.33 314.725 157.093 313.773H157.038C156.856 314.57 156.696 315.185 156.56 315.618L155.145 320H153.832L151.788 312.508H152.978C153.461 314.39 153.827 315.823 154.078 316.808C154.333 317.792 154.479 318.455 154.516 318.797H154.57C154.62 318.537 154.7 318.202 154.81 317.792C154.924 317.378 155.021 317.049 155.104 316.808L156.478 312.508H157.708L159.048 316.808C159.303 317.592 159.476 318.25 159.567 318.783H159.622C159.64 318.619 159.688 318.366 159.766 318.025C159.848 317.683 160.324 315.844 161.194 312.508H162.37L160.299 320H158.952ZM168.563 317.956C168.563 318.654 168.304 319.191 167.784 319.57C167.265 319.948 166.535 320.137 165.597 320.137C164.603 320.137 163.828 319.98 163.272 319.665V318.613C163.632 318.795 164.018 318.938 164.428 319.043C164.842 319.148 165.241 319.2 165.624 319.2C166.216 319.2 166.672 319.107 166.991 318.92C167.31 318.729 167.47 318.439 167.47 318.052C167.47 317.76 167.342 317.512 167.087 317.307C166.836 317.097 166.344 316.851 165.61 316.569C164.913 316.309 164.416 316.083 164.12 315.892C163.828 315.696 163.61 315.475 163.464 315.229C163.323 314.983 163.252 314.689 163.252 314.347C163.252 313.736 163.5 313.255 163.997 312.905C164.494 312.549 165.175 312.371 166.041 312.371C166.848 312.371 167.636 312.535 168.406 312.864L168.003 313.786C167.251 313.476 166.57 313.322 165.959 313.322C165.421 313.322 165.016 313.406 164.742 313.574C164.469 313.743 164.332 313.976 164.332 314.272C164.332 314.472 164.382 314.643 164.482 314.784C164.587 314.926 164.754 315.06 164.981 315.188C165.209 315.315 165.647 315.5 166.294 315.741C167.183 316.065 167.782 316.391 168.092 316.719C168.406 317.047 168.563 317.46 168.563 317.956ZM180.52 316.247C180.52 317.469 180.212 318.423 179.597 319.112C178.981 319.795 178.132 320.137 177.047 320.137C176.377 320.137 175.782 319.98 175.263 319.665C174.743 319.351 174.342 318.9 174.06 318.312C173.777 317.724 173.636 317.036 173.636 316.247C173.636 315.026 173.941 314.076 174.552 313.397C175.162 312.713 176.01 312.371 177.095 312.371C178.143 312.371 178.975 312.72 179.59 313.417C180.21 314.115 180.52 315.058 180.52 316.247ZM174.812 316.247C174.812 317.204 175.003 317.934 175.386 318.435C175.769 318.936 176.331 319.187 177.074 319.187C177.817 319.187 178.38 318.938 178.763 318.442C179.15 317.94 179.344 317.209 179.344 316.247C179.344 315.295 179.15 314.573 178.763 314.08C178.38 313.584 177.812 313.335 177.061 313.335C176.318 313.335 175.757 313.579 175.379 314.067C175.001 314.554 174.812 315.281 174.812 316.247ZM187.643 320V315.154C187.643 314.543 187.504 314.087 187.226 313.786C186.948 313.486 186.512 313.335 185.92 313.335C185.136 313.335 184.562 313.547 184.197 313.971C183.833 314.395 183.65 315.094 183.65 316.07V320H182.516V312.508H183.438L183.623 313.533H183.678C183.91 313.164 184.236 312.879 184.655 312.679C185.075 312.474 185.542 312.371 186.057 312.371C186.959 312.371 187.638 312.59 188.094 313.028C188.549 313.461 188.777 314.156 188.777 315.113V320H187.643ZM197.172 319.2C197.372 319.2 197.566 319.187 197.753 319.159C197.94 319.128 198.088 319.096 198.197 319.064V319.932C198.074 319.991 197.892 320.039 197.65 320.075C197.413 320.116 197.199 320.137 197.008 320.137C195.559 320.137 194.834 319.374 194.834 317.847V313.39H193.761V312.843L194.834 312.371L195.312 310.772H195.969V312.508H198.143V313.39H195.969V317.799C195.969 318.25 196.076 318.597 196.29 318.838C196.504 319.08 196.798 319.2 197.172 319.2ZM204.828 320V315.154C204.828 314.543 204.689 314.087 204.411 313.786C204.133 313.486 203.698 313.335 203.105 313.335C202.317 313.335 201.741 313.549 201.376 313.978C201.016 314.406 200.836 315.108 200.836 316.083V320H199.701V309.364H200.836V312.583C200.836 312.971 200.818 313.292 200.781 313.547H200.85C201.073 313.187 201.39 312.905 201.8 312.699C202.215 312.49 202.686 312.385 203.215 312.385C204.131 312.385 204.817 312.604 205.272 313.041C205.733 313.474 205.963 314.165 205.963 315.113V320H204.828ZM209.436 320H208.301V312.508H209.436V320ZM208.205 310.478C208.205 310.218 208.269 310.029 208.396 309.91C208.524 309.787 208.684 309.726 208.875 309.726C209.057 309.726 209.215 309.787 209.347 309.91C209.479 310.033 209.545 310.223 209.545 310.478C209.545 310.733 209.479 310.924 209.347 311.052C209.215 311.175 209.057 311.237 208.875 311.237C208.684 311.237 208.524 311.175 208.396 311.052C208.269 310.924 208.205 310.733 208.205 310.478ZM216.675 317.956C216.675 318.654 216.415 319.191 215.896 319.57C215.376 319.948 214.647 320.137 213.708 320.137C212.715 320.137 211.94 319.98 211.384 319.665V318.613C211.744 318.795 212.129 318.938 212.539 319.043C212.954 319.148 213.353 319.2 213.735 319.2C214.328 319.2 214.784 319.107 215.103 318.92C215.422 318.729 215.581 318.439 215.581 318.052C215.581 317.76 215.453 317.512 215.198 317.307C214.948 317.097 214.455 316.851 213.722 316.569C213.024 316.309 212.528 316.083 212.231 315.892C211.94 315.696 211.721 315.475 211.575 315.229C211.434 314.983 211.363 314.689 211.363 314.347C211.363 313.736 211.612 313.255 212.108 312.905C212.605 312.549 213.286 312.371 214.152 312.371C214.959 312.371 215.747 312.535 216.518 312.864L216.114 313.786C215.362 313.476 214.681 313.322 214.07 313.322C213.533 313.322 213.127 313.406 212.854 313.574C212.58 313.743 212.443 313.976 212.443 314.272C212.443 314.472 212.493 314.643 212.594 314.784C212.699 314.926 212.865 315.06 213.093 315.188C213.321 315.315 213.758 315.5 214.405 315.741C215.294 316.065 215.893 316.391 216.203 316.719C216.518 317.047 216.675 317.46 216.675 317.956ZM225.65 320.137C225.163 320.137 224.716 320.048 224.311 319.87C223.91 319.688 223.572 319.41 223.299 319.036H223.217C223.271 319.474 223.299 319.889 223.299 320.281V323.364H222.164V312.508H223.087L223.244 313.533H223.299C223.59 313.123 223.93 312.827 224.317 312.645C224.705 312.462 225.149 312.371 225.65 312.371C226.644 312.371 227.41 312.711 227.947 313.39C228.49 314.069 228.761 315.021 228.761 316.247C228.761 317.478 228.485 318.435 227.934 319.118C227.387 319.797 226.626 320.137 225.65 320.137ZM225.486 313.335C224.721 313.335 224.167 313.547 223.825 313.971C223.483 314.395 223.308 315.069 223.299 315.994V316.247C223.299 317.3 223.474 318.054 223.825 318.51C224.176 318.961 224.739 319.187 225.514 319.187C226.161 319.187 226.667 318.925 227.031 318.401C227.4 317.877 227.585 317.154 227.585 316.234C227.585 315.299 227.4 314.584 227.031 314.087C226.667 313.586 226.152 313.335 225.486 313.335ZM234.168 312.371C234.501 312.371 234.799 312.399 235.063 312.453L234.906 313.506C234.596 313.438 234.323 313.404 234.086 313.404C233.48 313.404 232.96 313.65 232.527 314.142C232.099 314.634 231.885 315.247 231.885 315.981V320H230.75V312.508H231.687L231.816 313.896H231.871C232.149 313.408 232.484 313.032 232.876 312.768C233.268 312.503 233.699 312.371 234.168 312.371ZM242.932 316.247C242.932 317.469 242.624 318.423 242.009 319.112C241.394 319.795 240.544 320.137 239.459 320.137C238.789 320.137 238.194 319.98 237.675 319.665C237.155 319.351 236.754 318.9 236.472 318.312C236.189 317.724 236.048 317.036 236.048 316.247C236.048 315.026 236.353 314.076 236.964 313.397C237.575 312.713 238.422 312.371 239.507 312.371C240.555 312.371 241.387 312.72 242.002 313.417C242.622 314.115 242.932 315.058 242.932 316.247ZM237.224 316.247C237.224 317.204 237.415 317.934 237.798 318.435C238.181 318.936 238.743 319.187 239.486 319.187C240.229 319.187 240.792 318.938 241.175 318.442C241.562 317.94 241.756 317.209 241.756 316.247C241.756 315.295 241.562 314.573 241.175 314.08C240.792 313.584 240.225 313.335 239.473 313.335C238.73 313.335 238.169 313.579 237.791 314.067C237.413 314.554 237.224 315.281 237.224 316.247ZM244.019 323.364C243.586 323.364 243.235 323.307 242.966 323.193V322.27C243.28 322.361 243.59 322.406 243.896 322.406C244.251 322.406 244.511 322.309 244.675 322.113C244.843 321.921 244.928 321.627 244.928 321.231V312.508H246.062V321.149C246.062 322.625 245.381 323.364 244.019 323.364ZM244.832 310.478C244.832 310.218 244.896 310.029 245.023 309.91C245.151 309.787 245.311 309.726 245.502 309.726C245.684 309.726 245.841 309.787 245.974 309.91C246.106 310.033 246.172 310.223 246.172 310.478C246.172 310.733 246.106 310.924 245.974 311.052C245.841 311.175 245.684 311.237 245.502 311.237C245.311 311.237 245.151 311.175 245.023 311.052C244.896 310.924 244.832 310.733 244.832 310.478ZM251.634 320.137C250.526 320.137 249.651 319.8 249.009 319.125C248.371 318.451 248.052 317.514 248.052 316.316C248.052 315.108 248.348 314.149 248.94 313.438C249.537 312.727 250.337 312.371 251.34 312.371C252.279 312.371 253.021 312.681 253.568 313.301C254.115 313.916 254.389 314.73 254.389 315.741V316.459H249.228C249.25 317.339 249.471 318.006 249.891 318.462C250.314 318.918 250.909 319.146 251.675 319.146C252.481 319.146 253.279 318.977 254.067 318.64V319.652C253.666 319.825 253.286 319.948 252.926 320.021C252.57 320.098 252.14 320.137 251.634 320.137ZM251.326 313.322C250.725 313.322 250.244 313.517 249.884 313.909C249.528 314.301 249.319 314.844 249.255 315.536H253.172C253.172 314.821 253.012 314.274 252.693 313.896C252.374 313.513 251.919 313.322 251.326 313.322ZM259.324 320.137C258.24 320.137 257.399 319.804 256.802 319.139C256.209 318.469 255.913 317.523 255.913 316.302C255.913 315.049 256.214 314.08 256.815 313.397C257.422 312.713 258.283 312.371 259.399 312.371C259.759 312.371 260.119 312.41 260.479 312.488C260.84 312.565 261.122 312.656 261.327 312.761L260.979 313.725C260.728 313.625 260.454 313.543 260.158 313.479C259.862 313.41 259.6 313.376 259.372 313.376C257.85 313.376 257.089 314.347 257.089 316.288C257.089 317.209 257.273 317.915 257.643 318.407C258.016 318.9 258.568 319.146 259.297 319.146C259.921 319.146 260.562 319.011 261.218 318.742V319.747C260.716 320.007 260.085 320.137 259.324 320.137ZM265.422 319.2C265.622 319.2 265.816 319.187 266.003 319.159C266.19 319.128 266.338 319.096 266.447 319.064V319.932C266.324 319.991 266.142 320.039 265.9 320.075C265.663 320.116 265.449 320.137 265.258 320.137C263.809 320.137 263.084 319.374 263.084 317.847V313.39H262.011V312.843L263.084 312.371L263.562 310.772H264.219V312.508H266.393V313.39H264.219V317.799C264.219 318.25 264.326 318.597 264.54 318.838C264.754 319.08 265.048 319.2 265.422 319.2Z" fill="#888888"/>
</svg>
