<svg width="720" height="822" viewBox="0 0 720 822" fill="none" xmlns="http://www.w3.org/2000/svg">
<path fill-rule="evenodd" clip-rule="evenodd" d="M600.48 -85C613.422 -92.1813 627.464 -97.6203 642.289 -101H713.711C728.536 -97.6203 742.578 -92.1813 755.52 -85H600.48ZM713.711 211C702.228 213.618 690.275 215 678 215C665.725 215 653.772 213.618 642.289 211H713.711ZM738.905 203H617.095C606.646 198.695 596.752 193.316 587.552 187H768.448C759.248 193.316 749.354 198.695 738.905 203ZM779.122 179H576.878C570.854 174.081 565.195 168.732 559.948 163H796.052C790.805 168.732 785.146 174.081 779.122 179ZM802.907 155H553.093C549.014 149.912 545.24 144.569 541.797 139H814.202C810.76 144.569 806.986 149.912 802.907 155ZM818.833 131H537.167C534.372 125.831 531.853 120.491 529.63 115H826.37C824.147 120.491 821.628 125.831 818.833 131ZM829.36 107H526.64C524.848 101.783 523.318 96.4447 522.066 91H833.934C832.682 96.4447 831.152 101.783 829.36 107ZM835.558 83H520.442C519.515 77.7505 518.845 72.4127 518.443 67H837.557C837.155 72.4127 836.485 77.7505 835.558 83ZM837.951 59H518.049C518.016 57.6706 518 56.3372 518 55C518 50.9633 518.149 46.9616 518.443 43H837.557C837.85 46.9616 838 50.9633 838 55C838 56.3372 837.984 57.6706 837.951 59ZM522.066 19C520.861 24.2397 519.914 29.5777 519.238 35H836.762C836.086 29.5777 835.139 24.2397 833.934 19H522.066ZM541.797 -29C538.617 -23.8532 535.719 -18.5126 533.127 -13H822.873C820.281 -18.5126 817.383 -23.8532 814.203 -29H541.797ZM826.37 -5H529.63C527.524 0.202942 525.684 5.54189 524.126 11H831.874C830.316 5.54189 828.476 0.202942 826.37 -5ZM768.448 -77H587.552C580.545 -72.1898 573.941 -66.8362 567.8 -61H788.2C782.059 -66.8362 775.455 -72.1898 768.448 -77ZM796.052 -53H559.948C555.328 -47.9532 551.028 -42.6092 547.079 -37H808.921C804.972 -42.6092 800.672 -47.9532 796.052 -53Z" fill="#0C5ACB"/>
<path d="M36 126.02C36 126.02 145.34 94 174.34 43L197.34 71C197.34 71 179.34 96 195.34 98C211.34 100 221.34 88 221.34 88L250.34 106C250.34 106 139.34 188 75.34 204L60.34 183C60.34 183 93.34 142 44 154.02L36 126.02Z" fill="#0C5ACB"/>
<path d="M92 533.674C92 533.674 142.935 518.758 156.444 495L167.158 508.043C167.158 508.043 158.773 519.689 166.227 520.621C173.68 521.553 178.338 515.963 178.338 515.963L191.848 524.348C191.848 524.348 140.14 562.547 110.326 570L103.338 560.217C103.338 560.217 118.711 541.118 95.7267 546.717L92 533.674Z" fill="#0C5ACB"/>
<path d="M719.5 751C306.5 638 9.5 744 0.5 751L0 822H720C720.167 807.833 719.9 773 719.5 751Z" fill="#0C5ACB"/>
<path d="M158.889 309H149.012V271.879H170.949V279.928H158.889V287.012H170.01V295.061H158.889V309ZM203.932 294.553C203.932 299.258 202.662 302.932 200.123 305.572C197.601 308.196 194.063 309.508 189.51 309.508C185.143 309.508 181.664 308.162 179.074 305.471C176.501 302.779 175.215 299.14 175.215 294.553C175.215 289.864 176.476 286.225 178.998 283.635C181.537 281.028 185.092 279.725 189.662 279.725C192.489 279.725 194.986 280.326 197.152 281.527C199.319 282.729 200.986 284.456 202.154 286.707C203.339 288.941 203.932 291.557 203.932 294.553ZM185.295 294.553C185.295 297.024 185.625 298.911 186.285 300.215C186.945 301.501 188.054 302.145 189.611 302.145C191.152 302.145 192.235 301.501 192.861 300.215C193.505 298.911 193.826 297.024 193.826 294.553C193.826 292.098 193.505 290.245 192.861 288.992C192.218 287.74 191.118 287.113 189.561 287.113C188.037 287.113 186.945 287.74 186.285 288.992C185.625 290.228 185.295 292.081 185.295 294.553ZM226.986 279.725C227.85 279.725 228.671 279.792 229.449 279.928L230.008 280.029L229.119 289.398C228.307 289.195 227.181 289.094 225.742 289.094C223.576 289.094 222.001 289.593 221.02 290.592C220.038 291.574 219.547 292.995 219.547 294.857V309H209.619V280.232H217.008L218.557 284.828H219.039C219.868 283.305 221.02 282.077 222.492 281.146C223.982 280.199 225.48 279.725 226.986 279.725ZM261.188 280.232V285.031L257.252 286.479C257.794 287.46 258.064 288.603 258.064 289.906C258.064 293.004 256.973 295.408 254.789 297.117C252.622 298.827 249.381 299.682 245.064 299.682C243.998 299.682 243.152 299.614 242.525 299.479C242.288 299.919 242.17 300.333 242.17 300.723C242.17 301.214 242.568 301.594 243.363 301.865C244.159 302.119 245.2 302.246 246.486 302.246H251.26C257.709 302.246 260.934 304.963 260.934 310.396C260.934 313.9 259.436 316.626 256.439 318.572C253.46 320.519 249.271 321.492 243.871 321.492C239.792 321.492 236.643 320.807 234.426 319.436C232.225 318.081 231.125 316.126 231.125 313.57C231.125 310.134 233.258 307.917 237.523 306.918C236.643 306.546 235.873 305.945 235.213 305.115C234.57 304.286 234.248 303.465 234.248 302.652C234.248 301.755 234.493 300.968 234.984 300.291C235.475 299.597 236.499 298.776 238.057 297.828C236.567 297.168 235.391 296.135 234.527 294.73C233.681 293.326 233.258 291.616 233.258 289.602C233.258 286.47 234.324 284.041 236.457 282.314C238.59 280.588 241.637 279.725 245.598 279.725C246.122 279.725 247.028 279.784 248.314 279.902C249.601 280.021 250.549 280.131 251.158 280.232H261.188ZM239.504 312.58C239.504 313.393 239.944 314.044 240.824 314.535C241.704 315.043 242.881 315.297 244.354 315.297C246.757 315.297 248.678 314.992 250.117 314.383C251.573 313.79 252.301 313.02 252.301 312.072C252.301 311.311 251.861 310.769 250.98 310.447C250.1 310.143 248.839 309.99 247.197 309.99H243.312C242.246 309.99 241.34 310.236 240.596 310.727C239.868 311.234 239.504 311.852 239.504 312.58ZM242.627 289.652C242.627 292.598 243.651 294.07 245.699 294.07C246.647 294.07 247.375 293.706 247.883 292.979C248.408 292.251 248.67 291.159 248.67 289.703C248.67 286.724 247.68 285.234 245.699 285.234C243.651 285.234 242.627 286.707 242.627 289.652ZM293.053 294.553C293.053 299.258 291.783 302.932 289.244 305.572C286.722 308.196 283.184 309.508 278.631 309.508C274.264 309.508 270.785 308.162 268.195 305.471C265.622 302.779 264.336 299.14 264.336 294.553C264.336 289.864 265.597 286.225 268.119 283.635C270.658 281.028 274.213 279.725 278.783 279.725C281.61 279.725 284.107 280.326 286.273 281.527C288.44 282.729 290.107 284.456 291.275 286.707C292.46 288.941 293.053 291.557 293.053 294.553ZM274.416 294.553C274.416 297.024 274.746 298.911 275.406 300.215C276.066 301.501 277.175 302.145 278.732 302.145C280.273 302.145 281.356 301.501 281.982 300.215C282.626 298.911 282.947 297.024 282.947 294.553C282.947 292.098 282.626 290.245 281.982 288.992C281.339 287.74 280.239 287.113 278.682 287.113C277.158 287.113 276.066 287.74 275.406 288.992C274.746 290.228 274.416 292.081 274.416 294.553ZM312.832 301.662C314.169 301.662 315.769 301.332 317.631 300.672V307.908C316.294 308.484 315.016 308.89 313.797 309.127C312.595 309.381 311.182 309.508 309.557 309.508C306.222 309.508 303.818 308.695 302.346 307.07C300.873 305.428 300.137 302.915 300.137 299.529V287.672H296.658V283.635L301.076 280.512L303.641 274.469H310.141V280.232H317.199V287.672H310.141V298.869C310.141 300.731 311.038 301.662 312.832 301.662Z" fill="#F5F4F3"/>
<path d="M175.951 355.686C175.951 359.833 174.724 363.04 172.27 365.309C169.832 367.56 166.362 368.686 161.859 368.686H159.041V381H149.012V343.879H161.859C166.548 343.879 170.069 344.903 172.422 346.951C174.775 348.999 175.951 351.911 175.951 355.686ZM159.041 360.51H160.869C162.376 360.51 163.569 360.087 164.449 359.24C165.346 358.394 165.795 357.226 165.795 355.736C165.795 353.231 164.407 351.979 161.631 351.979H159.041V360.51ZM200.047 381L198.143 377.191H197.939C196.602 378.85 195.24 379.984 193.852 380.594C192.464 381.203 190.669 381.508 188.469 381.508C185.76 381.508 183.628 380.695 182.07 379.07C180.513 377.445 179.734 375.16 179.734 372.215C179.734 369.151 180.801 366.874 182.934 365.385C185.066 363.878 188.156 363.032 192.201 362.846L197 362.693V362.287C197 359.917 195.832 358.732 193.496 358.732C191.397 358.732 188.731 359.443 185.498 360.865L182.629 354.314C185.98 352.588 190.212 351.725 195.324 351.725C199.014 351.725 201.867 352.639 203.881 354.467C205.912 356.295 206.928 358.851 206.928 362.135V381H200.047ZM192.684 374.5C193.885 374.5 194.91 374.119 195.756 373.357C196.619 372.596 197.051 371.605 197.051 370.387V368.152L194.766 368.254C191.499 368.372 189.865 369.574 189.865 371.859C189.865 373.62 190.805 374.5 192.684 374.5ZM235.898 372.164C235.898 375.245 234.849 377.572 232.75 379.146C230.651 380.721 227.638 381.508 223.711 381.508C221.578 381.508 219.725 381.389 218.15 381.152C216.576 380.932 214.968 380.518 213.326 379.908V371.961C214.867 372.638 216.551 373.197 218.379 373.637C220.224 374.077 221.866 374.297 223.305 374.297C225.454 374.297 226.529 373.806 226.529 372.824C226.529 372.316 226.225 371.868 225.615 371.479C225.023 371.072 223.279 370.294 220.385 369.143C217.744 368.059 215.899 366.832 214.85 365.461C213.8 364.073 213.275 362.321 213.275 360.205C213.275 357.531 214.308 355.449 216.373 353.959C218.438 352.469 221.358 351.725 225.133 351.725C227.029 351.725 228.806 351.936 230.465 352.359C232.141 352.766 233.876 353.367 235.67 354.162L232.979 360.561C231.658 359.968 230.262 359.469 228.789 359.062C227.316 358.639 226.115 358.428 225.184 358.428C223.559 358.428 222.746 358.826 222.746 359.621C222.746 360.112 223.025 360.535 223.584 360.891C224.16 361.229 225.801 361.932 228.51 362.998C230.524 363.827 232.022 364.64 233.004 365.436C234.003 366.231 234.73 367.171 235.188 368.254C235.661 369.32 235.898 370.624 235.898 372.164ZM263.625 372.164C263.625 375.245 262.576 377.572 260.477 379.146C258.378 380.721 255.365 381.508 251.438 381.508C249.305 381.508 247.451 381.389 245.877 381.152C244.303 380.932 242.695 380.518 241.053 379.908V371.961C242.593 372.638 244.277 373.197 246.105 373.637C247.951 374.077 249.592 374.297 251.031 374.297C253.181 374.297 254.256 373.806 254.256 372.824C254.256 372.316 253.951 371.868 253.342 371.479C252.749 371.072 251.006 370.294 248.111 369.143C245.471 368.059 243.626 366.832 242.576 365.461C241.527 364.073 241.002 362.321 241.002 360.205C241.002 357.531 242.035 355.449 244.1 353.959C246.165 352.469 249.085 351.725 252.859 351.725C254.755 351.725 256.533 351.936 258.191 352.359C259.867 352.766 261.602 353.367 263.396 354.162L260.705 360.561C259.385 359.968 257.988 359.469 256.516 359.062C255.043 358.639 253.841 358.428 252.91 358.428C251.285 358.428 250.473 358.826 250.473 359.621C250.473 360.112 250.752 360.535 251.311 360.891C251.886 361.229 253.528 361.932 256.236 362.998C258.251 363.827 259.749 364.64 260.73 365.436C261.729 366.231 262.457 367.171 262.914 368.254C263.388 369.32 263.625 370.624 263.625 372.164ZM293.891 381L290.641 367.289L289.879 363.15L289.371 359.824H289.219C288.389 364.564 287.831 367.551 287.543 368.787L284.623 381H274.188L266.342 352.232H276.117L278.453 363.277C279.198 367.069 279.63 370.217 279.748 372.723H279.9C279.951 371.165 280.417 368.203 281.297 363.836L283.963 352.232H294.932L297.369 363.988C298.148 367.729 298.639 370.641 298.842 372.723H298.994C299.096 371.436 299.265 369.837 299.502 367.924C299.739 365.994 300.001 364.445 300.289 363.277L302.828 352.232H312.4L304.504 381H293.891ZM343.936 366.553C343.936 371.258 342.666 374.932 340.127 377.572C337.605 380.196 334.067 381.508 329.514 381.508C325.146 381.508 321.668 380.162 319.078 377.471C316.505 374.779 315.219 371.14 315.219 366.553C315.219 361.864 316.48 358.225 319.002 355.635C321.541 353.028 325.096 351.725 329.666 351.725C332.493 351.725 334.99 352.326 337.156 353.527C339.323 354.729 340.99 356.456 342.158 358.707C343.343 360.941 343.936 363.557 343.936 366.553ZM325.299 366.553C325.299 369.024 325.629 370.911 326.289 372.215C326.949 373.501 328.058 374.145 329.615 374.145C331.156 374.145 332.239 373.501 332.865 372.215C333.508 370.911 333.83 369.024 333.83 366.553C333.83 364.098 333.508 362.245 332.865 360.992C332.222 359.74 331.122 359.113 329.564 359.113C328.041 359.113 326.949 359.74 326.289 360.992C325.629 362.228 325.299 364.081 325.299 366.553ZM366.99 351.725C367.854 351.725 368.674 351.792 369.453 351.928L370.012 352.029L369.123 361.398C368.311 361.195 367.185 361.094 365.746 361.094C363.579 361.094 362.005 361.593 361.023 362.592C360.042 363.574 359.551 364.995 359.551 366.857V381H349.623V352.232H357.012L358.561 356.828H359.043C359.872 355.305 361.023 354.077 362.496 353.146C363.986 352.199 365.484 351.725 366.99 351.725ZM382.986 381.508C380.938 381.508 379.144 380.924 377.604 379.756C376.08 378.588 374.895 376.87 374.049 374.602C373.219 372.333 372.805 369.684 372.805 366.654C372.805 361.982 373.744 358.326 375.623 355.686C377.502 353.045 380.083 351.725 383.367 351.725C384.975 351.725 386.38 352.046 387.582 352.689C388.801 353.333 389.91 354.416 390.908 355.939H391.111C390.79 353.688 390.629 351.437 390.629 349.186V341.492H400.633V381H393.143L391.01 377.369H390.629C388.919 380.128 386.372 381.508 382.986 381.508ZM387.049 373.662C388.64 373.662 389.757 373.163 390.4 372.164C391.061 371.165 391.416 369.625 391.467 367.543V366.756C391.467 364.217 391.103 362.414 390.375 361.348C389.647 360.264 388.505 359.723 386.947 359.723C385.644 359.723 384.628 360.34 383.9 361.576C383.189 362.795 382.834 364.538 382.834 366.807C382.834 369.041 383.198 370.742 383.926 371.91C384.654 373.078 385.695 373.662 387.049 373.662ZM425.084 367.898V365.715C425.084 364.056 425.423 362.66 426.1 361.525C426.777 360.374 427.979 359.257 429.705 358.174C431.076 357.311 432.058 356.532 432.65 355.838C433.26 355.144 433.564 354.348 433.564 353.451C433.564 352.74 433.243 352.182 432.6 351.775C431.956 351.352 431.118 351.141 430.086 351.141C427.53 351.141 424.542 352.046 421.123 353.857L417.594 346.951C421.809 344.548 426.21 343.346 430.797 343.346C434.572 343.346 437.534 344.175 439.684 345.834C441.833 347.493 442.908 349.753 442.908 352.613C442.908 354.661 442.426 356.439 441.461 357.945C440.513 359.435 438.99 360.848 436.891 362.186C435.113 363.337 433.996 364.183 433.539 364.725C433.099 365.249 432.879 365.876 432.879 366.604V367.898H425.084ZM423.992 376.785C423.992 375.228 424.441 374.026 425.338 373.18C426.252 372.333 427.589 371.91 429.35 371.91C431.042 371.91 432.337 372.342 433.234 373.205C434.148 374.051 434.605 375.245 434.605 376.785C434.605 378.326 434.132 379.519 433.184 380.365C432.253 381.212 430.975 381.635 429.35 381.635C427.674 381.635 426.362 381.22 425.414 380.391C424.466 379.544 423.992 378.342 423.992 376.785Z" fill="#F5F4F3"/>
<path d="M155.492 438H153.961L147.734 428.406H147.672C147.688 428.661 147.706 428.953 147.727 429.281C147.747 429.604 147.763 429.951 147.773 430.32C147.789 430.685 147.797 431.057 147.797 431.438V438H146.562V426.578H148.086L154.289 436.141H154.344C154.333 435.958 154.32 435.701 154.305 435.367C154.289 435.029 154.273 434.667 154.258 434.281C154.247 433.891 154.242 433.529 154.242 433.195V426.578H155.492V438ZM161.711 429.281C162.44 429.281 163.065 429.443 163.586 429.766C164.107 430.089 164.505 430.542 164.781 431.125C165.057 431.703 165.195 432.38 165.195 433.156V433.961H159.281C159.297 434.966 159.547 435.732 160.031 436.258C160.516 436.784 161.198 437.047 162.078 437.047C162.62 437.047 163.099 436.997 163.516 436.898C163.932 436.799 164.365 436.654 164.812 436.461V437.602C164.38 437.794 163.951 437.935 163.523 438.023C163.102 438.112 162.602 438.156 162.023 438.156C161.201 438.156 160.482 437.99 159.867 437.656C159.258 437.318 158.784 436.823 158.445 436.172C158.107 435.521 157.938 434.724 157.938 433.781C157.938 432.859 158.091 432.062 158.398 431.391C158.711 430.714 159.148 430.193 159.711 429.828C160.279 429.464 160.945 429.281 161.711 429.281ZM161.695 430.344C161.003 430.344 160.451 430.57 160.039 431.023C159.628 431.477 159.383 432.109 159.305 432.922H163.836C163.831 432.411 163.75 431.964 163.594 431.578C163.443 431.188 163.211 430.885 162.898 430.672C162.586 430.453 162.185 430.344 161.695 430.344ZM170.695 429.281C171.424 429.281 172.049 429.443 172.57 429.766C173.091 430.089 173.49 430.542 173.766 431.125C174.042 431.703 174.18 432.38 174.18 433.156V433.961H168.266C168.281 434.966 168.531 435.732 169.016 436.258C169.5 436.784 170.182 437.047 171.062 437.047C171.604 437.047 172.083 436.997 172.5 436.898C172.917 436.799 173.349 436.654 173.797 436.461V437.602C173.365 437.794 172.935 437.935 172.508 438.023C172.086 438.112 171.586 438.156 171.008 438.156C170.185 438.156 169.466 437.99 168.852 437.656C168.242 437.318 167.768 436.823 167.43 436.172C167.091 435.521 166.922 434.724 166.922 433.781C166.922 432.859 167.076 432.062 167.383 431.391C167.695 430.714 168.133 430.193 168.695 429.828C169.263 429.464 169.93 429.281 170.695 429.281ZM170.68 430.344C169.987 430.344 169.435 430.57 169.023 431.023C168.612 431.477 168.367 432.109 168.289 432.922H172.82C172.815 432.411 172.734 431.964 172.578 431.578C172.427 431.188 172.195 430.885 171.883 430.672C171.57 430.453 171.169 430.344 170.68 430.344ZM179.43 438.156C178.346 438.156 177.487 437.786 176.852 437.047C176.221 436.307 175.906 435.208 175.906 433.75C175.906 432.276 176.229 431.164 176.875 430.414C177.521 429.659 178.38 429.281 179.453 429.281C179.906 429.281 180.302 429.341 180.641 429.461C180.979 429.581 181.271 429.742 181.516 429.945C181.76 430.143 181.966 430.37 182.133 430.625H182.227C182.206 430.464 182.185 430.242 182.164 429.961C182.143 429.68 182.133 429.451 182.133 429.273V425.844H183.43V438H182.383L182.188 436.781H182.133C181.971 437.036 181.766 437.268 181.516 437.477C181.271 437.685 180.977 437.852 180.633 437.977C180.294 438.096 179.893 438.156 179.43 438.156ZM179.633 437.078C180.549 437.078 181.198 436.818 181.578 436.297C181.958 435.776 182.148 435.003 182.148 433.977V433.742C182.148 432.654 181.966 431.818 181.602 431.234C181.242 430.651 180.586 430.359 179.633 430.359C178.836 430.359 178.24 430.667 177.844 431.281C177.448 431.891 177.25 432.724 177.25 433.781C177.25 434.833 177.445 435.646 177.836 436.219C178.232 436.792 178.831 437.078 179.633 437.078ZM193.102 437.094C193.315 437.094 193.534 437.076 193.758 437.039C193.982 437.003 194.164 436.958 194.305 436.906V437.914C194.154 437.982 193.943 438.039 193.672 438.086C193.406 438.133 193.146 438.156 192.891 438.156C192.438 438.156 192.026 438.078 191.656 437.922C191.286 437.76 190.99 437.49 190.766 437.109C190.547 436.729 190.438 436.203 190.438 435.531V430.453H189.219V429.82L190.445 429.312L190.961 427.453H191.742V429.438H194.25V430.453H191.742V435.492C191.742 436.029 191.865 436.43 192.109 436.695C192.359 436.961 192.69 437.094 193.102 437.094ZM203.422 433.703C203.422 434.406 203.331 435.034 203.148 435.586C202.966 436.138 202.703 436.604 202.359 436.984C202.016 437.365 201.599 437.656 201.109 437.859C200.625 438.057 200.076 438.156 199.461 438.156C198.888 438.156 198.362 438.057 197.883 437.859C197.409 437.656 196.997 437.365 196.648 436.984C196.305 436.604 196.036 436.138 195.844 435.586C195.656 435.034 195.562 434.406 195.562 433.703C195.562 432.766 195.721 431.969 196.039 431.312C196.357 430.651 196.81 430.148 197.398 429.805C197.992 429.456 198.698 429.281 199.516 429.281C200.297 429.281 200.979 429.456 201.562 429.805C202.151 430.154 202.607 430.659 202.93 431.32C203.258 431.977 203.422 432.771 203.422 433.703ZM196.906 433.703C196.906 434.391 196.997 434.987 197.18 435.492C197.362 435.997 197.643 436.388 198.023 436.664C198.404 436.94 198.893 437.078 199.492 437.078C200.086 437.078 200.573 436.94 200.953 436.664C201.339 436.388 201.622 435.997 201.805 435.492C201.987 434.987 202.078 434.391 202.078 433.703C202.078 433.021 201.987 432.432 201.805 431.938C201.622 431.438 201.341 431.052 200.961 430.781C200.581 430.51 200.089 430.375 199.484 430.375C198.594 430.375 197.94 430.669 197.523 431.258C197.112 431.846 196.906 432.661 196.906 433.703ZM213.711 429.281C213.883 429.281 214.062 429.292 214.25 429.312C214.438 429.328 214.604 429.352 214.75 429.383L214.586 430.586C214.445 430.549 214.289 430.521 214.117 430.5C213.945 430.479 213.784 430.469 213.633 430.469C213.289 430.469 212.964 430.539 212.656 430.68C212.354 430.815 212.089 431.013 211.859 431.273C211.63 431.529 211.451 431.839 211.32 432.203C211.19 432.562 211.125 432.964 211.125 433.406V438H209.82V429.438H210.898L211.039 431.016H211.094C211.271 430.698 211.484 430.409 211.734 430.148C211.984 429.883 212.273 429.672 212.602 429.516C212.935 429.359 213.305 429.281 213.711 429.281ZM219.664 429.281C220.393 429.281 221.018 429.443 221.539 429.766C222.06 430.089 222.458 430.542 222.734 431.125C223.01 431.703 223.148 432.38 223.148 433.156V433.961H217.234C217.25 434.966 217.5 435.732 217.984 436.258C218.469 436.784 219.151 437.047 220.031 437.047C220.573 437.047 221.052 436.997 221.469 436.898C221.885 436.799 222.318 436.654 222.766 436.461V437.602C222.333 437.794 221.904 437.935 221.477 438.023C221.055 438.112 220.555 438.156 219.977 438.156C219.154 438.156 218.435 437.99 217.82 437.656C217.211 437.318 216.737 436.823 216.398 436.172C216.06 435.521 215.891 434.724 215.891 433.781C215.891 432.859 216.044 432.062 216.352 431.391C216.664 430.714 217.102 430.193 217.664 429.828C218.232 429.464 218.898 429.281 219.664 429.281ZM219.648 430.344C218.956 430.344 218.404 430.57 217.992 431.023C217.581 431.477 217.336 432.109 217.258 432.922H221.789C221.784 432.411 221.703 431.964 221.547 431.578C221.396 431.188 221.164 430.885 220.852 430.672C220.539 430.453 220.138 430.344 219.648 430.344ZM230.891 435.656C230.891 436.203 230.753 436.664 230.477 437.039C230.206 437.409 229.815 437.688 229.305 437.875C228.799 438.062 228.195 438.156 227.492 438.156C226.893 438.156 226.375 438.109 225.938 438.016C225.5 437.922 225.117 437.789 224.789 437.617V436.422C225.138 436.594 225.555 436.75 226.039 436.891C226.523 437.031 227.018 437.102 227.523 437.102C228.263 437.102 228.799 436.982 229.133 436.742C229.466 436.503 229.633 436.177 229.633 435.766C229.633 435.531 229.565 435.326 229.43 435.148C229.299 434.966 229.078 434.792 228.766 434.625C228.453 434.453 228.021 434.266 227.469 434.062C226.922 433.854 226.448 433.648 226.047 433.445C225.651 433.237 225.344 432.984 225.125 432.688C224.911 432.391 224.805 432.005 224.805 431.531C224.805 430.807 225.096 430.253 225.68 429.867C226.268 429.477 227.039 429.281 227.992 429.281C228.508 429.281 228.99 429.333 229.438 429.438C229.891 429.536 230.312 429.672 230.703 429.844L230.266 430.883C229.911 430.732 229.534 430.604 229.133 430.5C228.732 430.396 228.323 430.344 227.906 430.344C227.307 430.344 226.846 430.443 226.523 430.641C226.206 430.839 226.047 431.109 226.047 431.453C226.047 431.719 226.12 431.938 226.266 432.109C226.417 432.281 226.656 432.443 226.984 432.594C227.312 432.745 227.745 432.922 228.281 433.125C228.818 433.323 229.281 433.529 229.672 433.742C230.062 433.951 230.362 434.206 230.57 434.508C230.784 434.805 230.891 435.188 230.891 435.656ZM236.273 429.281C237.003 429.281 237.628 429.443 238.148 429.766C238.669 430.089 239.068 430.542 239.344 431.125C239.62 431.703 239.758 432.38 239.758 433.156V433.961H233.844C233.859 434.966 234.109 435.732 234.594 436.258C235.078 436.784 235.76 437.047 236.641 437.047C237.182 437.047 237.661 436.997 238.078 436.898C238.495 436.799 238.927 436.654 239.375 436.461V437.602C238.943 437.794 238.513 437.935 238.086 438.023C237.664 438.112 237.164 438.156 236.586 438.156C235.763 438.156 235.044 437.99 234.43 437.656C233.82 437.318 233.346 436.823 233.008 436.172C232.669 435.521 232.5 434.724 232.5 433.781C232.5 432.859 232.654 432.062 232.961 431.391C233.273 430.714 233.711 430.193 234.273 429.828C234.841 429.464 235.508 429.281 236.273 429.281ZM236.258 430.344C235.565 430.344 235.013 430.57 234.602 431.023C234.19 431.477 233.945 432.109 233.867 432.922H238.398C238.393 432.411 238.312 431.964 238.156 431.578C238.005 431.188 237.773 430.885 237.461 430.672C237.148 430.453 236.747 430.344 236.258 430.344ZM244.727 437.094C244.94 437.094 245.159 437.076 245.383 437.039C245.607 437.003 245.789 436.958 245.93 436.906V437.914C245.779 437.982 245.568 438.039 245.297 438.086C245.031 438.133 244.771 438.156 244.516 438.156C244.062 438.156 243.651 438.078 243.281 437.922C242.911 437.76 242.615 437.49 242.391 437.109C242.172 436.729 242.062 436.203 242.062 435.531V430.453H240.844V429.82L242.07 429.312L242.586 427.453H243.367V429.438H245.875V430.453H243.367V435.492C243.367 436.029 243.49 436.43 243.734 436.695C243.984 436.961 244.315 437.094 244.727 437.094ZM250.469 429.438H251.859L253.75 434.406C253.859 434.698 253.961 434.979 254.055 435.25C254.148 435.516 254.232 435.771 254.305 436.016C254.378 436.26 254.435 436.497 254.477 436.727H254.531C254.604 436.466 254.708 436.125 254.844 435.703C254.979 435.276 255.125 434.841 255.281 434.398L257.07 429.438H258.469L254.742 439.258C254.544 439.784 254.312 440.242 254.047 440.633C253.786 441.023 253.469 441.323 253.094 441.531C252.719 441.745 252.266 441.852 251.734 441.852C251.49 441.852 251.273 441.836 251.086 441.805C250.898 441.779 250.737 441.747 250.602 441.711V440.672C250.716 440.698 250.854 440.721 251.016 440.742C251.182 440.763 251.354 440.773 251.531 440.773C251.854 440.773 252.133 440.711 252.367 440.586C252.607 440.466 252.812 440.289 252.984 440.055C253.156 439.82 253.305 439.542 253.43 439.219L253.898 438.016L250.469 429.438ZM267.219 433.703C267.219 434.406 267.128 435.034 266.945 435.586C266.763 436.138 266.5 436.604 266.156 436.984C265.812 437.365 265.396 437.656 264.906 437.859C264.422 438.057 263.872 438.156 263.258 438.156C262.685 438.156 262.159 438.057 261.68 437.859C261.206 437.656 260.794 437.365 260.445 436.984C260.102 436.604 259.833 436.138 259.641 435.586C259.453 435.034 259.359 434.406 259.359 433.703C259.359 432.766 259.518 431.969 259.836 431.312C260.154 430.651 260.607 430.148 261.195 429.805C261.789 429.456 262.495 429.281 263.312 429.281C264.094 429.281 264.776 429.456 265.359 429.805C265.948 430.154 266.404 430.659 266.727 431.32C267.055 431.977 267.219 432.771 267.219 433.703ZM260.703 433.703C260.703 434.391 260.794 434.987 260.977 435.492C261.159 435.997 261.44 436.388 261.82 436.664C262.201 436.94 262.69 437.078 263.289 437.078C263.883 437.078 264.37 436.94 264.75 436.664C265.135 436.388 265.419 435.997 265.602 435.492C265.784 434.987 265.875 434.391 265.875 433.703C265.875 433.021 265.784 432.432 265.602 431.938C265.419 431.438 265.138 431.052 264.758 430.781C264.378 430.51 263.885 430.375 263.281 430.375C262.391 430.375 261.737 430.669 261.32 431.258C260.909 431.846 260.703 432.661 260.703 433.703ZM276.531 429.438V438H275.469L275.281 436.797H275.211C275.034 437.094 274.805 437.344 274.523 437.547C274.242 437.75 273.924 437.901 273.57 438C273.221 438.104 272.849 438.156 272.453 438.156C271.776 438.156 271.208 438.047 270.75 437.828C270.292 437.609 269.945 437.271 269.711 436.812C269.482 436.354 269.367 435.766 269.367 435.047V429.438H270.68V434.953C270.68 435.667 270.841 436.201 271.164 436.555C271.487 436.904 271.979 437.078 272.641 437.078C273.276 437.078 273.781 436.958 274.156 436.719C274.536 436.479 274.81 436.128 274.977 435.664C275.143 435.195 275.227 434.622 275.227 433.945V429.438H276.531ZM283.164 429.281C283.336 429.281 283.516 429.292 283.703 429.312C283.891 429.328 284.057 429.352 284.203 429.383L284.039 430.586C283.898 430.549 283.742 430.521 283.57 430.5C283.398 430.479 283.237 430.469 283.086 430.469C282.742 430.469 282.417 430.539 282.109 430.68C281.807 430.815 281.542 431.013 281.312 431.273C281.083 431.529 280.904 431.839 280.773 432.203C280.643 432.562 280.578 432.964 280.578 433.406V438H279.273V429.438H280.352L280.492 431.016H280.547C280.724 430.698 280.938 430.409 281.188 430.148C281.438 429.883 281.727 429.672 282.055 429.516C282.388 429.359 282.758 429.281 283.164 429.281ZM294 429.281C295.068 429.281 295.919 429.648 296.555 430.383C297.19 431.117 297.508 432.221 297.508 433.695C297.508 434.669 297.362 435.487 297.07 436.148C296.779 436.81 296.367 437.31 295.836 437.648C295.31 437.987 294.688 438.156 293.969 438.156C293.516 438.156 293.117 438.096 292.773 437.977C292.43 437.857 292.135 437.695 291.891 437.492C291.646 437.289 291.443 437.068 291.281 436.828H291.188C291.203 437.031 291.221 437.276 291.242 437.562C291.268 437.849 291.281 438.099 291.281 438.312V441.828H289.977V429.438H291.047L291.219 430.703H291.281C291.448 430.443 291.651 430.206 291.891 429.992C292.13 429.773 292.422 429.602 292.766 429.477C293.115 429.346 293.526 429.281 294 429.281ZM293.773 430.375C293.18 430.375 292.701 430.49 292.336 430.719C291.977 430.948 291.714 431.292 291.547 431.75C291.38 432.203 291.292 432.773 291.281 433.461V433.711C291.281 434.435 291.359 435.047 291.516 435.547C291.677 436.047 291.94 436.427 292.305 436.688C292.674 436.948 293.169 437.078 293.789 437.078C294.32 437.078 294.763 436.935 295.117 436.648C295.471 436.362 295.734 435.964 295.906 435.453C296.083 434.938 296.172 434.346 296.172 433.68C296.172 432.669 295.974 431.867 295.578 431.273C295.188 430.674 294.586 430.375 293.773 430.375ZM302.977 429.297C303.997 429.297 304.755 429.526 305.25 429.984C305.745 430.443 305.992 431.174 305.992 432.18V438H305.047L304.797 436.734H304.734C304.495 437.047 304.245 437.31 303.984 437.523C303.724 437.732 303.422 437.891 303.078 438C302.74 438.104 302.323 438.156 301.828 438.156C301.307 438.156 300.844 438.065 300.438 437.883C300.036 437.701 299.719 437.424 299.484 437.055C299.255 436.685 299.141 436.216 299.141 435.648C299.141 434.794 299.479 434.138 300.156 433.68C300.833 433.221 301.865 432.971 303.25 432.93L304.727 432.867V432.344C304.727 431.604 304.568 431.086 304.25 430.789C303.932 430.492 303.484 430.344 302.906 430.344C302.458 430.344 302.031 430.409 301.625 430.539C301.219 430.669 300.833 430.823 300.469 431L300.07 430.016C300.456 429.818 300.898 429.648 301.398 429.508C301.898 429.367 302.424 429.297 302.977 429.297ZM304.711 433.781L303.406 433.836C302.339 433.878 301.586 434.052 301.148 434.359C300.711 434.667 300.492 435.102 300.492 435.664C300.492 436.154 300.641 436.516 300.938 436.75C301.234 436.984 301.628 437.102 302.117 437.102C302.878 437.102 303.5 436.891 303.984 436.469C304.469 436.047 304.711 435.414 304.711 434.57V433.781ZM314.203 435.656C314.203 436.203 314.065 436.664 313.789 437.039C313.518 437.409 313.128 437.688 312.617 437.875C312.112 438.062 311.508 438.156 310.805 438.156C310.206 438.156 309.688 438.109 309.25 438.016C308.812 437.922 308.43 437.789 308.102 437.617V436.422C308.451 436.594 308.867 436.75 309.352 436.891C309.836 437.031 310.331 437.102 310.836 437.102C311.576 437.102 312.112 436.982 312.445 436.742C312.779 436.503 312.945 436.177 312.945 435.766C312.945 435.531 312.878 435.326 312.742 435.148C312.612 434.966 312.391 434.792 312.078 434.625C311.766 434.453 311.333 434.266 310.781 434.062C310.234 433.854 309.76 433.648 309.359 433.445C308.964 433.237 308.656 432.984 308.438 432.688C308.224 432.391 308.117 432.005 308.117 431.531C308.117 430.807 308.409 430.253 308.992 429.867C309.581 429.477 310.352 429.281 311.305 429.281C311.82 429.281 312.302 429.333 312.75 429.438C313.203 429.536 313.625 429.672 314.016 429.844L313.578 430.883C313.224 430.732 312.846 430.604 312.445 430.5C312.044 430.396 311.635 430.344 311.219 430.344C310.62 430.344 310.159 430.443 309.836 430.641C309.518 430.839 309.359 431.109 309.359 431.453C309.359 431.719 309.432 431.938 309.578 432.109C309.729 432.281 309.969 432.443 310.297 432.594C310.625 432.745 311.057 432.922 311.594 433.125C312.13 433.323 312.594 433.529 312.984 433.742C313.375 433.951 313.674 434.206 313.883 434.508C314.096 434.805 314.203 435.188 314.203 435.656ZM321.828 435.656C321.828 436.203 321.69 436.664 321.414 437.039C321.143 437.409 320.753 437.688 320.242 437.875C319.737 438.062 319.133 438.156 318.43 438.156C317.831 438.156 317.312 438.109 316.875 438.016C316.438 437.922 316.055 437.789 315.727 437.617V436.422C316.076 436.594 316.492 436.75 316.977 436.891C317.461 437.031 317.956 437.102 318.461 437.102C319.201 437.102 319.737 436.982 320.07 436.742C320.404 436.503 320.57 436.177 320.57 435.766C320.57 435.531 320.503 435.326 320.367 435.148C320.237 434.966 320.016 434.792 319.703 434.625C319.391 434.453 318.958 434.266 318.406 434.062C317.859 433.854 317.385 433.648 316.984 433.445C316.589 433.237 316.281 432.984 316.062 432.688C315.849 432.391 315.742 432.005 315.742 431.531C315.742 430.807 316.034 430.253 316.617 429.867C317.206 429.477 317.977 429.281 318.93 429.281C319.445 429.281 319.927 429.333 320.375 429.438C320.828 429.536 321.25 429.672 321.641 429.844L321.203 430.883C320.849 430.732 320.471 430.604 320.07 430.5C319.669 430.396 319.26 430.344 318.844 430.344C318.245 430.344 317.784 430.443 317.461 430.641C317.143 430.839 316.984 431.109 316.984 431.453C316.984 431.719 317.057 431.938 317.203 432.109C317.354 432.281 317.594 432.443 317.922 432.594C318.25 432.745 318.682 432.922 319.219 433.125C319.755 433.323 320.219 433.529 320.609 433.742C321 433.951 321.299 434.206 321.508 434.508C321.721 434.805 321.828 435.188 321.828 435.656ZM330.883 437.984L329.359 433C329.292 432.786 329.227 432.578 329.164 432.375C329.107 432.167 329.052 431.969 329 431.781C328.953 431.589 328.909 431.411 328.867 431.25C328.831 431.083 328.799 430.94 328.773 430.82H328.719C328.698 430.94 328.669 431.083 328.633 431.25C328.596 431.411 328.552 431.589 328.5 431.781C328.453 431.974 328.401 432.177 328.344 432.391C328.286 432.599 328.221 432.81 328.148 433.023L326.555 437.984H325.094L322.734 429.422H324.078L325.312 434.148C325.396 434.461 325.474 434.771 325.547 435.078C325.625 435.38 325.69 435.667 325.742 435.938C325.799 436.203 325.841 436.435 325.867 436.633H325.93C325.961 436.503 325.995 436.346 326.031 436.164C326.073 435.982 326.117 435.789 326.164 435.586C326.216 435.378 326.271 435.172 326.328 434.969C326.385 434.76 326.443 434.565 326.5 434.383L328.078 429.422H329.477L331 434.375C331.078 434.625 331.154 434.885 331.227 435.156C331.305 435.427 331.375 435.69 331.438 435.945C331.5 436.195 331.544 436.419 331.57 436.617H331.633C331.654 436.44 331.693 436.221 331.75 435.961C331.807 435.701 331.872 435.414 331.945 435.102C332.023 434.789 332.104 434.471 332.188 434.148L333.438 429.422H334.758L332.391 437.984H330.883ZM343.703 433.703C343.703 434.406 343.612 435.034 343.43 435.586C343.247 436.138 342.984 436.604 342.641 436.984C342.297 437.365 341.88 437.656 341.391 437.859C340.906 438.057 340.357 438.156 339.742 438.156C339.169 438.156 338.643 438.057 338.164 437.859C337.69 437.656 337.279 437.365 336.93 436.984C336.586 436.604 336.318 436.138 336.125 435.586C335.938 435.034 335.844 434.406 335.844 433.703C335.844 432.766 336.003 431.969 336.32 431.312C336.638 430.651 337.091 430.148 337.68 429.805C338.273 429.456 338.979 429.281 339.797 429.281C340.578 429.281 341.26 429.456 341.844 429.805C342.432 430.154 342.888 430.659 343.211 431.32C343.539 431.977 343.703 432.771 343.703 433.703ZM337.188 433.703C337.188 434.391 337.279 434.987 337.461 435.492C337.643 435.997 337.924 436.388 338.305 436.664C338.685 436.94 339.174 437.078 339.773 437.078C340.367 437.078 340.854 436.94 341.234 436.664C341.62 436.388 341.904 435.997 342.086 435.492C342.268 434.987 342.359 434.391 342.359 433.703C342.359 433.021 342.268 432.432 342.086 431.938C341.904 431.438 341.622 431.052 341.242 430.781C340.862 430.51 340.37 430.375 339.766 430.375C338.875 430.375 338.221 430.669 337.805 431.258C337.393 431.846 337.188 432.661 337.188 433.703ZM349.836 429.281C350.008 429.281 350.188 429.292 350.375 429.312C350.562 429.328 350.729 429.352 350.875 429.383L350.711 430.586C350.57 430.549 350.414 430.521 350.242 430.5C350.07 430.479 349.909 430.469 349.758 430.469C349.414 430.469 349.089 430.539 348.781 430.68C348.479 430.815 348.214 431.013 347.984 431.273C347.755 431.529 347.576 431.839 347.445 432.203C347.315 432.562 347.25 432.964 347.25 433.406V438H345.945V429.438H347.023L347.164 431.016H347.219C347.396 430.698 347.609 430.409 347.859 430.148C348.109 429.883 348.398 429.672 348.727 429.516C349.06 429.359 349.43 429.281 349.836 429.281ZM355.539 438.156C354.456 438.156 353.596 437.786 352.961 437.047C352.331 436.307 352.016 435.208 352.016 433.75C352.016 432.276 352.339 431.164 352.984 430.414C353.63 429.659 354.49 429.281 355.562 429.281C356.016 429.281 356.411 429.341 356.75 429.461C357.089 429.581 357.38 429.742 357.625 429.945C357.87 430.143 358.076 430.37 358.242 430.625H358.336C358.315 430.464 358.294 430.242 358.273 429.961C358.253 429.68 358.242 429.451 358.242 429.273V425.844H359.539V438H358.492L358.297 436.781H358.242C358.081 437.036 357.875 437.268 357.625 437.477C357.38 437.685 357.086 437.852 356.742 437.977C356.404 438.096 356.003 438.156 355.539 438.156ZM355.742 437.078C356.659 437.078 357.307 436.818 357.688 436.297C358.068 435.776 358.258 435.003 358.258 433.977V433.742C358.258 432.654 358.076 431.818 357.711 431.234C357.352 430.651 356.695 430.359 355.742 430.359C354.945 430.359 354.349 430.667 353.953 431.281C353.557 431.891 353.359 432.724 353.359 433.781C353.359 434.833 353.555 435.646 353.945 436.219C354.341 436.792 354.94 437.078 355.742 437.078ZM362.094 437.188C362.094 436.823 362.182 436.565 362.359 436.414C362.536 436.258 362.753 436.18 363.008 436.18C363.273 436.18 363.497 436.258 363.68 436.414C363.862 436.565 363.953 436.823 363.953 437.188C363.953 437.547 363.862 437.81 363.68 437.977C363.497 438.138 363.273 438.219 363.008 438.219C362.753 438.219 362.536 438.138 362.359 437.977C362.182 437.81 362.094 437.547 362.094 437.188ZM367.375 434.828V434.422C367.375 434.005 367.414 433.648 367.492 433.352C367.57 433.049 367.706 432.768 367.898 432.508C368.096 432.247 368.37 431.971 368.719 431.68C369.125 431.341 369.445 431.055 369.68 430.82C369.919 430.581 370.091 430.341 370.195 430.102C370.299 429.862 370.352 429.573 370.352 429.234C370.352 428.693 370.177 428.279 369.828 427.992C369.479 427.701 368.987 427.555 368.352 427.555C367.836 427.555 367.378 427.62 366.977 427.75C366.576 427.88 366.19 428.036 365.82 428.219L365.367 427.172C365.794 426.948 366.258 426.766 366.758 426.625C367.258 426.484 367.815 426.414 368.43 426.414C369.435 426.414 370.214 426.664 370.766 427.164C371.318 427.659 371.594 428.341 371.594 429.211C371.594 429.695 371.516 430.109 371.359 430.453C371.203 430.792 370.982 431.104 370.695 431.391C370.409 431.672 370.07 431.971 369.68 432.289C369.336 432.581 369.073 432.839 368.891 433.062C368.708 433.281 368.583 433.508 368.516 433.742C368.448 433.971 368.414 434.247 368.414 434.57V434.828H367.375ZM367.031 437.188C367.031 436.823 367.117 436.565 367.289 436.414C367.461 436.258 367.682 436.18 367.953 436.18C368.208 436.18 368.424 436.258 368.602 436.414C368.784 436.565 368.875 436.823 368.875 437.188C368.875 437.547 368.784 437.81 368.602 437.977C368.424 438.138 368.208 438.219 367.953 438.219C367.682 438.219 367.461 438.138 367.289 437.977C367.117 437.81 367.031 437.547 367.031 437.188ZM384.109 438H377.75V426.578H384.109V427.75H379.078V431.445H383.82V432.602H379.078V436.828H384.109V438ZM390.5 429.281C391.516 429.281 392.284 429.531 392.805 430.031C393.326 430.526 393.586 431.323 393.586 432.422V438H392.305V432.508C392.305 431.794 392.141 431.26 391.812 430.906C391.49 430.552 390.992 430.375 390.32 430.375C389.372 430.375 388.706 430.643 388.32 431.18C387.935 431.716 387.742 432.495 387.742 433.516V438H386.445V429.438H387.492L387.688 430.672H387.758C387.94 430.37 388.172 430.117 388.453 429.914C388.734 429.706 389.049 429.549 389.398 429.445C389.747 429.336 390.115 429.281 390.5 429.281ZM399.023 437.094C399.237 437.094 399.456 437.076 399.68 437.039C399.904 437.003 400.086 436.958 400.227 436.906V437.914C400.076 437.982 399.865 438.039 399.594 438.086C399.328 438.133 399.068 438.156 398.812 438.156C398.359 438.156 397.948 438.078 397.578 437.922C397.208 437.76 396.911 437.49 396.688 437.109C396.469 436.729 396.359 436.203 396.359 435.531V430.453H395.141V429.82L396.367 429.312L396.883 427.453H397.664V429.438H400.172V430.453H397.664V435.492C397.664 436.029 397.786 436.43 398.031 436.695C398.281 436.961 398.612 437.094 399.023 437.094ZM405.258 429.281C405.987 429.281 406.612 429.443 407.133 429.766C407.654 430.089 408.052 430.542 408.328 431.125C408.604 431.703 408.742 432.38 408.742 433.156V433.961H402.828C402.844 434.966 403.094 435.732 403.578 436.258C404.062 436.784 404.745 437.047 405.625 437.047C406.167 437.047 406.646 436.997 407.062 436.898C407.479 436.799 407.911 436.654 408.359 436.461V437.602C407.927 437.794 407.497 437.935 407.07 438.023C406.648 438.112 406.148 438.156 405.57 438.156C404.747 438.156 404.029 437.99 403.414 437.656C402.805 437.318 402.331 436.823 401.992 436.172C401.654 435.521 401.484 434.724 401.484 433.781C401.484 432.859 401.638 432.062 401.945 431.391C402.258 430.714 402.695 430.193 403.258 429.828C403.826 429.464 404.492 429.281 405.258 429.281ZM405.242 430.344C404.549 430.344 403.997 430.57 403.586 431.023C403.174 431.477 402.93 432.109 402.852 432.922H407.383C407.378 432.411 407.297 431.964 407.141 431.578C406.99 431.188 406.758 430.885 406.445 430.672C406.133 430.453 405.732 430.344 405.242 430.344ZM414.836 429.281C415.008 429.281 415.188 429.292 415.375 429.312C415.562 429.328 415.729 429.352 415.875 429.383L415.711 430.586C415.57 430.549 415.414 430.521 415.242 430.5C415.07 430.479 414.909 430.469 414.758 430.469C414.414 430.469 414.089 430.539 413.781 430.68C413.479 430.815 413.214 431.013 412.984 431.273C412.755 431.529 412.576 431.839 412.445 432.203C412.315 432.562 412.25 432.964 412.25 433.406V438H410.945V429.438H412.023L412.164 431.016H412.219C412.396 430.698 412.609 430.409 412.859 430.148C413.109 429.883 413.398 429.672 413.727 429.516C414.06 429.359 414.43 429.281 414.836 429.281ZM420.297 429.438H421.688L423.578 434.406C423.688 434.698 423.789 434.979 423.883 435.25C423.977 435.516 424.06 435.771 424.133 436.016C424.206 436.26 424.263 436.497 424.305 436.727H424.359C424.432 436.466 424.536 436.125 424.672 435.703C424.807 435.276 424.953 434.841 425.109 434.398L426.898 429.438H428.297L424.57 439.258C424.372 439.784 424.141 440.242 423.875 440.633C423.615 441.023 423.297 441.323 422.922 441.531C422.547 441.745 422.094 441.852 421.562 441.852C421.318 441.852 421.102 441.836 420.914 441.805C420.727 441.779 420.565 441.747 420.43 441.711V440.672C420.544 440.698 420.682 440.721 420.844 440.742C421.01 440.763 421.182 440.773 421.359 440.773C421.682 440.773 421.961 440.711 422.195 440.586C422.435 440.466 422.641 440.289 422.812 440.055C422.984 439.82 423.133 439.542 423.258 439.219L423.727 438.016L420.297 429.438ZM437.047 433.703C437.047 434.406 436.956 435.034 436.773 435.586C436.591 436.138 436.328 436.604 435.984 436.984C435.641 437.365 435.224 437.656 434.734 437.859C434.25 438.057 433.701 438.156 433.086 438.156C432.513 438.156 431.987 438.057 431.508 437.859C431.034 437.656 430.622 437.365 430.273 436.984C429.93 436.604 429.661 436.138 429.469 435.586C429.281 435.034 429.188 434.406 429.188 433.703C429.188 432.766 429.346 431.969 429.664 431.312C429.982 430.651 430.435 430.148 431.023 429.805C431.617 429.456 432.323 429.281 433.141 429.281C433.922 429.281 434.604 429.456 435.188 429.805C435.776 430.154 436.232 430.659 436.555 431.32C436.883 431.977 437.047 432.771 437.047 433.703ZM430.531 433.703C430.531 434.391 430.622 434.987 430.805 435.492C430.987 435.997 431.268 436.388 431.648 436.664C432.029 436.94 432.518 437.078 433.117 437.078C433.711 437.078 434.198 436.94 434.578 436.664C434.964 436.388 435.247 435.997 435.43 435.492C435.612 434.987 435.703 434.391 435.703 433.703C435.703 433.021 435.612 432.432 435.43 431.938C435.247 431.438 434.966 431.052 434.586 430.781C434.206 430.51 433.714 430.375 433.109 430.375C432.219 430.375 431.565 430.669 431.148 431.258C430.737 431.846 430.531 432.661 430.531 433.703ZM446.359 429.438V438H445.297L445.109 436.797H445.039C444.862 437.094 444.633 437.344 444.352 437.547C444.07 437.75 443.753 437.901 443.398 438C443.049 438.104 442.677 438.156 442.281 438.156C441.604 438.156 441.036 438.047 440.578 437.828C440.12 437.609 439.773 437.271 439.539 436.812C439.31 436.354 439.195 435.766 439.195 435.047V429.438H440.508V434.953C440.508 435.667 440.669 436.201 440.992 436.555C441.315 436.904 441.807 437.078 442.469 437.078C443.104 437.078 443.609 436.958 443.984 436.719C444.365 436.479 444.638 436.128 444.805 435.664C444.971 435.195 445.055 434.622 445.055 433.945V429.438H446.359ZM452.992 429.281C453.164 429.281 453.344 429.292 453.531 429.312C453.719 429.328 453.885 429.352 454.031 429.383L453.867 430.586C453.727 430.549 453.57 430.521 453.398 430.5C453.227 430.479 453.065 430.469 452.914 430.469C452.57 430.469 452.245 430.539 451.938 430.68C451.635 430.815 451.37 431.013 451.141 431.273C450.911 431.529 450.732 431.839 450.602 432.203C450.471 432.562 450.406 432.964 450.406 433.406V438H449.102V429.438H450.18L450.32 431.016H450.375C450.552 430.698 450.766 430.409 451.016 430.148C451.266 429.883 451.555 429.672 451.883 429.516C452.216 429.359 452.586 429.281 452.992 429.281ZM466.359 438H460V426.578H466.359V427.75H461.328V431.445H466.07V432.602H461.328V436.828H466.359V438ZM477.992 429.281C478.935 429.281 479.646 429.529 480.125 430.023C480.604 430.513 480.844 431.302 480.844 432.391V438H479.562V432.453C479.562 431.76 479.411 431.242 479.109 430.898C478.812 430.549 478.37 430.375 477.781 430.375C476.953 430.375 476.352 430.615 475.977 431.094C475.602 431.573 475.414 432.279 475.414 433.211V438H474.125V432.453C474.125 431.99 474.057 431.604 473.922 431.297C473.792 430.99 473.594 430.76 473.328 430.609C473.068 430.453 472.737 430.375 472.336 430.375C471.768 430.375 471.312 430.492 470.969 430.727C470.625 430.961 470.375 431.31 470.219 431.773C470.068 432.232 469.992 432.797 469.992 433.469V438H468.695V429.438H469.742L469.938 430.648H470.008C470.18 430.352 470.396 430.102 470.656 429.898C470.917 429.695 471.208 429.542 471.531 429.438C471.854 429.333 472.198 429.281 472.562 429.281C473.214 429.281 473.758 429.404 474.195 429.648C474.638 429.888 474.958 430.255 475.156 430.75H475.227C475.508 430.255 475.893 429.888 476.383 429.648C476.872 429.404 477.409 429.281 477.992 429.281ZM486.711 429.297C487.732 429.297 488.49 429.526 488.984 429.984C489.479 430.443 489.727 431.174 489.727 432.18V438H488.781L488.531 436.734H488.469C488.229 437.047 487.979 437.31 487.719 437.523C487.458 437.732 487.156 437.891 486.812 438C486.474 438.104 486.057 438.156 485.562 438.156C485.042 438.156 484.578 438.065 484.172 437.883C483.771 437.701 483.453 437.424 483.219 437.055C482.99 436.685 482.875 436.216 482.875 435.648C482.875 434.794 483.214 434.138 483.891 433.68C484.568 433.221 485.599 432.971 486.984 432.93L488.461 432.867V432.344C488.461 431.604 488.302 431.086 487.984 430.789C487.667 430.492 487.219 430.344 486.641 430.344C486.193 430.344 485.766 430.409 485.359 430.539C484.953 430.669 484.568 430.823 484.203 431L483.805 430.016C484.19 429.818 484.633 429.648 485.133 429.508C485.633 429.367 486.159 429.297 486.711 429.297ZM488.445 433.781L487.141 433.836C486.073 433.878 485.32 434.052 484.883 434.359C484.445 434.667 484.227 435.102 484.227 435.664C484.227 436.154 484.375 436.516 484.672 436.75C484.969 436.984 485.362 437.102 485.852 437.102C486.612 437.102 487.234 436.891 487.719 436.469C488.203 436.047 488.445 435.414 488.445 434.57V433.781ZM493.695 429.438V438H492.398V429.438H493.695ZM493.062 426.234C493.276 426.234 493.458 426.305 493.609 426.445C493.766 426.581 493.844 426.794 493.844 427.086C493.844 427.372 493.766 427.586 493.609 427.727C493.458 427.867 493.276 427.938 493.062 427.938C492.839 427.938 492.651 427.867 492.5 427.727C492.354 427.586 492.281 427.372 492.281 427.086C492.281 426.794 492.354 426.581 492.5 426.445C492.651 426.305 492.839 426.234 493.062 426.234ZM497.75 438H496.445V425.844H497.75V438ZM507.414 437.094C507.628 437.094 507.846 437.076 508.07 437.039C508.294 437.003 508.477 436.958 508.617 436.906V437.914C508.466 437.982 508.255 438.039 507.984 438.086C507.719 438.133 507.458 438.156 507.203 438.156C506.75 438.156 506.339 438.078 505.969 437.922C505.599 437.76 505.302 437.49 505.078 437.109C504.859 436.729 504.75 436.203 504.75 435.531V430.453H503.531V429.82L504.758 429.312L505.273 427.453H506.055V429.438H508.562V430.453H506.055V435.492C506.055 436.029 506.177 436.43 506.422 436.695C506.672 436.961 507.003 437.094 507.414 437.094ZM517.734 433.703C517.734 434.406 517.643 435.034 517.461 435.586C517.279 436.138 517.016 436.604 516.672 436.984C516.328 437.365 515.911 437.656 515.422 437.859C514.938 438.057 514.388 438.156 513.773 438.156C513.201 438.156 512.674 438.057 512.195 437.859C511.721 437.656 511.31 437.365 510.961 436.984C510.617 436.604 510.349 436.138 510.156 435.586C509.969 435.034 509.875 434.406 509.875 433.703C509.875 432.766 510.034 431.969 510.352 431.312C510.669 430.651 511.122 430.148 511.711 429.805C512.305 429.456 513.01 429.281 513.828 429.281C514.609 429.281 515.292 429.456 515.875 429.805C516.464 430.154 516.919 430.659 517.242 431.32C517.57 431.977 517.734 432.771 517.734 433.703ZM511.219 433.703C511.219 434.391 511.31 434.987 511.492 435.492C511.674 435.997 511.956 436.388 512.336 436.664C512.716 436.94 513.206 437.078 513.805 437.078C514.398 437.078 514.885 436.94 515.266 436.664C515.651 436.388 515.935 435.997 516.117 435.492C516.299 434.987 516.391 434.391 516.391 433.703C516.391 433.021 516.299 432.432 516.117 431.938C515.935 431.438 515.654 431.052 515.273 430.781C514.893 430.51 514.401 430.375 513.797 430.375C512.906 430.375 512.253 430.669 511.836 431.258C511.424 431.846 511.219 432.661 511.219 433.703ZM526.523 441.844C525.398 441.844 524.531 441.633 523.922 441.211C523.312 440.794 523.008 440.208 523.008 439.453C523.008 438.917 523.177 438.458 523.516 438.078C523.859 437.698 524.333 437.445 524.938 437.32C524.714 437.216 524.521 437.06 524.359 436.852C524.203 436.643 524.125 436.404 524.125 436.133C524.125 435.82 524.211 435.547 524.383 435.312C524.56 435.073 524.828 434.844 525.188 434.625C524.74 434.443 524.375 434.135 524.094 433.703C523.818 433.266 523.68 432.758 523.68 432.18C523.68 431.565 523.807 431.042 524.062 430.609C524.318 430.172 524.688 429.839 525.172 429.609C525.656 429.38 526.242 429.266 526.93 429.266C527.081 429.266 527.232 429.273 527.383 429.289C527.539 429.299 527.688 429.318 527.828 429.344C527.969 429.365 528.091 429.391 528.195 429.422H531.133V430.258L529.555 430.453C529.711 430.656 529.841 430.901 529.945 431.188C530.049 431.474 530.102 431.792 530.102 432.141C530.102 432.995 529.812 433.674 529.234 434.18C528.656 434.68 527.862 434.93 526.852 434.93C526.612 434.93 526.367 434.909 526.117 434.867C525.862 435.008 525.667 435.164 525.531 435.336C525.401 435.508 525.336 435.706 525.336 435.93C525.336 436.096 525.385 436.229 525.484 436.328C525.589 436.427 525.737 436.5 525.93 436.547C526.122 436.589 526.354 436.609 526.625 436.609H528.133C529.065 436.609 529.779 436.805 530.273 437.195C530.773 437.586 531.023 438.156 531.023 438.906C531.023 439.854 530.638 440.581 529.867 441.086C529.096 441.591 527.982 441.844 526.523 441.844ZM526.562 440.828C527.271 440.828 527.857 440.755 528.32 440.609C528.789 440.469 529.138 440.263 529.367 439.992C529.602 439.727 529.719 439.409 529.719 439.039C529.719 438.695 529.641 438.435 529.484 438.258C529.328 438.086 529.099 437.971 528.797 437.914C528.495 437.852 528.125 437.82 527.688 437.82H526.203C525.818 437.82 525.482 437.88 525.195 438C524.909 438.12 524.688 438.297 524.531 438.531C524.38 438.766 524.305 439.057 524.305 439.406C524.305 439.87 524.5 440.221 524.891 440.461C525.281 440.706 525.839 440.828 526.562 440.828ZM526.898 433.984C527.518 433.984 527.984 433.828 528.297 433.516C528.609 433.203 528.766 432.747 528.766 432.148C528.766 431.508 528.607 431.029 528.289 430.711C527.971 430.388 527.503 430.227 526.883 430.227C526.289 430.227 525.831 430.393 525.508 430.727C525.19 431.055 525.031 431.536 525.031 432.172C525.031 432.755 525.193 433.203 525.516 433.516C525.839 433.828 526.299 433.984 526.898 433.984ZM536.117 429.281C536.846 429.281 537.471 429.443 537.992 429.766C538.513 430.089 538.911 430.542 539.188 431.125C539.464 431.703 539.602 432.38 539.602 433.156V433.961H533.688C533.703 434.966 533.953 435.732 534.438 436.258C534.922 436.784 535.604 437.047 536.484 437.047C537.026 437.047 537.505 436.997 537.922 436.898C538.339 436.799 538.771 436.654 539.219 436.461V437.602C538.786 437.794 538.357 437.935 537.93 438.023C537.508 438.112 537.008 438.156 536.43 438.156C535.607 438.156 534.888 437.99 534.273 437.656C533.664 437.318 533.19 436.823 532.852 436.172C532.513 435.521 532.344 434.724 532.344 433.781C532.344 432.859 532.497 432.062 532.805 431.391C533.117 430.714 533.555 430.193 534.117 429.828C534.685 429.464 535.352 429.281 536.117 429.281ZM536.102 430.344C535.409 430.344 534.857 430.57 534.445 431.023C534.034 431.477 533.789 432.109 533.711 432.922H538.242C538.237 432.411 538.156 431.964 538 431.578C537.849 431.188 537.617 430.885 537.305 430.672C536.992 430.453 536.591 430.344 536.102 430.344ZM544.57 437.094C544.784 437.094 545.003 437.076 545.227 437.039C545.451 437.003 545.633 436.958 545.773 436.906V437.914C545.622 437.982 545.411 438.039 545.141 438.086C544.875 438.133 544.615 438.156 544.359 438.156C543.906 438.156 543.495 438.078 543.125 437.922C542.755 437.76 542.458 437.49 542.234 437.109C542.016 436.729 541.906 436.203 541.906 435.531V430.453H540.688V429.82L541.914 429.312L542.43 427.453H543.211V429.438H545.719V430.453H543.211V435.492C543.211 436.029 543.333 436.43 543.578 436.695C543.828 436.961 544.159 437.094 544.57 437.094ZM554.867 429.297C555.888 429.297 556.646 429.526 557.141 429.984C557.635 430.443 557.883 431.174 557.883 432.18V438H556.938L556.688 436.734H556.625C556.385 437.047 556.135 437.31 555.875 437.523C555.615 437.732 555.312 437.891 554.969 438C554.63 438.104 554.214 438.156 553.719 438.156C553.198 438.156 552.734 438.065 552.328 437.883C551.927 437.701 551.609 437.424 551.375 437.055C551.146 436.685 551.031 436.216 551.031 435.648C551.031 434.794 551.37 434.138 552.047 433.68C552.724 433.221 553.755 432.971 555.141 432.93L556.617 432.867V432.344C556.617 431.604 556.458 431.086 556.141 430.789C555.823 430.492 555.375 430.344 554.797 430.344C554.349 430.344 553.922 430.409 553.516 430.539C553.109 430.669 552.724 430.823 552.359 431L551.961 430.016C552.346 429.818 552.789 429.648 553.289 429.508C553.789 429.367 554.315 429.297 554.867 429.297ZM556.602 433.781L555.297 433.836C554.229 433.878 553.477 434.052 553.039 434.359C552.602 434.667 552.383 435.102 552.383 435.664C552.383 436.154 552.531 436.516 552.828 436.75C553.125 436.984 553.518 437.102 554.008 437.102C554.768 437.102 555.391 436.891 555.875 436.469C556.359 436.047 556.602 435.414 556.602 434.57V433.781ZM564.609 429.281C565.625 429.281 566.393 429.531 566.914 430.031C567.435 430.526 567.695 431.323 567.695 432.422V438H566.414V432.508C566.414 431.794 566.25 431.26 565.922 430.906C565.599 430.552 565.102 430.375 564.43 430.375C563.482 430.375 562.815 430.643 562.43 431.18C562.044 431.716 561.852 432.495 561.852 433.516V438H560.555V429.438H561.602L561.797 430.672H561.867C562.049 430.37 562.281 430.117 562.562 429.914C562.844 429.706 563.159 429.549 563.508 429.445C563.857 429.336 564.224 429.281 564.609 429.281ZM584.625 432.273C584.625 433.154 584.513 433.956 584.289 434.68C584.065 435.398 583.732 436.018 583.289 436.539C582.852 437.055 582.307 437.453 581.656 437.734C581.005 438.016 580.25 438.156 579.391 438.156C578.505 438.156 577.732 438.016 577.07 437.734C576.414 437.453 575.867 437.052 575.43 436.531C574.997 436.01 574.672 435.388 574.453 434.664C574.24 433.94 574.133 433.138 574.133 432.258C574.133 431.091 574.326 430.068 574.711 429.188C575.096 428.307 575.68 427.622 576.461 427.133C577.247 426.643 578.232 426.398 579.414 426.398C580.544 426.398 581.495 426.641 582.266 427.125C583.042 427.609 583.628 428.292 584.023 429.172C584.424 430.047 584.625 431.081 584.625 432.273ZM575.531 432.273C575.531 433.242 575.669 434.081 575.945 434.789C576.221 435.497 576.643 436.044 577.211 436.43C577.784 436.815 578.51 437.008 579.391 437.008C580.276 437.008 581 436.815 581.562 436.43C582.13 436.044 582.549 435.497 582.82 434.789C583.091 434.081 583.227 433.242 583.227 432.273C583.227 430.799 582.917 429.648 582.297 428.82C581.682 427.987 580.721 427.57 579.414 427.57C578.529 427.57 577.799 427.76 577.227 428.141C576.654 428.521 576.227 429.062 575.945 429.766C575.669 430.464 575.531 431.299 575.531 432.273ZM590.68 438H589.344V427.75H585.75V426.578H594.258V427.75H590.68V438ZM598.969 426.578C600.443 426.578 601.518 426.867 602.195 427.445C602.878 428.018 603.219 428.841 603.219 429.914C603.219 430.398 603.138 430.859 602.977 431.297C602.82 431.729 602.565 432.112 602.211 432.445C601.857 432.773 601.391 433.034 600.812 433.227C600.24 433.414 599.536 433.508 598.703 433.508H597.312V438H595.984V426.578H598.969ZM598.844 427.711H597.312V432.367H598.555C599.284 432.367 599.891 432.289 600.375 432.133C600.865 431.977 601.232 431.724 601.477 431.375C601.721 431.021 601.844 430.552 601.844 429.969C601.844 429.208 601.602 428.643 601.117 428.273C600.633 427.898 599.875 427.711 598.844 427.711ZM605.219 437.188C605.219 436.823 605.307 436.565 605.484 436.414C605.661 436.258 605.878 436.18 606.133 436.18C606.398 436.18 606.622 436.258 606.805 436.414C606.987 436.565 607.078 436.823 607.078 437.188C607.078 437.547 606.987 437.81 606.805 437.977C606.622 438.138 606.398 438.219 606.133 438.219C605.878 438.219 605.661 438.138 605.484 437.977C605.307 437.81 605.219 437.547 605.219 437.188Z" fill="#DDDDDD"/>
<path d="M302.839 639.066C302.839 675.155 281.384 687.756 254.919 687.756C228.454 687.756 207 675.155 207 639.066C207 602.977 254.919 557.067 254.919 557.067C254.919 557.067 302.839 602.977 302.839 639.066Z" fill="#0C59C9"/>
<path d="M253.174 682.235L253.664 652.032L274.089 614.667L253.741 647.294L253.962 633.714L268.038 606.68L254.02 630.12L254.417 605.695L269.491 584.172L254.479 601.854L254.727 557.067L253.169 616.357L253.297 613.911L237.972 590.453L253.052 618.606L251.624 645.885L251.581 645.161L233.914 620.475L251.528 647.719L251.349 651.13L251.317 651.181L251.332 651.461L247.709 720.67H252.549L253.13 684.922L270.7 657.745L253.174 682.235Z" fill="#3F3D56"/>
<path d="M513.683 641.302C513.683 677.391 492.229 689.991 465.764 689.991C439.299 689.991 417.845 677.391 417.845 641.302C417.845 605.213 465.764 559.303 465.764 559.303C465.764 559.303 513.683 605.213 513.683 641.302Z" fill="#0C59C9"/>
<path d="M464.019 684.471L464.509 654.268L484.934 616.903L464.586 649.53L464.807 635.95L478.883 608.917L464.865 632.356L465.262 607.931L480.335 586.409L465.324 604.09L465.572 559.303L464.014 618.593L464.142 616.147L448.817 592.69L463.896 620.842L462.468 648.121L462.426 647.397L444.759 622.711L462.372 649.955L462.194 653.366L462.162 653.418L462.177 653.698L458.554 722.906H463.394L463.975 687.159L481.545 659.982L464.019 684.471Z" fill="#3F3D56"/>
<path d="M414.011 610.653C414.011 650.11 390.554 663.886 361.619 663.886C332.684 663.886 309.228 650.11 309.228 610.653C309.228 571.196 361.619 521 361.619 521C361.619 521 414.011 571.196 414.011 610.653Z" fill="#0C59C9"/>
<path d="M359.711 657.851L360.247 624.829L382.578 583.976L360.331 619.649L360.573 604.801L375.963 575.244L360.636 600.871L361.07 574.166L377.55 550.636L361.138 569.967L361.409 521L359.706 585.824L359.846 583.149L343.09 557.502L359.577 588.283L358.016 618.108L357.97 617.316L338.653 590.326L357.911 620.113L357.716 623.842L357.681 623.899L357.697 624.205L353.736 699.873H359.028L359.663 660.789L378.873 631.075L359.711 657.851Z" fill="#3F3D56"/>
<path d="M472.792 726.179C472.792 734.647 417.297 761 348.841 761C280.384 761 224.89 734.647 224.89 726.179C224.89 717.71 275.912 698.705 344.368 698.705C412.825 698.705 472.792 717.71 472.792 726.179Z" fill="#3F3D56"/>
<path opacity="0.1" d="M472.792 726.179C472.792 734.647 417.297 761 348.841 761C280.384 761 224.89 734.647 224.89 726.179C224.89 717.71 275.912 698.705 344.368 698.705C412.825 698.705 472.792 717.71 472.792 726.179Z" fill="black"/>
<path d="M472.792 726.179C472.792 734.647 417.297 741.513 348.841 741.513C280.384 741.513 224.89 734.647 224.89 726.179C224.89 717.71 275.912 698.705 344.368 698.705C412.825 698.705 472.792 717.71 472.792 726.179Z" fill="#3D3E56"/>
<path d="M390.508 683.716C390.508 695.864 398.129 705.695 407.548 705.695L390.508 683.716Z" fill="#3F3D56"/>
<path d="M407.549 705.695C407.549 693.41 416.054 683.469 426.565 683.469L407.549 705.695Z" fill="#0C59C9"/>
<path d="M396.681 684.817C396.681 696.358 401.541 705.696 407.547 705.696L396.681 684.817Z" fill="#0C59C9"/>
<path d="M407.549 705.695C407.549 689.997 417.38 677.295 429.528 677.295L407.549 705.695Z" fill="#3F3D56"/>
<path d="M403.964 705.85C403.964 705.85 406.38 705.775 407.109 705.257C407.837 704.738 410.826 704.119 411.007 704.95C411.187 705.782 414.638 709.087 411.91 709.109C409.182 709.131 405.571 708.684 404.844 708.241C404.117 707.799 403.964 705.85 403.964 705.85Z" fill="#A8A8A8"/>
<path opacity="0.2" d="M411.959 708.82C409.23 708.842 405.619 708.395 404.893 707.952C404.339 707.615 404.118 706.405 404.045 705.847C403.993 705.849 403.964 705.85 403.964 705.85C403.964 705.85 404.117 707.799 404.844 708.242C405.571 708.685 409.182 709.132 411.91 709.11C412.698 709.103 412.97 708.823 412.955 708.408C412.845 708.659 412.545 708.816 411.959 708.82Z" fill="black"/>
<path opacity="0.1" d="M350.438 731.289C373.727 731.289 392.606 728.286 392.606 724.581C392.606 720.876 373.727 717.872 350.438 717.872C327.148 717.872 308.269 720.876 308.269 724.581C308.269 728.286 327.148 731.289 350.438 731.289Z" fill="black"/>
<path d="M368.966 709.566H364.813V719.15H368.966V709.566Z" fill="#FFB9B9"/>
<path d="M369.287 580.184H353.313V608.936H369.287V580.184Z" fill="#FF6584"/>
<path d="M381.018 634.598L381.571 639.021L367.013 643.444L365.17 635.336L381.018 634.598Z" fill="#FFB9B9"/>
<path d="M359.457 592.03C359.457 592.03 359.088 595.347 358.351 595.347C357.614 595.347 355.034 596.637 355.034 596.637L354.297 600.138L359.457 603.271L367.934 602.349L370.33 598.664L367.934 596.268C367.934 596.268 365.907 591.845 366.644 590.924C367.381 590.003 359.457 592.03 359.457 592.03Z" fill="#FFB9B9"/>
<path opacity="0.1" d="M359.457 592.03C359.457 592.03 359.088 595.347 358.351 595.347C357.614 595.347 355.034 596.637 355.034 596.637L354.297 600.138L359.457 603.271L367.934 602.349L370.33 598.664L367.934 596.268C367.934 596.268 365.907 591.845 366.644 590.924C367.381 590.003 359.457 592.03 359.457 592.03Z" fill="black"/>
<path d="M336.421 706.838C336.421 706.838 334.762 717.895 332.735 718.632C330.708 719.369 340.475 720.659 340.475 720.659L341.212 716.605C341.212 716.605 341.396 709.234 342.133 708.128C342.87 707.022 336.421 706.838 336.421 706.838Z" fill="#FFB9B9"/>
<path d="M355.219 642.523C355.219 642.523 381.94 637.732 382.124 636.81C382.309 635.889 387.653 643.813 384.336 659.293C381.019 674.772 372.726 711.26 372.726 711.26C372.726 711.26 364.249 713.84 364.433 711.813C364.617 709.786 367.382 674.588 367.382 674.588L365.539 659.661L362.406 661.504L349.322 687.304L342.688 709.602C342.688 709.602 334.211 711.076 335.501 707.943C336.791 704.811 341.029 680.485 341.029 680.485L352.639 646.209C352.639 646.209 352.27 642.523 355.219 642.523Z" fill="#2F2E41"/>
<path d="M361.943 594.517C366.218 594.517 369.683 591.052 369.683 586.778C369.683 582.503 366.218 579.038 361.943 579.038C357.668 579.038 354.203 582.503 354.203 586.778C354.203 591.052 357.668 594.517 361.943 594.517Z" fill="#FFB9B9"/>
<path d="M369.961 596.452C369.961 596.452 366.275 599.953 357.614 599.032C348.953 598.111 360.01 618.75 360.01 618.75L363.511 639.574C363.511 639.574 378.991 637.731 379.544 634.23C380.097 630.729 369.961 596.452 369.961 596.452Z" fill="#F2F2F2"/>
<path d="M366.275 616.17C366.275 616.17 361.852 613.959 360.194 607.878C358.535 601.796 357.061 595.531 356.14 595.715C355.362 595.871 348.146 598.654 345.808 600.515C345.377 600.858 345.111 601.17 345.083 601.428C344.898 603.086 351.717 619.672 351.717 619.672C351.717 619.672 357.061 631.65 354.85 635.52C352.638 639.39 352.454 644.366 356.508 643.997C360.563 643.629 374.015 642.891 372.172 632.572C372.172 632.572 375.674 639.759 385.441 634.599C385.441 634.599 391.338 633.677 391.153 631.65C390.969 629.623 381.755 612.116 381.755 612.116C381.755 612.116 380.281 604.376 383.045 601.428L376.779 594.057C376.779 594.057 375.305 591.845 373.831 592.951C372.357 594.057 369.04 595.899 368.487 596.084C367.934 596.268 367.57 595.421 367.57 595.421C366.294 598.092 365.781 601.064 366.091 604.008C366.644 608.799 366.275 616.17 366.275 616.17Z" fill="#2F2E41"/>
<path d="M336.973 716.42C336.973 716.42 336.562 715.13 334.187 716.42C334.187 716.42 334.946 712.366 332.366 712.366C329.786 712.366 328.865 717.157 328.865 717.157C328.865 717.157 328.128 720.29 323.152 721.58C318.176 722.87 322.046 727.292 325.548 727.292C329.049 727.292 333.656 724.528 333.656 724.528C333.656 724.528 343.239 724.712 343.423 722.87C343.607 721.027 342.502 715.498 341.764 715.498C341.027 715.498 339.553 718.078 339.553 718.078L336.973 716.42Z" fill="#2F2E41"/>
<path d="M368.302 713.177C368.302 713.177 365.722 710.413 364.247 715.02C362.773 719.627 361.667 721.47 362.589 722.207C363.51 722.944 364.247 722.575 363.879 724.049C363.51 725.524 364.985 728.657 368.302 728.657C371.619 728.657 372.54 726.261 372.356 724.602C372.172 722.944 370.697 720.917 370.697 720.917L369.223 715.757L368.302 713.177Z" fill="#2F2E41"/>
<path d="M382.86 583.552L373.093 586.869C373.093 586.869 364.247 592.029 368.117 593.135C371.987 594.241 375.304 589.818 375.304 589.818L383.781 587.606L382.86 583.552Z" fill="#FFB9B9"/>
<path d="M356.679 574.809C355.519 575.603 354.596 576.691 353.718 577.789C351.935 580.02 350.187 582.684 350.627 585.506C350.794 586.578 351.27 587.576 351.538 588.627C351.9 590.045 351.876 591.53 351.85 592.994C351.872 593.616 351.794 594.237 351.622 594.835C351.363 595.417 351.06 595.979 350.714 596.513C349.826 598.167 349.804 600.131 349.804 602.007C349.761 602.639 349.847 603.273 350.056 603.87C350.299 604.434 350.75 604.877 351.124 605.363C351.744 606.186 352.158 607.145 352.33 608.161C352.503 609.176 352.43 610.218 352.117 611.2C352.598 611.202 353.069 611.067 353.476 610.81C353.883 610.553 354.208 610.186 354.414 609.751C354.478 610.219 354.437 610.695 354.296 611.145C354.154 611.595 353.915 612.009 353.595 612.356C355.704 611.729 357.966 610.672 358.736 608.61C358.962 607.91 359.089 607.181 359.114 606.445C359.524 601.274 359.758 595.909 357.903 591.065C357.31 589.515 356.502 588.014 356.303 586.367C356.104 584.719 356.712 582.815 358.226 582.134C358.261 582.556 358.449 582.951 358.753 583.245C359.09 583.495 359.713 583.338 359.72 582.919L360.451 583.937C360.731 583.799 360.971 583.59 361.145 583.331L361.646 583.945L362.713 583.169L363.638 584.167C363.995 583.964 364.279 583.655 364.451 583.283C364.65 583.58 364.896 583.907 365.253 583.94C366.029 584.01 366.189 582.778 366.868 582.394C367.118 582.283 367.4 582.266 367.662 582.345C367.924 582.425 368.149 582.595 368.296 582.827C368.576 583.302 368.678 583.862 368.584 584.406C368.303 586.94 366.141 589.252 366.782 591.719C367.142 593.107 368.356 594.219 368.448 595.65C368.521 596.794 367.849 597.875 367.859 599.021C367.871 600.363 368.799 601.504 369.705 602.495C371.316 604.259 373.013 605.941 374.794 607.54L374.244 606.577C374.501 606.557 374.759 606.593 375.001 606.682C375.242 606.771 375.462 606.911 375.645 607.093C375.803 606.539 375.541 605.963 375.293 605.443C373.812 602.332 372.616 599.019 372.437 595.578C372.189 590.795 373.909 585.937 372.819 581.273C372.192 578.661 370.73 576.325 368.656 574.619C367.648 573.789 366.884 573.292 365.578 573.2C364.119 573.074 362.651 573.085 361.194 573.235C359.584 573.388 358.035 573.928 356.679 574.809Z" fill="#FF6584"/>
<path d="M375.305 594.241C375.305 594.241 377.332 594.425 378.253 594.241C379.175 594.056 380.465 593.135 380.465 593.135L387.467 587.975L381.386 588.897C381.386 588.897 382.492 580.42 382.123 580.235C381.755 580.051 399.999 576.55 399.63 582.262C399.261 587.975 388.942 599.216 383.045 601.428L379.175 601.981L375.305 594.241Z" fill="#2F2E41"/>
<path d="M395.162 659.573H308.269V680.019H395.162V659.573Z" fill="white"/>
<path d="M383.822 664.206H319.291V675.067H383.822V664.206Z" fill="#F52222"/>
<path d="M334.287 669.398C334.261 669.12 333.03 668.996 331.339 669.066C332.319 667.686 332.886 666.586 332.667 666.412C332.46 666.249 331.612 666.956 330.581 668.104C330.483 666.564 330.257 665.484 329.993 665.484C329.705 665.484 329.462 666.769 329.382 668.535C327.947 667.503 326.787 666.897 326.609 667.123C326.439 667.338 327.214 668.249 328.448 669.338C326.82 669.58 325.673 669.921 325.699 670.194C325.724 670.473 326.956 670.597 328.647 670.527C327.667 671.906 327.1 673.007 327.319 673.18C327.526 673.344 328.374 672.637 329.405 671.488C329.503 673.029 329.729 674.109 329.993 674.109C330.281 674.109 330.524 672.824 330.604 671.058C332.039 672.09 333.199 672.696 333.377 672.47C333.547 672.254 332.771 671.344 331.538 670.254C333.166 670.013 334.313 669.672 334.287 669.398Z" fill="white"/>
<path d="M345.149 669.398C345.123 669.12 343.891 668.996 342.201 669.066C343.18 667.686 343.747 666.586 343.528 666.412C343.321 666.249 342.474 666.956 341.442 668.104C341.345 666.564 341.118 665.484 340.854 665.484C340.567 665.484 340.323 666.769 340.243 668.535C338.808 667.503 337.649 666.897 337.47 667.123C337.3 667.338 338.076 668.249 339.309 669.338C337.681 669.58 336.535 669.921 336.56 670.194C336.586 670.473 337.818 670.597 339.508 670.527C338.528 671.906 337.961 673.007 338.181 673.18C338.388 673.344 339.235 672.637 340.267 671.488C340.364 673.029 340.59 674.109 340.854 674.109C341.142 674.109 341.385 672.824 341.465 671.058C342.901 672.09 344.06 672.696 344.238 672.47C344.409 672.254 343.633 671.344 342.4 670.254C344.027 670.013 345.174 669.672 345.149 669.398Z" fill="white"/>
<path d="M356.011 669.398C355.985 669.12 354.753 668.996 353.063 669.066C354.042 667.686 354.61 666.586 354.39 666.412C354.183 666.249 353.336 666.956 352.304 668.104C352.207 666.564 351.98 665.484 351.717 665.484C351.429 665.484 351.186 666.769 351.106 668.535C349.67 667.503 348.511 666.897 348.333 667.123C348.162 667.338 348.938 668.249 350.171 669.338C348.544 669.58 347.397 669.921 347.422 670.194C347.448 670.473 348.68 670.597 350.37 670.527C349.391 671.906 348.824 673.007 349.043 673.18C349.25 673.344 350.097 672.637 351.129 671.488C351.226 673.029 351.453 674.109 351.717 674.109C352.004 674.109 352.248 672.824 352.328 671.058C353.763 672.09 354.922 672.696 355.101 672.47C355.271 672.254 354.495 671.344 353.262 670.254C354.89 670.013 356.036 669.672 356.011 669.398Z" fill="white"/>
<path d="M366.872 669.398C366.846 669.12 365.615 668.996 363.924 669.066C364.904 667.686 365.471 666.586 365.252 666.412C365.045 666.249 364.197 666.956 363.166 668.104C363.068 666.564 362.842 665.484 362.578 665.484C362.29 665.484 362.047 666.769 361.967 668.535C360.532 667.503 359.372 666.897 359.194 667.123C359.024 667.338 359.799 668.249 361.033 669.338C359.405 669.58 358.258 669.921 358.284 670.194C358.309 670.473 359.541 670.597 361.232 670.527C360.252 671.906 359.685 673.007 359.904 673.18C360.111 673.344 360.959 672.637 361.99 671.488C362.088 673.029 362.314 674.109 362.578 674.109C362.866 674.109 363.109 672.824 363.189 671.058C364.624 672.09 365.783 672.696 365.962 672.47C366.132 672.254 365.356 671.344 364.123 670.254C365.751 670.013 366.898 669.672 366.872 669.398Z" fill="white"/>
<path d="M377.735 669.398C377.709 669.12 376.477 668.996 374.787 669.066C375.766 667.686 376.333 666.586 376.114 666.412C375.907 666.249 375.06 666.956 374.028 668.104C373.931 666.564 373.704 665.484 373.44 665.484C373.153 665.484 372.909 666.769 372.829 668.535C371.394 667.503 370.235 666.897 370.056 667.123C369.886 667.338 370.662 668.249 371.895 669.338C370.267 669.58 369.121 669.921 369.146 670.194C369.172 670.473 370.404 670.597 372.094 670.527C371.114 671.906 370.547 673.007 370.767 673.18C370.974 673.344 371.821 672.637 372.853 671.488C372.95 673.029 373.176 674.109 373.44 674.109C373.728 674.109 373.971 672.824 374.051 671.058C375.487 672.09 376.646 672.696 376.824 672.47C376.995 672.254 376.219 671.344 374.986 670.254C376.613 670.013 377.76 669.672 377.735 669.398Z" fill="white"/>
<path d="M343.976 650.816C343.976 650.816 343.055 662.978 347.478 663.531C351.9 664.084 347.846 649.71 347.846 649.71L343.976 650.816Z" fill="#FFB9B9"/>
<path d="M346.372 601.059L345.082 601.428C345.082 601.428 339.738 644.182 343.239 652.474C343.239 652.474 346.925 650.447 348.768 650.816L351.716 615.986L346.372 601.059Z" fill="#2F2E41"/>
</svg>
