<svg width="720" height="288" viewBox="0 0 720 288" fill="none" xmlns="http://www.w3.org/2000/svg">
<path d="M719.5 217C306.5 104 9.5 210 0.5 217L0 288H720C720.167 273.833 719.9 239 719.5 217Z" fill="#0C5ACB"/>
<g filter="url(#filter0_f_90_262)">
<rect x="318" y="181" width="151" height="78" fill="#333232" fill-opacity="0.6"/>
</g>
<path d="M467.546 63.7626V50.2874H465.451V63.7626C464.85 64.0058 464.352 64.4503 464.043 65.0202C463.734 65.5901 463.633 66.2497 463.757 66.8861C463.88 67.5225 464.222 68.0961 464.722 68.5084C465.222 68.9207 465.85 69.1462 466.499 69.1462C467.147 69.1462 467.775 68.9207 468.276 68.5084C468.776 68.0961 469.117 67.5225 469.241 66.8861C469.365 66.2497 469.264 65.5901 468.954 65.0202C468.645 64.4503 468.147 64.0058 467.546 63.7626Z" fill="#E6E6E6"/>
<path d="M472.435 199.753H458.117V25.8422H452.53V199.753H438.212C436.515 199.753 434.835 200.087 433.267 200.736C431.7 201.386 430.275 202.337 429.076 203.537C427.876 204.737 426.924 206.161 426.275 207.729C425.625 209.297 425.291 210.977 425.291 212.674V212.674H485.356V212.674C485.356 210.977 485.022 209.297 484.373 207.729C483.724 206.161 482.772 204.737 481.572 203.537C480.372 202.337 478.948 201.386 477.38 200.736C475.812 200.087 474.132 199.753 472.435 199.753Z" fill="#323145"/>
<path d="M425.319 51.6842H485.327L481.657 5.81785C481.523 4.23629 480.802 2.76217 479.636 1.6855C478.47 0.608838 476.943 0.00757456 475.355 0H435.291C433.704 0.00757543 432.177 0.608838 431.01 1.6855C429.844 2.76217 429.123 4.23629 428.989 5.81785L425.319 51.6842Z" fill="#FF6584"/>
<path d="M255.337 159.78H438.494V141.08C438.494 90.5839 397.412 49.5016 346.916 49.5016C296.419 49.5016 255.337 90.5839 255.337 141.08V159.78Z" fill="#3F3D56"/>
<path opacity="0.2" d="M255.337 159.78H438.494V141.08C438.494 90.5839 397.412 49.5016 346.916 49.5016C296.419 49.5016 255.337 90.5839 255.337 141.08V159.78Z" fill="black"/>
<path d="M279.075 166.252H420.031C419.897 158.837 416.859 151.769 411.57 146.569C406.281 141.369 399.163 138.452 391.746 138.443H307.36C299.943 138.452 292.825 141.369 287.536 146.569C282.247 151.769 279.209 158.837 279.075 166.252Z" fill="#FF6584"/>
<path d="M262.289 163.376C277.912 163.376 290.577 150.71 290.577 135.087C290.577 119.464 277.912 106.798 262.289 106.798C246.665 106.798 234 119.464 234 135.087C234 150.71 246.665 163.376 262.289 163.376Z" fill="#3F3D56"/>
<path d="M433.939 163.376C449.563 163.376 462.228 150.71 462.228 135.087C462.228 119.464 449.563 106.798 433.939 106.798C418.316 106.798 405.65 119.464 405.65 135.087C405.65 150.71 418.316 163.376 433.939 163.376Z" fill="#3F3D56"/>
<path d="M412.602 149.471V160.019H281.947V149.471H252.699V200.884C252.699 204.034 253.951 207.055 256.178 209.282C258.405 211.51 261.426 212.761 264.576 212.761H429.973C431.532 212.761 433.077 212.454 434.518 211.857C435.959 211.26 437.268 210.385 438.371 209.282C439.474 208.179 440.349 206.87 440.946 205.429C441.543 203.988 441.85 202.444 441.85 200.884V149.471H412.602Z" fill="#3F3D56"/>
<path opacity="0.2" d="M262.289 140.841C265.466 140.841 268.042 138.265 268.042 135.087C268.042 131.909 265.466 129.333 262.289 129.333C259.111 129.333 256.535 131.909 256.535 135.087C256.535 138.265 259.111 140.841 262.289 140.841Z" fill="black"/>
<path opacity="0.2" d="M433.938 140.841C437.116 140.841 439.692 138.265 439.692 135.087C439.692 131.909 437.116 129.333 433.938 129.333C430.761 129.333 428.185 131.909 428.185 135.087C428.185 138.265 430.761 140.841 433.938 140.841Z" fill="black"/>
<path d="M357.336 46.2701C357.336 46.2701 357.901 57.0172 361.861 59.2797C365.82 61.5422 361.861 76.8144 361.861 76.8144L343.195 77.38L342.063 59.2797C342.063 59.2797 344.326 51.9265 343.195 48.5327C342.063 45.1388 357.336 46.2701 357.336 46.2701Z" fill="#FFB8B8"/>
<path d="M378.265 195.598L371.478 203.517L382.225 213.698L387.881 202.385L378.265 195.598Z" fill="#FFB8B8"/>
<path d="M330.185 195.598L336.973 203.517L326.226 213.698L320.569 202.385L330.185 195.598Z" fill="#FFB8B8"/>
<path d="M374.588 120.651C374.588 120.651 415.313 134.226 413.051 147.236C410.788 160.246 393.254 206.062 393.254 206.062C393.254 206.062 383.638 206.062 376.285 195.881L381.375 184.568C381.375 184.568 379.113 178.346 383.072 177.215C387.032 176.083 389.294 156.286 389.294 156.286C389.294 156.286 360.447 154.024 354.225 143.277L342.912 116.126L374.588 120.651Z" fill="#2F2E41"/>
<path d="M333.862 120.651C333.862 120.651 293.136 134.226 295.399 147.236C297.661 160.246 315.196 206.062 315.196 206.062C315.196 206.062 324.812 206.062 332.165 195.881L327.074 184.568C327.074 184.568 329.337 178.346 325.377 177.215C321.418 176.083 319.155 156.286 319.155 156.286C319.155 156.286 348.003 154.024 354.225 143.277L365.537 116.126L333.862 120.651Z" fill="#2F2E41"/>
<path d="M380.244 209.456C380.244 209.456 385.901 204.365 386.466 208.324C387.032 212.284 385.901 228.122 385.901 228.122C385.901 228.122 391.557 240 383.073 240C374.588 240 370.629 230.95 371.76 221.9C372.891 212.85 367.8 209.456 367.8 209.456C367.8 209.456 361.579 197.012 367.8 195.881C374.022 194.749 376.285 197.577 376.285 197.577C376.285 197.577 374.022 207.759 380.244 209.456Z" fill="#2F2E41"/>
<path d="M328.205 209.456C328.205 209.456 322.549 204.365 321.983 208.324C321.418 212.284 322.549 228.122 322.549 228.122C322.549 228.122 316.893 240 325.377 240C333.862 240 337.821 230.95 336.69 221.9C335.559 212.85 340.649 209.456 340.649 209.456C340.649 209.456 346.871 197.012 340.649 195.881C334.427 194.749 332.165 197.577 332.165 197.577C332.165 197.577 334.427 207.759 328.205 209.456Z" fill="#2F2E41"/>
<path d="M348.569 52.7749C355.754 52.7749 361.579 46.9503 361.579 39.7653C361.579 32.5803 355.754 26.7557 348.569 26.7557C341.384 26.7557 335.56 32.5803 335.56 39.7653C335.56 46.9503 341.384 52.7749 348.569 52.7749Z" fill="#FFB8B8"/>
<path d="M350.549 62.1079L342.63 55.8859L323.398 64.9361L322.833 116.409C322.833 116.409 310.954 122.065 314.348 129.418C314.348 129.418 324.53 131.681 329.055 136.206C333.58 140.731 359.033 134.509 369.78 131.115C380.527 127.722 383.356 123.762 383.356 123.762L372.608 108.49L378.83 69.4612L359.601 56.5327L350.549 62.1079Z" fill="#E6E6E6"/>
<path d="M364.385 30.9107C364.102 30.5261 363.843 30.1241 363.609 29.707C363.206 28.7245 363.843 27.5667 363.248 26.6493C362.64 25.7128 361.097 25.5153 360.047 24.8791C358.43 23.899 358.136 21.9758 356.621 20.8957C355.529 20.1175 353.972 19.9078 352.514 19.9522C351.055 19.9966 349.615 20.2603 348.156 20.2893C346.186 20.3332 344.231 19.9335 342.437 19.1197L343.513 21.2258C342.317 20.965 341.174 20.5017 340.134 19.8559C339.657 20.4465 340.529 21.343 339.989 21.897C339.767 22.0757 339.505 22.1972 339.226 22.2507C337.149 22.8408 335.194 23.7948 333.45 25.0683C333.047 25.325 332.713 25.6774 332.479 26.0943C332.198 26.7162 332.447 27.4031 332.426 28.0643C332.387 29.2659 331.47 30.3137 330.819 31.3961C330.168 32.4785 329.816 33.8818 330.782 34.8005C331.017 34.9871 331.242 35.1856 331.456 35.3953C332.424 36.5363 330.711 38.2072 331.537 39.418C331.895 39.9437 332.629 40.2097 333.268 40.5203C334.49 41.0919 335.519 42.0088 336.227 43.1579L335.731 39.5161C335.705 39.4261 335.7 39.3313 335.717 39.2392C335.735 39.1471 335.773 39.0602 335.83 38.9856C336.07 38.7407 336.573 38.8384 336.905 38.6762C337.27 38.4977 337.298 38.0883 337.283 37.7454L337.171 35.1014C337.121 33.9124 337.107 33.7546 337.983 32.7949C338.595 32.1244 339.557 31.7199 340.524 31.4224C342.732 30.7425 345.108 30.5074 347.457 30.2775C350.184 30.0107 353.254 28.6875 355.372 30.0924C357.106 31.2424 357.682 33.1328 358.517 34.8093C359.268 36.3161 361.195 40.7529 362.799 38.3513C363.807 36.843 365.348 32.5901 364.385 30.9107Z" fill="#2F2E41"/>
<path d="M350.802 35.9915C350.748 35.9915 350.697 36.0128 350.659 36.0507C350.621 36.0886 350.6 36.1399 350.6 36.1935V41.6403C350.6 41.6939 350.621 41.7453 350.659 41.7832C350.697 41.821 350.748 41.8423 350.802 41.8424H360.178C360.232 41.8423 360.283 41.821 360.321 41.7832C360.359 41.7453 360.38 41.6939 360.38 41.6403V36.1935C360.38 36.1399 360.359 36.0886 360.321 36.0507C360.283 36.0128 360.232 35.9915 360.178 35.9915L350.802 35.9915Z" fill="#3F3D56"/>
<path d="M351.85 36.4718C351.75 36.4719 351.655 36.5116 351.584 36.5823C351.513 36.6529 351.474 36.7486 351.474 36.8485V40.9854C351.474 41.0852 351.513 41.181 351.584 41.2516C351.655 41.3222 351.75 41.3619 351.85 41.362H359.131C359.231 41.3619 359.327 41.3222 359.397 41.2516C359.468 41.181 359.508 41.0852 359.508 40.9854V36.8485C359.508 36.7486 359.468 36.6529 359.397 36.5823C359.327 36.5116 359.231 36.4719 359.131 36.4718H351.85Z" fill="#FF6584"/>
<path d="M350.908 37.7856H346.023V38.9169H350.908V37.7856Z" fill="#3F3D56"/>
<path d="M337.524 35.9915C337.471 35.9915 337.419 36.0129 337.382 36.0507C337.344 36.0886 337.322 36.14 337.322 36.1935V41.6403C337.322 41.6939 337.344 41.7452 337.382 41.7831C337.419 41.821 337.471 41.8423 337.524 41.8424H346.901C346.954 41.8423 347.006 41.821 347.044 41.7831C347.082 41.7452 347.103 41.6939 347.103 41.6403V36.1935C347.103 36.14 347.082 36.0886 347.044 36.0507C347.006 36.0129 346.954 35.9915 346.901 35.9915L337.524 35.9915Z" fill="#3F3D56"/>
<path d="M338.573 36.4718C338.473 36.4719 338.377 36.5116 338.307 36.5822C338.236 36.6528 338.196 36.7486 338.196 36.8485V40.9854C338.196 41.0853 338.236 41.181 338.307 41.2516C338.377 41.3223 338.473 41.362 338.573 41.362H345.854C345.954 41.362 346.049 41.3223 346.12 41.2516C346.191 41.181 346.23 41.0853 346.23 40.9854V36.8485C346.23 36.7486 346.191 36.6528 346.12 36.5822C346.049 36.5116 345.954 36.4719 345.854 36.4718H338.573Z" fill="#1877F2"/>
<path d="M332.399 103.98H364.876C366.173 103.98 367.416 104.495 368.333 105.412C369.25 106.328 369.765 107.572 369.765 108.869H327.51C327.51 107.572 328.025 106.328 328.942 105.412C329.859 104.495 331.102 103.98 332.399 103.98Z" fill="#3F3D56"/>
<path d="M367.146 103.63C366.955 103.631 366.767 103.663 366.587 103.725C366.525 103.478 366.375 103.261 366.165 103.116C365.954 102.971 365.698 102.909 365.444 102.94C365.191 102.971 364.957 103.094 364.788 103.286C364.619 103.477 364.526 103.724 364.526 103.98C364.526 103.985 364.528 103.99 364.528 103.995C364.397 104.007 364.268 104.034 364.143 104.075C364.107 103.934 364.043 103.802 363.954 103.687C363.864 103.572 363.752 103.477 363.625 103.407C363.96 103.222 364.226 102.931 364.38 102.58C364.577 102.6 364.775 102.578 364.962 102.515C365.149 102.453 365.321 102.352 365.467 102.219C365.613 102.086 365.728 101.923 365.807 101.742C365.886 101.561 365.925 101.366 365.923 101.169C365.921 100.971 365.878 100.777 365.795 100.597C365.713 100.418 365.594 100.258 365.446 100.128C365.297 99.9978 365.123 99.9003 364.935 99.8419C364.746 99.7835 364.548 99.7655 364.352 99.789C364.162 99.7898 363.973 99.822 363.793 99.8841C363.761 99.7468 363.701 99.6174 363.618 99.5038C363.534 99.3902 363.428 99.2947 363.307 99.2231C363.185 99.1515 363.05 99.1053 362.911 99.0872C362.771 99.0692 362.629 99.0796 362.493 99.118C362.357 99.1564 362.23 99.2219 362.121 99.3105C362.011 99.3991 361.92 99.5091 361.854 99.6337C361.788 99.7583 361.748 99.8951 361.736 100.036C361.724 100.176 361.741 100.318 361.786 100.452C361.744 100.481 361.705 100.513 361.666 100.546C361.468 100.376 361.212 100.29 360.952 100.308C360.818 99.9224 360.552 99.5962 360.201 99.3868C359.851 99.1774 359.438 99.098 359.034 99.1626C358.631 99.2272 358.263 99.4316 357.996 99.74C357.728 100.048 357.578 100.441 357.57 100.85C357.43 100.861 357.292 100.888 357.158 100.932C357.143 100.873 357.123 100.815 357.098 100.759C357.236 100.638 357.347 100.489 357.423 100.321C357.5 100.154 357.54 99.9728 357.542 99.789C357.518 99.3959 357.339 99.0284 357.044 98.7667C356.75 98.505 356.364 98.3703 355.971 98.3921C355.78 98.393 355.592 98.4251 355.412 98.4872C355.38 98.3499 355.32 98.2205 355.237 98.1069C355.153 97.9933 355.047 97.8978 354.926 97.8262C354.804 97.7546 354.669 97.7084 354.529 97.6904C354.389 97.6723 354.247 97.6828 354.112 97.7211C353.976 97.7595 353.849 97.825 353.74 97.9136C353.63 98.0023 353.539 98.1122 353.473 98.2368C353.407 98.3615 353.367 98.4982 353.355 98.6388C353.343 98.7793 353.36 98.9208 353.405 99.0547C353.185 99.2074 353.003 99.4088 352.873 99.6431C352.744 99.8774 352.67 100.138 352.658 100.406C352.643 100.419 352.626 100.43 352.612 100.444C352.639 100.344 352.652 100.241 352.653 100.138C352.629 99.7451 352.45 99.3776 352.155 99.1159C351.861 98.8542 351.475 98.7196 351.082 98.7413C350.891 98.7422 350.703 98.7743 350.523 98.8364C350.491 98.6991 350.431 98.5697 350.347 98.4561C350.264 98.3425 350.158 98.2471 350.037 98.1755C349.915 98.1039 349.78 98.0576 349.64 98.0396C349.5 98.0215 349.358 98.032 349.222 98.0704C349.087 98.1087 348.96 98.1742 348.85 98.2628C348.741 98.3515 348.65 98.4614 348.584 98.586C348.518 98.7107 348.478 98.8474 348.466 98.988C348.454 99.1285 348.471 99.27 348.515 99.4039C348.284 99.5641 348.094 99.7782 347.963 100.028C347.832 100.277 347.764 100.555 347.764 100.837C347.764 101.118 347.832 101.396 347.963 101.646C348.094 101.895 348.284 102.109 348.515 102.269C348.445 102.472 348.445 102.693 348.515 102.896C348.34 103.018 348.189 103.171 348.069 103.347C348.004 103.113 347.859 102.908 347.66 102.769C347.46 102.63 347.218 102.566 346.975 102.587C346.733 102.608 346.505 102.713 346.333 102.884C346.16 103.055 346.052 103.281 346.029 103.524C345.889 103.442 345.737 103.38 345.58 103.342C345.863 103.155 346.085 102.891 346.221 102.58C346.417 102.6 346.616 102.578 346.803 102.515C346.99 102.453 347.162 102.352 347.308 102.219C347.453 102.086 347.569 101.923 347.648 101.742C347.726 101.561 347.766 101.366 347.764 101.169C347.762 100.971 347.718 100.777 347.636 100.597C347.554 100.418 347.435 100.258 347.286 100.128C347.138 99.9978 346.964 99.9003 346.775 99.8419C346.587 99.7835 346.388 99.7655 346.192 99.789C346.002 99.7898 345.814 99.822 345.634 99.8841C345.602 99.7468 345.542 99.6174 345.458 99.5038C345.375 99.3902 345.269 99.2947 345.147 99.2231C345.026 99.1515 344.891 99.1053 344.751 99.0872C344.611 99.0692 344.469 99.0796 344.333 99.118C344.198 99.1564 344.071 99.2219 343.961 99.3105C343.852 99.3991 343.761 99.5091 343.695 99.6337C343.629 99.7583 343.589 99.8951 343.577 100.036C343.565 100.176 343.582 100.318 343.626 100.452C343.604 100.467 343.584 100.485 343.562 100.502C343.508 100.497 343.455 100.487 343.399 100.487C343.209 100.488 343.02 100.52 342.84 100.583C342.834 100.556 342.823 100.532 342.814 100.506C342.848 100.351 342.845 100.19 342.806 100.035C342.767 99.8811 342.693 99.7379 342.59 99.6172C342.486 99.4965 342.356 99.4014 342.209 99.3395C342.063 99.2776 341.904 99.2505 341.745 99.2604C341.654 99.0071 341.506 98.7784 341.312 98.592C341.118 98.4056 340.883 98.2666 340.626 98.1858C340.37 98.1051 340.098 98.0849 339.832 98.1267C339.566 98.1685 339.314 98.2712 339.094 98.4268C338.875 98.5824 338.694 98.7867 338.567 99.0237C338.439 99.2606 338.368 99.5239 338.36 99.7928C338.351 100.062 338.404 100.329 338.516 100.574C338.628 100.819 338.794 101.034 339.003 101.204C338.883 101.218 338.765 101.244 338.65 101.281C338.608 101.111 338.525 100.954 338.406 100.824C338.288 100.695 338.139 100.598 337.973 100.542C337.807 100.486 337.629 100.473 337.457 100.504C337.285 100.535 337.123 100.609 336.987 100.719C336.831 100.534 336.636 100.386 336.417 100.286C336.197 100.185 335.958 100.135 335.716 100.138C335.526 100.139 335.337 100.171 335.157 100.233C335.125 100.096 335.065 99.9666 334.982 99.853C334.898 99.7394 334.792 99.6439 334.671 99.5723C334.549 99.5007 334.415 99.4545 334.275 99.4364C334.135 99.4184 333.993 99.4289 333.857 99.4672C333.721 99.5056 333.595 99.5711 333.485 99.6597C333.375 99.7483 333.284 99.8583 333.218 99.9829C333.152 100.108 333.112 100.244 333.1 100.385C333.089 100.525 333.105 100.667 333.15 100.801C332.918 100.961 332.729 101.175 332.598 101.425C332.467 101.674 332.398 101.952 332.398 102.234C332.398 102.239 332.4 102.244 332.4 102.249C332.152 102.212 331.899 102.239 331.665 102.329C331.633 102.191 331.573 102.062 331.49 101.948C331.406 101.835 331.3 101.739 331.179 101.668C331.057 101.596 330.922 101.55 330.782 101.532C330.643 101.514 330.5 101.524 330.365 101.563C330.229 101.601 330.102 101.666 329.993 101.755C329.883 101.844 329.792 101.954 329.726 102.078C329.66 102.203 329.62 102.34 329.608 102.48C329.596 102.621 329.613 102.762 329.658 102.896C329.321 103.124 329.075 103.463 328.962 103.854C328.849 104.244 328.877 104.662 329.04 105.035C329.204 105.407 329.492 105.711 329.856 105.892C330.22 106.074 330.636 106.122 331.032 106.029C331.095 106.393 331.272 106.728 331.539 106.984C331.805 107.241 332.146 107.406 332.512 107.456C332.879 107.506 333.251 107.437 333.576 107.261C333.901 107.085 334.162 106.809 334.32 106.475C335.577 106.639 336.854 106.581 338.092 106.305C338.207 106.636 338.42 106.924 338.702 107.132C338.984 107.34 339.322 107.458 339.672 107.471C340.022 107.483 340.368 107.39 340.664 107.203C340.96 107.015 341.193 106.743 341.332 106.422C341.587 106.417 341.837 106.355 342.064 106.24C342.224 106.522 342.459 106.754 342.742 106.909C343.026 107.064 343.348 107.138 343.671 107.12C343.994 107.103 344.306 106.995 344.571 106.81C344.837 106.625 345.045 106.37 345.173 106.072C345.562 105.999 345.964 106.063 346.309 106.255C346.655 106.447 346.923 106.754 347.066 107.123C347.299 106.803 347.6 106.538 347.946 106.346C348.292 106.155 348.676 106.041 349.071 106.013C349.422 106.11 349.795 106.093 350.136 105.963C350.476 105.833 350.766 105.597 350.962 105.29C350.852 105.716 350.907 106.167 351.115 106.553C351.323 106.94 351.669 107.234 352.085 107.377C352.5 107.52 352.954 107.501 353.356 107.324C353.758 107.147 354.078 106.824 354.253 106.422C354.508 106.417 354.758 106.355 354.986 106.24C355.145 106.522 355.38 106.754 355.664 106.909C355.947 107.064 356.269 107.138 356.592 107.12C356.915 107.103 357.227 106.995 357.492 106.81C357.758 106.625 357.966 106.37 358.094 106.072C358.349 106.067 358.599 106.005 358.827 105.891C358.95 106.11 359.119 106.299 359.322 106.446C359.526 106.593 359.759 106.694 360.005 106.742C360.251 106.79 360.505 106.783 360.749 106.723C360.992 106.663 361.22 106.55 361.415 106.393C361.476 106.727 361.633 107.036 361.867 107.282C362.102 107.528 362.403 107.699 362.733 107.776C363.064 107.853 363.41 107.831 363.729 107.713C364.047 107.596 364.324 107.387 364.526 107.114C364.735 107.275 364.979 107.385 365.238 107.438C365.496 107.49 365.764 107.482 366.019 107.415C366.275 107.349 366.512 107.224 366.712 107.052C366.912 106.88 367.07 106.664 367.174 106.422C367.37 106.441 367.569 106.419 367.756 106.357C367.943 106.295 368.115 106.193 368.261 106.06C368.406 105.927 368.522 105.765 368.601 105.584C368.679 105.403 368.719 105.207 368.717 105.01C368.715 104.813 368.671 104.618 368.589 104.439C368.507 104.259 368.388 104.099 368.239 103.969C368.091 103.839 367.917 103.742 367.729 103.683C367.54 103.625 367.341 103.607 367.146 103.63L367.146 103.63ZM335.933 102.91C335.931 102.918 335.93 102.927 335.928 102.935C335.916 102.935 335.903 102.932 335.891 102.932C335.838 102.933 335.786 102.939 335.735 102.948C335.738 102.941 335.742 102.936 335.745 102.929C335.808 102.926 335.871 102.92 335.933 102.91ZM350.523 102.329C350.518 102.308 350.509 102.29 350.503 102.27C350.77 102.085 350.98 101.83 351.11 101.533C351.34 101.531 351.567 101.482 351.776 101.387C351.985 101.292 352.172 101.155 352.324 100.983C352.311 101.05 352.304 101.118 352.304 101.186C352.305 101.292 352.323 101.398 352.357 101.499C352.057 101.708 351.83 102.006 351.708 102.35C351.328 102.202 350.908 102.195 350.523 102.329V102.329ZM360.982 102.459C360.982 102.437 360.984 102.415 360.983 102.394C361.027 102.394 361.072 102.391 361.116 102.385C361.184 102.611 361.297 102.821 361.449 103.001C361.416 103.011 361.381 103.016 361.349 103.027C361.292 102.802 361.164 102.603 360.982 102.459Z" fill="#F9A825"/>
<path d="M331.027 105.726C330.532 105.726 330.042 105.827 329.587 106.022C329.132 106.218 328.721 106.504 328.381 106.864C328.04 107.223 327.776 107.648 327.605 108.113C327.434 108.578 327.36 109.073 327.386 109.568L329.751 142.085C329.801 143.017 330.206 143.895 330.883 144.537C331.561 145.179 332.459 145.537 333.392 145.537H363.882C364.816 145.537 365.714 145.179 366.391 144.537C367.068 143.895 367.474 143.017 367.524 142.085L369.888 109.568C369.915 109.073 369.841 108.578 369.67 108.113C369.499 107.648 369.235 107.223 368.894 106.864C368.553 106.504 368.143 106.218 367.688 106.022C367.233 105.827 366.743 105.726 366.247 105.726H331.027Z" fill="#3F3D56"/>
<path d="M334.843 105.726H332.748V145.537H334.843V105.726Z" fill="#1877F2"/>
<path d="M340.78 105.726H338.685V145.537H340.78V105.726Z" fill="#1877F2"/>
<path d="M346.717 105.726H344.622V145.537H346.717V105.726Z" fill="#1877F2"/>
<path d="M352.654 105.726H350.559V145.537H352.654V105.726Z" fill="#1877F2"/>
<path d="M358.59 105.726H356.495V145.537H358.59V105.726Z" fill="#1877F2"/>
<path d="M364.527 105.726H362.432V145.537H364.527V105.726Z" fill="#1877F2"/>
<path d="M362.427 125.459L355.639 129.418C355.639 129.418 339.236 142.994 350.548 145.256C361.861 147.519 364.689 135.64 364.689 135.64L368.649 131.115L362.427 125.459Z" fill="#FFB8B8"/>
<path d="M330.186 122.631L336.973 126.59C336.973 126.59 353.377 140.165 342.064 142.428C330.751 144.691 327.923 132.812 327.923 132.812L323.964 128.287L330.186 122.631Z" fill="#FFB8B8"/>
<path d="M371.477 68.8955L378.83 69.4611C378.83 69.4611 384.486 74.5518 383.92 81.3395C383.92 81.3395 389.011 96.046 387.88 102.268C387.88 102.268 389.011 112.449 387.314 116.409C385.617 120.368 371.477 135.64 371.477 135.64C371.477 135.64 358.467 125.459 359.033 124.893L376.002 107.924L367.517 96.6116L371.477 68.8955Z" fill="#E6E6E6"/>
<path d="M323.398 64.9361L323.115 65.2189C323.115 65.2189 310.388 70.5924 310.954 77.3801C310.954 77.3801 305.863 92.0866 306.994 98.3085C306.994 98.3085 305.863 108.49 307.56 112.449C309.257 116.409 323.398 131.681 323.398 131.681C323.398 131.681 336.407 121.5 335.842 120.934L318.873 103.965L327.357 92.6522L323.398 64.9361Z" fill="#E6E6E6"/>
<defs>
<filter id="filter0_f_90_262" x="233" y="96" width="321" height="248" filterUnits="userSpaceOnUse" color-interpolation-filters="sRGB">
<feFlood flood-opacity="0" result="BackgroundImageFix"/>
<feBlend mode="normal" in="SourceGraphic" in2="BackgroundImageFix" result="shape"/>
<feGaussianBlur stdDeviation="42.5" result="effect1_foregroundBlur_90_262"/>
</filter>
</defs>
</svg>
