<svg width="720" height="822" viewBox="0 0 720 822" fill="none" xmlns="http://www.w3.org/2000/svg">
<path fill-rule="evenodd" clip-rule="evenodd" d="M600.48 -85C613.422 -92.1813 627.464 -97.6203 642.289 -101H713.711C728.536 -97.6203 742.578 -92.1813 755.52 -85H600.48ZM713.711 211C702.228 213.618 690.275 215 678 215C665.725 215 653.772 213.618 642.289 211H713.711ZM738.905 203H617.095C606.646 198.695 596.752 193.316 587.552 187H768.448C759.248 193.316 749.354 198.695 738.905 203ZM779.122 179H576.878C570.854 174.081 565.195 168.732 559.948 163H796.052C790.805 168.732 785.146 174.081 779.122 179ZM802.907 155H553.093C549.014 149.912 545.24 144.569 541.797 139H814.202C810.76 144.569 806.986 149.912 802.907 155ZM818.833 131H537.167C534.372 125.831 531.853 120.491 529.63 115H826.37C824.147 120.491 821.628 125.831 818.833 131ZM829.36 107H526.64C524.848 101.783 523.318 96.4447 522.066 91H833.934C832.682 96.4447 831.152 101.783 829.36 107ZM835.558 83H520.442C519.515 77.7505 518.845 72.4127 518.443 67H837.557C837.155 72.4127 836.485 77.7505 835.558 83ZM837.951 59H518.049C518.016 57.6706 518 56.3372 518 55C518 50.9633 518.149 46.9616 518.443 43H837.557C837.85 46.9616 838 50.9633 838 55C838 56.3372 837.984 57.6706 837.951 59ZM522.066 19C520.861 24.2397 519.914 29.5777 519.238 35H836.762C836.086 29.5777 835.139 24.2397 833.934 19H522.066ZM541.797 -29C538.617 -23.8532 535.719 -18.5126 533.127 -13H822.873C820.281 -18.5126 817.383 -23.8532 814.203 -29H541.797ZM826.37 -5H529.63C527.524 0.202942 525.684 5.54189 524.126 11H831.874C830.316 5.54189 828.476 0.202942 826.37 -5ZM768.448 -77H587.552C580.545 -72.1898 573.941 -66.8362 567.8 -61H788.2C782.059 -66.8362 775.455 -72.1898 768.448 -77ZM796.052 -53H559.948C555.328 -47.9532 551.028 -42.6092 547.079 -37H808.921C804.972 -42.6092 800.672 -47.9532 796.052 -53Z" fill="#0C5ACB"/>
<path d="M36 126.02C36 126.02 145.34 94 174.34 43L197.34 71C197.34 71 179.34 96 195.34 98C211.34 100 221.34 88 221.34 88L250.34 106C250.34 106 139.34 188 75.34 204L60.34 183C60.34 183 93.34 142 44 154.02L36 126.02Z" fill="#0C5ACB"/>
<path d="M92 533.674C92 533.674 142.935 518.758 156.444 495L167.158 508.043C167.158 508.043 158.773 519.689 166.227 520.621C173.68 521.553 178.338 515.963 178.338 515.963L191.848 524.348C191.848 524.348 140.14 562.547 110.326 570L103.338 560.217C103.338 560.217 118.711 541.118 95.7267 546.717L92 533.674Z" fill="#0C5ACB"/>
<path d="M719.5 751C306.5 638 9.5 744 0.5 751L0 822H720C720.167 807.833 719.9 773 719.5 751Z" fill="#0C5ACB"/>
<g filter="url(#filter0_f_90_176)">
<rect x="318" y="715" width="151" height="78" fill="#333232" fill-opacity="0.6"/>
</g>
<path d="M467.546 597.763V584.287H465.451V597.763C464.85 598.006 464.352 598.45 464.043 599.02C463.734 599.59 463.633 600.25 463.757 600.886C463.88 601.523 464.222 602.096 464.722 602.508C465.222 602.921 465.85 603.146 466.499 603.146C467.147 603.146 467.775 602.921 468.276 602.508C468.776 602.096 469.117 601.523 469.241 600.886C469.365 600.25 469.264 599.59 468.954 599.02C468.645 598.45 468.147 598.006 467.546 597.763Z" fill="#E6E6E6"/>
<path d="M472.435 733.753H458.117V559.842H452.53V733.753H438.212C436.515 733.753 434.835 734.087 433.267 734.736C431.7 735.386 430.275 736.337 429.076 737.537C427.876 738.737 426.924 740.161 426.275 741.729C425.625 743.297 425.291 744.977 425.291 746.674V746.674H485.356V746.674C485.356 744.977 485.022 743.297 484.373 741.729C483.724 740.161 482.772 738.737 481.572 737.537C480.372 736.337 478.948 735.386 477.38 734.736C475.812 734.087 474.132 733.753 472.435 733.753V733.753Z" fill="#323145"/>
<path d="M425.319 585.684H485.327L481.657 539.818C481.523 538.236 480.802 536.762 479.636 535.686C478.47 534.609 476.943 534.008 475.355 534H435.291C433.704 534.008 432.177 534.609 431.01 535.686C429.844 536.762 429.123 538.236 428.989 539.818L425.319 585.684Z" fill="#FF6584"/>
<path d="M255.337 693.78H438.494V675.08C438.494 624.584 397.412 583.502 346.916 583.502C296.419 583.502 255.337 624.584 255.337 675.08V693.78Z" fill="#3F3D56"/>
<path opacity="0.2" d="M255.337 693.78H438.494V675.08C438.494 624.584 397.412 583.502 346.916 583.502C296.419 583.502 255.337 624.584 255.337 675.08V693.78Z" fill="black"/>
<path d="M279.075 700.252H420.031C419.897 692.837 416.859 685.769 411.57 680.569C406.281 675.369 399.163 672.452 391.746 672.443H307.36C299.943 672.452 292.825 675.369 287.536 680.569C282.247 685.769 279.209 692.837 279.075 700.252V700.252Z" fill="#FF6584"/>
<path d="M262.289 697.376C277.912 697.376 290.577 684.71 290.577 669.087C290.577 653.464 277.912 640.798 262.289 640.798C246.665 640.798 234 653.464 234 669.087C234 684.71 246.665 697.376 262.289 697.376Z" fill="#3F3D56"/>
<path d="M433.939 697.376C449.563 697.376 462.228 684.71 462.228 669.087C462.228 653.464 449.563 640.798 433.939 640.798C418.316 640.798 405.65 653.464 405.65 669.087C405.65 684.71 418.316 697.376 433.939 697.376Z" fill="#3F3D56"/>
<path d="M412.602 683.471V694.019H281.947V683.471H252.699V734.884C252.699 738.034 253.951 741.055 256.178 743.282C258.405 745.51 261.426 746.761 264.576 746.761H429.973C431.532 746.761 433.077 746.454 434.518 745.857C435.959 745.26 437.268 744.385 438.371 743.282C439.474 742.179 440.349 740.87 440.946 739.429C441.543 737.988 441.85 736.444 441.85 734.884V683.471H412.602Z" fill="#3F3D56"/>
<path opacity="0.2" d="M262.289 674.841C265.466 674.841 268.042 672.265 268.042 669.087C268.042 665.909 265.466 663.333 262.289 663.333C259.111 663.333 256.535 665.909 256.535 669.087C256.535 672.265 259.111 674.841 262.289 674.841Z" fill="black"/>
<path opacity="0.2" d="M433.938 674.841C437.116 674.841 439.692 672.265 439.692 669.087C439.692 665.909 437.116 663.333 433.938 663.333C430.761 663.333 428.185 665.909 428.185 669.087C428.185 672.265 430.761 674.841 433.938 674.841Z" fill="black"/>
<path d="M357.336 580.27C357.336 580.27 357.901 591.017 361.861 593.28C365.82 595.542 361.861 610.814 361.861 610.814L343.195 611.38L342.063 593.28C342.063 593.28 344.326 585.926 343.195 582.533C342.063 579.139 357.336 580.27 357.336 580.27Z" fill="#FFB8B8"/>
<path d="M378.265 729.598L371.478 737.517L382.225 747.698L387.881 736.385L378.265 729.598Z" fill="#FFB8B8"/>
<path d="M330.185 729.598L336.973 737.517L326.226 747.698L320.569 736.385L330.185 729.598Z" fill="#FFB8B8"/>
<path d="M374.588 654.651C374.588 654.651 415.313 668.226 413.051 681.236C410.788 694.246 393.254 740.062 393.254 740.062C393.254 740.062 383.638 740.062 376.285 729.881L381.375 718.568C381.375 718.568 379.113 712.346 383.072 711.215C387.032 710.083 389.294 690.286 389.294 690.286C389.294 690.286 360.447 688.024 354.225 677.277L342.912 650.126L374.588 654.651Z" fill="#2F2E41"/>
<path d="M333.862 654.651C333.862 654.651 293.136 668.226 295.399 681.236C297.661 694.246 315.196 740.062 315.196 740.062C315.196 740.062 324.812 740.062 332.165 729.881L327.074 718.568C327.074 718.568 329.337 712.346 325.377 711.215C321.418 710.083 319.155 690.286 319.155 690.286C319.155 690.286 348.003 688.024 354.225 677.277L365.537 650.126L333.862 654.651Z" fill="#2F2E41"/>
<path d="M380.244 743.456C380.244 743.456 385.901 738.365 386.466 742.324C387.032 746.284 385.901 762.122 385.901 762.122C385.901 762.122 391.557 774 383.073 774C374.588 774 370.629 764.95 371.76 755.9C372.891 746.85 367.8 743.456 367.8 743.456C367.8 743.456 361.579 731.012 367.8 729.881C374.022 728.749 376.285 731.577 376.285 731.577C376.285 731.577 374.022 741.759 380.244 743.456Z" fill="#2F2E41"/>
<path d="M328.205 743.456C328.205 743.456 322.549 738.365 321.983 742.324C321.418 746.284 322.549 762.122 322.549 762.122C322.549 762.122 316.893 774 325.377 774C333.862 774 337.821 764.95 336.69 755.9C335.559 746.85 340.649 743.456 340.649 743.456C340.649 743.456 346.871 731.012 340.649 729.881C334.427 728.749 332.165 731.577 332.165 731.577C332.165 731.577 334.427 741.759 328.205 743.456Z" fill="#2F2E41"/>
<path d="M348.569 586.775C355.754 586.775 361.579 580.95 361.579 573.765C361.579 566.58 355.754 560.756 348.569 560.756C341.384 560.756 335.56 566.58 335.56 573.765C335.56 580.95 341.384 586.775 348.569 586.775Z" fill="#FFB8B8"/>
<path d="M350.549 596.108L342.63 589.886L323.398 598.936L322.833 650.409C322.833 650.409 310.954 656.065 314.348 663.418C314.348 663.418 324.53 665.681 329.055 670.206C333.58 674.731 359.033 668.509 369.78 665.115C380.527 661.722 383.356 657.762 383.356 657.762L372.608 642.49L378.83 603.461L359.601 590.533L350.549 596.108Z" fill="#E6E6E6"/>
<path d="M364.385 564.911C364.102 564.526 363.843 564.124 363.609 563.707C363.206 562.725 363.843 561.567 363.248 560.649C362.64 559.713 361.097 559.515 360.047 558.879C358.43 557.899 358.136 555.976 356.621 554.896C355.529 554.118 353.972 553.908 352.514 553.952C351.055 553.997 349.615 554.26 348.156 554.289C346.186 554.333 344.231 553.933 342.437 553.12L343.513 555.226C342.317 554.965 341.174 554.502 340.134 553.856C339.657 554.447 340.529 555.343 339.989 555.897C339.767 556.076 339.505 556.197 339.226 556.251C337.149 556.841 335.194 557.795 333.45 559.068C333.047 559.325 332.713 559.677 332.479 560.094C332.198 560.716 332.447 561.403 332.426 562.064C332.387 563.266 331.47 564.314 330.819 565.396C330.168 566.478 329.816 567.882 330.782 568.8C331.017 568.987 331.242 569.186 331.456 569.395C332.424 570.536 330.711 572.207 331.537 573.418C331.895 573.944 332.629 574.21 333.268 574.52C334.49 575.092 335.519 576.009 336.227 577.158L335.731 573.516C335.705 573.426 335.7 573.331 335.717 573.239C335.735 573.147 335.773 573.06 335.83 572.986C336.07 572.741 336.573 572.838 336.905 572.676C337.27 572.498 337.298 572.088 337.283 571.745L337.171 569.101C337.121 567.912 337.107 567.755 337.983 566.795C338.595 566.124 339.557 565.72 340.524 565.422C342.732 564.743 345.108 564.507 347.457 564.278C350.184 564.011 353.254 562.687 355.372 564.092C357.106 565.242 357.682 567.133 358.517 568.809C359.268 570.316 361.195 574.753 362.799 572.351C363.807 570.843 365.348 566.59 364.385 564.911Z" fill="#2F2E41"/>
<path d="M350.802 569.991C350.748 569.992 350.697 570.013 350.659 570.051C350.621 570.089 350.6 570.14 350.6 570.194V575.64C350.6 575.694 350.621 575.745 350.659 575.783C350.697 575.821 350.748 575.842 350.802 575.842H360.178C360.232 575.842 360.283 575.821 360.321 575.783C360.359 575.745 360.38 575.694 360.38 575.64V570.194C360.38 570.14 360.359 570.089 360.321 570.051C360.283 570.013 360.232 569.992 360.178 569.991L350.802 569.991Z" fill="#3F3D56"/>
<path d="M351.85 570.472C351.75 570.472 351.655 570.512 351.584 570.582C351.513 570.653 351.474 570.749 351.474 570.848V574.985C351.474 575.085 351.513 575.181 351.584 575.252C351.655 575.322 351.75 575.362 351.85 575.362H359.131C359.231 575.362 359.327 575.322 359.397 575.252C359.468 575.181 359.508 575.085 359.508 574.985V570.848C359.508 570.749 359.468 570.653 359.397 570.582C359.327 570.512 359.231 570.472 359.131 570.472H351.85Z" fill="#FF6584"/>
<path d="M350.908 571.786H346.023V572.917H350.908V571.786Z" fill="#3F3D56"/>
<path d="M337.524 569.991C337.471 569.992 337.419 570.013 337.382 570.051C337.344 570.089 337.322 570.14 337.322 570.194V575.64C337.322 575.694 337.344 575.745 337.382 575.783C337.419 575.821 337.471 575.842 337.524 575.842H346.901C346.954 575.842 347.006 575.821 347.044 575.783C347.082 575.745 347.103 575.694 347.103 575.64V570.194C347.103 570.14 347.082 570.089 347.044 570.051C347.006 570.013 346.954 569.992 346.901 569.991L337.524 569.991Z" fill="#3F3D56"/>
<path d="M338.573 570.472C338.473 570.472 338.377 570.512 338.307 570.582C338.236 570.653 338.196 570.749 338.196 570.848V574.985C338.196 575.085 338.236 575.181 338.307 575.252C338.377 575.322 338.473 575.362 338.573 575.362H345.854C345.954 575.362 346.049 575.322 346.12 575.252C346.191 575.181 346.23 575.085 346.23 574.985V570.848C346.23 570.749 346.191 570.653 346.12 570.582C346.049 570.512 345.954 570.472 345.854 570.472H338.573Z" fill="#1877F2"/>
<path d="M332.399 637.98H364.876C366.173 637.98 367.416 638.495 368.333 639.412C369.25 640.328 369.765 641.572 369.765 642.869V642.869H327.51C327.51 641.572 328.025 640.328 328.942 639.412C329.859 638.495 331.102 637.98 332.399 637.98V637.98Z" fill="#3F3D56"/>
<path d="M367.146 637.63C366.955 637.631 366.767 637.663 366.587 637.725C366.525 637.478 366.375 637.261 366.165 637.116C365.954 636.971 365.698 636.909 365.444 636.94C365.191 636.971 364.957 637.094 364.788 637.286C364.619 637.477 364.526 637.724 364.526 637.98C364.526 637.985 364.528 637.99 364.528 637.995C364.397 638.007 364.268 638.034 364.143 638.075C364.107 637.934 364.043 637.802 363.954 637.687C363.864 637.572 363.752 637.477 363.625 637.407C363.96 637.222 364.226 636.931 364.38 636.58C364.577 636.6 364.775 636.578 364.962 636.515C365.149 636.453 365.321 636.352 365.467 636.219C365.613 636.086 365.728 635.923 365.807 635.742C365.886 635.561 365.925 635.366 365.923 635.169C365.921 634.971 365.878 634.777 365.795 634.597C365.713 634.418 365.594 634.258 365.446 634.128C365.297 633.998 365.123 633.9 364.935 633.842C364.746 633.783 364.548 633.765 364.352 633.789C364.162 633.79 363.973 633.822 363.793 633.884C363.761 633.747 363.701 633.617 363.618 633.504C363.534 633.39 363.428 633.295 363.307 633.223C363.185 633.152 363.05 633.105 362.911 633.087C362.771 633.069 362.629 633.08 362.493 633.118C362.357 633.156 362.23 633.222 362.121 633.31C362.011 633.399 361.92 633.509 361.854 633.634C361.788 633.758 361.748 633.895 361.736 634.036C361.724 634.176 361.741 634.318 361.786 634.452C361.744 634.481 361.705 634.513 361.666 634.546C361.468 634.376 361.212 634.29 360.952 634.308C360.818 633.922 360.552 633.596 360.201 633.387C359.851 633.177 359.438 633.098 359.034 633.163C358.631 633.227 358.263 633.432 357.996 633.74C357.728 634.048 357.578 634.441 357.57 634.85C357.43 634.861 357.292 634.888 357.158 634.932C357.143 634.873 357.123 634.815 357.098 634.759C357.236 634.638 357.347 634.489 357.423 634.321C357.5 634.154 357.54 633.973 357.542 633.789C357.518 633.396 357.339 633.028 357.044 632.767C356.75 632.505 356.364 632.37 355.971 632.392C355.78 632.393 355.592 632.425 355.412 632.487C355.38 632.35 355.32 632.221 355.237 632.107C355.153 631.993 355.047 631.898 354.926 631.826C354.804 631.755 354.669 631.708 354.529 631.69C354.389 631.672 354.247 631.683 354.112 631.721C353.976 631.76 353.849 631.825 353.74 631.914C353.63 632.002 353.539 632.112 353.473 632.237C353.407 632.361 353.367 632.498 353.355 632.639C353.343 632.779 353.36 632.921 353.405 633.055C353.185 633.207 353.003 633.409 352.873 633.643C352.744 633.877 352.67 634.138 352.658 634.406C352.643 634.419 352.626 634.43 352.612 634.444C352.639 634.344 352.652 634.241 352.653 634.138C352.629 633.745 352.45 633.378 352.155 633.116C351.861 632.854 351.475 632.72 351.082 632.741C350.891 632.742 350.703 632.774 350.523 632.836C350.491 632.699 350.431 632.57 350.347 632.456C350.264 632.343 350.158 632.247 350.037 632.175C349.915 632.104 349.78 632.058 349.64 632.04C349.5 632.022 349.358 632.032 349.222 632.07C349.087 632.109 348.96 632.174 348.85 632.263C348.741 632.351 348.65 632.461 348.584 632.586C348.518 632.711 348.478 632.847 348.466 632.988C348.454 633.129 348.471 633.27 348.515 633.404C348.284 633.564 348.094 633.778 347.963 634.028C347.832 634.277 347.764 634.555 347.764 634.837C347.764 635.118 347.832 635.396 347.963 635.646C348.094 635.895 348.284 636.109 348.515 636.269C348.445 636.472 348.445 636.693 348.515 636.896C348.34 637.018 348.189 637.171 348.069 637.347C348.004 637.113 347.859 636.908 347.66 636.769C347.46 636.63 347.218 636.566 346.975 636.587C346.733 636.608 346.505 636.713 346.333 636.884C346.16 637.055 346.052 637.281 346.029 637.524C345.889 637.442 345.737 637.38 345.58 637.342C345.863 637.155 346.085 636.891 346.221 636.58C346.417 636.6 346.616 636.578 346.803 636.515C346.99 636.453 347.162 636.352 347.308 636.219C347.453 636.086 347.569 635.923 347.648 635.742C347.726 635.561 347.766 635.366 347.764 635.169C347.762 634.971 347.718 634.777 347.636 634.597C347.554 634.418 347.435 634.258 347.286 634.128C347.138 633.998 346.964 633.9 346.775 633.842C346.587 633.783 346.388 633.765 346.192 633.789C346.002 633.79 345.814 633.822 345.634 633.884C345.602 633.747 345.542 633.617 345.458 633.504C345.375 633.39 345.269 633.295 345.147 633.223C345.026 633.152 344.891 633.105 344.751 633.087C344.611 633.069 344.469 633.08 344.333 633.118C344.198 633.156 344.071 633.222 343.961 633.31C343.852 633.399 343.761 633.509 343.695 633.634C343.629 633.758 343.589 633.895 343.577 634.036C343.565 634.176 343.582 634.318 343.626 634.452C343.604 634.467 343.584 634.485 343.562 634.502C343.508 634.497 343.455 634.487 343.399 634.487C343.209 634.488 343.02 634.52 342.84 634.583C342.834 634.556 342.823 634.532 342.814 634.506C342.848 634.351 342.845 634.19 342.806 634.035C342.767 633.881 342.693 633.738 342.59 633.617C342.486 633.496 342.356 633.401 342.209 633.34C342.063 633.278 341.904 633.251 341.745 633.26C341.654 633.007 341.506 632.778 341.312 632.592C341.118 632.406 340.883 632.267 340.626 632.186C340.37 632.105 340.098 632.085 339.832 632.127C339.566 632.168 339.314 632.271 339.094 632.427C338.875 632.582 338.694 632.787 338.567 633.024C338.439 633.261 338.368 633.524 338.36 633.793C338.351 634.062 338.404 634.329 338.516 634.574C338.628 634.819 338.794 635.034 339.003 635.204C338.883 635.218 338.765 635.244 338.65 635.281C338.608 635.111 338.525 634.954 338.406 634.824C338.288 634.695 338.139 634.598 337.973 634.542C337.807 634.486 337.629 634.473 337.457 634.504C337.285 634.535 337.123 634.609 336.987 634.719C336.831 634.534 336.636 634.386 336.417 634.286C336.197 634.185 335.958 634.135 335.716 634.138C335.526 634.139 335.337 634.171 335.157 634.233C335.125 634.096 335.065 633.967 334.982 633.853C334.898 633.739 334.792 633.644 334.671 633.572C334.549 633.501 334.415 633.455 334.275 633.436C334.135 633.418 333.993 633.429 333.857 633.467C333.721 633.506 333.595 633.571 333.485 633.66C333.375 633.748 333.284 633.858 333.218 633.983C333.152 634.108 333.112 634.244 333.1 634.385C333.089 634.525 333.105 634.667 333.15 634.801C332.918 634.961 332.729 635.175 332.598 635.425C332.467 635.674 332.398 635.952 332.398 636.234C332.398 636.239 332.4 636.244 332.4 636.249C332.152 636.212 331.899 636.239 331.665 636.329C331.633 636.191 331.573 636.062 331.49 635.948C331.406 635.835 331.3 635.739 331.179 635.668C331.057 635.596 330.922 635.55 330.782 635.532C330.643 635.514 330.5 635.524 330.365 635.563C330.229 635.601 330.102 635.666 329.993 635.755C329.883 635.844 329.792 635.954 329.726 636.078C329.66 636.203 329.62 636.34 329.608 636.48C329.596 636.621 329.613 636.762 329.658 636.896C329.321 637.124 329.075 637.463 328.962 637.854C328.849 638.244 328.877 638.662 329.04 639.035C329.204 639.407 329.492 639.711 329.856 639.892C330.22 640.074 330.636 640.122 331.032 640.029C331.095 640.393 331.272 640.728 331.539 640.984C331.805 641.241 332.146 641.406 332.512 641.456C332.879 641.506 333.251 641.437 333.576 641.261C333.901 641.085 334.162 640.809 334.32 640.475C335.577 640.639 336.854 640.581 338.092 640.305C338.207 640.636 338.42 640.924 338.702 641.132C338.984 641.34 339.322 641.458 339.672 641.471C340.022 641.483 340.368 641.39 340.664 641.203C340.96 641.015 341.193 640.743 341.332 640.422C341.587 640.417 341.837 640.355 342.064 640.24C342.224 640.522 342.459 640.754 342.742 640.909C343.026 641.064 343.348 641.138 343.671 641.12C343.994 641.103 344.306 640.995 344.571 640.81C344.837 640.625 345.045 640.37 345.173 640.072C345.562 639.999 345.964 640.063 346.309 640.255C346.655 640.447 346.923 640.754 347.066 641.123C347.299 640.803 347.6 640.538 347.946 640.346C348.292 640.155 348.676 640.041 349.071 640.013C349.422 640.11 349.795 640.093 350.136 639.963C350.476 639.833 350.766 639.597 350.962 639.29C350.852 639.716 350.907 640.167 351.115 640.553C351.323 640.94 351.669 641.234 352.085 641.377C352.5 641.52 352.954 641.501 353.356 641.324C353.758 641.147 354.078 640.824 354.253 640.422C354.508 640.417 354.758 640.355 354.986 640.24C355.145 640.522 355.38 640.754 355.664 640.909C355.947 641.064 356.269 641.138 356.592 641.12C356.915 641.103 357.227 640.995 357.492 640.81C357.758 640.625 357.966 640.37 358.094 640.072C358.349 640.067 358.599 640.005 358.827 639.891C358.95 640.11 359.119 640.299 359.322 640.446C359.526 640.593 359.759 640.694 360.005 640.742C360.251 640.79 360.505 640.783 360.749 640.723C360.992 640.663 361.22 640.55 361.415 640.393C361.476 640.727 361.633 641.036 361.867 641.282C362.102 641.528 362.403 641.699 362.733 641.776C363.064 641.853 363.41 641.831 363.729 641.713C364.047 641.596 364.324 641.387 364.526 641.114C364.735 641.275 364.979 641.385 365.238 641.438C365.496 641.49 365.764 641.482 366.019 641.415C366.275 641.349 366.512 641.224 366.712 641.052C366.912 640.88 367.07 640.664 367.174 640.422C367.37 640.441 367.569 640.419 367.756 640.357C367.943 640.295 368.115 640.193 368.261 640.06C368.406 639.927 368.522 639.765 368.601 639.584C368.679 639.403 368.719 639.207 368.717 639.01C368.715 638.813 368.671 638.618 368.589 638.439C368.507 638.259 368.388 638.099 368.239 637.969C368.091 637.839 367.917 637.742 367.729 637.683C367.54 637.625 367.341 637.607 367.146 637.63L367.146 637.63ZM335.933 636.91C335.931 636.918 335.93 636.927 335.928 636.935C335.916 636.935 335.903 636.932 335.891 636.932C335.838 636.933 335.786 636.939 335.735 636.948C335.738 636.941 335.742 636.936 335.745 636.929C335.808 636.926 335.871 636.92 335.933 636.91V636.91ZM350.523 636.329C350.518 636.308 350.509 636.29 350.503 636.27C350.77 636.085 350.98 635.83 351.11 635.533C351.34 635.531 351.567 635.482 351.776 635.387C351.985 635.292 352.172 635.155 352.324 634.983C352.311 635.05 352.304 635.118 352.304 635.186C352.305 635.292 352.323 635.398 352.357 635.499C352.057 635.708 351.83 636.006 351.708 636.35C351.328 636.202 350.908 636.195 350.523 636.329V636.329ZM360.982 636.459C360.982 636.437 360.984 636.415 360.983 636.394C361.027 636.394 361.072 636.391 361.116 636.385C361.184 636.611 361.297 636.821 361.449 637.001C361.416 637.011 361.381 637.016 361.349 637.027C361.292 636.802 361.164 636.603 360.982 636.459V636.459Z" fill="#F9A825"/>
<path d="M331.027 639.726C330.532 639.726 330.042 639.827 329.587 640.022C329.132 640.218 328.721 640.504 328.381 640.864C328.04 641.223 327.776 641.648 327.605 642.113C327.434 642.578 327.36 643.073 327.386 643.568L329.751 676.085C329.801 677.017 330.206 677.895 330.883 678.537C331.561 679.179 332.459 679.537 333.392 679.537H363.882C364.816 679.537 365.714 679.179 366.391 678.537C367.068 677.895 367.474 677.017 367.524 676.085L369.888 643.568C369.915 643.073 369.841 642.578 369.67 642.113C369.499 641.648 369.235 641.223 368.894 640.864C368.553 640.504 368.143 640.218 367.688 640.022C367.233 639.827 366.743 639.726 366.247 639.726H331.027Z" fill="#3F3D56"/>
<path d="M334.843 639.726H332.748V679.537H334.843V639.726Z" fill="#1877F2"/>
<path d="M340.78 639.726H338.685V679.537H340.78V639.726Z" fill="#1877F2"/>
<path d="M346.717 639.726H344.622V679.537H346.717V639.726Z" fill="#1877F2"/>
<path d="M352.654 639.726H350.559V679.537H352.654V639.726Z" fill="#1877F2"/>
<path d="M358.59 639.726H356.495V679.537H358.59V639.726Z" fill="#1877F2"/>
<path d="M364.527 639.726H362.432V679.537H364.527V639.726Z" fill="#1877F2"/>
<path d="M362.427 659.459L355.639 663.418C355.639 663.418 339.236 676.994 350.548 679.256C361.861 681.519 364.689 669.64 364.689 669.64L368.649 665.115L362.427 659.459Z" fill="#FFB8B8"/>
<path d="M330.186 656.631L336.973 660.59C336.973 660.59 353.377 674.165 342.064 676.428C330.751 678.691 327.923 666.812 327.923 666.812L323.964 662.287L330.186 656.631Z" fill="#FFB8B8"/>
<path d="M371.477 602.896L378.83 603.461C378.83 603.461 384.486 608.552 383.92 615.339C383.92 615.339 389.011 630.046 387.88 636.268C387.88 636.268 389.011 646.449 387.314 650.409C385.617 654.368 371.477 669.64 371.477 669.64C371.477 669.64 358.467 659.459 359.033 658.893L376.002 641.924L367.517 630.612L371.477 602.896Z" fill="#E6E6E6"/>
<path d="M323.398 598.936L323.115 599.219C323.115 599.219 310.388 604.592 310.954 611.38C310.954 611.38 305.863 626.087 306.994 632.309C306.994 632.309 305.863 642.49 307.56 646.449C309.257 650.409 323.398 665.681 323.398 665.681C323.398 665.681 336.407 655.5 335.842 654.934L318.873 637.965L327.357 626.652L323.398 598.936Z" fill="#E6E6E6"/>
<path d="M189.104 309H177.246L173.691 292.826C173.522 292.149 173.251 290.803 172.879 288.789C172.523 286.775 172.261 285.09 172.092 283.736C171.956 284.837 171.736 286.208 171.432 287.85C171.127 289.475 170.822 290.973 170.518 292.344C170.23 293.715 169.003 299.267 166.836 309H154.979L145.787 271.879H155.461L159.498 290.49C160.412 294.604 161.038 297.879 161.377 300.316C161.597 298.59 161.986 296.245 162.545 293.283C163.12 290.321 163.654 287.867 164.145 285.92L167.42 271.879H176.713L179.887 285.92C180.428 288.171 180.979 290.77 181.537 293.715C182.096 296.66 182.468 298.861 182.654 300.316C182.874 298.438 183.475 295.179 184.457 290.541L188.57 271.879H198.244L189.104 309ZM221.223 309L219.318 305.191H219.115C217.778 306.85 216.415 307.984 215.027 308.594C213.639 309.203 211.845 309.508 209.645 309.508C206.936 309.508 204.803 308.695 203.246 307.07C201.689 305.445 200.91 303.16 200.91 300.215C200.91 297.151 201.977 294.874 204.109 293.385C206.242 291.878 209.331 291.032 213.377 290.846L218.176 290.693V290.287C218.176 287.917 217.008 286.732 214.672 286.732C212.573 286.732 209.907 287.443 206.674 288.865L203.805 282.314C207.156 280.588 211.388 279.725 216.5 279.725C220.19 279.725 223.042 280.639 225.057 282.467C227.088 284.295 228.104 286.851 228.104 290.135V309H221.223ZM213.859 302.5C215.061 302.5 216.085 302.119 216.932 301.357C217.795 300.596 218.227 299.605 218.227 298.387V296.152L215.941 296.254C212.674 296.372 211.041 297.574 211.041 299.859C211.041 301.62 211.98 302.5 213.859 302.5ZM248.949 301.662C250.286 301.662 251.886 301.332 253.748 300.672V307.908C252.411 308.484 251.133 308.89 249.914 309.127C248.712 309.381 247.299 309.508 245.674 309.508C242.339 309.508 239.936 308.695 238.463 307.07C236.99 305.428 236.254 302.915 236.254 299.529V287.672H232.775V283.635L237.193 280.512L239.758 274.469H246.258V280.232H253.316V287.672H246.258V298.869C246.258 300.731 247.155 301.662 248.949 301.662ZM271.877 309.508C267.171 309.508 263.6 308.238 261.162 305.699C258.742 303.16 257.531 299.512 257.531 294.756C257.531 289.982 258.843 286.284 261.467 283.66C264.09 281.036 267.823 279.725 272.664 279.725C275.999 279.725 279.139 280.452 282.084 281.908L279.164 289.246C277.962 288.721 276.854 288.307 275.838 288.002C274.822 287.68 273.764 287.52 272.664 287.52C271.056 287.52 269.812 288.146 268.932 289.398C268.051 290.651 267.611 292.42 267.611 294.705C267.611 299.309 269.312 301.611 272.715 301.611C275.626 301.611 278.419 300.765 281.094 299.072V306.969C278.538 308.661 275.465 309.508 271.877 309.508ZM304.91 309V293.309C304.91 289.449 303.768 287.52 301.482 287.52C299.857 287.52 298.656 288.205 297.877 289.576C297.115 290.93 296.734 293.19 296.734 296.355V309H286.807V269.492H296.734V275.104C296.734 277.643 296.599 280.537 296.328 283.787H296.785C297.733 282.298 298.859 281.248 300.162 280.639C301.465 280.029 302.98 279.725 304.707 279.725C307.923 279.725 310.42 280.656 312.197 282.518C313.992 284.363 314.889 286.952 314.889 290.287V309H304.91ZM352.264 279.572C349.877 279.572 348.015 280.554 346.678 282.518C345.34 284.464 344.672 287.156 344.672 290.592C344.672 297.735 347.389 301.307 352.822 301.307C354.464 301.307 356.055 301.078 357.596 300.621C359.136 300.164 360.685 299.614 362.242 298.971V307.451C359.145 308.822 355.641 309.508 351.73 309.508C346.128 309.508 341.828 307.883 338.832 304.633C335.853 301.383 334.363 296.686 334.363 290.541C334.363 286.699 335.083 283.322 336.521 280.41C337.977 277.499 340.059 275.264 342.768 273.707C345.493 272.133 348.692 271.346 352.365 271.346C356.377 271.346 360.211 272.217 363.867 273.961L360.795 281.857C359.424 281.214 358.053 280.673 356.682 280.232C355.311 279.792 353.838 279.572 352.264 279.572ZM386.287 279.725C387.15 279.725 387.971 279.792 388.75 279.928L389.309 280.029L388.42 289.398C387.607 289.195 386.482 289.094 385.043 289.094C382.876 289.094 381.302 289.593 380.32 290.592C379.339 291.574 378.848 292.995 378.848 294.857V309H368.92V280.232H376.309L377.857 284.828H378.34C379.169 283.305 380.32 282.077 381.793 281.146C383.283 280.199 384.781 279.725 386.287 279.725ZM407.234 309.508C402.444 309.508 398.72 308.238 396.062 305.699C393.422 303.143 392.102 299.512 392.102 294.807C392.102 289.949 393.329 286.225 395.783 283.635C398.238 281.028 401.742 279.725 406.295 279.725C410.628 279.725 413.971 280.859 416.324 283.127C418.694 285.378 419.879 288.628 419.879 292.877V297.295H402.131C402.199 298.903 402.783 300.164 403.883 301.078C405 301.992 406.515 302.449 408.428 302.449C410.171 302.449 411.771 302.288 413.227 301.967C414.699 301.628 416.29 301.061 418 300.266V307.4C416.443 308.196 414.835 308.746 413.176 309.051C411.517 309.355 409.536 309.508 407.234 309.508ZM406.65 286.479C405.482 286.479 404.501 286.851 403.705 287.596C402.926 288.324 402.469 289.475 402.334 291.049H410.865C410.831 289.661 410.434 288.552 409.672 287.723C408.927 286.893 407.92 286.479 406.65 286.479ZM444.254 309L442.35 305.191H442.146C440.809 306.85 439.447 307.984 438.059 308.594C436.671 309.203 434.876 309.508 432.676 309.508C429.967 309.508 427.835 308.695 426.277 307.07C424.72 305.445 423.941 303.16 423.941 300.215C423.941 297.151 425.008 294.874 427.141 293.385C429.273 291.878 432.363 291.032 436.408 290.846L441.207 290.693V290.287C441.207 287.917 440.039 286.732 437.703 286.732C435.604 286.732 432.938 287.443 429.705 288.865L426.836 282.314C430.188 280.588 434.419 279.725 439.531 279.725C443.221 279.725 446.074 280.639 448.088 282.467C450.119 284.295 451.135 286.851 451.135 290.135V309H444.254ZM436.891 302.5C438.092 302.5 439.117 302.119 439.963 301.357C440.826 300.596 441.258 299.605 441.258 298.387V296.152L438.973 296.254C435.706 296.372 434.072 297.574 434.072 299.859C434.072 301.62 435.012 302.5 436.891 302.5ZM471.98 301.662C473.318 301.662 474.917 301.332 476.779 300.672V307.908C475.442 308.484 474.164 308.89 472.945 309.127C471.743 309.381 470.33 309.508 468.705 309.508C465.37 309.508 462.967 308.695 461.494 307.07C460.021 305.428 459.285 302.915 459.285 299.529V287.672H455.807V283.635L460.225 280.512L462.789 274.469H469.289V280.232H476.348V287.672H469.289V298.869C469.289 300.731 470.186 301.662 471.98 301.662ZM491.785 309H481.857V280.232H491.785V309ZM481.604 273.072C481.604 271.583 482.018 270.474 482.848 269.746C483.677 269.018 485.014 268.654 486.859 268.654C488.704 268.654 490.05 269.027 490.896 269.771C491.743 270.516 492.166 271.617 492.166 273.072C492.166 275.984 490.397 277.439 486.859 277.439C483.355 277.439 481.604 275.984 481.604 273.072ZM506.258 309L495.289 280.232H505.648L510.523 297.244C510.54 297.329 510.574 297.473 510.625 297.676C510.676 297.879 510.727 298.124 510.777 298.412C510.828 298.683 510.87 298.979 510.904 299.301C510.955 299.605 510.98 299.893 510.98 300.164H511.158C511.158 299.284 511.311 298.327 511.615 297.295L516.719 280.232H527.053L516.084 309H506.258ZM544.395 309.508C539.604 309.508 535.88 308.238 533.223 305.699C530.582 303.143 529.262 299.512 529.262 294.807C529.262 289.949 530.489 286.225 532.943 283.635C535.398 281.028 538.902 279.725 543.455 279.725C547.788 279.725 551.132 280.859 553.484 283.127C555.854 285.378 557.039 288.628 557.039 292.877V297.295H539.291C539.359 298.903 539.943 300.164 541.043 301.078C542.16 301.992 543.675 302.449 545.588 302.449C547.331 302.449 548.931 302.288 550.387 301.967C551.859 301.628 553.451 301.061 555.16 300.266V307.4C553.603 308.196 551.995 308.746 550.336 309.051C548.677 309.355 546.697 309.508 544.395 309.508ZM543.811 286.479C542.643 286.479 541.661 286.851 540.865 287.596C540.087 288.324 539.63 289.475 539.494 291.049H548.025C547.992 289.661 547.594 288.552 546.832 287.723C546.087 286.893 545.08 286.479 543.811 286.479ZM561.406 304.785C561.406 303.228 561.863 302.026 562.777 301.18C563.708 300.333 565.054 299.91 566.814 299.91C568.49 299.91 569.777 300.333 570.674 301.18C571.571 302.026 572.02 303.228 572.02 304.785C572.02 306.309 571.554 307.502 570.623 308.365C569.709 309.212 568.439 309.635 566.814 309.635C565.139 309.635 563.818 309.212 562.854 308.365C561.889 307.519 561.406 306.326 561.406 304.785Z" fill="#F5F4F3"/>
<path d="M163.916 359.266H179.938V379.273C175.587 380.763 170.805 381.508 165.592 381.508C159.87 381.508 155.444 379.849 152.312 376.531C149.198 373.214 147.641 368.482 147.641 362.338C147.641 356.346 149.35 351.682 152.77 348.348C156.189 345.013 160.979 343.346 167.141 343.346C169.477 343.346 171.677 343.566 173.742 344.006C175.824 344.446 177.635 345.005 179.176 345.682L176.002 353.553C173.327 352.232 170.391 351.572 167.191 351.572C164.263 351.572 161.995 352.529 160.387 354.441C158.796 356.337 158 359.054 158 362.592C158 366.062 158.719 368.711 160.158 370.539C161.614 372.35 163.704 373.256 166.43 373.256C167.919 373.256 169.29 373.112 170.543 372.824V367.01H163.916V359.266ZM200.809 381.508C196.018 381.508 192.294 380.238 189.637 377.699C186.996 375.143 185.676 371.512 185.676 366.807C185.676 361.949 186.903 358.225 189.357 355.635C191.812 353.028 195.316 351.725 199.869 351.725C204.202 351.725 207.546 352.859 209.898 355.127C212.268 357.378 213.453 360.628 213.453 364.877V369.295H195.705C195.773 370.903 196.357 372.164 197.457 373.078C198.574 373.992 200.089 374.449 202.002 374.449C203.745 374.449 205.345 374.288 206.801 373.967C208.273 373.628 209.865 373.061 211.574 372.266V379.4C210.017 380.196 208.409 380.746 206.75 381.051C205.091 381.355 203.111 381.508 200.809 381.508ZM200.225 358.479C199.057 358.479 198.075 358.851 197.279 359.596C196.501 360.324 196.044 361.475 195.908 363.049H204.439C204.406 361.661 204.008 360.552 203.246 359.723C202.501 358.893 201.494 358.479 200.225 358.479ZM233.156 373.662C234.493 373.662 236.093 373.332 237.955 372.672V379.908C236.618 380.484 235.34 380.89 234.121 381.127C232.919 381.381 231.506 381.508 229.881 381.508C226.546 381.508 224.143 380.695 222.67 379.07C221.197 377.428 220.461 374.915 220.461 371.529V359.672H216.982V355.635L221.4 352.512L223.965 346.469H230.465V352.232H237.523V359.672H230.465V370.869C230.465 372.731 231.362 373.662 233.156 373.662ZM273.604 351.572C271.217 351.572 269.355 352.554 268.018 354.518C266.68 356.464 266.012 359.156 266.012 362.592C266.012 369.735 268.729 373.307 274.162 373.307C275.804 373.307 277.395 373.078 278.936 372.621C280.476 372.164 282.025 371.614 283.582 370.971V379.451C280.484 380.822 276.98 381.508 273.07 381.508C267.467 381.508 263.168 379.883 260.172 376.633C257.193 373.383 255.703 368.686 255.703 362.541C255.703 358.699 256.423 355.322 257.861 352.41C259.317 349.499 261.399 347.264 264.107 345.707C266.833 344.133 270.032 343.346 273.705 343.346C277.717 343.346 281.551 344.217 285.207 345.961L282.135 353.857C280.764 353.214 279.393 352.673 278.021 352.232C276.65 351.792 275.178 351.572 273.604 351.572ZM307.627 351.725C308.49 351.725 309.311 351.792 310.09 351.928L310.648 352.029L309.76 361.398C308.947 361.195 307.822 361.094 306.383 361.094C304.216 361.094 302.642 361.593 301.66 362.592C300.678 363.574 300.188 364.995 300.188 366.857V381H290.26V352.232H297.648L299.197 356.828H299.68C300.509 355.305 301.66 354.077 303.133 353.146C304.622 352.199 306.12 351.725 307.627 351.725ZM328.574 381.508C323.784 381.508 320.06 380.238 317.402 377.699C314.762 375.143 313.441 371.512 313.441 366.807C313.441 361.949 314.669 358.225 317.123 355.635C319.577 353.028 323.081 351.725 327.635 351.725C331.968 351.725 335.311 352.859 337.664 355.127C340.034 357.378 341.219 360.628 341.219 364.877V369.295H323.471C323.538 370.903 324.122 372.164 325.223 373.078C326.34 373.992 327.855 374.449 329.768 374.449C331.511 374.449 333.111 374.288 334.566 373.967C336.039 373.628 337.63 373.061 339.34 372.266V379.4C337.783 380.196 336.174 380.746 334.516 381.051C332.857 381.355 330.876 381.508 328.574 381.508ZM327.99 358.479C326.822 358.479 325.84 358.851 325.045 359.596C324.266 360.324 323.809 361.475 323.674 363.049H332.205C332.171 361.661 331.773 360.552 331.012 359.723C330.267 358.893 329.26 358.479 327.99 358.479ZM365.594 381L363.689 377.191H363.486C362.149 378.85 360.786 379.984 359.398 380.594C358.01 381.203 356.216 381.508 354.016 381.508C351.307 381.508 349.174 380.695 347.617 379.07C346.06 377.445 345.281 375.16 345.281 372.215C345.281 369.151 346.348 366.874 348.48 365.385C350.613 363.878 353.702 363.032 357.748 362.846L362.547 362.693V362.287C362.547 359.917 361.379 358.732 359.043 358.732C356.944 358.732 354.278 359.443 351.045 360.865L348.176 354.314C351.527 352.588 355.759 351.725 360.871 351.725C364.561 351.725 367.413 352.639 369.428 354.467C371.459 356.295 372.475 358.851 372.475 362.135V381H365.594ZM358.23 374.5C359.432 374.5 360.456 374.119 361.303 373.357C362.166 372.596 362.598 371.605 362.598 370.387V368.152L360.312 368.254C357.046 368.372 355.412 369.574 355.412 371.859C355.412 373.62 356.352 374.5 358.23 374.5ZM393.32 373.662C394.658 373.662 396.257 373.332 398.119 372.672V379.908C396.782 380.484 395.504 380.89 394.285 381.127C393.083 381.381 391.67 381.508 390.045 381.508C386.71 381.508 384.307 380.695 382.834 379.07C381.361 377.428 380.625 374.915 380.625 371.529V359.672H377.146V355.635L381.564 352.512L384.129 346.469H390.629V352.232H397.688V359.672H390.629V370.869C390.629 372.731 391.526 373.662 393.32 373.662ZM413.125 381H403.197V352.232H413.125V381ZM402.943 345.072C402.943 343.583 403.358 342.474 404.188 341.746C405.017 341.018 406.354 340.654 408.199 340.654C410.044 340.654 411.39 341.027 412.236 341.771C413.083 342.516 413.506 343.617 413.506 345.072C413.506 347.984 411.737 349.439 408.199 349.439C404.695 349.439 402.943 347.984 402.943 345.072ZM427.598 381L416.629 352.232H426.988L431.863 369.244C431.88 369.329 431.914 369.473 431.965 369.676C432.016 369.879 432.066 370.124 432.117 370.412C432.168 370.683 432.21 370.979 432.244 371.301C432.295 371.605 432.32 371.893 432.32 372.164H432.498C432.498 371.284 432.65 370.327 432.955 369.295L438.059 352.232H448.393L437.424 381H427.598ZM465.734 381.508C460.944 381.508 457.22 380.238 454.562 377.699C451.922 375.143 450.602 371.512 450.602 366.807C450.602 361.949 451.829 358.225 454.283 355.635C456.738 353.028 460.242 351.725 464.795 351.725C469.128 351.725 472.471 352.859 474.824 355.127C477.194 357.378 478.379 360.628 478.379 364.877V369.295H460.631C460.699 370.903 461.283 372.164 462.383 373.078C463.5 373.992 465.015 374.449 466.928 374.449C468.671 374.449 470.271 374.288 471.727 373.967C473.199 373.628 474.79 373.061 476.5 372.266V379.4C474.943 380.196 473.335 380.746 471.676 381.051C470.017 381.355 468.036 381.508 465.734 381.508ZM465.15 358.479C463.982 358.479 463.001 358.851 462.205 359.596C461.426 360.324 460.969 361.475 460.834 363.049H469.365C469.331 361.661 468.934 360.552 468.172 359.723C467.427 358.893 466.42 358.479 465.15 358.479ZM482.746 376.785C482.746 375.228 483.203 374.026 484.117 373.18C485.048 372.333 486.394 371.91 488.154 371.91C489.83 371.91 491.117 372.333 492.014 373.18C492.911 374.026 493.359 375.228 493.359 376.785C493.359 378.309 492.894 379.502 491.963 380.365C491.049 381.212 489.779 381.635 488.154 381.635C486.479 381.635 485.158 381.212 484.193 380.365C483.229 379.519 482.746 378.326 482.746 376.785Z" fill="#F5F4F3"/>
<path d="M146.57 438V426.578H147.898V436.797H152.938V438H146.57ZM162.078 433.711C162.078 435.107 161.727 436.198 161.023 436.984C160.32 437.766 159.349 438.156 158.109 438.156C157.344 438.156 156.664 437.977 156.07 437.617C155.477 437.258 155.018 436.742 154.695 436.07C154.372 435.398 154.211 434.612 154.211 433.711C154.211 432.315 154.56 431.229 155.258 430.453C155.956 429.672 156.924 429.281 158.164 429.281C159.362 429.281 160.312 429.68 161.016 430.477C161.724 431.273 162.078 432.352 162.078 433.711ZM155.555 433.711C155.555 434.805 155.773 435.638 156.211 436.211C156.648 436.784 157.292 437.07 158.141 437.07C158.99 437.07 159.633 436.786 160.07 436.219C160.513 435.646 160.734 434.81 160.734 433.711C160.734 432.622 160.513 431.797 160.07 431.234C159.633 430.667 158.984 430.383 158.125 430.383C157.276 430.383 156.635 430.661 156.203 431.219C155.771 431.776 155.555 432.607 155.555 433.711ZM168.266 429.281C168.646 429.281 168.987 429.312 169.289 429.375L169.109 430.578C168.755 430.5 168.443 430.461 168.172 430.461C167.479 430.461 166.885 430.742 166.391 431.305C165.901 431.867 165.656 432.568 165.656 433.406V438H164.359V429.438H165.43L165.578 431.023H165.641C165.958 430.466 166.341 430.036 166.789 429.734C167.237 429.432 167.729 429.281 168.266 429.281ZM174.508 438.156C173.242 438.156 172.242 437.771 171.508 437C170.779 436.229 170.414 435.159 170.414 433.789C170.414 432.409 170.753 431.312 171.43 430.5C172.112 429.688 173.026 429.281 174.172 429.281C175.245 429.281 176.094 429.635 176.719 430.344C177.344 431.047 177.656 431.977 177.656 433.133V433.953H171.758C171.784 434.958 172.036 435.721 172.516 436.242C173 436.763 173.68 437.023 174.555 437.023C175.477 437.023 176.388 436.831 177.289 436.445V437.602C176.831 437.799 176.396 437.94 175.984 438.023C175.578 438.112 175.086 438.156 174.508 438.156ZM174.156 430.367C173.469 430.367 172.919 430.591 172.508 431.039C172.102 431.487 171.862 432.107 171.789 432.898H176.266C176.266 432.081 176.083 431.456 175.719 431.023C175.354 430.586 174.833 430.367 174.156 430.367ZM190.789 438V432.43C190.789 431.747 190.643 431.237 190.352 430.898C190.06 430.555 189.607 430.383 188.992 430.383C188.185 430.383 187.589 430.615 187.203 431.078C186.818 431.542 186.625 432.255 186.625 433.219V438H185.328V432.43C185.328 431.747 185.182 431.237 184.891 430.898C184.599 430.555 184.143 430.383 183.523 430.383C182.711 430.383 182.115 430.628 181.734 431.117C181.359 431.602 181.172 432.398 181.172 433.508V438H179.875V429.438H180.93L181.141 430.609H181.203C181.448 430.193 181.792 429.867 182.234 429.633C182.682 429.398 183.182 429.281 183.734 429.281C185.073 429.281 185.948 429.766 186.359 430.734H186.422C186.677 430.286 187.047 429.932 187.531 429.672C188.016 429.411 188.568 429.281 189.188 429.281C190.156 429.281 190.88 429.531 191.359 430.031C191.844 430.526 192.086 431.32 192.086 432.414V438H190.789ZM200.219 438H198.922V429.438H200.219V438ZM198.812 427.117C198.812 426.82 198.885 426.604 199.031 426.469C199.177 426.328 199.359 426.258 199.578 426.258C199.786 426.258 199.966 426.328 200.117 426.469C200.268 426.609 200.344 426.826 200.344 427.117C200.344 427.409 200.268 427.628 200.117 427.773C199.966 427.914 199.786 427.984 199.578 427.984C199.359 427.984 199.177 427.914 199.031 427.773C198.885 427.628 198.812 427.409 198.812 427.117ZM206.953 438.156C206.396 438.156 205.885 438.055 205.422 437.852C204.964 437.643 204.578 437.326 204.266 436.898H204.172C204.234 437.398 204.266 437.872 204.266 438.32V441.844H202.969V429.438H204.023L204.203 430.609H204.266C204.599 430.141 204.987 429.802 205.43 429.594C205.872 429.385 206.38 429.281 206.953 429.281C208.089 429.281 208.964 429.669 209.578 430.445C210.198 431.221 210.508 432.31 210.508 433.711C210.508 435.117 210.193 436.211 209.562 436.992C208.938 437.768 208.068 438.156 206.953 438.156ZM206.766 430.383C205.891 430.383 205.258 430.625 204.867 431.109C204.477 431.594 204.276 432.365 204.266 433.422V433.711C204.266 434.914 204.466 435.776 204.867 436.297C205.268 436.812 205.911 437.07 206.797 437.07C207.536 437.07 208.115 436.771 208.531 436.172C208.953 435.573 209.164 434.747 209.164 433.695C209.164 432.628 208.953 431.81 208.531 431.242C208.115 430.669 207.526 430.383 206.766 430.383ZM218.305 435.664C218.305 436.461 218.008 437.076 217.414 437.508C216.82 437.94 215.987 438.156 214.914 438.156C213.779 438.156 212.893 437.977 212.258 437.617V436.414C212.669 436.622 213.109 436.786 213.578 436.906C214.052 437.026 214.508 437.086 214.945 437.086C215.622 437.086 216.143 436.979 216.508 436.766C216.872 436.547 217.055 436.216 217.055 435.773C217.055 435.44 216.909 435.156 216.617 434.922C216.331 434.682 215.768 434.401 214.93 434.078C214.133 433.781 213.565 433.523 213.227 433.305C212.893 433.081 212.643 432.828 212.477 432.547C212.315 432.266 212.234 431.93 212.234 431.539C212.234 430.841 212.518 430.292 213.086 429.891C213.654 429.484 214.432 429.281 215.422 429.281C216.344 429.281 217.245 429.469 218.125 429.844L217.664 430.898C216.805 430.544 216.026 430.367 215.328 430.367C214.714 430.367 214.25 430.464 213.938 430.656C213.625 430.849 213.469 431.115 213.469 431.453C213.469 431.682 213.526 431.878 213.641 432.039C213.76 432.201 213.951 432.354 214.211 432.5C214.471 432.646 214.971 432.857 215.711 433.133C216.727 433.503 217.411 433.875 217.766 434.25C218.125 434.625 218.305 435.096 218.305 435.664ZM221.641 429.438V434.992C221.641 435.69 221.799 436.211 222.117 436.555C222.435 436.898 222.932 437.07 223.609 437.07C224.505 437.07 225.159 436.826 225.57 436.336C225.987 435.846 226.195 435.047 226.195 433.938V429.438H227.492V438H226.422L226.234 436.852H226.164C225.898 437.273 225.529 437.596 225.055 437.82C224.586 438.044 224.049 438.156 223.445 438.156C222.404 438.156 221.622 437.909 221.102 437.414C220.586 436.919 220.328 436.128 220.328 435.039V429.438H221.641ZM241.164 438V432.43C241.164 431.747 241.018 431.237 240.727 430.898C240.435 430.555 239.982 430.383 239.367 430.383C238.56 430.383 237.964 430.615 237.578 431.078C237.193 431.542 237 432.255 237 433.219V438H235.703V432.43C235.703 431.747 235.557 431.237 235.266 430.898C234.974 430.555 234.518 430.383 233.898 430.383C233.086 430.383 232.49 430.628 232.109 431.117C231.734 431.602 231.547 432.398 231.547 433.508V438H230.25V429.438H231.305L231.516 430.609H231.578C231.823 430.193 232.167 429.867 232.609 429.633C233.057 429.398 233.557 429.281 234.109 429.281C235.448 429.281 236.323 429.766 236.734 430.734H236.797C237.052 430.286 237.422 429.932 237.906 429.672C238.391 429.411 238.943 429.281 239.562 429.281C240.531 429.281 241.255 429.531 241.734 430.031C242.219 430.526 242.461 431.32 242.461 432.414V438H241.164ZM255.125 436.852H255.055C254.456 437.721 253.56 438.156 252.367 438.156C251.247 438.156 250.375 437.773 249.75 437.008C249.13 436.242 248.82 435.154 248.82 433.742C248.82 432.331 249.133 431.234 249.758 430.453C250.383 429.672 251.253 429.281 252.367 429.281C253.529 429.281 254.419 429.703 255.039 430.547H255.141L255.086 429.93L255.055 429.328V425.844H256.352V438H255.297L255.125 436.852ZM252.531 437.07C253.417 437.07 254.057 436.831 254.453 436.352C254.854 435.867 255.055 435.089 255.055 434.016V433.742C255.055 432.529 254.852 431.664 254.445 431.148C254.044 430.628 253.401 430.367 252.516 430.367C251.755 430.367 251.172 430.664 250.766 431.258C250.365 431.846 250.164 432.68 250.164 433.758C250.164 434.852 250.365 435.677 250.766 436.234C251.167 436.792 251.755 437.07 252.531 437.07ZM266.5 433.711C266.5 435.107 266.148 436.198 265.445 436.984C264.742 437.766 263.771 438.156 262.531 438.156C261.766 438.156 261.086 437.977 260.492 437.617C259.898 437.258 259.44 436.742 259.117 436.07C258.794 435.398 258.633 434.612 258.633 433.711C258.633 432.315 258.982 431.229 259.68 430.453C260.378 429.672 261.346 429.281 262.586 429.281C263.784 429.281 264.734 429.68 265.438 430.477C266.146 431.273 266.5 432.352 266.5 433.711ZM259.977 433.711C259.977 434.805 260.195 435.638 260.633 436.211C261.07 436.784 261.714 437.07 262.562 437.07C263.411 437.07 264.055 436.786 264.492 436.219C264.935 435.646 265.156 434.81 265.156 433.711C265.156 432.622 264.935 431.797 264.492 431.234C264.055 430.667 263.406 430.383 262.547 430.383C261.698 430.383 261.057 430.661 260.625 431.219C260.193 431.776 259.977 432.607 259.977 433.711ZM270.078 438H268.781V425.844H270.078V438ZM280.219 433.711C280.219 435.107 279.867 436.198 279.164 436.984C278.461 437.766 277.49 438.156 276.25 438.156C275.484 438.156 274.805 437.977 274.211 437.617C273.617 437.258 273.159 436.742 272.836 436.07C272.513 435.398 272.352 434.612 272.352 433.711C272.352 432.315 272.701 431.229 273.398 430.453C274.096 429.672 275.065 429.281 276.305 429.281C277.503 429.281 278.453 429.68 279.156 430.477C279.865 431.273 280.219 432.352 280.219 433.711ZM273.695 433.711C273.695 434.805 273.914 435.638 274.352 436.211C274.789 436.784 275.432 437.07 276.281 437.07C277.13 437.07 277.773 436.786 278.211 436.219C278.654 435.646 278.875 434.81 278.875 433.711C278.875 432.622 278.654 431.797 278.211 431.234C277.773 430.667 277.125 430.383 276.266 430.383C275.417 430.383 274.776 430.661 274.344 431.219C273.911 431.776 273.695 432.607 273.695 433.711ZM286.406 429.281C286.786 429.281 287.128 429.312 287.43 429.375L287.25 430.578C286.896 430.5 286.583 430.461 286.312 430.461C285.62 430.461 285.026 430.742 284.531 431.305C284.042 431.867 283.797 432.568 283.797 433.406V438H282.5V429.438H283.57L283.719 431.023H283.781C284.099 430.466 284.482 430.036 284.93 429.734C285.378 429.432 285.87 429.281 286.406 429.281ZM298.711 435.664C298.711 436.461 298.414 437.076 297.82 437.508C297.227 437.94 296.393 438.156 295.32 438.156C294.185 438.156 293.299 437.977 292.664 437.617V436.414C293.076 436.622 293.516 436.786 293.984 436.906C294.458 437.026 294.914 437.086 295.352 437.086C296.029 437.086 296.549 436.979 296.914 436.766C297.279 436.547 297.461 436.216 297.461 435.773C297.461 435.44 297.315 435.156 297.023 434.922C296.737 434.682 296.174 434.401 295.336 434.078C294.539 433.781 293.971 433.523 293.633 433.305C293.299 433.081 293.049 432.828 292.883 432.547C292.721 432.266 292.641 431.93 292.641 431.539C292.641 430.841 292.924 430.292 293.492 429.891C294.06 429.484 294.839 429.281 295.828 429.281C296.75 429.281 297.651 429.469 298.531 429.844L298.07 430.898C297.211 430.544 296.432 430.367 295.734 430.367C295.12 430.367 294.656 430.464 294.344 430.656C294.031 430.849 293.875 431.115 293.875 431.453C293.875 431.682 293.932 431.878 294.047 432.039C294.167 432.201 294.357 432.354 294.617 432.5C294.878 432.646 295.378 432.857 296.117 433.133C297.133 433.503 297.818 433.875 298.172 434.25C298.531 434.625 298.711 435.096 298.711 435.664ZM302.125 438H300.828V429.438H302.125V438ZM300.719 427.117C300.719 426.82 300.792 426.604 300.938 426.469C301.083 426.328 301.266 426.258 301.484 426.258C301.693 426.258 301.872 426.328 302.023 426.469C302.174 426.609 302.25 426.826 302.25 427.117C302.25 427.409 302.174 427.628 302.023 427.773C301.872 427.914 301.693 427.984 301.484 427.984C301.266 427.984 301.083 427.914 300.938 427.773C300.792 427.628 300.719 427.409 300.719 427.117ZM307.641 437.086C307.87 437.086 308.091 437.07 308.305 437.039C308.518 437.003 308.688 436.966 308.812 436.93V437.922C308.672 437.99 308.464 438.044 308.188 438.086C307.917 438.133 307.672 438.156 307.453 438.156C305.797 438.156 304.969 437.284 304.969 435.539V430.445H303.742V429.82L304.969 429.281L305.516 427.453H306.266V429.438H308.75V430.445H306.266V435.484C306.266 436 306.388 436.396 306.633 436.672C306.878 436.948 307.214 437.086 307.641 437.086ZM319.953 438L319.695 436.781H319.633C319.206 437.318 318.779 437.682 318.352 437.875C317.93 438.062 317.401 438.156 316.766 438.156C315.917 438.156 315.25 437.938 314.766 437.5C314.286 437.062 314.047 436.44 314.047 435.633C314.047 433.904 315.43 432.997 318.195 432.914L319.648 432.867V432.336C319.648 431.664 319.503 431.169 319.211 430.852C318.924 430.529 318.464 430.367 317.828 430.367C317.115 430.367 316.307 430.586 315.406 431.023L315.008 430.031C315.43 429.802 315.891 429.622 316.391 429.492C316.896 429.362 317.401 429.297 317.906 429.297C318.927 429.297 319.682 429.523 320.172 429.977C320.667 430.43 320.914 431.156 320.914 432.156V438H319.953ZM317.023 437.086C317.831 437.086 318.464 436.865 318.922 436.422C319.385 435.979 319.617 435.359 319.617 434.562V433.789L318.32 433.844C317.289 433.88 316.544 434.042 316.086 434.328C315.633 434.609 315.406 435.049 315.406 435.648C315.406 436.117 315.547 436.474 315.828 436.719C316.115 436.964 316.513 437.086 317.023 437.086ZM334.508 438V432.43C334.508 431.747 334.362 431.237 334.07 430.898C333.779 430.555 333.326 430.383 332.711 430.383C331.904 430.383 331.307 430.615 330.922 431.078C330.536 431.542 330.344 432.255 330.344 433.219V438H329.047V432.43C329.047 431.747 328.901 431.237 328.609 430.898C328.318 430.555 327.862 430.383 327.242 430.383C326.43 430.383 325.833 430.628 325.453 431.117C325.078 431.602 324.891 432.398 324.891 433.508V438H323.594V429.438H324.648L324.859 430.609H324.922C325.167 430.193 325.51 429.867 325.953 429.633C326.401 429.398 326.901 429.281 327.453 429.281C328.792 429.281 329.667 429.766 330.078 430.734H330.141C330.396 430.286 330.766 429.932 331.25 429.672C331.734 429.411 332.286 429.281 332.906 429.281C333.875 429.281 334.599 429.531 335.078 430.031C335.562 430.526 335.805 431.32 335.805 432.414V438H334.508ZM342.102 438.156C340.836 438.156 339.836 437.771 339.102 437C338.372 436.229 338.008 435.159 338.008 433.789C338.008 432.409 338.346 431.312 339.023 430.5C339.706 429.688 340.62 429.281 341.766 429.281C342.839 429.281 343.688 429.635 344.312 430.344C344.938 431.047 345.25 431.977 345.25 433.133V433.953H339.352C339.378 434.958 339.63 435.721 340.109 436.242C340.594 436.763 341.273 437.023 342.148 437.023C343.07 437.023 343.982 436.831 344.883 436.445V437.602C344.424 437.799 343.99 437.94 343.578 438.023C343.172 438.112 342.68 438.156 342.102 438.156ZM341.75 430.367C341.062 430.367 340.513 430.591 340.102 431.039C339.695 431.487 339.456 432.107 339.383 432.898H343.859C343.859 432.081 343.677 431.456 343.312 431.023C342.948 430.586 342.427 430.367 341.75 430.367ZM350.234 437.086C350.464 437.086 350.685 437.07 350.898 437.039C351.112 437.003 351.281 436.966 351.406 436.93V437.922C351.266 437.99 351.057 438.044 350.781 438.086C350.51 438.133 350.266 438.156 350.047 438.156C348.391 438.156 347.562 437.284 347.562 435.539V430.445H346.336V429.82L347.562 429.281L348.109 427.453H348.859V429.438H351.344V430.445H348.859V435.484C348.859 436 348.982 436.396 349.227 436.672C349.471 436.948 349.807 437.086 350.234 437.086ZM354.484 436.141L354.602 436.32C354.466 436.841 354.271 437.445 354.016 438.133C353.76 438.826 353.495 439.469 353.219 440.062H352.242C352.383 439.521 352.536 438.852 352.703 438.055C352.875 437.258 352.995 436.62 353.062 436.141H354.484ZM364.625 438.156C363.385 438.156 362.424 437.776 361.742 437.016C361.065 436.25 360.727 435.169 360.727 433.773C360.727 432.341 361.07 431.234 361.758 430.453C362.451 429.672 363.435 429.281 364.711 429.281C365.122 429.281 365.534 429.326 365.945 429.414C366.357 429.503 366.68 429.607 366.914 429.727L366.516 430.828C366.229 430.714 365.917 430.62 365.578 430.547C365.24 430.469 364.94 430.43 364.68 430.43C362.94 430.43 362.07 431.539 362.07 433.758C362.07 434.81 362.281 435.617 362.703 436.18C363.13 436.742 363.76 437.023 364.594 437.023C365.307 437.023 366.039 436.87 366.789 436.562V437.711C366.216 438.008 365.495 438.156 364.625 438.156ZM376.219 433.711C376.219 435.107 375.867 436.198 375.164 436.984C374.461 437.766 373.49 438.156 372.25 438.156C371.484 438.156 370.805 437.977 370.211 437.617C369.617 437.258 369.159 436.742 368.836 436.07C368.513 435.398 368.352 434.612 368.352 433.711C368.352 432.315 368.701 431.229 369.398 430.453C370.096 429.672 371.065 429.281 372.305 429.281C373.503 429.281 374.453 429.68 375.156 430.477C375.865 431.273 376.219 432.352 376.219 433.711ZM369.695 433.711C369.695 434.805 369.914 435.638 370.352 436.211C370.789 436.784 371.432 437.07 372.281 437.07C373.13 437.07 373.773 436.786 374.211 436.219C374.654 435.646 374.875 434.81 374.875 433.711C374.875 432.622 374.654 431.797 374.211 431.234C373.773 430.667 373.125 430.383 372.266 430.383C371.417 430.383 370.776 430.661 370.344 431.219C369.911 431.776 369.695 432.607 369.695 433.711ZM384.359 438V432.461C384.359 431.763 384.201 431.242 383.883 430.898C383.565 430.555 383.068 430.383 382.391 430.383C381.495 430.383 380.839 430.625 380.422 431.109C380.005 431.594 379.797 432.393 379.797 433.508V438H378.5V429.438H379.555L379.766 430.609H379.828C380.094 430.188 380.466 429.862 380.945 429.633C381.424 429.398 381.958 429.281 382.547 429.281C383.578 429.281 384.354 429.531 384.875 430.031C385.396 430.526 385.656 431.32 385.656 432.414V438H384.359ZM393.852 435.664C393.852 436.461 393.555 437.076 392.961 437.508C392.367 437.94 391.534 438.156 390.461 438.156C389.326 438.156 388.44 437.977 387.805 437.617V436.414C388.216 436.622 388.656 436.786 389.125 436.906C389.599 437.026 390.055 437.086 390.492 437.086C391.169 437.086 391.69 436.979 392.055 436.766C392.419 436.547 392.602 436.216 392.602 435.773C392.602 435.44 392.456 435.156 392.164 434.922C391.878 434.682 391.315 434.401 390.477 434.078C389.68 433.781 389.112 433.523 388.773 433.305C388.44 433.081 388.19 432.828 388.023 432.547C387.862 432.266 387.781 431.93 387.781 431.539C387.781 430.841 388.065 430.292 388.633 429.891C389.201 429.484 389.979 429.281 390.969 429.281C391.891 429.281 392.792 429.469 393.672 429.844L393.211 430.898C392.352 430.544 391.573 430.367 390.875 430.367C390.26 430.367 389.797 430.464 389.484 430.656C389.172 430.849 389.016 431.115 389.016 431.453C389.016 431.682 389.073 431.878 389.188 432.039C389.307 432.201 389.497 432.354 389.758 432.5C390.018 432.646 390.518 432.857 391.258 433.133C392.273 433.503 392.958 433.875 393.312 434.25C393.672 434.625 393.852 435.096 393.852 435.664ZM399.586 438.156C398.32 438.156 397.32 437.771 396.586 437C395.857 436.229 395.492 435.159 395.492 433.789C395.492 432.409 395.831 431.312 396.508 430.5C397.19 429.688 398.104 429.281 399.25 429.281C400.323 429.281 401.172 429.635 401.797 430.344C402.422 431.047 402.734 431.977 402.734 433.133V433.953H396.836C396.862 434.958 397.115 435.721 397.594 436.242C398.078 436.763 398.758 437.023 399.633 437.023C400.555 437.023 401.466 436.831 402.367 436.445V437.602C401.909 437.799 401.474 437.94 401.062 438.023C400.656 438.112 400.164 438.156 399.586 438.156ZM399.234 430.367C398.547 430.367 397.997 430.591 397.586 431.039C397.18 431.487 396.94 432.107 396.867 432.898H401.344C401.344 432.081 401.161 431.456 400.797 431.023C400.432 430.586 399.911 430.367 399.234 430.367ZM408.375 438.156C407.135 438.156 406.174 437.776 405.492 437.016C404.815 436.25 404.477 435.169 404.477 433.773C404.477 432.341 404.82 431.234 405.508 430.453C406.201 429.672 407.185 429.281 408.461 429.281C408.872 429.281 409.284 429.326 409.695 429.414C410.107 429.503 410.43 429.607 410.664 429.727L410.266 430.828C409.979 430.714 409.667 430.62 409.328 430.547C408.99 430.469 408.69 430.43 408.43 430.43C406.69 430.43 405.82 431.539 405.82 433.758C405.82 434.81 406.031 435.617 406.453 436.18C406.88 436.742 407.51 437.023 408.344 437.023C409.057 437.023 409.789 436.87 410.539 436.562V437.711C409.966 438.008 409.245 438.156 408.375 438.156ZM415.344 437.086C415.573 437.086 415.794 437.07 416.008 437.039C416.221 437.003 416.391 436.966 416.516 436.93V437.922C416.375 437.99 416.167 438.044 415.891 438.086C415.62 438.133 415.375 438.156 415.156 438.156C413.5 438.156 412.672 437.284 412.672 435.539V430.445H411.445V429.82L412.672 429.281L413.219 427.453H413.969V429.438H416.453V430.445H413.969V435.484C413.969 436 414.091 436.396 414.336 436.672C414.581 436.948 414.917 437.086 415.344 437.086ZM421.852 438.156C420.586 438.156 419.586 437.771 418.852 437C418.122 436.229 417.758 435.159 417.758 433.789C417.758 432.409 418.096 431.312 418.773 430.5C419.456 429.688 420.37 429.281 421.516 429.281C422.589 429.281 423.438 429.635 424.062 430.344C424.688 431.047 425 431.977 425 433.133V433.953H419.102C419.128 434.958 419.38 435.721 419.859 436.242C420.344 436.763 421.023 437.023 421.898 437.023C422.82 437.023 423.732 436.831 424.633 436.445V437.602C424.174 437.799 423.74 437.94 423.328 438.023C422.922 438.112 422.43 438.156 421.852 438.156ZM421.5 430.367C420.812 430.367 420.263 430.591 419.852 431.039C419.445 431.487 419.206 432.107 419.133 432.898H423.609C423.609 432.081 423.427 431.456 423.062 431.023C422.698 430.586 422.177 430.367 421.5 430.367ZM429.984 437.086C430.214 437.086 430.435 437.07 430.648 437.039C430.862 437.003 431.031 436.966 431.156 436.93V437.922C431.016 437.99 430.807 438.044 430.531 438.086C430.26 438.133 430.016 438.156 429.797 438.156C428.141 438.156 427.312 437.284 427.312 435.539V430.445H426.086V429.82L427.312 429.281L427.859 427.453H428.609V429.438H431.094V430.445H428.609V435.484C428.609 436 428.732 436.396 428.977 436.672C429.221 436.948 429.557 437.086 429.984 437.086ZM434.094 429.438V434.992C434.094 435.69 434.253 436.211 434.57 436.555C434.888 436.898 435.385 437.07 436.062 437.07C436.958 437.07 437.612 436.826 438.023 436.336C438.44 435.846 438.648 435.047 438.648 433.938V429.438H439.945V438H438.875L438.688 436.852H438.617C438.352 437.273 437.982 437.596 437.508 437.82C437.039 438.044 436.503 438.156 435.898 438.156C434.857 438.156 434.076 437.909 433.555 437.414C433.039 436.919 432.781 436.128 432.781 435.039V429.438H434.094ZM446.609 429.281C446.99 429.281 447.331 429.312 447.633 429.375L447.453 430.578C447.099 430.5 446.786 430.461 446.516 430.461C445.823 430.461 445.229 430.742 444.734 431.305C444.245 431.867 444 432.568 444 433.406V438H442.703V429.438H443.773L443.922 431.023H443.984C444.302 430.466 444.685 430.036 445.133 429.734C445.581 429.432 446.073 429.281 446.609 429.281ZM458.656 438L458.398 436.781H458.336C457.909 437.318 457.482 437.682 457.055 437.875C456.633 438.062 456.104 438.156 455.469 438.156C454.62 438.156 453.953 437.938 453.469 437.5C452.99 437.062 452.75 436.44 452.75 435.633C452.75 433.904 454.133 432.997 456.898 432.914L458.352 432.867V432.336C458.352 431.664 458.206 431.169 457.914 430.852C457.628 430.529 457.167 430.367 456.531 430.367C455.818 430.367 455.01 430.586 454.109 431.023L453.711 430.031C454.133 429.802 454.594 429.622 455.094 429.492C455.599 429.362 456.104 429.297 456.609 429.297C457.63 429.297 458.385 429.523 458.875 429.977C459.37 430.43 459.617 431.156 459.617 432.156V438H458.656ZM455.727 437.086C456.534 437.086 457.167 436.865 457.625 436.422C458.089 435.979 458.32 435.359 458.32 434.562V433.789L457.023 433.844C455.992 433.88 455.247 434.042 454.789 434.328C454.336 434.609 454.109 435.049 454.109 435.648C454.109 436.117 454.25 436.474 454.531 436.719C454.818 436.964 455.216 437.086 455.727 437.086ZM468.125 436.852H468.055C467.456 437.721 466.56 438.156 465.367 438.156C464.247 438.156 463.375 437.773 462.75 437.008C462.13 436.242 461.82 435.154 461.82 433.742C461.82 432.331 462.133 431.234 462.758 430.453C463.383 429.672 464.253 429.281 465.367 429.281C466.529 429.281 467.419 429.703 468.039 430.547H468.141L468.086 429.93L468.055 429.328V425.844H469.352V438H468.297L468.125 436.852ZM465.531 437.07C466.417 437.07 467.057 436.831 467.453 436.352C467.854 435.867 468.055 435.089 468.055 434.016V433.742C468.055 432.529 467.852 431.664 467.445 431.148C467.044 430.628 466.401 430.367 465.516 430.367C464.755 430.367 464.172 430.664 463.766 431.258C463.365 431.846 463.164 432.68 463.164 433.758C463.164 434.852 463.365 435.677 463.766 436.234C464.167 436.792 464.755 437.07 465.531 437.07ZM473.406 438H472.109V429.438H473.406V438ZM472 427.117C472 426.82 472.073 426.604 472.219 426.469C472.365 426.328 472.547 426.258 472.766 426.258C472.974 426.258 473.154 426.328 473.305 426.469C473.456 426.609 473.531 426.826 473.531 427.117C473.531 427.409 473.456 427.628 473.305 427.773C473.154 427.914 472.974 427.984 472.766 427.984C472.547 427.984 472.365 427.914 472.219 427.773C472.073 427.628 472 427.409 472 427.117ZM480.141 438.156C479.583 438.156 479.073 438.055 478.609 437.852C478.151 437.643 477.766 437.326 477.453 436.898H477.359C477.422 437.398 477.453 437.872 477.453 438.32V441.844H476.156V429.438H477.211L477.391 430.609H477.453C477.786 430.141 478.174 429.802 478.617 429.594C479.06 429.385 479.568 429.281 480.141 429.281C481.276 429.281 482.151 429.669 482.766 430.445C483.385 431.221 483.695 432.31 483.695 433.711C483.695 435.117 483.38 436.211 482.75 436.992C482.125 437.768 481.255 438.156 480.141 438.156ZM479.953 430.383C479.078 430.383 478.445 430.625 478.055 431.109C477.664 431.594 477.464 432.365 477.453 433.422V433.711C477.453 434.914 477.654 435.776 478.055 436.297C478.456 436.812 479.099 437.07 479.984 437.07C480.724 437.07 481.302 436.771 481.719 436.172C482.141 435.573 482.352 434.747 482.352 433.695C482.352 432.628 482.141 431.81 481.719 431.242C481.302 430.669 480.714 430.383 479.953 430.383ZM487.266 438H485.969V429.438H487.266V438ZM485.859 427.117C485.859 426.82 485.932 426.604 486.078 426.469C486.224 426.328 486.406 426.258 486.625 426.258C486.833 426.258 487.013 426.328 487.164 426.469C487.315 426.609 487.391 426.826 487.391 427.117C487.391 427.409 487.315 427.628 487.164 427.773C487.013 427.914 486.833 427.984 486.625 427.984C486.406 427.984 486.224 427.914 486.078 427.773C485.932 427.628 485.859 427.409 485.859 427.117ZM495.539 435.664C495.539 436.461 495.242 437.076 494.648 437.508C494.055 437.94 493.221 438.156 492.148 438.156C491.013 438.156 490.128 437.977 489.492 437.617V436.414C489.904 436.622 490.344 436.786 490.812 436.906C491.286 437.026 491.742 437.086 492.18 437.086C492.857 437.086 493.378 436.979 493.742 436.766C494.107 436.547 494.289 436.216 494.289 435.773C494.289 435.44 494.143 435.156 493.852 434.922C493.565 434.682 493.003 434.401 492.164 434.078C491.367 433.781 490.799 433.523 490.461 433.305C490.128 433.081 489.878 432.828 489.711 432.547C489.549 432.266 489.469 431.93 489.469 431.539C489.469 430.841 489.753 430.292 490.32 429.891C490.888 429.484 491.667 429.281 492.656 429.281C493.578 429.281 494.479 429.469 495.359 429.844L494.898 430.898C494.039 430.544 493.26 430.367 492.562 430.367C491.948 430.367 491.484 430.464 491.172 430.656C490.859 430.849 490.703 431.115 490.703 431.453C490.703 431.682 490.76 431.878 490.875 432.039C490.995 432.201 491.185 432.354 491.445 432.5C491.706 432.646 492.206 432.857 492.945 433.133C493.961 433.503 494.646 433.875 495 434.25C495.359 434.625 495.539 435.096 495.539 435.664ZM501.078 438.156C499.839 438.156 498.878 437.776 498.195 437.016C497.518 436.25 497.18 435.169 497.18 433.773C497.18 432.341 497.523 431.234 498.211 430.453C498.904 429.672 499.888 429.281 501.164 429.281C501.576 429.281 501.987 429.326 502.398 429.414C502.81 429.503 503.133 429.607 503.367 429.727L502.969 430.828C502.682 430.714 502.37 430.62 502.031 430.547C501.693 430.469 501.393 430.43 501.133 430.43C499.393 430.43 498.523 431.539 498.523 433.758C498.523 434.81 498.734 435.617 499.156 436.18C499.583 436.742 500.214 437.023 501.047 437.023C501.76 437.023 502.492 436.87 503.242 436.562V437.711C502.669 438.008 501.948 438.156 501.078 438.156ZM506.578 438H505.281V429.438H506.578V438ZM505.172 427.117C505.172 426.82 505.245 426.604 505.391 426.469C505.536 426.328 505.719 426.258 505.938 426.258C506.146 426.258 506.326 426.328 506.477 426.469C506.628 426.609 506.703 426.826 506.703 427.117C506.703 427.409 506.628 427.628 506.477 427.773C506.326 427.914 506.146 427.984 505.938 427.984C505.719 427.984 505.536 427.914 505.391 427.773C505.245 427.628 505.172 427.409 505.172 427.117ZM515.188 438V432.461C515.188 431.763 515.029 431.242 514.711 430.898C514.393 430.555 513.896 430.383 513.219 430.383C512.323 430.383 511.667 430.625 511.25 431.109C510.833 431.594 510.625 432.393 510.625 433.508V438H509.328V429.438H510.383L510.594 430.609H510.656C510.922 430.188 511.294 429.862 511.773 429.633C512.253 429.398 512.786 429.281 513.375 429.281C514.406 429.281 515.182 429.531 515.703 430.031C516.224 430.526 516.484 431.32 516.484 432.414V438H515.188ZM526.164 429.438V430.258L524.578 430.445C524.724 430.628 524.854 430.867 524.969 431.164C525.083 431.456 525.141 431.786 525.141 432.156C525.141 432.995 524.854 433.664 524.281 434.164C523.708 434.664 522.922 434.914 521.922 434.914C521.667 434.914 521.427 434.893 521.203 434.852C520.651 435.143 520.375 435.51 520.375 435.953C520.375 436.188 520.471 436.362 520.664 436.477C520.857 436.586 521.188 436.641 521.656 436.641H523.172C524.099 436.641 524.81 436.836 525.305 437.227C525.805 437.617 526.055 438.185 526.055 438.93C526.055 439.878 525.674 440.599 524.914 441.094C524.154 441.594 523.044 441.844 521.586 441.844C520.466 441.844 519.602 441.635 518.992 441.219C518.388 440.802 518.086 440.214 518.086 439.453C518.086 438.932 518.253 438.482 518.586 438.102C518.919 437.721 519.388 437.464 519.992 437.328C519.773 437.229 519.589 437.076 519.438 436.867C519.292 436.659 519.219 436.417 519.219 436.141C519.219 435.828 519.302 435.555 519.469 435.32C519.635 435.086 519.898 434.859 520.258 434.641C519.815 434.458 519.453 434.148 519.172 433.711C518.896 433.273 518.758 432.773 518.758 432.211C518.758 431.273 519.039 430.552 519.602 430.047C520.164 429.536 520.961 429.281 521.992 429.281C522.44 429.281 522.844 429.333 523.203 429.438H526.164ZM519.336 439.438C519.336 439.901 519.531 440.253 519.922 440.492C520.312 440.732 520.872 440.852 521.602 440.852C522.69 440.852 523.495 440.688 524.016 440.359C524.542 440.036 524.805 439.596 524.805 439.039C524.805 438.576 524.661 438.253 524.375 438.07C524.089 437.893 523.549 437.805 522.758 437.805H521.203C520.615 437.805 520.156 437.945 519.828 438.227C519.5 438.508 519.336 438.911 519.336 439.438ZM520.039 432.18C520.039 432.779 520.208 433.232 520.547 433.539C520.885 433.846 521.357 434 521.961 434C523.227 434 523.859 433.385 523.859 432.156C523.859 430.87 523.219 430.227 521.938 430.227C521.328 430.227 520.859 430.391 520.531 430.719C520.203 431.047 520.039 431.534 520.039 432.18ZM535.695 438.156C534.43 438.156 533.43 437.771 532.695 437C531.966 436.229 531.602 435.159 531.602 433.789C531.602 432.409 531.94 431.312 532.617 430.5C533.299 429.688 534.214 429.281 535.359 429.281C536.432 429.281 537.281 429.635 537.906 430.344C538.531 431.047 538.844 431.977 538.844 433.133V433.953H532.945C532.971 434.958 533.224 435.721 533.703 436.242C534.188 436.763 534.867 437.023 535.742 437.023C536.664 437.023 537.576 436.831 538.477 436.445V437.602C538.018 437.799 537.583 437.94 537.172 438.023C536.766 438.112 536.273 438.156 535.695 438.156ZM535.344 430.367C534.656 430.367 534.107 430.591 533.695 431.039C533.289 431.487 533.049 432.107 532.977 432.898H537.453C537.453 432.081 537.271 431.456 536.906 431.023C536.542 430.586 536.021 430.367 535.344 430.367ZM542.359 438H541.062V425.844H542.359V438ZM546.406 438H545.109V429.438H546.406V438ZM545 427.117C545 426.82 545.073 426.604 545.219 426.469C545.365 426.328 545.547 426.258 545.766 426.258C545.974 426.258 546.154 426.328 546.305 426.469C546.456 426.609 546.531 426.826 546.531 427.117C546.531 427.409 546.456 427.628 546.305 427.773C546.154 427.914 545.974 427.984 545.766 427.984C545.547 427.984 545.365 427.914 545.219 427.773C545.073 427.628 545 427.409 545 427.117ZM551.922 437.086C552.151 437.086 552.372 437.07 552.586 437.039C552.799 437.003 552.969 436.966 553.094 436.93V437.922C552.953 437.99 552.745 438.044 552.469 438.086C552.198 438.133 551.953 438.156 551.734 438.156C550.078 438.156 549.25 437.284 549.25 435.539V430.445H548.023V429.82L549.25 429.281L549.797 427.453H550.547V429.438H553.031V430.445H550.547V435.484C550.547 436 550.669 436.396 550.914 436.672C551.159 436.948 551.495 437.086 551.922 437.086ZM554.625 437.172C554.625 436.823 554.703 436.56 554.859 436.383C555.021 436.201 555.25 436.109 555.547 436.109C555.849 436.109 556.083 436.201 556.25 436.383C556.422 436.56 556.508 436.823 556.508 437.172C556.508 437.51 556.422 437.771 556.25 437.953C556.078 438.135 555.844 438.227 555.547 438.227C555.281 438.227 555.06 438.146 554.883 437.984C554.711 437.818 554.625 437.547 554.625 437.172ZM151.461 449.602C150.206 449.602 149.214 450.021 148.484 450.859C147.76 451.693 147.398 452.836 147.398 454.289C147.398 455.784 147.747 456.94 148.445 457.758C149.148 458.57 150.148 458.977 151.445 458.977C152.242 458.977 153.151 458.833 154.172 458.547V459.711C153.38 460.008 152.404 460.156 151.242 460.156C149.56 460.156 148.26 459.646 147.344 458.625C146.432 457.604 145.977 456.154 145.977 454.273C145.977 453.096 146.195 452.065 146.633 451.18C147.076 450.294 147.711 449.612 148.539 449.133C149.372 448.654 150.352 448.414 151.477 448.414C152.674 448.414 153.721 448.633 154.617 449.07L154.055 450.211C153.19 449.805 152.326 449.602 151.461 449.602ZM157.688 451.438V456.992C157.688 457.69 157.846 458.211 158.164 458.555C158.482 458.898 158.979 459.07 159.656 459.07C160.552 459.07 161.206 458.826 161.617 458.336C162.034 457.846 162.242 457.047 162.242 455.938V451.438H163.539V460H162.469L162.281 458.852H162.211C161.945 459.273 161.576 459.596 161.102 459.82C160.633 460.044 160.096 460.156 159.492 460.156C158.451 460.156 157.669 459.909 157.148 459.414C156.633 458.919 156.375 458.128 156.375 457.039V451.438H157.688ZM170.203 451.281C170.583 451.281 170.924 451.312 171.227 451.375L171.047 452.578C170.693 452.5 170.38 452.461 170.109 452.461C169.417 452.461 168.823 452.742 168.328 453.305C167.839 453.867 167.594 454.568 167.594 455.406V460H166.297V451.438H167.367L167.516 453.023H167.578C167.896 452.466 168.279 452.036 168.727 451.734C169.174 451.432 169.667 451.281 170.203 451.281ZM178.094 460L177.836 458.781H177.773C177.346 459.318 176.919 459.682 176.492 459.875C176.07 460.062 175.542 460.156 174.906 460.156C174.057 460.156 173.391 459.938 172.906 459.5C172.427 459.062 172.188 458.44 172.188 457.633C172.188 455.904 173.57 454.997 176.336 454.914L177.789 454.867V454.336C177.789 453.664 177.643 453.169 177.352 452.852C177.065 452.529 176.604 452.367 175.969 452.367C175.255 452.367 174.448 452.586 173.547 453.023L173.148 452.031C173.57 451.802 174.031 451.622 174.531 451.492C175.036 451.362 175.542 451.297 176.047 451.297C177.068 451.297 177.823 451.523 178.312 451.977C178.807 452.43 179.055 453.156 179.055 454.156V460H178.094ZM175.164 459.086C175.971 459.086 176.604 458.865 177.062 458.422C177.526 457.979 177.758 457.359 177.758 456.562V455.789L176.461 455.844C175.43 455.88 174.685 456.042 174.227 456.328C173.773 456.609 173.547 457.049 173.547 457.648C173.547 458.117 173.688 458.474 173.969 458.719C174.255 458.964 174.654 459.086 175.164 459.086ZM185.719 451.297C186.844 451.297 187.716 451.682 188.336 452.453C188.961 453.219 189.273 454.305 189.273 455.711C189.273 457.117 188.958 458.211 188.328 458.992C187.703 459.768 186.833 460.156 185.719 460.156C185.161 460.156 184.651 460.055 184.188 459.852C183.729 459.643 183.344 459.326 183.031 458.898H182.938L182.664 460H181.734V447.844H183.031V450.797C183.031 451.458 183.01 452.052 182.969 452.578H183.031C183.635 451.724 184.531 451.297 185.719 451.297ZM185.531 452.383C184.646 452.383 184.008 452.638 183.617 453.148C183.227 453.654 183.031 454.508 183.031 455.711C183.031 456.914 183.232 457.776 183.633 458.297C184.034 458.812 184.677 459.07 185.562 459.07C186.359 459.07 186.953 458.781 187.344 458.203C187.734 457.62 187.93 456.784 187.93 455.695C187.93 454.581 187.734 453.75 187.344 453.203C186.953 452.656 186.349 452.383 185.531 452.383ZM192.844 460H191.547V451.438H192.844V460ZM191.438 449.117C191.438 448.82 191.51 448.604 191.656 448.469C191.802 448.328 191.984 448.258 192.203 448.258C192.411 448.258 192.591 448.328 192.742 448.469C192.893 448.609 192.969 448.826 192.969 449.117C192.969 449.409 192.893 449.628 192.742 449.773C192.591 449.914 192.411 449.984 192.203 449.984C191.984 449.984 191.802 449.914 191.656 449.773C191.51 449.628 191.438 449.409 191.438 449.117ZM198.359 459.086C198.589 459.086 198.81 459.07 199.023 459.039C199.237 459.003 199.406 458.966 199.531 458.93V459.922C199.391 459.99 199.182 460.044 198.906 460.086C198.635 460.133 198.391 460.156 198.172 460.156C196.516 460.156 195.688 459.284 195.688 457.539V452.445H194.461V451.82L195.688 451.281L196.234 449.453H196.984V451.438H199.469V452.445H196.984V457.484C196.984 458 197.107 458.396 197.352 458.672C197.596 458.948 197.932 459.086 198.359 459.086ZM202.469 451.438V456.992C202.469 457.69 202.628 458.211 202.945 458.555C203.263 458.898 203.76 459.07 204.438 459.07C205.333 459.07 205.987 458.826 206.398 458.336C206.815 457.846 207.023 457.047 207.023 455.938V451.438H208.32V460H207.25L207.062 458.852H206.992C206.727 459.273 206.357 459.596 205.883 459.82C205.414 460.044 204.878 460.156 204.273 460.156C203.232 460.156 202.451 459.909 201.93 459.414C201.414 458.919 201.156 458.128 201.156 457.039V451.438H202.469ZM214.984 451.281C215.365 451.281 215.706 451.312 216.008 451.375L215.828 452.578C215.474 452.5 215.161 452.461 214.891 452.461C214.198 452.461 213.604 452.742 213.109 453.305C212.62 453.867 212.375 454.568 212.375 455.406V460H211.078V451.438H212.148L212.297 453.023H212.359C212.677 452.466 213.06 452.036 213.508 451.734C213.956 451.432 214.448 451.281 214.984 451.281ZM227.289 457.664C227.289 458.461 226.992 459.076 226.398 459.508C225.805 459.94 224.971 460.156 223.898 460.156C222.763 460.156 221.878 459.977 221.242 459.617V458.414C221.654 458.622 222.094 458.786 222.562 458.906C223.036 459.026 223.492 459.086 223.93 459.086C224.607 459.086 225.128 458.979 225.492 458.766C225.857 458.547 226.039 458.216 226.039 457.773C226.039 457.44 225.893 457.156 225.602 456.922C225.315 456.682 224.753 456.401 223.914 456.078C223.117 455.781 222.549 455.523 222.211 455.305C221.878 455.081 221.628 454.828 221.461 454.547C221.299 454.266 221.219 453.93 221.219 453.539C221.219 452.841 221.503 452.292 222.07 451.891C222.638 451.484 223.417 451.281 224.406 451.281C225.328 451.281 226.229 451.469 227.109 451.844L226.648 452.898C225.789 452.544 225.01 452.367 224.312 452.367C223.698 452.367 223.234 452.464 222.922 452.656C222.609 452.849 222.453 453.115 222.453 453.453C222.453 453.682 222.51 453.878 222.625 454.039C222.745 454.201 222.935 454.354 223.195 454.5C223.456 454.646 223.956 454.857 224.695 455.133C225.711 455.503 226.396 455.875 226.75 456.25C227.109 456.625 227.289 457.096 227.289 457.664ZM230.625 451.438V456.992C230.625 457.69 230.784 458.211 231.102 458.555C231.419 458.898 231.917 459.07 232.594 459.07C233.49 459.07 234.143 458.826 234.555 458.336C234.971 457.846 235.18 457.047 235.18 455.938V451.438H236.477V460H235.406L235.219 458.852H235.148C234.883 459.273 234.513 459.596 234.039 459.82C233.57 460.044 233.034 460.156 232.43 460.156C231.388 460.156 230.607 459.909 230.086 459.414C229.57 458.919 229.312 458.128 229.312 457.039V451.438H230.625ZM244.758 457.664C244.758 458.461 244.461 459.076 243.867 459.508C243.273 459.94 242.44 460.156 241.367 460.156C240.232 460.156 239.346 459.977 238.711 459.617V458.414C239.122 458.622 239.562 458.786 240.031 458.906C240.505 459.026 240.961 459.086 241.398 459.086C242.076 459.086 242.596 458.979 242.961 458.766C243.326 458.547 243.508 458.216 243.508 457.773C243.508 457.44 243.362 457.156 243.07 456.922C242.784 456.682 242.221 456.401 241.383 456.078C240.586 455.781 240.018 455.523 239.68 455.305C239.346 455.081 239.096 454.828 238.93 454.547C238.768 454.266 238.688 453.93 238.688 453.539C238.688 452.841 238.971 452.292 239.539 451.891C240.107 451.484 240.885 451.281 241.875 451.281C242.797 451.281 243.698 451.469 244.578 451.844L244.117 452.898C243.258 452.544 242.479 452.367 241.781 452.367C241.167 452.367 240.703 452.464 240.391 452.656C240.078 452.849 239.922 453.115 239.922 453.453C239.922 453.682 239.979 453.878 240.094 454.039C240.214 454.201 240.404 454.354 240.664 454.5C240.924 454.646 241.424 454.857 242.164 455.133C243.18 455.503 243.865 455.875 244.219 456.25C244.578 456.625 244.758 457.096 244.758 457.664ZM250.859 460.156C250.302 460.156 249.792 460.055 249.328 459.852C248.87 459.643 248.484 459.326 248.172 458.898H248.078C248.141 459.398 248.172 459.872 248.172 460.32V463.844H246.875V451.438H247.93L248.109 452.609H248.172C248.505 452.141 248.893 451.802 249.336 451.594C249.779 451.385 250.286 451.281 250.859 451.281C251.995 451.281 252.87 451.669 253.484 452.445C254.104 453.221 254.414 454.31 254.414 455.711C254.414 457.117 254.099 458.211 253.469 458.992C252.844 459.768 251.974 460.156 250.859 460.156ZM250.672 452.383C249.797 452.383 249.164 452.625 248.773 453.109C248.383 453.594 248.182 454.365 248.172 455.422V455.711C248.172 456.914 248.372 457.776 248.773 458.297C249.174 458.812 249.818 459.07 250.703 459.07C251.443 459.07 252.021 458.771 252.438 458.172C252.859 457.573 253.07 456.747 253.07 455.695C253.07 454.628 252.859 453.81 252.438 453.242C252.021 452.669 251.432 452.383 250.672 452.383ZM260.305 460.156C259.039 460.156 258.039 459.771 257.305 459C256.576 458.229 256.211 457.159 256.211 455.789C256.211 454.409 256.549 453.312 257.227 452.5C257.909 451.688 258.823 451.281 259.969 451.281C261.042 451.281 261.891 451.635 262.516 452.344C263.141 453.047 263.453 453.977 263.453 455.133V455.953H257.555C257.581 456.958 257.833 457.721 258.312 458.242C258.797 458.763 259.477 459.023 260.352 459.023C261.273 459.023 262.185 458.831 263.086 458.445V459.602C262.628 459.799 262.193 459.94 261.781 460.023C261.375 460.112 260.883 460.156 260.305 460.156ZM259.953 452.367C259.266 452.367 258.716 452.591 258.305 453.039C257.898 453.487 257.659 454.107 257.586 454.898H262.062C262.062 454.081 261.88 453.456 261.516 453.023C261.151 452.586 260.63 452.367 259.953 452.367ZM271.531 460V454.461C271.531 453.763 271.372 453.242 271.055 452.898C270.737 452.555 270.24 452.383 269.562 452.383C268.667 452.383 268.01 452.625 267.594 453.109C267.177 453.594 266.969 454.393 266.969 455.508V460H265.672V451.438H266.727L266.938 452.609H267C267.266 452.188 267.638 451.862 268.117 451.633C268.596 451.398 269.13 451.281 269.719 451.281C270.75 451.281 271.526 451.531 272.047 452.031C272.568 452.526 272.828 453.32 272.828 454.414V460H271.531ZM281.328 458.852H281.258C280.659 459.721 279.763 460.156 278.57 460.156C277.451 460.156 276.578 459.773 275.953 459.008C275.333 458.242 275.023 457.154 275.023 455.742C275.023 454.331 275.336 453.234 275.961 452.453C276.586 451.672 277.456 451.281 278.57 451.281C279.732 451.281 280.622 451.703 281.242 452.547H281.344L281.289 451.93L281.258 451.328V447.844H282.555V460H281.5L281.328 458.852ZM278.734 459.07C279.62 459.07 280.26 458.831 280.656 458.352C281.057 457.867 281.258 457.089 281.258 456.016V455.742C281.258 454.529 281.055 453.664 280.648 453.148C280.247 452.628 279.604 452.367 278.719 452.367C277.958 452.367 277.375 452.664 276.969 453.258C276.568 453.846 276.367 454.68 276.367 455.758C276.367 456.852 276.568 457.677 276.969 458.234C277.37 458.792 277.958 459.07 278.734 459.07ZM286.609 460H285.312V451.438H286.609V460ZM285.203 449.117C285.203 448.82 285.276 448.604 285.422 448.469C285.568 448.328 285.75 448.258 285.969 448.258C286.177 448.258 286.357 448.328 286.508 448.469C286.659 448.609 286.734 448.826 286.734 449.117C286.734 449.409 286.659 449.628 286.508 449.773C286.357 449.914 286.177 449.984 285.969 449.984C285.75 449.984 285.568 449.914 285.422 449.773C285.276 449.628 285.203 449.409 285.203 449.117ZM294.883 457.664C294.883 458.461 294.586 459.076 293.992 459.508C293.398 459.94 292.565 460.156 291.492 460.156C290.357 460.156 289.471 459.977 288.836 459.617V458.414C289.247 458.622 289.688 458.786 290.156 458.906C290.63 459.026 291.086 459.086 291.523 459.086C292.201 459.086 292.721 458.979 293.086 458.766C293.451 458.547 293.633 458.216 293.633 457.773C293.633 457.44 293.487 457.156 293.195 456.922C292.909 456.682 292.346 456.401 291.508 456.078C290.711 455.781 290.143 455.523 289.805 455.305C289.471 455.081 289.221 454.828 289.055 454.547C288.893 454.266 288.812 453.93 288.812 453.539C288.812 452.841 289.096 452.292 289.664 451.891C290.232 451.484 291.01 451.281 292 451.281C292.922 451.281 293.823 451.469 294.703 451.844L294.242 452.898C293.383 452.544 292.604 452.367 291.906 452.367C291.292 452.367 290.828 452.464 290.516 452.656C290.203 452.849 290.047 453.115 290.047 453.453C290.047 453.682 290.104 453.878 290.219 454.039C290.339 454.201 290.529 454.354 290.789 454.5C291.049 454.646 291.549 454.857 292.289 455.133C293.305 455.503 293.99 455.875 294.344 456.25C294.703 456.625 294.883 457.096 294.883 457.664ZM302.523 457.664C302.523 458.461 302.227 459.076 301.633 459.508C301.039 459.94 300.206 460.156 299.133 460.156C297.997 460.156 297.112 459.977 296.477 459.617V458.414C296.888 458.622 297.328 458.786 297.797 458.906C298.271 459.026 298.727 459.086 299.164 459.086C299.841 459.086 300.362 458.979 300.727 458.766C301.091 458.547 301.273 458.216 301.273 457.773C301.273 457.44 301.128 457.156 300.836 456.922C300.549 456.682 299.987 456.401 299.148 456.078C298.352 455.781 297.784 455.523 297.445 455.305C297.112 455.081 296.862 454.828 296.695 454.547C296.534 454.266 296.453 453.93 296.453 453.539C296.453 452.841 296.737 452.292 297.305 451.891C297.872 451.484 298.651 451.281 299.641 451.281C300.562 451.281 301.464 451.469 302.344 451.844L301.883 452.898C301.023 452.544 300.245 452.367 299.547 452.367C298.932 452.367 298.469 452.464 298.156 452.656C297.844 452.849 297.688 453.115 297.688 453.453C297.688 453.682 297.745 453.878 297.859 454.039C297.979 454.201 298.169 454.354 298.43 454.5C298.69 454.646 299.19 454.857 299.93 455.133C300.945 455.503 301.63 455.875 301.984 456.25C302.344 456.625 302.523 457.096 302.523 457.664ZM308.258 460.156C306.992 460.156 305.992 459.771 305.258 459C304.529 458.229 304.164 457.159 304.164 455.789C304.164 454.409 304.503 453.312 305.18 452.5C305.862 451.688 306.776 451.281 307.922 451.281C308.995 451.281 309.844 451.635 310.469 452.344C311.094 453.047 311.406 453.977 311.406 455.133V455.953H305.508C305.534 456.958 305.786 457.721 306.266 458.242C306.75 458.763 307.43 459.023 308.305 459.023C309.227 459.023 310.138 458.831 311.039 458.445V459.602C310.581 459.799 310.146 459.94 309.734 460.023C309.328 460.112 308.836 460.156 308.258 460.156ZM307.906 452.367C307.219 452.367 306.669 452.591 306.258 453.039C305.852 453.487 305.612 454.107 305.539 454.898H310.016C310.016 454.081 309.833 453.456 309.469 453.023C309.104 452.586 308.583 452.367 307.906 452.367ZM319.078 460H317.781V451.438H319.078V460ZM317.672 449.117C317.672 448.82 317.745 448.604 317.891 448.469C318.036 448.328 318.219 448.258 318.438 448.258C318.646 448.258 318.826 448.328 318.977 448.469C319.128 448.609 319.203 448.826 319.203 449.117C319.203 449.409 319.128 449.628 318.977 449.773C318.826 449.914 318.646 449.984 318.438 449.984C318.219 449.984 318.036 449.914 317.891 449.773C317.745 449.628 317.672 449.409 317.672 449.117ZM325.812 460.156C325.255 460.156 324.745 460.055 324.281 459.852C323.823 459.643 323.438 459.326 323.125 458.898H323.031C323.094 459.398 323.125 459.872 323.125 460.32V463.844H321.828V451.438H322.883L323.062 452.609H323.125C323.458 452.141 323.846 451.802 324.289 451.594C324.732 451.385 325.24 451.281 325.812 451.281C326.948 451.281 327.823 451.669 328.438 452.445C329.057 453.221 329.367 454.31 329.367 455.711C329.367 457.117 329.052 458.211 328.422 458.992C327.797 459.768 326.927 460.156 325.812 460.156ZM325.625 452.383C324.75 452.383 324.117 452.625 323.727 453.109C323.336 453.594 323.135 454.365 323.125 455.422V455.711C323.125 456.914 323.326 457.776 323.727 458.297C324.128 458.812 324.771 459.07 325.656 459.07C326.396 459.07 326.974 458.771 327.391 458.172C327.812 457.573 328.023 456.747 328.023 455.695C328.023 454.628 327.812 453.81 327.391 453.242C326.974 452.669 326.385 452.383 325.625 452.383ZM337.164 457.664C337.164 458.461 336.867 459.076 336.273 459.508C335.68 459.94 334.846 460.156 333.773 460.156C332.638 460.156 331.753 459.977 331.117 459.617V458.414C331.529 458.622 331.969 458.786 332.438 458.906C332.911 459.026 333.367 459.086 333.805 459.086C334.482 459.086 335.003 458.979 335.367 458.766C335.732 458.547 335.914 458.216 335.914 457.773C335.914 457.44 335.768 457.156 335.477 456.922C335.19 456.682 334.628 456.401 333.789 456.078C332.992 455.781 332.424 455.523 332.086 455.305C331.753 455.081 331.503 454.828 331.336 454.547C331.174 454.266 331.094 453.93 331.094 453.539C331.094 452.841 331.378 452.292 331.945 451.891C332.513 451.484 333.292 451.281 334.281 451.281C335.203 451.281 336.104 451.469 336.984 451.844L336.523 452.898C335.664 452.544 334.885 452.367 334.188 452.367C333.573 452.367 333.109 452.464 332.797 452.656C332.484 452.849 332.328 453.115 332.328 453.453C332.328 453.682 332.385 453.878 332.5 454.039C332.62 454.201 332.81 454.354 333.07 454.5C333.331 454.646 333.831 454.857 334.57 455.133C335.586 455.503 336.271 455.875 336.625 456.25C336.984 456.625 337.164 457.096 337.164 457.664ZM340.5 451.438V456.992C340.5 457.69 340.659 458.211 340.977 458.555C341.294 458.898 341.792 459.07 342.469 459.07C343.365 459.07 344.018 458.826 344.43 458.336C344.846 457.846 345.055 457.047 345.055 455.938V451.438H346.352V460H345.281L345.094 458.852H345.023C344.758 459.273 344.388 459.596 343.914 459.82C343.445 460.044 342.909 460.156 342.305 460.156C341.263 460.156 340.482 459.909 339.961 459.414C339.445 458.919 339.188 458.128 339.188 457.039V451.438H340.5ZM360.023 460V454.43C360.023 453.747 359.878 453.237 359.586 452.898C359.294 452.555 358.841 452.383 358.227 452.383C357.419 452.383 356.823 452.615 356.438 453.078C356.052 453.542 355.859 454.255 355.859 455.219V460H354.562V454.43C354.562 453.747 354.417 453.237 354.125 452.898C353.833 452.555 353.378 452.383 352.758 452.383C351.945 452.383 351.349 452.628 350.969 453.117C350.594 453.602 350.406 454.398 350.406 455.508V460H349.109V451.438H350.164L350.375 452.609H350.438C350.682 452.193 351.026 451.867 351.469 451.633C351.917 451.398 352.417 451.281 352.969 451.281C354.307 451.281 355.182 451.766 355.594 452.734H355.656C355.911 452.286 356.281 451.932 356.766 451.672C357.25 451.411 357.802 451.281 358.422 451.281C359.391 451.281 360.115 451.531 360.594 452.031C361.078 452.526 361.32 453.32 361.32 454.414V460H360.023ZM365.359 458.141L365.477 458.32C365.341 458.841 365.146 459.445 364.891 460.133C364.635 460.826 364.37 461.469 364.094 462.062H363.117C363.258 461.521 363.411 460.852 363.578 460.055C363.75 459.258 363.87 458.62 363.938 458.141H365.359ZM373.375 460H372.078V447.844H373.375V460ZM379.742 460.156C378.477 460.156 377.477 459.771 376.742 459C376.013 458.229 375.648 457.159 375.648 455.789C375.648 454.409 375.987 453.312 376.664 452.5C377.346 451.688 378.26 451.281 379.406 451.281C380.479 451.281 381.328 451.635 381.953 452.344C382.578 453.047 382.891 453.977 382.891 455.133V455.953H376.992C377.018 456.958 377.271 457.721 377.75 458.242C378.234 458.763 378.914 459.023 379.789 459.023C380.711 459.023 381.622 458.831 382.523 458.445V459.602C382.065 459.799 381.63 459.94 381.219 460.023C380.812 460.112 380.32 460.156 379.742 460.156ZM379.391 452.367C378.703 452.367 378.154 452.591 377.742 453.039C377.336 453.487 377.096 454.107 377.023 454.898H381.5C381.5 454.081 381.318 453.456 380.953 453.023C380.589 452.586 380.068 452.367 379.391 452.367ZM392.5 455.711C392.5 457.107 392.148 458.198 391.445 458.984C390.742 459.766 389.771 460.156 388.531 460.156C387.766 460.156 387.086 459.977 386.492 459.617C385.898 459.258 385.44 458.742 385.117 458.07C384.794 457.398 384.633 456.612 384.633 455.711C384.633 454.315 384.982 453.229 385.68 452.453C386.378 451.672 387.346 451.281 388.586 451.281C389.784 451.281 390.734 451.68 391.438 452.477C392.146 453.273 392.5 454.352 392.5 455.711ZM385.977 455.711C385.977 456.805 386.195 457.638 386.633 458.211C387.07 458.784 387.714 459.07 388.562 459.07C389.411 459.07 390.055 458.786 390.492 458.219C390.935 457.646 391.156 456.81 391.156 455.711C391.156 454.622 390.935 453.797 390.492 453.234C390.055 452.667 389.406 452.383 388.547 452.383C387.698 452.383 387.057 452.661 386.625 453.219C386.193 453.776 385.977 454.607 385.977 455.711ZM404.203 460L403.945 458.781H403.883C403.456 459.318 403.029 459.682 402.602 459.875C402.18 460.062 401.651 460.156 401.016 460.156C400.167 460.156 399.5 459.938 399.016 459.5C398.536 459.062 398.297 458.44 398.297 457.633C398.297 455.904 399.68 454.997 402.445 454.914L403.898 454.867V454.336C403.898 453.664 403.753 453.169 403.461 452.852C403.174 452.529 402.714 452.367 402.078 452.367C401.365 452.367 400.557 452.586 399.656 453.023L399.258 452.031C399.68 451.802 400.141 451.622 400.641 451.492C401.146 451.362 401.651 451.297 402.156 451.297C403.177 451.297 403.932 451.523 404.422 451.977C404.917 452.43 405.164 453.156 405.164 454.156V460H404.203ZM401.273 459.086C402.081 459.086 402.714 458.865 403.172 458.422C403.635 457.979 403.867 457.359 403.867 456.562V455.789L402.57 455.844C401.539 455.88 400.794 456.042 400.336 456.328C399.883 456.609 399.656 457.049 399.656 457.648C399.656 458.117 399.797 458.474 400.078 458.719C400.365 458.964 400.763 459.086 401.273 459.086ZM409.062 451.438V456.992C409.062 457.69 409.221 458.211 409.539 458.555C409.857 458.898 410.354 459.07 411.031 459.07C411.927 459.07 412.581 458.826 412.992 458.336C413.409 457.846 413.617 457.047 413.617 455.938V451.438H414.914V460H413.844L413.656 458.852H413.586C413.32 459.273 412.951 459.596 412.477 459.82C412.008 460.044 411.471 460.156 410.867 460.156C409.826 460.156 409.044 459.909 408.523 459.414C408.008 458.919 407.75 458.128 407.75 457.039V451.438H409.062ZM424.68 451.438V452.258L423.094 452.445C423.24 452.628 423.37 452.867 423.484 453.164C423.599 453.456 423.656 453.786 423.656 454.156C423.656 454.995 423.37 455.664 422.797 456.164C422.224 456.664 421.438 456.914 420.438 456.914C420.182 456.914 419.943 456.893 419.719 456.852C419.167 457.143 418.891 457.51 418.891 457.953C418.891 458.188 418.987 458.362 419.18 458.477C419.372 458.586 419.703 458.641 420.172 458.641H421.688C422.615 458.641 423.326 458.836 423.82 459.227C424.32 459.617 424.57 460.185 424.57 460.93C424.57 461.878 424.19 462.599 423.43 463.094C422.669 463.594 421.56 463.844 420.102 463.844C418.982 463.844 418.117 463.635 417.508 463.219C416.904 462.802 416.602 462.214 416.602 461.453C416.602 460.932 416.768 460.482 417.102 460.102C417.435 459.721 417.904 459.464 418.508 459.328C418.289 459.229 418.104 459.076 417.953 458.867C417.807 458.659 417.734 458.417 417.734 458.141C417.734 457.828 417.818 457.555 417.984 457.32C418.151 457.086 418.414 456.859 418.773 456.641C418.331 456.458 417.969 456.148 417.688 455.711C417.411 455.273 417.273 454.773 417.273 454.211C417.273 453.273 417.555 452.552 418.117 452.047C418.68 451.536 419.477 451.281 420.508 451.281C420.956 451.281 421.359 451.333 421.719 451.438H424.68ZM417.852 461.438C417.852 461.901 418.047 462.253 418.438 462.492C418.828 462.732 419.388 462.852 420.117 462.852C421.206 462.852 422.01 462.688 422.531 462.359C423.057 462.036 423.32 461.596 423.32 461.039C423.32 460.576 423.177 460.253 422.891 460.07C422.604 459.893 422.065 459.805 421.273 459.805H419.719C419.13 459.805 418.672 459.945 418.344 460.227C418.016 460.508 417.852 460.911 417.852 461.438ZM418.555 454.18C418.555 454.779 418.724 455.232 419.062 455.539C419.401 455.846 419.872 456 420.477 456C421.742 456 422.375 455.385 422.375 454.156C422.375 452.87 421.734 452.227 420.453 452.227C419.844 452.227 419.375 452.391 419.047 452.719C418.719 453.047 418.555 453.534 418.555 454.18ZM427.656 451.438V456.992C427.656 457.69 427.815 458.211 428.133 458.555C428.451 458.898 428.948 459.07 429.625 459.07C430.521 459.07 431.174 458.826 431.586 458.336C432.003 457.846 432.211 457.047 432.211 455.938V451.438H433.508V460H432.438L432.25 458.852H432.18C431.914 459.273 431.544 459.596 431.07 459.82C430.602 460.044 430.065 460.156 429.461 460.156C428.419 460.156 427.638 459.909 427.117 459.414C426.602 458.919 426.344 458.128 426.344 457.039V451.438H427.656ZM439.883 460.156C438.617 460.156 437.617 459.771 436.883 459C436.154 458.229 435.789 457.159 435.789 455.789C435.789 454.409 436.128 453.312 436.805 452.5C437.487 451.688 438.401 451.281 439.547 451.281C440.62 451.281 441.469 451.635 442.094 452.344C442.719 453.047 443.031 453.977 443.031 455.133V455.953H437.133C437.159 456.958 437.411 457.721 437.891 458.242C438.375 458.763 439.055 459.023 439.93 459.023C440.852 459.023 441.763 458.831 442.664 458.445V459.602C442.206 459.799 441.771 459.94 441.359 460.023C440.953 460.112 440.461 460.156 439.883 460.156ZM439.531 452.367C438.844 452.367 438.294 452.591 437.883 453.039C437.477 453.487 437.237 454.107 437.164 454.898H441.641C441.641 454.081 441.458 453.456 441.094 453.023C440.729 452.586 440.208 452.367 439.531 452.367ZM445.062 459.172C445.062 458.823 445.141 458.56 445.297 458.383C445.458 458.201 445.688 458.109 445.984 458.109C446.286 458.109 446.521 458.201 446.688 458.383C446.859 458.56 446.945 458.823 446.945 459.172C446.945 459.51 446.859 459.771 446.688 459.953C446.516 460.135 446.281 460.227 445.984 460.227C445.719 460.227 445.497 460.146 445.32 459.984C445.148 459.818 445.062 459.547 445.062 459.172Z" fill="#DDDDDD"/>
<defs>
<filter id="filter0_f_90_176" x="233" y="630" width="321" height="248" filterUnits="userSpaceOnUse" color-interpolation-filters="sRGB">
<feFlood flood-opacity="0" result="BackgroundImageFix"/>
<feBlend mode="normal" in="SourceGraphic" in2="BackgroundImageFix" result="shape"/>
<feGaussianBlur stdDeviation="42.5" result="effect1_foregroundBlur_90_176"/>
</filter>
</defs>
</svg>
